<svg preserveAspectRatio="none" width="100%" height="100%" overflow="visible" style="display: block;" viewBox="0 0 16 12" fill="none" xmlns="http://www.w3.org/2000/svg">
<path id="Vector" d="M15.4153 0.585614C15.7897 0.960696 16 1.46935 16 1.99971C16 2.53008 15.7897 3.03873 15.4153 3.41382L7.42737 11.4144C7.05288 11.7894 6.54503 12 6.0155 12C5.48597 12 4.97812 11.7894 4.60363 11.4144L0.609658 7.4141C0.418925 7.22959 0.26679 7.00889 0.16213 6.76486C0.0574692 6.52084 0.00237971 6.25838 7.54088e-05 5.9928C-0.00222889 5.72722 0.0482984 5.46384 0.148709 5.21803C0.249119 4.97222 0.397402 4.7489 0.584904 4.56111C0.772407 4.37331 0.995374 4.22479 1.2408 4.12422C1.48622 4.02365 1.74918 3.97304 2.01434 3.97535C2.2795 3.97766 2.54154 4.03284 2.78518 4.13766C3.02882 4.24249 3.24918 4.39486 3.4334 4.5859L6.0155 7.17208L12.5916 0.585614C12.9661 0.210646 13.4739 0 14.0034 0C14.533 0 15.0408 0.210646 15.4153 0.585614Z" fill="var(--fill-0, #5A3E00)"/>
</svg>
