<svg preserveAspectRatio="none" width="100%" height="100%" overflow="visible" style="display: block;" viewBox="0 0 150 139" fill="none" xmlns="http://www.w3.org/2000/svg">
<g id="&#233;&#177;&#188;&#229;&#184;&#130;&#229;&#156;&#186;">
<path d="M15.399 11.4787C16.1357 3.77324 14.2637 0.101571 23.5449 0.0793357C31.4757 0.0602769 39.5078 0.0161295 47.4506 0.0212118L116.374 0.0193021C121.108 0.0205727 126.11 -0.126176 130.813 0.370304C131.898 0.484974 132.675 1.04276 133.296 1.9401C134.949 4.3288 134.398 8.54714 134.512 11.4676C139.203 19.652 145.888 29.3243 149.359 38.0523C151.56 43.5866 147.808 50.8181 142.486 53.8364C141.405 54.4625 140.262 54.9742 139.077 55.363C139.023 56.9662 139.172 60.8056 138.942 62.1244C139.039 70.4477 139.9 125.313 137.969 128.957C137.094 129.425 136.486 129.424 135.518 129.525C138.163 129.466 143.344 129.06 145.487 130.53C146.41 131.162 147.029 132.154 147.194 133.265C147.395 134.578 147.058 135.918 146.26 136.976C144.354 139.556 140.971 138.942 138.204 138.923C134.799 138.9 131.396 138.882 127.991 138.881L35.5176 138.88C26.8122 138.876 18.0664 139.018 9.36197 138.9C0.0731516 138.775 1.5309 129.218 9.50712 129.423C11.9559 129.486 14.4221 129.515 16.8756 129.497C15.5731 129.446 15.1084 129.433 13.8582 129.106C11.5896 126.34 12.2648 105.856 12.2655 101.266L12.2847 61.5746L12.2434 55.553C7.12646 55.0651 2.3642 50.6749 0.76258 45.8807C-1.04445 40.4724 0.604504 36.8033 3.15397 32.2178C6.98763 25.3214 11.9616 18.532 15.399 11.4787Z" fill="#F5F2E9"/>
<path d="M15.399 11.4787C16.1357 3.77324 14.2637 0.101571 23.5449 0.0793357C31.4757 0.0602769 39.5078 0.0161295 47.4506 0.0212118L116.374 0.0193021C121.108 0.0205727 126.11 -0.126176 130.813 0.370304C131.898 0.484974 132.675 1.04276 133.296 1.9401C134.949 4.3288 134.398 8.54714 134.512 11.4676C139.203 19.652 145.888 29.3243 149.359 38.0523C151.56 43.5866 147.808 50.8181 142.486 53.8364C141.405 54.4625 140.262 54.9742 139.077 55.363C131.934 56.5243 127.704 52.9146 124.791 46.7186C123.285 50.1501 120.116 53.319 116.607 54.6572C113.225 55.9484 109.465 55.789 106.202 54.216C100.668 51.5926 101.418 48.0051 98.9734 46.7123C94.1912 58.3918 80.9233 58.6923 75.5745 46.9384C74.1546 48.5387 73.1427 50.1552 71.6263 51.6551C66.3245 56.8985 59.3478 56.9913 53.8873 51.9093C52.5615 50.6752 51.2113 48.6772 49.9477 47.6369C48.0091 50.7969 46.6403 53.0995 43.072 54.6185C40.2468 55.8414 37.0514 55.8662 34.2079 54.6868C30.6992 53.257 28.476 50.8156 27.023 47.3663C23.7052 49.6232 22.5015 53.9304 17.4786 55.0054C15.8621 55.3513 13.2733 55.2175 12.2434 55.553C7.12646 55.0651 2.3642 50.6749 0.76258 45.8807C-1.04445 40.4724 0.604504 36.8033 3.15397 32.2178C6.98763 25.3214 11.9616 18.532 15.399 11.4787Z" fill="#F5F0E9"/>
<path d="M134.512 11.4676C139.203 19.652 145.888 29.3243 149.359 38.0523C151.56 43.5866 147.808 50.8181 142.486 53.8364C141.405 54.4625 140.262 54.9742 139.077 55.363C131.934 56.5243 127.704 52.9146 124.791 46.7186C123.285 50.1501 120.116 53.319 116.607 54.6572C113.225 55.9484 109.465 55.789 106.202 54.216C100.668 51.5926 101.418 48.0051 98.9734 46.7123C94.1912 58.3918 80.9233 58.6923 75.5745 46.9384C74.8851 43.641 75.0862 36.481 75.0922 32.9116L75.0846 11.435C81.7805 11.4464 88.4763 11.4181 95.1718 11.3502C98.0326 11.3972 113.325 11.2352 114.881 11.5614C120.996 11.2501 128.3 11.4285 134.512 11.4676Z" fill="#F5F2E9"/>
<path d="M134.512 11.4676C139.203 19.652 145.888 29.3243 149.359 38.0523C151.56 43.5866 147.808 50.8181 142.486 53.8364C141.405 54.4625 140.262 54.9742 139.077 55.363C131.934 56.5243 127.704 52.9146 124.791 46.7186C124.484 39.3114 117.522 19.7598 114.881 11.5614C120.996 11.2501 128.3 11.4285 134.512 11.4676Z" fill="#578ECE"/>
<path d="M75.0846 11.435C81.7805 11.4464 88.4763 11.4181 95.1718 11.3502C96.1654 18.899 100.71 40.8415 98.9734 46.7123C94.1912 58.3918 80.9233 58.6923 75.5745 46.9384C74.8851 43.641 75.0862 36.481 75.0922 32.9116L75.0846 11.435Z" fill="#578ECE"/>
<path d="M15.399 11.4787C16.1357 3.77324 14.2637 0.101571 23.5449 0.0793357C31.4757 0.0602769 39.5078 0.0161295 47.4506 0.0212118L116.374 0.0193021C121.108 0.0205727 126.11 -0.126176 130.813 0.370304C131.898 0.484974 132.675 1.04276 133.296 1.9401C134.949 4.3288 134.398 8.54714 134.512 11.4676C128.3 11.4285 120.996 11.2501 114.881 11.5614C113.325 11.2352 98.0326 11.3972 95.1718 11.3502C88.4763 11.4181 81.7805 11.4464 75.0846 11.435C68.6911 11.252 61.6184 11.4034 55.175 11.4485C49.7319 11.1442 40.8927 11.4225 35.2419 11.4418C29.0932 11.2268 21.5543 11.4031 15.399 11.4787Z" fill="#578ECE"/>
<path d="M55.1757 11.4529C61.6191 11.4078 68.6923 11.255 75.0858 11.4379L75.0934 32.9146C75.0874 36.484 74.8861 43.6453 75.5755 46.9428C74.1556 48.5431 73.1437 50.1596 71.6273 51.6595C66.3255 56.9029 59.3489 56.9956 53.8883 51.9136C52.5625 50.6796 51.2124 48.6816 49.9487 47.6413C50.3885 46.0457 50.8243 40.3192 51.153 38.1217C52.5382 29.2391 53.8792 20.3492 55.1757 11.4529Z" fill="#F5F2E9"/>
<path d="M35.2419 11.4418C40.8927 11.4225 49.7319 11.1442 55.175 11.4485C53.8785 20.3448 52.5383 29.2362 51.1531 38.1188C50.8244 40.3163 50.3875 46.0414 49.9477 47.6369C48.0091 50.7969 46.6403 53.0995 43.072 54.6185C40.2468 55.8414 37.0514 55.8662 34.2079 54.6868C30.6992 53.257 28.476 50.8156 27.023 47.3663C25.7199 42.2303 28.7352 34.4868 30.1346 29.3257C31.7223 23.4699 33.3942 17.2112 35.2419 11.4418Z" fill="#578ECE"/>
<path d="M92.1546 129.474C92.1764 129.433 92.2 129.394 92.2199 129.352C92.9611 127.821 92.5398 123.913 92.5326 122.137C92.4991 113.932 91.2238 90.3789 94.0985 84.2175C95.6106 80.9769 99.3723 77.9227 102.606 76.7036C106.388 75.3199 110.56 75.4893 114.219 77.1747C125.239 82.2532 122.771 91.7451 123.07 101.294C123.358 110.481 122.555 120.442 123.076 129.509C113.156 129.754 102.154 129.503 92.1546 129.474Z" fill="var(--fill-0, #5EB897)"/>
<path d="M98.7898 103.034C100.428 102.779 101.968 103.886 102.261 105.528C102.553 107.171 101.49 108.748 99.8667 109.081C98.7813 109.305 97.6609 108.918 96.9393 108.071C96.218 107.225 96.0091 106.051 96.3934 105.005C96.7777 103.959 97.695 103.204 98.7898 103.034Z" fill="#50423C"/>
<path d="M135.518 129.521C138.162 129.462 143.343 129.055 145.486 130.526C146.409 131.158 147.028 132.149 147.193 133.261C147.394 134.574 147.057 135.913 146.259 136.972C144.353 139.552 140.97 138.937 138.203 138.919C134.798 138.896 131.396 138.877 127.99 138.877L35.5168 138.876C26.8114 138.872 18.0656 139.014 9.3611 138.896C0.0722866 138.77 1.53003 129.213 9.50625 129.418C11.9551 129.481 14.4212 129.51 16.8748 129.493L92.154 129.468C102.153 129.497 113.155 129.748 123.075 129.503C126.707 129.505 132.032 129.33 135.518 129.521Z" fill="#50423C"/>
<path d="M124.792 46.7227C127.706 52.9187 131.936 56.5284 139.078 55.3671C139.024 56.9703 139.173 60.8097 138.943 62.1285L138.617 61.5965C130.876 61.9109 129.681 62.9519 124.052 56.6809C123.726 57.0919 123.38 57.4858 123.015 57.861C116.167 65.0067 105.536 63.645 98.8316 57.111C91.7026 65.3644 81.4426 63.8638 74.5663 56.1882C68.9852 65.1322 57.0526 64.3492 50.6613 56.4147C43.9115 63.7958 31.9833 65.6391 26.4512 56.0974C22.1297 61.9084 18.9448 62.2791 12.2859 61.5787L12.2446 55.5571C13.2744 55.2216 15.8633 55.3554 17.4798 55.0094C22.5027 53.9345 23.7064 49.6273 27.0242 47.3704C28.4772 50.8197 30.7004 53.2611 34.2091 54.6908C37.0526 55.8703 40.2479 55.8455 43.0732 54.6225C46.6415 53.1036 48.0101 50.8012 49.9487 47.6413C51.2124 48.6816 52.5625 50.6796 53.8883 51.9136C59.3489 56.9956 66.3255 56.9029 71.6273 51.6595C73.1437 50.1596 74.1556 48.5431 75.5755 46.9428C80.9243 58.6966 94.1924 58.3959 98.9746 46.7164C101.419 48.0092 100.669 51.5967 106.204 54.2201C109.466 55.7931 113.226 55.9525 116.608 54.6613C120.117 53.3231 123.286 50.1542 124.792 46.7227Z" fill="#F0E7D2"/>
<path d="M26.0372 108.383C26.5127 97.0419 25.7432 85.5459 26.2641 74.2114C26.3938 71.392 28.1983 68.1831 31.2277 68.0643C45.6697 67.4986 60.3698 67.6727 74.8254 67.8934C78.5666 67.9506 81.069 70.4965 81.057 74.1488C81.5824 85.4424 80.7144 97.0174 81.3726 108.28C82.6558 110.068 83.6595 116.354 81.513 116.274C75.9029 116.065 27.9954 117.549 25.5381 116.136C24.2684 114.65 24.6152 112.199 24.6511 110.215C25.002 109.675 25.6274 108.915 26.0372 108.383Z" fill="#50423C"/>
<path d="M42.7344 84.338C46.0144 84.6159 50.2307 84.4437 53.5876 84.3974C57.4153 84.4838 61.2445 84.4914 65.0725 84.4199C66.1264 84.6902 66.9285 84.7626 67.5472 85.6435C68.4591 88.0798 68.5828 103.42 67.3775 106.497C67.1847 106.989 66.3924 108.011 66.0219 108.444C69.9408 108.444 77.8112 108.645 81.3726 108.28C82.6558 110.068 83.6595 116.354 81.513 116.274C75.9029 116.065 27.9954 117.549 25.5381 116.136C24.2684 114.65 24.6152 112.199 24.6511 110.215C25.002 109.675 25.6274 108.915 26.0372 108.383C27.8837 108.779 38.8683 108.487 41.1701 108.389L41.2994 108.115C41.1284 107.906 39.8666 106.353 39.8363 106.165C39.0232 101.116 39.4388 95.6646 39.3845 90.5231C39.346 86.8578 39.0478 85.3817 42.7344 84.338Z" fill="#F8C24C"/>
<path d="M47.6654 89.4544C50.702 90.7428 47.9765 95.9096 53.0552 96.5182C60.1344 97.3663 55.7918 90.7202 59.7473 89.5926C61.2523 90.3422 61.2362 91.5998 61.1993 93.0787C60.2177 96.7088 58.0885 99.4625 54.0542 99.4844C51.8991 99.499 49.8331 98.6201 48.3413 97.0544C46.2042 94.856 45.1623 91.7535 47.6654 89.4544Z" fill="#50423C"/>
<path d="M53.5062 83.1828C54.0634 80.9733 54.7298 79.0064 56.7974 77.7829C57.9788 77.0704 59.4034 76.8906 60.7226 77.288C63.8652 78.2127 65.0047 81.4242 65.0725 84.4199C61.2445 84.4914 57.4153 84.4838 53.5876 84.3974L53.5062 83.1828Z" fill="#F2879D"/>
<path d="M42.7344 84.338C43.232 80.6352 46.0896 77.6612 49.9675 79.1573C52.1411 79.9962 52.5681 81.1937 53.5062 83.1828L53.5876 84.3974C50.2307 84.4437 46.0144 84.6159 42.7344 84.338Z" fill="var(--fill-0, #5EB897)"/>
</g>
</svg>
