<svg width="200" height="229" viewBox="0 0 200 229" fill="none" xmlns="http://www.w3.org/2000/svg">
<rect width="200" height="200" rx="40" fill="#B586E4"/>
<mask id="path-2-outside-1_341_3511" maskUnits="userSpaceOnUse" x="44" y="172" width="113" height="57" fill="black">
<rect fill="white" x="44" y="172" width="113" height="57"/>
<path d="M67.35 197.35C69.05 197.35 70.35 197.8 71.25 198.7C72.15 199.567 72.6 200.867 72.6 202.6V215.9C72.6 217.6 72.15 218.9 71.25 219.8C70.3833 220.7 69.0833 221.15 67.35 221.15H64.95C63.0833 221.15 62.15 220.217 62.15 218.35V218.15C62.15 216.283 63.0833 215.35 64.95 215.35H66.7V203.15H59.65C57.7833 203.15 56.85 202.217 56.85 200.35V200.15C56.85 198.283 57.7833 197.35 59.65 197.35H67.35ZM79.85 177.5C81.75 177.5 82.7 178.45 82.7 180.35V193.2C82.7 198.9 83.7 203.717 85.7 207.65C87.7 211.583 90.5 214.767 94.1 217.2C95.7 218.267 96.0667 219.6 95.2 221.2L95.1 221.4C94.6333 222.233 94.0833 222.733 93.45 222.9C92.8167 223.1 92.1 222.933 91.3 222.4C86.8667 219.467 83.3333 215.567 80.7 210.7C78.1 205.8 76.8 199.967 76.8 193.2V180.35C76.8 178.45 77.75 177.5 79.65 177.5H79.85ZM91.25 194.9C93.05 195.5 93.6333 196.7 93 198.5C91.1333 203.467 88.9 208.017 86.3 212.15C83.7333 216.25 81.0833 219.517 78.35 221.95C76.95 223.317 75.6 223.267 74.3 221.8L74.2 221.7C72.9 220.267 72.95 218.883 74.35 217.55C77.15 214.717 79.6333 211.55 81.8 208.05C83.9667 204.517 85.8333 200.7 87.4 196.6C88.0333 194.8 89.25 194.2 91.05 194.8L91.25 194.9ZM88.7 181.7C88.7 179.8 89.65 178.85 91.55 178.85H91.75C93.65 178.85 94.6 179.8 94.6 181.7V183.3C94.6 186.833 92.8333 188.6 89.3 188.6H59.5V198.95C59.5 203.317 59.1667 207.35 58.5 211.05C57.8333 214.717 56.7667 218.15 55.3 221.35C54.4333 223.05 53.1667 223.45 51.5 222.55L51.3 222.45C49.6667 221.55 49.2667 220.25 50.1 218.55C51.3333 215.783 52.2167 212.833 52.75 209.7C53.3167 206.533 53.6 202.95 53.6 198.95V188C53.6 184.467 55.3667 182.7 58.9 182.7H88.7V181.7ZM106.25 194.75C106.25 191.417 107.917 189.75 111.25 189.75H123.25C126.583 189.75 128.25 191.417 128.25 194.75V200.55C128.25 203.883 126.583 205.55 123.25 205.55H111.25C107.917 205.55 106.25 203.883 106.25 200.55V194.75ZM122.55 195.15H111.95V200.15H122.55V195.15ZM108.7 208.3C110.467 208.567 111.25 209.567 111.05 211.3L110.2 217.95C110 219.75 109.017 220.517 107.25 220.25H107.05C105.283 219.983 104.5 218.983 104.7 217.25L105.55 210.6C105.75 208.8 106.733 208.033 108.5 208.3H108.7ZM117.45 202.85C119.317 202.85 120.25 203.783 120.25 205.65V218.25C120.25 219.95 119.8 221.233 118.9 222.1C118.033 223 116.75 223.45 115.05 223.45H114.45C112.65 223.45 111.75 222.517 111.75 220.65V220.45C111.75 218.583 112.65 217.65 114.45 217.65V205.65C114.45 203.783 115.383 202.85 117.25 202.85H117.45ZM125.95 208.3C127.717 208.033 128.7 208.8 128.9 210.6L129.75 217.25C129.95 218.983 129.167 219.983 127.4 220.25H127.2C125.433 220.517 124.45 219.75 124.25 217.95L123.4 211.3C123.2 209.567 123.983 208.567 125.75 208.3H125.95ZM126.95 181.3C128.717 181.3 129.6 182.183 129.6 183.95V184.15C129.6 185.917 128.717 186.8 126.95 186.8H107.45C105.683 186.8 104.8 185.917 104.8 184.15V183.95C104.8 182.183 105.683 181.3 107.45 181.3H126.95ZM138.2 177.5C140 177.5 140.9 178.4 140.9 180.2V190.25C140.9 196.85 140.467 202.567 139.6 207.4C138.733 212.2 137.233 216.883 135.1 221.45C134.3 223.117 133.1 223.517 131.5 222.65L131.3 222.55C129.7 221.717 129.3 220.483 130.1 218.85C132.033 214.717 133.383 210.483 134.15 206.15C134.917 201.783 135.3 196.483 135.3 190.25V180.2C135.3 178.4 136.2 177.5 138 177.5H138.2ZM117.35 177.4C119.283 177.4 120.25 178.367 120.25 180.3V181.15C120.25 183.083 119.283 184.05 117.35 184.05H117.15C115.217 184.05 114.25 183.083 114.25 181.15V180.3C114.25 178.367 115.217 177.4 117.15 177.4H117.35ZM144.75 196.1C146.517 196.1 147.4 196.983 147.4 198.75V217.3H149.15C150.917 217.3 151.8 218.183 151.8 219.95V220.15C151.8 221.917 150.917 222.8 149.15 222.8H146.85C145.25 222.8 144.017 222.383 143.15 221.55C142.317 220.717 141.9 219.483 141.9 217.85V198.75C141.9 196.983 142.783 196.1 144.55 196.1H144.75ZM148.2 186.9C150.067 186.9 151 187.833 151 189.7V189.9C151 191.767 150.067 192.7 148.2 192.7H133C131.133 192.7 130.2 191.767 130.2 189.9V189.7C130.2 187.833 131.133 186.9 133 186.9H148.2ZM145.65 178.2C147.417 177.933 148.417 178.667 148.65 180.4L148.85 182.1C149.117 183.867 148.383 184.867 146.65 185.1H146.45C144.683 185.367 143.683 184.633 143.45 182.9L143.25 181.2C142.983 179.433 143.717 178.433 145.45 178.2H145.65Z"/>
</mask>
<path d="M67.35 197.35C69.05 197.35 70.35 197.8 71.25 198.7C72.15 199.567 72.6 200.867 72.6 202.6V215.9C72.6 217.6 72.15 218.9 71.25 219.8C70.3833 220.7 69.0833 221.15 67.35 221.15H64.95C63.0833 221.15 62.15 220.217 62.15 218.35V218.15C62.15 216.283 63.0833 215.35 64.95 215.35H66.7V203.15H59.65C57.7833 203.15 56.85 202.217 56.85 200.35V200.15C56.85 198.283 57.7833 197.35 59.65 197.35H67.35ZM79.85 177.5C81.75 177.5 82.7 178.45 82.7 180.35V193.2C82.7 198.9 83.7 203.717 85.7 207.65C87.7 211.583 90.5 214.767 94.1 217.2C95.7 218.267 96.0667 219.6 95.2 221.2L95.1 221.4C94.6333 222.233 94.0833 222.733 93.45 222.9C92.8167 223.1 92.1 222.933 91.3 222.4C86.8667 219.467 83.3333 215.567 80.7 210.7C78.1 205.8 76.8 199.967 76.8 193.2V180.35C76.8 178.45 77.75 177.5 79.65 177.5H79.85ZM91.25 194.9C93.05 195.5 93.6333 196.7 93 198.5C91.1333 203.467 88.9 208.017 86.3 212.15C83.7333 216.25 81.0833 219.517 78.35 221.95C76.95 223.317 75.6 223.267 74.3 221.8L74.2 221.7C72.9 220.267 72.95 218.883 74.35 217.55C77.15 214.717 79.6333 211.55 81.8 208.05C83.9667 204.517 85.8333 200.7 87.4 196.6C88.0333 194.8 89.25 194.2 91.05 194.8L91.25 194.9ZM88.7 181.7C88.7 179.8 89.65 178.85 91.55 178.85H91.75C93.65 178.85 94.6 179.8 94.6 181.7V183.3C94.6 186.833 92.8333 188.6 89.3 188.6H59.5V198.95C59.5 203.317 59.1667 207.35 58.5 211.05C57.8333 214.717 56.7667 218.15 55.3 221.35C54.4333 223.05 53.1667 223.45 51.5 222.55L51.3 222.45C49.6667 221.55 49.2667 220.25 50.1 218.55C51.3333 215.783 52.2167 212.833 52.75 209.7C53.3167 206.533 53.6 202.95 53.6 198.95V188C53.6 184.467 55.3667 182.7 58.9 182.7H88.7V181.7ZM106.25 194.75C106.25 191.417 107.917 189.75 111.25 189.75H123.25C126.583 189.75 128.25 191.417 128.25 194.75V200.55C128.25 203.883 126.583 205.55 123.25 205.55H111.25C107.917 205.55 106.25 203.883 106.25 200.55V194.75ZM122.55 195.15H111.95V200.15H122.55V195.15ZM108.7 208.3C110.467 208.567 111.25 209.567 111.05 211.3L110.2 217.95C110 219.75 109.017 220.517 107.25 220.25H107.05C105.283 219.983 104.5 218.983 104.7 217.25L105.55 210.6C105.75 208.8 106.733 208.033 108.5 208.3H108.7ZM117.45 202.85C119.317 202.85 120.25 203.783 120.25 205.65V218.25C120.25 219.95 119.8 221.233 118.9 222.1C118.033 223 116.75 223.45 115.05 223.45H114.45C112.65 223.45 111.75 222.517 111.75 220.65V220.45C111.75 218.583 112.65 217.65 114.45 217.65V205.65C114.45 203.783 115.383 202.85 117.25 202.85H117.45ZM125.95 208.3C127.717 208.033 128.7 208.8 128.9 210.6L129.75 217.25C129.95 218.983 129.167 219.983 127.4 220.25H127.2C125.433 220.517 124.45 219.75 124.25 217.95L123.4 211.3C123.2 209.567 123.983 208.567 125.75 208.3H125.95ZM126.95 181.3C128.717 181.3 129.6 182.183 129.6 183.95V184.15C129.6 185.917 128.717 186.8 126.95 186.8H107.45C105.683 186.8 104.8 185.917 104.8 184.15V183.95C104.8 182.183 105.683 181.3 107.45 181.3H126.95ZM138.2 177.5C140 177.5 140.9 178.4 140.9 180.2V190.25C140.9 196.85 140.467 202.567 139.6 207.4C138.733 212.2 137.233 216.883 135.1 221.45C134.3 223.117 133.1 223.517 131.5 222.65L131.3 222.55C129.7 221.717 129.3 220.483 130.1 218.85C132.033 214.717 133.383 210.483 134.15 206.15C134.917 201.783 135.3 196.483 135.3 190.25V180.2C135.3 178.4 136.2 177.5 138 177.5H138.2ZM117.35 177.4C119.283 177.4 120.25 178.367 120.25 180.3V181.15C120.25 183.083 119.283 184.05 117.35 184.05H117.15C115.217 184.05 114.25 183.083 114.25 181.15V180.3C114.25 178.367 115.217 177.4 117.15 177.4H117.35ZM144.75 196.1C146.517 196.1 147.4 196.983 147.4 198.75V217.3H149.15C150.917 217.3 151.8 218.183 151.8 219.95V220.15C151.8 221.917 150.917 222.8 149.15 222.8H146.85C145.25 222.8 144.017 222.383 143.15 221.55C142.317 220.717 141.9 219.483 141.9 217.85V198.75C141.9 196.983 142.783 196.1 144.55 196.1H144.75ZM148.2 186.9C150.067 186.9 151 187.833 151 189.7V189.9C151 191.767 150.067 192.7 148.2 192.7H133C131.133 192.7 130.2 191.767 130.2 189.9V189.7C130.2 187.833 131.133 186.9 133 186.9H148.2ZM145.65 178.2C147.417 177.933 148.417 178.667 148.65 180.4L148.85 182.1C149.117 183.867 148.383 184.867 146.65 185.1H146.45C144.683 185.367 143.683 184.633 143.45 182.9L143.25 181.2C142.983 179.433 143.717 178.433 145.45 178.2H145.65Z" fill="white"/>
<path d="M71.25 198.7L67.7145 202.236L67.7478 202.269L67.7818 202.302L71.25 198.7ZM71.25 219.8L67.7145 216.264L67.6811 216.298L67.6484 216.332L71.25 219.8ZM66.7 215.35V220.35H71.7V215.35H66.7ZM66.7 203.15H71.7V198.15H66.7V203.15ZM85.7 207.65L90.1569 205.384V205.384L85.7 207.65ZM94.1 217.2L91.3 221.342L91.3132 221.351L91.3265 221.36L94.1 217.2ZM95.2 221.2L90.8035 218.819L90.7645 218.891L90.7279 218.964L95.2 221.2ZM95.1 221.4L99.4625 223.843L99.5197 223.741L99.5721 223.636L95.1 221.4ZM93.45 222.9L92.1775 218.065L92.0601 218.096L91.9443 218.132L93.45 222.9ZM91.3 222.4L94.0735 218.24L94.0663 218.235L94.059 218.23L91.3 222.4ZM80.7 210.7L76.2833 213.044L76.2928 213.062L76.3025 213.079L80.7 210.7ZM91.25 194.9L89.0139 199.372L89.3318 199.531L89.6689 199.643L91.25 194.9ZM93 198.5L97.6804 200.259L97.699 200.209L97.7166 200.16L93 198.5ZM86.3 212.15L82.0677 209.488L82.0619 209.497L86.3 212.15ZM78.35 221.95L75.0254 218.215L74.9395 218.292L74.8573 218.372L78.35 221.95ZM74.3 221.8L78.0417 218.483L77.9419 218.371L77.8356 218.264L74.3 221.8ZM74.2 221.7L70.4964 225.059L70.5783 225.149L70.6644 225.236L74.2 221.7ZM74.35 217.55L77.7983 221.171L77.8531 221.118L77.9064 221.065L74.35 217.55ZM81.8 208.05L86.0513 210.682L86.0569 210.673L86.0624 210.664L81.8 208.05ZM87.4 196.6L92.0706 198.385L92.0944 198.322L92.1166 198.26L87.4 196.6ZM91.05 194.8L93.2861 190.328L92.9682 190.169L92.6311 190.057L91.05 194.8ZM59.5 188.6V183.6H54.5V188.6H59.5ZM58.5 211.05L63.4194 211.944L63.4208 211.937L58.5 211.05ZM55.3 221.35L59.7545 223.621L59.8019 223.528L59.8453 223.433L55.3 221.35ZM51.5 222.55L53.8757 218.15L53.8065 218.113L53.7361 218.078L51.5 222.55ZM51.3 222.45L48.887 226.829L48.9745 226.877L49.0639 226.922L51.3 222.45ZM50.1 218.55L54.5896 220.751L54.6297 220.669L54.6668 220.586L50.1 218.55ZM52.75 209.7L47.8282 208.819L47.8245 208.84L47.8209 208.861L52.75 209.7ZM88.7 182.7V187.7H93.7V182.7H88.7ZM67.35 197.35V202.35C67.7695 202.35 67.9478 202.407 67.9644 202.412C67.9695 202.414 67.9382 202.404 67.8849 202.371C67.8304 202.338 67.7706 202.292 67.7145 202.236L71.25 198.7L74.7855 195.164C72.6664 193.045 69.9165 192.35 67.35 192.35V197.35ZM71.25 198.7L67.7818 202.302C67.7034 202.226 67.6415 202.147 67.597 202.075C67.5757 202.041 67.5608 202.013 67.5511 201.992C67.5414 201.972 67.5375 201.96 67.5376 201.961C67.5402 201.968 67.6 202.152 67.6 202.6H72.6H77.6C77.6 200.047 76.9271 197.225 74.7182 195.098L71.25 198.7ZM72.6 202.6H67.6V215.9H72.6H77.6V202.6H72.6ZM72.6 215.9H67.6C67.6 216.319 67.5433 216.498 67.5376 216.514C67.5358 216.52 67.5463 216.488 67.579 216.435C67.6125 216.38 67.6583 216.321 67.7145 216.264L71.25 219.8L74.7855 223.336C76.9046 221.216 77.6 218.467 77.6 215.9H72.6ZM71.25 219.8L67.6484 216.332C67.7238 216.253 67.8032 216.192 67.8746 216.147C67.9088 216.126 67.9373 216.111 67.9579 216.101C67.9783 216.091 67.9896 216.088 67.9894 216.088C67.982 216.09 67.7983 216.15 67.35 216.15V221.15V226.15C69.9031 226.15 72.7245 225.477 74.8516 223.268L71.25 219.8ZM67.35 221.15V216.15H64.95V221.15V226.15H67.35V221.15ZM64.95 221.15V216.15C64.7874 216.15 65.5838 216.113 66.3855 216.914C67.1873 217.716 67.15 218.513 67.15 218.35H62.15H57.15C57.15 220.054 57.5794 222.25 59.3145 223.986C61.0495 225.721 63.2459 226.15 64.95 226.15V221.15ZM62.15 218.35H67.15V218.15H62.15H57.15V218.35H62.15ZM62.15 218.15H67.15C67.15 217.987 67.1873 218.784 66.3855 219.586C65.5838 220.387 64.7874 220.35 64.95 220.35V215.35V210.35C63.2459 210.35 61.0495 210.779 59.3145 212.514C57.5794 214.25 57.15 216.446 57.15 218.15H62.15ZM64.95 215.35V220.35H66.7V215.35V210.35H64.95V215.35ZM66.7 215.35H71.7V203.15H66.7H61.7V215.35H66.7ZM66.7 203.15V198.15H59.65V203.15V208.15H66.7V203.15ZM59.65 203.15V198.15C59.4874 198.15 60.2838 198.113 61.0855 198.914C61.8873 199.716 61.85 200.513 61.85 200.35H56.85H51.85C51.85 202.054 52.2794 204.25 54.0145 205.986C55.7495 207.721 57.9459 208.15 59.65 208.15V203.15ZM56.85 200.35H61.85V200.15H56.85H51.85V200.35H56.85ZM56.85 200.15H61.85C61.85 199.987 61.8873 200.784 61.0855 201.586C60.2838 202.387 59.4874 202.35 59.65 202.35V197.35V192.35C57.9459 192.35 55.7495 192.779 54.0145 194.514C52.2794 196.25 51.85 198.446 51.85 200.15H56.85ZM59.65 197.35V202.35H67.35V197.35V192.35H59.65V197.35ZM79.85 177.5V182.5C80.0293 182.5 79.2454 182.541 78.452 181.748C77.6586 180.955 77.7 180.171 77.7 180.35H82.7H87.7C87.7 178.629 87.2664 176.42 85.523 174.677C83.7796 172.934 81.5707 172.5 79.85 172.5V177.5ZM82.7 180.35H77.7V193.2H82.7H87.7V180.35H82.7ZM82.7 193.2H77.7C77.7 199.465 78.7974 205.106 81.2431 209.916L85.7 207.65L90.1569 205.384C88.6026 202.327 87.7 198.335 87.7 193.2H82.7ZM85.7 207.65L81.2431 209.916C83.6211 214.593 86.9862 218.427 91.3 221.342L94.1 217.2L96.9 213.058C94.0138 211.107 91.7789 208.574 90.1569 205.384L85.7 207.65ZM94.1 217.2L91.3265 221.36C91.5149 221.486 90.9952 221.203 90.754 220.326C90.4979 219.395 90.8225 218.784 90.8035 218.819L95.2 221.2L99.5965 223.581C100.444 222.016 101.019 219.939 100.396 217.674C99.7881 215.464 98.2851 213.981 96.8735 213.04L94.1 217.2ZM95.2 221.2L90.7279 218.964L90.6279 219.164L95.1 221.4L99.5721 223.636L99.6721 223.436L95.2 221.2ZM95.1 221.4L90.7375 218.957C90.6284 219.152 90.9977 218.375 92.1775 218.065L93.45 222.9L94.7225 227.735C97.169 227.092 98.6383 225.315 99.4625 223.843L95.1 221.4ZM93.45 222.9L91.9443 218.132C92.572 217.934 93.1524 217.958 93.5701 218.055C93.9457 218.142 94.1189 218.27 94.0735 218.24L91.3 222.4L88.5265 226.56C90.001 227.543 92.3181 228.501 94.9557 227.668L93.45 222.9ZM91.3 222.4L94.059 218.23C90.3391 215.769 87.3566 212.496 85.0975 208.321L80.7 210.7L76.3025 213.079C79.3101 218.638 83.3943 223.165 88.541 226.57L91.3 222.4ZM80.7 210.7L85.1167 208.356C82.9752 204.32 81.8 199.327 81.8 193.2H76.8H71.8C71.8 200.606 73.2248 207.28 76.2833 213.044L80.7 210.7ZM76.8 193.2H81.8V180.35H76.8H71.8V193.2H76.8ZM76.8 180.35H81.8C81.8 180.171 81.8414 180.955 81.048 181.748C80.2546 182.541 79.4707 182.5 79.65 182.5V177.5V172.5C77.9293 172.5 75.7204 172.934 73.977 174.677C72.2336 176.42 71.8 178.629 71.8 180.35H76.8ZM79.65 177.5V182.5H79.85V177.5V172.5H79.65V177.5ZM91.25 194.9L89.6689 199.643C89.8378 199.7 89.0483 199.48 88.5407 198.436C88.0364 197.399 88.3491 196.654 88.2834 196.84L93 198.5L97.7166 200.16C98.2842 198.546 98.622 196.301 97.5343 194.064C96.4434 191.82 94.4622 190.7 92.8311 190.157L91.25 194.9ZM93 198.5L88.3196 196.741C86.5614 201.419 84.4736 205.663 82.0677 209.488L86.3 212.15L90.5323 214.812C93.3264 210.37 95.7053 205.514 97.6804 200.259L93 198.5ZM86.3 212.15L82.0619 209.497C79.6712 213.316 77.3117 216.18 75.0254 218.215L78.35 221.95L81.6746 225.685C84.855 222.853 87.7955 219.184 90.5381 214.803L86.3 212.15ZM78.35 221.95L74.8573 218.372C74.6937 218.532 75.2634 217.896 76.4726 217.941C77.6791 217.986 78.1975 218.659 78.0417 218.483L74.3 221.8L70.5583 225.117C71.7025 226.408 73.5459 227.839 76.1024 227.934C78.6616 228.029 80.6063 226.735 81.8427 225.528L78.35 221.95ZM74.3 221.8L77.8356 218.264L77.7356 218.164L74.2 221.7L70.6644 225.236L70.7644 225.336L74.3 221.8ZM74.2 221.7L77.9036 218.341C77.7771 218.201 78.2974 218.712 78.2592 219.768C78.221 220.825 77.6642 221.298 77.7983 221.171L74.35 217.55L70.9017 213.929C69.6358 215.135 68.354 216.966 68.2658 219.407C68.1776 221.846 69.3229 223.765 70.4964 225.059L74.2 221.7ZM74.35 217.55L77.9064 221.065C80.9791 217.955 83.6935 214.491 86.0513 210.682L81.8 208.05L77.5487 205.418C75.5731 208.609 73.3209 211.478 70.7936 214.035L74.35 217.55ZM81.8 208.05L86.0624 210.664C88.3996 206.852 90.4002 202.756 92.0706 198.385L87.4 196.6L82.7294 194.815C81.2664 198.644 79.5337 202.181 77.5376 205.436L81.8 208.05ZM87.4 196.6L92.1166 198.26C92.1776 198.086 91.9691 198.806 90.999 199.284C90.0225 199.766 89.3132 199.492 89.4689 199.543L91.05 194.8L92.6311 190.057C90.9868 189.508 88.7691 189.234 86.576 190.316C84.3893 191.394 83.2558 193.314 82.6834 194.94L87.4 196.6ZM91.05 194.8L88.8139 199.272L89.0139 199.372L91.25 194.9L93.4861 190.428L93.2861 190.328L91.05 194.8ZM88.7 181.7H93.7C93.7 181.521 93.7414 182.305 92.948 183.098C92.1546 183.891 91.3707 183.85 91.55 183.85V178.85V173.85C89.8293 173.85 87.6204 174.284 85.877 176.027C84.1336 177.77 83.7 179.979 83.7 181.7H88.7ZM91.55 178.85V183.85H91.75V178.85V173.85H91.55V178.85ZM91.75 178.85V183.85C91.9293 183.85 91.1454 183.891 90.352 183.098C89.5586 182.305 89.6 181.521 89.6 181.7H94.6H99.6C99.6 179.979 99.1664 177.77 97.423 176.027C95.6796 174.284 93.4707 173.85 91.75 173.85V178.85ZM94.6 181.7H89.6V183.3H94.6H99.6V181.7H94.6ZM94.6 183.3H89.6C89.6 183.782 89.5381 183.999 89.5253 184.038C89.5206 184.052 89.5301 184.019 89.5672 183.957C89.6054 183.894 89.6624 183.816 89.7395 183.739C89.8165 183.662 89.8935 183.605 89.9572 183.567C90.0191 183.53 90.0517 183.521 90.0376 183.525C89.9994 183.538 89.7816 183.6 89.3 183.6V188.6V193.6C91.8374 193.6 94.6588 192.962 96.8105 190.811C98.9623 188.659 99.6 185.837 99.6 183.3H94.6ZM89.3 188.6V183.6H59.5V188.6V193.6H89.3V188.6ZM59.5 188.6H54.5V198.95H59.5H64.5V188.6H59.5ZM59.5 198.95H54.5C54.5 203.066 54.1856 206.798 53.5792 210.163L58.5 211.05L63.4208 211.937C64.1478 207.902 64.5 203.568 64.5 198.95H59.5ZM58.5 211.05L53.5807 210.156C52.9842 213.436 52.0377 216.467 50.7547 219.267L55.3 221.35L59.8453 223.433C61.4956 219.833 62.6824 215.997 63.4193 211.944L58.5 211.05ZM55.3 221.35L50.8455 219.079C50.7531 219.26 51.0801 218.509 52.1943 218.157C53.3183 217.802 54.0321 218.235 53.8757 218.15L51.5 222.55L49.1243 226.95C50.6346 227.765 52.815 228.448 55.2057 227.693C57.5866 226.941 58.9803 225.14 59.7545 223.621L55.3 221.35ZM51.5 222.55L53.7361 218.078L53.5361 217.978L51.3 222.45L49.0639 226.922L49.2639 227.022L51.5 222.55ZM51.3 222.45L53.713 218.071C53.6034 218.01 54.2493 218.34 54.5539 219.33C54.8534 220.303 54.5118 220.91 54.5896 220.751L50.1 218.55L45.6104 216.349C44.8549 217.89 44.2966 219.997 44.9961 222.27C45.7007 224.56 47.3632 225.99 48.887 226.829L51.3 222.45ZM50.1 218.55L54.6668 220.586C56.0787 217.419 57.079 214.065 57.6791 210.539L52.75 209.7L47.8209 208.861C47.3543 211.602 46.588 214.148 45.5332 216.514L50.1 218.55ZM52.75 209.7L57.6718 210.581C58.3012 207.063 58.6 203.177 58.6 198.95H53.6H48.6C48.6 202.723 48.3321 206.003 47.8282 208.819L52.75 209.7ZM53.6 198.95H58.6V188H53.6H48.6V198.95H53.6ZM53.6 188H58.6C58.6 187.518 58.6619 187.301 58.6747 187.262C58.6794 187.248 58.6699 187.281 58.6328 187.343C58.5946 187.406 58.5376 187.483 58.4605 187.561C58.3835 187.638 58.3065 187.695 58.2428 187.733C58.1809 187.77 58.1483 187.779 58.1624 187.775C58.2006 187.762 58.4184 187.7 58.9 187.7V182.7V177.7C56.3626 177.7 53.5412 178.338 51.3895 180.489C49.2377 182.641 48.6 185.463 48.6 188H53.6ZM58.9 182.7V187.7H88.7V182.7V177.7H58.9V182.7ZM88.7 182.7H93.7V181.7H88.7H83.7V182.7H88.7ZM122.55 195.15H127.55V190.15H122.55V195.15ZM111.95 195.15V190.15H106.95V195.15H111.95ZM111.95 200.15H106.95V205.15H111.95V200.15ZM122.55 200.15V205.15H127.55V200.15H122.55ZM108.7 208.3L109.446 203.356L109.075 203.3H108.7V208.3ZM111.05 211.3L116.01 211.934L116.014 211.904L116.017 211.873L111.05 211.3ZM110.2 217.95L105.24 217.316L105.235 217.357L105.231 217.398L110.2 217.95ZM107.25 220.25L107.996 215.306L107.625 215.25H107.25V220.25ZM107.05 220.25L106.304 225.194L106.675 225.25H107.05V220.25ZM104.7 217.25L99.7404 216.616L99.7365 216.646L99.733 216.677L104.7 217.25ZM105.55 210.6L110.51 211.234L110.515 211.193L110.519 211.152L105.55 210.6ZM108.5 208.3L107.754 213.244L108.125 213.3H108.5V208.3ZM118.9 222.1L115.432 218.498L115.364 218.564L115.298 218.632L118.9 222.1ZM114.45 217.65V222.65H119.45V217.65H114.45ZM125.95 208.3V213.3H126.325L126.696 213.244L125.95 208.3ZM128.9 210.6L123.931 211.152L123.935 211.193L123.94 211.234L128.9 210.6ZM129.75 217.25L134.717 216.677L134.714 216.646L134.71 216.616L129.75 217.25ZM127.4 220.25V225.25H127.775L128.146 225.194L127.4 220.25ZM127.2 220.25V215.25H126.825L126.454 215.306L127.2 220.25ZM124.25 217.95L129.219 217.398L129.215 217.357L129.21 217.316L124.25 217.95ZM123.4 211.3L118.433 211.873L118.436 211.904L118.44 211.934L123.4 211.3ZM125.75 208.3V203.3H125.375L125.004 203.356L125.75 208.3ZM139.6 207.4L144.52 208.288L144.522 208.282L139.6 207.4ZM135.1 221.45L139.608 223.614L139.619 223.59L139.63 223.566L135.1 221.45ZM131.5 222.65L133.881 218.254L133.809 218.215L133.736 218.178L131.5 222.65ZM131.3 222.55L128.99 226.985L129.027 227.004L129.064 227.022L131.3 222.55ZM130.1 218.85L134.59 221.049L134.61 221.009L134.629 220.968L130.1 218.85ZM134.15 206.15L139.074 207.021L139.075 207.015L134.15 206.15ZM147.4 217.3H142.4V222.3H147.4V217.3ZM143.15 221.55L139.614 225.086L139.649 225.12L139.684 225.154L143.15 221.55ZM145.65 178.2V183.2H146.025L146.396 183.144L145.65 178.2ZM148.65 180.4L153.616 179.816L153.611 179.774L153.605 179.733L148.65 180.4ZM148.85 182.1L143.884 182.684L143.894 182.765L143.906 182.846L148.85 182.1ZM146.65 185.1V190.1H146.985L147.317 190.055L146.65 185.1ZM146.45 185.1V180.1H146.075L145.704 180.156L146.45 185.1ZM143.45 182.9L138.484 183.484L138.489 183.526L138.495 183.567L143.45 182.9ZM143.25 181.2L148.216 180.616L148.206 180.535L148.194 180.454L143.25 181.2ZM145.45 178.2V173.2H145.115L144.783 173.245L145.45 178.2ZM106.25 194.75H111.25C111.25 194.646 111.253 194.555 111.258 194.477C111.264 194.399 111.271 194.336 111.278 194.285C111.285 194.235 111.292 194.199 111.298 194.175C111.303 194.152 111.307 194.142 111.306 194.144C111.305 194.146 111.301 194.159 111.29 194.182C111.28 194.206 111.264 194.237 111.241 194.276C111.218 194.314 111.189 194.357 111.154 194.402C111.119 194.447 111.079 194.492 111.036 194.536C110.992 194.579 110.947 194.619 110.902 194.654C110.857 194.689 110.814 194.718 110.776 194.741C110.737 194.764 110.706 194.78 110.682 194.79C110.659 194.801 110.646 194.805 110.644 194.806C110.642 194.807 110.652 194.803 110.675 194.798C110.699 194.792 110.735 194.785 110.785 194.778C110.836 194.771 110.899 194.764 110.977 194.758C111.055 194.753 111.146 194.75 111.25 194.75V189.75V184.75C108.813 184.75 106.066 185.363 103.964 187.464C101.863 189.566 101.25 192.313 101.25 194.75H106.25ZM111.25 189.75V194.75H123.25V189.75V184.75H111.25V189.75ZM123.25 189.75V194.75C123.354 194.75 123.445 194.753 123.523 194.758C123.601 194.764 123.664 194.771 123.715 194.778C123.765 194.785 123.801 194.792 123.825 194.798C123.848 194.803 123.858 194.807 123.856 194.806C123.854 194.805 123.841 194.801 123.818 194.79C123.794 194.78 123.763 194.764 123.724 194.741C123.686 194.718 123.643 194.689 123.598 194.654C123.553 194.619 123.508 194.579 123.464 194.536C123.421 194.492 123.381 194.447 123.346 194.402C123.311 194.357 123.282 194.314 123.259 194.276C123.236 194.237 123.22 194.206 123.21 194.182C123.199 194.159 123.195 194.146 123.194 194.144C123.193 194.142 123.197 194.152 123.202 194.175C123.208 194.199 123.215 194.235 123.222 194.285C123.229 194.336 123.236 194.399 123.242 194.477C123.247 194.555 123.25 194.646 123.25 194.75H128.25H133.25C133.25 192.313 132.637 189.566 130.536 187.464C128.434 185.363 125.687 184.75 123.25 184.75V189.75ZM128.25 194.75H123.25V200.55H128.25H133.25V194.75H128.25ZM128.25 200.55H123.25C123.25 200.654 123.247 200.745 123.242 200.823C123.236 200.901 123.229 200.964 123.222 201.015C123.215 201.065 123.208 201.101 123.202 201.125C123.197 201.148 123.193 201.158 123.194 201.156C123.195 201.154 123.199 201.141 123.21 201.118C123.22 201.094 123.236 201.063 123.259 201.024C123.282 200.986 123.311 200.943 123.346 200.898C123.381 200.853 123.421 200.808 123.464 200.764C123.508 200.721 123.553 200.681 123.598 200.646C123.643 200.611 123.686 200.582 123.724 200.559C123.763 200.536 123.794 200.52 123.818 200.51C123.841 200.499 123.854 200.495 123.856 200.494C123.858 200.493 123.848 200.497 123.825 200.502C123.801 200.508 123.765 200.515 123.715 200.522C123.664 200.529 123.601 200.536 123.523 200.542C123.445 200.547 123.354 200.55 123.25 200.55V205.55V210.55C125.687 210.55 128.434 209.937 130.536 207.836C132.637 205.734 133.25 202.987 133.25 200.55H128.25ZM123.25 205.55V200.55H111.25V205.55V210.55H123.25V205.55ZM111.25 205.55V200.55C111.146 200.55 111.055 200.547 110.977 200.542C110.899 200.536 110.836 200.529 110.785 200.522C110.735 200.515 110.699 200.508 110.675 200.502C110.652 200.497 110.642 200.493 110.644 200.494C110.646 200.495 110.659 200.499 110.682 200.51C110.706 200.52 110.737 200.536 110.776 200.559C110.814 200.582 110.857 200.611 110.902 200.646C110.947 200.681 110.992 200.721 111.036 200.764C111.079 200.808 111.119 200.853 111.154 200.898C111.189 200.943 111.218 200.986 111.241 201.024C111.264 201.063 111.28 201.094 111.29 201.118C111.301 201.141 111.305 201.154 111.306 201.156C111.307 201.158 111.303 201.148 111.298 201.125C111.292 201.101 111.285 201.065 111.278 201.015C111.271 200.964 111.264 200.901 111.258 200.823C111.253 200.745 111.25 200.654 111.25 200.55H106.25H101.25C101.25 202.987 101.863 205.734 103.964 207.836C106.066 209.937 108.813 210.55 111.25 210.55V205.55ZM106.25 200.55H111.25V194.75H106.25H101.25V200.55H106.25ZM122.55 195.15V190.15H111.95V195.15V200.15H122.55V195.15ZM111.95 195.15H106.95V200.15H111.95H116.95V195.15H111.95ZM111.95 200.15V205.15H122.55V200.15V195.15H111.95V200.15ZM122.55 200.15H127.55V195.15H122.55H117.55V200.15H122.55ZM108.7 208.3L107.954 213.244C108.09 213.265 107.343 213.184 106.676 212.333C105.993 211.46 106.09 210.669 106.083 210.727L111.05 211.3L116.017 211.873C116.21 210.198 116.016 208.04 114.549 206.167C113.099 204.316 111.076 203.602 109.446 203.356L108.7 208.3ZM111.05 211.3L106.09 210.666L105.24 217.316L110.2 217.95L115.16 218.584L116.01 211.934L111.05 211.3ZM110.2 217.95L105.231 217.398C105.212 217.567 105.265 216.69 106.238 215.932C107.226 215.161 108.119 215.324 107.996 215.306L107.25 220.25L106.504 225.194C108.148 225.442 110.415 225.355 112.387 223.818C114.343 222.293 114.988 220.133 115.169 218.502L110.2 217.95ZM107.25 220.25V215.25H107.05V220.25V225.25H107.25V220.25ZM107.05 220.25L107.796 215.306C107.66 215.285 108.407 215.366 109.074 216.217C109.757 217.09 109.66 217.881 109.667 217.823L104.7 217.25L99.733 216.677C99.5396 218.352 99.7342 220.51 101.201 222.383C102.651 224.234 104.674 224.948 106.304 225.194L107.05 220.25ZM104.7 217.25L109.66 217.884L110.51 211.234L105.55 210.6L100.59 209.966L99.7404 216.616L104.7 217.25ZM105.55 210.6L110.519 211.152C110.538 210.983 110.485 211.86 109.512 212.618C108.524 213.389 107.631 213.226 107.754 213.244L108.5 208.3L109.246 203.356C107.602 203.108 105.335 203.195 103.363 204.732C101.407 206.257 100.762 208.417 100.581 210.048L105.55 210.6ZM108.5 208.3V213.3H108.7V208.3V203.3H108.5V208.3ZM117.45 202.85V207.85C117.613 207.85 116.816 207.887 116.014 207.086C115.213 206.284 115.25 205.487 115.25 205.65H120.25H125.25C125.25 203.946 124.821 201.75 123.086 200.014C121.35 198.279 119.154 197.85 117.45 197.85V202.85ZM120.25 205.65H115.25V218.25H120.25H125.25V205.65H120.25ZM120.25 218.25H115.25C115.25 218.672 115.193 218.837 115.194 218.833C115.196 218.827 115.213 218.782 115.256 218.713C115.3 218.643 115.359 218.568 115.432 218.498L118.9 222.1L122.368 225.702C124.559 223.591 125.25 220.803 125.25 218.25H120.25ZM118.9 222.1L115.298 218.632C115.368 218.559 115.443 218.5 115.513 218.456C115.582 218.413 115.627 218.396 115.633 218.394C115.637 218.393 115.472 218.45 115.05 218.45V223.45V228.45C117.603 228.45 120.391 227.759 122.502 225.568L118.9 222.1ZM115.05 223.45V218.45H114.45V223.45V228.45H115.05V223.45ZM114.45 223.45V218.45C114.368 218.45 115.213 218.439 116.024 219.279C116.802 220.086 116.75 220.857 116.75 220.65H111.75H106.75C106.75 222.309 107.148 224.48 108.826 226.221C110.537 227.995 112.732 228.45 114.45 228.45V223.45ZM111.75 220.65H116.75V220.45H111.75H106.75V220.65H111.75ZM111.75 220.45H116.75C116.75 220.243 116.802 221.014 116.024 221.821C115.213 222.661 114.368 222.65 114.45 222.65V217.65V212.65C112.732 212.65 110.537 213.105 108.826 214.879C107.148 216.62 106.75 218.791 106.75 220.45H111.75ZM114.45 217.65H119.45V205.65H114.45H109.45V217.65H114.45ZM114.45 205.65H119.45C119.45 205.487 119.487 206.284 118.686 207.086C117.884 207.887 117.087 207.85 117.25 207.85V202.85V197.85C115.546 197.85 113.35 198.279 111.614 200.014C109.879 201.75 109.45 203.946 109.45 205.65H114.45ZM117.25 202.85V207.85H117.45V202.85V197.85H117.25V202.85ZM125.95 208.3L126.696 213.244C126.819 213.226 125.926 213.389 124.938 212.618C123.965 211.86 123.912 210.983 123.931 211.152L128.9 210.6L133.869 210.048C133.688 208.417 133.043 206.257 131.087 204.732C129.115 203.195 126.848 203.108 125.204 203.356L125.95 208.3ZM128.9 210.6L123.94 211.234L124.79 217.884L129.75 217.25L134.71 216.616L133.86 209.966L128.9 210.6ZM129.75 217.25L124.783 217.823C124.79 217.881 124.693 217.09 125.376 216.217C126.043 215.366 126.79 215.285 126.654 215.306L127.4 220.25L128.146 225.194C129.776 224.948 131.799 224.234 133.249 222.383C134.716 220.51 134.91 218.352 134.717 216.677L129.75 217.25ZM127.4 220.25V215.25H127.2V220.25V225.25H127.4V220.25ZM127.2 220.25L126.454 215.306C126.331 215.324 127.224 215.161 128.212 215.932C129.185 216.69 129.238 217.567 129.219 217.398L124.25 217.95L119.281 218.502C119.462 220.133 120.107 222.293 122.063 223.818C124.035 225.355 126.302 225.442 127.946 225.194L127.2 220.25ZM124.25 217.95L129.21 217.316L128.36 210.666L123.4 211.3L118.44 211.934L119.29 218.584L124.25 217.95ZM123.4 211.3L128.367 210.727C128.36 210.669 128.457 211.46 127.774 212.333C127.107 213.184 126.36 213.265 126.496 213.244L125.75 208.3L125.004 203.356C123.374 203.602 121.351 204.316 119.901 206.167C118.434 208.04 118.24 210.198 118.433 211.873L123.4 211.3ZM125.75 208.3V213.3H125.95V208.3V203.3H125.75V208.3ZM126.95 181.3V186.3C127.063 186.3 126.229 186.325 125.402 185.498C124.575 184.671 124.6 183.837 124.6 183.95H129.6H134.6C134.6 182.296 134.183 180.137 132.473 178.427C130.763 176.717 128.604 176.3 126.95 176.3V181.3ZM129.6 183.95H124.6V184.15H129.6H134.6V183.95H129.6ZM129.6 184.15H124.6C124.6 184.263 124.575 183.429 125.402 182.602C126.229 181.775 127.063 181.8 126.95 181.8V186.8V191.8C128.604 191.8 130.763 191.383 132.473 189.673C134.183 187.963 134.6 185.804 134.6 184.15H129.6ZM126.95 186.8V181.8H107.45V186.8V191.8H126.95V186.8ZM107.45 186.8V181.8C107.337 181.8 108.171 181.775 108.998 182.602C109.825 183.429 109.8 184.263 109.8 184.15H104.8H99.8C99.8 185.804 100.217 187.963 101.927 189.673C103.637 191.383 105.796 191.8 107.45 191.8V186.8ZM104.8 184.15H109.8V183.95H104.8H99.8V184.15H104.8ZM104.8 183.95H109.8C109.8 183.837 109.825 184.671 108.998 185.498C108.171 186.325 107.337 186.3 107.45 186.3V181.3V176.3C105.796 176.3 103.637 176.717 101.927 178.427C100.217 180.137 99.8 182.296 99.8 183.95H104.8ZM107.45 181.3V186.3H126.95V181.3V176.3H107.45V181.3ZM138.2 177.5V182.5C138.329 182.5 137.508 182.529 136.689 181.711C135.871 180.892 135.9 180.071 135.9 180.2H140.9H145.9C145.9 178.529 145.479 176.358 143.761 174.639C142.042 172.921 139.871 172.5 138.2 172.5V177.5ZM140.9 180.2H135.9V190.25H140.9H145.9V180.2H140.9ZM140.9 190.25H135.9C135.9 196.648 135.479 202.055 134.678 206.518L139.6 207.4L144.522 208.282C145.455 203.078 145.9 197.052 145.9 190.25H140.9ZM139.6 207.4L134.68 206.512C133.892 210.873 132.527 215.145 130.57 219.334L135.1 221.45L139.63 223.566C141.94 218.622 143.575 213.527 144.52 208.288L139.6 207.4ZM135.1 221.45L130.592 219.286C130.507 219.464 130.841 218.649 132.019 218.257C133.219 217.857 134.007 218.321 133.881 218.254L131.5 222.65L129.119 227.046C130.593 227.845 132.781 228.543 135.181 227.743C137.559 226.951 138.893 225.102 139.608 223.614L135.1 221.45ZM131.5 222.65L133.736 218.178L133.536 218.078L131.3 222.55L129.064 227.022L129.264 227.122L131.5 222.65ZM131.3 222.55L133.61 218.115C133.511 218.064 134.215 218.406 134.556 219.457C134.894 220.5 134.529 221.174 134.59 221.049L130.1 218.85L125.61 216.651C124.871 218.159 124.306 220.267 125.044 222.543C125.785 224.827 127.489 226.203 128.99 226.985L131.3 222.55ZM130.1 218.85L134.629 220.968C136.741 216.453 138.228 211.801 139.074 207.021L134.15 206.15L129.226 205.279C128.539 209.165 127.326 212.98 125.571 216.732L130.1 218.85ZM134.15 206.15L139.075 207.015C139.907 202.274 140.3 196.667 140.3 190.25H135.3H130.3C130.3 196.3 129.926 201.293 129.225 205.285L134.15 206.15ZM135.3 190.25H140.3V180.2H135.3H130.3V190.25H135.3ZM135.3 180.2H140.3C140.3 180.071 140.329 180.892 139.511 181.711C138.692 182.529 137.871 182.5 138 182.5V177.5V172.5C136.329 172.5 134.158 172.921 132.439 174.639C130.721 176.358 130.3 178.529 130.3 180.2H135.3ZM138 177.5V182.5H138.2V177.5V172.5H138V177.5ZM117.35 177.4V182.4C117.546 182.4 116.775 182.446 115.989 181.661C115.204 180.875 115.25 180.104 115.25 180.3H120.25H125.25C125.25 178.563 124.812 176.341 123.061 174.589C121.309 172.838 119.087 172.4 117.35 172.4V177.4ZM120.25 180.3H115.25V181.15H120.25H125.25V180.3H120.25ZM120.25 181.15H115.25C115.25 181.346 115.204 180.575 115.989 179.789C116.775 179.004 117.546 179.05 117.35 179.05V184.05V189.05C119.087 189.05 121.309 188.612 123.061 186.861C124.812 185.109 125.25 182.887 125.25 181.15H120.25ZM117.35 184.05V179.05H117.15V184.05V189.05H117.35V184.05ZM117.15 184.05V179.05C116.954 179.05 117.725 179.004 118.511 179.789C119.296 180.575 119.25 181.346 119.25 181.15H114.25H109.25C109.25 182.887 109.688 185.109 111.439 186.861C113.191 188.612 115.413 189.05 117.15 189.05V184.05ZM114.25 181.15H119.25V180.3H114.25H109.25V181.15H114.25ZM114.25 180.3H119.25C119.25 180.104 119.296 180.875 118.511 181.661C117.725 182.446 116.954 182.4 117.15 182.4V177.4V172.4C115.413 172.4 113.191 172.838 111.439 174.589C109.688 176.341 109.25 178.563 109.25 180.3H114.25ZM117.15 177.4V182.4H117.35V177.4V172.4H117.15V177.4ZM144.75 196.1V201.1C144.863 201.1 144.029 201.125 143.202 200.298C142.375 199.471 142.4 198.637 142.4 198.75H147.4H152.4C152.4 197.096 151.983 194.937 150.273 193.227C148.563 191.517 146.404 191.1 144.75 191.1V196.1ZM147.4 198.75H142.4V217.3H147.4H152.4V198.75H147.4ZM147.4 217.3V222.3H149.15V217.3V212.3H147.4V217.3ZM149.15 217.3V222.3C149.263 222.3 148.429 222.325 147.602 221.498C146.775 220.671 146.8 219.837 146.8 219.95H151.8H156.8C156.8 218.296 156.383 216.137 154.673 214.427C152.963 212.717 150.804 212.3 149.15 212.3V217.3ZM151.8 219.95H146.8V220.15H151.8H156.8V219.95H151.8ZM151.8 220.15H146.8C146.8 220.263 146.775 219.429 147.602 218.602C148.429 217.775 149.263 217.8 149.15 217.8V222.8V227.8C150.804 227.8 152.963 227.383 154.673 225.673C156.383 223.963 156.8 221.804 156.8 220.15H151.8ZM149.15 222.8V217.8H146.85V222.8V227.8H149.15V222.8ZM146.85 222.8V217.8C146.474 217.8 146.324 217.75 146.325 217.751C146.329 217.752 146.367 217.765 146.426 217.8C146.486 217.836 146.552 217.885 146.616 217.946L143.15 221.55L139.684 225.154C141.757 227.147 144.397 227.8 146.85 227.8V222.8ZM143.15 221.55L146.686 218.014C146.769 218.098 146.834 218.184 146.881 218.262C146.928 218.339 146.946 218.39 146.949 218.4C146.952 218.408 146.939 218.373 146.926 218.281C146.913 218.188 146.9 218.048 146.9 217.85H141.9H136.9C136.9 220.288 137.53 223.001 139.614 225.086L143.15 221.55ZM141.9 217.85H146.9V198.75H141.9H136.9V217.85H141.9ZM141.9 198.75H146.9C146.9 198.637 146.925 199.471 146.098 200.298C145.271 201.125 144.437 201.1 144.55 201.1V196.1V191.1C142.896 191.1 140.737 191.517 139.027 193.227C137.317 194.937 136.9 197.096 136.9 198.75H141.9ZM144.55 196.1V201.1H144.75V196.1V191.1H144.55V196.1ZM148.2 186.9V191.9C148.363 191.9 147.566 191.937 146.764 191.136C145.963 190.334 146 189.537 146 189.7H151H156C156 187.996 155.571 185.8 153.836 184.064C152.1 182.329 149.904 181.9 148.2 181.9V186.9ZM151 189.7H146V189.9H151H156V189.7H151ZM151 189.9H146C146 190.063 145.963 189.266 146.764 188.464C147.566 187.663 148.363 187.7 148.2 187.7V192.7V197.7C149.904 197.7 152.1 197.271 153.836 195.536C155.571 193.8 156 191.604 156 189.9H151ZM148.2 192.7V187.7H133V192.7V197.7H148.2V192.7ZM133 192.7V187.7C132.837 187.7 133.634 187.663 134.436 188.464C135.237 189.266 135.2 190.063 135.2 189.9H130.2H125.2C125.2 191.604 125.629 193.8 127.364 195.536C129.1 197.271 131.296 197.7 133 197.7V192.7ZM130.2 189.9H135.2V189.7H130.2H125.2V189.9H130.2ZM130.2 189.7H135.2C135.2 189.537 135.237 190.334 134.436 191.136C133.634 191.937 132.837 191.9 133 191.9V186.9V181.9C131.296 181.9 129.1 182.329 127.364 184.064C125.629 185.8 125.2 187.996 125.2 189.7H130.2ZM133 186.9V191.9H148.2V186.9V181.9H133V186.9ZM145.65 178.2L146.396 183.144C146.551 183.121 145.727 183.285 144.768 182.582C143.786 181.862 143.684 180.984 143.695 181.067L148.65 180.4L153.605 179.733C153.383 178.082 152.664 175.971 150.682 174.518C148.723 173.082 146.516 173.013 144.904 173.256L145.65 178.2ZM148.65 180.4L143.684 180.984L143.884 182.684L148.85 182.1L153.816 181.516L153.616 179.816L148.65 180.4ZM148.85 182.1L143.906 182.846C143.929 183.001 143.765 182.177 144.468 181.218C145.188 180.236 146.066 180.134 145.983 180.145L146.65 185.1L147.317 190.055C148.968 189.833 151.079 189.114 152.532 187.132C153.968 185.173 154.037 182.966 153.794 181.354L148.85 182.1ZM146.65 185.1V180.1H146.45V185.1V190.1H146.65V185.1ZM146.45 185.1L145.704 180.156C145.549 180.179 146.373 180.015 147.332 180.718C148.314 181.438 148.416 182.316 148.405 182.233L143.45 182.9L138.495 183.567C138.717 185.218 139.436 187.329 141.418 188.782C143.377 190.218 145.584 190.287 147.196 190.044L146.45 185.1ZM143.45 182.9L148.416 182.316L148.216 180.616L143.25 181.2L138.284 181.784L138.484 183.484L143.45 182.9ZM143.25 181.2L148.194 180.454C148.171 180.299 148.335 181.123 147.632 182.082C146.912 183.064 146.034 183.166 146.117 183.155L145.45 178.2L144.783 173.245C143.132 173.467 141.021 174.186 139.568 176.168C138.132 178.127 138.063 180.334 138.306 181.946L143.25 181.2ZM145.45 178.2V183.2H145.65V178.2V173.2H145.45V178.2Z" fill="#4E433C" mask="url(#path-2-outside-1_341_3511)"/>
<path d="M67.484 59.9496C67.4879 55.6025 66.4572 50.1023 72.5928 50.1838C74.1717 50.2048 75.8099 50.1736 77.397 50.1743L90.0549 50.1757L115.253 50.1736C119.657 50.1736 124.063 50.1669 128.466 50.1936C129.599 50.2005 130.851 50.6545 131.613 51.4976C133.352 53.42 132.851 57.4713 132.831 59.9601C135.212 59.8865 137.72 59.8752 140.104 59.9047C142.203 59.9306 145.123 59.7118 147.109 60.1861C148.398 60.4926 149.586 61.1263 150.558 62.0261C154.129 65.3766 153.018 70.7647 151.795 74.9172C148.747 85.2712 142.29 92.7033 131.789 95.5868C128.909 104.56 123.931 110.996 115.518 115.613C113.315 116.955 109.48 117.343 108.611 120.159C108.148 121.659 108.246 124.399 109.024 125.744C111.747 130.445 118.58 126.042 118.453 133.798L82.1916 133.801C82.1767 132.342 82.297 131.024 83.3574 129.901C86.2269 126.859 92.2143 130.239 92.159 122.17C92.1489 120.709 91.9214 119.44 90.8093 118.392C89.3211 116.987 86.7645 116.499 84.9603 115.508C76.6813 110.963 71.8162 104.414 68.7917 95.6015C61.4102 93.7737 56.0169 89.3348 52.0241 82.8716C49.4717 78.7398 46.4271 70.4871 47.6548 65.7154C48.1444 63.7328 49.4225 62.0363 51.1929 61.0192C52.0406 60.5276 52.9725 60.1985 53.941 60.0493C54.7348 59.9198 55.5052 59.8946 56.3085 59.9032C60.0229 59.943 63.7712 59.8458 67.484 59.9496Z" fill="#F9C74A"/>
<path d="M99.9867 65.5706C104.42 65.5219 104.35 72.2683 106.926 74.3348C109.654 76.2132 115.655 74.5728 117.188 78.0573C118.703 81.4986 112.512 84.3532 111.355 86.9107C110.345 89.1413 113.062 94.2727 111.909 96.7164C111.243 98.1301 109.518 98.7951 108.023 98.3624C105.642 97.4896 103.366 96.0821 101.028 94.9783C97.6212 94.6599 86.5749 105.037 89.1674 91.5266C89.4249 90.1843 89.6847 88.7097 89.7989 87.3515C88.6171 85.1704 84.1514 82.1258 83.5924 80.167C82.3095 74.6546 90.2393 76.0094 92.9373 74.8445C96.4403 73.3322 95.8383 66.8639 99.9867 65.5706Z" fill="#F5F2E8"/>
<path d="M132.832 68.7134C134.721 68.722 141.719 68.328 142.952 69.2471C143.368 69.5569 143.582 70.0089 143.642 70.5173C143.951 73.1525 140.83 78.626 139.244 80.7053C137.309 83.019 135.529 84.1917 132.817 85.3816C132.881 79.8642 132.83 74.2391 132.832 68.7134Z" fill="#B586E4"/>
<path d="M58.2365 68.7943C60.2996 68.5774 65.2579 68.7211 67.4983 68.7262C67.4122 73.3076 67.5483 77.9323 67.4964 82.5164C67.4867 83.3751 67.5465 84.2932 67.4264 85.1397C67.1217 85.2015 67.0381 85.0934 66.6878 84.9513C65.6172 84.4412 64.6082 83.8106 63.6805 83.0718C60.1824 80.2792 57.3348 74.7973 56.8184 70.3996C57.2492 69.466 57.3624 69.3342 58.2365 68.7943Z" fill="#B586E4"/>
<path d="M118.453 133.797C120.831 133.795 123.197 133.656 125.162 135.222C125.948 135.85 126.558 136.672 126.928 137.608C127.275 138.478 127.386 139.537 127.515 140.468C127.941 143.307 128.223 146.09 128.605 148.939C129.089 152.547 127.441 155.778 123.451 155.926C120.123 156.048 116.745 155.984 113.397 155.979L95.5158 155.973L82.7775 155.98C80.6283 155.98 78.323 156.011 76.1781 155.884C75.2662 155.83 73.9624 155.075 73.2836 154.498C72.2445 153.597 71.5283 151.824 71.6202 150.455C71.8447 147.246 72.3733 144.05 72.7333 140.851C72.9553 138.88 73.3529 137.068 74.8015 135.601C76.8647 133.51 79.5137 133.806 82.1921 133.801L118.453 133.797Z" fill="#51433D"/>
<path d="M87.1941 139.086C87.9958 139.052 88.8041 139.061 89.6058 139.062C97.1932 139.076 104.819 139.018 112.401 139.081C115.114 139.103 115.799 140.965 115.725 143.361C115.644 145.99 116.28 148.321 113.211 149.272C112.186 149.357 110.497 149.305 109.431 149.304L102.682 149.299C100.919 149.298 87.3659 149.466 86.547 149.112C85.7542 148.774 85.1353 148.125 84.8357 147.318C84.4271 146.211 84.5296 145.096 84.5378 143.95C84.5552 141.545 84.4909 139.892 87.1941 139.086Z" fill="#F9C74A"/>
<path d="M42.8806 94.2038C43.2005 94.1816 43.5512 94.1706 43.8675 94.2357C46.2837 94.7348 46.6691 100.851 48.2896 102.7C49.9219 104.561 55.2931 104.622 56.5755 106.706C56.8641 107.176 56.9356 107.778 56.7915 108.307C56.1044 110.827 50.2278 111 48.4324 112.736C46.371 114.727 46.7942 119.873 43.9732 121.434C40.3086 121.747 40.4405 114.889 38.6038 112.899C37.0712 111.238 31.4441 110.742 30.2842 108.817C29.9966 108.329 29.9234 107.744 30.0823 107.199C30.7592 104.902 36.9113 104.307 38.358 102.903C40.3468 100.974 40.2844 95.6838 42.8806 94.2038Z" fill="#F5798F"/>
<path d="M157.545 106.398C160.99 106.402 160.316 111.789 162.465 113.984C164.248 115.807 171.111 115.734 169.845 119.372C169.127 121.437 163.75 121.718 162.406 123.23C160.76 125.08 160.834 130.195 158.112 130.963C155.2 130.785 155.186 126.778 154.147 124.664C153.937 124.235 153.653 123.416 153.228 123.133C151.5 121.984 149.257 121.615 147.388 120.699C146.197 120.128 145.228 119.082 145.961 117.742C147.333 115.457 151.776 115.754 153.464 113.851C154.995 112.124 154.984 107.103 157.545 106.398Z" fill="#F5F2E8"/>
<path d="M99.6302 24.0324C103.998 23.5153 102.983 29.3157 103.04 32.0073C103.098 34.6858 103.502 37.1185 100.616 38.166C96.723 38.3282 97.1295 34.0079 97.2339 31.2997C97.3507 28.2583 96.3819 25.3829 99.6302 24.0324Z" fill="#F9C74A"/>
<path d="M119.166 30.29C121.171 30.3023 121.83 31.3995 122.348 33.1358C121.894 35.3898 119.233 38.7488 118.122 40.8777C117.494 42.0823 116.698 42.891 115.37 43.2749C112.914 43.2728 111.42 41.1801 112.642 38.9463C113.531 37.3911 114.421 35.7826 115.414 34.288C116.677 32.3853 116.89 31.0559 119.166 30.29Z" fill="#F9C74A"/>
<path d="M80.5299 30.3007C81.1911 30.284 82.4228 30.4982 82.8277 31.0788C84.7313 33.8082 86.538 36.8131 88.0361 39.7831C88.2284 40.1646 88.0674 41.2821 87.8338 41.6556C87.28 42.6387 86.6762 42.9655 85.6584 43.2723C83.2767 43.1752 82.8034 41.84 81.6652 39.9752C80.5715 38.1829 79.3957 36.3338 78.4517 34.4633C77.4365 32.4514 78.6034 30.9976 80.5299 30.3007Z" fill="#F9C74A"/>
</svg>
