<svg width="200" height="200" viewBox="0 0 200 200" fill="none" xmlns="http://www.w3.org/2000/svg">
<path d="M79.4192 35.0774C93.0092 35.0625 106.858 35.2014 120.423 35C120.256 37.1526 120.153 38.869 120.299 41.0175C124.427 41.0696 130.888 41.279 134.899 41.0709L134.845 47.267L141.534 47.2774C141.516 49.4339 141.462 51.7033 141.51 53.8493L148.199 53.809C148.171 55.7448 148.085 57.9908 148.146 59.9009C150.284 59.9034 152.663 59.9596 154.78 59.8979C154.719 63.0773 154.461 69.135 154.735 72.0588C156.767 72.0568 158.859 72.0825 160.885 72.0508C160.772 89.4916 160.751 106.933 160.82 124.374L154.73 124.376C154.723 128.366 154.652 132.519 154.712 136.493L148.147 136.489L148.155 142.882L141.517 142.788L141.508 149.237C139.312 149.196 137.09 149.135 134.896 149.193C134.879 150.546 134.807 152.263 134.883 153.585L152.759 153.524C152.615 155.534 152.624 157.607 152.603 159.627C150.177 159.571 147.475 159.654 145.028 159.677C145.09 161.774 144.98 163.775 144.885 165.87C137.97 166.143 129.712 165.897 122.674 165.891L77.1144 165.893C71.8936 165.914 61.0997 165.559 56.3681 165.925C56.3983 163.696 56.4002 161.878 56.6946 159.673L47.8784 159.652C47.8656 157.616 47.8917 155.58 47.9571 153.545C53.084 153.557 59.5247 153.396 64.549 153.704C64.5531 151.991 64.5055 150.88 64.3392 149.178L58.3272 149.207L58.3544 142.855C56.2713 142.772 53.8074 142.846 51.6947 142.859L51.6831 136.532C49.5975 136.456 47.2206 136.502 45.1112 136.493C45.3363 132.522 44.9349 128.302 45.241 124.407L45.1046 124.316C43.3375 124.441 40.8157 124.392 38.9912 124.41C39.3272 107.362 38.9738 89.2114 39.0078 72.0709L45.1176 72.0599C45.15 68.004 45.1564 63.9479 45.137 59.8921C47.2306 59.9571 49.5634 59.9094 51.6767 59.9125L51.6753 53.8851L58.3214 53.8024L58.3497 47.346C60.4935 47.2931 62.37 47.2708 64.5116 47.3463L64.6624 47.3149C64.6186 45.2703 64.6879 43.0703 64.7161 41.0131C69.6002 41.1068 74.4989 41.0001 79.4026 41.1216L79.4192 35.0774Z" fill="#FDC130"/>
<path d="M79.4192 35.0774C93.0092 35.0625 106.858 35.2014 120.423 35C120.256 37.1526 120.153 38.869 120.299 41.0175C124.427 41.0696 130.888 41.279 134.899 41.0709L134.845 47.267L141.534 47.2774C141.516 49.4339 141.462 51.7033 141.51 53.8493L148.199 53.809C148.171 55.7448 148.085 57.9908 148.146 59.9009L148.16 72.0546L154.77 72.0736L154.752 106.004C153.68 106.408 149.503 106.275 148.15 106.24C145.798 106.115 143.904 106.131 141.544 106.189C141.331 103.192 141.499 97.7669 141.501 94.6453L141.52 72.2417C142.658 72.2996 143.002 72.2996 144.126 72.1389C143.599 72.0541 142.105 72.0706 141.506 72.0643C139.266 72.0191 137.119 71.9791 134.88 72.0301C134.857 68.4768 135.145 63.144 134.921 59.9031L134.78 53.817C129.974 53.8575 125.168 53.8561 120.362 53.8129L120.305 53.5671C107.324 54.1377 92.4958 53.7944 79.3569 53.7922C79.3655 55.7103 79.4245 57.8588 79.3674 59.7565C74.5649 59.6403 69.0181 60.1133 64.6213 59.8417C64.636 58.6966 64.7147 56.9491 64.651 55.8528C64.3841 57.502 64.4079 58.2354 64.4497 59.8629C62.7026 59.9188 60.0519 60.0761 58.3777 59.9783L58.2909 71.8706L58.1903 72.0138C56.0887 72.0706 53.8019 72.1761 51.7194 72.072C51.838 74.9847 51.7939 78.0754 51.7183 80.995C51.5051 89.231 51.9733 97.6892 51.6445 105.901L51.5722 106.143C51.9589 111.004 51.6753 119.219 51.6343 124.375L51.471 124.437L45.241 124.407L45.1046 124.316C43.3375 124.441 40.8157 124.392 38.9912 124.41C39.3272 107.362 38.9738 89.2114 39.0078 72.0709L45.1176 72.0599C45.15 68.004 45.1564 63.9479 45.137 59.8921C47.2306 59.9571 49.5634 59.9094 51.6767 59.9125L51.6753 53.8851L58.3214 53.8024L58.3497 47.346C60.4935 47.2931 62.37 47.2708 64.5116 47.3463L64.6623 47.3149C64.6186 45.2703 64.6878 43.0703 64.7161 41.0131C69.6002 41.1068 74.4989 41.0001 79.4026 41.1216L79.4192 35.0774Z" fill="#FDC130"/>
<path d="M45.137 59.8926C47.2306 59.9576 49.5634 59.9099 51.6767 59.913C51.6786 63.93 51.6351 68.0315 51.6889 72.0402L45.2041 72.0667C44.9305 75.6244 45.0627 80.5566 45.0649 84.2279L45.0771 104.943L45.3283 105.893C46.6208 106.642 49.9991 106.243 51.5722 106.143C51.9589 111.004 51.6753 119.219 51.6343 124.376L51.471 124.438L45.241 124.408L45.1046 124.316C43.3375 124.442 40.8157 124.392 38.9912 124.411C39.3272 107.362 38.9738 89.2119 39.0078 72.0714L45.1176 72.0604C45.15 68.0045 45.1564 63.9484 45.137 59.8926Z" fill="#292829"/>
<path d="M45.0779 104.943L45.329 105.894C46.6216 106.642 49.9999 106.243 51.573 106.144C51.9596 111.005 51.6761 119.22 51.635 124.376L51.4718 124.438L45.2417 124.408L45.1054 124.317C44.8889 118.298 45.076 111.053 45.0779 104.943Z" fill="#FDA013"/>
<path d="M79.5001 47.339C92.5575 46.9952 106.989 47.3275 120.203 47.2674C120.252 49.4415 120.159 51.3486 120.306 53.5687C107.325 54.1393 92.4966 53.796 79.3576 53.7938C79.3662 55.7119 79.4252 57.8603 79.3681 59.7581C74.5656 59.6418 69.0188 60.1149 64.6221 59.8432C64.6368 58.6982 64.7155 56.9506 64.6517 55.8543C64.6357 55.0176 64.6168 54.8355 64.861 54.0404C65.9129 53.7158 77.4603 53.7916 79.3989 53.7872L79.5001 47.339Z" fill="#FDA013"/>
<path d="M79.419 35.0774C93.0089 35.0625 106.858 35.2014 120.423 35C120.255 37.1526 120.153 38.869 120.299 41.0175L94.4824 41.0103C89.7345 41.0095 84.099 40.8737 79.4023 41.1216L79.419 35.0774Z" fill="#292829"/>
<path d="M144.125 72.1401C145.388 72.1026 146.834 72.0241 148.082 72.039C148.198 83.4182 147.989 94.9135 148.149 106.241C145.797 106.116 143.903 106.132 141.543 106.19C141.331 103.193 141.498 97.7681 141.5 94.6465L141.519 72.2428C142.657 72.3007 143.002 72.3007 144.125 72.1401Z" fill="#FDA013"/>
<path d="M64.7164 41.0146C69.6004 41.1083 74.4991 41.0017 79.4028 41.1232L79.397 47.2308C75.0865 47.2338 68.8165 47.0437 64.6626 47.3165C64.6188 45.2719 64.6881 43.0719 64.7164 41.0146Z" fill="#292829"/>
<path d="M120.299 41.0186C124.426 41.0706 130.887 41.28 134.899 41.072L134.845 47.268C130.106 47.1721 125.145 47.2363 120.389 47.2267C120.402 45.1934 120.456 43.035 120.299 41.0186Z" fill="#292829"/>
<path d="M141.509 59.875L141.506 72.0662C139.266 72.021 137.119 71.9811 134.88 72.032C134.857 68.4787 135.145 63.1459 134.921 59.905C137.108 59.9177 139.327 59.9527 141.509 59.875Z" fill="#FDA013"/>
<path d="M134.846 47.2676L141.535 47.2781C141.516 49.4345 141.462 51.7039 141.511 53.8499C139.348 53.732 137.033 53.7854 134.855 53.7972L134.846 47.2676Z" fill="#292829"/>
<path d="M58.3496 47.3472C60.4933 47.2943 62.3699 47.272 64.5114 47.3475C64.668 49.4722 64.594 51.7091 64.5613 53.8474C62.7122 53.8121 60.1086 53.6909 58.3213 53.8036L58.3496 47.3472Z" fill="#292829"/>
<path d="M141.511 53.8498L148.2 53.8096C148.172 55.7453 148.086 57.9913 148.147 59.9014L141.508 59.8855L141.511 53.8498Z" fill="#292829"/>
<path d="M51.6758 53.8864L58.3219 53.8037L58.3263 59.9242C56.1501 59.9198 53.8403 59.873 51.6772 59.9138L51.6758 53.8864Z" fill="#292829"/>
<path d="M148.147 59.9024C150.285 59.9049 152.664 59.9611 154.781 59.8994C154.72 63.0788 154.461 69.1366 154.736 72.0603C156.768 72.0584 158.859 72.084 160.885 72.0523C160.773 89.4931 160.751 106.935 160.82 124.376L154.731 124.378C154.723 128.367 154.653 132.52 154.713 136.495L148.148 136.49L148.155 142.883L141.517 142.789L141.509 149.238C139.313 149.198 137.091 149.136 134.897 149.194C134.879 150.547 134.808 152.265 134.883 153.587L152.76 153.525C152.615 155.536 152.624 157.609 152.604 159.628C150.178 159.572 147.476 159.655 145.029 159.678C145.091 161.776 144.981 163.777 144.886 165.871C137.97 166.145 129.713 165.898 122.675 165.893L77.1152 165.894C71.8943 165.916 61.1004 165.56 56.3688 165.926C56.399 163.697 56.401 161.879 56.6953 159.674L47.8791 159.653C47.8664 157.617 47.8924 155.581 47.9578 153.546C53.0847 153.559 59.5254 153.398 64.5497 153.705C64.5539 151.993 64.5062 150.882 64.3399 149.179L64.6362 149.058C68.8979 149.394 75.0274 149.22 79.4208 149.16C79.4014 151.195 79.4044 153.23 79.4302 155.265C92.8652 155.28 106.893 155.491 120.285 155.249C120.331 153.209 120.398 151.144 120.359 149.106C125.128 149.258 130.075 149.182 134.86 149.169C134.879 147.153 134.864 145.138 134.815 143.123L135.331 142.697L135.042 142.488C134.62 141.503 134.857 138.318 134.727 136.786L134.702 136.51L134.828 136.363C136.195 136.422 140.127 136.406 141.117 136.697L141.508 137.157L141.481 136.561C141.087 133.616 141.952 127.521 141.343 124.359L141.454 124.246C141.65 118.348 141.55 112.114 141.544 106.191C143.905 106.132 145.798 106.117 148.151 106.242C149.504 106.276 153.681 106.41 154.753 106.005L154.771 72.0752L148.16 72.0562L148.147 59.9024Z" fill="#292829"/>
<path d="M154.752 106.004C154.766 112.062 154.862 118.333 154.709 124.373L148.129 124.419C148.159 128.441 148.158 132.464 148.125 136.486L141.481 136.559C141.087 133.614 141.951 127.52 141.343 124.358L141.454 124.244C141.65 118.347 141.55 112.112 141.544 106.189C143.905 106.131 145.798 106.115 148.15 106.24C149.503 106.275 153.68 106.408 154.752 106.004Z" fill="#FDA013"/>
<path d="M141.544 106.189C143.905 106.131 145.798 106.116 148.151 106.241C148.133 112.072 148.308 118.634 147.943 124.38C145.955 124.397 143.372 124.493 141.454 124.244C141.65 118.347 141.55 112.113 141.544 106.189Z" fill="#F6860D"/>
<path d="M134.827 136.362C136.194 136.421 140.126 136.405 141.116 136.696L141.507 137.156L141.516 142.835C139.696 142.84 137.06 142.92 135.33 142.696L135.041 142.487C134.619 141.502 134.856 138.317 134.726 136.785L134.701 136.509L134.827 136.362Z" fill="#FDA013"/>
<path d="M51.6353 124.375C53.5679 124.442 55.5021 124.452 57.4355 124.406C57.7321 124.577 58.1709 124.736 58.1997 124.977C58.623 128.507 58.2873 132.982 58.3181 136.559C60.3756 136.538 62.4335 136.552 64.4907 136.601C64.5819 138.495 64.1584 141.497 65.1588 142.72C68.5518 143.188 75.5771 142.795 79.4023 142.953C79.267 145.396 79.3114 146.741 79.4896 149.189C92.9595 149.184 106.969 148.951 120.359 149.104C120.398 151.142 120.331 153.207 120.285 155.247C106.893 155.489 92.8656 155.279 79.4306 155.263C79.4048 153.228 79.4017 151.193 79.4211 149.158C75.0277 149.218 68.8983 149.392 64.6365 149.057L64.3402 149.178L58.3283 149.207L58.3555 142.855C56.2724 142.772 53.8085 142.846 51.6958 142.859L51.6841 136.532C49.5986 136.456 47.2217 136.501 45.1123 136.493C45.3374 132.522 44.936 128.302 45.242 124.407L51.4721 124.437L51.6353 124.375Z" fill="#F6860D"/>
<path d="M51.6836 136.532L58.3571 136.54C58.3488 138.58 58.2987 140.777 58.3552 142.804C60.4322 142.825 62.6192 142.884 64.6859 142.863C64.5989 144.842 64.4378 147.115 64.636 149.057L64.3397 149.178L58.3278 149.208L58.3549 142.855C56.2719 142.772 53.808 142.846 51.6952 142.859L51.6836 136.532Z" fill="#292829"/>
<path d="M45.242 124.408L51.4721 124.438C51.8898 125.954 51.6442 134.366 51.6841 136.533C49.5986 136.457 47.2217 136.503 45.1123 136.494C45.3374 132.523 44.936 128.303 45.242 124.408Z" fill="#292829"/>
<path d="M64.4885 136.603C69.477 136.468 74.4481 136.548 79.4319 136.5L79.3704 143.112C88.1256 143.037 96.8811 143.013 105.637 143.039C108.953 143.023 117.166 142.76 120.22 143.035C120.199 141.362 120.12 139.738 120.382 138.084C120.318 137.344 120.26 137.25 120.637 136.656C122.931 136.353 131.848 136.532 134.7 136.51L134.725 136.786C134.855 138.318 134.618 141.503 135.04 142.488L135.329 142.697L134.813 143.124C134.862 145.138 134.877 147.154 134.859 149.169C130.073 149.182 125.126 149.258 120.357 149.106C106.967 148.953 92.9573 149.186 79.4873 149.191C79.3091 146.743 79.2648 145.397 79.4 142.955C75.5749 142.797 68.5495 143.19 65.1565 142.722C64.1561 141.498 64.5797 138.497 64.4885 136.603Z" fill="#FDA013"/>
<path d="M120.383 138.084C120.319 137.344 120.261 137.25 120.638 136.656C122.932 136.353 131.848 136.532 134.701 136.51L134.726 136.786C134.856 138.318 134.619 141.503 135.041 142.488L135.33 142.697L134.814 143.124C133.267 142.601 122.528 143.008 120.431 143.125L120.383 138.084Z" fill="#F6860D"/>
<path d="M51.6455 105.902C51.9743 97.691 51.5061 89.2327 51.7192 80.9968C51.7949 78.0772 51.839 74.9865 51.7203 72.0738C53.8029 72.1779 56.0896 72.0724 58.1913 72.0156C58.5752 74.8358 58.2828 78.9134 58.3756 81.8492C58.6231 89.6645 57.9953 98.4977 58.2265 106.184C57.006 106.195 52.4577 106.366 51.6455 105.902Z" fill="#FDA013"/>
<path d="M71.6569 62.0878C74.0011 61.9936 76.6978 61.847 79.0317 62.0292C79.1215 64.4677 79.6302 70.2979 78.5885 72.146C76.7671 72.8717 72.8976 71.7867 71.9745 72.3196C71.7586 73.6217 71.747 74.4926 71.717 75.7938C69.7102 75.8894 67.7391 76.0159 65.7312 75.9318C65.6768 74.5851 65.6145 70.9853 65.3126 69.8631L65.2256 69.3895C65.3218 69.1619 65.4066 68.8071 65.5771 68.7679C67.2815 68.3753 70.0822 68.4585 71.8273 68.4472C71.5923 66.236 71.6375 64.3126 71.6569 62.0878Z" fill="#FDE293"/>
<path d="M120.362 53.8135C125.168 53.8567 129.975 53.8581 134.78 53.8176L134.922 59.9037C130.538 59.5794 124.886 59.8431 120.388 59.9558C120.35 57.8889 120.307 55.8804 120.362 53.8135Z" fill="#FDA013"/>
<path d="M141.343 124.358C141.951 127.52 141.087 133.615 141.48 136.56L141.508 137.156L141.116 136.696C140.126 136.405 136.195 136.421 134.828 136.362C134.899 132.481 134.831 128.409 134.825 124.512L141.343 124.358Z" fill="#F6860D"/>
<path d="M58.3778 59.9787C60.052 60.0765 62.7027 59.9192 64.4498 59.8633C64.4767 61.9462 64.3695 67.913 65.226 69.3894L65.313 69.863C65.2437 70.6899 65.3513 71.464 64.8867 71.9454C63.4481 72.0773 59.5949 72.187 58.291 71.871L58.3778 59.9787Z" fill="#FDA013"/>
<path d="M57.4346 124.407C59.8115 124.392 62.2621 124.409 64.6312 124.357C64.4369 127.136 64.3471 133.705 64.4898 136.603C62.4325 136.553 60.3747 136.539 58.3171 136.56C58.2864 132.983 58.622 128.508 58.1988 124.978C58.1699 124.737 57.7312 124.578 57.4346 124.407Z" fill="#FDA013"/>
<path d="M99.382 62.04C101.452 62.1588 103.638 62.1166 105.72 62.1084C105.457 65.1633 105.576 69.453 105.502 72.6495L113.161 72.595C113.003 74.2742 113.186 77.3641 113.244 79.1555C115.15 78.9965 117.669 78.9951 119.624 78.9395L119.591 92.3917L113.216 92.4283L113.155 99.0624L119.624 99.0723L119.595 105.643L126.016 105.735L125.956 111.881C123.856 111.959 121.692 111.953 119.586 111.971L119.62 118.316L105.525 118.338L105.542 121.472C105.601 123.896 105.534 126.527 105.518 128.967C103.469 128.946 101.419 128.961 99.3704 129.012L99.4427 118.365L92.803 118.318C92.8368 121.906 92.8848 125.373 92.7365 128.961C90.8158 128.955 88.8949 128.968 86.9743 129.002C86.9441 125.443 86.9335 121.885 86.943 118.326L73.8958 118.322L73.8617 111.952L80.4014 111.951C80.6392 101.14 80.4327 89.8388 80.4859 78.9731C78.3011 78.9444 76.0695 78.9714 73.8802 78.975L73.8301 72.598C78.0569 72.4958 82.6094 72.6484 86.9183 72.606C87.0389 69.3329 86.9258 65.4724 86.8975 62.1582L92.956 62.0618C92.7035 63.938 92.7922 70.3242 92.7661 72.6112L99.3815 72.6167L99.382 62.04Z" fill="#5C3F2B"/>
<path d="M92.7637 78.9683L105.705 78.957C105.753 83.4509 105.749 87.9457 105.692 92.4396C101.405 92.4666 97.118 92.4707 92.8308 92.452C92.8382 87.9572 92.8161 83.4625 92.7637 78.9683Z" fill="#FDC130"/>
<path d="M92.8116 99.054C97.1275 99.0044 101.444 98.9995 105.76 99.0391C105.657 103.262 105.726 107.773 105.715 112.019C101.893 111.824 96.8198 111.966 92.9034 111.961C92.7767 107.708 92.8191 103.319 92.8116 99.054Z" fill="#FDC130"/>
<path d="M179.24 77.9333C181.47 77.8206 183.552 77.8581 185.786 77.8903C185.577 79.4863 185.589 82.433 185.549 84.1378L192 84.169L191.931 90.6992C189.959 90.5474 187.656 90.6962 185.651 90.7736C185.594 92.7099 185.624 94.8099 185.612 96.761C184.547 96.9533 180.515 96.8842 179.212 96.8861L179.26 90.5058C177.22 90.6234 175.179 90.7273 173.137 90.8177C173.095 88.6136 173.127 86.3152 173.125 84.1023C175.056 84.1946 177.253 84.161 179.206 84.1739L179.24 77.9333Z" fill="#FDE293"/>
<path d="M18.1985 112.128C19.1875 112.1 20.8212 112.227 21.8587 112.273C21.7592 114.351 21.7886 116.27 21.8196 118.35C23.6344 118.439 25.9988 118.331 27.8587 118.293L27.8618 124.998C25.9314 124.914 23.8395 124.931 21.895 124.911C21.6996 127.004 22.2886 129.206 21.3329 130.564C20.5856 131.15 19.6312 130.981 18.6372 130.953L15.4393 130.996C15.3964 128.992 15.4809 126.938 15.5391 124.93L9 124.965L9.03936 118.371C11.1136 118.418 13.3618 118.356 15.4501 118.338C15.4701 116.442 14.9856 114.241 15.6547 112.707C16.6351 111.941 16.6786 112.193 18.1985 112.128Z" fill="#FDE293"/>
<path d="M20.097 65.3887L26.5197 65.4446L26.4338 71.8007L32.8709 71.7701C32.8252 73.8668 32.8604 76.0789 32.859 78.186C30.8172 78.2301 28.5011 78.1359 26.4388 78.097L26.5053 84.0646C25.6768 84.2181 21.1958 84.1897 20.0884 84.1993L20.1062 78.1483L14.0072 78.1879L14.002 71.7704L20.0416 71.7974C20.1228 69.7611 20.0837 67.4479 20.097 65.3887Z" fill="#FDE293"/>
</svg>
