<svg width="80" height="79" viewBox="0 0 80 79" fill="none" xmlns="http://www.w3.org/2000/svg">
<path d="M61.752 1.53757C63.9584 -0.734029 66.9788 -0.66818 66.7432 2.94968C66.205 3.54457 65.654 4.11855 65.209 4.78561C63.0731 7.03395 60.1961 10.3141 58.2373 12.7173C58.2462 13.6234 58.2598 13.8773 58.0254 14.7417C57.0416 15.1823 56.9428 15.2338 55.9141 15.2925C53.4516 18.0015 50.9104 20.8872 48.5977 23.7319C47.5402 25.0327 48.1648 25.4937 47.0732 26.7231C45.9249 38.189 43.7759 46.8377 35.2002 55.2192C39.133 58.219 40.4401 63.3478 37.2695 67.435C35.8978 69.2061 33.8658 70.3493 31.6357 70.6049C29.6455 70.8372 27.9038 70.233 26.0332 69.6606C22.9647 71.7921 19.9775 68.8132 22.708 65.7456C21.9282 64.436 22.043 63.0353 21.8086 61.5122C21.9913 60.706 22.2679 59.7924 22.4902 58.9858C22.3041 58.3297 22.1031 57.5904 21.6895 57.0424C20.2189 55.0936 16.8677 52.7709 14.4541 52.4145C14.9525 50.7885 17.2091 49.0397 18.8799 48.6225C19.9919 47.4923 21.0842 46.2775 22.1172 45.0737C28.5178 37.6158 35.4033 30.506 41.8232 23.0776C41.7793 22.0497 41.6481 21.5782 42.2695 20.8178C43.0587 20.5241 43.0187 20.7055 43.9414 20.7895C44.8146 20.1646 51.2292 12.9281 52.2236 11.7719C52.2309 11.4723 52.244 11.1724 52.2637 10.8735C52.3091 10.227 52.3722 9.80685 52.8799 9.36765C53.552 9.05457 53.8697 9.147 54.6172 9.23776C57.0707 6.89942 59.3559 4.00439 61.752 1.53757ZM47.0732 26.7182C45.466 26.8264 45.5513 26.8598 44.6699 28.1928C43.2931 29.4365 39.4797 34.1688 38.1201 35.7973C33.4455 41.4034 28.8328 47.0606 24.2822 52.7671C24.6454 54.8102 24.415 55.229 23.5186 57.1274C26.9078 54.09 28.5806 53.3035 33.1465 54.229L35.2002 55.2153C43.7759 46.8338 45.9249 38.1842 47.0732 26.7182Z" fill="#514440"/>
<path d="M62.0911 48.9899C62.3748 49.6457 63.152 50.6165 62.8643 51.1664C62.3593 52.132 62.0368 52.5239 62.8415 53.5114C63.8199 52.9305 64.8026 52.2268 64.749 51.0006C64.9331 50.624 65.6516 49.5652 65.9461 49.0411C69.0316 50.6288 68.2203 54.2875 65.6976 56.1456L65.6606 64.833C65.6502 67.7529 65.2213 71.6163 67.2496 73.9273C68.1874 75.0035 69.5245 75.6523 70.9526 75.7245C72.3826 75.8023 73.7838 75.3019 74.8388 74.3364C76.4573 72.8357 76.4517 71.2782 76.501 69.2956C75.6222 69.1352 74.2973 68.7145 73.3951 68.4538C75.1308 66.7517 77.9809 64.2103 79.9058 62.8443C79.9073 67.3411 80.7401 73.358 77.4254 76.5754C75.7374 78.2138 73.7329 78.9975 71.3934 78.9862C68.9411 78.986 66.5904 78.0085 64.8653 76.271C63.7905 75.1918 63.0112 73.8558 62.6021 72.3908C61.9515 70.0031 62.1584 59.3679 62.2059 56.1696C59.4928 53.7695 59.2006 51.3724 62.0911 48.9899Z" fill="#514440"/>
<path d="M18.8799 48.6225C20.6511 49.3738 23.1921 51.1772 24.2825 52.7708C24.6457 54.8143 24.4155 55.233 23.519 57.1315C26.9083 54.0941 28.581 53.3078 33.1469 54.2333L35.2002 55.2192C39.133 58.219 40.4401 63.3478 37.2695 67.435C35.8978 69.2061 33.8658 70.3493 31.6357 70.6049C29.6455 70.8372 27.9038 70.233 26.0332 69.6606C22.9647 71.7921 19.9775 68.8132 22.708 65.7456C21.9282 64.436 22.043 63.0353 21.8086 61.5122C21.9913 60.706 22.2679 59.7924 22.4902 58.9858C22.3041 58.3297 22.1031 57.5904 21.6895 57.0424C20.2189 55.0936 16.8677 52.7709 14.4541 52.4145C14.9525 50.7885 17.2091 49.0397 18.8799 48.6225Z" fill="#FEC54C"/>
<path d="M28.8021 59.1864C30.1132 58.9321 31.1379 58.6514 32.4001 59.4666C34.1791 60.6151 34.4145 63.0304 33.3776 64.7587C33.0208 65.3534 32.0518 65.7249 31.3995 65.7941C28.2765 66.121 29.0236 65.3694 26.542 67.2629C26.4133 68.2667 26.3649 68.6757 26.0331 69.6581C22.9646 71.7896 19.9775 68.8104 22.7079 65.7427C23.5909 65.4357 23.8427 65.3588 24.7639 65.2513C25.0563 65.0068 26.2693 63.9992 26.3792 63.7617C27.3204 61.7267 26.55 60.6271 28.8021 59.1864Z" fill="#514440"/>
<path d="M44.6698 28.1909C45.5511 26.8579 45.466 26.8247 47.0732 26.7166C45.9249 38.1825 43.776 46.8317 35.2003 55.2132L33.1464 54.2274C37.5858 50.3832 39.9089 46.5607 42.103 41.0431C42.9041 39.0285 45.4743 29.9382 44.6698 28.1909Z" fill="white"/>
<path d="M14.454 52.4129C16.8677 52.7692 20.2192 55.0922 21.6897 57.0411C22.1033 57.5891 22.3037 58.328 22.4899 58.9841C22.2675 59.7907 21.9911 60.7044 21.8084 61.5107C19.8373 64.8427 12.4891 76.2668 10.0568 78.2018C9.25012 78.8437 8.30764 79.0893 7.28556 78.9709C5.11046 78.7187 2.60778 76.8042 1.27276 75.1187C0.443993 74.0724 -0.139228 72.7277 0.0289987 71.373C0.386872 68.4897 11.9985 54.3172 14.454 52.4129Z" fill="#514440"/>
<path d="M66.7432 2.94498C71.2748 5.38026 72.4565 10.3714 70.0576 14.7838C69.1178 16.5123 66.8294 18.4653 64.8066 18.7272L64.8213 34.8991C64.8222 38.1787 64.6734 41.6764 65.1113 44.9128C65.1707 45.3522 65.7988 48.7952 65.9473 49.0387C65.6528 49.5628 65.1112 50.3318 64.75 50.9987C66.9996 53.4996 63.7138 54.3798 62.8428 53.5094C61.8334 52.5 62.3603 52.13 62.8652 51.1647C63.1529 50.6148 62.3755 49.6437 62.0918 48.9879C62.2489 46.9999 62.6368 44.7725 62.6582 42.8151C62.7456 34.8588 62.7007 26.8093 62.6924 18.8581C60.0137 18.6099 57.4255 17.6298 55.9141 15.2878C56.9433 15.2291 57.0421 15.1779 58.0264 14.737C58.2606 13.8729 58.2472 13.6186 58.2383 12.7126C60.197 10.3095 63.0732 7.03014 65.209 4.78189C65.6541 4.11472 66.2049 3.53995 66.7432 2.94498ZM65.209 4.78561C63.0731 7.03395 60.1971 10.3133 58.2383 12.7165C58.2472 13.6225 58.2608 13.8765 58.0264 14.7409C66.8245 22.3056 73.9665 7.77911 65.209 4.78561Z" fill="white"/>
</svg>
