<svg width="90" height="90" viewBox="0 0 90 90" fill="none" xmlns="http://www.w3.org/2000/svg">
<path d="M47.7802 3.01769C48.9259 3.01932 49.5337 3.49657 50.2216 4.31359C50.5434 6.00424 50.7119 8.26047 51.1288 9.78332C55.8319 12.5593 55.3904 9.21307 59.5146 7.96691C60.5943 8.33324 60.9414 8.69542 61.7285 9.43761C67.2861 14.6789 66.5774 14.1654 62.8535 19.7784C63.0363 20.318 63.8584 22.4194 64.206 22.6984C66.1976 24.1613 70.6561 22.1528 70.8984 25.9015C70.9504 26.7085 70.9169 27.5773 70.9501 28.338C71.2344 34.8597 70.455 34.5303 64.4394 35.0206C63.7516 35.9799 63.3106 37.1311 62.8749 38.2247C65.1546 43.071 68.2632 42.3675 62.7802 47.6378C58.2925 51.9514 59.0764 49.6743 54.1542 46.8907C53.2 47.2488 51.9999 47.796 51.1181 48.297C50.4311 50.5356 51.1654 54.5715 48.2607 54.9679C46.7094 54.9768 42.2135 55.0878 40.9072 54.839C40.8711 54.8164 40.8357 54.7928 40.8007 54.7687C39.0991 53.5873 39.3141 50.4988 38.8749 48.2775C37.9108 47.7545 36.891 47.3292 35.8857 46.8907C34.4572 47.6417 31.1603 50.7104 29.8505 49.8517C28.2584 48.8063 25.1029 45.8246 24.2587 44.0939C23.6295 42.8032 26.4557 39.6186 27.1455 38.211C26.8939 37.5308 25.9328 35.2136 25.4921 35.1027C23.2192 34.5304 18.8723 35.3166 19.0331 31.6017C19.1092 29.8463 18.7893 26.5982 19.2802 24.8556C19.8212 22.9369 23.8872 23.5742 25.3037 23.0392C26.2141 22.6874 26.816 20.6943 27.1552 19.8019C23.5652 14.4675 22.6718 14.9509 27.6142 10.1017C28.6606 9.07499 29.0766 8.46497 30.5273 7.97667C32.4156 8.5652 33.8875 10.1017 35.6923 11.0821L35.7656 11.0685C41.2691 10.0026 38.1635 6.63408 39.9999 3.99621C40.4111 3.40597 40.9854 3.18446 41.666 3.06359C43.5409 2.95816 45.8752 3.01501 47.7802 3.01769Z" fill="#53443E"/>
<path d="M44.0256 17.3387C50.4433 16.7961 56.0739 21.6226 56.5774 28.0975C57.0803 34.5725 52.2641 40.2246 45.841 40.6971C39.4671 41.1657 33.9149 36.3539 33.4152 29.9286C32.9159 23.503 37.6569 17.8773 44.0256 17.3387ZM50.7482 28.4208C50.3973 25.2342 47.5652 22.9276 44.4025 23.2528C41.1993 23.5823 38.8772 26.4836 39.2326 29.7108C39.5882 32.9378 42.4843 35.2533 45.6809 34.8661C48.8373 34.4836 51.099 31.6072 50.7482 28.4208Z" fill="#F5F0E6"/>
<mask id="path-4-outside-1_424_3845" maskUnits="userSpaceOnUse" x="22" y="51" width="46" height="24" fill="black">
<rect fill="white" x="22" y="51" width="46" height="24"/>
<path d="M32.34 64.56C32.6733 64.3467 32.9733 64.2733 33.24 64.34C33.5067 64.3933 33.76 64.58 34 64.9C34.96 66.1267 36.1467 67.16 37.56 68C38.9867 68.84 40.56 69.4467 42.28 69.82C43.04 70.02 43.3333 70.4933 43.16 71.24V71.32C42.9733 72.0933 42.5067 72.38 41.76 72.18C39.5467 71.58 37.6133 70.7733 35.96 69.76C34.32 68.7467 32.98 67.5533 31.94 66.18C31.4867 65.5533 31.5933 65.0267 32.26 64.6L32.34 64.56ZM39.14 54.16C39.8467 54.16 40.38 54.34 40.74 54.7C41.1133 55.06 41.3 55.6 41.3 56.32V58.38H42.08C42.8533 58.38 43.24 58.7667 43.24 59.54V59.62C43.24 60.3933 42.8533 60.78 42.08 60.78H41.06C40.3533 60.78 39.8133 60.6 39.44 60.24C39.08 59.88 38.9 59.34 38.9 58.62V56.56H33.92V56.58C33.92 57.38 33.7267 58.16 33.34 58.92C32.9533 59.68 32.3933 60.3533 31.66 60.94C31.3533 61.1667 31.0667 61.2533 30.8 61.2C30.5333 61.1333 30.3067 60.9333 30.12 60.6L30.08 60.52C29.7067 59.88 29.8333 59.3267 30.46 58.86C30.8333 58.5267 31.1 58.1733 31.26 57.8C31.4333 57.4267 31.52 57.02 31.52 56.58V56.32C31.52 55.6133 31.7 55.08 32.06 54.72C32.42 54.3467 32.96 54.16 33.68 54.16H39.14ZM39.72 61.82C40.36 61.82 40.8733 61.9533 41.26 62.22C41.6467 62.4733 41.8667 62.86 41.92 63.38C41.9733 63.8867 41.8267 64.4933 41.48 65.2C40.8267 66.3067 39.9933 67.3133 38.98 68.22C37.98 69.1133 36.84 69.8867 35.56 70.54C34.28 71.2067 32.8933 71.7467 31.4 72.16C31.0267 72.2533 30.72 72.2267 30.48 72.08C30.2533 71.9467 30.0933 71.6933 30 71.32V71.24C29.8267 70.5067 30.1067 70.04 30.84 69.84C32.2 69.4533 33.4133 68.9933 34.48 68.46C35.56 67.9267 36.4933 67.3133 37.28 66.62C38.08 65.9133 38.7467 65.1133 39.28 64.22H31.64C30.8667 64.22 30.48 63.8333 30.48 63.06V62.98C30.48 62.2067 30.8667 61.82 31.64 61.82H39.72ZM26.62 53.98C27.3267 53.6333 27.86 53.8133 28.22 54.52L29.24 56.6C29.6 57.3067 29.4267 57.8333 28.72 58.18L28.64 58.22C27.9333 58.5667 27.4 58.3867 27.04 57.68L26.02 55.6C25.66 54.8933 25.8333 54.3667 26.54 54.02L26.62 53.98ZM26.18 59.74C26.9 59.74 27.4467 59.9267 27.82 60.3C28.2067 60.6733 28.4 61.2267 28.4 61.96V69.48C29.16 69.48 29.54 69.88 29.54 70.68V70.76C29.54 71.56 29.14 71.96 28.34 71.96H28.18C27.46 71.96 26.9067 71.7733 26.52 71.4C26.1467 71.0267 25.96 70.4733 25.96 69.74V62.22H25.78C24.98 62.22 24.58 61.82 24.58 61.02V60.94C24.58 60.14 24.98 59.74 25.78 59.74H26.18ZM47.64 55.68C47.64 54.4667 48.2467 53.86 49.46 53.86H62.54C63.7533 53.86 64.36 54.4667 64.36 55.68V56.4C64.36 57.6133 63.7533 58.22 62.54 58.22H49.46C48.2467 58.22 47.64 57.6133 47.64 56.4V55.68ZM62.04 55.54H49.96V56.54H62.04V55.54ZM64.22 70.14C64.86 70.14 65.18 70.46 65.18 71.1V71.18C65.18 71.82 64.86 72.14 64.22 72.14H47.78C47.14 72.14 46.82 71.82 46.82 71.18V71.1C46.82 70.46 47.14 70.14 47.78 70.14H64.22ZM61.52 67.94C62.0267 67.94 62.28 68.1933 62.28 68.7V68.78C62.28 69.2867 62.0267 69.54 61.52 69.54H50.48C49.9733 69.54 49.72 69.2867 49.72 68.78V68.7C49.72 68.1933 49.9733 67.94 50.48 67.94H61.52ZM61.52 65.76C62.0267 65.76 62.28 66.0133 62.28 66.52V66.6C62.28 67.1067 62.0267 67.36 61.52 67.36H50.48C49.9733 67.36 49.72 67.1067 49.72 66.6V66.52C49.72 66.0133 49.9733 65.76 50.48 65.76H61.52ZM61.64 61.3C62.24 61.3 62.7 61.46 63.02 61.78C63.34 62.0867 63.5 62.5467 63.5 63.16V69.98C63.5 70.7533 63.1133 71.14 62.34 71.14H62.26C61.4867 71.14 61.1 70.7533 61.1 69.98V62.98H50.9V69.98C50.9 70.7533 50.5133 71.14 49.74 71.14H49.66C48.8867 71.14 48.5 70.7533 48.5 69.98V63.16C48.5 62.56 48.6533 62.1 48.96 61.78C49.28 61.46 49.7467 61.3 50.36 61.3H61.64ZM61.52 63.56C62.0267 63.56 62.28 63.8133 62.28 64.32V64.4C62.28 64.9067 62.0267 65.16 61.52 65.16H50.48C49.9733 65.16 49.72 64.9067 49.72 64.4V64.32C49.72 63.8133 49.9733 63.56 50.48 63.56H61.52ZM63.9 58.84C64.4867 58.84 64.78 59.1333 64.78 59.72V59.8C64.78 60.3867 64.4867 60.68 63.9 60.68H48.1C47.5133 60.68 47.22 60.3867 47.22 59.8V59.72C47.22 59.1333 47.5133 58.84 48.1 58.84H63.9ZM56.04 57.3C56.8133 57.3 57.2 57.6867 57.2 58.46V60.98C57.2 61.7533 56.8133 62.14 56.04 62.14H55.96C55.1867 62.14 54.8 61.7533 54.8 60.98V58.46C54.8 57.6867 55.1867 57.3 55.96 57.3H56.04ZM53.62 54.7C54.3667 54.7 54.74 55.0733 54.74 55.82V56.26C54.74 57.0067 54.3667 57.38 53.62 57.38H53.54C52.7933 57.38 52.42 57.0067 52.42 56.26V55.82C52.42 55.0733 52.7933 54.7 53.54 54.7H53.62ZM58.46 54.7C59.2067 54.7 59.58 55.0733 59.58 55.82V56.26C59.58 57.0067 59.2067 57.38 58.46 57.38H58.38C57.6333 57.38 57.26 57.0067 57.26 56.26V55.82C57.26 55.0733 57.6333 54.7 58.38 54.7H58.46Z"/>
</mask>
<path d="M32.34 64.56C32.6733 64.3467 32.9733 64.2733 33.24 64.34C33.5067 64.3933 33.76 64.58 34 64.9C34.96 66.1267 36.1467 67.16 37.56 68C38.9867 68.84 40.56 69.4467 42.28 69.82C43.04 70.02 43.3333 70.4933 43.16 71.24V71.32C42.9733 72.0933 42.5067 72.38 41.76 72.18C39.5467 71.58 37.6133 70.7733 35.96 69.76C34.32 68.7467 32.98 67.5533 31.94 66.18C31.4867 65.5533 31.5933 65.0267 32.26 64.6L32.34 64.56ZM39.14 54.16C39.8467 54.16 40.38 54.34 40.74 54.7C41.1133 55.06 41.3 55.6 41.3 56.32V58.38H42.08C42.8533 58.38 43.24 58.7667 43.24 59.54V59.62C43.24 60.3933 42.8533 60.78 42.08 60.78H41.06C40.3533 60.78 39.8133 60.6 39.44 60.24C39.08 59.88 38.9 59.34 38.9 58.62V56.56H33.92V56.58C33.92 57.38 33.7267 58.16 33.34 58.92C32.9533 59.68 32.3933 60.3533 31.66 60.94C31.3533 61.1667 31.0667 61.2533 30.8 61.2C30.5333 61.1333 30.3067 60.9333 30.12 60.6L30.08 60.52C29.7067 59.88 29.8333 59.3267 30.46 58.86C30.8333 58.5267 31.1 58.1733 31.26 57.8C31.4333 57.4267 31.52 57.02 31.52 56.58V56.32C31.52 55.6133 31.7 55.08 32.06 54.72C32.42 54.3467 32.96 54.16 33.68 54.16H39.14ZM39.72 61.82C40.36 61.82 40.8733 61.9533 41.26 62.22C41.6467 62.4733 41.8667 62.86 41.92 63.38C41.9733 63.8867 41.8267 64.4933 41.48 65.2C40.8267 66.3067 39.9933 67.3133 38.98 68.22C37.98 69.1133 36.84 69.8867 35.56 70.54C34.28 71.2067 32.8933 71.7467 31.4 72.16C31.0267 72.2533 30.72 72.2267 30.48 72.08C30.2533 71.9467 30.0933 71.6933 30 71.32V71.24C29.8267 70.5067 30.1067 70.04 30.84 69.84C32.2 69.4533 33.4133 68.9933 34.48 68.46C35.56 67.9267 36.4933 67.3133 37.28 66.62C38.08 65.9133 38.7467 65.1133 39.28 64.22H31.64C30.8667 64.22 30.48 63.8333 30.48 63.06V62.98C30.48 62.2067 30.8667 61.82 31.64 61.82H39.72ZM26.62 53.98C27.3267 53.6333 27.86 53.8133 28.22 54.52L29.24 56.6C29.6 57.3067 29.4267 57.8333 28.72 58.18L28.64 58.22C27.9333 58.5667 27.4 58.3867 27.04 57.68L26.02 55.6C25.66 54.8933 25.8333 54.3667 26.54 54.02L26.62 53.98ZM26.18 59.74C26.9 59.74 27.4467 59.9267 27.82 60.3C28.2067 60.6733 28.4 61.2267 28.4 61.96V69.48C29.16 69.48 29.54 69.88 29.54 70.68V70.76C29.54 71.56 29.14 71.96 28.34 71.96H28.18C27.46 71.96 26.9067 71.7733 26.52 71.4C26.1467 71.0267 25.96 70.4733 25.96 69.74V62.22H25.78C24.98 62.22 24.58 61.82 24.58 61.02V60.94C24.58 60.14 24.98 59.74 25.78 59.74H26.18ZM47.64 55.68C47.64 54.4667 48.2467 53.86 49.46 53.86H62.54C63.7533 53.86 64.36 54.4667 64.36 55.68V56.4C64.36 57.6133 63.7533 58.22 62.54 58.22H49.46C48.2467 58.22 47.64 57.6133 47.64 56.4V55.68ZM62.04 55.54H49.96V56.54H62.04V55.54ZM64.22 70.14C64.86 70.14 65.18 70.46 65.18 71.1V71.18C65.18 71.82 64.86 72.14 64.22 72.14H47.78C47.14 72.14 46.82 71.82 46.82 71.18V71.1C46.82 70.46 47.14 70.14 47.78 70.14H64.22ZM61.52 67.94C62.0267 67.94 62.28 68.1933 62.28 68.7V68.78C62.28 69.2867 62.0267 69.54 61.52 69.54H50.48C49.9733 69.54 49.72 69.2867 49.72 68.78V68.7C49.72 68.1933 49.9733 67.94 50.48 67.94H61.52ZM61.52 65.76C62.0267 65.76 62.28 66.0133 62.28 66.52V66.6C62.28 67.1067 62.0267 67.36 61.52 67.36H50.48C49.9733 67.36 49.72 67.1067 49.72 66.6V66.52C49.72 66.0133 49.9733 65.76 50.48 65.76H61.52ZM61.64 61.3C62.24 61.3 62.7 61.46 63.02 61.78C63.34 62.0867 63.5 62.5467 63.5 63.16V69.98C63.5 70.7533 63.1133 71.14 62.34 71.14H62.26C61.4867 71.14 61.1 70.7533 61.1 69.98V62.98H50.9V69.98C50.9 70.7533 50.5133 71.14 49.74 71.14H49.66C48.8867 71.14 48.5 70.7533 48.5 69.98V63.16C48.5 62.56 48.6533 62.1 48.96 61.78C49.28 61.46 49.7467 61.3 50.36 61.3H61.64ZM61.52 63.56C62.0267 63.56 62.28 63.8133 62.28 64.32V64.4C62.28 64.9067 62.0267 65.16 61.52 65.16H50.48C49.9733 65.16 49.72 64.9067 49.72 64.4V64.32C49.72 63.8133 49.9733 63.56 50.48 63.56H61.52ZM63.9 58.84C64.4867 58.84 64.78 59.1333 64.78 59.72V59.8C64.78 60.3867 64.4867 60.68 63.9 60.68H48.1C47.5133 60.68 47.22 60.3867 47.22 59.8V59.72C47.22 59.1333 47.5133 58.84 48.1 58.84H63.9ZM56.04 57.3C56.8133 57.3 57.2 57.6867 57.2 58.46V60.98C57.2 61.7533 56.8133 62.14 56.04 62.14H55.96C55.1867 62.14 54.8 61.7533 54.8 60.98V58.46C54.8 57.6867 55.1867 57.3 55.96 57.3H56.04ZM53.62 54.7C54.3667 54.7 54.74 55.0733 54.74 55.82V56.26C54.74 57.0067 54.3667 57.38 53.62 57.38H53.54C52.7933 57.38 52.42 57.0067 52.42 56.26V55.82C52.42 55.0733 52.7933 54.7 53.54 54.7H53.62ZM58.46 54.7C59.2067 54.7 59.58 55.0733 59.58 55.82V56.26C59.58 57.0067 59.2067 57.38 58.46 57.38H58.38C57.6333 57.38 57.26 57.0067 57.26 56.26V55.82C57.26 55.0733 57.6333 54.7 58.38 54.7H58.46Z" fill="white"/>
<path d="M32.34 64.56L33.2344 66.3489L33.329 66.3016L33.4181 66.2445L32.34 64.56ZM33.24 64.34L32.7549 66.2803L32.8011 66.2918L32.8478 66.3012L33.24 64.34ZM34 64.9L32.4 66.1L32.4123 66.1164L32.425 66.1326L34 64.9ZM37.56 68L36.5382 69.7193L36.5453 69.7235L37.56 68ZM42.28 69.82L42.789 67.8859L42.7468 67.8748L42.7042 67.8655L42.28 69.82ZM43.16 71.24L41.2118 70.7877L41.16 71.0109V71.24H43.16ZM43.16 71.32L45.1042 71.7893L45.16 71.558V71.32H43.16ZM41.76 72.18L41.2367 74.1103L41.2425 74.1119L41.76 72.18ZM35.96 69.76L34.9087 71.4614L34.9149 71.4652L35.96 69.76ZM31.94 66.18L30.3196 67.3522L30.3324 67.37L30.3456 67.3874L31.94 66.18ZM32.26 64.6L31.3656 62.8111L31.271 62.8584L31.1819 62.9155L32.26 64.6ZM40.74 54.7L39.3258 56.1142L39.3386 56.1271L39.3517 56.1397L40.74 54.7ZM41.3 58.38H39.3V60.38H41.3V58.38ZM39.44 60.24L38.0258 61.6542L38.0386 61.6671L38.0517 61.6797L39.44 60.24ZM38.9 56.56H40.9V54.56H38.9V56.56ZM33.92 56.56V54.56H31.92V56.56H33.92ZM33.34 58.92L31.5574 58.0131L31.5574 58.0131L33.34 58.92ZM31.66 60.94L32.8488 62.5484L32.8795 62.5256L32.9094 62.5017L31.66 60.94ZM30.8 61.2L30.3149 63.1403L30.3611 63.1518L30.4078 63.1612L30.8 61.2ZM30.12 60.6L28.3311 61.4944L28.3521 61.5363L28.375 61.5772L30.12 60.6ZM30.08 60.52L31.8689 59.6256L31.84 59.5679L31.8076 59.5123L30.08 60.52ZM30.46 58.86L31.6545 60.4641L31.7258 60.411L31.792 60.3519L30.46 58.86ZM31.26 57.8L29.446 56.9578L29.4334 56.9848L29.4217 57.0122L31.26 57.8ZM32.06 54.72L33.4742 56.1342L33.4871 56.1214L33.4997 56.1083L32.06 54.72ZM41.26 62.22L40.1245 63.8664L40.1441 63.8799L40.1639 63.8929L41.26 62.22ZM41.92 63.38L39.9304 63.5841L39.931 63.5894L41.92 63.38ZM41.48 65.2L43.2023 66.2168L43.2415 66.1502L43.2756 66.0809L41.48 65.2ZM38.98 68.22L40.3124 69.7115L40.3136 69.7105L38.98 68.22ZM35.56 70.54L34.6508 68.7586L34.6434 68.7624L34.6361 68.7662L35.56 70.54ZM31.4 72.16L31.8851 74.1003L31.9094 74.0942L31.9335 74.0875L31.4 72.16ZM30.48 72.08L31.5229 70.3734L31.5085 70.3647L31.494 70.3561L30.48 72.08ZM30 71.32H28V71.5662L28.0597 71.8051L30 71.32ZM30 71.24H32V71.0068L31.9464 70.7799L30 71.24ZM30.84 69.84L31.3662 71.7695L31.3766 71.7667L31.387 71.7638L30.84 69.84ZM34.48 68.46L33.5944 66.6667L33.5856 66.6711L34.48 68.46ZM37.28 66.62L38.6024 68.1204L38.6041 68.1189L37.28 66.62ZM39.28 64.22L40.9972 65.2452L42.8033 62.22H39.28V64.22ZM26.62 53.98L25.7392 52.1844L25.7323 52.1878L25.7256 52.1912L26.62 53.98ZM28.22 54.52L30.0157 53.6394L30.009 53.6257L30.0021 53.6121L28.22 54.52ZM29.24 56.6L27.4443 57.4806L27.451 57.4943L27.4579 57.5079L29.24 56.6ZM28.72 58.18L27.8391 56.3844L27.8324 56.3878L27.8256 56.3911L28.72 58.18ZM28.64 58.22L29.5209 60.0156L29.5276 60.0122L29.5344 60.0089L28.64 58.22ZM27.04 57.68L25.2443 58.5606L25.251 58.5743L25.2579 58.5878L27.04 57.68ZM26.02 55.6L27.8157 54.7194L27.809 54.7057L27.8021 54.6921L26.02 55.6ZM26.54 54.02L27.4208 55.8156L27.4277 55.8122L27.4344 55.8088L26.54 54.02ZM27.82 60.3L26.4058 61.7142L26.4182 61.7266L26.4308 61.7388L27.82 60.3ZM28.4 69.48H26.4V71.48H28.4V69.48ZM26.52 71.4L25.1058 72.8142L25.1182 72.8266L25.1308 72.8388L26.52 71.4ZM25.96 62.22H27.96V60.22H25.96V62.22ZM32.34 64.56L33.4181 66.2445C33.4944 66.1957 33.221 66.3968 32.7549 66.2803L33.24 64.34L33.7251 62.3997C32.7257 62.1499 31.8523 62.4976 31.2619 62.8755L32.34 64.56ZM33.24 64.34L32.8478 66.3012C32.448 66.2212 32.319 65.992 32.4 66.1L34 64.9L35.6 63.7C35.201 63.168 34.5653 62.5655 33.6322 62.3788L33.24 64.34ZM34 64.9L32.425 66.1326C33.546 67.565 34.9239 68.7598 36.5382 69.7193L37.56 68L38.5818 66.2807C37.3695 65.5602 36.374 64.6883 35.575 63.6674L34 64.9ZM37.56 68L36.5453 69.7235C38.1665 70.678 39.9411 71.3589 41.8558 71.7745L42.28 69.82L42.7042 67.8655C41.1789 67.5344 39.8069 67.002 38.5747 66.2765L37.56 68ZM42.28 69.82L41.771 71.7541C41.8603 71.7776 41.5868 71.7285 41.37 71.3785C41.1468 71.0185 41.2249 70.7315 41.2118 70.7877L43.16 71.24L45.1082 71.6923C45.2685 71.0018 45.2865 70.1049 44.77 69.2715C44.2598 68.4482 43.4597 68.0624 42.789 67.8859L42.28 69.82ZM43.16 71.24H41.16V71.32H43.16H45.16V71.24H43.16ZM43.16 71.32L41.2158 70.8507C41.1904 70.956 41.2364 70.6485 41.6232 70.4108C42.0235 70.1649 42.343 70.2656 42.2775 70.2481L41.76 72.18L41.2425 74.1119C41.9237 74.2944 42.8498 74.3517 43.7168 73.8192C44.5703 73.2949 44.9429 72.4574 45.1042 71.7893L43.16 71.32ZM41.76 72.18L42.2833 70.2497C40.2212 69.6907 38.4697 68.9524 37.0051 68.0548L35.96 69.76L34.9149 71.4652C36.757 72.5942 38.8721 73.4693 41.2367 74.1103L41.76 72.18ZM35.96 69.76L37.0113 68.0586C35.5564 67.1596 34.4087 66.1271 33.5344 64.9726L31.94 66.18L30.3456 67.3874C31.5513 68.9796 33.0836 70.3337 34.9087 71.4614L35.96 69.76ZM31.94 66.18L33.5604 65.0078C33.5149 64.9448 33.7392 65.2234 33.6402 65.712C33.544 66.187 33.2452 66.344 33.3381 66.2845L32.26 64.6L31.1819 62.9155C30.6082 63.2826 29.9227 63.9163 29.7198 64.918C29.5142 65.9333 29.9118 66.7886 30.3196 67.3522L31.94 66.18ZM32.26 64.6L33.1544 66.3889L33.2344 66.3489L32.34 64.56L31.4456 62.7711L31.3656 62.8111L32.26 64.6ZM39.14 54.16V56.16C39.3289 56.16 39.4147 56.1847 39.4304 56.19C39.4365 56.192 39.4251 56.1888 39.4029 56.1753C39.38 56.1615 39.3527 56.1411 39.3258 56.1142L40.74 54.7L42.1542 53.2858C41.2932 52.4248 40.1675 52.16 39.14 52.16V54.16ZM40.74 54.7L39.3517 56.1397C39.3238 56.1128 39.3021 56.0847 39.2869 56.0604C39.2721 56.0366 39.2681 56.0237 39.2698 56.0284C39.2743 56.0417 39.3 56.1271 39.3 56.32H41.3H43.3C43.3 55.2728 43.0246 54.1246 42.1283 53.2603L40.74 54.7ZM41.3 56.32H39.3V58.38H41.3H43.3V56.32H41.3ZM41.3 58.38V60.38H42.08V58.38V56.38H41.3V58.38ZM42.08 58.38V60.38C42.1584 60.38 41.8498 60.3982 41.5358 60.0842C41.2218 59.7702 41.24 59.4616 41.24 59.54H43.24H45.24C45.24 58.845 45.0649 57.9565 44.3642 57.2558C43.6635 56.5551 42.775 56.38 42.08 56.38V58.38ZM43.24 59.54H41.24V59.62H43.24H45.24V59.54H43.24ZM43.24 59.62H41.24C41.24 59.6984 41.2218 59.3898 41.5358 59.0758C41.8498 58.7618 42.1584 58.78 42.08 58.78V60.78V62.78C42.775 62.78 43.6635 62.6049 44.3642 61.9042C45.0649 61.2035 45.24 60.315 45.24 59.62H43.24ZM42.08 60.78V58.78H41.06V60.78V62.78H42.08V60.78ZM41.06 60.78V58.78C40.8719 58.78 40.7811 58.7555 40.7575 58.7476C40.7471 58.7442 40.7529 58.7451 40.7691 58.7546C40.7859 58.7646 40.807 58.7798 40.8283 58.8003L39.44 60.24L38.0517 61.6797C38.916 62.5131 40.0269 62.78 41.06 62.78V60.78ZM39.44 60.24L40.8542 58.8258C40.8834 58.8549 40.9047 58.8839 40.9187 58.9073C40.9323 58.9299 40.9351 58.9407 40.9324 58.9325C40.9256 58.9123 40.9 58.8193 40.9 58.62H38.9H36.9C36.9 59.6483 37.1584 60.7869 38.0258 61.6542L39.44 60.24ZM38.9 58.62H40.9V56.56H38.9H36.9V58.62H38.9ZM38.9 56.56V54.56H33.92V56.56V58.56H38.9V56.56ZM33.92 56.56H31.92V56.58H33.92H35.92V56.56H33.92ZM33.92 56.58H31.92C31.92 57.0442 31.8108 57.515 31.5574 58.0131L33.34 58.92L35.1226 59.8269C35.6425 58.805 35.92 57.7158 35.92 56.58H33.92ZM33.34 58.92L31.5574 58.0131C31.3124 58.4946 30.9444 58.9513 30.4106 59.3783L31.66 60.94L32.9094 62.5017C33.8423 61.7554 34.5942 60.8654 35.1226 59.8269L33.34 58.92ZM31.66 60.94L30.4712 59.3316C30.4542 59.3443 30.5095 59.2989 30.6362 59.2606C30.7753 59.2185 30.9712 59.1946 31.1922 59.2388L30.8 61.2L30.4078 63.1612C31.4215 63.3639 32.2764 62.9714 32.8488 62.5484L31.66 60.94ZM30.8 61.2L31.2851 59.2597C31.4925 59.3116 31.6509 59.41 31.7532 59.5003C31.8468 59.5829 31.876 59.6423 31.865 59.6228L30.12 60.6L28.375 61.5772C28.7231 62.1988 29.3316 62.8945 30.3149 63.1403L30.8 61.2ZM30.12 60.6L31.9089 59.7056L31.8689 59.6256L30.08 60.52L28.2911 61.4144L28.3311 61.4944L30.12 60.6ZM30.08 60.52L31.8076 59.5123C31.7964 59.493 31.9259 59.7162 31.8446 60.0713C31.7678 60.4066 31.5793 60.5201 31.6545 60.4641L30.46 58.86L29.2655 57.2559C28.7141 57.6665 28.1488 58.2901 27.9454 59.1787C27.7375 60.0872 27.9903 60.907 28.3524 61.5277L30.08 60.52ZM30.46 58.86L31.792 60.3519C32.3341 59.8679 32.7995 59.285 33.0983 58.5878L31.26 57.8L29.4217 57.0122C29.4005 57.0616 29.3326 57.1854 29.128 57.3681L30.46 58.86ZM31.26 57.8L33.074 58.6422C33.3782 57.9871 33.52 57.2905 33.52 56.58H31.52H29.52C29.52 56.7495 29.4885 56.8662 29.446 56.9578L31.26 57.8ZM31.52 56.58H33.52V56.32H31.52H29.52V56.58H31.52ZM31.52 56.32H33.52C33.52 56.1311 33.5447 56.0453 33.55 56.0296C33.552 56.0235 33.5488 56.0349 33.5353 56.0571C33.5215 56.08 33.5011 56.1073 33.4742 56.1342L32.06 54.72L30.6458 53.3058C29.7848 54.1668 29.52 55.2925 29.52 56.32H31.52ZM32.06 54.72L33.4997 56.1083C33.4728 56.1362 33.4447 56.1579 33.4204 56.1731C33.3966 56.1879 33.3837 56.1919 33.3884 56.1902C33.4017 56.1857 33.4871 56.16 33.68 56.16V54.16V52.16C32.6328 52.16 31.4846 52.4354 30.6203 53.3317L32.06 54.72ZM33.68 54.16V56.16H39.14V54.16V52.16H33.68V54.16ZM39.72 61.82V63.82C40.098 63.82 40.1731 63.8999 40.1245 63.8664L41.26 62.22L42.3955 60.5736C41.5736 60.0068 40.622 59.82 39.72 59.82V61.82ZM41.26 62.22L40.1639 63.8929C40.1027 63.8528 40.0297 63.7823 39.9767 63.689C39.9274 63.6025 39.9272 63.5526 39.9304 63.5841L41.92 63.38L43.9096 63.1759C43.8038 62.1452 43.3165 61.1763 42.3561 60.5471L41.26 62.22ZM41.92 63.38L39.931 63.5894C39.929 63.5707 39.9373 63.6156 39.906 63.745C39.8745 63.8752 39.8093 64.0646 39.6844 64.3191L41.48 65.2L43.2756 66.0809C43.7047 65.206 44.0177 64.2034 43.909 63.1706L41.92 63.38ZM41.48 65.2L39.7577 64.1832C39.2148 65.103 38.5155 65.9519 37.6464 66.7295L38.98 68.22L40.3136 69.7105C41.4711 68.6748 42.4386 67.5104 43.2023 66.2168L41.48 65.2ZM38.98 68.22L37.6476 66.7285C36.7844 67.4996 35.7887 68.1778 34.6508 68.7586L35.56 70.54L36.4692 72.3214C37.8913 71.5956 39.1756 70.7271 40.3124 69.7115L38.98 68.22ZM35.56 70.54L34.6361 68.7662C33.4893 69.3635 32.2345 69.8538 30.8665 70.2325L31.4 72.16L31.9335 74.0875C33.5521 73.6395 35.0708 73.0498 36.4839 72.3138L35.56 70.54ZM31.4 72.16L30.9149 70.2197C30.8918 70.2255 30.9484 70.2075 31.0633 70.2175C31.1884 70.2284 31.3548 70.2707 31.5229 70.3734L30.48 72.08L29.4371 73.7866C30.2824 74.3032 31.1882 74.2745 31.8851 74.1003L31.4 72.16ZM30.48 72.08L31.494 70.3561C31.9073 70.5992 31.9638 70.9291 31.9403 70.8349L30 71.32L28.0597 71.8051C28.2228 72.4576 28.5993 73.2941 29.466 73.8039L30.48 72.08ZM30 71.32H32V71.24H30H28V71.32H30ZM30 71.24L31.9464 70.7799C31.9328 70.7227 32.0124 71.0066 31.795 71.369C31.5796 71.7279 31.2979 71.7882 31.3662 71.7695L30.84 69.84L30.3138 67.9105C29.6488 68.0918 28.8604 68.4854 28.365 69.311C27.8676 70.1401 27.8938 71.024 28.0536 71.7001L30 71.24ZM30.84 69.84L31.387 71.7638C32.8454 71.3491 34.1782 70.847 35.3744 70.2489L34.48 68.46L33.5856 66.6711C32.6485 67.1397 31.5546 67.5576 30.293 67.9162L30.84 69.84ZM34.48 68.46L35.3656 70.2533C36.5805 69.6533 37.6658 68.9459 38.6024 68.1204L37.28 66.62L35.9576 65.1196C35.3209 65.6807 34.5395 66.2001 33.5944 66.6667L34.48 68.46ZM37.28 66.62L38.6041 68.1189C39.5547 67.2792 40.3553 66.3204 40.9972 65.2452L39.28 64.22L37.5628 63.1948C37.138 63.9063 36.6053 64.5475 35.9559 65.1211L37.28 66.62ZM39.28 64.22V62.22H31.64V64.22V66.22H39.28V64.22ZM31.64 64.22V62.22C31.5616 62.22 31.8702 62.2018 32.1842 62.5158C32.4982 62.8298 32.48 63.1384 32.48 63.06H30.48H28.48C28.48 63.755 28.6551 64.6435 29.3558 65.3442C30.0565 66.0449 30.945 66.22 31.64 66.22V64.22ZM30.48 63.06H32.48V62.98H30.48H28.48V63.06H30.48ZM30.48 62.98H32.48C32.48 62.9016 32.4982 63.2102 32.1842 63.5242C31.8702 63.8382 31.5616 63.82 31.64 63.82V61.82V59.82C30.945 59.82 30.0565 59.9951 29.3558 60.6958C28.6551 61.3965 28.48 62.285 28.48 62.98H30.48ZM31.64 61.82V63.82H39.72V61.82V59.82H31.64V61.82ZM26.62 53.98L27.5008 55.7756C27.5718 55.7408 27.3149 55.8865 26.9104 55.75C26.5095 55.6147 26.3973 55.348 26.4379 55.4279L28.22 54.52L30.0021 53.6121C29.6827 52.9853 29.1238 52.2753 28.1896 51.96C27.2517 51.6435 26.3749 51.8725 25.7392 52.1844L26.62 53.98ZM28.22 54.52L26.4243 55.4006L27.4443 57.4806L29.24 56.6L31.0357 55.7194L30.0157 53.6394L28.22 54.52ZM29.24 56.6L27.4579 57.5079C27.5009 57.5923 27.3397 57.3267 27.4802 56.8998C27.622 56.469 27.9147 56.3474 27.8391 56.3844L28.72 58.18L29.6009 59.9756C30.232 59.666 30.9647 59.1077 31.2798 58.1502C31.5936 57.1967 31.3391 56.3144 31.0221 55.6921L29.24 56.6ZM28.72 58.18L27.8256 56.3911L27.7456 56.4311L28.64 58.22L29.5344 60.0089L29.6144 59.9689L28.72 58.18ZM28.64 58.22L27.7591 56.4244C27.6882 56.4592 27.9451 56.3135 28.3496 56.45C28.7505 56.5853 28.8627 56.852 28.8221 56.7721L27.04 57.68L25.2579 58.5878C25.5773 59.2147 26.1362 59.9247 27.0704 60.24C28.0083 60.5565 28.8851 60.3275 29.5209 60.0156L28.64 58.22ZM27.04 57.68L28.8357 56.7994L27.8157 54.7194L26.02 55.6L24.2243 56.4806L25.2443 58.5606L27.04 57.68ZM26.02 55.6L27.8021 54.6921C27.7591 54.6077 27.9203 54.8733 27.7798 55.3002C27.638 55.731 27.3453 55.8526 27.4208 55.8156L26.54 54.02L25.6592 52.2244C25.028 52.534 24.2953 53.0923 23.9802 54.0498C23.6664 55.0033 23.9209 55.8856 24.2379 56.5079L26.02 55.6ZM26.54 54.02L27.4344 55.8088L27.5144 55.7688L26.62 53.98L25.7256 52.1912L25.6456 52.2311L26.54 54.02ZM26.18 59.74V61.74C26.3721 61.74 26.4625 61.7654 26.4837 61.7727C26.4928 61.7758 26.4854 61.7742 26.4676 61.7634C26.4493 61.7523 26.4273 61.7357 26.4058 61.7142L27.82 60.3L29.2342 58.8858C28.366 58.0175 27.2327 57.74 26.18 57.74V59.74ZM27.82 60.3L26.4308 61.7388C26.4085 61.7172 26.3908 61.6945 26.3784 61.6748C26.3665 61.6557 26.3642 61.6468 26.3669 61.6547C26.3736 61.6737 26.4 61.7639 26.4 61.96H28.4H30.4C30.4 60.8878 30.1118 59.7327 29.2092 58.8612L27.82 60.3ZM28.4 61.96H26.4V69.48H28.4H30.4V61.96H28.4ZM28.4 69.48V71.48C28.4448 71.48 28.1177 71.4867 27.805 71.1575C27.5105 70.8475 27.54 70.5634 27.54 70.68H29.54H31.54C31.54 69.9966 31.3795 69.1125 30.705 68.4025C30.0123 67.6733 29.1152 67.48 28.4 67.48V69.48ZM29.54 70.68H27.54V70.76H29.54H31.54V70.68H29.54ZM29.54 70.76H27.54C27.54 70.8517 27.5184 70.5531 27.8258 70.2458C28.1331 69.9384 28.4317 69.96 28.34 69.96V71.96V73.96C29.0483 73.96 29.9469 73.7816 30.6542 73.0742C31.3616 72.3669 31.54 71.4683 31.54 70.76H29.54ZM28.34 71.96V69.96H28.18V71.96V73.96H28.34V71.96ZM28.18 71.96V69.96C27.9887 69.96 27.8934 69.9348 27.8643 69.9249C27.8437 69.918 27.8715 69.9248 27.9092 69.9612L26.52 71.4L25.1308 72.8388C26.0027 73.6806 27.1223 73.96 28.18 73.96V71.96ZM26.52 71.4L27.9342 69.9858C27.9579 70.0095 27.9754 70.033 27.9867 70.0518C27.9977 70.07 27.9988 70.0768 27.9951 70.0657C27.9864 70.04 27.96 69.9424 27.96 69.74H25.96H23.96C23.96 70.7938 24.2312 71.9396 25.1058 72.8142L26.52 71.4ZM25.96 69.74H27.96V62.22H25.96H23.96V69.74H25.96ZM25.96 62.22V60.22H25.78V62.22V64.22H25.96V62.22ZM25.78 62.22V60.22C25.6883 60.22 25.9869 60.1984 26.2942 60.5058C26.6016 60.8131 26.58 61.1117 26.58 61.02H24.58H22.58C22.58 61.7283 22.7584 62.6269 23.4658 63.3342C24.1731 64.0416 25.0717 64.22 25.78 64.22V62.22ZM24.58 61.02H26.58V60.94H24.58H22.58V61.02H24.58ZM24.58 60.94H26.58C26.58 60.8483 26.6016 61.1469 26.2942 61.4542C25.9869 61.7616 25.6883 61.74 25.78 61.74V59.74V57.74C25.0717 57.74 24.1731 57.9184 23.4658 58.6258C22.7584 59.3331 22.58 60.2317 22.58 60.94H24.58ZM25.78 59.74V61.74H26.18V59.74V57.74H25.78V59.74ZM62.04 55.54H64.04V53.54H62.04V55.54ZM49.96 55.54V53.54H47.96V55.54H49.96ZM49.96 56.54H47.96V58.54H49.96V56.54ZM62.04 56.54V58.54H64.04V56.54H62.04ZM63.02 61.78L61.6058 63.1942L61.6208 63.2093L61.6362 63.224L63.02 61.78ZM61.1 62.98H63.1V60.98H61.1V62.98ZM50.9 62.98V60.98H48.9V62.98H50.9ZM48.96 61.78L47.5458 60.3658L47.5307 60.3808L47.516 60.3962L48.96 61.78ZM47.64 55.68H49.64C49.64 55.5374 49.6585 55.494 49.6511 55.5162C49.6405 55.5481 49.6019 55.6366 49.5092 55.7292C49.4166 55.8219 49.3281 55.8605 49.2962 55.8711C49.274 55.8785 49.3174 55.86 49.46 55.86V53.86V51.86C48.545 51.86 47.4915 52.0901 46.6808 52.9008C45.8701 53.7115 45.64 54.765 45.64 55.68H47.64ZM49.46 53.86V55.86H62.54V53.86V51.86H49.46V53.86ZM62.54 53.86V55.86C62.6826 55.86 62.726 55.8785 62.7038 55.8711C62.6719 55.8605 62.5834 55.8219 62.4908 55.7292C62.3981 55.6366 62.3595 55.5481 62.3489 55.5162C62.3415 55.494 62.36 55.5374 62.36 55.68H64.36H66.36C66.36 54.765 66.1299 53.7115 65.3192 52.9008C64.5085 52.0901 63.455 51.86 62.54 51.86V53.86ZM64.36 55.68H62.36V56.4H64.36H66.36V55.68H64.36ZM64.36 56.4H62.36C62.36 56.5426 62.3415 56.586 62.3489 56.5638C62.3595 56.5319 62.3981 56.4434 62.4908 56.3508C62.5834 56.2581 62.6719 56.2195 62.7038 56.2089C62.726 56.2015 62.6826 56.22 62.54 56.22V58.22V60.22C63.455 60.22 64.5085 59.9899 65.3192 59.1792C66.1299 58.3685 66.36 57.315 66.36 56.4H64.36ZM62.54 58.22V56.22H49.46V58.22V60.22H62.54V58.22ZM49.46 58.22V56.22C49.3174 56.22 49.274 56.2015 49.2962 56.2089C49.3281 56.2195 49.4166 56.2581 49.5092 56.3508C49.6019 56.4434 49.6405 56.5319 49.6511 56.5638C49.6585 56.586 49.64 56.5426 49.64 56.4H47.64H45.64C45.64 57.315 45.8701 58.3685 46.6808 59.1792C47.4915 59.9899 48.545 60.22 49.46 60.22V58.22ZM47.64 56.4H49.64V55.68H47.64H45.64V56.4H47.64ZM62.04 55.54V53.54H49.96V55.54V57.54H62.04V55.54ZM49.96 55.54H47.96V56.54H49.96H51.96V55.54H49.96ZM49.96 56.54V58.54H62.04V56.54V54.54H49.96V56.54ZM62.04 56.54H64.04V55.54H62.04H60.04V56.54H62.04ZM64.22 70.14V72.14C64.2193 72.14 64.1373 72.1406 64.0075 72.0974C63.8681 72.0509 63.6901 71.9585 63.5258 71.7942C63.3615 71.6299 63.2691 71.4519 63.2226 71.3125C63.1794 71.1827 63.18 71.1007 63.18 71.1H65.18H67.18C67.18 70.4717 67.0216 69.6331 66.3542 68.9658C65.6869 68.2984 64.8483 68.14 64.22 68.14V70.14ZM65.18 71.1H63.18V71.18H65.18H67.18V71.1H65.18ZM65.18 71.18H63.18C63.18 71.1793 63.1794 71.0973 63.2226 70.9675C63.2691 70.8281 63.3615 70.6501 63.5258 70.4858C63.6901 70.3215 63.8681 70.2291 64.0075 70.1826C64.1373 70.1394 64.2193 70.14 64.22 70.14V72.14V74.14C64.8483 74.14 65.6869 73.9816 66.3542 73.3142C67.0216 72.6469 67.18 71.8083 67.18 71.18H65.18ZM64.22 72.14V70.14H47.78V72.14V74.14H64.22V72.14ZM47.78 72.14V70.14C47.7807 70.14 47.8627 70.1394 47.9925 70.1826C48.1319 70.2291 48.3099 70.3215 48.4742 70.4858C48.6385 70.6501 48.7309 70.8281 48.7774 70.9675C48.8206 71.0973 48.82 71.1793 48.82 71.18H46.82H44.82C44.82 71.8083 44.9784 72.6469 45.6458 73.3142C46.3131 73.9816 47.1517 74.14 47.78 74.14V72.14ZM46.82 71.18H48.82V71.1H46.82H44.82V71.18H46.82ZM46.82 71.1H48.82C48.82 71.1007 48.8206 71.1827 48.7774 71.3125C48.7309 71.4519 48.6385 71.6299 48.4742 71.7942C48.3099 71.9585 48.1319 72.0509 47.9925 72.0974C47.8627 72.1406 47.7807 72.14 47.78 72.14V70.14V68.14C47.1517 68.14 46.3131 68.2984 45.6458 68.9658C44.9784 69.6331 44.82 70.4717 44.82 71.1H46.82ZM47.78 70.14V72.14H64.22V70.14V68.14H47.78V70.14ZM61.52 67.94V69.94C61.465 69.94 61.0565 69.9249 60.6758 69.5442C60.2951 69.1635 60.28 68.755 60.28 68.7H62.28H64.28C64.28 68.1384 64.1382 67.3498 63.5042 66.7158C62.8702 66.0818 62.0816 65.94 61.52 65.94V67.94ZM62.28 68.7H60.28V68.78H62.28H64.28V68.7H62.28ZM62.28 68.78H60.28C60.28 68.725 60.2951 68.3165 60.6758 67.9358C61.0565 67.5551 61.465 67.54 61.52 67.54V69.54V71.54C62.0816 71.54 62.8702 71.3982 63.5042 70.7642C64.1382 70.1302 64.28 69.3416 64.28 68.78H62.28ZM61.52 69.54V67.54H50.48V69.54V71.54H61.52V69.54ZM50.48 69.54V67.54C50.535 67.54 50.9435 67.5551 51.3242 67.9358C51.7049 68.3165 51.72 68.725 51.72 68.78H49.72H47.72C47.72 69.3416 47.8618 70.1302 48.4958 70.7642C49.1298 71.3982 49.9184 71.54 50.48 71.54V69.54ZM49.72 68.78H51.72V68.7H49.72H47.72V68.78H49.72ZM49.72 68.7H51.72C51.72 68.755 51.7049 69.1635 51.3242 69.5442C50.9435 69.9249 50.535 69.94 50.48 69.94V67.94V65.94C49.9184 65.94 49.1298 66.0818 48.4958 66.7158C47.8618 67.3498 47.72 68.1384 47.72 68.7H49.72ZM50.48 67.94V69.94H61.52V67.94V65.94H50.48V67.94ZM61.52 65.76V67.76C61.465 67.76 61.0565 67.7449 60.6758 67.3642C60.2951 66.9835 60.28 66.575 60.28 66.52H62.28H64.28C64.28 65.9584 64.1382 65.1698 63.5042 64.5358C62.8702 63.9018 62.0816 63.76 61.52 63.76V65.76ZM62.28 66.52H60.28V66.6H62.28H64.28V66.52H62.28ZM62.28 66.6H60.28C60.28 66.545 60.2951 66.1365 60.6758 65.7558C61.0565 65.3751 61.465 65.36 61.52 65.36V67.36V69.36C62.0816 69.36 62.8702 69.2182 63.5042 68.5842C64.1382 67.9502 64.28 67.1616 64.28 66.6H62.28ZM61.52 67.36V65.36H50.48V67.36V69.36H61.52V67.36ZM50.48 67.36V65.36C50.535 65.36 50.9435 65.3751 51.3242 65.7558C51.7049 66.1365 51.72 66.545 51.72 66.6H49.72H47.72C47.72 67.1616 47.8618 67.9502 48.4958 68.5842C49.1298 69.2182 49.9184 69.36 50.48 69.36V67.36ZM49.72 66.6H51.72V66.52H49.72H47.72V66.6H49.72ZM49.72 66.52H51.72C51.72 66.575 51.7049 66.9835 51.3242 67.3642C50.9435 67.7449 50.535 67.76 50.48 67.76V65.76V63.76C49.9184 63.76 49.1298 63.9018 48.4958 64.5358C47.8618 65.1698 47.72 65.9584 47.72 66.52H49.72ZM50.48 65.76V67.76H61.52V65.76V63.76H50.48V65.76ZM61.64 61.3V63.3C61.7663 63.3 61.8017 63.3173 61.778 63.309C61.7649 63.3044 61.7389 63.2938 61.7056 63.2733C61.6718 63.2525 61.6374 63.2258 61.6058 63.1942L63.02 61.78L64.4342 60.3658C63.6292 59.5608 62.5915 59.3 61.64 59.3V61.3ZM63.02 61.78L61.6362 63.224C61.5946 63.1841 61.5606 63.1413 61.5348 63.1001C61.5094 63.0595 61.4965 63.0279 61.491 63.012C61.4813 62.9841 61.5 63.0216 61.5 63.16H63.5H65.5C65.5 62.2162 65.2494 61.1464 64.4038 60.336L63.02 61.78ZM63.5 63.16H61.5V69.98H63.5H65.5V63.16H63.5ZM63.5 69.98H61.5C61.5 70.0584 61.4818 69.7498 61.7958 69.4358C62.1098 69.1218 62.4184 69.14 62.34 69.14V71.14V73.14C63.035 73.14 63.9235 72.9649 64.6242 72.2642C65.3249 71.5635 65.5 70.675 65.5 69.98H63.5ZM62.34 71.14V69.14H62.26V71.14V73.14H62.34V71.14ZM62.26 71.14V69.14C62.1816 69.14 62.4902 69.1218 62.8042 69.4358C63.1182 69.7498 63.1 70.0584 63.1 69.98H61.1H59.1C59.1 70.675 59.2751 71.5635 59.9758 72.2642C60.6765 72.9649 61.565 73.14 62.26 73.14V71.14ZM61.1 69.98H63.1V62.98H61.1H59.1V69.98H61.1ZM61.1 62.98V60.98H50.9V62.98V64.98H61.1V62.98ZM50.9 62.98H48.9V69.98H50.9H52.9V62.98H50.9ZM50.9 69.98H48.9C48.9 70.0584 48.8818 69.7498 49.1958 69.4358C49.5098 69.1218 49.8184 69.14 49.74 69.14V71.14V73.14C50.435 73.14 51.3235 72.9649 52.0242 72.2642C52.7249 71.5635 52.9 70.675 52.9 69.98H50.9ZM49.74 71.14V69.14H49.66V71.14V73.14H49.74V71.14ZM49.66 71.14V69.14C49.5816 69.14 49.8902 69.1218 50.2042 69.4358C50.5182 69.7498 50.5 70.0584 50.5 69.98H48.5H46.5C46.5 70.675 46.6751 71.5635 47.3758 72.2642C48.0765 72.9649 48.965 73.14 49.66 73.14V71.14ZM48.5 69.98H50.5V63.16H48.5H46.5V69.98H48.5ZM48.5 63.16H50.5C50.5 63.026 50.5176 62.9817 50.5124 62.9975C50.5093 63.0067 50.5004 63.0302 50.4815 63.0622C50.4623 63.0948 50.4364 63.13 50.404 63.1638L48.96 61.78L47.516 60.3962C46.7417 61.2042 46.5 62.2305 46.5 63.16H48.5ZM48.96 61.78L50.3742 63.1942C50.3401 63.2284 50.3038 63.2562 50.2692 63.2773C50.2352 63.298 50.2097 63.3081 50.1986 63.3119C50.1795 63.3185 50.2225 63.3 50.36 63.3V61.3V59.3C49.4098 59.3 48.3585 59.553 47.5458 60.3658L48.96 61.78ZM50.36 61.3V63.3H61.64V61.3V59.3H50.36V61.3ZM61.52 63.56V65.56C61.465 65.56 61.0565 65.5449 60.6758 65.1642C60.2951 64.7835 60.28 64.375 60.28 64.32H62.28H64.28C64.28 63.7584 64.1382 62.9698 63.5042 62.3358C62.8702 61.7018 62.0816 61.56 61.52 61.56V63.56ZM62.28 64.32H60.28V64.4H62.28H64.28V64.32H62.28ZM62.28 64.4H60.28C60.28 64.345 60.2951 63.9365 60.6758 63.5558C61.0565 63.1751 61.465 63.16 61.52 63.16V65.16V67.16C62.0816 67.16 62.8702 67.0182 63.5042 66.3842C64.1382 65.7502 64.28 64.9616 64.28 64.4H62.28ZM61.52 65.16V63.16H50.48V65.16V67.16H61.52V65.16ZM50.48 65.16V63.16C50.535 63.16 50.9435 63.1751 51.3242 63.5558C51.7049 63.9365 51.72 64.345 51.72 64.4H49.72H47.72C47.72 64.9616 47.8618 65.7502 48.4958 66.3842C49.1298 67.0182 49.9184 67.16 50.48 67.16V65.16ZM49.72 64.4H51.72V64.32H49.72H47.72V64.4H49.72ZM49.72 64.32H51.72C51.72 64.375 51.7049 64.7835 51.3242 65.1642C50.9435 65.5449 50.535 65.56 50.48 65.56V63.56V61.56C49.9184 61.56 49.1298 61.7018 48.4958 62.3358C47.8618 62.9698 47.72 63.7584 47.72 64.32H49.72ZM50.48 63.56V65.56H61.52V63.56V61.56H50.48V63.56ZM63.9 58.84V60.84C63.885 60.84 63.5065 60.8349 63.1458 60.4742C62.7851 60.1135 62.78 59.735 62.78 59.72H64.78H66.78C66.78 59.1184 66.6282 58.2998 65.9742 57.6458C65.3202 56.9918 64.5016 56.84 63.9 56.84V58.84ZM64.78 59.72H62.78V59.8H64.78H66.78V59.72H64.78ZM64.78 59.8H62.78C62.78 59.785 62.7851 59.4065 63.1458 59.0458C63.5065 58.6851 63.885 58.68 63.9 58.68V60.68V62.68C64.5016 62.68 65.3202 62.5282 65.9742 61.8742C66.6282 61.2202 66.78 60.4016 66.78 59.8H64.78ZM63.9 60.68V58.68H48.1V60.68V62.68H63.9V60.68ZM48.1 60.68V58.68C48.115 58.68 48.4935 58.6851 48.8542 59.0458C49.2149 59.4065 49.22 59.785 49.22 59.8H47.22H45.22C45.22 60.4016 45.3718 61.2202 46.0258 61.8742C46.6798 62.5282 47.4984 62.68 48.1 62.68V60.68ZM47.22 59.8H49.22V59.72H47.22H45.22V59.8H47.22ZM47.22 59.72H49.22C49.22 59.735 49.2149 60.1135 48.8542 60.4742C48.4935 60.8349 48.115 60.84 48.1 60.84V58.84V56.84C47.4984 56.84 46.6798 56.9918 46.0258 57.6458C45.3718 58.2998 45.22 59.1184 45.22 59.72H47.22ZM48.1 58.84V60.84H63.9V58.84V56.84H48.1V58.84ZM56.04 57.3V59.3C56.1184 59.3 55.8098 59.3182 55.4958 59.0042C55.1818 58.6902 55.2 58.3816 55.2 58.46H57.2H59.2C59.2 57.765 59.0249 56.8765 58.3242 56.1758C57.6235 55.4751 56.735 55.3 56.04 55.3V57.3ZM57.2 58.46H55.2V60.98H57.2H59.2V58.46H57.2ZM57.2 60.98H55.2C55.2 61.0584 55.1818 60.7498 55.4958 60.4358C55.8098 60.1218 56.1184 60.14 56.04 60.14V62.14V64.14C56.735 64.14 57.6235 63.9649 58.3242 63.2642C59.0249 62.5635 59.2 61.675 59.2 60.98H57.2ZM56.04 62.14V60.14H55.96V62.14V64.14H56.04V62.14ZM55.96 62.14V60.14C55.8816 60.14 56.1902 60.1218 56.5042 60.4358C56.8182 60.7498 56.8 61.0584 56.8 60.98H54.8H52.8C52.8 61.675 52.9751 62.5635 53.6758 63.2642C54.3765 63.9649 55.265 64.14 55.96 64.14V62.14ZM54.8 60.98H56.8V58.46H54.8H52.8V60.98H54.8ZM54.8 58.46H56.8C56.8 58.3816 56.8182 58.6902 56.5042 59.0042C56.1902 59.3182 55.8816 59.3 55.96 59.3V57.3V55.3C55.265 55.3 54.3765 55.4751 53.6758 56.1758C52.9751 56.8765 52.8 57.765 52.8 58.46H54.8ZM55.96 57.3V59.3H56.04V57.3V55.3H55.96V57.3ZM53.62 54.7V56.7C53.685 56.7 53.3665 56.7149 53.0458 56.3942C52.7251 56.0735 52.74 55.755 52.74 55.82H54.74H56.74C56.74 55.1384 56.5682 54.2598 55.8742 53.5658C55.1802 52.8718 54.3016 52.7 53.62 52.7V54.7ZM54.74 55.82H52.74V56.26H54.74H56.74V55.82H54.74ZM54.74 56.26H52.74C52.74 56.325 52.7251 56.0065 53.0458 55.6858C53.3665 55.3651 53.685 55.38 53.62 55.38V57.38V59.38C54.3016 59.38 55.1802 59.2082 55.8742 58.5142C56.5682 57.8202 56.74 56.9416 56.74 56.26H54.74ZM53.62 57.38V55.38H53.54V57.38V59.38H53.62V57.38ZM53.54 57.38V55.38C53.475 55.38 53.7935 55.3651 54.1142 55.6858C54.4349 56.0065 54.42 56.325 54.42 56.26H52.42H50.42C50.42 56.9416 50.5918 57.8202 51.2858 58.5142C51.9798 59.2082 52.8584 59.38 53.54 59.38V57.38ZM52.42 56.26H54.42V55.82H52.42H50.42V56.26H52.42ZM52.42 55.82H54.42C54.42 55.755 54.4349 56.0735 54.1142 56.3942C53.7935 56.7149 53.475 56.7 53.54 56.7V54.7V52.7C52.8584 52.7 51.9798 52.8718 51.2858 53.5658C50.5918 54.2598 50.42 55.1384 50.42 55.82H52.42ZM53.54 54.7V56.7H53.62V54.7V52.7H53.54V54.7ZM58.46 54.7V56.7C58.525 56.7 58.2065 56.7149 57.8858 56.3942C57.5651 56.0735 57.58 55.755 57.58 55.82H59.58H61.58C61.58 55.1384 61.4082 54.2598 60.7142 53.5658C60.0202 52.8718 59.1416 52.7 58.46 52.7V54.7ZM59.58 55.82H57.58V56.26H59.58H61.58V55.82H59.58ZM59.58 56.26H57.58C57.58 56.325 57.5651 56.0065 57.8858 55.6858C58.2065 55.3651 58.525 55.38 58.46 55.38V57.38V59.38C59.1416 59.38 60.0202 59.2082 60.7142 58.5142C61.4082 57.8202 61.58 56.9416 61.58 56.26H59.58ZM58.46 57.38V55.38H58.38V57.38V59.38H58.46V57.38ZM58.38 57.38V55.38C58.315 55.38 58.6335 55.3651 58.9542 55.6858C59.2749 56.0065 59.26 56.325 59.26 56.26H57.26H55.26C55.26 56.9416 55.4318 57.8202 56.1258 58.5142C56.8198 59.2082 57.6984 59.38 58.38 59.38V57.38ZM57.26 56.26H59.26V55.82H57.26H55.26V56.26H57.26ZM57.26 55.82H59.26C59.26 55.755 59.2749 56.0735 58.9542 56.3942C58.6335 56.7149 58.315 56.7 58.38 56.7V54.7V52.7C57.6984 52.7 56.8198 52.8718 56.1258 53.5658C55.4318 54.2598 55.26 55.1384 55.26 55.82H57.26ZM58.38 54.7V56.7H58.46V54.7V52.7H58.38V54.7Z" fill="#4E433C" mask="url(#path-4-outside-1_424_3845)"/>
</svg>
