<svg width="90" height="90" viewBox="0 0 90 90" fill="none" xmlns="http://www.w3.org/2000/svg">
<path d="M36.8316 11.7621C36.8267 10.7644 36.8378 9.89651 37.5963 9.12079C39.0226 7.6618 42.0857 7.52208 44.0024 7.50087C46.3928 7.47456 49.4076 8.04035 51.1637 9.77936C51.9056 10.514 52.2654 11.2242 52.4055 12.2486L52.7259 12.5363C54.1253 8.55319 60.8849 10.427 63.7804 11.3526C66.4407 12.2028 68.9322 14.6268 67.7797 17.6179C67.7377 17.7276 67.6923 17.8359 67.6435 17.9427C68.1008 18.2733 68.3092 18.428 68.8141 18.6681C69.863 18.8324 70.3675 18.9993 71.2461 19.6797C74.955 22.5521 78.6397 35.7303 73.3844 38.3424C72.9223 39.4041 72.4638 40.6881 71.6573 41.495C72.328 46.9538 63.7568 49.7927 59.5616 50.4021C58.1432 50.608 56.3922 50.3221 55.1085 49.6759C54.2141 50.0823 53.0858 50.0178 52.0963 50.0303C50.5069 51.8351 47.0729 51.865 44.8498 51.7992C42.7799 51.7377 39.4915 51.4412 38.7312 49.1312C38.5942 49.0986 38.3892 48.9983 38.252 48.9376C38.2207 49.0262 38.1882 49.1145 38.1549 49.2026C36.6631 53.1297 32.1207 52.1443 29.0501 50.9053C25.4721 49.4616 20.7387 46.8761 20.7735 42.427C20.7798 41.6193 21.0718 40.9648 21.369 40.2282C20.8492 40.6137 20.0367 41.2945 19.4035 41.3525C16.2428 41.6425 15.6188 35.7537 15.1156 33.6003C14.328 30.2287 14.6804 22.9174 19.2296 22.4068L19.2192 20.997C19.9133 19.6649 20.4763 19.3595 21.8265 18.7446C22.3161 19.5413 22.6419 20.9966 23.7174 21.3279C24.6884 21.2276 25.9724 19.1994 26.4713 19.0676C30.3789 18.0347 30.0267 17.5426 30.9662 13.5168C31.2607 13.4548 31.538 13.3446 31.819 13.2392C33.4579 12.6253 35.1395 12.2052 36.8316 11.7621Z" fill="#54B6C7"/>
<path d="M21.369 40.2277C20.8492 40.6131 20.0367 41.2939 19.4035 41.352C16.2428 41.642 15.6188 35.7531 15.1156 33.5998C14.328 30.2281 14.6804 22.9168 19.2296 22.4062C19.9351 22.7189 20.9704 23.2902 21.1852 24.0572C21.763 26.1213 21.1365 28.5941 21.336 30.8159C21.6173 33.9515 24.1154 35.0045 22.7282 37.9889C22.5225 38.4235 22.3107 38.855 22.0927 39.2836C25.7571 37.0417 26.1729 40.0395 28.8224 41.789C31.8904 43.8147 39.164 43.3546 38.252 48.9371C38.2207 49.0257 38.1882 49.114 38.1549 49.202C36.6631 53.1291 32.1207 52.1437 29.0501 50.9047C25.4721 49.461 20.7387 46.8755 20.7735 42.4264C20.7798 41.6187 21.0718 40.9643 21.369 40.2277Z" fill="#F1EEE3"/>
<path d="M53.5205 46.8971C54.6795 43.0333 56.707 44.3943 59.5535 42.7367C61.2616 41.7422 62.5025 40.0007 64.3394 38.9917C67.5872 37.2079 70.0285 38.4666 71.657 41.4955C72.3277 46.9543 63.7565 49.7932 59.5612 50.4026C58.1429 50.6085 56.3919 50.3226 55.1081 49.6764C53.9931 48.6121 53.9239 48.3591 53.5205 46.8971Z" fill="#F1EEE3"/>
<path d="M68.8141 18.668C69.863 18.8323 70.3676 18.9992 71.2461 19.6796C74.955 22.552 78.6397 35.7302 73.3844 38.3423C72.564 38.5251 71.8248 38.5386 71.0246 38.2401C70.1837 37.9221 69.5093 37.2743 69.158 36.447C68.4887 34.8834 69.211 32.0251 69.1607 30.2803C69.1478 29.1528 68.9317 28.0444 68.6103 26.9651C67.8431 24.3882 65.0791 20.1961 68.8141 18.668Z" fill="#F1EEE3"/>
<path d="M36.8316 11.7621C36.8267 10.7644 36.8378 9.89651 37.5963 9.12079C39.0226 7.6618 42.0857 7.52208 44.0024 7.50087C46.3928 7.47456 49.4076 8.04035 51.1637 9.77936C51.9056 10.514 52.2654 11.2242 52.4055 12.2486C51.6046 13.8783 50.7547 14.4206 48.9388 14.437C46.1928 14.4299 43.3898 14.5779 40.6522 14.361C38.6747 14.2043 37.4821 13.7517 36.8316 11.7621Z" fill="#F1EEE3"/>
<path d="M52.7266 12.5352C54.126 8.55207 60.8856 10.4259 63.781 11.3514C66.4413 12.2017 68.9328 14.6256 67.7803 17.6168C67.7383 17.7265 67.6929 17.8348 67.6441 17.9416C67.1505 18.4679 66.7688 18.7957 66.0445 18.9635L65.9669 18.9811C64.7454 19.2678 61.9998 17.4129 60.744 16.9648C59.0823 16.3719 57.3789 15.8894 55.7305 15.2625C54.0131 14.6094 53.4535 14.2599 52.7266 12.5352Z" fill="#F1EEE3"/>
<path d="M38.7316 49.1296C38.6765 48.3625 38.5182 47.2656 39.1308 46.6748C40.5066 45.3478 43.0013 45.1096 44.8057 45.0361C48.3356 44.8925 53.9379 44.6778 52.0967 50.0287C50.5073 51.8335 47.0733 51.8634 44.8502 51.7975C42.7803 51.7361 39.4919 51.4396 38.7316 49.1296Z" fill="#F1EEE3"/>
<path d="M41.2167 16.9782C44.4819 16.8687 50.8081 16.7281 53.7004 17.9974C54.6022 18.3932 56.6852 20.1034 57.752 20.6981C59.2124 21.5125 61.0201 22.0378 62.2988 22.9786C64.0326 24.2542 65.2739 26.8493 65.5284 28.9657C65.9262 32.2733 65.4996 35.2524 63.4726 37.9386C58.8308 44.0896 52.6399 41.3734 46.713 42.2011C44.2201 42.5942 42.6626 43.8545 40.5126 43.978C37.6589 44.142 31.5515 42.4494 29.3542 40.5927C26.4471 38.3492 28.0166 35.1552 27.0068 32.4234C26.0303 30.2732 23.4381 28.7582 24.1069 26.0546C24.7852 23.3132 27.4779 22.849 29.578 21.6299C30.4915 21.0996 31.6425 20.0214 32.4634 19.2484C34.8583 16.9933 38.0634 17.0838 41.2167 16.9782Z" fill="#8CD1DA"/>
<path d="M48.0919 25.1807C50.2093 22.0804 54.9395 24.6578 55.4841 27.4517C56.0698 27.8972 56.6386 28.3646 57.1889 28.8533C58.2948 27.6514 61.0682 24.901 62.4862 27.0905C63.6568 28.5874 62.6711 30.3227 62.4849 31.9004C62.3398 33.1294 63.4847 35.3739 61.3416 35.7297C59.7929 35.6119 58.8537 34.8525 57.8761 33.7172C57.7819 33.6098 57.6917 33.4988 57.6057 33.3848C56.4812 34.4922 54.8703 35.4389 54.2299 36.0855C54.7506 39.1823 51.8028 37.7201 50.2059 37.5602C50.1229 37.5813 49.9769 37.6168 49.8925 37.6251C46.4519 37.949 42.5301 37.5725 39.6848 35.4322C37.3467 33.6735 37.7483 30.5694 39.5169 28.5427C41.8813 25.8329 44.6986 25.4445 48.0919 25.1807Z" fill="#53443D"/>
<path d="M50.2062 37.5621C49.5653 37.1942 48.611 37.0889 48.731 36.182C49.3542 35.2312 51.5194 34.3008 52.6407 34.4741C53.2954 34.5754 53.8915 35.5646 54.2302 36.0873C54.7509 39.1842 51.8031 37.722 50.2062 37.5621Z" fill="#FDC955"/>
<path d="M62.4861 27.0898C63.6566 28.5867 62.6709 30.3221 62.4847 31.8997C62.3396 33.1287 63.4845 35.3733 61.3414 35.7291C61.4723 35.3929 61.7094 34.9185 61.8658 34.5784C61.703 32.7072 61.128 32.4411 60.4658 30.8287C61.36 29.2055 61.729 29.1196 62.4861 27.0898Z" fill="#FDC955"/>
<path d="M48.0918 25.1807C50.2092 22.0804 54.9393 24.6578 55.4839 27.4517C52.1968 25.9989 52.0291 25.476 48.0918 25.1807Z" fill="#FDC955"/>
<path d="M42.2347 29.4762C42.9524 29.2291 43.748 29.3942 44.3081 29.9063C44.8683 30.4185 45.1035 31.1956 44.9211 31.9323C44.7388 32.6689 44.1682 33.247 43.4338 33.439C42.7951 33.606 42.1149 33.4588 41.6024 33.0426C41.09 32.6264 40.8066 31.9911 40.8395 31.3319C40.8815 30.4865 41.434 29.7517 42.2347 29.4762Z" fill="#FDC955"/>
<path d="M42.798 30.5118C43.1359 30.4803 43.4637 30.6368 43.6516 30.9193C43.8394 31.2017 43.8568 31.5645 43.6969 31.8636C43.537 32.1627 43.2256 32.3499 42.8863 32.3507C42.3933 32.3521 41.9866 31.9656 41.963 31.4735C41.9394 30.9813 42.3072 30.5577 42.798 30.5118Z" fill="#53443D"/>
<path d="M35.0317 21.0987C35.8667 20.9164 36.6931 21.4399 36.8847 22.2725C37.0763 23.1053 36.5616 23.9369 35.7308 24.1375C35.1851 24.2693 34.6107 24.0978 34.2267 23.6885C33.8427 23.2792 33.7084 22.6953 33.875 22.1594C34.0415 21.6236 34.4832 21.2185 35.0317 21.0987Z" fill="#F1EEE3"/>
<path d="M33.5924 27.4098C33.9341 27.2195 34.3533 27.2353 34.6799 27.4505C35.0064 27.6658 35.186 28.0448 35.1457 28.4337C35.1053 28.8225 34.8519 29.1567 34.4881 29.3004C33.9744 29.5034 33.3912 29.2732 33.1548 28.7742C32.9184 28.2752 33.1097 27.6785 33.5924 27.4098Z" fill="#F1EEE3"/>
<path d="M24.0062 14.0365C23.4615 11.0145 22.0659 7.87447 21.5731 4.80383C21.3624 3.51755 21.2828 1.99176 22.0868 0.888863C22.7127 0.0301355 24.2932 -0.369062 25.1002 0.439992C27.7139 3.0604 27.5633 7.64221 27.9763 11.0429C28.3616 9.5004 29.959 2.83132 32.6894 5.40172C33.6368 6.29356 31.323 12.2266 30.9659 13.5161C30.0264 17.5418 30.3786 18.0339 26.471 19.0668C25.9721 19.1986 24.6881 21.2268 23.7172 21.3272C22.6416 20.9958 22.3158 19.5405 21.8263 18.7439C20.782 16.6651 18.9296 14.2824 16.9563 12.819C14.9888 11.36 11.5054 6.88782 16.7996 7.49308C19.7175 7.82673 22.4277 11.6397 24.0062 14.0365Z" fill="#4EA474"/>
<mask id="path-19-outside-1_424_3735" maskUnits="userSpaceOnUse" x="22" y="51" width="46" height="24" fill="black">
<rect fill="white" x="22" y="51" width="46" height="24"/>
<path d="M25.96 60.14C25.96 59.46 26.1333 58.9467 26.48 58.6C26.84 58.24 27.36 58.06 28.04 58.06H39.96C40.64 58.06 41.1533 58.24 41.5 58.6C41.86 58.9467 42.04 59.46 42.04 60.14V66.06C42.04 66.74 41.86 67.26 41.5 67.62C41.1533 67.9667 40.64 68.14 39.96 68.14H28.04C27.36 68.14 26.84 67.9667 26.48 67.62C26.1333 67.26 25.96 66.74 25.96 66.06V60.14ZM39.64 60.3H28.36V65.9H39.64V60.3ZM41.94 69.5C42.6733 69.5 43.04 69.8667 43.04 70.6V70.68C43.04 71.4133 42.6733 71.78 41.94 71.78H26.06C25.3267 71.78 24.96 71.4133 24.96 70.68V70.6C24.96 69.8667 25.3267 69.5 26.06 69.5H41.94ZM39.8 62.02C40.4933 62.02 40.84 62.3667 40.84 63.06V63.14C40.84 63.8333 40.4933 64.18 39.8 64.18H28.2C27.5067 64.18 27.16 63.8333 27.16 63.14V63.06C27.16 62.3667 27.5067 62.02 28.2 62.02H39.8ZM34.04 59.28C34.8133 59.28 35.2 59.6667 35.2 60.44V65.86C35.2 66.6333 34.8133 67.02 34.04 67.02H33.96C33.1867 67.02 32.8 66.6333 32.8 65.86V60.44C32.8 59.6667 33.1867 59.28 33.96 59.28H34.04ZM28.74 53.74C29.4867 53.74 29.86 54.0467 29.86 54.66H37.42C38.8333 54.66 39.6667 54.9333 39.92 55.48C40.1733 56.0267 39.84 56.84 38.92 57.92L37.9 59.12C37.4333 59.6667 36.92 59.7133 36.36 59.26L36.28 59.22C35.72 58.7667 35.6733 58.2667 36.14 57.72L36.92 56.82H29.56C28.8933 56.82 28.3867 56.6533 28.04 56.32C27.7067 55.9733 27.54 55.4667 27.54 54.8V54.66C27.54 54.0467 27.9133 53.74 28.66 53.74H28.74ZM55.14 68.28C55.14 67 55.78 66.36 57.06 66.36H62.66C63.94 66.36 64.58 67 64.58 68.28V70.1C64.58 71.38 63.94 72.02 62.66 72.02H57.06C55.78 72.02 55.14 71.38 55.14 70.1V68.28ZM62.34 68.36H57.38V70.02H62.34V68.36ZM50.98 66.76C51.7533 66.76 52.14 67.1467 52.14 67.92V68C52.14 68.7733 51.7533 69.16 50.98 69.16H47.94C47.1667 69.16 46.78 68.7733 46.78 68V67.92C46.78 67.1467 47.1667 66.76 47.94 66.76H50.98ZM49.5 53.88C50.26 53.88 50.64 54.26 50.64 55.02V66.82C50.64 67.58 50.26 67.96 49.5 67.96H49.42C48.66 67.96 48.28 67.58 48.28 66.82V55.02C48.28 54.26 48.66 53.88 49.42 53.88H49.5ZM50.84 58.18C51.6133 58.18 52 58.5667 52 59.34V59.42C52 60.1933 51.6133 60.58 50.84 60.58H48.1C47.3267 60.58 46.94 60.1933 46.94 59.42V59.34C46.94 58.5667 47.3267 58.18 48.1 58.18H50.84ZM63.84 54.66C64.52 54.66 64.86 55 64.86 55.68V55.76C64.86 56.44 64.52 56.78 63.84 56.78H54.88V62.9C54.88 64.3 54.7933 65.6733 54.62 67.02C54.46 68.3533 54.2067 69.72 53.86 71.12C53.6867 71.8267 53.2467 72.0867 52.54 71.9L52.46 71.86C51.78 71.6867 51.5267 71.24 51.7 70.52C52.0333 69.24 52.2733 67.9867 52.42 66.76C52.5667 65.5333 52.64 64.2467 52.64 62.9V56.62C52.64 55.98 52.8 55.4933 53.12 55.16C53.4533 54.8267 53.9467 54.66 54.6 54.66H63.84ZM59.62 56.94C60.34 56.94 60.7 57.3 60.7 58.02V66.28C60.7 67 60.34 67.36 59.62 67.36H59.54C58.82 67.36 58.46 67 58.46 66.28V58.02C58.46 57.3 58.82 56.94 59.54 56.94H59.62ZM62.64 57.8C63.8533 57.8 64.46 58.4067 64.46 59.62V63.68C64.46 64.8933 63.8533 65.5 62.64 65.5H56.22C55.6067 65.5 55.3 65.1933 55.3 64.58V64.5C55.3 63.8867 55.6067 63.58 56.22 63.58H62.34V59.72H56.22C55.6067 59.72 55.3 59.4133 55.3 58.8V58.72C55.3 58.1067 55.6067 57.8 56.22 57.8H62.64ZM64.44 60.7C65.0533 60.7 65.36 61.0067 65.36 61.62V61.7C65.36 62.3133 65.0533 62.62 64.44 62.62H54.68C54.0667 62.62 53.76 62.3133 53.76 61.7V61.62C53.76 61.0067 54.0667 60.7 54.68 60.7H64.44ZM59.2 53.66C59.8533 53.66 60.18 53.9867 60.18 54.64V54.74C60.18 55.3933 59.8533 55.72 59.2 55.72H58.78C58.1133 55.72 57.78 55.3867 57.78 54.72V54.66C57.78 53.9933 58.1133 53.66 58.78 53.66H59.2Z"/>
</mask>
<path d="M25.96 60.14C25.96 59.46 26.1333 58.9467 26.48 58.6C26.84 58.24 27.36 58.06 28.04 58.06H39.96C40.64 58.06 41.1533 58.24 41.5 58.6C41.86 58.9467 42.04 59.46 42.04 60.14V66.06C42.04 66.74 41.86 67.26 41.5 67.62C41.1533 67.9667 40.64 68.14 39.96 68.14H28.04C27.36 68.14 26.84 67.9667 26.48 67.62C26.1333 67.26 25.96 66.74 25.96 66.06V60.14ZM39.64 60.3H28.36V65.9H39.64V60.3ZM41.94 69.5C42.6733 69.5 43.04 69.8667 43.04 70.6V70.68C43.04 71.4133 42.6733 71.78 41.94 71.78H26.06C25.3267 71.78 24.96 71.4133 24.96 70.68V70.6C24.96 69.8667 25.3267 69.5 26.06 69.5H41.94ZM39.8 62.02C40.4933 62.02 40.84 62.3667 40.84 63.06V63.14C40.84 63.8333 40.4933 64.18 39.8 64.18H28.2C27.5067 64.18 27.16 63.8333 27.16 63.14V63.06C27.16 62.3667 27.5067 62.02 28.2 62.02H39.8ZM34.04 59.28C34.8133 59.28 35.2 59.6667 35.2 60.44V65.86C35.2 66.6333 34.8133 67.02 34.04 67.02H33.96C33.1867 67.02 32.8 66.6333 32.8 65.86V60.44C32.8 59.6667 33.1867 59.28 33.96 59.28H34.04ZM28.74 53.74C29.4867 53.74 29.86 54.0467 29.86 54.66H37.42C38.8333 54.66 39.6667 54.9333 39.92 55.48C40.1733 56.0267 39.84 56.84 38.92 57.92L37.9 59.12C37.4333 59.6667 36.92 59.7133 36.36 59.26L36.28 59.22C35.72 58.7667 35.6733 58.2667 36.14 57.72L36.92 56.82H29.56C28.8933 56.82 28.3867 56.6533 28.04 56.32C27.7067 55.9733 27.54 55.4667 27.54 54.8V54.66C27.54 54.0467 27.9133 53.74 28.66 53.74H28.74ZM55.14 68.28C55.14 67 55.78 66.36 57.06 66.36H62.66C63.94 66.36 64.58 67 64.58 68.28V70.1C64.58 71.38 63.94 72.02 62.66 72.02H57.06C55.78 72.02 55.14 71.38 55.14 70.1V68.28ZM62.34 68.36H57.38V70.02H62.34V68.36ZM50.98 66.76C51.7533 66.76 52.14 67.1467 52.14 67.92V68C52.14 68.7733 51.7533 69.16 50.98 69.16H47.94C47.1667 69.16 46.78 68.7733 46.78 68V67.92C46.78 67.1467 47.1667 66.76 47.94 66.76H50.98ZM49.5 53.88C50.26 53.88 50.64 54.26 50.64 55.02V66.82C50.64 67.58 50.26 67.96 49.5 67.96H49.42C48.66 67.96 48.28 67.58 48.28 66.82V55.02C48.28 54.26 48.66 53.88 49.42 53.88H49.5ZM50.84 58.18C51.6133 58.18 52 58.5667 52 59.34V59.42C52 60.1933 51.6133 60.58 50.84 60.58H48.1C47.3267 60.58 46.94 60.1933 46.94 59.42V59.34C46.94 58.5667 47.3267 58.18 48.1 58.18H50.84ZM63.84 54.66C64.52 54.66 64.86 55 64.86 55.68V55.76C64.86 56.44 64.52 56.78 63.84 56.78H54.88V62.9C54.88 64.3 54.7933 65.6733 54.62 67.02C54.46 68.3533 54.2067 69.72 53.86 71.12C53.6867 71.8267 53.2467 72.0867 52.54 71.9L52.46 71.86C51.78 71.6867 51.5267 71.24 51.7 70.52C52.0333 69.24 52.2733 67.9867 52.42 66.76C52.5667 65.5333 52.64 64.2467 52.64 62.9V56.62C52.64 55.98 52.8 55.4933 53.12 55.16C53.4533 54.8267 53.9467 54.66 54.6 54.66H63.84ZM59.62 56.94C60.34 56.94 60.7 57.3 60.7 58.02V66.28C60.7 67 60.34 67.36 59.62 67.36H59.54C58.82 67.36 58.46 67 58.46 66.28V58.02C58.46 57.3 58.82 56.94 59.54 56.94H59.62ZM62.64 57.8C63.8533 57.8 64.46 58.4067 64.46 59.62V63.68C64.46 64.8933 63.8533 65.5 62.64 65.5H56.22C55.6067 65.5 55.3 65.1933 55.3 64.58V64.5C55.3 63.8867 55.6067 63.58 56.22 63.58H62.34V59.72H56.22C55.6067 59.72 55.3 59.4133 55.3 58.8V58.72C55.3 58.1067 55.6067 57.8 56.22 57.8H62.64ZM64.44 60.7C65.0533 60.7 65.36 61.0067 65.36 61.62V61.7C65.36 62.3133 65.0533 62.62 64.44 62.62H54.68C54.0667 62.62 53.76 62.3133 53.76 61.7V61.62C53.76 61.0067 54.0667 60.7 54.68 60.7H64.44ZM59.2 53.66C59.8533 53.66 60.18 53.9867 60.18 54.64V54.74C60.18 55.3933 59.8533 55.72 59.2 55.72H58.78C58.1133 55.72 57.78 55.3867 57.78 54.72V54.66C57.78 53.9933 58.1133 53.66 58.78 53.66H59.2Z" fill="white"/>
<path d="M26.48 58.6L25.0658 57.1858L25.0658 57.1858L26.48 58.6ZM41.5 58.6L40.0594 59.9873L40.0855 60.0145L40.1127 60.0406L41.5 58.6ZM41.5 67.62L42.9142 69.0342V69.0342L41.5 67.62ZM26.48 67.62L25.0394 69.0073L25.0655 69.0345L25.0927 69.0606L26.48 67.62ZM39.64 60.3H41.64V58.3H39.64V60.3ZM28.36 60.3V58.3H26.36V60.3H28.36ZM28.36 65.9H26.36V67.9H28.36V65.9ZM39.64 65.9V67.9H41.64V65.9H39.64ZM29.86 54.66H27.86V56.66H29.86V54.66ZM39.92 55.48L41.7346 54.6391L41.7346 54.6391L39.92 55.48ZM38.92 57.92L37.3975 56.6231L37.3961 56.6247L38.92 57.92ZM37.9 59.12L39.4211 60.4185L39.4239 60.4153L37.9 59.12ZM36.36 59.26L37.6184 57.7055L37.4492 57.5685L37.2544 57.4712L36.36 59.26ZM36.28 59.22L35.0216 60.7745L35.1908 60.9115L35.3856 61.0088L36.28 59.22ZM36.14 57.72L34.6286 56.4101L34.6237 56.4158L34.6189 56.4215L36.14 57.72ZM36.92 56.82L38.4314 58.1299L41.2999 54.82H36.92V56.82ZM28.04 56.32L26.5983 57.7062L26.6255 57.7345L26.6538 57.7617L28.04 56.32ZM25.96 60.14H27.96C27.96 59.9645 27.983 59.8905 27.9849 59.8848C27.9852 59.8838 27.9799 59.8997 27.964 59.9261C27.9476 59.9531 27.9244 59.984 27.8942 60.0142L26.48 58.6L25.0658 57.1858C24.2184 58.0332 23.96 59.1386 23.96 60.14H25.96ZM26.48 58.6L27.8942 60.0142C27.8717 60.0367 27.8478 60.055 27.826 60.0684C27.8047 60.0815 27.7922 60.0857 27.7942 60.085C27.8009 60.0827 27.8722 60.06 28.04 60.06V58.06V56.06C27.0134 56.06 25.9134 56.3381 25.0658 57.1858L26.48 58.6ZM28.04 58.06V60.06H39.96V58.06V56.06H28.04V58.06ZM39.96 58.06V60.06C40.1286 60.06 40.1948 60.0829 40.1932 60.0823C40.1908 60.0815 40.1726 60.0747 40.1452 60.0575C40.1172 60.04 40.0873 60.0163 40.0594 59.9873L41.5 58.6L42.9406 57.2127C42.0966 56.3362 40.9813 56.06 39.96 56.06V58.06ZM41.5 58.6L40.1127 60.0406C40.0837 60.0127 40.06 59.9828 40.0425 59.9548C40.0253 59.9274 40.0185 59.9092 40.0177 59.9068C40.0171 59.9052 40.04 59.9714 40.04 60.14H42.04H44.04C44.04 59.1187 43.7638 58.0034 42.8873 57.1594L41.5 58.6ZM42.04 60.14H40.04V66.06H42.04H44.04V60.14H42.04ZM42.04 66.06H40.04C40.04 66.2278 40.0173 66.2991 40.015 66.3058C40.0143 66.3078 40.0185 66.2953 40.0316 66.274C40.045 66.2522 40.0633 66.2283 40.0858 66.2058L41.5 67.62L42.9142 69.0342C43.7619 68.1866 44.04 67.0866 44.04 66.06H42.04ZM41.5 67.62L40.0858 66.2058C40.116 66.1756 40.1469 66.1524 40.1739 66.136C40.2003 66.1201 40.2162 66.1148 40.2152 66.1151C40.2095 66.117 40.1355 66.14 39.96 66.14V68.14V70.14C40.9614 70.14 42.0668 69.8816 42.9142 69.0342L41.5 67.62ZM39.96 68.14V66.14H28.04V68.14V70.14H39.96V68.14ZM28.04 68.14V66.14C27.8654 66.14 27.7863 66.1172 27.7725 66.1126C27.767 66.1108 27.7773 66.1137 27.7975 66.1256C27.8182 66.1379 27.8428 66.1558 27.8673 66.1794L26.48 67.62L25.0927 69.0606C25.943 69.8794 27.0329 70.14 28.04 70.14V68.14ZM26.48 67.62L27.9206 66.2327C27.9442 66.2572 27.9621 66.2818 27.9744 66.3025C27.9863 66.3227 27.9892 66.333 27.9874 66.3275C27.9828 66.3137 27.96 66.2346 27.96 66.06H25.96H23.96C23.96 67.0671 24.2206 68.157 25.0394 69.0073L26.48 67.62ZM25.96 66.06H27.96V60.14H25.96H23.96V66.06H25.96ZM39.64 60.3V58.3H28.36V60.3V62.3H39.64V60.3ZM28.36 60.3H26.36V65.9H28.36H30.36V60.3H28.36ZM28.36 65.9V67.9H39.64V65.9V63.9H28.36V65.9ZM39.64 65.9H41.64V60.3H39.64H37.64V65.9H39.64ZM41.94 69.5V71.5C41.9984 71.5 41.6748 71.5132 41.3508 71.1892C41.0268 70.8652 41.04 70.5416 41.04 70.6H43.04H45.04C45.04 69.925 44.8699 69.0515 44.1792 68.3608C43.4885 67.6701 42.615 67.5 41.94 67.5V69.5ZM43.04 70.6H41.04V70.68H43.04H45.04V70.6H43.04ZM43.04 70.68H41.04C41.04 70.7384 41.0268 70.4148 41.3508 70.0908C41.6748 69.7668 41.9984 69.78 41.94 69.78V71.78V73.78C42.615 73.78 43.4885 73.6099 44.1792 72.9192C44.8699 72.2285 45.04 71.355 45.04 70.68H43.04ZM41.94 71.78V69.78H26.06V71.78V73.78H41.94V71.78ZM26.06 71.78V69.78C26.0016 69.78 26.3252 69.7668 26.6492 70.0908C26.9732 70.4148 26.96 70.7384 26.96 70.68H24.96H22.96C22.96 71.355 23.1301 72.2285 23.8208 72.9192C24.5115 73.6099 25.385 73.78 26.06 73.78V71.78ZM24.96 70.68H26.96V70.6H24.96H22.96V70.68H24.96ZM24.96 70.6H26.96C26.96 70.5416 26.9732 70.8652 26.6492 71.1892C26.3252 71.5132 26.0016 71.5 26.06 71.5V69.5V67.5C25.385 67.5 24.5115 67.6701 23.8208 68.3608C23.1301 69.0515 22.96 69.925 22.96 70.6H24.96ZM26.06 69.5V71.5H41.94V69.5V67.5H26.06V69.5ZM39.8 62.02V64.02C39.8384 64.02 39.4998 64.0282 39.1658 63.6942C38.8318 63.3602 38.84 63.0216 38.84 63.06H40.84H42.84C42.84 62.405 42.6749 61.5465 41.9942 60.8658C41.3135 60.1851 40.455 60.02 39.8 60.02V62.02ZM40.84 63.06H38.84V63.14H40.84H42.84V63.06H40.84ZM40.84 63.14H38.84C38.84 63.1784 38.8318 62.8398 39.1658 62.5058C39.4998 62.1718 39.8384 62.18 39.8 62.18V64.18V66.18C40.455 66.18 41.3135 66.0149 41.9942 65.3342C42.6749 64.6535 42.84 63.795 42.84 63.14H40.84ZM39.8 64.18V62.18H28.2V64.18V66.18H39.8V64.18ZM28.2 64.18V62.18C28.1616 62.18 28.5002 62.1718 28.8342 62.5058C29.1682 62.8398 29.16 63.1784 29.16 63.14H27.16H25.16C25.16 63.795 25.3251 64.6535 26.0058 65.3342C26.6865 66.0149 27.545 66.18 28.2 66.18V64.18ZM27.16 63.14H29.16V63.06H27.16H25.16V63.14H27.16ZM27.16 63.06H29.16C29.16 63.0216 29.1682 63.3602 28.8342 63.6942C28.5002 64.0282 28.1616 64.02 28.2 64.02V62.02V60.02C27.545 60.02 26.6865 60.1851 26.0058 60.8658C25.3251 61.5465 25.16 62.405 25.16 63.06H27.16ZM28.2 62.02V64.02H39.8V62.02V60.02H28.2V62.02ZM34.04 59.28V61.28C34.1184 61.28 33.8098 61.2982 33.4958 60.9842C33.1818 60.6702 33.2 60.3616 33.2 60.44H35.2H37.2C37.2 59.745 37.0249 58.8565 36.3242 58.1558C35.6235 57.4551 34.735 57.28 34.04 57.28V59.28ZM35.2 60.44H33.2V65.86H35.2H37.2V60.44H35.2ZM35.2 65.86H33.2C33.2 65.9384 33.1818 65.6298 33.4958 65.3158C33.8098 65.0018 34.1184 65.02 34.04 65.02V67.02V69.02C34.735 69.02 35.6235 68.8449 36.3242 68.1442C37.0249 67.4435 37.2 66.555 37.2 65.86H35.2ZM34.04 67.02V65.02H33.96V67.02V69.02H34.04V67.02ZM33.96 67.02V65.02C33.8816 65.02 34.1902 65.0018 34.5042 65.3158C34.8182 65.6298 34.8 65.9384 34.8 65.86H32.8H30.8C30.8 66.555 30.9751 67.4435 31.6758 68.1442C32.3765 68.8449 33.265 69.02 33.96 69.02V67.02ZM32.8 65.86H34.8V60.44H32.8H30.8V65.86H32.8ZM32.8 60.44H34.8C34.8 60.3616 34.8182 60.6702 34.5042 60.9842C34.1902 61.2982 33.8816 61.28 33.96 61.28V59.28V57.28C33.265 57.28 32.3765 57.4551 31.6758 58.1558C30.9751 58.8565 30.8 59.745 30.8 60.44H32.8ZM33.96 59.28V61.28H34.04V59.28V57.28H33.96V59.28ZM28.74 53.74V55.74C28.8902 55.74 28.6312 55.7788 28.3105 55.5155C28.1389 55.3745 28.0119 55.1947 27.9368 55.0095C27.8666 54.8366 27.86 54.7057 27.86 54.66H29.86H31.86C31.86 53.9299 31.6188 53.0565 30.8495 52.4245C30.1555 51.8545 29.3365 51.74 28.74 51.74V53.74ZM29.86 54.66V56.66H37.42V54.66V52.66H29.86V54.66ZM37.42 54.66V56.66C37.7115 56.66 37.9458 56.6742 38.1297 56.6966C38.316 56.7193 38.4272 56.7475 38.4817 56.7654C38.6142 56.8088 38.301 56.743 38.1054 56.3209L39.92 55.48L41.7346 54.6391C41.2857 53.6704 40.4292 53.1945 39.7283 52.9646C39.0257 52.7342 38.2256 52.66 37.42 52.66V54.66ZM39.92 55.48L38.1054 56.3209C37.908 55.8951 38.0629 55.6109 38.0094 55.7416C37.9875 55.795 37.9365 55.8986 37.8323 56.056C37.7295 56.2114 37.5875 56.4 37.3975 56.6231L38.92 57.92L40.4425 59.2169C40.9663 58.602 41.4299 57.9435 41.7106 57.2584C41.9904 56.5757 42.1853 55.6116 41.7346 54.6391L39.92 55.48ZM38.92 57.92L37.3961 56.6247L36.3761 57.8247L37.9 59.12L39.4239 60.4153L40.4439 59.2153L38.92 57.92ZM37.9 59.12L36.3789 57.8215C36.3492 57.8563 36.5444 57.6132 36.9839 57.5732C37.4223 57.5334 37.6565 57.7364 37.6184 57.7055L36.36 59.26L35.1016 60.8145C35.6235 61.237 36.3943 61.6433 37.3461 61.5568C38.299 61.4702 38.9842 60.9304 39.4211 60.4185L37.9 59.12ZM36.36 59.26L37.2544 57.4712L37.1744 57.4312L36.28 59.22L35.3856 61.0088L35.4656 61.0488L36.36 59.26ZM36.28 59.22L37.5384 57.6655C37.4934 57.629 37.7713 57.8361 37.8163 58.3191C37.8616 58.8035 37.6257 59.0601 37.6611 59.0185L36.14 57.72L34.6189 56.4215C34.1877 56.9266 33.7418 57.7065 33.8337 58.6909C33.9254 59.6739 34.5066 60.3576 35.0216 60.7745L36.28 59.22ZM36.14 57.72L37.6514 59.0299L38.4314 58.1299L36.92 56.82L35.4086 55.5101L34.6286 56.4101L36.14 57.72ZM36.92 56.82V54.82H29.56V56.82V58.82H36.92V56.82ZM29.56 56.82V54.82C29.3882 54.82 29.3135 54.798 29.305 54.7951C29.3024 54.7943 29.3164 54.7987 29.3411 54.8132C29.3664 54.828 29.3963 54.8495 29.4262 54.8783L28.04 56.32L26.6538 57.7617C27.4969 58.5724 28.5786 58.82 29.56 58.82V56.82ZM28.04 56.32L29.4817 54.9338C29.5105 54.9637 29.532 54.9936 29.5468 55.0189C29.5613 55.0436 29.5657 55.0576 29.5649 55.055C29.562 55.0465 29.54 54.9718 29.54 54.8H27.54H25.54C25.54 55.7814 25.7876 56.8631 26.5983 57.7062L28.04 56.32ZM27.54 54.8H29.54V54.66H27.54H25.54V54.8H27.54ZM27.54 54.66H29.54C29.54 54.7057 29.5334 54.8366 29.4632 55.0095C29.3881 55.1947 29.2611 55.3745 29.0895 55.5155C28.7688 55.7788 28.5098 55.74 28.66 55.74V53.74V51.74C28.0635 51.74 27.2445 51.8545 26.5505 52.4245C25.7812 53.0565 25.54 53.9299 25.54 54.66H27.54ZM28.66 53.74V55.74H28.74V53.74V51.74H28.66V53.74ZM62.34 68.36H64.34V66.36H62.34V68.36ZM57.38 68.36V66.36H55.38V68.36H57.38ZM57.38 70.02H55.38V72.02H57.38V70.02ZM62.34 70.02V72.02H64.34V70.02H62.34ZM54.88 56.78V54.78H52.88V56.78H54.88ZM54.62 67.02L52.6364 66.7647L52.6353 66.7732L52.6342 66.7817L54.62 67.02ZM53.86 71.12L51.9186 70.6393L51.9176 70.6436L53.86 71.12ZM52.54 71.9L51.6456 73.6889L51.8299 73.781L52.0292 73.8337L52.54 71.9ZM52.46 71.86L53.3544 70.0711L53.1622 69.975L52.954 69.922L52.46 71.86ZM51.7 70.52L49.7646 70.016L49.7599 70.0339L49.7556 70.0519L51.7 70.52ZM52.42 66.76L54.4059 66.9974L52.42 66.76ZM53.12 55.16L51.7058 53.7458L51.6914 53.7602L51.6772 53.7749L53.12 55.16ZM62.34 63.58V65.58H64.34V63.58H62.34ZM62.34 59.72H64.34V57.72H62.34V59.72ZM55.14 68.28H57.14C57.14 68.2026 57.1449 68.1479 57.1499 68.1128C57.1549 68.0779 57.1594 68.0662 57.1574 68.0725C57.1551 68.0793 57.1461 68.1038 57.125 68.139C57.1035 68.1749 57.0734 68.2151 57.0342 68.2542C56.9951 68.2934 56.9549 68.3235 56.919 68.345C56.8838 68.3661 56.8593 68.3751 56.8525 68.3774C56.8462 68.3794 56.8579 68.3749 56.8928 68.3699C56.9279 68.3649 56.9826 68.36 57.06 68.36V66.36V64.36C56.1117 64.36 55.0331 64.5984 54.2058 65.4258C53.3784 66.2531 53.14 67.3317 53.14 68.28H55.14ZM57.06 66.36V68.36H62.66V66.36V64.36H57.06V66.36ZM62.66 66.36V68.36C62.7374 68.36 62.7921 68.3649 62.8272 68.3699C62.8621 68.3749 62.8738 68.3794 62.8675 68.3774C62.8607 68.3751 62.8362 68.3661 62.801 68.345C62.7651 68.3235 62.7249 68.2934 62.6858 68.2542C62.6466 68.2151 62.6165 68.1749 62.595 68.139C62.5739 68.1038 62.5649 68.0793 62.5626 68.0725C62.5606 68.0662 62.5651 68.0779 62.5701 68.1128C62.5751 68.1479 62.58 68.2026 62.58 68.28H64.58H66.58C66.58 67.3317 66.3416 66.2531 65.5142 65.4258C64.6869 64.5984 63.6083 64.36 62.66 64.36V66.36ZM64.58 68.28H62.58V70.1H64.58H66.58V68.28H64.58ZM64.58 70.1H62.58C62.58 70.1774 62.5751 70.2321 62.5701 70.2672C62.5651 70.3021 62.5606 70.3138 62.5626 70.3075C62.5649 70.3007 62.5739 70.2762 62.595 70.241C62.6165 70.2051 62.6466 70.1649 62.6858 70.1258C62.7249 70.0866 62.7651 70.0565 62.801 70.035C62.8362 70.0139 62.8607 70.0049 62.8675 70.0026C62.8738 70.0006 62.8621 70.0051 62.8272 70.0101C62.7921 70.0151 62.7374 70.02 62.66 70.02V72.02V74.02C63.6083 74.02 64.6869 73.7816 65.5142 72.9542C66.3416 72.1269 66.58 71.0483 66.58 70.1H64.58ZM62.66 72.02V70.02H57.06V72.02V74.02H62.66V72.02ZM57.06 72.02V70.02C56.9826 70.02 56.9279 70.0151 56.8928 70.0101C56.8579 70.0051 56.8462 70.0006 56.8525 70.0026C56.8593 70.0049 56.8838 70.0139 56.919 70.035C56.9549 70.0565 56.9951 70.0866 57.0342 70.1258C57.0734 70.1649 57.1035 70.2051 57.125 70.241C57.1461 70.2762 57.1551 70.3007 57.1574 70.3075C57.1594 70.3138 57.1549 70.3021 57.1499 70.2672C57.1449 70.2321 57.14 70.1774 57.14 70.1H55.14H53.14C53.14 71.0483 53.3784 72.1269 54.2058 72.9542C55.0331 73.7816 56.1117 74.02 57.06 74.02V72.02ZM55.14 70.1H57.14V68.28H55.14H53.14V70.1H55.14ZM62.34 68.36V66.36H57.38V68.36V70.36H62.34V68.36ZM57.38 68.36H55.38V70.02H57.38H59.38V68.36H57.38ZM57.38 70.02V72.02H62.34V70.02V68.02H57.38V70.02ZM62.34 70.02H64.34V68.36H62.34H60.34V70.02H62.34ZM50.98 66.76V68.76C51.0584 68.76 50.7498 68.7782 50.4358 68.4642C50.1218 68.1502 50.14 67.8416 50.14 67.92H52.14H54.14C54.14 67.225 53.9649 66.3365 53.2642 65.6358C52.5635 64.9351 51.675 64.76 50.98 64.76V66.76ZM52.14 67.92H50.14V68H52.14H54.14V67.92H52.14ZM52.14 68H50.14C50.14 68.0784 50.1218 67.7698 50.4358 67.4558C50.7498 67.1418 51.0584 67.16 50.98 67.16V69.16V71.16C51.675 71.16 52.5635 70.9849 53.2642 70.2842C53.9649 69.5835 54.14 68.695 54.14 68H52.14ZM50.98 69.16V67.16H47.94V69.16V71.16H50.98V69.16ZM47.94 69.16V67.16C47.8616 67.16 48.1702 67.1418 48.4842 67.4558C48.7982 67.7698 48.78 68.0784 48.78 68H46.78H44.78C44.78 68.695 44.9551 69.5835 45.6558 70.2842C46.3565 70.9849 47.245 71.16 47.94 71.16V69.16ZM46.78 68H48.78V67.92H46.78H44.78V68H46.78ZM46.78 67.92H48.78C48.78 67.8416 48.7982 68.1502 48.4842 68.4642C48.1702 68.7782 47.8616 68.76 47.94 68.76V66.76V64.76C47.245 64.76 46.3565 64.9351 45.6558 65.6358C44.9551 66.3365 44.78 67.225 44.78 67.92H46.78ZM47.94 66.76V68.76H50.98V66.76V64.76H47.94V66.76ZM49.5 53.88V55.88C49.5717 55.88 49.2581 55.8966 48.9408 55.5792C48.6234 55.2619 48.64 54.9483 48.64 55.02H50.64H52.64C52.64 54.3317 52.4666 53.4481 51.7692 52.7508C51.0719 52.0534 50.1883 51.88 49.5 51.88V53.88ZM50.64 55.02H48.64V66.82H50.64H52.64V55.02H50.64ZM50.64 66.82H48.64C48.64 66.8917 48.6234 66.5781 48.9408 66.2608C49.2581 65.9434 49.5717 65.96 49.5 65.96V67.96V69.96C50.1883 69.96 51.0719 69.7866 51.7692 69.0892C52.4666 68.3919 52.64 67.5083 52.64 66.82H50.64ZM49.5 67.96V65.96H49.42V67.96V69.96H49.5V67.96ZM49.42 67.96V65.96C49.3483 65.96 49.6619 65.9434 49.9792 66.2608C50.2966 66.5781 50.28 66.8917 50.28 66.82H48.28H46.28C46.28 67.5083 46.4534 68.3919 47.1508 69.0892C47.8481 69.7866 48.7317 69.96 49.42 69.96V67.96ZM48.28 66.82H50.28V55.02H48.28H46.28V66.82H48.28ZM48.28 55.02H50.28C50.28 54.9483 50.2966 55.2619 49.9792 55.5792C49.6619 55.8966 49.3483 55.88 49.42 55.88V53.88V51.88C48.7317 51.88 47.8481 52.0534 47.1508 52.7508C46.4534 53.4481 46.28 54.3317 46.28 55.02H48.28ZM49.42 53.88V55.88H49.5V53.88V51.88H49.42V53.88ZM50.84 58.18V60.18C50.9184 60.18 50.6098 60.1982 50.2958 59.8842C49.9818 59.5702 50 59.2616 50 59.34H52H54C54 58.645 53.8249 57.7565 53.1242 57.0558C52.4235 56.3551 51.535 56.18 50.84 56.18V58.18ZM52 59.34H50V59.42H52H54V59.34H52ZM52 59.42H50C50 59.4984 49.9818 59.1898 50.2958 58.8758C50.6098 58.5618 50.9184 58.58 50.84 58.58V60.58V62.58C51.535 62.58 52.4235 62.4049 53.1242 61.7042C53.8249 61.0035 54 60.115 54 59.42H52ZM50.84 60.58V58.58H48.1V60.58V62.58H50.84V60.58ZM48.1 60.58V58.58C48.0216 58.58 48.3302 58.5618 48.6442 58.8758C48.9582 59.1898 48.94 59.4984 48.94 59.42H46.94H44.94C44.94 60.115 45.1151 61.0035 45.8158 61.7042C46.5165 62.4049 47.405 62.58 48.1 62.58V60.58ZM46.94 59.42H48.94V59.34H46.94H44.94V59.42H46.94ZM46.94 59.34H48.94C48.94 59.2616 48.9582 59.5702 48.6442 59.8842C48.3302 60.1982 48.0216 60.18 48.1 60.18V58.18V56.18C47.405 56.18 46.5165 56.3551 45.8158 57.0558C45.1151 57.7565 44.94 58.645 44.94 59.34H46.94ZM48.1 58.18V60.18H50.84V58.18V56.18H48.1V58.18ZM63.84 54.66V56.66C63.8717 56.66 63.5281 56.6666 63.1908 56.3292C62.8534 55.9919 62.86 55.6483 62.86 55.68H64.86H66.86C66.86 55.0317 66.6966 54.1781 66.0192 53.5008C65.3419 52.8234 64.4883 52.66 63.84 52.66V54.66ZM64.86 55.68H62.86V55.76H64.86H66.86V55.68H64.86ZM64.86 55.76H62.86C62.86 55.7917 62.8534 55.4481 63.1908 55.1108C63.5281 54.7734 63.8717 54.78 63.84 54.78V56.78V58.78C64.4883 58.78 65.3419 58.6166 66.0192 57.9392C66.6966 57.2619 66.86 56.4083 66.86 55.76H64.86ZM63.84 56.78V54.78H54.88V56.78V58.78H63.84V56.78ZM54.88 56.78H52.88V62.9H54.88H56.88V56.78H54.88ZM54.88 62.9H52.88C52.88 64.2173 52.7985 65.5053 52.6364 66.7647L54.62 67.02L56.6036 67.2753C56.7882 65.8414 56.88 64.3827 56.88 62.9H54.88ZM54.62 67.02L52.6342 66.7817C52.4847 68.0277 52.247 69.3133 51.9186 70.6393L53.86 71.12L55.8014 71.6007C56.1664 70.1267 56.4353 68.679 56.6058 67.2583L54.62 67.02ZM53.86 71.12L51.9176 70.6436C51.9041 70.6983 51.9725 70.3655 52.3825 70.1231C52.7905 69.8821 53.1113 69.9823 53.0508 69.9663L52.54 71.9L52.0292 73.8337C52.6754 74.0044 53.5695 74.0679 54.4175 73.5669C55.2675 73.0645 55.6425 72.2483 55.8024 71.5964L53.86 71.12ZM52.54 71.9L53.4344 70.1111L53.3544 70.0711L52.46 71.86L51.5656 73.6489L51.6456 73.6889L52.54 71.9ZM52.46 71.86L52.954 69.922C52.954 69.922 52.9582 69.923 52.9662 69.9257C52.9741 69.9283 52.9862 69.9326 53.0018 69.9392C53.0329 69.9523 53.0801 69.9753 53.1367 70.0128C53.2571 70.0928 53.3945 70.2228 53.4997 70.4083C53.7151 70.7881 53.6244 71.0715 53.6444 70.9881L51.7 70.52L49.7556 70.0519C49.6023 70.6885 49.5516 71.5552 50.0203 72.3817C50.5023 73.2315 51.2978 73.6277 51.966 73.798L52.46 71.86ZM51.7 70.52L53.6354 71.024C53.99 69.6625 54.2477 68.3201 54.4059 66.9974L52.42 66.76L50.4341 66.5226C50.299 67.6533 50.0767 68.8175 49.7646 70.016L51.7 70.52ZM52.42 66.76L54.4059 66.9974C54.5627 65.6853 54.64 64.319 54.64 62.9H52.64H50.64C50.64 64.1743 50.5706 65.3814 50.4341 66.5226L52.42 66.76ZM52.64 62.9H54.64V56.62H52.64H50.64V62.9H52.64ZM52.64 56.62H54.64C54.64 56.4616 54.6604 56.3984 54.66 56.3996C54.6592 56.4019 54.6528 56.4204 54.636 56.4491C54.6189 56.4784 54.5946 56.5119 54.5628 56.5451L53.12 55.16L51.6772 53.7749C50.8811 54.6043 50.64 55.665 50.64 56.62H52.64ZM53.12 55.16L54.5342 56.5742C54.5008 56.6076 54.4662 56.6337 54.4351 56.6526C54.4046 56.671 54.3841 56.6785 54.3801 56.6798C54.3768 56.6809 54.3909 56.6758 54.4277 56.6705C54.4646 56.6651 54.521 56.66 54.6 56.66V54.66V52.66C53.6248 52.66 52.5396 52.912 51.7058 53.7458L53.12 55.16ZM54.6 54.66V56.66H63.84V54.66V52.66H54.6V54.66ZM59.62 56.94V58.94C59.6717 58.94 59.3431 58.9516 59.0158 58.6242C58.6884 58.2969 58.7 57.9683 58.7 58.02H60.7H62.7C62.7 57.3517 62.5316 56.4831 61.8442 55.7958C61.1569 55.1084 60.2883 54.94 59.62 54.94V56.94ZM60.7 58.02H58.7V66.28H60.7H62.7V58.02H60.7ZM60.7 66.28H58.7C58.7 66.3317 58.6884 66.0031 59.0158 65.6758C59.3431 65.3484 59.6717 65.36 59.62 65.36V67.36V69.36C60.2883 69.36 61.1569 69.1916 61.8442 68.5042C62.5316 67.8169 62.7 66.9483 62.7 66.28H60.7ZM59.62 67.36V65.36H59.54V67.36V69.36H59.62V67.36ZM59.54 67.36V65.36C59.4883 65.36 59.8169 65.3484 60.1442 65.6758C60.4716 66.0031 60.46 66.3317 60.46 66.28H58.46H56.46C56.46 66.9483 56.6284 67.8169 57.3158 68.5042C58.0031 69.1916 58.8717 69.36 59.54 69.36V67.36ZM58.46 66.28H60.46V58.02H58.46H56.46V66.28H58.46ZM58.46 58.02H60.46C60.46 57.9683 60.4716 58.2969 60.1442 58.6242C59.8169 58.9516 59.4883 58.94 59.54 58.94V56.94V54.94C58.8717 54.94 58.0031 55.1084 57.3158 55.7958C56.6284 56.4831 56.46 57.3517 56.46 58.02H58.46ZM59.54 56.94V58.94H59.62V56.94V54.94H59.54V56.94ZM62.64 57.8V59.8C62.7826 59.8 62.826 59.8185 62.8038 59.8111C62.7719 59.8005 62.6834 59.7619 62.5908 59.6692C62.4981 59.5766 62.4595 59.4881 62.4489 59.4562C62.4415 59.434 62.46 59.4774 62.46 59.62H64.46H66.46C66.46 58.705 66.2299 57.6515 65.4192 56.8408C64.6085 56.0301 63.555 55.8 62.64 55.8V57.8ZM64.46 59.62H62.46V63.68H64.46H66.46V59.62H64.46ZM64.46 63.68H62.46C62.46 63.8226 62.4415 63.866 62.4489 63.8438C62.4595 63.8119 62.4981 63.7234 62.5908 63.6308C62.6834 63.5381 62.7719 63.4995 62.8038 63.4889C62.826 63.4815 62.7826 63.5 62.64 63.5V65.5V67.5C63.555 67.5 64.6085 67.2699 65.4192 66.4592C66.2299 65.6485 66.46 64.595 66.46 63.68H64.46ZM62.64 65.5V63.5H56.22V65.5V67.5H62.64V65.5ZM56.22 65.5V63.5C56.2216 63.5 56.5902 63.5018 56.9442 63.8558C57.2982 64.2098 57.3 64.5784 57.3 64.58H55.3H53.3C53.3 65.195 53.4551 66.0235 54.1158 66.6842C54.7765 67.3449 55.605 67.5 56.22 67.5V65.5ZM55.3 64.58H57.3V64.5H55.3H53.3V64.58H55.3ZM55.3 64.5H57.3C57.3 64.5016 57.2982 64.8702 56.9442 65.2242C56.5902 65.5782 56.2216 65.58 56.22 65.58V63.58V61.58C55.605 61.58 54.7765 61.7351 54.1158 62.3958C53.4551 63.0565 53.3 63.885 53.3 64.5H55.3ZM56.22 63.58V65.58H62.34V63.58V61.58H56.22V63.58ZM62.34 63.58H64.34V59.72H62.34H60.34V63.58H62.34ZM62.34 59.72V57.72H56.22V59.72V61.72H62.34V59.72ZM56.22 59.72V57.72C56.2216 57.72 56.5902 57.7218 56.9442 58.0758C57.2982 58.4298 57.3 58.7984 57.3 58.8H55.3H53.3C53.3 59.415 53.4551 60.2435 54.1158 60.9042C54.7765 61.5649 55.605 61.72 56.22 61.72V59.72ZM55.3 58.8H57.3V58.72H55.3H53.3V58.8H55.3ZM55.3 58.72H57.3C57.3 58.7216 57.2982 59.0902 56.9442 59.4442C56.5902 59.7982 56.2216 59.8 56.22 59.8V57.8V55.8C55.605 55.8 54.7765 55.9551 54.1158 56.6158C53.4551 57.2765 53.3 58.105 53.3 58.72H55.3ZM56.22 57.8V59.8H62.64V57.8V55.8H56.22V57.8ZM64.44 60.7V62.7C64.4384 62.7 64.0698 62.6982 63.7158 62.3442C63.3618 61.9902 63.36 61.6216 63.36 61.62H65.36H67.36C67.36 61.005 67.2049 60.1765 66.5442 59.5158C65.8835 58.8551 65.055 58.7 64.44 58.7V60.7ZM65.36 61.62H63.36V61.7H65.36H67.36V61.62H65.36ZM65.36 61.7H63.36C63.36 61.6984 63.3618 61.3298 63.7158 60.9758C64.0698 60.6218 64.4384 60.62 64.44 60.62V62.62V64.62C65.055 64.62 65.8835 64.4649 66.5442 63.8042C67.2049 63.1435 67.36 62.315 67.36 61.7H65.36ZM64.44 62.62V60.62H54.68V62.62V64.62H64.44V62.62ZM54.68 62.62V60.62C54.6816 60.62 55.0502 60.6218 55.4042 60.9758C55.7582 61.3298 55.76 61.6984 55.76 61.7H53.76H51.76C51.76 62.315 51.9151 63.1435 52.5758 63.8042C53.2365 64.4649 54.065 64.62 54.68 64.62V62.62ZM53.76 61.7H55.76V61.62H53.76H51.76V61.7H53.76ZM53.76 61.62H55.76C55.76 61.6216 55.7582 61.9902 55.4042 62.3442C55.0502 62.6982 54.6816 62.7 54.68 62.7V60.7V58.7C54.065 58.7 53.2365 58.8551 52.5758 59.5158C51.9151 60.1765 51.76 61.005 51.76 61.62H53.76ZM54.68 60.7V62.7H64.44V60.7V58.7H54.68V60.7ZM59.2 53.66V55.66C59.1991 55.66 59.1803 55.66 59.1468 55.6552C59.1132 55.6504 59.0613 55.6403 58.9963 55.6186C58.8594 55.573 58.6834 55.4819 58.5208 55.3192C58.3581 55.1566 58.267 54.9806 58.2214 54.8437C58.1997 54.7787 58.1896 54.7268 58.1848 54.6932C58.18 54.6597 58.18 54.6409 58.18 54.64H60.18H62.18C62.18 54.005 62.0199 53.1615 61.3492 52.4908C60.6785 51.8201 59.835 51.66 59.2 51.66V53.66ZM60.18 54.64H58.18V54.74H60.18H62.18V54.64H60.18ZM60.18 54.74H58.18C58.18 54.7391 58.18 54.7203 58.1848 54.6868C58.1896 54.6532 58.1997 54.6013 58.2214 54.5363C58.267 54.3994 58.3581 54.2234 58.5208 54.0608C58.6834 53.8981 58.8594 53.807 58.9963 53.7614C59.0613 53.7397 59.1132 53.7296 59.1468 53.7248C59.1803 53.72 59.1991 53.72 59.2 53.72V55.72V57.72C59.835 57.72 60.6785 57.5599 61.3492 56.8892C62.0199 56.2185 62.18 55.375 62.18 54.74H60.18ZM59.2 55.72V53.72H58.78V55.72V57.72H59.2V55.72ZM58.78 55.72V53.72C58.755 53.72 59.1035 53.7151 59.4442 54.0558C59.7849 54.3965 59.78 54.745 59.78 54.72H57.78H55.78C55.78 55.3616 55.9418 56.2102 56.6158 56.8842C57.2898 57.5582 58.1384 57.72 58.78 57.72V55.72ZM57.78 54.72H59.78V54.66H57.78H55.78V54.72H57.78ZM57.78 54.66H59.78C59.78 54.635 59.7849 54.9835 59.4442 55.3242C59.1035 55.6649 58.755 55.66 58.78 55.66V53.66V51.66C58.1384 51.66 57.2898 51.8218 56.6158 52.4958C55.9418 53.1698 55.78 54.0184 55.78 54.66H57.78ZM58.78 53.66V55.66H59.2V53.66V51.66H58.78V53.66Z" fill="#4E433C" mask="url(#path-19-outside-1_424_3735)"/>
</svg>
