<svg preserveAspectRatio="none" width="100%" height="100%" overflow="visible" style="display: block;" viewBox="0 0 120 128" fill="none" xmlns="http://www.w3.org/2000/svg">
<g id="&#233;&#177;&#188;&#231;&#175;&#147;" filter="url(#filter0_d_0_4)">
<rect width="120" height="120" rx="16" fill="var(--fill-0, #FFEDB7)" shape-rendering="crispEdges"/>
<g id="&#233;&#177;&#188;&#231;&#175;&#147;_2">
<path d="M42.7258 26.377C42.7246 25.8643 42.6596 25.186 42.8473 24.7059C42.9059 24.5561 43.0651 24.3138 43.224 24.2582C44.3644 23.859 72.0427 24.0245 74.8641 24.0914C75.3975 24.1041 76.1669 24.0622 76.6547 24.2862C77.2019 24.9207 77.0634 25.6527 77.0387 26.4875C78.3402 26.309 83.2118 26.2373 84.3479 26.6124C84.9761 27.0893 84.8233 28.0713 84.7592 28.7921C87.0541 28.7351 88.0974 28.3515 87.9803 31.0384L87.9777 31.0961C89.3737 31.0579 90.5567 30.7582 90.5702 32.5736C90.5721 32.8903 90.5698 33.2071 90.5633 33.5236C91.506 33.496 92.7529 33.3229 93.502 33.8673C93.8724 34.9012 93.6989 43.6953 93.7789 45.6715C94.8877 45.6375 96.108 45.4607 97.031 46.0383C97.7167 47.1074 96.6342 47.4133 97.6837 48.1312C98.7859 48.2472 99.8807 47.885 99.9452 49.5009C100.024 51.4739 99.9942 53.4563 99.9953 55.4317L99.9935 73.1492C99.9927 74.7328 100.023 76.2627 99.8614 77.843C99.7284 79.1427 98.2108 78.9971 97.1927 78.8929C97.2409 81.6156 97.3831 82.0275 94.5262 81.9508C94.5605 82.9039 94.6055 83.8989 94.6376 84.8485C94.7116 87.0296 94.0812 87.4684 92.0257 87.3976L91.9054 87.3931C92.0352 90.7617 91.2446 90.1423 88.2908 90.1557C88.2834 90.8968 88.3158 91.5145 88.0951 92.2282C89.2335 92.8197 91.1209 92.7655 91.8822 94.0179C92.0393 94.2764 92.1907 94.6069 92.0782 94.9087C91.9189 95.3365 91.4234 95.7938 91.031 96.0003C80.7058 101.434 42.4693 100.859 31.2685 97.1C30.3788 96.8015 27.9989 95.9048 27.6248 95.0396C27.5056 94.7639 27.5269 94.46 27.6473 94.1886C28.199 92.9457 30.3088 92.6816 31.4318 92.2308C31.4516 92.2228 31.4712 92.2145 31.4909 92.2062C31.2496 91.4565 31.299 90.9308 31.3667 90.1585C28.4849 90.2199 27.5738 90.7016 27.6278 87.4023C27.4373 87.4139 27.2465 87.4214 27.0557 87.4249C24.0501 87.4718 24.9865 84.197 24.9612 81.9651C22.1778 82.0113 22.2201 81.5476 22.3515 78.9218C21.6581 78.9455 20.1641 79.1272 20.0835 78.1057C19.972 76.6938 20.0046 75.2487 20.004 73.8304L20.0138 55.1781C20.016 53.2622 20.0048 51.308 20.0659 49.3922C20.0839 48.8305 20.106 48.8228 20.4042 48.4216C20.8353 48.1757 21.1607 48.2325 21.6371 48.2411C23.1442 48.2629 22.0954 46.5999 22.6345 46.1108C23.3401 45.4705 25.5354 45.649 26.4292 45.6687C26.4732 43.9686 26.2851 34.6731 26.7794 33.7954C27.4805 33.3378 28.5169 33.4768 29.3641 33.5054C29.063 31.0957 29.5306 31.0059 31.7296 31.1151C31.7514 28.3455 32.4336 28.7212 34.9301 28.8032C34.919 28.1072 34.8695 27.5327 35.0825 26.8642C35.1247 26.815 35.1506 26.7829 35.1982 26.735C35.8527 26.078 41.5799 26.3751 42.7258 26.377Z" fill="#463C36"/>
<path d="M42.7258 26.377C42.7246 25.8643 42.6596 25.186 42.8473 24.7059C42.9059 24.5561 43.0651 24.3138 43.224 24.2582C44.3644 23.859 72.0427 24.0245 74.8641 24.0914C75.3975 24.1041 76.1669 24.0622 76.6547 24.2862C77.2019 24.9207 77.0634 25.6527 77.0387 26.4875C77.6522 26.5379 78.2665 26.5789 78.8812 26.6102C78.3472 26.6589 77.4006 26.7164 76.915 26.8433C76.6496 27.2581 76.7681 28.1216 76.8839 28.5863L76.7292 28.7511C78.8159 28.7936 80.9031 28.8136 82.9902 28.811C83.0243 29.513 83.09 30.3755 83.0744 31.0656C84.0272 31.0508 84.9803 31.0527 85.9331 31.0714C85.9293 31.7226 85.9453 32.4907 85.9087 33.1314L88.5411 33.1863C88.5471 33.9609 88.5724 34.8265 88.5545 35.5929C89.4422 35.5828 90.2703 35.5643 91.1575 35.6292C91.2027 36.6747 91.2347 37.6204 91.2223 38.6661L91.2211 40.1951L91.2257 47.5548L91.1344 47.5575L90.8619 47.6689C90.1278 47.5262 88.822 47.6066 88.0515 47.6847C88.0062 48.9008 87.9971 50.118 88.0244 51.3345L85.1666 51.3625L85.1836 53.043C85.3335 53.7506 85.3339 57.3035 85.1634 57.9088C84.005 58.0533 82.8822 58.2663 81.7763 58.4085L81.6311 58.482C80.8761 58.5326 78.8545 58.6271 78.2569 58.798L78.1741 58.8615C78.1847 59.6412 78.2512 61.4988 78.0954 62.1535L78.0048 62.3324C76.26 62.5637 73.6325 62.6555 72.0804 62.9092L70.5201 62.9838C70.2695 62.9758 69.7059 63.0024 69.5885 62.8585C69.1214 62.2863 69.3673 60.2993 69.3963 59.5632C67.8262 59.5006 66.2328 59.6489 64.3778 59.5466L64.3643 56.2499C62.1579 56.1456 59.0653 56.2574 56.7028 56.2093C53.7797 56.1887 50.857 56.1276 47.9354 56.0258C47.5157 55.8903 42.7082 55.6785 41.9439 55.6433C41.9391 56.2469 41.8855 58.226 41.995 58.7008C40.8025 58.7012 39.612 58.6071 38.4343 58.4197C37.7772 58.2925 35.1963 58.0451 34.5289 58.036L34.4093 58.065L34.3616 58.286C34.057 58.4905 32.208 58.1183 31.696 58.0413C31.6416 56.2024 31.6879 54.1369 31.6879 52.2804C31.2246 52.7307 29.475 52.2907 28.7424 52.2372L28.8333 47.6994L28.767 47.6871C28.9127 46.7988 28.8541 44.5551 28.8536 43.5612C28.8338 42.8063 28.858 41.9446 28.8623 41.1808C28.8617 40.4351 28.8649 39.6895 28.8722 38.944C28.8336 37.8934 28.8669 36.6995 28.8733 35.6374C29.5955 35.5801 30.4034 35.5748 31.1337 35.5541L31.1763 33.2191C31.9592 33.1493 33.0006 33.1551 33.8058 33.1403L33.8868 31.0892C34.8847 31.0173 35.7842 31.0505 36.7833 31.0755C36.7043 30.1747 36.7605 29.7011 36.8442 28.8052C39.0272 28.7697 41.2568 28.789 43.4436 28.7851C43.4497 28.1834 43.4223 27.5686 43.4027 26.9662C43.2496 26.9681 43.3183 26.9786 43.1951 26.9458C40.6755 26.2764 37.5635 26.8368 35.1646 26.864L35.0825 26.8642C35.1247 26.815 35.1506 26.7829 35.1982 26.735C35.8527 26.078 41.5799 26.3751 42.7258 26.377Z" fill="#F3C173"/>
<path d="M88.5095 41.3681C89.1378 41.3627 90.276 41.4247 90.8056 41.1293C91.1675 40.9275 91.1305 40.6304 91.2211 40.197L91.2257 47.5567L91.1344 47.5594L90.8619 47.6709C90.1278 47.5282 88.822 47.6085 88.0515 47.6866C88.0062 48.9028 87.9971 50.12 88.0244 51.3365L85.1666 51.3644L85.1836 53.045C85.3335 53.7526 85.3339 57.3054 85.1634 57.9108C84.005 58.0553 82.8822 58.2682 81.7763 58.4104L81.6311 58.4839C80.8761 58.5345 78.8545 58.6291 78.2569 58.8L78.1741 58.8635C78.1847 59.6431 78.2512 61.5008 78.0954 62.1555L78.0048 62.3344C76.26 62.5657 73.6325 62.6574 72.0804 62.9111L70.5201 62.9857C70.2695 62.9778 69.7059 63.0043 69.5885 62.8604C69.1214 62.2882 69.3673 60.3012 69.3963 59.5652C67.8262 59.5026 66.2328 59.6508 64.3778 59.5486L64.3643 56.2518C62.1579 56.1476 59.0653 56.2594 56.7028 56.2112C53.7797 56.1906 50.857 56.1295 47.9354 56.0278C47.5157 55.8922 42.7082 55.6805 41.9439 55.6453C41.9391 56.2489 41.8855 58.2279 41.995 58.7027C40.8025 58.7031 39.612 58.6091 38.4343 58.4216C37.7772 58.2944 35.1963 58.047 34.5289 58.038L34.4093 58.067L34.3616 58.2879C34.057 58.4924 32.208 58.1203 31.696 58.0433C31.6416 56.2044 31.6879 54.1389 31.6879 52.2823C31.2246 52.7327 29.475 52.2927 28.7424 52.2391L28.8333 47.7013L28.767 47.6891C28.9127 46.8007 28.8541 44.557 28.8536 43.5632C28.8338 42.8082 28.858 41.9466 28.8623 41.1827C29.4626 41.1919 31.1933 41.0771 31.5376 41.4514L31.5831 41.67C32.0829 42.0297 33.7608 41.9119 34.434 41.8953C34.4676 42.5375 34.5185 43.2402 34.5361 43.8775C35.4946 43.9153 37.4756 43.7659 38.0957 44.2944C38.2774 44.6761 38.1972 44.9984 38.157 45.4311C38.2329 45.6943 38.2642 45.7585 38.3886 46.0037C39.2459 46.4534 40.9362 46.1394 42.102 46.2264C42.406 46.4114 42.4743 46.5354 42.6877 46.8092C44.0187 47.0102 48.3101 46.8914 49.9218 46.8784C49.9375 47.4374 49.995 48.0709 50.0328 48.6352C54.015 48.4576 58.0082 48.5483 61.9934 48.5194C63.9856 48.505 65.9763 48.5194 67.9653 48.6426C68.0744 48.0488 68.1169 47.4931 68.1706 46.8939C70.3504 46.8818 74.6583 47.0256 76.6546 46.8428C76.7918 46.6467 76.9332 46.4535 77.0789 46.2636C77.809 46.1262 80.6612 46.1805 81.6769 46.1622C81.6735 45.4408 81.7078 44.6817 81.7286 43.9577C82.5684 44.0325 84.5417 43.9264 85.4458 43.9026C85.4449 43.2538 85.4966 42.5648 85.5334 41.9138C86.5735 41.9117 87.3331 41.8812 88.3686 41.7893L88.5095 41.3681Z" fill="#966733"/>
<path d="M28.8536 43.5612C29.4723 43.647 30.2848 43.7836 30.8934 43.8135L30.8803 45.6501C33.4233 45.6342 33.4631 45.5305 33.4697 48.0765L36.2966 48.0943C36.3577 48.8672 36.4181 49.5409 36.4066 50.3193C37.3177 50.3323 41.1248 50.3156 41.7338 50.4597C42.2262 51.0411 41.6488 51.5299 42.3792 51.6442C43.6076 51.8361 47.3831 51.328 48.3142 51.7438C48.5267 52.3417 48.412 52.5008 48.7794 52.7865C53.1592 52.8356 57.5394 52.8448 61.9193 52.814C63.6177 52.8119 66.259 52.7237 67.899 52.8324C67.1807 52.92 67.1944 52.7968 66.778 53.2063C66.4385 54.09 66.696 55.1374 66.6428 56.1903C65.8881 56.1971 65.1153 56.1901 64.3643 56.2499C62.1579 56.1456 59.0653 56.2574 56.7028 56.2093C53.7797 56.1887 50.857 56.1276 47.9354 56.0258C47.5157 55.8903 42.7082 55.6785 41.9439 55.6433C41.9391 56.2469 41.8855 58.226 41.995 58.7008C40.8025 58.7012 39.612 58.6071 38.4343 58.4197C37.7772 58.2925 35.1963 58.0451 34.5289 58.036L34.4093 58.065L34.3616 58.286C34.057 58.4905 32.208 58.1183 31.696 58.0413C31.6416 56.2024 31.6879 54.1369 31.6879 52.2804C31.2246 52.7307 29.475 52.2907 28.7424 52.2372L28.8333 47.6994L28.767 47.6871C28.9127 46.7988 28.8541 44.5551 28.8536 43.5612Z" fill="var(--fill-0, #C48844)"/>
<path d="M38.4497 52.9568C39.564 52.9422 40.8294 52.8978 41.9287 52.9587L41.9439 55.6433C41.9391 56.2469 41.8855 58.226 41.995 58.7008C40.8025 58.7012 39.612 58.6071 38.4343 58.4197C38.4999 57.2811 38.4607 55.9932 38.4507 54.8415L38.4497 52.9568Z" fill="#F3C173"/>
<path d="M31.6981 51.3358L34.5252 51.3435L34.521 54.5493C34.505 55.2739 34.3615 57.5119 34.4088 58.0634L34.3611 58.2843C34.0565 58.4888 32.2074 58.1166 31.6954 58.0396C31.641 56.2007 31.6873 54.1352 31.6873 52.2787L31.6981 51.3358Z" fill="#F3C173"/>
<path d="M34.5207 54.5515C35.8536 54.5638 37.2178 54.8332 38.4507 54.8415C38.4607 55.9932 38.4999 57.2811 38.4343 58.4197C37.7772 58.2925 35.1963 58.0451 34.5289 58.036L34.4093 58.065C34.362 57.5136 34.5048 55.2761 34.5207 54.5515Z" fill="#E3A757"/>
<path d="M28.8333 47.6983C29.7979 47.4796 30.6326 47.6283 31.6027 47.6155C31.6507 48.8554 31.6822 50.0952 31.6981 51.3358L31.6873 52.2787C31.2241 52.7291 29.475 52.2897 28.7424 52.2361L28.8333 47.6983Z" fill="#966733"/>
<path d="M88.9212 43.7922C89.8419 43.7786 90.1975 43.7603 91.11 43.5934C91.1046 44.9148 91.1131 46.2363 91.1344 47.5575L90.8619 47.6689C90.1278 47.5262 88.822 47.6066 88.0515 47.6847C88.0062 48.9008 87.9971 50.118 88.0244 51.3345L85.1666 51.3625L85.1836 53.043C85.3335 53.7506 85.3339 57.3035 85.1634 57.9088C84.005 58.0533 82.8822 58.2663 81.7763 58.4085L81.6311 58.482C80.8761 58.5326 78.8545 58.6271 78.2569 58.798L78.1741 58.8615C78.1847 59.6412 78.2512 61.4988 78.0954 62.1535L78.0048 62.3324C76.26 62.5637 73.6325 62.6555 72.0804 62.9092L70.5201 62.9838C70.2695 62.9758 69.7059 63.0024 69.5885 62.8585C69.1214 62.2863 69.3673 60.2993 69.3963 59.5632C67.8262 59.5006 66.2328 59.6489 64.3778 59.5466L64.3643 56.2499C65.1153 56.1901 65.8881 56.1971 66.6428 56.1903C66.696 55.1374 66.4385 54.09 66.778 53.2063C67.1944 52.7968 67.1807 52.92 67.899 52.8324L69.5118 52.8103C69.6034 52.2305 69.5316 52.0135 69.8619 51.6536C71.4374 51.4753 76.9864 52.0151 77.745 51.3008C77.7891 51.094 77.8983 50.4784 78.0984 50.4566C79.6693 50.2867 81.8789 50.4032 83.4066 50.3281C83.3969 49.5692 83.4868 48.8547 83.5647 48.1014C84.5012 48.0677 85.5567 48.0905 86.5027 48.0902C86.4787 47.1394 86.3082 46.4758 86.9181 45.8183C87.4425 45.5707 88.3773 45.6454 88.9917 45.6497L88.9212 43.7922Z" fill="var(--fill-0, #C48844)"/>
<path d="M72.0734 59.4498C73.9041 59.4059 76.3537 59.0941 78.1736 58.8597C78.1841 59.6394 78.2507 61.497 78.0949 62.1517L78.0043 62.3306C76.2595 62.5619 73.632 62.6536 72.0798 62.9074L70.5196 62.9819C70.269 62.974 69.7054 63.0006 69.5879 62.8566C69.1209 62.2844 69.3668 60.2975 69.3958 59.5614C70.2877 59.5698 71.1824 59.5029 72.0734 59.4498Z" fill="#966733"/>
<path d="M66.6421 56.1928C67.3112 56.2871 70.9925 56.0751 71.9448 56.0568C71.9353 56.8808 71.851 58.7515 72.0732 59.4539C71.1822 59.5069 70.2883 59.5735 69.3963 59.5652C67.8262 59.5026 66.2328 59.6508 64.3778 59.5486L64.3643 56.2518C65.1153 56.1921 65.8875 56.1995 66.6421 56.1928Z" fill="#F3C173"/>
<path d="M71.9455 56.0548C73.728 56.0584 76.2109 55.7058 78.1409 55.6522C78.14 56.6355 78.103 57.8499 78.2569 58.798L78.1741 58.8615C76.3542 59.096 73.9046 59.4079 72.0739 59.4519C71.8517 58.7495 71.936 56.8788 71.9455 56.0548Z" fill="#E3A757"/>
<path d="M78.1661 52.9462C78.9056 52.9266 81.178 52.7596 81.6441 53.1598L81.6619 53.5819C81.6647 55.1425 81.6278 56.8696 81.7763 58.4104L81.6311 58.4839C80.8761 58.5345 78.8545 58.6291 78.2569 58.8C78.103 57.8519 78.1398 56.6368 78.1407 55.6535C78.1322 54.7687 78.1572 53.8353 78.1661 52.9462Z" fill="#F3C173"/>
<path d="M69.5118 52.8088C70.2564 52.8642 71.184 52.958 71.9136 52.9623C71.9322 53.9924 71.9426 55.0226 71.9448 56.0529C70.9925 56.0712 67.3112 56.2831 66.6421 56.1889C66.6953 55.1359 66.4378 54.0886 66.7774 53.2048C67.1938 52.7953 67.18 52.9186 67.8983 52.8309L69.5118 52.8088Z" fill="#E3A757"/>
<path d="M85.1836 53.043C85.3335 53.7506 85.3339 57.3035 85.1634 57.9088C84.005 58.0533 82.8822 58.2663 81.7763 58.4085C81.6278 56.8677 81.6645 55.1415 81.6617 53.5809L81.8672 54.8109C82.4444 54.9243 84.3974 54.5921 85.0494 54.4638C85.2291 54.1271 85.1819 53.4587 85.1836 53.043Z" fill="#E3A757"/>
<path d="M85.5329 41.9105C86.573 41.9083 87.3326 41.8778 88.368 41.786C88.4488 42.4447 88.5439 43.1016 88.6539 43.7561C87.649 43.8608 86.4305 43.9921 85.421 43.9861C85.3788 44.8388 85.3815 45.3592 85.4311 46.2117C84.1768 46.1937 82.9223 46.1932 81.668 46.2099L81.6344 48.3469C80.3346 48.2772 78.9209 48.143 77.6381 48.2773C76.8944 48.3553 76.9201 48.9833 76.2855 48.9927C73.7631 49.0305 70.5925 49.1244 68.1157 49.0189C68.0775 49.5909 68.0257 50.1983 68.01 50.7684L50.037 50.7856C50.0042 50.2638 49.9812 49.5458 49.9156 49.043C47.6194 49.0378 45.1605 49.0773 42.8612 48.9859C42.3426 48.9652 42.6362 48.3853 41.4944 48.3033C40.4893 48.2313 39.2548 48.3713 38.3171 48.2358L38.1444 46.19L38.1565 45.4277C38.2323 45.6909 38.2637 45.7551 38.388 46.0003C39.2454 46.45 40.9357 46.136 42.1014 46.223C42.4055 46.4081 42.4738 46.532 42.6871 46.8058C44.0181 47.0068 48.3096 46.888 49.9213 46.875C49.9369 47.434 49.9945 48.0676 50.0323 48.6318C54.0145 48.4543 58.0077 48.5449 61.9929 48.516C63.9851 48.5016 65.9758 48.516 67.9647 48.6392C68.0738 48.0454 68.1164 47.4897 68.1701 46.8905C70.3498 46.8784 74.6577 47.0222 76.6541 46.8394C76.7913 46.6433 76.9326 46.4501 77.0783 46.2602C77.8085 46.1228 80.6606 46.1771 81.6764 46.1588C81.673 45.4374 81.7073 44.6783 81.7281 43.9544C82.5679 44.0291 84.5412 43.9231 85.4453 43.8992C85.4443 43.2504 85.496 42.5614 85.5329 41.9105Z" fill="var(--fill-0, #C48844)"/>
<path d="M31.5827 41.6673C32.0825 42.027 33.7604 41.9092 34.4336 41.8926C34.4672 42.5348 34.5181 43.2375 34.5357 43.8748C35.4942 43.9126 37.4752 43.7632 38.0953 44.2917C38.277 44.6734 38.1967 44.995 38.1565 45.4277L38.1444 46.19L34.4964 46.1983C34.5188 45.462 34.5076 44.6872 34.5089 43.9474C33.426 44.0488 32.4495 43.9192 31.3908 43.7239C31.3897 43.0806 31.5049 42.3155 31.5827 41.6673Z" fill="var(--fill-0, #C48844)"/>
<path d="M42.7258 26.377C42.7246 25.8643 42.6596 25.186 42.8473 24.7059C42.9059 24.5561 43.0651 24.3138 43.224 24.2582C44.3644 23.859 72.0427 24.0245 74.8641 24.0914C75.3975 24.1041 76.1669 24.0622 76.6547 24.2862C77.2019 24.9207 77.0634 25.6527 77.0387 26.4875C77.6522 26.5379 78.2665 26.5789 78.8812 26.6102C78.3472 26.6589 77.4006 26.7164 76.915 26.8433C76.6496 27.2581 76.7681 28.1216 76.8839 28.5863L76.7292 28.7511L76.4991 28.6408C76.3745 28.2535 76.4849 27.2584 76.5135 26.8008C75.7599 26.7399 75.0044 26.7051 74.2483 26.6964C64.3107 26.5452 54.2968 26.797 44.3542 26.6966C44.0235 26.6932 43.6478 26.7287 43.4027 26.9662C43.2496 26.9681 43.3183 26.9786 43.1951 26.9458C40.6755 26.2764 37.5635 26.8368 35.1646 26.864L35.0825 26.8642C35.1247 26.815 35.1506 26.7829 35.1982 26.735C35.8527 26.078 41.5799 26.3751 42.7258 26.377Z" fill="#513B2F"/>
<path d="M88.5461 38.9183C89.2829 38.9317 90.7234 39.0777 91.2218 38.6647L91.2206 40.1936C91.13 40.627 91.1669 40.9242 90.8051 41.126C90.2754 41.4214 89.1372 41.3593 88.509 41.3647L88.5461 38.9183Z" fill="var(--fill-0, #C48844)"/>
<path d="M28.8719 38.945C29.7938 39.0474 30.5835 38.9783 31.5061 38.9264C31.4993 39.7936 31.498 40.5843 31.5376 41.4514C31.1933 41.0771 29.4626 41.1919 28.8623 41.1827C28.8617 40.4371 28.8646 39.6905 28.8719 38.945Z" fill="var(--fill-0, #C48844)"/>
<path d="M42.9728 31.789C42.938 31.298 42.8388 30.7046 43.0533 30.2801C43.1191 30.2289 43.2488 30.0967 43.3206 30.0724C43.7878 29.9135 74.3222 29.8339 76.5395 30.104L76.6361 30.1164C76.6298 30.6213 76.6446 31.3602 76.563 31.8396C77.9777 31.8412 79.4181 31.8216 80.8274 31.9247C80.8208 32.5024 80.8282 33.1486 80.7912 33.7193L83.4882 33.8174L83.3944 35.6885L85.6496 35.7097C85.6621 36.4464 85.7603 38.5691 85.6249 39.1733C84.5826 39.2594 82.6678 39.064 82.0099 39.496C81.899 39.813 81.9036 39.84 81.8978 40.18C81.9162 40.6532 81.9997 40.698 81.7785 41.0364C80.4993 41.169 78.6427 41.1253 77.3172 41.1311L77.3143 43.2081L54.7714 43.2271C51.0766 43.2263 46.4224 43.3671 42.8419 43.1699L42.7704 41.1345C41.9012 41.1213 40.7122 41.0691 39.8677 41.1117L37.9138 41.0583L37.9018 39.2968C36.6542 39.2384 35.1343 39.4963 34.1745 39.0057C33.8424 38.5037 33.9606 38.4746 33.9631 37.7552L33.9751 35.7706C34.5743 35.7385 35.196 35.6958 35.7932 35.675L35.8269 33.8046L38.748 33.7199C38.6683 33.2426 38.5188 32.7096 38.7138 32.2851C39.3888 31.4825 41.8419 31.83 42.9728 31.789Z" fill="#6F4E36"/>
<path d="M42.9728 31.789C42.938 31.298 42.8388 30.7046 43.0533 30.2801C43.1191 30.2289 43.2488 30.0967 43.3206 30.0724C43.7878 29.9135 74.3222 29.8339 76.5395 30.104L76.6361 30.1164C76.6298 30.6213 76.6446 31.3602 76.563 31.8396C77.9777 31.8412 79.4181 31.8216 80.8274 31.9247C80.8208 32.5024 80.8282 33.1486 80.7912 33.7193L83.4882 33.8174L83.3944 35.6885L85.6496 35.7097C85.6621 36.4464 85.7603 38.5691 85.6249 39.1733C85.6126 38.6878 85.7057 38.0739 85.4446 37.7107C84.6903 37.5436 82.6397 37.5973 81.8114 37.612C81.7853 37.0276 81.7879 36.3875 81.7778 35.7976L78.8156 35.7187L78.8256 33.8634C77.6501 33.9332 75.7469 33.8193 74.5024 33.7977C74.5119 33.2685 74.6091 32.5687 74.6681 32.0292C73.4615 32.05 72.2066 32.0291 70.9958 32.0262C65.7876 31.8533 60.4651 32.0517 55.2453 31.9769C52.5374 31.9379 49.7372 31.96 47.0336 32.0332C46.8769 33.4093 46.919 34.6245 46.9405 36.001C45.984 35.7121 44.1588 35.8265 43.1234 35.8643C43.1424 36.5464 43.1471 37.2957 43.1947 37.9706C41.3606 37.9717 39.5091 37.476 39.8914 39.8126C39.9527 40.1873 39.9797 40.7467 39.8677 41.1117L37.9138 41.0583L37.9018 39.2968C36.6542 39.2384 35.1343 39.4963 34.1745 39.0057C33.8424 38.5037 33.9606 38.4746 33.9631 37.7552L33.9751 35.7706C34.5743 35.7385 35.196 35.6958 35.7932 35.675L35.8269 33.8046L38.748 33.7199C38.6683 33.2426 38.5188 32.7096 38.7138 32.2851C39.3888 31.4825 41.8419 31.83 42.9728 31.789Z" fill="#966733"/>
<path d="M44.7671 32.0545L47.0336 32.0332C46.8769 33.4093 46.919 34.6245 46.9405 36.001C45.984 35.7121 44.1588 35.8265 43.1234 35.8643C43.1424 36.5464 43.1471 37.2957 43.1947 37.9706C41.3606 37.9717 39.5091 37.476 39.8914 39.8126C39.9527 40.1873 39.9797 40.7467 39.8677 41.1117L37.9138 41.0583L37.9018 39.2968C36.6542 39.2384 35.1343 39.4963 34.1745 39.0057C33.8424 38.5037 33.9606 38.4746 33.9631 37.7552C35.3477 37.6207 35.8069 37.5832 37.2385 37.6006L37.2206 35.8069C38.2723 35.7656 39.3244 35.7377 40.3767 35.7231L40.3253 33.8202C41.4745 33.9034 43.4435 33.82 44.6512 33.806L44.7671 32.0545Z" fill="#6F4E36"/>
<path d="M43.1234 35.8643C44.1588 35.8265 45.984 35.7121 46.9405 36.001L47.3004 36.1152C47.399 37.5888 47.3621 39.2073 47.359 40.694C49.4608 40.9064 52.0436 40.8448 54.1849 40.8143C59.8359 40.7338 65.5763 40.9338 71.2165 40.7903L71.1978 36.3632C72.438 36.5418 76.3161 36.529 77.5731 36.3318L77.5962 39.9197C78.3642 40.0531 81.1921 40.3343 81.8978 40.18C81.9162 40.6532 81.9997 40.698 81.7785 41.0364C80.4993 41.169 78.6427 41.1253 77.3172 41.1311L77.3143 43.2081L54.7714 43.2271C51.0766 43.2263 46.4224 43.3671 42.8419 43.1699L42.7704 41.1345C41.9012 41.1213 40.7122 41.0691 39.8677 41.1117C39.9797 40.7467 39.9527 40.1873 39.8914 39.8126C39.5091 37.476 41.3606 37.9717 43.1947 37.9706C43.1471 37.2957 43.1424 36.5464 43.1234 35.8643Z" fill="#513B2F"/>
<path d="M47.0336 32.0332C49.7372 31.96 52.5374 31.9379 55.2453 31.9769C60.4651 32.0517 65.7876 31.8533 70.9958 32.0262C70.9872 33.4651 71.1139 34.8627 71.1059 36.2335C65.2147 36.1897 59.3233 36.1781 53.4319 36.1986C51.5214 36.1986 49.1017 36.0793 47.3004 36.1152L46.9405 36.001C46.919 34.6245 46.8769 33.4093 47.0336 32.0332Z" fill="#835E41"/>
<path d="M41.9432 55.6414C42.7075 55.6766 47.515 55.8883 47.9348 56.0239C50.8563 56.1256 53.779 56.1867 56.7022 56.2073C59.0646 56.2555 62.1572 56.1437 64.3636 56.2479L64.3772 59.5447C66.2322 59.6469 67.8257 59.4988 69.3958 59.5614C69.3668 60.2975 69.1209 62.2844 69.5879 62.8566C69.7054 63.0006 70.269 62.974 70.5196 62.9819L72.0798 62.9074C72.0126 64.091 71.8527 65.6795 71.9763 66.8183C71.1075 66.866 70.2397 66.9288 69.3731 67.0069C69.3547 68.2108 69.3635 69.415 69.3996 70.6185C70.1131 70.6085 70.9935 70.6204 71.6915 70.565L71.9632 70.7256C71.9798 71.6619 72.1547 73.8973 71.9112 74.6076L71.5573 74.7994C70.8597 74.8192 70.0728 74.8232 69.3853 74.8904C69.351 75.9261 69.0608 77.6236 69.6257 78.3467C69.9878 78.5465 70.3396 78.4779 70.7685 78.4587L71.6985 78.385L71.9775 78.5376C72.1827 79.469 71.8553 81.3934 71.9156 82.5109C71.2642 82.5466 70.5498 82.6013 69.9029 82.6072C69.1912 82.6137 66.5418 82.5933 65.9891 82.6965C65.5661 82.7518 64.8204 82.7353 64.3701 82.739L57.7513 82.7483L54.8095 82.7486L52.1029 82.7314C51.474 82.7429 51.5032 82.6359 51.1248 82.9592C50.8023 83.9462 51.0498 84.7971 50.9289 85.9541C50.565 85.9623 48.1342 85.9839 47.8913 86.0303C47.7478 84.8197 47.7475 83.5966 47.8903 82.3858C46.3611 82.3243 43.27 82.1778 41.8476 81.9639L41.9744 84.3813C40.6428 84.4262 39.7969 84.5645 38.4551 84.3952C38.3984 83.4825 38.4577 82.5043 38.4917 81.5846C38.3784 80.3921 38.4827 78.7663 38.4407 77.4972C37.4861 77.8437 35.5225 77.6328 34.5193 77.4606L34.5415 76.4885L34.479 76.0672C34.4611 75.2275 34.4382 74.3881 34.41 73.5487L34.4371 73.4682L34.5385 69.6037L34.5057 68.7063L34.5415 68.6382C34.5362 67.5857 34.5286 66.8397 34.4092 65.7981L34.5308 65.4653C34.4633 64.6383 34.523 62.8904 34.5251 61.9947L34.5323 61.1653L34.4759 61.0353C34.538 60.0655 34.5239 59.0128 34.5282 58.0341C35.1956 58.0431 37.7765 58.2905 38.4336 58.4177C39.6113 58.6052 40.8019 58.6992 41.9944 58.6988C41.8849 58.224 41.9385 56.245 41.9432 55.6414Z" fill="#E3A757"/>
<path d="M47.9354 56.0278C50.857 56.1295 53.7797 56.1906 56.7028 56.2112C59.0653 56.2594 62.1579 56.1476 64.3643 56.2518L64.3778 59.5486C66.2328 59.6508 67.8262 59.5026 69.3963 59.5652C69.3673 60.3012 69.1214 62.2882 69.5885 62.8604C69.7059 63.0043 70.2695 62.9778 70.5201 62.9857L72.0804 62.9111C72.0131 64.0947 71.8532 65.6828 71.9767 66.8216C71.108 66.8692 70.2401 66.9321 69.3736 67.0102C69.3552 68.214 69.364 69.4183 69.4 70.6217C70.1136 70.6117 70.9939 70.6236 71.692 70.5683L71.9636 70.7288C71.9802 71.6652 72.1552 73.9005 71.9116 74.6108L71.5577 74.8026C70.8601 74.8224 70.0732 74.8265 69.3857 74.8937C69.3514 75.9293 69.0613 77.6268 69.6262 78.35C69.9883 78.5497 70.34 78.4812 70.769 78.4619L71.699 78.3883L71.9779 78.5408C72.1832 79.4722 71.8557 81.3966 71.9161 82.5141C71.2646 82.5499 70.5502 82.6045 69.9034 82.6104C69.1917 82.6169 66.5422 82.5965 65.9896 82.6997C65.5666 82.755 64.8209 82.7386 64.3706 82.7422L57.7517 82.7515C57.6611 81.8688 57.6537 79.6945 57.6622 78.7794C56.7411 78.7151 55.7016 78.7145 54.7688 78.6954L54.7944 74.9417C55.6819 74.9043 56.7946 75.0295 57.6996 75.1069C57.6795 73.5948 57.693 72.5234 57.5983 70.9723C56.7053 70.8799 55.7007 70.89 54.7928 70.8788C53.5521 70.9113 52.2582 70.7992 51.0158 70.7157C50.9622 69.5413 51.0313 68.1833 51.0639 66.9944C50.2392 66.8421 48.8101 66.8216 47.9268 66.7842C47.9482 65.5372 47.9502 64.2899 47.9329 63.0428C48.9168 63.0773 50.0246 63.058 51.019 63.0635L51.0117 59.5034C49.9861 59.4432 48.992 59.3274 47.9713 59.2143C47.9113 58.1266 47.9244 57.1174 47.9354 56.0278Z" fill="#E3A757"/>
<path d="M47.9333 63.0412C48.9171 63.0757 50.025 63.0564 51.0194 63.0619L52.2651 63.1214C52.702 63.2591 56.8009 63.2979 57.6704 63.3358C57.7889 64.7801 57.6828 65.6222 57.5849 67.0555C56.6989 67.076 55.6192 67.1257 54.7482 67.1058C53.3464 66.9722 52.462 66.9758 51.0642 66.9928C50.2395 66.8405 48.8105 66.82 47.9272 66.7826C47.9485 65.5356 47.9505 64.2883 47.9333 63.0412Z" fill="#F3C173"/>
<path d="M47.9354 56.0278C50.857 56.1295 53.7797 56.1906 56.7028 56.2112C57.9319 56.4362 57.7475 56.7083 57.6776 57.9397C57.6476 58.4677 57.6371 59.0217 57.6356 59.5526C56.7442 59.5529 55.6137 59.5248 54.7453 59.5866C53.5011 59.5493 52.2565 59.5215 51.0117 59.5034C49.9861 59.4432 48.992 59.3274 47.9713 59.2143C47.9113 58.1266 47.9244 57.1174 47.9354 56.0278Z" fill="#F3C173"/>
<path d="M69.3996 70.6185C70.1131 70.6085 70.9935 70.6204 71.6915 70.565L71.9632 70.7256C71.9798 71.6619 72.1547 73.8973 71.9112 74.6076L71.5573 74.7994C70.8597 74.8192 70.0728 74.8232 69.3853 74.8904C68.5434 74.8107 65.3359 75.0097 64.3636 75.0525L64.3753 70.8586C65.8598 70.8746 67.9773 70.8909 69.3996 70.6185Z" fill="#F3C173"/>
<path d="M70.769 78.4619L71.699 78.3883L71.9779 78.5408C72.1832 79.4722 71.8557 81.3966 71.9161 82.5141C71.2646 82.5499 70.5502 82.6045 69.9034 82.6104C69.1917 82.6169 66.5422 82.5965 65.9896 82.6997C65.5666 82.755 64.8209 82.7386 64.3706 82.7422L64.3677 78.7139C65.6704 78.7299 69.6426 78.6858 70.769 78.4619Z" fill="#F3C173"/>
<path d="M70.5201 62.9838L72.0804 62.9092C72.0131 64.0928 71.853 65.6813 71.9765 66.8201C71.1078 66.8677 70.2399 66.9306 69.3734 67.0087C68.0496 66.9424 65.6362 66.9449 64.3489 67.1C64.3465 65.8091 64.3802 64.5186 64.4502 63.2297C65.6323 63.1864 69.5617 63.147 70.5201 62.9838Z" fill="#F3C173"/>
<path d="M57.7255 75.053C59.9372 75.0329 62.1491 75.0258 64.361 75.0318L64.3681 78.7124C62.1557 78.7615 59.9425 78.7658 57.7299 78.7255C57.7334 77.5311 57.7625 76.239 57.7255 75.053Z" fill="#966733"/>
<path d="M51.0642 66.9928C52.462 66.9758 53.3464 66.9722 54.7482 67.1058L54.7928 70.8788C53.5521 70.9113 52.2582 70.7992 51.0158 70.7157C50.9622 69.5413 51.0317 68.1816 51.0642 66.9928Z" fill="#966733"/>
<path d="M51.0117 59.5018C52.2564 59.5198 53.501 59.5476 54.7452 59.585C54.7823 60.8343 54.806 61.8499 54.7391 63.1064C54.0118 63.1097 52.9654 63.0808 52.2651 63.1214L51.0194 63.0619L51.0117 59.5018Z" fill="#966733"/>
<path d="M57.7264 67.0769C59.6267 67.1944 62.4201 67.1182 64.3564 67.1229C64.4015 68.2993 64.3616 69.6673 64.3554 70.8578C62.2362 70.9542 59.8613 70.9086 57.7214 70.909C57.7734 69.6602 57.7383 68.3326 57.7264 67.0769Z" fill="#966733"/>
<path d="M57.8171 59.6205C59.2767 59.7644 62.7582 59.6717 64.3771 59.6576C64.3575 60.8366 64.3528 62.0158 64.3629 63.1949C62.1504 63.247 59.937 63.2523 57.7244 63.2107C57.7277 62.0984 57.6951 60.7027 57.8171 59.6205Z" fill="#966733"/>
<path d="M34.5308 65.4691L38.4747 65.9709C39.4123 66.0735 40.9674 66.2876 41.8616 66.2931L41.9445 66.3318C41.7913 66.9348 41.9272 68.8117 41.9402 69.5781L41.985 70.1342C41.9588 70.6307 41.9368 73.955 41.783 74.172L41.944 74.2524L41.9394 77.3438C41.3063 77.2149 38.6021 76.7738 38.4407 77.501C37.4861 77.8475 35.5225 77.6365 34.5193 77.4644L34.5415 76.4923L34.479 76.0709C34.4611 75.2313 34.4382 74.3919 34.41 73.5525L34.4371 73.472L34.5385 69.6075L34.5057 68.7101L34.5415 68.642C34.5362 67.5895 34.5286 66.8434 34.4092 65.8019L34.5308 65.4691Z" fill="var(--fill-0, #C48844)"/>
<path d="M34.5308 65.4691L38.4747 65.9709C39.4123 66.0735 40.9674 66.2876 41.8616 66.2931L41.9445 66.3318C41.7913 66.9348 41.9272 68.8117 41.9402 69.5781C41.007 69.5233 39.1204 69.1558 38.5257 69.5035C38.4243 69.8419 38.4492 69.9276 38.47 70.2883C37.0817 69.9488 37.0374 69.5231 35.5432 69.5167L34.5385 69.6075L34.5057 68.7101L34.5415 68.642C34.5362 67.5895 34.5286 66.8434 34.4092 65.8019L34.5308 65.4691Z" fill="#966733"/>
<path d="M38.4747 65.9709C39.4123 66.0735 40.9674 66.2876 41.8616 66.2931L41.9445 66.3318C41.7913 66.9348 41.9272 68.8117 41.9402 69.5781C41.007 69.5233 39.1204 69.1558 38.5257 69.5035C38.4243 69.8419 38.4492 69.9276 38.47 70.2883C37.0817 69.9488 37.0374 69.5231 35.5432 69.5167C36.245 69.2209 37.0327 69.2627 37.802 69.2424L38.1836 69.2453C38.6208 68.8022 38.4635 66.7795 38.4747 65.9709Z" fill="var(--fill-0, #C48844)"/>
<path d="M34.5415 68.6382C35.7033 68.8101 36.7731 69.2368 37.8012 69.2393C37.0319 69.2596 36.245 69.2178 35.5432 69.5136L34.5385 69.6037L34.5057 68.7063L34.5415 68.6382Z" fill="var(--fill-0, #C48844)"/>
<path d="M38.4702 70.2864C38.4494 69.9257 38.4246 69.84 38.526 69.5016C39.1206 69.1539 41.0072 69.5214 41.9405 69.5762L41.9853 70.1323C41.9591 70.6288 41.9371 73.9531 41.7833 74.1701C40.701 74.1286 39.6296 73.9919 38.5538 73.8685C38.4639 72.5303 38.4242 71.6248 38.4702 70.2864Z" fill="#F3C173"/>
<path d="M35.5429 69.5156C37.0372 69.522 37.082 69.9469 38.4702 70.2864C38.4242 71.6248 38.4639 72.5303 38.5538 73.8685L38.465 73.8758C37.1246 73.7242 35.7909 73.6388 34.4368 73.4709L34.5382 69.6064L35.5429 69.5156Z" fill="#E3A757"/>
<path d="M34.4368 73.4709C35.7909 73.6388 37.1246 73.7242 38.465 73.8758L38.4191 76.8432C36.7109 76.8379 36.1934 76.7899 34.542 76.4908L34.4795 76.0695C34.4617 75.2298 34.4387 74.3904 34.4105 73.551L34.4368 73.4709Z" fill="#966733"/>
<path d="M34.5284 58.0369C35.1958 58.046 37.7766 58.2933 38.4338 58.4205C39.6114 58.608 40.802 58.702 41.9945 58.7016L42.1121 58.8215C41.6247 59.3512 41.9702 60.9402 41.9344 61.7194L41.9501 62.5347C41.8561 63.6608 42.0374 65.4066 41.8616 66.2931C40.9674 66.2876 39.4123 66.0735 38.4747 65.9709L34.5308 65.4691C34.4633 64.6421 34.5231 62.8932 34.5253 61.9976L34.5324 61.1681L34.476 61.0381C34.5381 60.0683 34.5241 59.0156 34.5284 58.0369Z" fill="#966733"/>
<path d="M38.4716 62.7862C38.4578 62.4045 38.4103 62.0377 38.5715 61.6926C39.6925 61.6907 40.8135 61.6993 41.9342 61.7183L41.9499 62.5336C41.8559 63.6597 42.0374 65.4046 41.8616 66.2911C40.9674 66.2855 39.4122 66.0715 38.4747 65.9688C38.5478 65.4882 38.4085 63.7079 38.4716 62.7862Z" fill="#F3C173"/>
<path d="M34.5253 61.9976L36.4202 61.9729C37.3914 62.2506 37.6652 62.4972 38.4718 62.7878C38.4088 63.7095 38.5479 65.4903 38.4747 65.9709L34.5308 65.4691C34.4633 64.6421 34.5231 62.8932 34.5253 61.9976Z" fill="#E3A757"/>
<path d="M38.4343 58.4197C39.612 58.6071 40.8025 58.7012 41.995 58.7008L42.1121 58.8215C41.6247 59.3512 41.9702 60.9402 41.9344 61.7194C40.8136 61.7004 39.6925 61.6907 38.5715 61.6926C38.4103 62.0377 38.4578 62.4045 38.4716 62.7862C37.665 62.4955 37.3914 62.2495 36.4203 61.9718C36.9004 61.6788 37.0612 61.6556 37.6127 61.5291C37.7461 61.5597 38.0326 61.587 38.1813 61.6052C38.6344 61.1374 38.4274 59.281 38.4343 58.4197Z" fill="var(--fill-0, #C48844)"/>
<path d="M34.5324 61.1671C35.5286 61.17 36.6958 61.1172 37.6127 61.5291C37.0612 61.6556 36.9004 61.6788 36.4203 61.9718L34.5253 61.9965L34.5324 61.1671Z" fill="var(--fill-0, #C48844)"/>
<path d="M47.9215 78.4235C48.9518 78.4518 49.9968 78.5034 51.028 78.5451C52.2687 78.6105 53.5278 78.6916 54.7688 78.6954C55.7016 78.7145 56.7411 78.7151 57.6622 78.7794C57.6537 79.6945 57.6611 81.8688 57.7517 82.7515H54.8099L52.1033 82.7344C51.2238 82.5408 48.9088 82.4987 47.9211 82.4627C48.0806 81.295 47.9742 79.6322 47.9215 78.4235Z" fill="#F3C173"/>
<path d="M47.9542 70.619C49.0104 70.6272 49.8916 70.7424 51.0153 70.7144C52.2578 70.7979 53.5517 70.91 54.7923 70.8774C55.7002 70.8886 56.7049 70.8785 57.5979 70.9709C57.6925 72.5221 57.679 73.5935 57.6991 75.1056C56.7941 75.0281 55.6814 74.903 54.794 74.9403C53.5819 74.9175 52.2863 74.8359 51.0685 74.7814C50.1721 74.6623 48.9034 74.6776 47.9708 74.6634C48.0653 73.3703 47.9909 71.9263 47.9542 70.619Z" fill="#F3C173"/>
<path d="M41.9453 66.3297C43.67 66.568 46.1276 66.6657 47.9074 66.7641C47.8338 68.0662 47.7243 69.3338 47.9161 70.6311C46.0173 70.4331 43.78 70.4014 41.9853 70.1323L41.9405 69.5762C41.9275 68.8098 41.792 66.9326 41.9453 66.3297Z" fill="#966733"/>
<path d="M41.9444 74.2501C43.8488 74.3789 46.0313 74.4787 47.9071 74.6888C47.8111 76.0801 47.8231 76.9279 47.882 78.3199C45.9056 78.2681 43.9325 78.1281 41.9687 77.9005L41.9398 77.3415L41.9444 74.2501Z" fill="#966733"/>
<path d="M42.1121 58.8215C44.0565 59.0518 45.9591 59.1716 47.912 59.305C47.8026 60.6734 47.8088 61.5462 47.8662 62.9262C46.399 62.8305 43.3163 62.5225 41.9501 62.5347L41.9344 61.7194C41.9702 60.9402 41.6247 59.3512 42.1121 58.8215Z" fill="#966733"/>
<path d="M38.4413 77.4985C38.6027 76.7714 41.3067 77.2126 41.9398 77.3415L41.9687 77.9005C41.8824 79.2353 41.9287 80.5954 41.9528 81.9344C40.863 81.7436 39.612 81.6975 38.4923 81.586C38.379 80.3934 38.4833 78.7677 38.4413 77.4985Z" fill="#F3C173"/>
<path d="M51.0685 74.7814C52.2863 74.8359 53.5819 74.9175 54.794 74.9403L54.7685 78.6942C53.5276 78.6904 52.2687 78.6105 51.028 78.5451C51.006 77.2234 50.9955 76.1091 51.0685 74.7814Z" fill="#966733"/>
<path d="M91.1344 47.5594L91.2257 47.5567C91.8555 47.7718 94.4174 47.7971 95.2658 47.8364C95.2741 48.6115 95.3023 49.4659 95.2591 50.2339C95.9389 50.1935 96.6195 50.1418 97.3001 50.1557C97.3542 51.5437 97.4381 53.1862 97.3288 54.5563C97.378 55.3987 97.4664 56.2777 97.3509 57.1094C97.3633 58.5988 97.4102 60.231 97.3632 61.7092C97.387 62.4962 97.4518 63.4964 97.3606 64.2631C97.3768 65.864 97.4241 67.5388 97.3259 69.1316C97.3563 69.8059 97.4491 71.0118 97.3473 71.6271C97.3776 73.4219 97.4059 74.8804 97.2818 76.6689C96.5247 76.6984 95.3954 76.771 94.67 76.7257C93.5605 76.7636 91.4398 77.9866 90.6951 77.5058L90.6807 76.9636C89.941 76.9667 88.7263 77.174 87.9894 77.348C87.9867 78.3641 88.0238 79.6892 87.9759 80.6785C87.2249 80.7902 85.8429 81.0316 85.1385 81.0526C85.1716 79.7861 85.1931 78.6493 85.1558 77.3781L85.1185 76.6957C83.9724 76.9187 83.0193 76.9529 81.9067 77.1315L81.6546 76.9589L81.6774 75.0048C80.4474 75.1182 79.4376 75.1126 78.2312 74.8672C78.1986 74.5562 78.2013 74.5728 78.0351 74.3057C77.5451 74.0634 76.7786 74.3548 76.1692 74.3698C74.6427 74.4959 73.0712 74.7074 71.5577 74.8026L71.9116 74.6108C72.1552 73.9005 71.9802 71.6652 71.9636 70.7288L71.692 70.5683C70.9939 70.6236 70.1136 70.6117 69.4 70.6217C69.364 69.4183 69.3552 68.214 69.3736 67.0102C70.2401 66.9321 71.108 66.8692 71.9767 66.8216C71.8532 65.6828 72.0131 64.0947 72.0804 62.9111C73.6325 62.6574 76.26 62.5657 78.0048 62.3344L78.0954 62.1555C78.2512 61.5008 78.1847 59.6431 78.1741 58.8635L78.2569 58.8C78.8545 58.6291 80.8761 58.5345 81.6311 58.4839L81.7763 58.4104C82.8822 58.2682 84.005 58.0553 85.1634 57.9108C85.3339 57.3054 85.3335 53.7526 85.1836 53.045L85.1666 51.3644L88.0244 51.3365C87.9971 50.12 88.0062 48.9028 88.0515 47.6866C88.822 47.6085 90.1278 47.5282 90.8619 47.6709L91.1344 47.5594Z" fill="var(--fill-0, #C48844)"/>
<path d="M81.7759 58.407C82.8818 58.2649 84.0046 58.0519 85.1629 57.9074L85.1266 58.2585C85.1867 59.0364 85.1852 59.665 85.1801 60.4399C87.8655 61.1727 88.707 62.7711 88.0469 65.5178L88.2578 65.6266C89.5207 65.0822 90.896 63.1392 92.4732 63.2599C93.3684 63.7644 93.0422 65.296 92.8107 66.128C92.5819 66.4671 92.2742 66.7679 92.4045 67.1653C92.7831 68.3196 93.0711 68.5599 93.3253 69.7992C91.4425 72.5682 89.2756 68.8513 88.3199 69.8529L88.2769 70.0418C88.4753 70.7357 88.4644 70.8692 88.3964 71.5953C87.7184 73.1416 87.0378 73.4419 85.4033 73.8119C85.3038 74.2204 85.1967 74.5388 85.2222 74.9581L85.1262 75.2159L85.2325 76.1171L85.1185 76.6927C83.9724 76.9157 83.0193 76.95 81.9067 77.1286L81.6546 76.9559L81.6774 75.0018C80.4474 75.1153 79.4376 75.1096 78.2312 74.8643C78.1986 74.5532 78.2013 74.5698 78.0351 74.3027C77.5451 74.0605 76.7786 74.3518 76.1692 74.3668C74.6427 74.4929 73.0707 74.7041 71.5573 74.7994L71.9112 74.6076C72.1547 73.8973 71.9798 71.6619 71.9632 70.7256L71.6915 70.565C70.9935 70.6204 70.1131 70.6085 69.3996 70.6185C69.3635 69.415 69.3547 68.2108 69.3731 67.0069C70.2397 66.9288 71.1075 66.866 71.9763 66.8183C71.8527 65.6795 72.0126 64.091 72.0798 62.9074C73.632 62.6536 76.2595 62.5619 78.0043 62.3306L78.0949 62.1517C78.2507 61.497 78.1841 59.6394 78.1736 58.8597L78.2565 58.7966C78.8541 58.6257 80.8757 58.5311 81.6307 58.4806L81.7759 58.407Z" fill="#463C36"/>
<path d="M81.7759 58.407C82.8818 58.2649 84.0046 58.0519 85.1629 57.9074L85.1266 58.2585C85.1867 59.0364 85.1852 59.665 85.1801 60.4399C87.8655 61.1727 88.707 62.7711 88.0469 65.5178C87.8792 65.3616 87.7078 65.2096 87.5325 65.0617C84.734 62.7096 82.0205 62.5316 78.5164 62.8249L79.0689 61.9335C78.7 61.7136 78.7266 61.6509 78.3354 61.6593L78.0949 62.1517C78.2507 61.497 78.1841 59.6394 78.1736 58.8597L78.2565 58.7966C78.8541 58.6257 80.8757 58.5311 81.6307 58.4806L81.7759 58.407Z" fill="#34B6B8"/>
<path d="M78.2569 58.798C78.8545 58.6271 80.8761 58.5326 81.6311 58.482L81.653 60.5682C80.5054 60.9565 80.0836 61.2307 79.0689 61.935C78.7 61.7151 78.7266 61.6524 78.3354 61.6607L78.0954 62.1535C78.2512 61.4988 78.1847 59.6412 78.1741 58.8615L78.2569 58.798Z" fill="var(--fill-0, #C48844)"/>
<path d="M81.7759 58.407C82.8818 58.2649 84.0046 58.0519 85.1629 57.9074L85.1266 58.2585C85.1867 59.0364 85.1852 59.665 85.1801 60.4399C83.8429 60.3588 82.9924 60.3637 81.6534 60.5667L81.6307 58.4806L81.7759 58.407Z" fill="#966733"/>
<path d="M78.0954 62.1535L78.3354 61.6607C78.7266 61.6524 78.7 61.7151 79.0689 61.935L78.5168 62.8263C75.7637 63.7195 74.5619 64.3692 72.9553 66.8358L71.9765 66.8201C71.853 65.6813 72.0131 64.0928 72.0804 62.9092C73.6325 62.6555 76.26 62.5637 78.0048 62.3324L78.0954 62.1535Z" fill="#E3A757"/>
<path d="M71.9767 66.8216L72.9553 66.8358C72.7437 67.9897 72.6804 69.1179 73.0965 70.254C72.515 70.4343 72.2948 70.4857 71.692 70.5683C70.9939 70.6236 70.1136 70.6117 69.4 70.6217C69.364 69.4183 69.3552 68.214 69.3736 67.0102C70.2401 66.9321 71.108 66.8692 71.9767 66.8216Z" fill="#966733"/>
<path d="M81.8738 73.8315C82.4039 73.6914 82.5586 73.718 83.1084 73.7622C83.7416 74.1389 84.6606 73.9188 85.4034 73.8148C85.3039 74.2234 85.1968 74.5417 85.2224 74.9611L85.1264 75.2188L85.2326 76.12L85.1185 76.6957C83.9724 76.9187 83.0193 76.9529 81.9067 77.1315L81.6546 76.9589L81.6774 75.0048L81.6677 74.8923L81.8738 73.8315Z" fill="#966733"/>
<path d="M81.8738 73.8315C82.4039 73.6914 82.5586 73.718 83.1084 73.7622C83.7416 74.1389 84.6606 73.9188 85.4034 73.8148C85.3039 74.2234 85.1968 74.5417 85.2224 74.9611L85.1264 75.2188C84.5615 74.7059 82.436 74.8544 81.6677 74.8923L81.8738 73.8315Z" fill="#835E41"/>
<path d="M71.692 70.5683C72.2948 70.4857 72.515 70.4343 73.0965 70.254C73.1763 70.491 73.3143 70.861 73.369 71.0915C73.3312 73.0425 74.8488 73.4946 76.1692 74.3698C74.6427 74.4959 73.0712 74.7074 71.5577 74.8026L71.9116 74.6108C72.1552 73.9005 71.9802 71.6652 71.9636 70.7288L71.692 70.5683Z" fill="#E3A757"/>
<path d="M73.369 71.0915C75.6834 73.5336 78.5824 74.2188 81.8738 73.8315L81.6677 74.8923L81.6774 75.0048C80.4474 75.1182 79.4376 75.1126 78.2312 74.8672C78.1986 74.5562 78.2013 74.5728 78.0351 74.3057C77.5451 74.0634 76.7786 74.3548 76.1692 74.3698C74.8488 73.4946 73.3312 73.0425 73.369 71.0915Z" fill="var(--fill-0, #C48844)"/>
<path d="M83.1084 73.7622C85.613 72.7031 86.6113 72.2372 88.2769 70.0444C88.4754 70.7382 88.4644 70.8718 88.3964 71.5979C87.7184 73.1442 87.038 73.4448 85.4034 73.8148C84.6606 73.9188 83.7416 74.1389 83.1084 73.7622Z" fill="#34B6B8"/>
<path d="M76.4609 66.2383C77.0053 65.9664 77.6539 66.0075 78.1594 66.3462C78.6649 66.6849 78.9494 67.2687 78.9042 67.8752C78.8591 68.4815 78.4913 69.0168 77.9411 69.277C77.1032 69.6733 76.1022 69.3219 75.6966 68.4892C75.2908 67.6564 75.6318 66.6526 76.4609 66.2383Z" fill="#F3C173"/>
<path d="M85.4033 73.8119C87.0378 73.4419 87.7184 73.1416 88.3964 71.5953C88.3661 72.1185 88.3457 72.6989 88.287 73.2149C89.0422 72.9463 90.016 72.6307 90.7411 72.3331C90.644 73.0553 90.553 73.4904 90.672 74.22C90.6849 75.0359 90.7329 76.174 90.6809 76.9609C89.9411 76.964 88.7265 77.1713 87.9896 77.3453C87.9869 78.3614 88.024 79.6865 87.9761 80.6758C87.2251 80.7875 85.843 81.0289 85.1386 81.0499C85.1717 79.7834 85.1932 78.6466 85.1559 77.3754L85.1185 76.6927L85.2325 76.1171L85.1262 75.2159L85.2222 74.9581C85.1967 74.5388 85.3038 74.2204 85.4033 73.8119Z" fill="#966733"/>
<path d="M85.2326 76.1187C86.1591 75.992 87.0739 75.7838 87.9893 75.5909L87.9896 77.3467C87.9869 78.3628 88.024 79.6879 87.9761 80.6771C87.2251 80.7888 85.843 81.0302 85.1386 81.0513C85.1717 79.7847 85.1932 78.6479 85.1559 77.3767L85.1187 76.6944L85.2326 76.1187Z" fill="#F3C173"/>
<path d="M85.2224 74.9611C85.7997 74.8066 87.7534 74.0412 87.9265 74.073C88.1516 74.5169 87.974 75.0689 87.989 75.5922C87.0736 75.7851 86.1591 75.9933 85.2326 76.12L85.1264 75.2188L85.2224 74.9611Z" fill="var(--fill-0, #C48844)"/>
<path d="M85.1666 51.3644L88.0244 51.3365L88.0153 51.5151C87.9499 53.6456 87.9902 55.9114 87.9954 58.053C87.1393 58.1856 86.286 58.336 85.4362 58.5039C85.3493 58.439 85.1966 58.3341 85.1268 58.2612L85.1634 57.9108C85.3339 57.3054 85.3335 53.7526 85.1836 53.045L85.1666 51.3644Z" fill="#F3C173"/>
<path d="M90.672 74.2212C91.8152 74.1046 93.5144 73.4855 94.6233 73.0982C94.6474 73.9105 94.5863 76.159 94.6701 76.7242C93.5607 76.7621 91.44 77.9851 90.6952 77.5044L90.6809 76.9621C90.7329 76.1752 90.6849 75.0372 90.672 74.2212Z" fill="#F3C173"/>
<path d="M90.8318 52.2966C91.9518 51.9046 93.4096 51.3577 94.5575 51.1901C94.5995 51.9019 94.757 54.0571 94.6685 54.6456C93.3205 54.9768 92.0332 55.4129 90.701 55.7911C90.7145 55.2366 90.7199 52.6534 90.8318 52.2966Z" fill="#F3C173"/>
<path d="M90.6436 59.502C91.6244 59.285 93.6696 58.7499 94.5879 58.3849C94.642 59.6114 94.6453 60.6366 94.6188 61.8651C93.1026 62.3466 92.3641 62.6937 90.7607 62.7133C90.6929 61.6301 90.7538 60.6085 90.6436 59.502Z" fill="#F3C173"/>
<path d="M88.0512 47.6831C88.8216 47.605 90.1275 47.5246 90.8616 47.6673C90.6696 48.8921 90.7006 50.9473 90.6825 52.2444C89.8574 52.3322 88.9305 52.7001 88.3943 52.5843C87.9864 52.2386 88.1088 52.2066 88.0153 51.5122L88.0241 51.3329C87.9968 50.1164 88.0059 48.8992 88.0512 47.6831Z" fill="#966733"/>
<path d="M87.9858 58.1777C89.0404 58.069 89.6796 57.918 90.7167 57.67C90.6797 58.19 90.5949 59.0059 90.644 59.5011C90.514 60.1469 90.5657 61.0009 90.578 61.6749C89.6502 61.8264 88.9201 61.9672 88.0068 62.1876L87.99 60.6031L87.9858 58.1777Z" fill="#966733"/>
<path d="M94.6188 61.8651C95.4867 61.8617 96.4865 61.7709 97.3632 61.7092C97.387 62.4962 97.4518 63.4964 97.3606 64.2631C96.7229 64.3197 95.6651 64.4744 95.0888 64.3073C94.3878 63.6314 94.7991 63.1452 94.6377 61.9932L94.6188 61.8651Z" fill="#966733"/>
<path d="M97.3256 69.1299C97.356 69.8042 97.4488 71.01 97.347 71.6254C96.6144 71.6052 95.4172 71.6885 94.6501 71.7167C94.6061 70.6001 94.6443 70.3111 94.8213 69.1884C95.6557 69.1567 96.4907 69.1372 97.3256 69.1299Z" fill="#966733"/>
<path d="M94.6685 54.6456C95.5885 54.6815 96.4126 54.6147 97.3291 54.5542C97.3784 55.3965 97.4667 56.2756 97.3512 57.1073L94.702 57.1343C94.604 56.1232 94.5866 55.6508 94.6685 54.6456Z" fill="#966733"/>
<path d="M92.8111 66.1296C93.2765 66.0476 94.172 65.8226 94.5668 66.0058C94.6214 67.0549 94.6774 68.0338 94.6586 69.084L93.3257 69.8008C93.0715 68.5614 92.7835 68.3212 92.4049 67.1669C92.2746 66.7695 92.5823 66.4687 92.8111 66.1296Z" fill="#F3C173"/>
<path d="M76.1692 74.3668C76.7786 74.3518 77.5451 74.0605 78.0351 74.3027C78.2013 74.5698 78.1986 74.5532 78.2312 74.8643C79.4376 75.1096 80.4474 75.1153 81.6774 75.0018L81.6546 76.9559L81.9067 77.1286C83.0193 76.95 83.9724 76.9157 85.1185 76.6927L85.1559 77.3754C85.1932 78.6466 85.1717 79.7834 85.1386 81.0499C85.843 81.0289 87.2251 80.7875 87.9761 80.6758C87.9959 81.3072 87.8393 82.3642 88.034 82.7461C88.3223 82.8471 88.3907 82.8003 88.7025 82.7201L88.7484 82.8307C89.0059 83.4565 89.1002 83.5971 88.8615 84.172C88.076 84.8209 85.911 84.815 84.7323 84.9311C84.7468 85.1599 84.7578 85.3889 84.7653 85.6181C84.7797 86.0954 84.8042 86.3663 84.4652 86.7243C83.3975 87.1126 73.2828 87.0779 71.772 87.051L71.558 88.7992C69.2778 88.899 66.2788 88.8227 63.9582 88.8243L47.4884 88.837C47.4542 88.3372 47.5874 87.2057 47.0412 87.0429C45.1321 86.4737 36.2669 87.3988 35.0517 86.6191C34.7054 86.1683 34.8273 85.544 34.8722 84.9705C34.013 84.8782 31.1007 84.7102 30.6019 84.194C30.4818 83.6528 30.731 83.3917 30.8363 82.7901L30.8489 82.7143C31.1227 82.7837 31.2003 82.7941 31.4827 82.8051C32.1895 82.0798 31.0487 81.3513 32.0572 80.7923C32.7486 80.8808 33.6195 81.0171 34.3008 81.0598C34.6495 80.6681 34.5234 78.1536 34.5193 77.4606C35.5225 77.6328 37.4867 77.8451 38.4413 77.4985C38.4833 78.7677 38.379 80.3934 38.4923 81.586C38.4583 82.5056 38.3984 83.4825 38.4551 84.3952C39.7969 84.5645 40.6428 84.4262 41.9744 84.3813L41.8476 81.9639C43.27 82.1778 46.3611 82.3243 47.8903 82.3858C47.7475 83.5966 47.7478 84.8197 47.8913 86.0303C48.1342 85.9839 50.565 85.9623 50.9289 85.9541C51.0498 84.7971 50.8023 83.9462 51.1248 82.9592C51.5032 82.6359 51.474 82.7429 52.1029 82.7314L54.8095 82.7486L57.7513 82.7483L64.3701 82.739C64.8204 82.7353 65.5661 82.7518 65.9891 82.6965C66.5418 82.5933 69.1912 82.6137 69.9029 82.6072C70.5498 82.6013 71.2642 82.5466 71.9156 82.5109C71.8553 81.3934 72.1827 79.469 71.9775 78.5376L71.6985 78.385L70.7685 78.4587C70.3396 78.4779 69.9878 78.5465 69.6257 78.3467C69.0608 77.6236 69.351 75.9261 69.3853 74.8904C70.0728 74.8232 70.8597 74.8192 71.5573 74.7994C73.0707 74.7041 74.6427 74.4929 76.1692 74.3668Z" fill="#966733"/>
<path d="M76.1692 74.3668C76.7786 74.3518 77.5451 74.0605 78.0351 74.3027C78.2013 74.5698 78.1986 74.5532 78.2312 74.8643C79.4376 75.1096 80.4474 75.1153 81.6774 75.0018L81.6546 76.9559L81.9067 77.1286C83.0193 76.95 83.9724 76.9157 85.1185 76.6927L85.1559 77.3754C85.1932 78.6466 85.1717 79.7834 85.1386 81.0499C84.1351 81.1673 82.62 81.3921 81.6349 81.4418C81.6596 82.3791 81.6642 83.4458 81.7325 84.3701C80.4102 84.4765 79.4937 84.5136 78.1692 84.4952C78.153 83.6532 78.1167 82.7197 78.1445 81.8873C76.0817 82.1657 73.9903 82.3295 71.9156 82.5109C71.8553 81.3934 72.1827 79.469 71.9775 78.5376L71.6985 78.385L70.7685 78.4587C70.3396 78.4779 69.9878 78.5465 69.6257 78.3467C69.0608 77.6236 69.351 75.9261 69.3853 74.8904C70.0728 74.8232 70.8597 74.8192 71.5573 74.7994C73.0707 74.7041 74.6427 74.4929 76.1692 74.3668Z" fill="#E3A757"/>
<path d="M76.1692 74.3668C76.7786 74.3518 77.5451 74.0605 78.0351 74.3027C78.2013 74.5698 78.1986 74.5532 78.2312 74.8643C78.1323 75.6425 78.1134 76.6617 78.1554 77.4509L78.1222 77.6801C77.0035 77.8942 72.1488 78.1978 71.6985 78.385L70.7685 78.4587C70.3396 78.4779 69.9878 78.5465 69.6257 78.3467C69.0608 77.6236 69.351 75.9261 69.3853 74.8904C70.0728 74.8232 70.8597 74.8192 71.5573 74.7994C73.0707 74.7041 74.6427 74.4929 76.1692 74.3668Z" fill="#966733"/>
<path d="M78.2312 74.8643C79.4376 75.1096 80.4474 75.1153 81.6774 75.0018L81.6546 76.9559L81.6403 77.2826C81.7008 78.7189 81.7339 79.8615 81.6852 81.3085C80.4634 81.4988 79.3913 81.6581 78.1536 81.7697C78.1573 80.4067 78.1469 79.0428 78.1222 77.6801L78.1554 77.4509C78.1134 76.6617 78.1323 75.6425 78.2312 74.8643Z" fill="#F3C173"/>
<path d="M78.2312 74.8643C79.4376 75.1096 80.4474 75.1153 81.6774 75.0018L81.6546 76.9559L81.6403 77.2826C80.6231 77.1534 79.1377 77.1608 78.1554 77.4509C78.1134 76.6617 78.1323 75.6425 78.2312 74.8643Z" fill="#E3A757"/>
<path d="M81.655 76.9574L81.9071 77.1301C83.0197 76.9515 83.9725 76.9173 85.1187 76.6944L85.1559 77.3767C84.8698 77.8387 82.0215 77.6297 81.6403 77.2826L81.655 76.9574Z" fill="var(--fill-0, #C48844)"/>
<path d="M34.5197 77.4631C35.5229 77.6352 37.4865 77.8462 38.4411 77.4996C38.4831 78.7688 38.3788 80.3945 38.4921 81.5871C37.1385 81.3948 35.6127 81.2908 34.3005 81.0615C34.6492 80.6698 34.5238 78.156 34.5197 77.4631Z" fill="#E3A757"/>
<path d="M52.1033 82.7344L54.8099 82.7515C54.7934 83.8692 54.759 85.034 54.7767 86.1474C53.6913 86.1493 48.5527 86.2131 47.8914 86.0333C48.1343 85.9869 50.5652 85.9653 50.9291 85.9571C51.0499 84.8001 50.8024 83.9492 51.125 82.9622C51.5033 82.6389 51.4744 82.7459 52.1033 82.7344Z" fill="var(--fill-0, #C48844)"/>
<path d="M65.9896 82.6997C66.5422 82.5965 69.1917 82.6169 69.9034 82.6104C70.0485 83.7736 70.0745 84.9483 69.9818 86.1166C68.9098 86.1477 67.8055 86.1946 66.7363 86.1661C66.527 84.9778 66.7747 83.1659 66.5875 82.8099L65.9896 82.6997Z" fill="#E3A757"/>
<path d="M54.8099 82.7515H57.7517L57.725 86.1388L54.7767 86.1474C54.759 85.034 54.7934 83.8692 54.8099 82.7515Z" fill="#E3A757"/>
<path d="M64.3701 82.739C64.8204 82.7353 65.5661 82.7518 65.9891 82.6965L66.5875 82.807C66.7746 83.1629 66.527 84.9748 66.7363 86.1632C65.8657 86.3003 65.2646 86.2252 64.4037 86.1441C64.3099 85.1281 64.3592 83.7853 64.3701 82.739Z" fill="var(--fill-0, #C48844)"/>
<path d="M31.4909 92.2062C32.3963 92.4817 35.4323 92.4382 36.5282 92.3787C36.3653 94.2707 36.4197 94.9633 38.498 94.9952C40.9081 95.0321 43.3132 95.0239 45.7234 95.0242L73.0996 95.023C75.6607 95.0254 78.2185 95.0366 80.7795 94.9998C82.9744 94.9682 83.0505 94.6706 82.9801 92.4662C84.0969 92.444 87.2006 92.4385 88.0951 92.2282C89.2335 92.8197 91.1209 92.7655 91.8822 94.0179C92.0393 94.2764 92.1907 94.6069 92.0782 94.9087C91.9189 95.3365 91.4234 95.7938 91.031 96.0003C80.7058 101.434 42.4693 100.859 31.2685 97.1C30.3788 96.8015 27.9989 95.9048 27.6248 95.0396C27.5056 94.7639 27.5269 94.46 27.6473 94.1886C28.199 92.9457 30.3088 92.6816 31.4318 92.2308C31.4516 92.2228 31.4712 92.2145 31.4909 92.2062Z" fill="#FFD660"/>
<path d="M88.7025 82.7201C89.3793 82.544 91.8319 82.0125 92.162 81.6661C92.155 82.8753 92.1589 84.0847 92.1736 85.2938C91.3754 85.3609 90.4229 85.4662 89.6361 85.4666C89.6923 89.2309 88.5561 87.2396 86.436 87.942C85.8899 88.123 85.9658 89.4209 85.9597 90.0152C84.2836 90.0388 82.3673 90.0082 80.7195 90.0755L80.6952 92.1652C68.5353 92.3389 56.3364 92.1243 44.1723 92.2022C42.3959 92.2136 40.584 92.2268 38.8106 92.1764L38.8484 90.0562C37.7279 90.0674 34.4757 90.2177 33.5892 89.8219C33.3682 89.4271 33.5446 88.3858 33.5934 87.8668C32.3567 87.8646 31.1423 87.7648 29.9693 87.762C29.9491 86.9915 29.9132 86.1835 29.9403 85.4163L27.3916 85.3258C27.4024 84.7455 27.4132 82.3028 27.5009 81.8784C28.5571 81.9693 29.7668 82.4518 30.8489 82.7143L30.8363 82.7901C30.731 83.3917 30.4818 83.6528 30.6019 84.194C31.1007 84.7102 34.013 84.8782 34.8722 84.9705C34.8273 85.544 34.7054 86.1683 35.0517 86.6191C36.2669 87.3988 45.1321 86.4737 47.0412 87.0429C47.5874 87.2057 47.4542 88.3372 47.4884 88.837L63.9582 88.8243C66.2788 88.8227 69.2778 88.899 71.558 88.7992L71.772 87.051C73.2828 87.0779 83.3975 87.1126 84.4652 86.7243C84.8042 86.3663 84.7797 86.0954 84.7653 85.6181C84.7578 85.3889 84.7468 85.1599 84.7323 84.9311C85.911 84.815 88.076 84.8209 88.8615 84.172C89.1002 83.5971 89.0059 83.4565 88.7484 82.8307L88.7025 82.7201Z" fill="#835E41"/>
<path d="M22.5994 69.1434L24.7151 69.1645L24.8103 69.2062C26.1964 69.4241 27.1358 70.2699 28.5897 70.1081L28.8641 69.8738C29.533 69.5669 30.9072 69.6584 31.6819 69.6628L31.6723 73.1713C32.637 73.1837 33.4655 73.3693 34.41 73.5487C34.4382 74.3881 34.4611 75.2275 34.479 76.0672L34.5415 76.4885L34.5193 77.4606C34.5234 78.1536 34.6495 80.6681 34.3008 81.0598C33.6195 81.0171 32.7486 80.8808 32.0572 80.7923C31.0487 81.3513 32.1895 82.0798 31.4827 82.8051C31.2003 82.7941 31.1227 82.7837 30.8489 82.7143C29.7668 82.4518 28.5571 81.9693 27.5009 81.8784C27.4193 81.1705 27.3972 80.3682 27.3613 79.6498C26.6708 79.5572 25.4528 79.5457 24.7136 79.5195C24.6952 78.6312 24.751 77.6851 24.7875 76.7922C24.0716 76.8013 23.3347 76.7437 22.6184 76.7006C22.5883 75.0829 22.6076 73.4049 22.6056 71.7823C22.4692 71.1085 22.5665 69.8638 22.5994 69.1434Z" fill="var(--fill-0, #C48844)"/>
<path d="M31.6722 73.1737C32.6369 73.1861 33.4661 73.3716 34.4105 73.551C34.4387 74.3904 34.4617 75.2298 34.4795 76.0695L34.542 76.4908L34.5197 77.4631C34.5238 78.156 34.6492 80.6698 34.3005 81.0615C33.6192 81.0189 32.7482 80.8832 32.0568 80.7947L31.8916 80.7218C31.5126 80.1422 31.6845 77.0434 31.6927 76.1488L31.714 75.7584C31.6593 74.8108 31.6147 74.1208 31.6722 73.1737Z" fill="#F3C173"/>
<path d="M31.6722 73.1737C32.6369 73.1861 33.4661 73.3716 34.4105 73.551C34.4387 74.3904 34.4617 75.2298 34.4795 76.0695C33.6073 76.0141 32.5944 75.8674 31.714 75.7584C31.6593 74.8108 31.6147 74.1208 31.6722 73.1737Z" fill="var(--fill-0, #C48844)"/>
<path d="M28.7762 72.324C29.9102 72.8818 30.4667 73.0357 31.6723 73.1713C31.6148 74.1183 31.6594 74.8087 31.7141 75.7562L31.6929 76.1466C31.5893 76.7881 31.7023 76.7938 31.3164 77.1268C30.7427 77.2819 29.633 76.9666 28.8849 76.8627C28.8796 75.3492 28.8433 73.836 28.7762 72.324Z" fill="#966733"/>
<path d="M22.5994 69.1434L24.7151 69.1645L24.8103 69.2062C24.7715 70.0688 24.7293 70.7353 24.6191 71.591C23.9047 71.6362 23.3125 71.6955 22.6056 71.7823C22.4692 71.1085 22.5665 69.8638 22.5994 69.1434Z" fill="#966733"/>
<path d="M24.827 73.2904C25.748 73.2115 27.7311 73.9253 28.552 74.2669C28.8676 74.3983 28.7675 77.1984 28.7966 77.8465C27.4159 77.4184 26.2153 76.9691 24.793 76.6434C24.6315 75.393 24.5979 74.5342 24.827 73.2904Z" fill="#F3C173"/>
<path d="M31.7108 60.7049C32.1072 60.7469 34.2402 60.9328 34.4762 61.0368L34.5324 61.1671L34.5253 61.9965C34.5231 62.8922 34.4636 64.6398 34.5312 65.4668L34.4095 65.7996C34.529 66.8411 34.5366 67.5872 34.5418 68.6397L34.506 68.7078L34.5389 69.6052L34.4375 73.4697L34.4105 73.551C33.4661 73.3716 32.637 73.1837 31.6723 73.1713L31.6819 69.6628C30.9072 69.6584 29.533 69.5669 28.8641 69.8738L28.5897 70.1081C27.1358 70.2699 26.1964 69.4241 24.8103 69.2062L24.7151 69.1645L22.5994 69.1434L22.6185 64.34C22.5016 63.6262 22.5333 62.5463 22.6134 61.8326L24.7016 61.731L24.7904 61.853C25.8986 62.1362 27.4731 62.6743 28.7121 63.0082L28.8068 60.9116L28.9071 61.7941C29.1181 61.9597 31.3885 62.1107 31.6682 61.9866L31.7108 60.7049Z" fill="var(--fill-0, #C48844)"/>
<path d="M24.7148 69.1656C24.6961 68.8899 24.6823 68.614 24.6735 68.3379C24.6431 67.538 24.5022 66.6597 25.0563 66.0618C25.7849 65.7232 27.7637 66.6288 28.7874 66.9034C28.8464 67.9175 28.8575 68.8586 28.8638 69.8748L28.5895 70.1091C27.1356 70.2709 26.1961 69.4251 24.81 69.2072L24.7148 69.1656Z" fill="#F3C173"/>
<path d="M31.7108 60.7049C32.1072 60.7469 34.2402 60.9328 34.4762 61.0368L34.5324 61.1671L34.5253 61.9965C34.5231 62.8922 34.4636 64.6398 34.5312 65.4668L34.4095 65.7996C33.7058 65.6506 32.4606 65.5376 31.7088 65.4487C31.6682 64.3276 31.6793 63.1156 31.6682 61.9866L31.7108 60.7049Z" fill="#F3C173"/>
<path d="M31.707 68.4932C32.0982 68.517 34.2413 68.625 34.5057 68.7101L34.5385 69.6075L34.4371 73.472L34.4105 73.551C33.4661 73.3716 32.6369 73.1861 31.6722 73.1737L31.6819 69.6652L31.707 68.4932Z" fill="#F3C173"/>
<path d="M28.7969 65.0752C29.8447 65.3623 30.5293 65.5357 31.5983 65.7041C31.6754 66.699 31.703 67.4948 31.707 68.4932L31.6819 69.6652C30.9072 69.6608 29.5325 69.5697 28.8636 69.8766C28.8573 68.8604 28.8462 67.9193 28.7872 66.9052C28.7877 66.3318 28.7691 65.6376 28.7969 65.0752Z" fill="#966733"/>
<path d="M24.7016 61.731L24.7904 61.853L24.6515 64.2658L22.6185 64.34C22.5016 63.6262 22.5333 62.5463 22.6134 61.8326L24.7016 61.731Z" fill="#966733"/>
<path d="M24.7406 54.5455C24.68 53.6238 24.3801 52.0973 25.1703 51.4783C26.0131 51.1697 27.8057 51.929 28.7424 52.2361C29.475 52.2897 31.2246 52.7307 31.6879 52.2804C31.6879 54.1369 31.6416 56.2024 31.696 58.0413C32.208 58.1183 34.057 58.4905 34.3616 58.286L34.4093 58.065L34.5289 58.036C34.5246 59.0148 34.5383 60.0669 34.4762 61.0368C34.2402 60.9328 32.1072 60.7469 31.7108 60.7049L31.6682 61.9866C31.3885 62.1107 29.1181 61.9597 28.9071 61.7941L28.8068 60.9116L28.7121 63.0082C27.4731 62.6743 25.8986 62.1362 24.7904 61.853L24.7016 61.731L22.6134 61.8326L22.5913 57.1164C22.5406 56.4661 22.5182 55.292 22.5994 54.6624C23.3585 54.5975 23.9762 54.5598 24.7406 54.5455Z" fill="var(--fill-0, #C48844)"/>
<path d="M24.7406 54.5455C24.68 53.6238 24.3801 52.0973 25.1703 51.4783C26.0131 51.1697 27.8057 51.929 28.7424 52.2361C28.8213 53.5677 28.797 54.4019 28.7225 55.7399C27.2515 55.3782 26.2018 55.0255 24.8053 54.6317L24.7406 54.5455Z" fill="#F3C173"/>
<path d="M24.7016 61.731C24.674 60.9801 24.5096 59.2533 24.9037 58.66C25.6058 58.4844 28.426 59.3043 28.8758 59.8788L28.8068 60.9116L28.7121 63.0082C27.4731 62.6743 25.8986 62.1362 24.7904 61.853L24.7016 61.731Z" fill="#F3C173"/>
<path d="M28.8766 59.8796C28.8053 59.324 28.6993 58.7803 28.8163 58.2336C29.4493 57.4502 30.7055 58.2089 31.6701 58.32L31.7111 60.7066L31.6686 61.9883C31.3888 62.1124 29.1185 61.9613 28.9075 61.7958L28.8072 60.9133L28.8766 59.8796Z" fill="#966733"/>
<path d="M24.7406 54.5455L24.8053 54.6317C24.6483 55.5622 24.6711 56.1963 24.6765 57.1366C23.94 57.107 23.3313 57.0799 22.5913 57.1164C22.5406 56.4661 22.5182 55.292 22.5994 54.6624C23.3585 54.5975 23.9762 54.5598 24.7406 54.5455Z" fill="#966733"/>
<path d="M90.6809 76.9609L90.6952 77.5044C91.44 77.9851 93.5607 76.7621 94.6701 76.7242C94.6767 77.6144 94.6618 78.646 94.7198 79.5214L92.1977 79.6631L92.1622 81.6672C91.8321 82.0136 89.3792 82.5451 88.7023 82.7212C88.3906 82.8014 88.3221 82.8482 88.0339 82.7472C87.8392 82.3653 87.9959 81.3085 87.9761 80.6771C88.024 79.6879 87.9869 78.3628 87.9896 77.3467C88.7265 77.1727 89.9411 76.964 90.6809 76.9609Z" fill="var(--fill-0, #C48844)"/>
<path d="M24.7179 47.8275C25.8456 47.6746 27.5379 47.7326 28.7663 47.6858L28.8333 47.6983L28.7424 52.2361C27.8057 51.929 26.0131 51.1697 25.1703 51.4783C24.3801 52.0973 24.68 53.6238 24.7406 54.5455C23.9762 54.5598 23.3585 54.5975 22.5994 54.6624C22.6565 53.3624 22.6076 51.6113 22.619 50.275C23.3861 50.139 23.905 50.148 24.6737 50.1407L24.7179 47.8275Z" fill="var(--fill-0, #C48844)"/>
</g>
</g>
<defs>
<filter id="filter0_d_0_4" x="0" y="0" width="120" height="128" filterUnits="userSpaceOnUse" color-interpolation-filters="sRGB">
<feFlood flood-opacity="0" result="BackgroundImageFix"/>
<feColorMatrix in="SourceAlpha" type="matrix" values="0 0 0 0 0 0 0 0 0 0 0 0 0 0 0 0 0 0 127 0" result="hardAlpha"/>
<feOffset dy="8"/>
<feComposite in2="hardAlpha" operator="out"/>
<feColorMatrix type="matrix" values="0 0 0 0 0.305882 0 0 0 0 0.262745 0 0 0 0 0.235294 0 0 0 1 0"/>
<feBlend mode="normal" in2="BackgroundImageFix" result="effect1_dropShadow_0_4"/>
<feBlend mode="normal" in="SourceGraphic" in2="effect1_dropShadow_0_4" result="shape"/>
</filter>
</defs>
</svg>
