<svg width="40" height="41" viewBox="0 0 40 41" fill="none" xmlns="http://www.w3.org/2000/svg">
<path d="M22.4698 40.7185C22.0907 40.8181 21.5257 40.841 21.1247 40.8875C14.3922 41.6657 7.97763 38.3409 4.04713 32.9185C0.610114 28.1767 -0.600258 22.5425 0.273378 16.7534C1.04418 11.4688 3.87476 6.70662 8.14402 3.51183C12.4847 0.311308 17.3304 -0.517389 22.5954 0.286893C23.2352 0.332874 23.8759 0.47099 24.505 0.598452C28.5857 1.41171 32.2792 3.56562 35.0016 6.71956C40.3 12.8325 41.4041 21.9167 38.2278 29.2447C37.0854 31.8798 35.3652 34.3958 33.1837 36.2631C30.1851 38.8676 26.427 40.4307 22.4698 40.7185Z" fill="#FDCE45"/>
<path d="M22.5954 0.286893C23.2352 0.332874 23.8759 0.47099 24.505 0.598452C28.5857 1.41171 32.2792 3.56562 35.0016 6.71956C40.3 12.8325 41.4041 21.9167 38.2278 29.2447C37.0854 31.8798 35.3652 34.3958 33.1837 36.2631C30.1851 38.8676 26.427 40.4307 22.4698 40.7185C22.6363 40.5619 24.4869 40.0404 24.9619 39.8666C27.8078 38.8266 31.0714 36.4077 32.8442 33.9542C33.2151 33.481 33.5214 33.0609 33.8751 32.576C34.2563 31.964 34.6225 31.342 34.9732 30.7118C35.2034 30.2929 35.4125 29.8211 35.616 29.3854C35.8587 28.741 36.1044 28.1612 36.3419 27.4965C36.4998 27.0445 36.6409 26.5868 36.7653 26.124C36.934 25.4774 37.0605 24.9326 37.1672 24.2761C37.2597 23.8457 37.3281 23.2616 37.3926 22.8135C37.4886 22.0612 37.4572 21.4885 37.529 20.8315L37.5303 20.0794C37.5135 19.9976 37.4886 19.1847 37.4774 19.0239C37.4404 18.4777 37.384 17.977 37.3173 17.4326C37.236 16.9387 37.1857 16.5089 37.0815 16.0107C36.9516 15.3275 36.7864 14.6813 36.6087 14.0099C36.4503 13.5899 36.3027 13.0823 36.1655 12.6495C35.9125 12.1543 35.5437 11.2048 35.3174 10.6685C35.1165 10.2586 34.8295 9.78327 34.6074 9.34084C34.4865 9.19785 34.2124 8.74192 34.1006 8.56701C33.8545 8.18234 33.6002 7.80288 33.3386 7.42882C32.9913 7.02595 32.6389 6.57891 32.3016 6.16387C29.8675 3.62925 27.3018 1.81424 23.9236 0.772982C23.644 0.6868 22.7331 0.479445 22.5954 0.286893Z" fill="#F4AA1B"/>
<path d="M37.3926 22.8135C38.02 22.8449 38.559 22.8621 39.1924 22.8125C39.167 23.3353 39.0831 23.7455 38.9871 24.2579C38.3004 24.2049 37.7743 24.3025 37.1672 24.2761C37.2597 23.8457 37.3281 23.2616 37.3926 22.8135Z" fill="#E19A23"/>
<path d="M37.0815 16.0107C37.6869 15.9754 38.2936 15.9672 38.8999 15.9862L39.171 17.379C38.5656 17.3559 37.9257 17.4011 37.3173 17.4326C37.236 16.9387 37.1857 16.5089 37.0815 16.0107Z" fill="#E19A23"/>
<path d="M36.7653 26.124C37.3758 26.1344 37.9868 26.1339 38.5978 26.1236C38.4459 26.5851 38.3052 27.0501 38.1761 27.5181C37.7196 27.5159 36.7085 27.5785 36.3419 27.4965C36.4998 27.0445 36.6409 26.5868 36.7653 26.124Z" fill="#E19A23"/>
<path d="M33.8751 32.576C34.2908 32.6416 35.221 32.6286 35.6655 32.6278C35.3509 33.0949 35.0639 33.5884 34.647 33.9602C34.2301 33.9805 33.2065 34.0491 32.8442 33.9542C33.2151 33.481 33.5214 33.0609 33.8751 32.576Z" fill="#E19A23"/>
<path d="M35.616 29.3854C36.0816 29.4268 36.995 29.4035 37.4584 29.3531C37.2433 29.8452 37.0475 30.3107 36.7864 30.7817C36.3673 30.7653 35.2838 30.7989 34.9732 30.7118C35.2034 30.2929 35.4125 29.8211 35.616 29.3854Z" fill="#E19A23"/>
<path d="M36.1655 12.6495C36.7532 12.5935 37.3866 12.603 37.9783 12.6122C38.0807 12.9225 38.372 13.6174 38.2506 13.9006C38.0557 14.0791 36.98 13.9939 36.6087 14.0099C36.4503 13.5899 36.3027 13.0823 36.1655 12.6495Z" fill="#E19A23"/>
<path d="M37.5333 19.4639C38.1399 19.4194 38.7208 19.4575 39.3189 19.4391C39.3155 19.9008 39.3155 20.3624 39.3185 20.824C38.7174 20.8143 38.1215 20.8395 37.529 20.8315L37.5303 20.0794C37.5372 19.8643 37.5397 19.6809 37.5333 19.4639Z" fill="#E19A23"/>
<path d="M34.6074 9.34084C36.3845 9.3053 36.3057 8.98481 37.0114 10.6477L35.3174 10.6685C35.1165 10.2586 34.8295 9.78327 34.6074 9.34084Z" fill="#E19A23"/>
<path d="M32.3016 6.16387C32.7934 6.1448 33.4117 6.08201 33.8811 6.16332C34.4418 6.63418 34.5648 6.75905 34.8828 7.40093C34.1539 7.49833 33.8777 7.38595 33.3386 7.42882C32.9913 7.02595 32.6389 6.57891 32.3016 6.16387Z" fill="#E19A23"/>
<path d="M17.5804 4.10458C26.454 3.36358 33.082 11.0077 33.5656 19.4306C34.045 27.7743 28.3218 36.1311 19.6641 36.8178C18.8215 36.8433 17.7799 36.8782 16.946 36.7639C9.49079 35.7162 4.16159 29.0687 3.58041 21.7384C2.90488 13.2184 8.73028 4.75712 17.5804 4.10458Z" fill="#F6F1E5"/>
<path d="M17.9961 6.43415C21.0184 6.25777 24.0402 7.32203 26.3684 9.29214C34.4977 16.1706 32.3084 30.644 21.9486 34.0007C20.9917 34.3109 20.3054 34.3937 19.3108 34.4907C16.1794 34.6555 13.1504 33.5081 10.7902 31.4623C7.89356 28.9243 6.13145 25.3294 5.89742 21.48C5.37369 14.064 10.2705 6.96323 17.9961 6.43415Z" fill="#FDCE45"/>
<path d="M17.8686 11.1648C18.9733 11.1128 19.3363 12.4893 19.6586 13.2964C19.9913 14.1438 20.3346 14.9869 20.6888 15.8257C21.5476 15.9119 22.4202 15.9481 23.2855 16.0292C23.9787 16.0941 25.1288 16.0243 25.6761 16.4995C26.1924 16.9475 26.3409 17.8373 25.9644 18.4262C25.6236 18.959 25.1284 19.4074 24.6822 19.8648C24.0931 20.461 23.5118 21.0648 22.9387 21.6761C23.3728 23.0102 23.6504 24.8033 23.9008 26.1814C24.0346 26.9173 22.8044 28.0474 21.9912 27.6868C20.7886 27.1528 19.5523 26.3617 18.431 25.6918L17.9927 25.4477C16.973 26.0011 15.8985 26.8068 14.8534 27.3641C14.4286 27.5686 14.154 27.7739 13.6594 27.6372C11.6112 27.0695 12.6961 24.8033 12.8211 23.3527C12.8564 22.9424 13.0175 22.0478 13.1291 21.6901C12.347 20.9311 11.6125 20.0826 10.8347 19.3222C10.1691 18.6714 9.69714 17.738 10.367 16.8843C10.5212 16.689 10.7289 16.5431 10.9646 16.4645C11.3038 16.3518 12.0393 16.2672 12.4133 16.2261C13.3449 16.124 14.2765 16.0308 15.209 15.9261C15.7505 14.7478 16.2045 13.3892 16.7214 12.1882C16.9953 11.5517 17.2531 11.3988 17.8686 11.1648Z" fill="#F4AA1B"/>
</svg>
