<svg width="90" height="90" viewBox="0 0 90 90" fill="none" xmlns="http://www.w3.org/2000/svg">
<path d="M30.9931 14.9025H35.5201H52.2046H56.9596C58.512 14.6385 62.0081 14.9025 62.0081 14.9025H63.7528H64.9118C64.9118 14.9025 67.1387 15.5061 67.5301 16.8778C67.7188 17.5404 67.5889 17.946 67.6459 18.5659C69.3544 19.7006 70.4014 20.9401 70.8247 22.9912C71.0679 24.1708 70.9491 25.5423 70.9926 26.7468C72.0763 28.5557 71.9323 29.5654 71.9329 31.6176C71.9329 33.0039 71.9096 34.4416 71.9317 35.8265C72.7703 35.8401 73.5153 35.9598 74.1426 36.5783C74.9573 37.3823 75.0223 38.4549 74.9953 39.5195C74.972 41.3415 75.0008 43.1665 74.9922 44.9884C74.9837 46.8868 73.9049 48.1315 71.9372 48.0484C71.9029 49.6503 71.9341 51.3686 71.9341 52.9783C71.9341 55.7097 72.1792 57.9767 70.1018 60.1266C68.887 61.3835 67.3408 61.9783 65.6084 61.9825C62.3358 61.9904 59.0572 61.9844 55.7834 61.985L36.0983 61.9819L27.2112 61.9856C25.661 61.9868 23.4838 62.0638 21.9963 61.8564C20.492 61.6473 18.6038 60.6202 17.5281 59.561C15.7862 57.8457 15.0168 55.8589 15.0182 53.4409C15.0224 46.2059 15.0226 38.9702 15.0223 31.7375L15.0194 25.6766C15.0159 24.3048 14.9224 22.5167 15.1794 21.2035C15.7525 18.2737 18.2764 15.8259 21.1839 15.1386C22.3618 14.8601 24.6736 14.9025 24.6736 14.9025H29.2289H30.9931Z" fill="#4F423A"/>
<path d="M67.6453 18.5664C69.3538 19.7011 70.4008 20.9406 70.8241 22.9918C71.0673 24.1713 70.9484 25.5428 70.9919 26.7473C70.87 26.5996 70.7408 26.4579 70.6048 26.3226C69.6558 25.3866 68.4625 25.0046 67.1436 25.0008C67.2698 22.912 67.4817 20.6628 67.6453 18.5664Z" fill="#6D594C"/>
<path d="M51.4966 38.994C51.1744 39.018 50.7129 38.9522 50.3808 38.9301C44.8059 38.5552 40.0994 34.909 37.7193 29.9368C35.638 25.5887 35.495 20.8509 37.0648 16.2987C38.4762 12.1393 41.48 8.70968 45.4172 6.76246C49.4131 4.82125 53.4655 4.87381 57.615 6.30977C58.1269 6.44241 58.6259 6.6497 59.117 6.84664C62.3048 8.11319 64.9792 10.4064 66.7173 13.3635C70.1039 19.0983 69.6474 26.6108 65.9814 32.0642C64.663 34.0252 62.8937 35.8036 60.847 36.9885C58.028 38.6478 54.7481 39.3516 51.4966 38.994Z" fill="#FDCE45"/>
<path d="M57.6148 6.31171C58.1268 6.44435 58.6257 6.65164 59.1168 6.84858C62.3047 8.11512 64.979 10.4083 66.7171 13.3655C70.1037 19.1003 69.6472 26.6127 65.9812 32.0661C64.6628 34.0271 62.8935 35.8056 60.8468 36.9905C58.0278 38.6498 54.748 39.3535 51.4964 38.9959C51.6547 38.8941 53.2329 38.7484 53.644 38.6786C56.1063 38.262 59.1126 36.7923 60.9151 35.0722C61.2863 34.7448 61.5972 34.4507 61.9561 34.1113C62.3563 33.6731 62.7458 33.2246 63.1239 32.7672C63.3729 32.4628 63.6127 32.1123 63.8425 31.7903C64.1352 31.3052 64.4207 30.873 64.7122 30.3708C64.9075 30.0287 65.09 29.6796 65.2597 29.3238C65.4927 28.8259 65.6764 28.4042 65.8606 27.8891C65.9996 27.5547 66.142 27.0925 66.261 26.7396C66.4508 26.1455 66.5106 25.6775 66.6666 25.1568L66.7795 24.5487C66.7781 24.4801 66.8788 23.8188 66.8937 23.6871C66.945 23.2397 66.9738 22.8263 67.0007 22.3761C67.0083 21.9645 67.0314 21.6093 67.0211 21.1908C67.0174 20.6188 66.9796 20.0715 66.9354 19.5019C66.8695 19.1386 66.8254 18.706 66.7785 18.3354C66.647 17.8972 66.4893 17.0741 66.3856 16.6066C66.2837 16.2451 66.1217 15.8178 66.0075 15.4268C65.9307 15.2931 65.7763 14.8835 65.7117 14.7253C65.5693 14.3775 65.4196 14.0326 65.2632 13.691C65.0415 13.3134 64.8223 12.8992 64.6106 12.5132C63.0141 10.1 61.2037 8.24914 58.6195 6.90299C58.4056 6.79156 57.6978 6.488 57.6148 6.31171Z" fill="#F4AA1B"/>
<path d="M66.2612 26.7376C66.7652 26.8567 67.1998 26.951 67.7207 27.0054C67.6223 27.4245 67.4933 27.7437 67.3392 28.1439C66.7903 27.9986 66.3491 27.9989 65.8607 27.8871C65.9998 27.5527 66.1422 27.0905 66.2612 26.7376Z" fill="#E19A23"/>
<path d="M67.0215 21.188C67.5176 21.2498 68.0108 21.3337 68.4995 21.4395L68.5121 22.6065C68.0246 22.4975 67.4991 22.4386 67.0011 22.3733C67.0086 21.9617 67.0318 21.6065 67.0215 21.188Z" fill="#E19A23"/>
<path d="M65.2595 29.3213C65.753 29.4208 66.2485 29.5116 66.7455 29.5943C66.5537 29.945 66.3704 30.3001 66.1961 30.6594C65.8262 30.5896 64.997 30.4893 64.712 30.3683C64.9073 30.0262 65.0898 29.6771 65.2595 29.3213Z" fill="#E19A23"/>
<path d="M61.9563 34.1108C62.2836 34.2259 63.0398 34.3542 63.4003 34.4198C63.0758 34.7507 62.7696 35.107 62.3762 35.3456C62.0351 35.2998 61.1949 35.2025 60.9153 35.0717C61.2864 34.7443 61.5974 34.4502 61.9563 34.1108Z" fill="#E19A23"/>
<path d="M63.8428 31.79C64.2142 31.893 64.9583 32.0104 65.3416 32.0387C65.0939 32.4047 64.8659 32.752 64.5841 33.094C64.2467 33.0182 63.3632 32.8838 63.1242 32.767C63.3732 32.4625 63.613 32.112 63.8428 31.79Z" fill="#E19A23"/>
<path d="M66.7788 18.3326C67.2637 18.375 67.7759 18.4773 68.2542 18.573C68.2911 18.8393 68.4239 19.4448 68.2834 19.6557C68.0988 19.771 67.2392 19.5416 66.9357 19.4991C66.8698 19.1358 66.8257 18.7032 66.7788 18.3326Z" fill="#E19A23"/>
<path d="M66.8741 24.048C67.3726 24.1025 67.838 24.22 68.3257 24.2944C68.2542 24.6673 68.1855 25.0407 68.1192 25.4145C67.6333 25.3169 67.1463 25.2484 66.6671 25.1535L66.78 24.5454C66.8176 24.3725 66.847 24.2245 66.8741 24.048Z" fill="#E19A23"/>
<path d="M66.0078 15.4253C67.454 15.6616 67.4378 15.3907 67.7626 16.841L66.3859 16.6051C66.284 16.2436 66.122 15.8163 66.0078 15.4253Z" fill="#E19A23"/>
<path d="M64.6103 12.5098C65.012 12.5677 65.5226 12.6092 65.8912 12.745C66.2757 13.2095 66.3569 13.3289 66.5192 13.8955C65.9137 13.8655 65.7065 13.7334 65.2629 13.6876C65.0413 13.31 64.8221 12.8958 64.6103 12.5098Z" fill="#E19A23"/>
<path d="M52.9806 8.64837C60.286 9.37275 64.5228 16.5444 63.6616 23.4294C62.8087 30.2496 56.9245 36.1553 49.8022 35.4192C49.1152 35.3141 48.2654 35.187 47.6062 34.9701C41.7171 33.0105 38.3851 26.8388 39.0047 20.823C39.7247 13.8309 45.7074 7.85596 52.9806 8.64837Z" fill="#F6F1E5"/>
<path d="M52.9705 10.5954C55.4473 10.9036 57.7392 12.2152 59.3339 14.156C64.9019 20.9323 60.973 32.3125 52.0733 33.4821C51.2512 33.5902 50.6824 33.5549 49.8615 33.485C47.2979 33.1511 45.0126 31.7712 43.4032 29.7643C41.4322 27.2794 40.5383 24.1089 40.9213 20.9603C41.6002 14.8838 46.6275 9.87085 52.9705 10.5954Z" fill="#FDCE45"/>
<path d="M52.1632 14.403C53.0667 14.5258 53.1562 15.6933 53.2975 16.3941C53.4411 17.1292 53.5941 17.8624 53.7564 18.5936C54.44 18.7915 55.1421 18.951 55.8317 19.1456C56.3841 19.3016 57.327 19.4167 57.7001 19.8826C58.0521 20.3221 58.0401 21.0639 57.6472 21.4841C57.2916 21.8642 56.8233 22.153 56.3934 22.4564C55.8271 22.8508 55.2658 23.2525 54.7102 23.6614C54.8637 24.8052 54.8219 26.2969 54.8199 27.449C54.8189 28.0642 53.6532 28.7947 53.0475 28.3818C52.1518 27.7704 51.267 26.9461 50.4575 26.237L50.1385 25.9742C49.2293 26.2697 48.2381 26.7611 47.3078 27.056C46.933 27.158 46.6797 27.2831 46.299 27.0987C44.7227 26.3341 45.9397 24.6628 46.2568 23.5082C46.3465 23.1816 46.6103 22.4821 46.754 22.2093C46.2328 21.4788 45.7634 20.6829 45.2459 19.9518C44.803 19.3261 44.5593 18.5008 45.2295 17.9101C45.3836 17.7752 45.5737 17.6882 45.7765 17.6597C46.0683 17.6192 46.6773 17.6604 46.9866 17.683C47.7573 17.7395 48.5265 17.803 49.2982 17.8574C49.9126 16.9852 50.4829 15.954 51.0808 15.0597C51.3976 14.5857 51.6294 14.5004 52.1632 14.403Z" fill="#F4AA1B"/>
<path d="M43.5182 35.2535C43.2025 35.3219 42.7363 35.3206 42.4044 35.3447C36.8313 35.7454 31.6652 32.7861 28.6195 28.1913C25.9561 24.1733 25.1585 19.501 26.0828 14.7753C26.9046 10.4605 29.4046 6.64795 33.0342 4.1743C36.7228 1.69846 40.7434 1.18936 45.0518 2.03689C45.5772 2.09736 46.1 2.23356 46.6137 2.3606C49.9462 3.17351 52.9123 5.07425 55.0432 7.76225C59.1913 12.9728 59.7794 20.4761 56.9039 26.3847C55.8697 28.5093 54.3638 30.5156 52.5008 31.9726C49.9388 34.0062 46.788 35.1574 43.5182 35.2535Z" fill="#FDCE45"/>
<path d="M45.0517 2.0357C45.5771 2.09617 46.1 2.23237 46.6136 2.35941C49.9461 3.17232 52.9123 5.07306 55.0431 7.76106C59.1912 12.9717 59.7794 20.475 56.9039 26.3835C55.8697 28.5081 54.3637 30.5145 52.5008 31.9714C49.9387 34.005 46.788 35.1562 43.5182 35.2523C43.6609 35.1295 45.2037 34.7667 45.6011 34.6407C47.982 33.8871 50.7558 32.0152 52.3028 30.0621C52.6251 29.6865 52.8923 29.3522 53.2007 28.9663C53.5364 28.4769 53.86 27.9788 54.1712 27.4735C54.3756 27.1375 54.5645 26.7572 54.7476 26.4064C54.9702 25.8855 55.1931 25.4179 55.4123 24.8802C55.5583 24.5143 55.6908 24.1433 55.8096 23.7674C55.9714 23.2421 56.0948 22.799 56.206 22.2634C56.2974 21.9129 56.3744 21.4355 56.4434 21.0695C56.549 20.4548 56.5434 19.9831 56.6259 19.4458L56.6535 18.8279C56.6426 18.7602 56.6508 18.0913 56.6473 17.9588C56.6361 17.5087 56.6074 17.0953 56.5717 16.6456C56.5222 16.2369 56.4959 15.8819 56.4278 15.4689C56.3449 14.903 56.2317 14.3661 56.109 13.8082C55.9935 13.4575 55.8898 13.0352 55.7921 12.6746C55.6012 12.2588 55.3311 11.4656 55.1636 11.0169C55.0126 10.673 54.793 10.2722 54.6258 9.90084C54.5312 9.77907 54.3216 9.39473 54.2356 9.24705C54.0465 8.92225 53.8505 8.60145 53.6482 8.28483C53.3765 7.94149 53.102 7.56167 52.8388 7.20869C50.9235 5.03979 48.8743 3.4575 46.1286 2.48216C45.9013 2.40143 45.1583 2.1988 45.0517 2.0357Z" fill="#F4AA1B"/>
<path d="M56.4435 21.0712C56.9591 21.1193 57.4026 21.1526 57.9261 21.1343C57.8867 21.563 57.803 21.897 57.7059 22.3147C57.1421 22.2467 56.7052 22.3082 56.206 22.265C56.2975 21.9146 56.3745 21.4372 56.4435 21.0712Z" fill="#E19A23"/>
<path d="M56.4275 15.4697C56.9274 15.4622 57.4274 15.477 57.9261 15.5141L58.1002 16.6681C57.6023 16.6277 57.0737 16.6421 56.5714 16.6464C56.5219 16.2377 56.4956 15.8827 56.4275 15.4697Z" fill="#E19A23"/>
<path d="M55.8097 23.7693C56.3122 23.7994 56.8155 23.8207 57.3191 23.8339C57.1777 24.2077 57.0454 24.5848 56.9225 24.9648C56.5465 24.9468 55.7114 24.9624 55.4124 24.882C55.5584 24.5162 55.6909 24.1452 55.8097 23.7693Z" fill="#E19A23"/>
<path d="M53.2007 28.9662C53.5408 29.0349 54.3075 29.0572 54.6736 29.0723C54.398 29.4449 54.1442 29.8402 53.7876 30.1309C53.4435 30.1328 52.5979 30.1529 52.3028 30.0621C52.6251 29.6864 52.8923 29.3521 53.2007 28.9662Z" fill="#E19A23"/>
<path d="M54.7471 26.4087C55.1291 26.4593 55.8824 26.4725 56.2659 26.4475C56.0713 26.8443 55.8935 27.2197 55.6617 27.5975C55.3171 27.5692 54.4235 27.5584 54.1707 27.4758C54.3751 27.1398 54.5641 26.7595 54.7471 26.4087Z" fill="#E19A23"/>
<path d="M55.7924 12.6769C56.2785 12.6518 56.7999 12.6821 57.2869 12.7107C57.3602 12.9693 57.5756 13.5506 57.4656 13.7789C57.2988 13.9187 56.4157 13.8105 56.1093 13.8105C55.9937 13.4598 55.8901 13.0375 55.7924 12.6769Z" fill="#E19A23"/>
<path d="M56.6775 18.3252C57.1788 18.3102 57.6559 18.362 58.1492 18.3682C58.13 18.7474 58.1137 19.1267 58.0998 19.5061C57.6051 19.4767 57.1133 19.4763 56.6256 19.4487L56.6532 18.8308C56.6665 18.6543 56.6751 18.5038 56.6775 18.3252Z" fill="#E19A23"/>
<path d="M54.6262 9.90245C56.0912 9.93626 56.0377 9.6702 56.5601 11.0615L55.1641 11.0185C55.0131 10.6746 54.7935 10.2738 54.6262 9.90245Z" fill="#E19A23"/>
<path d="M52.8384 7.20954C53.2442 7.21131 53.7557 7.1817 54.1395 7.26515C54.5846 7.67192 54.6816 7.77888 54.9208 8.31756C54.317 8.37175 54.0934 8.26956 53.6478 8.28567C53.376 7.94233 53.1016 7.56252 52.8384 7.20954Z" fill="#E19A23"/>
<path d="M40.7856 4.99622C48.121 4.702 53.3101 11.2179 53.4106 18.1558C53.5103 25.0285 48.5006 31.692 41.3449 31.9493C40.65 31.9403 39.7908 31.9321 39.108 31.8086C33.0042 30.6834 28.8497 25.0325 28.6302 18.9889C28.3751 11.9644 33.4728 5.21859 40.7856 4.99622Z" fill="#F6F1E5"/>
<path d="M41.0463 6.92636C43.5419 6.8886 45.9934 7.8702 47.8414 9.57152C54.2942 15.5115 51.979 27.3261 43.3269 29.7169C42.5277 29.9378 41.9595 29.9815 41.1368 30.026C38.5517 30.0503 36.0973 29.0002 34.2255 27.2355C31.9294 25.0474 30.6051 22.0312 30.5485 18.86C30.3794 12.7479 34.664 7.08716 41.0463 6.92636Z" fill="#FDCE45"/>
<path d="M40.7735 10.806C41.6852 10.8025 41.9356 11.9463 42.1725 12.6209C42.4165 13.329 42.6695 14.0339 42.9316 14.7357C43.6359 14.8369 44.3534 14.8977 45.0633 14.995C45.6319 15.0729 46.5818 15.0563 47.0158 15.4661C47.4252 15.8526 47.516 16.5889 47.1851 17.0595C46.8856 17.4852 46.4618 17.8361 46.078 18.196C45.5718 18.6651 45.0716 19.1406 44.5779 19.6225C44.8883 20.734 45.0535 22.2172 45.211 23.3584C45.2952 23.9678 44.242 24.8528 43.5849 24.5277C42.6132 24.0462 41.6228 23.3524 40.7229 22.7622L40.3705 22.5461C39.511 22.9647 38.5974 23.5886 37.7169 24.0095C37.3598 24.1624 37.1263 24.3214 36.7237 24.1915C35.0567 23.6524 36.0305 21.8288 36.1848 20.6413C36.2284 20.3055 36.3927 19.5762 36.4973 19.2862C35.88 18.6348 35.3049 17.9116 34.6912 17.2592C34.1659 16.7009 33.8102 15.9172 34.3921 15.2395C34.5261 15.0845 34.7023 14.972 34.8992 14.9158C35.1826 14.8352 35.7914 14.7917 36.1009 14.7713C36.872 14.7204 37.6426 14.6769 38.4144 14.6239C38.902 13.6749 39.3241 12.5747 39.7923 11.6062C40.0405 11.093 40.2582 10.9764 40.7735 10.806Z" fill="#F4AA1B"/>
<rect x="15" y="25" width="57" height="37" rx="5" fill="#4F423A"/>
<path d="M71.9314 36.0063C72.77 36.0199 73.515 36.1397 74.1423 36.7581C74.957 37.5622 75.022 38.6347 74.995 39.6994C74.9717 41.5213 75.0005 43.3463 74.9919 45.1683C74.9834 47.0666 73.9046 48.3114 71.9369 48.2283C68.3642 48.1925 64.7841 48.2556 61.2114 48.2313C60.3011 48.2247 59.3442 48.2671 58.4535 48.0616C57.4372 47.819 56.4993 47.3285 55.7243 46.6349C54.4961 45.532 53.7603 43.9914 53.6795 42.3526C53.609 40.6998 54.2173 39.0895 55.366 37.8884C57.6473 35.4819 60.2031 36.0866 63.2238 36.0258C66.1178 35.9675 69.0387 36.0895 71.9314 36.0063Z" fill="#6D594C"/>
<path d="M59.6844 38.6588C61.5173 38.3569 63.2485 39.5877 63.5432 41.4036C63.8385 43.2189 62.5851 44.9256 60.7491 45.2075C58.9272 45.4883 57.2193 44.2593 56.9258 42.4573C56.633 40.6554 57.8656 38.9584 59.6844 38.6588Z" fill="#F4C668"/>
<mask id="path-35-outside-1_424_3794" maskUnits="userSpaceOnUse" x="21" y="51" width="46" height="24" fill="black">
<rect fill="white" x="21" y="51" width="46" height="24"/>
<path d="M34.68 53.8C35.4533 53.8 35.84 54.1867 35.84 54.96V59C35.84 61 36.0467 62.6933 36.46 64.08C36.8733 65.4667 37.4867 66.6133 38.3 67.52C39.1267 68.4267 40.1867 69.18 41.48 69.78C42.1867 70.0733 42.4133 70.58 42.16 71.3L42.12 71.38C41.8533 72.1133 41.36 72.3267 40.64 72.02C38.2667 70.94 36.4733 69.3533 35.26 67.26C34.0467 65.1667 33.44 62.4133 33.44 59V54.96C33.44 54.1867 33.8267 53.8 34.6 53.8H34.68ZM40.12 65.06C40.72 64.58 41.2667 64.62 41.76 65.18L41.8 65.22C42.3067 65.82 42.2667 66.3533 41.68 66.82C40.2533 67.9933 38.7067 69 37.04 69.84C35.3867 70.6667 33.6733 71.32 31.9 71.8C31.18 72 30.7267 71.7267 30.54 70.98V70.9C30.3667 70.18 30.6467 69.72 31.38 69.52C33.1533 69.0267 34.8 68.3867 36.32 67.6C37.8533 66.8133 39.12 65.9667 40.12 65.06ZM40.54 57.08C41.2733 57 41.68 57.3267 41.76 58.06V58.14C41.84 58.8733 41.5133 59.28 40.78 59.36L31.76 60.26C31.0267 60.34 30.62 60.0133 30.54 59.28V59.2C30.46 58.4667 30.7867 58.06 31.52 57.98L40.54 57.08ZM40.88 61.12C41.6267 61.0133 42.0467 61.3267 42.14 62.06V62.14C42.2467 62.8867 41.9333 63.3067 41.2 63.4L31.72 64.78C30.9733 64.8867 30.5533 64.5733 30.46 63.84V63.76C30.3533 63.0133 30.6667 62.5933 31.4 62.5L40.88 61.12ZM38.76 54C39.5067 53.8133 39.9667 54.0867 40.14 54.82L40.22 55.2C40.4067 55.9467 40.1333 56.4067 39.4 56.58H39.32C38.5733 56.7667 38.1133 56.4933 37.94 55.76L37.86 55.38C37.6733 54.6333 37.9467 54.1733 38.68 54H38.76ZM25.44 53.72C26.2533 53.72 26.66 54.1267 26.66 54.94V55.16H28.78C29.5133 55.16 29.88 55.5267 29.88 56.26V56.36C29.88 57.0933 29.5133 57.46 28.78 57.46H26.32C24.8667 57.46 24.14 56.7333 24.14 55.28V54.94C24.14 54.1267 24.5467 53.72 25.36 53.72H25.44ZM28.68 59.24C29.4133 59.24 29.78 59.6067 29.78 60.34V60.42C29.78 61.1533 29.4133 61.52 28.68 61.52H25.16C24.4267 61.52 24.06 61.1533 24.06 60.42V60.34C24.06 59.6067 24.4267 59.24 25.16 59.24H28.68ZM28.68 63.88C29.4133 63.88 29.78 64.2467 29.78 64.98V65.06C29.78 65.7933 29.4133 66.16 28.68 66.16H24.84C24.1067 66.16 23.74 65.7933 23.74 65.06V64.98C23.74 64.2467 24.1067 63.88 24.84 63.88H28.68ZM26.72 60.38C27.4933 60.38 27.88 60.7667 27.88 61.54V69.6H28.42C29.1933 69.6 29.58 69.9867 29.58 70.76V70.84C29.58 71.6133 29.1933 72 28.42 72H27.64C26.9333 72 26.3933 71.82 26.02 71.46C25.66 71.1 25.48 70.56 25.48 69.84V61.54C25.48 60.7667 25.8667 60.38 26.64 60.38H26.72ZM49.66 53.78C50.4333 53.78 50.82 54.1467 50.82 54.88H60.8C61.5067 54.88 62.04 55.06 62.4 55.42C62.76 55.78 62.94 56.3133 62.94 57.02V64.86C62.94 65.5667 62.76 66.1 62.4 66.46C62.04 66.82 61.5067 67 60.8 67H60C59.24 67 58.86 66.62 58.86 65.86V65.78C58.86 65.02 59.24 64.64 60 64.64H60.54V57.24H50.56C49.8533 57.24 49.32 57.06 48.96 56.7C48.6 56.34 48.42 55.8067 48.42 55.1V54.88C48.42 54.1467 48.8067 53.78 49.58 53.78H49.66ZM55.58 58.84C56.2867 58.84 56.82 59.02 57.18 59.38C57.54 59.74 57.72 60.2733 57.72 60.98V64.4C57.72 65.1067 57.54 65.64 57.18 66C56.82 66.36 56.2867 66.54 55.58 66.54H49.52C48.76 66.54 48.38 66.16 48.38 65.4V65.34C48.38 64.58 48.76 64.2 49.52 64.2H55.32V61.18H49.58V69.6H61.92V68.88C61.92 68.1067 62.3067 67.72 63.08 67.72H63.16C63.9333 67.72 64.32 68.1067 64.32 68.88V69.8C64.32 70.5067 64.14 71.04 63.78 71.4C63.42 71.76 62.8867 71.94 62.18 71.94H49.32C48.6133 71.94 48.08 71.76 47.72 71.4C47.36 71.04 47.18 70.5067 47.18 69.8V60.98C47.18 60.2733 47.36 59.74 47.72 59.38C48.08 59.02 48.6133 58.84 49.32 58.84H55.58Z"/>
</mask>
<path d="M34.68 53.8C35.4533 53.8 35.84 54.1867 35.84 54.96V59C35.84 61 36.0467 62.6933 36.46 64.08C36.8733 65.4667 37.4867 66.6133 38.3 67.52C39.1267 68.4267 40.1867 69.18 41.48 69.78C42.1867 70.0733 42.4133 70.58 42.16 71.3L42.12 71.38C41.8533 72.1133 41.36 72.3267 40.64 72.02C38.2667 70.94 36.4733 69.3533 35.26 67.26C34.0467 65.1667 33.44 62.4133 33.44 59V54.96C33.44 54.1867 33.8267 53.8 34.6 53.8H34.68ZM40.12 65.06C40.72 64.58 41.2667 64.62 41.76 65.18L41.8 65.22C42.3067 65.82 42.2667 66.3533 41.68 66.82C40.2533 67.9933 38.7067 69 37.04 69.84C35.3867 70.6667 33.6733 71.32 31.9 71.8C31.18 72 30.7267 71.7267 30.54 70.98V70.9C30.3667 70.18 30.6467 69.72 31.38 69.52C33.1533 69.0267 34.8 68.3867 36.32 67.6C37.8533 66.8133 39.12 65.9667 40.12 65.06ZM40.54 57.08C41.2733 57 41.68 57.3267 41.76 58.06V58.14C41.84 58.8733 41.5133 59.28 40.78 59.36L31.76 60.26C31.0267 60.34 30.62 60.0133 30.54 59.28V59.2C30.46 58.4667 30.7867 58.06 31.52 57.98L40.54 57.08ZM40.88 61.12C41.6267 61.0133 42.0467 61.3267 42.14 62.06V62.14C42.2467 62.8867 41.9333 63.3067 41.2 63.4L31.72 64.78C30.9733 64.8867 30.5533 64.5733 30.46 63.84V63.76C30.3533 63.0133 30.6667 62.5933 31.4 62.5L40.88 61.12ZM38.76 54C39.5067 53.8133 39.9667 54.0867 40.14 54.82L40.22 55.2C40.4067 55.9467 40.1333 56.4067 39.4 56.58H39.32C38.5733 56.7667 38.1133 56.4933 37.94 55.76L37.86 55.38C37.6733 54.6333 37.9467 54.1733 38.68 54H38.76ZM25.44 53.72C26.2533 53.72 26.66 54.1267 26.66 54.94V55.16H28.78C29.5133 55.16 29.88 55.5267 29.88 56.26V56.36C29.88 57.0933 29.5133 57.46 28.78 57.46H26.32C24.8667 57.46 24.14 56.7333 24.14 55.28V54.94C24.14 54.1267 24.5467 53.72 25.36 53.72H25.44ZM28.68 59.24C29.4133 59.24 29.78 59.6067 29.78 60.34V60.42C29.78 61.1533 29.4133 61.52 28.68 61.52H25.16C24.4267 61.52 24.06 61.1533 24.06 60.42V60.34C24.06 59.6067 24.4267 59.24 25.16 59.24H28.68ZM28.68 63.88C29.4133 63.88 29.78 64.2467 29.78 64.98V65.06C29.78 65.7933 29.4133 66.16 28.68 66.16H24.84C24.1067 66.16 23.74 65.7933 23.74 65.06V64.98C23.74 64.2467 24.1067 63.88 24.84 63.88H28.68ZM26.72 60.38C27.4933 60.38 27.88 60.7667 27.88 61.54V69.6H28.42C29.1933 69.6 29.58 69.9867 29.58 70.76V70.84C29.58 71.6133 29.1933 72 28.42 72H27.64C26.9333 72 26.3933 71.82 26.02 71.46C25.66 71.1 25.48 70.56 25.48 69.84V61.54C25.48 60.7667 25.8667 60.38 26.64 60.38H26.72ZM49.66 53.78C50.4333 53.78 50.82 54.1467 50.82 54.88H60.8C61.5067 54.88 62.04 55.06 62.4 55.42C62.76 55.78 62.94 56.3133 62.94 57.02V64.86C62.94 65.5667 62.76 66.1 62.4 66.46C62.04 66.82 61.5067 67 60.8 67H60C59.24 67 58.86 66.62 58.86 65.86V65.78C58.86 65.02 59.24 64.64 60 64.64H60.54V57.24H50.56C49.8533 57.24 49.32 57.06 48.96 56.7C48.6 56.34 48.42 55.8067 48.42 55.1V54.88C48.42 54.1467 48.8067 53.78 49.58 53.78H49.66ZM55.58 58.84C56.2867 58.84 56.82 59.02 57.18 59.38C57.54 59.74 57.72 60.2733 57.72 60.98V64.4C57.72 65.1067 57.54 65.64 57.18 66C56.82 66.36 56.2867 66.54 55.58 66.54H49.52C48.76 66.54 48.38 66.16 48.38 65.4V65.34C48.38 64.58 48.76 64.2 49.52 64.2H55.32V61.18H49.58V69.6H61.92V68.88C61.92 68.1067 62.3067 67.72 63.08 67.72H63.16C63.9333 67.72 64.32 68.1067 64.32 68.88V69.8C64.32 70.5067 64.14 71.04 63.78 71.4C63.42 71.76 62.8867 71.94 62.18 71.94H49.32C48.6133 71.94 48.08 71.76 47.72 71.4C47.36 71.04 47.18 70.5067 47.18 69.8V60.98C47.18 60.2733 47.36 59.74 47.72 59.38C48.08 59.02 48.6133 58.84 49.32 58.84H55.58Z" fill="white"/>
<path d="M38.3 67.52L36.8112 68.8555L36.8166 68.8615L36.8221 68.8675L38.3 67.52ZM41.48 69.78L40.6383 71.5943L40.6754 71.6115L40.7132 71.6272L41.48 69.78ZM42.16 71.3L43.9488 72.1944L44.005 72.0822L44.0466 71.9638L42.16 71.3ZM42.12 71.38L40.3312 70.4856L40.2797 70.5884L40.2404 70.6965L42.12 71.38ZM40.64 72.02L39.8116 73.8404L39.8338 73.8505L39.8563 73.86L40.64 72.02ZM35.26 67.26L36.9903 66.2571V66.2571L35.26 67.26ZM40.12 65.06L38.8706 63.4983L38.8224 63.5368L38.7766 63.5783L40.12 65.06ZM41.76 65.18L40.2593 66.5021L40.3011 66.5495L40.3458 66.5942L41.76 65.18ZM41.8 65.22L43.3281 63.9296L43.2737 63.8653L43.2142 63.8058L41.8 65.22ZM41.68 66.82L40.435 65.2548L40.4222 65.2649L40.4096 65.2753L41.68 66.82ZM37.04 69.84L37.9344 71.6289L37.9401 71.626L37.04 69.84ZM31.9 71.8L31.3774 69.8694L31.3647 69.873L31.9 71.8ZM30.54 70.98H28.54V71.2262L28.5997 71.4651L30.54 70.98ZM30.54 70.9H32.54V70.6627L32.4844 70.4319L30.54 70.9ZM31.38 69.52L31.9062 71.4496L31.916 71.4468L31.38 69.52ZM36.32 67.6L35.407 65.8205L35.4007 65.8238L36.32 67.6ZM40.54 57.08L40.7386 59.0701L40.7477 59.0692L40.7569 59.0682L40.54 57.08ZM41.76 58.06H43.76V57.9512L43.7482 57.8431L41.76 58.06ZM41.76 58.14H39.76V58.2488L39.7718 58.3569L41.76 58.14ZM40.78 59.36L40.9786 61.3501L40.9877 61.3492L40.9969 61.3482L40.78 59.36ZM31.76 60.26L31.5614 58.2699L31.5523 58.2708L31.5431 58.2718L31.76 60.26ZM30.54 59.28H28.54V59.3888L28.5518 59.4969L30.54 59.28ZM30.54 59.2H32.54V59.0912L32.5282 58.9831L30.54 59.2ZM31.52 57.98L31.3214 55.9899L31.3123 55.9908L31.3031 55.9918L31.52 57.98ZM40.88 61.12L40.5972 59.1401L40.5919 59.1409L40.88 61.12ZM42.14 62.06H44.14V61.9332L44.124 61.8075L42.14 62.06ZM42.14 62.14H40.14V62.2821L40.1601 62.4228L42.14 62.14ZM41.2 63.4L40.9475 61.416L40.9297 61.4183L40.9119 61.4209L41.2 63.4ZM31.72 64.78L32.0028 66.7599L32.0081 66.7591L31.72 64.78ZM30.46 63.84H28.46V63.9668L28.476 64.0925L30.46 63.84ZM30.46 63.76H32.46V63.6179L32.4399 63.4772L30.46 63.76ZM31.4 62.5L31.6525 64.484L31.6703 64.4817L31.6881 64.4791L31.4 62.5ZM38.76 54V56H39.0062L39.2451 55.9403L38.76 54ZM40.14 54.82L42.0971 54.408L42.092 54.3839L42.0864 54.3599L40.14 54.82ZM40.22 55.2L38.2629 55.612L38.2706 55.6487L38.2797 55.6851L40.22 55.2ZM39.4 56.58V58.58H39.6332L39.8601 58.5264L39.4 56.58ZM39.32 56.58V54.58H39.0738L38.8349 54.6397L39.32 56.58ZM37.94 55.76L35.9829 56.172L35.988 56.1961L35.9936 56.2201L37.94 55.76ZM37.86 55.38L39.8171 54.968L39.8094 54.9313L39.8003 54.8949L37.86 55.38ZM38.68 54V52H38.4468L38.22 52.0536L38.68 54ZM26.66 55.16H24.66V57.16H26.66V55.16ZM27.88 69.6H25.88V71.6H27.88V69.6ZM26.02 71.46L24.6058 72.8742L24.6186 72.8871L24.6317 72.8997L26.02 71.46ZM34.68 53.8V55.8C34.7584 55.8 34.4498 55.8182 34.1358 55.5042C33.8218 55.1902 33.84 54.8816 33.84 54.96H35.84H37.84C37.84 54.265 37.6649 53.3765 36.9642 52.6758C36.2635 51.9751 35.375 51.8 34.68 51.8V53.8ZM35.84 54.96H33.84V59H35.84H37.84V54.96H35.84ZM35.84 59H33.84C33.84 61.1254 34.0582 63.0237 34.5433 64.6513L36.46 64.08L38.3767 63.5087C38.0352 62.363 37.84 60.8746 37.84 59H35.84ZM36.46 64.08L34.5433 64.6513C35.0254 66.2685 35.7669 67.6913 36.8112 68.8555L38.3 67.52L39.7888 66.1845C39.2064 65.5353 38.7213 64.6648 38.3767 63.5087L36.46 64.08ZM38.3 67.52L36.8221 68.8675C37.8543 69.9996 39.1426 70.9004 40.6383 71.5943L41.48 69.78L42.3217 67.9657C41.2307 67.4596 40.399 66.8537 39.7779 66.1725L38.3 67.52ZM41.48 69.78L40.7132 71.6272C40.7756 71.6531 40.5176 71.5617 40.3544 71.1967C40.1907 70.8308 40.2947 70.5756 40.2734 70.6362L42.16 71.3L44.0466 71.9638C44.2787 71.3044 44.396 70.4359 44.0056 69.5633C43.6157 68.6917 42.891 68.2003 42.2468 67.9328L41.48 69.78ZM42.16 71.3L40.3712 70.4056L40.3312 70.4856L42.12 71.38L43.9088 72.2744L43.9488 72.1944L42.16 71.3ZM42.12 71.38L40.2404 70.6965C40.2093 70.782 40.3062 70.4489 40.7562 70.2543C41.2045 70.0604 41.5112 70.2172 41.4237 70.18L40.64 72.02L39.8563 73.86C40.4888 74.1294 41.4021 74.3329 42.3438 73.9257C43.2871 73.5178 43.764 72.7113 43.9996 72.0635L42.12 71.38ZM40.64 72.02L41.4684 70.1996C39.4423 69.2777 37.9788 67.9624 36.9903 66.2571L35.26 67.26L33.5297 68.2629C34.9679 70.7442 37.091 72.6023 39.8116 73.8404L40.64 72.02ZM35.26 67.26L36.9903 66.2571C36.0116 64.5685 35.44 62.1982 35.44 59H33.44H31.44C31.44 62.6284 32.0817 65.7649 33.5297 68.2629L35.26 67.26ZM33.44 59H35.44V54.96H33.44H31.44V59H33.44ZM33.44 54.96H35.44C35.44 54.8816 35.4582 55.1902 35.1442 55.5042C34.8302 55.8182 34.5216 55.8 34.6 55.8V53.8V51.8C33.905 51.8 33.0165 51.9751 32.3158 52.6758C31.6151 53.3765 31.44 54.265 31.44 54.96H33.44ZM34.6 53.8V55.8H34.68V53.8V51.8H34.6V53.8ZM40.12 65.06L41.3694 66.6217C41.4343 66.5698 41.2353 66.754 40.834 66.7247C40.4196 66.6943 40.2308 66.4697 40.2593 66.5021L41.76 65.18L43.2607 63.8579C42.7959 63.3303 42.0871 62.8057 41.126 62.7353C40.1781 62.666 39.4057 63.0702 38.8706 63.4983L40.12 65.06ZM41.76 65.18L40.3458 66.5942L40.3858 66.6342L41.8 65.22L43.2142 63.8058L43.1742 63.7658L41.76 65.18ZM41.8 65.22L40.2719 66.5104C40.3445 66.5963 40.1213 66.3774 40.1556 65.9204C40.1918 65.4376 40.4721 65.2253 40.435 65.2548L41.68 66.82L42.925 68.3852C43.4746 67.9481 44.0682 67.2358 44.1444 66.2196C44.2187 65.2293 43.7621 64.4437 43.3281 63.9296L41.8 65.22ZM41.68 66.82L40.4096 65.2753C39.0982 66.3538 37.676 67.2798 36.1399 68.054L37.04 69.84L37.9401 71.626C39.7374 70.7202 41.4084 69.6329 42.9504 68.3647L41.68 66.82ZM37.04 69.84L36.1456 68.0511C34.6104 68.8187 33.0216 69.4244 31.3775 69.8695L31.9 71.8L32.4226 73.7305C34.325 73.2156 36.1629 72.5146 37.9344 71.6289L37.04 69.84ZM31.9 71.8L31.3647 69.873C31.312 69.8876 31.6416 69.7844 32.0527 70.0322C32.4498 70.2717 32.5035 70.588 32.4803 70.4949L30.54 70.98L28.5997 71.4651C28.7631 72.1187 29.1369 72.945 29.9873 73.4578C30.8517 73.979 31.768 73.9124 32.4353 73.727L31.9 71.8ZM30.54 70.98H32.54V70.9H30.54H28.54V70.98H30.54ZM30.54 70.9L32.4844 70.4319C32.4741 70.3891 32.5533 70.6855 32.3284 71.0549C32.11 71.4137 31.8292 71.4705 31.9062 71.4495L31.38 69.52L30.8538 67.5905C30.1975 67.7695 29.41 68.1563 28.9116 68.9751C28.4067 69.8045 28.4325 70.6909 28.5956 71.3681L30.54 70.9ZM31.38 69.52L31.916 71.4468C33.8121 70.9194 35.5883 70.2307 37.2393 69.3762L36.32 67.6L35.4007 65.8238C34.0118 66.5426 32.4946 67.134 30.844 67.5932L31.38 69.52ZM36.32 67.6L37.2329 69.3795C38.8815 68.5337 40.3035 67.5932 41.4634 66.5417L40.12 65.06L38.7766 63.5783C37.9365 64.3401 36.8252 65.093 35.4071 65.8205L36.32 67.6ZM40.54 57.08L40.7569 59.0682C40.8171 59.0616 40.4986 59.1103 40.1425 58.8242C39.7864 58.5382 39.7652 58.2167 39.7718 58.2769L41.76 58.06L43.7482 57.8431C43.6748 57.17 43.4102 56.3184 42.6475 55.7058C41.8848 55.0931 40.9962 55.0184 40.3231 55.0918L40.54 57.08ZM41.76 58.06H39.76V58.14H41.76H43.76V58.06H41.76ZM41.76 58.14L39.7718 58.3569C39.7784 58.4171 39.7297 58.0986 40.0158 57.7425C40.3018 57.3864 40.6233 57.3652 40.5631 57.3718L40.78 59.36L40.9969 61.3482C41.67 61.2748 42.5216 61.0102 43.1342 60.2475C43.7469 59.4848 43.8216 58.5962 43.7482 57.9231L41.76 58.14ZM40.78 59.36L40.5814 57.3699L31.5614 58.2699L31.76 60.26L31.9586 62.2501L40.9786 61.3501L40.78 59.36ZM31.76 60.26L31.5431 58.2718C31.4829 58.2784 31.8014 58.2297 32.1575 58.5158C32.5136 58.8018 32.5348 59.1233 32.5282 59.0631L30.54 59.28L28.5518 59.4969C28.6252 60.17 28.8898 61.0216 29.6525 61.6342C30.4152 62.2469 31.3038 62.3216 31.9769 62.2482L31.76 60.26ZM30.54 59.28H32.54V59.2H30.54H28.54V59.28H30.54ZM30.54 59.2L32.5282 58.9831C32.5216 58.9229 32.5703 59.2414 32.2842 59.5975C31.9982 59.9536 31.6767 59.9748 31.7369 59.9682L31.52 57.98L31.3031 55.9918C30.63 56.0652 29.7784 56.3298 29.1658 57.0925C28.5531 57.8552 28.4784 58.7438 28.5518 59.4169L30.54 59.2ZM31.52 57.98L31.7186 59.9701L40.7386 59.0701L40.54 57.08L40.3414 55.0899L31.3214 55.9899L31.52 57.98ZM40.88 61.12L41.1628 63.0999C41.2436 63.0884 40.9288 63.1539 40.5591 62.878C40.1806 62.5957 40.1492 62.2592 40.156 62.3125L42.14 62.06L44.124 61.8075C44.0374 61.1274 43.7494 60.2676 42.9509 59.672C42.1612 59.0828 41.2631 59.045 40.5972 59.1401L40.88 61.12ZM42.14 62.06H40.14V62.14H42.14H44.14V62.06H42.14ZM42.14 62.14L40.1601 62.4228C40.1716 62.5036 40.1061 62.1888 40.382 61.8191C40.6643 61.4406 41.0008 61.4092 40.9475 61.416L41.2 63.4L41.4525 65.384C42.1326 65.2974 42.9924 65.0094 43.588 64.2109C44.1772 63.4212 44.215 62.5231 44.1199 61.8572L42.14 62.14ZM41.2 63.4L40.9119 61.4209L31.4319 62.8009L31.72 64.78L32.0081 66.7591L41.4881 65.3791L41.2 63.4ZM31.72 64.78L31.4372 62.8001C31.3564 62.8116 31.6712 62.7461 32.0409 63.022C32.4194 63.3043 32.4508 63.6408 32.444 63.5875L30.46 63.84L28.476 64.0925C28.5626 64.7726 28.8506 65.6324 29.6491 66.228C30.4388 66.8172 31.3369 66.855 32.0028 66.7599L31.72 64.78ZM30.46 63.84H32.46V63.76H30.46H28.46V63.84H30.46ZM30.46 63.76L32.4399 63.4772C32.4284 63.3964 32.4939 63.7112 32.218 64.0809C31.9357 64.4594 31.5992 64.4908 31.6525 64.484L31.4 62.5L31.1475 60.516C30.4674 60.6026 29.6076 60.8906 29.012 61.6891C28.4228 62.4788 28.385 63.3769 28.4801 64.0428L30.46 63.76ZM31.4 62.5L31.6881 64.4791L41.1681 63.0991L40.88 61.12L40.5919 59.1409L31.1119 60.5209L31.4 62.5ZM38.76 54L39.2451 55.9403C39.3317 55.9186 39.0334 56.0161 38.6433 55.7844C38.2436 55.5468 38.1799 55.2218 38.1936 55.2801L40.14 54.82L42.0864 54.3599C41.9268 53.6849 41.5464 52.8565 40.6867 52.3456C39.8366 51.8405 38.9349 51.8947 38.2749 52.0597L38.76 54ZM40.14 54.82L38.1829 55.232L38.2629 55.612L40.22 55.2L42.1771 54.788L42.0971 54.408L40.14 54.82ZM40.22 55.2L38.2797 55.6851C38.3014 55.7717 38.2039 55.4734 38.4356 55.0833C38.6732 54.6836 38.9982 54.6199 38.9399 54.6336L39.4 56.58L39.8601 58.5264C40.5351 58.3668 41.3635 57.9864 41.8744 57.1267C42.3795 56.2766 42.3253 55.3749 42.1603 54.7149L40.22 55.2ZM39.4 56.58V54.58H39.32V56.58V58.58H39.4V56.58ZM39.32 56.58L38.8349 54.6397C38.7483 54.6614 39.0466 54.5639 39.4367 54.7956C39.8364 55.0332 39.9001 55.3582 39.8864 55.2999L37.94 55.76L35.9936 56.2201C36.1532 56.8951 36.5336 57.7235 37.3933 58.2344C38.2434 58.7395 39.1451 58.6853 39.8051 58.5203L39.32 56.58ZM37.94 55.76L39.8971 55.348L39.8171 54.968L37.86 55.38L35.9029 55.792L35.9829 56.172L37.94 55.76ZM37.86 55.38L39.8003 54.8949C39.7786 54.8083 39.8761 55.1066 39.6444 55.4967C39.4068 55.8964 39.0818 55.9601 39.1401 55.9464L38.68 54L38.22 52.0536C37.5449 52.2132 36.7165 52.5936 36.2056 53.4533C35.7005 54.3034 35.7547 55.2051 35.9197 55.8651L37.86 55.38ZM38.68 54V56H38.76V54V52H38.68V54ZM25.44 53.72V55.72C25.5384 55.72 25.2448 55.7432 24.9408 55.4392C24.6368 55.1352 24.66 54.8416 24.66 54.94H26.66H28.66C28.66 54.225 28.4799 53.3215 27.7692 52.6108C27.0585 51.9001 26.155 51.72 25.44 51.72V53.72ZM26.66 54.94H24.66V55.16H26.66H28.66V54.94H26.66ZM26.66 55.16V57.16H28.78V55.16V53.16H26.66V55.16ZM28.78 55.16V57.16C28.8384 57.16 28.5148 57.1732 28.1908 56.8492C27.8668 56.5252 27.88 56.2016 27.88 56.26H29.88H31.88C31.88 55.585 31.7099 54.7115 31.0192 54.0208C30.3285 53.3301 29.455 53.16 28.78 53.16V55.16ZM29.88 56.26H27.88V56.36H29.88H31.88V56.26H29.88ZM29.88 56.36H27.88C27.88 56.4184 27.8668 56.0948 28.1908 55.7708C28.5148 55.4468 28.8384 55.46 28.78 55.46V57.46V59.46C29.455 59.46 30.3285 59.2899 31.0192 58.5992C31.7099 57.9085 31.88 57.035 31.88 56.36H29.88ZM28.78 57.46V55.46H26.32V57.46V59.46H28.78V57.46ZM26.32 57.46V55.46C26.1174 55.46 26.0215 55.434 25.9987 55.4264C25.9856 55.422 26.0366 55.4381 26.0992 55.5008C26.1619 55.5634 26.178 55.6144 26.1736 55.6013C26.166 55.5785 26.14 55.4826 26.14 55.28H24.14H22.14C22.14 56.315 22.4001 57.4585 23.2708 58.3292C24.1415 59.1999 25.285 59.46 26.32 59.46V57.46ZM24.14 55.28H26.14V54.94H24.14H22.14V55.28H24.14ZM24.14 54.94H26.14C26.14 54.8416 26.1632 55.1352 25.8592 55.4392C25.5552 55.7432 25.2616 55.72 25.36 55.72V53.72V51.72C24.645 51.72 23.7415 51.9001 23.0308 52.6108C22.3201 53.3215 22.14 54.225 22.14 54.94H24.14ZM25.36 53.72V55.72H25.44V53.72V51.72H25.36V53.72ZM28.68 59.24V61.24C28.7384 61.24 28.4148 61.2532 28.0908 60.9292C27.7668 60.6052 27.78 60.2816 27.78 60.34H29.78H31.78C31.78 59.665 31.6099 58.7915 30.9192 58.1008C30.2285 57.4101 29.355 57.24 28.68 57.24V59.24ZM29.78 60.34H27.78V60.42H29.78H31.78V60.34H29.78ZM29.78 60.42H27.78C27.78 60.4784 27.7668 60.1548 28.0908 59.8308C28.4148 59.5068 28.7384 59.52 28.68 59.52V61.52V63.52C29.355 63.52 30.2285 63.3499 30.9192 62.6592C31.6099 61.9685 31.78 61.095 31.78 60.42H29.78ZM28.68 61.52V59.52H25.16V61.52V63.52H28.68V61.52ZM25.16 61.52V59.52C25.1016 59.52 25.4252 59.5068 25.7492 59.8308C26.0732 60.1548 26.06 60.4784 26.06 60.42H24.06H22.06C22.06 61.095 22.2301 61.9685 22.9208 62.6592C23.6115 63.3499 24.485 63.52 25.16 63.52V61.52ZM24.06 60.42H26.06V60.34H24.06H22.06V60.42H24.06ZM24.06 60.34H26.06C26.06 60.2816 26.0732 60.6052 25.7492 60.9292C25.4252 61.2532 25.1016 61.24 25.16 61.24V59.24V57.24C24.485 57.24 23.6115 57.4101 22.9208 58.1008C22.2301 58.7915 22.06 59.665 22.06 60.34H24.06ZM25.16 59.24V61.24H28.68V59.24V57.24H25.16V59.24ZM28.68 63.88V65.88C28.7384 65.88 28.4148 65.8932 28.0908 65.5692C27.7668 65.2452 27.78 64.9216 27.78 64.98H29.78H31.78C31.78 64.305 31.6099 63.4315 30.9192 62.7408C30.2285 62.0501 29.355 61.88 28.68 61.88V63.88ZM29.78 64.98H27.78V65.06H29.78H31.78V64.98H29.78ZM29.78 65.06H27.78C27.78 65.1184 27.7668 64.7948 28.0908 64.4708C28.4148 64.1468 28.7384 64.16 28.68 64.16V66.16V68.16C29.355 68.16 30.2285 67.9899 30.9192 67.2992C31.6099 66.6085 31.78 65.735 31.78 65.06H29.78ZM28.68 66.16V64.16H24.84V66.16V68.16H28.68V66.16ZM24.84 66.16V64.16C24.7816 64.16 25.1052 64.1468 25.4292 64.4708C25.7532 64.7948 25.74 65.1184 25.74 65.06H23.74H21.74C21.74 65.735 21.9101 66.6085 22.6008 67.2992C23.2915 67.9899 24.165 68.16 24.84 68.16V66.16ZM23.74 65.06H25.74V64.98H23.74H21.74V65.06H23.74ZM23.74 64.98H25.74C25.74 64.9216 25.7532 65.2452 25.4292 65.5692C25.1052 65.8932 24.7816 65.88 24.84 65.88V63.88V61.88C24.165 61.88 23.2915 62.0501 22.6008 62.7408C21.9101 63.4315 21.74 64.305 21.74 64.98H23.74ZM24.84 63.88V65.88H28.68V63.88V61.88H24.84V63.88ZM26.72 60.38V62.38C26.7984 62.38 26.4898 62.3982 26.1758 62.0842C25.8618 61.7702 25.88 61.4616 25.88 61.54H27.88H29.88C29.88 60.845 29.7049 59.9565 29.0042 59.2558C28.3035 58.5551 27.415 58.38 26.72 58.38V60.38ZM27.88 61.54H25.88V69.6H27.88H29.88V61.54H27.88ZM27.88 69.6V71.6H28.42V69.6V67.6H27.88V69.6ZM28.42 69.6V71.6C28.4984 71.6 28.1898 71.6182 27.8758 71.3042C27.5618 70.9902 27.58 70.6816 27.58 70.76H29.58H31.58C31.58 70.065 31.4049 69.1765 30.7042 68.4758C30.0035 67.7751 29.115 67.6 28.42 67.6V69.6ZM29.58 70.76H27.58V70.84H29.58H31.58V70.76H29.58ZM29.58 70.84H27.58C27.58 70.9184 27.5618 70.6098 27.8758 70.2958C28.1898 69.9818 28.4984 70 28.42 70V72V74C29.115 74 30.0035 73.8249 30.7042 73.1242C31.4049 72.4235 31.58 71.535 31.58 70.84H29.58ZM28.42 72V70H27.64V72V74H28.42V72ZM27.64 72V70C27.4519 70 27.3611 69.9755 27.3375 69.9676C27.3271 69.9642 27.3329 69.9651 27.3491 69.9746C27.3659 69.9846 27.387 69.9998 27.4083 70.0203L26.02 71.46L24.6317 72.8997C25.496 73.7331 26.6069 74 27.64 74V72ZM26.02 71.46L27.4342 70.0458C27.4634 70.0749 27.4847 70.1039 27.4987 70.1273C27.5123 70.1499 27.5151 70.1607 27.5124 70.1525C27.5056 70.1323 27.48 70.0393 27.48 69.84H25.48H23.48C23.48 70.8683 23.7384 72.0069 24.6058 72.8742L26.02 71.46ZM25.48 69.84H27.48V61.54H25.48H23.48V69.84H25.48ZM25.48 61.54H27.48C27.48 61.4616 27.4982 61.7702 27.1842 62.0842C26.8702 62.3982 26.5616 62.38 26.64 62.38V60.38V58.38C25.945 58.38 25.0565 58.5551 24.3558 59.2558C23.6551 59.9565 23.48 60.845 23.48 61.54H25.48ZM26.64 60.38V62.38H26.72V60.38V58.38H26.64V60.38ZM50.82 54.88H48.82V56.88H50.82V54.88ZM62.4 55.42L63.8142 54.0058V54.0058L62.4 55.42ZM62.4 66.46L63.8142 67.8742V67.8742L62.4 66.46ZM60.54 64.64V66.64H62.54V64.64H60.54ZM60.54 57.24H62.54V55.24H60.54V57.24ZM48.96 56.7L50.3742 55.2858V55.2858L48.96 56.7ZM57.18 66L58.5942 67.4142V67.4142L57.18 66ZM55.32 64.2V66.2H57.32V64.2H55.32ZM55.32 61.18H57.32V59.18H55.32V61.18ZM49.58 61.18V59.18H47.58V61.18H49.58ZM49.58 69.6H47.58V71.6H49.58V69.6ZM61.92 69.6V71.6H63.92V69.6H61.92ZM63.78 71.4L65.1942 72.8142V72.8142L63.78 71.4ZM47.72 71.4L49.1342 69.9858H49.1342L47.72 71.4ZM47.72 59.38L49.1342 60.7942V60.7942L47.72 59.38ZM49.66 53.78V55.78C49.7641 55.78 49.4705 55.8066 49.1538 55.5062C48.8172 55.187 48.82 54.8495 48.82 54.88H50.82H52.82C52.82 54.1771 52.6295 53.2896 51.9062 52.6038C51.2028 51.9367 50.3292 51.78 49.66 51.78V53.78ZM50.82 54.88V56.88H60.8V54.88V52.88H50.82V54.88ZM60.8 54.88V56.88C60.9889 56.88 61.0747 56.9047 61.0904 56.91C61.0965 56.912 61.0851 56.9088 61.0629 56.8953C61.04 56.8815 61.0127 56.8611 60.9858 56.8342L62.4 55.42L63.8142 54.0058C62.9532 53.1448 61.8275 52.88 60.8 52.88V54.88ZM62.4 55.42L60.9858 56.8342C60.9589 56.8073 60.9385 56.78 60.9247 56.7571C60.9112 56.7349 60.908 56.7235 60.91 56.7296C60.9153 56.7453 60.94 56.8311 60.94 57.02H62.94H64.94C64.94 55.9925 64.6752 54.8668 63.8142 54.0058L62.4 55.42ZM62.94 57.02H60.94V64.86H62.94H64.94V57.02H62.94ZM62.94 64.86H60.94C60.94 65.0489 60.9153 65.1347 60.91 65.1504C60.908 65.1565 60.9112 65.1451 60.9247 65.1229C60.9385 65.1 60.9589 65.0727 60.9858 65.0458L62.4 66.46L63.8142 67.8742C64.6752 67.0132 64.94 65.8875 64.94 64.86H62.94ZM62.4 66.46L60.9858 65.0458C61.0127 65.0189 61.04 64.9985 61.0629 64.9847C61.0851 64.9712 61.0965 64.968 61.0904 64.97C61.0747 64.9753 60.9889 65 60.8 65V67V69C61.8275 69 62.9532 68.7352 63.8142 67.8742L62.4 66.46ZM60.8 67V65H60V67V69H60.8V67ZM60 67V65C59.9283 65 60.2419 64.9834 60.5592 65.3008C60.8766 65.6181 60.86 65.9317 60.86 65.86H58.86H56.86C56.86 66.5483 57.0334 67.4319 57.7308 68.1292C58.4281 68.8266 59.3117 69 60 69V67ZM58.86 65.86H60.86V65.78H58.86H56.86V65.86H58.86ZM58.86 65.78H60.86C60.86 65.7083 60.8766 66.0219 60.5592 66.3392C60.2419 66.6566 59.9283 66.64 60 66.64V64.64V62.64C59.3117 62.64 58.4281 62.8134 57.7308 63.5108C57.0334 64.2081 56.86 65.0917 56.86 65.78H58.86ZM60 64.64V66.64H60.54V64.64V62.64H60V64.64ZM60.54 64.64H62.54V57.24H60.54H58.54V64.64H60.54ZM60.54 57.24V55.24H50.56V57.24V59.24H60.54V57.24ZM50.56 57.24V55.24C50.3711 55.24 50.2853 55.2153 50.2696 55.21C50.2635 55.208 50.2749 55.2112 50.2971 55.2247C50.32 55.2385 50.3473 55.2589 50.3742 55.2858L48.96 56.7L47.5458 58.1142C48.4068 58.9752 49.5325 59.24 50.56 59.24V57.24ZM48.96 56.7L50.3742 55.2858C50.4011 55.3127 50.4215 55.34 50.4353 55.3629C50.4488 55.3851 50.452 55.3965 50.45 55.3904C50.4447 55.3747 50.42 55.2889 50.42 55.1H48.42H46.42C46.42 56.1275 46.6848 57.2532 47.5458 58.1142L48.96 56.7ZM48.42 55.1H50.42V54.88H48.42H46.42V55.1H48.42ZM48.42 54.88H50.42C50.42 54.8495 50.4228 55.187 50.0862 55.5062C49.7695 55.8066 49.4759 55.78 49.58 55.78V53.78V51.78C48.9108 51.78 48.0372 51.9367 47.3338 52.6038C46.6105 53.2896 46.42 54.1771 46.42 54.88H48.42ZM49.58 53.78V55.78H49.66V53.78V51.78H49.58V53.78ZM55.58 58.84V60.84C55.7689 60.84 55.8547 60.8647 55.8704 60.87C55.8765 60.872 55.8651 60.8688 55.8429 60.8553C55.82 60.8415 55.7927 60.8211 55.7658 60.7942L57.18 59.38L58.5942 57.9658C57.7332 57.1048 56.6075 56.84 55.58 56.84V58.84ZM57.18 59.38L55.7658 60.7942C55.7389 60.7673 55.7185 60.74 55.7047 60.7171C55.6912 60.6949 55.688 60.6835 55.69 60.6896C55.6953 60.7053 55.72 60.7911 55.72 60.98H57.72H59.72C59.72 59.9525 59.4552 58.8268 58.5942 57.9658L57.18 59.38ZM57.72 60.98H55.72V64.4H57.72H59.72V60.98H57.72ZM57.72 64.4H55.72C55.72 64.5889 55.6953 64.6747 55.69 64.6904C55.688 64.6965 55.6912 64.6851 55.7047 64.6629C55.7185 64.64 55.7389 64.6127 55.7658 64.5858L57.18 66L58.5942 67.4142C59.4552 66.5532 59.72 65.4275 59.72 64.4H57.72ZM57.18 66L55.7658 64.5858C55.7927 64.5589 55.82 64.5385 55.8429 64.5247C55.8651 64.5112 55.8765 64.508 55.8704 64.51C55.8547 64.5153 55.7689 64.54 55.58 64.54V66.54V68.54C56.6075 68.54 57.7332 68.2752 58.5942 67.4142L57.18 66ZM55.58 66.54V64.54H49.52V66.54V68.54H55.58V66.54ZM49.52 66.54V64.54C49.4483 64.54 49.7619 64.5234 50.0792 64.8408C50.3966 65.1581 50.38 65.4717 50.38 65.4H48.38H46.38C46.38 66.0883 46.5534 66.9719 47.2508 67.6692C47.9481 68.3666 48.8317 68.54 49.52 68.54V66.54ZM48.38 65.4H50.38V65.34H48.38H46.38V65.4H48.38ZM48.38 65.34H50.38C50.38 65.2683 50.3966 65.5819 50.0792 65.8992C49.7619 66.2166 49.4483 66.2 49.52 66.2V64.2V62.2C48.8317 62.2 47.9481 62.3734 47.2508 63.0708C46.5534 63.7681 46.38 64.6517 46.38 65.34H48.38ZM49.52 64.2V66.2H55.32V64.2V62.2H49.52V64.2ZM55.32 64.2H57.32V61.18H55.32H53.32V64.2H55.32ZM55.32 61.18V59.18H49.58V61.18V63.18H55.32V61.18ZM49.58 61.18H47.58V69.6H49.58H51.58V61.18H49.58ZM49.58 69.6V71.6H61.92V69.6V67.6H49.58V69.6ZM61.92 69.6H63.92V68.88H61.92H59.92V69.6H61.92ZM61.92 68.88H63.92C63.92 68.8016 63.9382 69.1102 63.6242 69.4242C63.3102 69.7382 63.0016 69.72 63.08 69.72V67.72V65.72C62.385 65.72 61.4965 65.8951 60.7958 66.5958C60.0951 67.2965 59.92 68.185 59.92 68.88H61.92ZM63.08 67.72V69.72H63.16V67.72V65.72H63.08V67.72ZM63.16 67.72V69.72C63.2384 69.72 62.9298 69.7382 62.6158 69.4242C62.3018 69.1102 62.32 68.8016 62.32 68.88H64.32H66.32C66.32 68.185 66.1449 67.2965 65.4442 66.5958C64.7435 65.8951 63.855 65.72 63.16 65.72V67.72ZM64.32 68.88H62.32V69.8H64.32H66.32V68.88H64.32ZM64.32 69.8H62.32C62.32 69.9889 62.2953 70.0747 62.29 70.0904C62.288 70.0965 62.2912 70.0851 62.3047 70.0629C62.3185 70.04 62.3389 70.0127 62.3658 69.9858L63.78 71.4L65.1942 72.8142C66.0552 71.9532 66.32 70.8275 66.32 69.8H64.32ZM63.78 71.4L62.3658 69.9858C62.3927 69.9589 62.42 69.9385 62.4429 69.9247C62.4651 69.9112 62.4765 69.908 62.4704 69.91C62.4547 69.9153 62.3689 69.94 62.18 69.94V71.94V73.94C63.2075 73.94 64.3332 73.6752 65.1942 72.8142L63.78 71.4ZM62.18 71.94V69.94H49.32V71.94V73.94H62.18V71.94ZM49.32 71.94V69.94C49.1311 69.94 49.0453 69.9153 49.0296 69.91C49.0235 69.908 49.0349 69.9112 49.0571 69.9247C49.08 69.9385 49.1073 69.9589 49.1342 69.9858L47.72 71.4L46.3058 72.8142C47.1668 73.6752 48.2925 73.94 49.32 73.94V71.94ZM47.72 71.4L49.1342 69.9858C49.1611 70.0127 49.1815 70.04 49.1953 70.0629C49.2088 70.0851 49.212 70.0965 49.21 70.0904C49.2047 70.0747 49.18 69.9889 49.18 69.8H47.18H45.18C45.18 70.8275 45.4448 71.9532 46.3058 72.8142L47.72 71.4ZM47.18 69.8H49.18V60.98H47.18H45.18V69.8H47.18ZM47.18 60.98H49.18C49.18 60.7911 49.2047 60.7053 49.21 60.6896C49.212 60.6835 49.2088 60.6949 49.1953 60.7171C49.1815 60.74 49.1611 60.7673 49.1342 60.7942L47.72 59.38L46.3058 57.9658C45.4448 58.8268 45.18 59.9525 45.18 60.98H47.18ZM47.72 59.38L49.1342 60.7942C49.1073 60.8211 49.08 60.8415 49.0571 60.8553C49.0349 60.8688 49.0235 60.872 49.0296 60.87C49.0453 60.8647 49.1311 60.84 49.32 60.84V58.84V56.84C48.2925 56.84 47.1668 57.1048 46.3058 57.9658L47.72 59.38ZM49.32 58.84V60.84H55.58V58.84V56.84H49.32V58.84Z" fill="#4E433C" mask="url(#path-35-outside-1_424_3794)"/>
</svg>
