<svg width="90" height="94" viewBox="0 0 90 94" fill="none" xmlns="http://www.w3.org/2000/svg">
<path d="M58.4195 12.2986C58.9534 12.3018 59.5436 12.5151 59.9029 12.9109C60.7227 13.8138 60.4865 15.7174 60.4771 16.8865C61.5995 16.8519 62.782 16.8462 63.9058 16.8601C64.8953 16.8723 66.2723 16.7692 67.2085 16.9919C67.8161 17.1359 68.3763 17.4336 68.8345 17.8562C70.518 19.43 69.9941 21.9614 69.4175 23.9118C67.9806 28.7752 64.9363 32.2664 59.9859 33.6208C58.6282 37.8353 56.2818 40.8585 52.316 43.0271C51.2775 43.6574 49.469 43.8395 49.0591 45.1618C48.8409 45.8664 48.8877 47.1541 49.2544 47.7859C50.5383 49.9935 53.7586 47.9262 53.6988 51.5691L36.604 51.5701C36.597 50.8848 36.654 50.2655 37.1539 49.738C38.5066 48.3092 41.3292 49.8969 41.3033 46.1072C41.2985 45.4211 41.1915 44.8249 40.6675 44.3327C39.9659 43.6728 38.7603 43.4428 37.9097 42.9773C34.007 40.8425 31.7135 37.7668 30.2876 33.6277C26.8078 32.7691 24.2647 30.684 22.3824 27.6482C21.1791 25.7074 19.744 21.8309 20.3228 19.5896C20.5536 18.6583 21.1561 17.8613 21.9908 17.3835C22.3904 17.1526 22.8301 16.9985 23.2867 16.9285C23.6608 16.8677 24.0243 16.8551 24.4029 16.8591C26.1537 16.8778 27.9204 16.8328 29.6705 16.8816C29.6723 14.8397 29.1871 12.2564 32.0796 12.2947C32.8239 12.3045 33.5962 12.2895 34.3443 12.2898L40.3111 12.2908L52.191 12.2898C54.267 12.2898 56.3439 12.286 58.4195 12.2986ZM65.2486 21.2517C64.6673 20.82 61.3689 21.0047 60.4781 21.0007C60.4771 23.5961 60.5014 26.2383 60.4712 28.8298C61.7495 28.271 62.5884 27.7201 63.5005 26.6335C64.2482 25.6569 65.7193 23.0862 65.5738 21.8484C65.5455 21.6096 65.4447 21.3972 65.2486 21.2517ZM29.6773 21.0046C28.621 21.0022 26.2836 20.935 25.3111 21.0368C24.8992 21.2903 24.8461 21.3524 24.6431 21.7908C24.8866 23.8563 26.2285 26.4312 27.8775 27.7429C28.3148 28.0899 28.7907 28.3861 29.2955 28.6257C29.4603 28.6924 29.4999 28.7434 29.6431 28.7146C29.6997 28.317 29.6718 27.8855 29.6763 27.4822C29.7008 25.329 29.6367 23.1565 29.6773 21.0046Z" fill="#F9C74A"/>
<path d="M53.6993 51.5701C54.8203 51.5691 55.9357 51.5038 56.8621 52.2394C57.2327 52.5344 57.5202 52.9205 57.6947 53.3601C57.8582 53.7688 57.9106 54.2662 57.9714 54.7035C58.1722 56.037 58.3051 57.3442 58.4852 58.6824C58.7134 60.3771 57.9365 61.8948 56.0555 61.9643C54.4866 62.0216 52.8941 61.9915 51.3157 61.9892L42.886 61.9864L36.8808 61.9897C35.8676 61.9897 34.7808 62.0042 33.7697 61.9446C33.3398 61.9192 32.7251 61.5646 32.4051 61.2936C31.9152 60.8703 31.5776 60.0376 31.6209 59.3945C31.7268 57.8872 31.976 56.386 32.1457 54.8834C32.2503 53.9576 32.4378 53.1065 33.1207 52.4174C34.0933 51.4353 35.3422 51.5743 36.6048 51.5719L53.6993 51.5701Z" fill="#51433D"/>
<path d="M18.0723 32.973C18.2231 32.9625 18.3884 32.9574 18.5376 32.9879C19.6766 33.2224 19.8583 36.0952 20.6223 36.9637C21.3918 37.8378 23.9239 37.8665 24.5285 38.8454C24.6645 39.0661 24.6982 39.3489 24.6303 39.5974C24.3064 40.7811 21.536 40.8623 20.6896 41.6777C19.7178 42.6129 19.9173 45.0301 18.5874 45.7633C16.8598 45.9103 16.922 42.689 16.0561 41.7543C15.3336 40.9741 12.6808 40.7411 12.134 39.8369C11.9984 39.6077 11.9639 39.3329 12.0388 39.0769C12.3579 37.998 15.2582 37.7185 15.9402 37.0591C16.8778 36.153 16.8484 33.6681 18.0723 32.973Z" fill="#F5798F"/>
<path d="M72.1287 38.7031C73.7528 38.705 73.435 41.2353 74.4481 42.2664C75.2887 43.1226 78.5241 43.0883 77.9273 44.7972C77.5888 45.7671 75.0539 45.8991 74.4203 46.6093C73.6443 47.4783 73.6792 49.8808 72.396 50.2416C71.0232 50.158 71.0166 48.2758 70.5268 47.2829C70.4278 47.0814 70.2939 46.6967 70.0935 46.5637C69.2789 46.024 68.2215 45.8507 67.3404 45.4205C66.7789 45.1523 66.3221 44.6609 66.6676 44.0315C67.3144 42.9582 69.409 43.0977 70.2048 42.2039C70.9265 41.3927 70.9214 39.0343 72.1287 38.7031Z" fill="#F5F2E8"/>
<path d="M44.8257 0.0152289C46.8849 -0.227659 46.4064 2.49685 46.4332 3.76113C46.4606 5.01925 46.651 6.16191 45.2905 6.65393C43.4552 6.73012 43.6468 4.70083 43.6961 3.42876C43.7511 2.00018 43.2944 0.649573 44.8257 0.0152289Z" fill="#F9C74A"/>
<path d="M54.0355 2.95312C54.9807 2.9589 55.2914 3.47427 55.5356 4.28983C55.3216 5.34856 54.0671 6.92632 53.5433 7.92628C53.2473 8.4921 52.872 8.87195 52.246 9.05227C51.0881 9.05129 50.3838 8.06832 50.9599 7.01908C51.379 6.28859 51.7986 5.53306 52.2667 4.83103C52.8621 3.93731 52.9625 3.31288 54.0355 2.95312Z" fill="#F9C74A"/>
<path d="M35.8213 2.95745C36.133 2.94961 36.7137 3.05022 36.9046 3.32294C37.802 4.60497 38.6537 6.0164 39.36 7.41144C39.4506 7.59064 39.3747 8.11554 39.2646 8.29098C39.0035 8.75275 38.7189 8.90625 38.2391 9.05036C37.1163 9.00475 36.8931 8.37759 36.3566 7.50167C35.841 6.65981 35.2866 5.79127 34.8416 4.91267C34.363 3.96766 34.9131 3.2848 35.8213 2.95745Z" fill="#F9C74A"/>
<path d="M44.9937 19.5236C47.0836 19.5007 47.0506 22.6695 48.265 23.6402C49.5511 24.5225 52.3802 23.752 53.1029 25.3887C53.8171 27.0051 50.8984 28.346 50.353 29.5472C49.8769 30.595 51.1577 33.0052 50.6142 34.1531C50.3002 34.8171 49.487 35.1295 48.7822 34.9262C47.6597 34.5163 46.5868 33.8551 45.4845 33.3367C43.8785 33.1871 38.6709 38.0614 39.8931 31.7154C40.0145 31.0849 40.137 30.3922 40.1908 29.7543C39.6337 28.7298 37.5284 27.2997 37.2649 26.3796C36.6601 23.7904 40.3984 24.4268 41.6704 23.8796C43.3218 23.1693 43.038 20.131 44.9937 19.5236Z" fill="#F5F2E8"/>
<mask id="path-10-outside-1_432_4170" maskUnits="userSpaceOnUse" x="11" y="55" width="68" height="24" fill="black">
<rect fill="white" x="11" y="55" width="68" height="24"/>
<path d="M31.02 60.08C31.7667 60.08 32.14 60.4467 32.14 61.18V61.28C32.14 62.0133 31.7733 62.38 31.04 62.38H29.16C28.4133 62.38 28.04 62.0067 28.04 61.26V61.2C28.04 60.4533 28.4133 60.08 29.16 60.08H31.02ZM30.78 65.32C31.5133 65.32 31.88 65.6867 31.88 66.42V66.52C31.88 67.2533 31.5133 67.62 30.78 67.62H29.16C28.4133 67.62 28.04 67.2467 28.04 66.5V66.44C28.04 65.6933 28.4133 65.32 29.16 65.32H30.78ZM31.1 70.64C31.8333 70.64 32.2 71.0067 32.2 71.74V71.84C32.2 72.5733 31.8333 72.94 31.1 72.94H29.16C28.4133 72.94 28.04 72.5667 28.04 71.82V71.76C28.04 71.0133 28.4133 70.64 29.16 70.64H31.1ZM23.8 57.8C24.56 57.8 24.94 58.18 24.94 58.94V75.06C24.94 75.82 24.56 76.2 23.8 76.2H23.72C22.96 76.2 22.58 75.82 22.58 75.06V58.94C22.58 58.18 22.96 57.8 23.72 57.8H23.8ZM28.08 57.8C28.84 57.8 29.22 58.18 29.22 58.94V75.06C29.22 75.82 28.84 76.2 28.08 76.2H28C27.24 76.2 26.86 75.82 26.86 75.06V58.94C26.86 58.18 27.24 57.8 28 57.8H28.08ZM22.64 60.08C23.3867 60.08 23.76 60.4467 23.76 61.18V61.28C23.76 62.0133 23.3933 62.38 22.66 62.38H20.78C20.0333 62.38 19.66 62.0067 19.66 61.26V61.2C19.66 60.4533 20.0333 60.08 20.78 60.08H22.64ZM22.66 65.32C23.3933 65.32 23.76 65.6867 23.76 66.42V66.52C23.76 67.2533 23.3933 67.62 22.66 67.62H21.04C20.2933 67.62 19.92 67.2467 19.92 66.5V66.44C19.92 65.6933 20.2933 65.32 21.04 65.32H22.66ZM22.66 70.64C23.3933 70.64 23.76 71.0067 23.76 71.74V71.84C23.76 72.5733 23.3933 72.94 22.66 72.94H20.54C19.7933 72.94 19.42 72.5667 19.42 71.82V71.76C19.42 71.0133 19.7933 70.64 20.54 70.64H22.66ZM18.28 60.9C19.04 60.9 19.42 61.2733 19.42 62.02V62.12C19.42 62.8667 19.0467 63.24 18.3 63.24H15C14.24 63.24 13.86 62.86 13.86 62.1V62.04C13.86 61.28 14.24 60.9 15 60.9H18.28ZM18.28 66.76C19.04 66.76 19.42 67.1333 19.42 67.88V67.98C19.42 68.7267 19.0467 69.1 18.3 69.1H15C14.24 69.1 13.86 68.72 13.86 67.96V67.9C13.86 67.14 14.24 66.76 15 66.76H18.28ZM17 57.76C17.76 57.76 18.14 58.14 18.14 58.9V73.84C18.14 74.5467 17.96 75.08 17.6 75.44C17.24 75.8133 16.7 76 15.98 76H15.36C14.5733 76 14.18 75.6067 14.18 74.82V74.74C14.18 73.9533 14.5733 73.56 15.36 73.56H15.76V58.92C15.76 58.1467 16.1467 57.76 16.92 57.76H17ZM43.7 59.5C43.7 58.74 44.08 58.36 44.84 58.36H52.4C53.16 58.36 53.54 58.74 53.54 59.5V59.58C53.54 60.34 53.16 60.72 52.4 60.72H44.84C44.08 60.72 43.7 60.34 43.7 59.58V59.5ZM42.86 65.3C42.86 64.54 43.24 64.16 44 64.16H53.12C53.88 64.16 54.26 64.54 54.26 65.3V65.38C54.26 66.14 53.88 66.52 53.12 66.52H44C43.24 66.52 42.86 66.14 42.86 65.38V65.3ZM47.04 74.74C47.04 73.9667 47.4267 73.58 48.2 73.58H49.14V66.56C49.14 65.7467 49.5467 65.34 50.36 65.34H50.44C51.2533 65.34 51.66 65.7467 51.66 66.56V73.76C51.66 74.48 51.4733 75.0267 51.1 75.4C50.7267 75.7867 50.1733 75.98 49.44 75.98H48.2C47.4267 75.98 47.04 75.5933 47.04 74.82V74.74ZM38.22 69.12C38.22 68.3067 38.6267 67.9 39.44 67.9H39.52C40.3333 67.9 40.74 68.3067 40.74 69.12V75.02C40.74 75.8333 40.3333 76.24 39.52 76.24H39.44C38.6267 76.24 38.22 75.8333 38.22 75.02V69.12ZM41.56 63.5C41.84 63.78 41.9867 64.0533 42 64.32C42.0133 64.5733 41.8933 64.84 41.64 65.12C40.9333 65.88 40.2 66.6267 39.44 67.36C38.6933 68.0933 38.0733 68.6733 37.58 69.1C36.9533 69.6467 36.4133 69.62 35.96 69.02L35.9 68.94C35.66 68.6333 35.5467 68.3533 35.56 68.1C35.5867 67.8333 35.74 67.5733 36.02 67.32C36.7133 66.7067 37.3933 66.0733 38.06 65.42C38.74 64.7533 39.3467 64.1267 39.88 63.54C40.1467 63.26 40.42 63.1133 40.7 63.1C40.98 63.0733 41.2533 63.1933 41.52 63.46L41.56 63.5ZM41.3 58.12C41.58 58.4 41.7267 58.6733 41.74 58.94C41.7533 59.1933 41.6267 59.46 41.36 59.74C40.24 60.9 39.0467 62.0133 37.78 63.08C37.1933 63.5867 36.6667 63.54 36.2 62.94L36.14 62.86C35.6867 62.26 35.74 61.72 36.3 61.24C36.9933 60.6667 37.6533 60.0867 38.28 59.5C38.9067 58.9133 39.3533 58.4667 39.62 58.16C40.1667 57.56 40.7133 57.5333 41.26 58.08L41.3 58.12ZM70.54 57.8C71.2467 57.8 71.6 58.1533 71.6 58.86V58.96C71.6 59.6667 71.2467 60.02 70.54 60.02H70.28C69.56 60.02 69.2 59.66 69.2 58.94V58.88C69.2 58.16 69.56 57.8 70.28 57.8H70.54ZM75.1 58.96C75.78 58.96 76.12 59.3 76.12 59.98V60.06C76.12 60.74 75.78 61.08 75.1 61.08H65.66C64.98 61.08 64.64 60.74 64.64 60.06V59.98C64.64 59.3 64.98 58.96 65.66 58.96H75.1ZM73.42 61.4C74.1667 61.5467 74.4733 61.9867 74.34 62.72L74.3 62.96C74.1533 63.7067 73.7133 64.0133 72.98 63.88H72.9C72.1533 63.7333 71.8467 63.2933 71.98 62.56L72.02 62.32C72.1667 61.5733 72.6067 61.2667 73.34 61.4H73.42ZM67.42 61.4C68.1533 61.2667 68.5933 61.5733 68.74 62.32L68.78 62.56C68.9133 63.2933 68.6067 63.7333 67.86 63.88H67.78C67.0467 64.0133 66.6067 63.7067 66.46 62.96L66.42 62.72C66.2867 61.9867 66.5933 61.5467 67.34 61.4H67.42ZM74.34 62.82C74.98 62.82 75.4667 62.9867 75.8 63.32C76.1333 63.64 76.3 64.1267 76.3 64.78V64.98C76.3 65.7 75.94 66.06 75.22 66.06H75.14C74.42 66.06 74.06 65.7 74.06 64.98V64.94H66.72V64.98C66.72 65.7 66.36 66.06 65.64 66.06H65.56C64.84 66.06 64.48 65.7 64.48 64.98V64.78C64.48 64.14 64.64 63.6533 64.96 63.32C65.2933 62.9867 65.7867 62.82 66.44 62.82H74.34ZM67.86 67.78C68.62 67.78 69 68.16 69 68.92V69.92C69 72.32 68.0733 74.2867 66.22 75.82C65.6067 76.2867 65.0867 76.1933 64.66 75.54L64.62 75.46C64.4067 75.14 64.3267 74.8467 64.38 74.58C64.4467 74.3133 64.6333 74.06 64.94 73.82C65.5533 73.2733 65.9867 72.6933 66.24 72.08C66.5067 71.4533 66.64 70.7333 66.64 69.92V68.92C66.64 68.16 67.02 67.78 67.78 67.78H67.86ZM70.44 65.36C71.1867 65.36 71.56 65.7333 71.56 66.48V66.66C71.56 67.4067 71.1867 67.78 70.44 67.78H70.36C69.6133 67.78 69.24 67.4067 69.24 66.66V66.48C69.24 65.7333 69.6133 65.36 70.36 65.36H70.44ZM75.28 66.7C75.9733 66.7 76.32 67.0467 76.32 67.74V67.82C76.32 68.5133 75.9733 68.86 75.28 68.86H65.48C64.7867 68.86 64.44 68.5133 64.44 67.82V67.74C64.44 67.0467 64.7867 66.7 65.48 66.7H75.28ZM73.76 70.02C74.4267 70.02 74.9333 70.1933 75.28 70.54C75.6267 70.8733 75.8 71.38 75.8 72.06V74.06C75.8 74.7267 75.6267 75.2333 75.28 75.58C74.9467 75.9267 74.44 76.1 73.76 76.1H72.88C72.1867 76.1 71.84 75.7533 71.84 75.06V74.98C71.84 74.2867 72.1867 73.94 72.88 73.94H73.44V72.18H68.86C68.1667 72.18 67.82 71.8333 67.82 71.14V71.06C67.82 70.3667 68.1667 70.02 68.86 70.02H73.76ZM58.94 63.94C59.58 63.94 59.9 64.26 59.9 64.9V67.04C59.9 69.32 59.76 71.3733 59.48 73.2C59.3733 73.84 59.0067 74.1 58.38 73.98H58.3C57.6867 73.86 57.4267 73.48 57.52 72.84C57.7733 71.0533 57.9 69.12 57.9 67.04V64.9C57.9 64.26 58.22 63.94 58.86 63.94H58.94ZM62.92 60.56C63.6933 60.56 64.08 60.9467 64.08 61.72V61.8C64.08 62.5733 63.6933 62.96 62.92 62.96H58.88C58.1067 62.96 57.72 62.5733 57.72 61.8V61.72C57.72 60.9467 58.1067 60.56 58.88 60.56H62.92ZM61.84 57.78C62.5867 57.78 62.96 58.1533 62.96 58.9V75.1C62.96 75.8467 62.5867 76.22 61.84 76.22H61.76C61.0133 76.22 60.64 75.8467 60.64 75.1V58.9C60.64 58.1533 61.0133 57.78 61.76 57.78H61.84ZM63.7 66.16C64.3667 66.56 64.5 67.0933 64.1 67.76L64.06 67.84C63.66 68.5067 63.1267 68.64 62.46 68.24L62.18 68.08C61.5133 67.68 61.38 67.1467 61.78 66.48L61.82 66.4C62.22 65.7333 62.7533 65.6 63.42 66L63.7 66.16Z"/>
</mask>
<path d="M31.02 60.08C31.7667 60.08 32.14 60.4467 32.14 61.18V61.28C32.14 62.0133 31.7733 62.38 31.04 62.38H29.16C28.4133 62.38 28.04 62.0067 28.04 61.26V61.2C28.04 60.4533 28.4133 60.08 29.16 60.08H31.02ZM30.78 65.32C31.5133 65.32 31.88 65.6867 31.88 66.42V66.52C31.88 67.2533 31.5133 67.62 30.78 67.62H29.16C28.4133 67.62 28.04 67.2467 28.04 66.5V66.44C28.04 65.6933 28.4133 65.32 29.16 65.32H30.78ZM31.1 70.64C31.8333 70.64 32.2 71.0067 32.2 71.74V71.84C32.2 72.5733 31.8333 72.94 31.1 72.94H29.16C28.4133 72.94 28.04 72.5667 28.04 71.82V71.76C28.04 71.0133 28.4133 70.64 29.16 70.64H31.1ZM23.8 57.8C24.56 57.8 24.94 58.18 24.94 58.94V75.06C24.94 75.82 24.56 76.2 23.8 76.2H23.72C22.96 76.2 22.58 75.82 22.58 75.06V58.94C22.58 58.18 22.96 57.8 23.72 57.8H23.8ZM28.08 57.8C28.84 57.8 29.22 58.18 29.22 58.94V75.06C29.22 75.82 28.84 76.2 28.08 76.2H28C27.24 76.2 26.86 75.82 26.86 75.06V58.94C26.86 58.18 27.24 57.8 28 57.8H28.08ZM22.64 60.08C23.3867 60.08 23.76 60.4467 23.76 61.18V61.28C23.76 62.0133 23.3933 62.38 22.66 62.38H20.78C20.0333 62.38 19.66 62.0067 19.66 61.26V61.2C19.66 60.4533 20.0333 60.08 20.78 60.08H22.64ZM22.66 65.32C23.3933 65.32 23.76 65.6867 23.76 66.42V66.52C23.76 67.2533 23.3933 67.62 22.66 67.62H21.04C20.2933 67.62 19.92 67.2467 19.92 66.5V66.44C19.92 65.6933 20.2933 65.32 21.04 65.32H22.66ZM22.66 70.64C23.3933 70.64 23.76 71.0067 23.76 71.74V71.84C23.76 72.5733 23.3933 72.94 22.66 72.94H20.54C19.7933 72.94 19.42 72.5667 19.42 71.82V71.76C19.42 71.0133 19.7933 70.64 20.54 70.64H22.66ZM18.28 60.9C19.04 60.9 19.42 61.2733 19.42 62.02V62.12C19.42 62.8667 19.0467 63.24 18.3 63.24H15C14.24 63.24 13.86 62.86 13.86 62.1V62.04C13.86 61.28 14.24 60.9 15 60.9H18.28ZM18.28 66.76C19.04 66.76 19.42 67.1333 19.42 67.88V67.98C19.42 68.7267 19.0467 69.1 18.3 69.1H15C14.24 69.1 13.86 68.72 13.86 67.96V67.9C13.86 67.14 14.24 66.76 15 66.76H18.28ZM17 57.76C17.76 57.76 18.14 58.14 18.14 58.9V73.84C18.14 74.5467 17.96 75.08 17.6 75.44C17.24 75.8133 16.7 76 15.98 76H15.36C14.5733 76 14.18 75.6067 14.18 74.82V74.74C14.18 73.9533 14.5733 73.56 15.36 73.56H15.76V58.92C15.76 58.1467 16.1467 57.76 16.92 57.76H17ZM43.7 59.5C43.7 58.74 44.08 58.36 44.84 58.36H52.4C53.16 58.36 53.54 58.74 53.54 59.5V59.58C53.54 60.34 53.16 60.72 52.4 60.72H44.84C44.08 60.72 43.7 60.34 43.7 59.58V59.5ZM42.86 65.3C42.86 64.54 43.24 64.16 44 64.16H53.12C53.88 64.16 54.26 64.54 54.26 65.3V65.38C54.26 66.14 53.88 66.52 53.12 66.52H44C43.24 66.52 42.86 66.14 42.86 65.38V65.3ZM47.04 74.74C47.04 73.9667 47.4267 73.58 48.2 73.58H49.14V66.56C49.14 65.7467 49.5467 65.34 50.36 65.34H50.44C51.2533 65.34 51.66 65.7467 51.66 66.56V73.76C51.66 74.48 51.4733 75.0267 51.1 75.4C50.7267 75.7867 50.1733 75.98 49.44 75.98H48.2C47.4267 75.98 47.04 75.5933 47.04 74.82V74.74ZM38.22 69.12C38.22 68.3067 38.6267 67.9 39.44 67.9H39.52C40.3333 67.9 40.74 68.3067 40.74 69.12V75.02C40.74 75.8333 40.3333 76.24 39.52 76.24H39.44C38.6267 76.24 38.22 75.8333 38.22 75.02V69.12ZM41.56 63.5C41.84 63.78 41.9867 64.0533 42 64.32C42.0133 64.5733 41.8933 64.84 41.64 65.12C40.9333 65.88 40.2 66.6267 39.44 67.36C38.6933 68.0933 38.0733 68.6733 37.58 69.1C36.9533 69.6467 36.4133 69.62 35.96 69.02L35.9 68.94C35.66 68.6333 35.5467 68.3533 35.56 68.1C35.5867 67.8333 35.74 67.5733 36.02 67.32C36.7133 66.7067 37.3933 66.0733 38.06 65.42C38.74 64.7533 39.3467 64.1267 39.88 63.54C40.1467 63.26 40.42 63.1133 40.7 63.1C40.98 63.0733 41.2533 63.1933 41.52 63.46L41.56 63.5ZM41.3 58.12C41.58 58.4 41.7267 58.6733 41.74 58.94C41.7533 59.1933 41.6267 59.46 41.36 59.74C40.24 60.9 39.0467 62.0133 37.78 63.08C37.1933 63.5867 36.6667 63.54 36.2 62.94L36.14 62.86C35.6867 62.26 35.74 61.72 36.3 61.24C36.9933 60.6667 37.6533 60.0867 38.28 59.5C38.9067 58.9133 39.3533 58.4667 39.62 58.16C40.1667 57.56 40.7133 57.5333 41.26 58.08L41.3 58.12ZM70.54 57.8C71.2467 57.8 71.6 58.1533 71.6 58.86V58.96C71.6 59.6667 71.2467 60.02 70.54 60.02H70.28C69.56 60.02 69.2 59.66 69.2 58.94V58.88C69.2 58.16 69.56 57.8 70.28 57.8H70.54ZM75.1 58.96C75.78 58.96 76.12 59.3 76.12 59.98V60.06C76.12 60.74 75.78 61.08 75.1 61.08H65.66C64.98 61.08 64.64 60.74 64.64 60.06V59.98C64.64 59.3 64.98 58.96 65.66 58.96H75.1ZM73.42 61.4C74.1667 61.5467 74.4733 61.9867 74.34 62.72L74.3 62.96C74.1533 63.7067 73.7133 64.0133 72.98 63.88H72.9C72.1533 63.7333 71.8467 63.2933 71.98 62.56L72.02 62.32C72.1667 61.5733 72.6067 61.2667 73.34 61.4H73.42ZM67.42 61.4C68.1533 61.2667 68.5933 61.5733 68.74 62.32L68.78 62.56C68.9133 63.2933 68.6067 63.7333 67.86 63.88H67.78C67.0467 64.0133 66.6067 63.7067 66.46 62.96L66.42 62.72C66.2867 61.9867 66.5933 61.5467 67.34 61.4H67.42ZM74.34 62.82C74.98 62.82 75.4667 62.9867 75.8 63.32C76.1333 63.64 76.3 64.1267 76.3 64.78V64.98C76.3 65.7 75.94 66.06 75.22 66.06H75.14C74.42 66.06 74.06 65.7 74.06 64.98V64.94H66.72V64.98C66.72 65.7 66.36 66.06 65.64 66.06H65.56C64.84 66.06 64.48 65.7 64.48 64.98V64.78C64.48 64.14 64.64 63.6533 64.96 63.32C65.2933 62.9867 65.7867 62.82 66.44 62.82H74.34ZM67.86 67.78C68.62 67.78 69 68.16 69 68.92V69.92C69 72.32 68.0733 74.2867 66.22 75.82C65.6067 76.2867 65.0867 76.1933 64.66 75.54L64.62 75.46C64.4067 75.14 64.3267 74.8467 64.38 74.58C64.4467 74.3133 64.6333 74.06 64.94 73.82C65.5533 73.2733 65.9867 72.6933 66.24 72.08C66.5067 71.4533 66.64 70.7333 66.64 69.92V68.92C66.64 68.16 67.02 67.78 67.78 67.78H67.86ZM70.44 65.36C71.1867 65.36 71.56 65.7333 71.56 66.48V66.66C71.56 67.4067 71.1867 67.78 70.44 67.78H70.36C69.6133 67.78 69.24 67.4067 69.24 66.66V66.48C69.24 65.7333 69.6133 65.36 70.36 65.36H70.44ZM75.28 66.7C75.9733 66.7 76.32 67.0467 76.32 67.74V67.82C76.32 68.5133 75.9733 68.86 75.28 68.86H65.48C64.7867 68.86 64.44 68.5133 64.44 67.82V67.74C64.44 67.0467 64.7867 66.7 65.48 66.7H75.28ZM73.76 70.02C74.4267 70.02 74.9333 70.1933 75.28 70.54C75.6267 70.8733 75.8 71.38 75.8 72.06V74.06C75.8 74.7267 75.6267 75.2333 75.28 75.58C74.9467 75.9267 74.44 76.1 73.76 76.1H72.88C72.1867 76.1 71.84 75.7533 71.84 75.06V74.98C71.84 74.2867 72.1867 73.94 72.88 73.94H73.44V72.18H68.86C68.1667 72.18 67.82 71.8333 67.82 71.14V71.06C67.82 70.3667 68.1667 70.02 68.86 70.02H73.76ZM58.94 63.94C59.58 63.94 59.9 64.26 59.9 64.9V67.04C59.9 69.32 59.76 71.3733 59.48 73.2C59.3733 73.84 59.0067 74.1 58.38 73.98H58.3C57.6867 73.86 57.4267 73.48 57.52 72.84C57.7733 71.0533 57.9 69.12 57.9 67.04V64.9C57.9 64.26 58.22 63.94 58.86 63.94H58.94ZM62.92 60.56C63.6933 60.56 64.08 60.9467 64.08 61.72V61.8C64.08 62.5733 63.6933 62.96 62.92 62.96H58.88C58.1067 62.96 57.72 62.5733 57.72 61.8V61.72C57.72 60.9467 58.1067 60.56 58.88 60.56H62.92ZM61.84 57.78C62.5867 57.78 62.96 58.1533 62.96 58.9V75.1C62.96 75.8467 62.5867 76.22 61.84 76.22H61.76C61.0133 76.22 60.64 75.8467 60.64 75.1V58.9C60.64 58.1533 61.0133 57.78 61.76 57.78H61.84ZM63.7 66.16C64.3667 66.56 64.5 67.0933 64.1 67.76L64.06 67.84C63.66 68.5067 63.1267 68.64 62.46 68.24L62.18 68.08C61.5133 67.68 61.38 67.1467 61.78 66.48L61.82 66.4C62.22 65.7333 62.7533 65.6 63.42 66L63.7 66.16Z" fill="white"/>
<path d="M17.6 75.44L16.1858 74.0258L16.1729 74.0386L16.1603 74.0517L17.6 75.44ZM15.76 73.56V75.56H17.76V73.56H15.76ZM31.02 60.08V62.08C31.094 62.08 30.7804 62.098 30.4586 61.7819C30.1301 61.4593 30.14 61.1308 30.14 61.18H32.14H34.14C34.14 60.4958 33.9632 59.6174 33.2614 58.9281C32.5662 58.2453 31.6927 58.08 31.02 58.08V60.08ZM32.14 61.18H30.14V61.28H32.14H34.14V61.18H32.14ZM32.14 61.28H30.14C30.14 61.3384 30.1268 61.0148 30.4508 60.6908C30.7748 60.3668 31.0984 60.38 31.04 60.38V62.38V64.38C31.715 64.38 32.5885 64.2099 33.2792 63.5192C33.9699 62.8285 34.14 61.955 34.14 61.28H32.14ZM31.04 62.38V60.38H29.16V62.38V64.38H31.04V62.38ZM29.16 62.38V60.38C29.095 60.38 29.4135 60.3651 29.7342 60.6858C30.0549 61.0065 30.04 61.325 30.04 61.26H28.04H26.04C26.04 61.9416 26.2118 62.8202 26.9058 63.5142C27.5998 64.2082 28.4784 64.38 29.16 64.38V62.38ZM28.04 61.26H30.04V61.2H28.04H26.04V61.26H28.04ZM28.04 61.2H30.04C30.04 61.135 30.0549 61.4535 29.7342 61.7742C29.4135 62.0949 29.095 62.08 29.16 62.08V60.08V58.08C28.4784 58.08 27.5998 58.2518 26.9058 58.9458C26.2118 59.6398 26.04 60.5184 26.04 61.2H28.04ZM29.16 60.08V62.08H31.02V60.08V58.08H29.16V60.08ZM30.78 65.32V67.32C30.8384 67.32 30.5148 67.3332 30.1908 67.0092C29.8668 66.6852 29.88 66.3616 29.88 66.42H31.88H33.88C33.88 65.745 33.7099 64.8715 33.0192 64.1808C32.3285 63.4901 31.455 63.32 30.78 63.32V65.32ZM31.88 66.42H29.88V66.52H31.88H33.88V66.42H31.88ZM31.88 66.52H29.88C29.88 66.5784 29.8668 66.2548 30.1908 65.9308C30.5148 65.6068 30.8384 65.62 30.78 65.62V67.62V69.62C31.455 69.62 32.3285 69.4499 33.0192 68.7592C33.7099 68.0685 33.88 67.195 33.88 66.52H31.88ZM30.78 67.62V65.62H29.16V67.62V69.62H30.78V67.62ZM29.16 67.62V65.62C29.095 65.62 29.4135 65.6051 29.7342 65.9258C30.0549 66.2465 30.04 66.565 30.04 66.5H28.04H26.04C26.04 67.1816 26.2118 68.0602 26.9058 68.7542C27.5998 69.4482 28.4784 69.62 29.16 69.62V67.62ZM28.04 66.5H30.04V66.44H28.04H26.04V66.5H28.04ZM28.04 66.44H30.04C30.04 66.375 30.0549 66.6935 29.7342 67.0142C29.4135 67.3349 29.095 67.32 29.16 67.32V65.32V63.32C28.4784 63.32 27.5998 63.4918 26.9058 64.1858C26.2118 64.8798 26.04 65.7584 26.04 66.44H28.04ZM29.16 65.32V67.32H30.78V65.32V63.32H29.16V65.32ZM31.1 70.64V72.64C31.1584 72.64 30.8348 72.6532 30.5108 72.3292C30.1868 72.0052 30.2 71.6816 30.2 71.74H32.2H34.2C34.2 71.065 34.0299 70.1915 33.3392 69.5008C32.6485 68.8101 31.775 68.64 31.1 68.64V70.64ZM32.2 71.74H30.2V71.84H32.2H34.2V71.74H32.2ZM32.2 71.84H30.2C30.2 71.8984 30.1868 71.5748 30.5108 71.2508C30.8348 70.9268 31.1584 70.94 31.1 70.94V72.94V74.94C31.775 74.94 32.6485 74.7699 33.3392 74.0792C34.0299 73.3885 34.2 72.515 34.2 71.84H32.2ZM31.1 72.94V70.94H29.16V72.94V74.94H31.1V72.94ZM29.16 72.94V70.94C29.095 70.94 29.4135 70.9251 29.7342 71.2458C30.0549 71.5665 30.04 71.885 30.04 71.82H28.04H26.04C26.04 72.5016 26.2118 73.3802 26.9058 74.0742C27.5998 74.7682 28.4784 74.94 29.16 74.94V72.94ZM28.04 71.82H30.04V71.76H28.04H26.04V71.82H28.04ZM28.04 71.76H30.04C30.04 71.695 30.0549 72.0135 29.7342 72.3342C29.4135 72.6549 29.095 72.64 29.16 72.64V70.64V68.64C28.4784 68.64 27.5998 68.8118 26.9058 69.5058C26.2118 70.1998 26.04 71.0784 26.04 71.76H28.04ZM29.16 70.64V72.64H31.1V70.64V68.64H29.16V70.64ZM23.8 57.8V59.8C23.8717 59.8 23.5581 59.8166 23.2408 59.4992C22.9234 59.1819 22.94 58.8683 22.94 58.94H24.94H26.94C26.94 58.2517 26.7666 57.3681 26.0692 56.6708C25.3719 55.9734 24.4883 55.8 23.8 55.8V57.8ZM24.94 58.94H22.94V75.06H24.94H26.94V58.94H24.94ZM24.94 75.06H22.94C22.94 75.1317 22.9234 74.8181 23.2408 74.5008C23.5581 74.1834 23.8717 74.2 23.8 74.2V76.2V78.2C24.4883 78.2 25.3719 78.0266 26.0692 77.3292C26.7666 76.6319 26.94 75.7483 26.94 75.06H24.94ZM23.8 76.2V74.2H23.72V76.2V78.2H23.8V76.2ZM23.72 76.2V74.2C23.6483 74.2 23.9619 74.1834 24.2792 74.5008C24.5966 74.8181 24.58 75.1317 24.58 75.06H22.58H20.58C20.58 75.7483 20.7534 76.6319 21.4508 77.3292C22.1481 78.0266 23.0317 78.2 23.72 78.2V76.2ZM22.58 75.06H24.58V58.94H22.58H20.58V75.06H22.58ZM22.58 58.94H24.58C24.58 58.8683 24.5966 59.1819 24.2792 59.4992C23.9619 59.8166 23.6483 59.8 23.72 59.8V57.8V55.8C23.0317 55.8 22.1481 55.9734 21.4508 56.6708C20.7534 57.3681 20.58 58.2517 20.58 58.94H22.58ZM23.72 57.8V59.8H23.8V57.8V55.8H23.72V57.8ZM28.08 57.8V59.8C28.1517 59.8 27.8381 59.8166 27.5208 59.4992C27.2034 59.1819 27.22 58.8683 27.22 58.94H29.22H31.22C31.22 58.2517 31.0466 57.3681 30.3492 56.6708C29.6519 55.9734 28.7683 55.8 28.08 55.8V57.8ZM29.22 58.94H27.22V75.06H29.22H31.22V58.94H29.22ZM29.22 75.06H27.22C27.22 75.1317 27.2034 74.8181 27.5208 74.5008C27.8381 74.1834 28.1517 74.2 28.08 74.2V76.2V78.2C28.7683 78.2 29.6519 78.0266 30.3492 77.3292C31.0466 76.6319 31.22 75.7483 31.22 75.06H29.22ZM28.08 76.2V74.2H28V76.2V78.2H28.08V76.2ZM28 76.2V74.2C27.9283 74.2 28.2419 74.1834 28.5592 74.5008C28.8766 74.8181 28.86 75.1317 28.86 75.06H26.86H24.86C24.86 75.7483 25.0334 76.6319 25.7308 77.3292C26.4281 78.0266 27.3117 78.2 28 78.2V76.2ZM26.86 75.06H28.86V58.94H26.86H24.86V75.06H26.86ZM26.86 58.94H28.86C28.86 58.8683 28.8766 59.1819 28.5592 59.4992C28.2419 59.8166 27.9283 59.8 28 59.8V57.8V55.8C27.3117 55.8 26.4281 55.9734 25.7308 56.6708C25.0334 57.3681 24.86 58.2517 24.86 58.94H26.86ZM28 57.8V59.8H28.08V57.8V55.8H28V57.8ZM22.64 60.08V62.08C22.714 62.08 22.4004 62.098 22.0786 61.7819C21.7501 61.4593 21.76 61.1308 21.76 61.18H23.76H25.76C25.76 60.4958 25.5832 59.6174 24.8814 58.9281C24.1862 58.2453 23.3127 58.08 22.64 58.08V60.08ZM23.76 61.18H21.76V61.28H23.76H25.76V61.18H23.76ZM23.76 61.28H21.76C21.76 61.3384 21.7468 61.0148 22.0708 60.6908C22.3948 60.3668 22.7184 60.38 22.66 60.38V62.38V64.38C23.335 64.38 24.2085 64.2099 24.8992 63.5192C25.5899 62.8285 25.76 61.955 25.76 61.28H23.76ZM22.66 62.38V60.38H20.78V62.38V64.38H22.66V62.38ZM20.78 62.38V60.38C20.715 60.38 21.0335 60.3651 21.3542 60.6858C21.6749 61.0065 21.66 61.325 21.66 61.26H19.66H17.66C17.66 61.9416 17.8318 62.8202 18.5258 63.5142C19.2198 64.2082 20.0984 64.38 20.78 64.38V62.38ZM19.66 61.26H21.66V61.2H19.66H17.66V61.26H19.66ZM19.66 61.2H21.66C21.66 61.135 21.6749 61.4535 21.3542 61.7742C21.0335 62.0949 20.715 62.08 20.78 62.08V60.08V58.08C20.0984 58.08 19.2198 58.2518 18.5258 58.9458C17.8318 59.6398 17.66 60.5184 17.66 61.2H19.66ZM20.78 60.08V62.08H22.64V60.08V58.08H20.78V60.08ZM22.66 65.32V67.32C22.7184 67.32 22.3948 67.3332 22.0708 67.0092C21.7468 66.6852 21.76 66.3616 21.76 66.42H23.76H25.76C25.76 65.745 25.5899 64.8715 24.8992 64.1808C24.2085 63.4901 23.335 63.32 22.66 63.32V65.32ZM23.76 66.42H21.76V66.52H23.76H25.76V66.42H23.76ZM23.76 66.52H21.76C21.76 66.5784 21.7468 66.2548 22.0708 65.9308C22.3948 65.6068 22.7184 65.62 22.66 65.62V67.62V69.62C23.335 69.62 24.2085 69.4499 24.8992 68.7592C25.5899 68.0685 25.76 67.195 25.76 66.52H23.76ZM22.66 67.62V65.62H21.04V67.62V69.62H22.66V67.62ZM21.04 67.62V65.62C20.975 65.62 21.2935 65.6051 21.6142 65.9258C21.9349 66.2465 21.92 66.565 21.92 66.5H19.92H17.92C17.92 67.1816 18.0918 68.0602 18.7858 68.7542C19.4798 69.4482 20.3584 69.62 21.04 69.62V67.62ZM19.92 66.5H21.92V66.44H19.92H17.92V66.5H19.92ZM19.92 66.44H21.92C21.92 66.375 21.9349 66.6935 21.6142 67.0142C21.2935 67.3349 20.975 67.32 21.04 67.32V65.32V63.32C20.3584 63.32 19.4798 63.4918 18.7858 64.1858C18.0918 64.8798 17.92 65.7584 17.92 66.44H19.92ZM21.04 65.32V67.32H22.66V65.32V63.32H21.04V65.32ZM22.66 70.64V72.64C22.7184 72.64 22.3948 72.6532 22.0708 72.3292C21.7468 72.0052 21.76 71.6816 21.76 71.74H23.76H25.76C25.76 71.065 25.5899 70.1915 24.8992 69.5008C24.2085 68.8101 23.335 68.64 22.66 68.64V70.64ZM23.76 71.74H21.76V71.84H23.76H25.76V71.74H23.76ZM23.76 71.84H21.76C21.76 71.8984 21.7468 71.5748 22.0708 71.2508C22.3948 70.9268 22.7184 70.94 22.66 70.94V72.94V74.94C23.335 74.94 24.2085 74.7699 24.8992 74.0792C25.5899 73.3885 25.76 72.515 25.76 71.84H23.76ZM22.66 72.94V70.94H20.54V72.94V74.94H22.66V72.94ZM20.54 72.94V70.94C20.475 70.94 20.7935 70.9251 21.1142 71.2458C21.4349 71.5665 21.42 71.885 21.42 71.82H19.42H17.42C17.42 72.5016 17.5918 73.3802 18.2858 74.0742C18.9798 74.7682 19.8584 74.94 20.54 74.94V72.94ZM19.42 71.82H21.42V71.76H19.42H17.42V71.82H19.42ZM19.42 71.76H21.42C21.42 71.695 21.4349 72.0135 21.1142 72.3342C20.7935 72.6549 20.475 72.64 20.54 72.64V70.64V68.64C19.8584 68.64 18.9798 68.8118 18.2858 69.5058C17.5918 70.1998 17.42 71.0784 17.42 71.76H19.42ZM20.54 70.64V72.64H22.66V70.64V68.64H20.54V70.64ZM18.28 60.9V62.9C18.3605 62.9 18.0518 62.9196 17.7334 62.6067C17.4083 62.2873 17.42 61.964 17.42 62.02H19.42H21.42C21.42 61.3293 21.2417 60.446 20.5366 59.7533C19.8382 59.0671 18.9595 58.9 18.28 58.9V60.9ZM19.42 62.02H17.42V62.12H19.42H21.42V62.02H19.42ZM19.42 62.12H17.42C17.42 62.185 17.4051 61.8665 17.7258 61.5458C18.0465 61.2251 18.365 61.24 18.3 61.24V63.24V65.24C18.9816 65.24 19.8602 65.0682 20.5542 64.3742C21.2482 63.6802 21.42 62.8016 21.42 62.12H19.42ZM18.3 63.24V61.24H15V63.24V65.24H18.3V63.24ZM15 63.24V61.24C14.9283 61.24 15.2419 61.2234 15.5592 61.5408C15.8766 61.8581 15.86 62.1717 15.86 62.1H13.86H11.86C11.86 62.7883 12.0334 63.6719 12.7308 64.3692C13.4281 65.0666 14.3117 65.24 15 65.24V63.24ZM13.86 62.1H15.86V62.04H13.86H11.86V62.1H13.86ZM13.86 62.04H15.86C15.86 61.9683 15.8766 62.2819 15.5592 62.5992C15.2419 62.9166 14.9283 62.9 15 62.9V60.9V58.9C14.3117 58.9 13.4281 59.0734 12.7308 59.7708C12.0334 60.4681 11.86 61.3517 11.86 62.04H13.86ZM15 60.9V62.9H18.28V60.9V58.9H15V60.9ZM18.28 66.76V68.76C18.3605 68.76 18.0518 68.7796 17.7334 68.4667C17.4083 68.1473 17.42 67.824 17.42 67.88H19.42H21.42C21.42 67.1893 21.2417 66.306 20.5366 65.6133C19.8382 64.9271 18.9595 64.76 18.28 64.76V66.76ZM19.42 67.88H17.42V67.98H19.42H21.42V67.88H19.42ZM19.42 67.98H17.42C17.42 68.045 17.4051 67.7265 17.7258 67.4058C18.0465 67.0851 18.365 67.1 18.3 67.1V69.1V71.1C18.9816 71.1 19.8602 70.9282 20.5542 70.2342C21.2482 69.5402 21.42 68.6616 21.42 67.98H19.42ZM18.3 69.1V67.1H15V69.1V71.1H18.3V69.1ZM15 69.1V67.1C14.9283 67.1 15.2419 67.0834 15.5592 67.4008C15.8766 67.7181 15.86 68.0317 15.86 67.96H13.86H11.86C11.86 68.6483 12.0334 69.5319 12.7308 70.2292C13.4281 70.9266 14.3117 71.1 15 71.1V69.1ZM13.86 67.96H15.86V67.9H13.86H11.86V67.96H13.86ZM13.86 67.9H15.86C15.86 67.8283 15.8766 68.1419 15.5592 68.4592C15.2419 68.7766 14.9283 68.76 15 68.76V66.76V64.76C14.3117 64.76 13.4281 64.9334 12.7308 65.6308C12.0334 66.3281 11.86 67.2117 11.86 67.9H13.86ZM15 66.76V68.76H18.28V66.76V64.76H15V66.76ZM17 57.76V59.76C17.0717 59.76 16.7581 59.7766 16.4408 59.4592C16.1234 59.1419 16.14 58.8283 16.14 58.9H18.14H20.14C20.14 58.2117 19.9666 57.3281 19.2692 56.6308C18.5719 55.9334 17.6883 55.76 17 55.76V57.76ZM18.14 58.9H16.14V73.84H18.14H20.14V58.9H18.14ZM18.14 73.84H16.14C16.14 74.0289 16.1153 74.1147 16.11 74.1304C16.108 74.1365 16.1112 74.1251 16.1247 74.1029C16.1385 74.08 16.1589 74.0527 16.1858 74.0258L17.6 75.44L19.0142 76.8542C19.8752 75.9932 20.14 74.8675 20.14 73.84H18.14ZM17.6 75.44L16.1603 74.0517C16.1872 74.0238 16.2153 74.0021 16.2396 73.9869C16.2634 73.9721 16.2763 73.9681 16.2716 73.9698C16.2583 73.9743 16.1729 74 15.98 74V76V78C17.0272 78 18.1754 77.7246 19.0397 76.8283L17.6 75.44ZM15.98 76V74H15.36V76V78H15.98V76ZM15.36 76V74C15.275 74 15.5785 73.9801 15.8892 74.2908C16.1999 74.6015 16.18 74.905 16.18 74.82H14.18H12.18C12.18 75.5216 12.3568 76.4152 13.0608 77.1192C13.7648 77.8232 14.6584 78 15.36 78V76ZM14.18 74.82H16.18V74.74H14.18H12.18V74.82H14.18ZM14.18 74.74H16.18C16.18 74.655 16.1999 74.9585 15.8892 75.2692C15.5785 75.5799 15.275 75.56 15.36 75.56V73.56V71.56C14.6584 71.56 13.7648 71.7368 13.0608 72.4408C12.3568 73.1448 12.18 74.0384 12.18 74.74H14.18ZM15.36 73.56V75.56H15.76V73.56V71.56H15.36V73.56ZM15.76 73.56H17.76V58.92H15.76H13.76V73.56H15.76ZM15.76 58.92H17.76C17.76 58.8416 17.7782 59.1502 17.4642 59.4642C17.1502 59.7782 16.8416 59.76 16.92 59.76V57.76V55.76C16.225 55.76 15.3365 55.9351 14.6358 56.6358C13.9351 57.3365 13.76 58.225 13.76 58.92H15.76ZM16.92 57.76V59.76H17V57.76V55.76H16.92V57.76ZM49.14 73.58V75.58H51.14V73.58H49.14ZM51.1 75.4L49.6858 73.9858L49.6734 73.9982L49.6612 74.0108L51.1 75.4ZM41.56 63.5L42.9742 62.0858L42.9742 62.0858L41.56 63.5ZM42 64.32L40.0025 64.4199L40.0028 64.4251L42 64.32ZM41.64 65.12L43.1047 66.4819L43.1139 66.4719L43.1231 66.4618L41.64 65.12ZM39.44 67.36L38.0513 65.9208L38.0449 65.9269L38.0386 65.9331L39.44 67.36ZM37.58 69.1L36.2717 67.5873L36.2653 67.5929L37.58 69.1ZM35.96 69.02L34.36 70.22L34.3643 70.2257L35.96 69.02ZM35.9 68.94L37.5 67.74L37.4877 67.7236L37.475 67.7074L35.9 68.94ZM35.56 68.1L33.5699 67.901L33.5652 67.9479L33.5628 67.9949L35.56 68.1ZM36.02 67.32L34.6949 65.822L34.6865 65.8294L34.6782 65.8369L36.02 67.32ZM38.06 65.42L39.4599 66.8484L39.4601 66.8481L38.06 65.42ZM39.88 63.54L38.4317 62.1607L38.4157 62.1775L38.4001 62.1947L39.88 63.54ZM40.7 63.1L40.7951 65.0977L40.8425 65.0955L40.8896 65.091L40.7 63.1ZM41.52 63.46L40.1058 64.8742L40.1058 64.8742L41.52 63.46ZM41.3 58.12L39.8858 59.5342L39.8858 59.5342L41.3 58.12ZM41.74 58.94L39.7425 59.0399L39.7428 59.0451L41.74 58.94ZM41.36 59.74L42.7988 61.1292L42.8083 61.1193L41.36 59.74ZM37.78 63.08L36.4917 61.5502L36.4822 61.5582L36.4728 61.5664L37.78 63.08ZM36.2 62.94L34.6 64.14L34.6105 64.154L34.6213 64.1679L36.2 62.94ZM36.14 62.86L37.74 61.66L37.7357 61.6543L36.14 62.86ZM36.3 61.24L35.0255 59.6987L35.0118 59.71L34.9984 59.7215L36.3 61.24ZM38.28 59.5L39.6468 60.96V60.96L38.28 59.5ZM39.62 58.16L38.1416 56.813L38.126 56.8302L38.1108 56.8476L39.62 58.16ZM41.26 58.08L42.6742 56.6658L42.6742 56.6658L41.26 58.08ZM43.7 59.5H45.7C45.7 59.4283 45.7166 59.7419 45.3992 60.0592C45.0819 60.3766 44.7683 60.36 44.84 60.36V58.36V56.36C44.1517 56.36 43.2681 56.5334 42.5708 57.2308C41.8734 57.9281 41.7 58.8117 41.7 59.5H43.7ZM44.84 58.36V60.36H52.4V58.36V56.36H44.84V58.36ZM52.4 58.36V60.36C52.4717 60.36 52.1581 60.3766 51.8408 60.0592C51.5234 59.7419 51.54 59.4283 51.54 59.5H53.54H55.54C55.54 58.8117 55.3666 57.9281 54.6692 57.2308C53.9719 56.5334 53.0883 56.36 52.4 56.36V58.36ZM53.54 59.5H51.54V59.58H53.54H55.54V59.5H53.54ZM53.54 59.58H51.54C51.54 59.6517 51.5234 59.3381 51.8408 59.0208C52.1581 58.7034 52.4717 58.72 52.4 58.72V60.72V62.72C53.0883 62.72 53.9719 62.5466 54.6692 61.8492C55.3666 61.1519 55.54 60.2683 55.54 59.58H53.54ZM52.4 60.72V58.72H44.84V60.72V62.72H52.4V60.72ZM44.84 60.72V58.72C44.7683 58.72 45.0819 58.7034 45.3992 59.0208C45.7166 59.3381 45.7 59.6517 45.7 59.58H43.7H41.7C41.7 60.2683 41.8734 61.1519 42.5708 61.8492C43.2681 62.5466 44.1517 62.72 44.84 62.72V60.72ZM43.7 59.58H45.7V59.5H43.7H41.7V59.58H43.7ZM42.86 65.3H44.86C44.86 65.2283 44.8766 65.5419 44.5592 65.8592C44.2419 66.1766 43.9283 66.16 44 66.16V64.16V62.16C43.3117 62.16 42.4281 62.3334 41.7308 63.0308C41.0334 63.7281 40.86 64.6117 40.86 65.3H42.86ZM44 64.16V66.16H53.12V64.16V62.16H44V64.16ZM53.12 64.16V66.16C53.1917 66.16 52.8781 66.1766 52.5608 65.8592C52.2434 65.5419 52.26 65.2283 52.26 65.3H54.26H56.26C56.26 64.6117 56.0866 63.7281 55.3892 63.0308C54.6919 62.3334 53.8083 62.16 53.12 62.16V64.16ZM54.26 65.3H52.26V65.38H54.26H56.26V65.3H54.26ZM54.26 65.38H52.26C52.26 65.4517 52.2434 65.1381 52.5608 64.8208C52.8781 64.5034 53.1917 64.52 53.12 64.52V66.52V68.52C53.8083 68.52 54.6919 68.3466 55.3892 67.6492C56.0866 66.9519 56.26 66.0683 56.26 65.38H54.26ZM53.12 66.52V64.52H44V66.52V68.52H53.12V66.52ZM44 66.52V64.52C43.9283 64.52 44.2419 64.5034 44.5592 64.8208C44.8766 65.1381 44.86 65.4517 44.86 65.38H42.86H40.86C40.86 66.0683 41.0334 66.9519 41.7308 67.6492C42.4281 68.3466 43.3117 68.52 44 68.52V66.52ZM42.86 65.38H44.86V65.3H42.86H40.86V65.38H42.86ZM47.04 74.74H49.04C49.04 74.6616 49.0582 74.9702 48.7442 75.2842C48.4302 75.5982 48.1216 75.58 48.2 75.58V73.58V71.58C47.505 71.58 46.6165 71.7551 45.9158 72.4558C45.2151 73.1565 45.04 74.045 45.04 74.74H47.04ZM48.2 73.58V75.58H49.14V73.58V71.58H48.2V73.58ZM49.14 73.58H51.14V66.56H49.14H47.14V73.58H49.14ZM49.14 66.56H51.14C51.14 66.4616 51.1632 66.7552 50.8592 67.0592C50.5552 67.3632 50.2616 67.34 50.36 67.34V65.34V63.34C49.645 63.34 48.7415 63.5201 48.0308 64.2308C47.3201 64.9415 47.14 65.845 47.14 66.56H49.14ZM50.36 65.34V67.34H50.44V65.34V63.34H50.36V65.34ZM50.44 65.34V67.34C50.5384 67.34 50.2448 67.3632 49.9408 67.0592C49.6368 66.7552 49.66 66.4616 49.66 66.56H51.66H53.66C53.66 65.845 53.4799 64.9415 52.7692 64.2308C52.0585 63.5201 51.155 63.34 50.44 63.34V65.34ZM51.66 66.56H49.66V73.76H51.66H53.66V66.56H51.66ZM51.66 73.76H49.66C49.66 73.9521 49.6346 74.0425 49.6273 74.0637C49.6242 74.0728 49.6258 74.0654 49.6366 74.0476C49.6478 74.0293 49.6643 74.0073 49.6858 73.9858L51.1 75.4L52.5142 76.8142C53.3825 75.946 53.66 74.8127 53.66 73.76H51.66ZM51.1 75.4L49.6612 74.0108C49.6828 73.9885 49.7055 73.9708 49.7252 73.9584C49.7443 73.9465 49.7532 73.9442 49.7453 73.9469C49.7263 73.9536 49.6361 73.98 49.44 73.98V75.98V77.98C50.5122 77.98 51.6673 77.6918 52.5388 76.7892L51.1 75.4ZM49.44 75.98V73.98H48.2V75.98V77.98H49.44V75.98ZM48.2 75.98V73.98C48.1216 73.98 48.4302 73.9618 48.7442 74.2758C49.0582 74.5898 49.04 74.8984 49.04 74.82H47.04H45.04C45.04 75.515 45.2151 76.4035 45.9158 77.1042C46.6165 77.8049 47.505 77.98 48.2 77.98V75.98ZM47.04 74.82H49.04V74.74H47.04H45.04V74.82H47.04ZM38.22 69.12H40.22C40.22 69.0216 40.2432 69.3152 39.9392 69.6192C39.6352 69.9232 39.3416 69.9 39.44 69.9V67.9V65.9C38.725 65.9 37.8215 66.0801 37.1108 66.7908C36.4001 67.5015 36.22 68.405 36.22 69.12H38.22ZM39.44 67.9V69.9H39.52V67.9V65.9H39.44V67.9ZM39.52 67.9V69.9C39.6184 69.9 39.3248 69.9232 39.0208 69.6192C38.7168 69.3152 38.74 69.0216 38.74 69.12H40.74H42.74C42.74 68.405 42.5599 67.5015 41.8492 66.7908C41.1385 66.0801 40.235 65.9 39.52 65.9V67.9ZM40.74 69.12H38.74V75.02H40.74H42.74V69.12H40.74ZM40.74 75.02H38.74C38.74 75.1184 38.7168 74.8248 39.0208 74.5208C39.3248 74.2168 39.6184 74.24 39.52 74.24V76.24V78.24C40.235 78.24 41.1385 78.0599 41.8492 77.3492C42.5599 76.6385 42.74 75.735 42.74 75.02H40.74ZM39.52 76.24V74.24H39.44V76.24V78.24H39.52V76.24ZM39.44 76.24V74.24C39.3416 74.24 39.6352 74.2168 39.9392 74.5208C40.2432 74.8248 40.22 75.1184 40.22 75.02H38.22H36.22C36.22 75.735 36.4001 76.6385 37.1108 77.3492C37.8215 78.0599 38.725 78.24 39.44 78.24V76.24ZM38.22 75.02H40.22V69.12H38.22H36.22V75.02H38.22ZM41.56 63.5L40.1458 64.9142C40.1837 64.9521 40.1583 64.9363 40.1177 64.8606C40.0735 64.7783 40.0128 64.6266 40.0025 64.4199L42 64.32L43.9975 64.2201C43.9498 63.2656 43.4392 62.5507 42.9742 62.0858L41.56 63.5ZM42 64.32L40.0028 64.4251C39.977 63.9353 40.2262 63.7016 40.1569 63.7782L41.64 65.12L43.1231 66.4618C43.5605 65.9784 44.0497 65.2113 43.9972 64.2149L42 64.32ZM41.64 65.12L40.1753 63.7581C39.4937 64.4912 38.7857 65.2121 38.0513 65.9208L39.44 67.36L40.8287 68.7992C41.6143 68.0413 42.373 67.2688 43.1047 66.4819L41.64 65.12ZM39.44 67.36L38.0386 65.9331C37.3064 66.6522 36.72 67.1996 36.2717 67.5873L37.58 69.1L38.8883 70.6127C39.4267 70.1471 40.0802 69.5345 40.8414 68.7869L39.44 67.36ZM37.58 69.1L36.2653 67.5929C36.1378 67.7041 36.338 67.4694 36.8036 67.4924C37.331 67.5185 37.5715 67.8352 37.5557 67.8143L35.96 69.02L34.3643 70.2257C34.8018 70.8048 35.539 71.4349 36.6064 71.4876C37.612 71.5372 38.3956 71.0426 38.8947 70.6071L37.58 69.1ZM35.96 69.02L37.56 67.82L37.5 67.74L35.9 68.94L34.3 70.14L34.36 70.22L35.96 69.02ZM35.9 68.94L37.475 67.7074C37.4387 67.6609 37.4587 67.6751 37.4889 67.7496C37.5213 67.8298 37.5686 67.9891 37.5572 68.2051L35.56 68.1L33.5628 67.9949C33.5135 68.9309 33.9402 69.6809 34.325 70.1726L35.9 68.94ZM35.56 68.1L37.5501 68.299C37.5104 68.6958 37.2996 68.8594 37.3618 68.8031L36.02 67.32L34.6782 65.8369C34.1804 66.2873 33.6629 66.9708 33.5699 67.901L35.56 68.1ZM36.02 67.32L37.3451 68.818C38.0642 68.1819 38.7691 67.5254 39.4599 66.8484L38.06 65.42L36.6601 63.9916C36.0176 64.6213 35.3625 65.2314 34.6949 65.822L36.02 67.32ZM38.06 65.42L39.4601 66.8481C40.1623 66.1598 40.7963 65.5053 41.3599 64.8853L39.88 63.54L38.4001 62.1947C37.8971 62.748 37.3177 63.3469 36.6599 63.9919L38.06 65.42ZM39.88 63.54L41.3283 64.9193C41.3766 64.8686 41.1973 65.0786 40.7951 65.0977L40.7 63.1L40.6049 61.1023C39.6427 61.1481 38.9167 61.6514 38.4317 62.1607L39.88 63.54ZM40.7 63.1L40.8896 65.091C40.6693 65.112 40.4667 65.0696 40.311 65.0013C40.2392 64.9697 40.1872 64.9371 40.1544 64.9136C40.1219 64.8904 40.1063 64.8747 40.1058 64.8742L41.52 63.46L42.9342 62.0458C42.3987 61.5102 41.5704 61.0081 40.5104 61.109L40.7 63.1ZM41.52 63.46L40.1058 64.8742L40.1458 64.9142L41.56 63.5L42.9742 62.0858L42.9342 62.0458L41.52 63.46ZM41.3 58.12L39.8858 59.5342C39.9237 59.5721 39.8983 59.5563 39.8577 59.4806C39.8135 59.3983 39.7528 59.2466 39.7425 59.0399L41.74 58.94L43.7375 58.8401C43.6898 57.8856 43.1792 57.1707 42.7142 56.7058L41.3 58.12ZM41.74 58.94L39.7428 59.0451C39.7293 58.7892 39.7926 58.5894 39.8484 58.4719C39.8993 58.3647 39.9414 58.3295 39.9117 58.3607L41.36 59.74L42.8083 61.1193C43.2573 60.6478 43.7917 59.8691 43.7372 58.8349L41.74 58.94ZM41.36 59.74L39.9212 58.3508C38.8502 59.4601 37.7072 60.5266 36.4917 61.5502L37.78 63.08L39.0683 64.6098C40.3861 63.5001 41.6298 62.3399 42.7988 61.1292L41.36 59.74ZM37.78 63.08L36.4728 61.5664C36.3977 61.6312 36.6376 61.3899 37.1215 61.4328C37.617 61.4767 37.8227 61.7687 37.7787 61.7121L36.2 62.94L34.6213 64.1679C35.044 64.7113 35.7463 65.3266 36.7685 65.4172C37.7791 65.5067 38.5756 65.0355 39.0872 64.5936L37.78 63.08ZM36.2 62.94L37.8 61.74L37.74 61.66L36.14 62.86L34.54 64.06L34.6 64.14L36.2 62.94ZM36.14 62.86L37.7357 61.6543C37.6945 61.5997 37.8694 61.8059 37.8303 62.2016C37.7904 62.6058 37.5696 62.7859 37.6016 62.7585L36.3 61.24L34.9984 59.7215C34.4704 60.1741 33.9429 60.8642 33.8497 61.8084C33.7573 62.7441 34.1322 63.5203 34.5443 64.0657L36.14 62.86ZM36.3 61.24L37.5745 62.7813C38.298 62.1831 38.9889 61.576 39.6468 60.96L38.28 59.5L36.9132 58.04C36.3178 58.5973 35.6887 59.1503 35.0255 59.6987L36.3 61.24ZM38.28 59.5L39.6468 60.96C40.2813 60.3661 40.7912 59.861 41.1292 59.4724L39.62 58.16L38.1108 56.8476C37.9154 57.0723 37.532 57.4606 36.9132 58.04L38.28 59.5ZM39.62 58.16L41.0984 59.507C41.1862 59.4106 41.0007 59.665 40.5374 59.6876C40.0459 59.7116 39.8024 59.4508 39.8458 59.4942L41.26 58.08L42.6742 56.6658C42.171 56.1625 41.3808 55.6417 40.3426 55.6924C39.3327 55.7416 38.6005 56.3094 38.1416 56.813L39.62 58.16ZM41.26 58.08L39.8458 59.4942L39.8858 59.5342L41.3 58.12L42.7142 56.7058L42.6742 56.6658L41.26 58.08ZM73.42 61.4L73.8055 59.4375L73.6146 59.4H73.42V61.4ZM74.34 62.72L72.3723 62.3622L72.3696 62.3767L72.3672 62.3912L74.34 62.72ZM74.3 62.96L76.2625 63.3455L76.2681 63.3172L76.2728 63.2888L74.3 62.96ZM72.98 63.88L73.3378 61.9123L73.1603 61.88H72.98V63.88ZM72.9 63.88L72.5145 65.8425L72.7054 65.88H72.9V63.88ZM71.98 62.56L73.9477 62.9178L73.9504 62.9033L73.9528 62.8888L71.98 62.56ZM72.02 62.32L70.0575 61.9345L70.0519 61.9628L70.0472 61.9912L72.02 62.32ZM73.34 61.4L72.9822 63.3677L73.1597 63.4H73.34V61.4ZM67.42 61.4V63.4H67.6003L67.7778 63.3677L67.42 61.4ZM68.74 62.32L70.7128 61.9912L70.708 61.9628L70.7025 61.9345L68.74 62.32ZM68.78 62.56L66.8072 62.8888L66.8096 62.9033L66.8123 62.9178L68.78 62.56ZM67.86 63.88V65.88H68.0546L68.2455 65.8425L67.86 63.88ZM67.78 63.88V61.88H67.5997L67.4222 61.9123L67.78 63.88ZM66.46 62.96L64.4872 63.2888L64.492 63.3172L64.4975 63.3455L66.46 62.96ZM66.42 62.72L68.3928 62.3912L68.3904 62.3767L68.3877 62.3622L66.42 62.72ZM67.34 61.4V59.4H67.1454L66.9545 59.4375L67.34 61.4ZM75.8 63.32L74.3858 64.7342L74.4002 64.7486L74.4149 64.7628L75.8 63.32ZM74.06 64.94H76.06V62.94H74.06V64.94ZM66.72 64.94V62.94H64.72V64.94H66.72ZM64.96 63.32L63.5458 61.9058L63.5314 61.9202L63.5172 61.9349L64.96 63.32ZM66.22 75.82L67.431 77.4117L67.4635 77.387L67.4949 77.361L66.22 75.82ZM64.66 75.54L62.8711 76.4344L62.9226 76.5373L62.9855 76.6336L64.66 75.54ZM64.62 75.46L66.4089 74.5656L66.3532 74.4542L66.2841 74.3506L64.62 75.46ZM64.38 74.58L62.4397 74.0949L62.4282 74.1411L62.4188 74.1878L64.38 74.58ZM64.94 73.82L66.1726 75.395L66.223 75.3556L66.2707 75.313L64.94 73.82ZM66.24 72.08L64.3997 71.2969L64.3955 71.3067L64.3915 71.3165L66.24 72.08ZM75.28 70.54L73.8658 71.9542L73.8797 71.9681L73.8938 71.9817L75.28 70.54ZM75.28 75.58L73.8658 74.1658L73.8519 74.1796L73.8383 74.1938L75.28 75.58ZM73.44 73.94V75.94H75.44V73.94H73.44ZM73.44 72.18H75.44V70.18H73.44V72.18ZM59.48 73.2L61.4528 73.5288L61.4549 73.5159L61.4569 73.503L59.48 73.2ZM58.38 73.98L58.7561 72.0157L58.5698 71.98H58.38V73.98ZM58.3 73.98L57.916 75.9428L58.1062 75.98H58.3V73.98ZM57.52 72.84L59.4991 73.1286L59.5002 73.1208L57.52 72.84ZM63.7 66.16L64.729 64.445L64.7107 64.4341L64.6923 64.4235L63.7 66.16ZM64.1 67.76L62.385 66.731L62.3455 66.7969L62.3111 66.8656L64.1 67.76ZM64.06 67.84L65.775 68.869L65.8145 68.8031L65.8489 68.7344L64.06 67.84ZM62.46 68.24L63.489 66.525L63.4707 66.5141L63.4523 66.5035L62.46 68.24ZM62.18 68.08L61.151 69.795L61.1693 69.8059L61.1877 69.8165L62.18 68.08ZM61.78 66.48L63.495 67.509L63.5345 67.4431L63.5689 67.3744L61.78 66.48ZM61.82 66.4L60.105 65.371L60.0655 65.4369L60.0311 65.5056L61.82 66.4ZM63.42 66L62.391 67.715L62.4093 67.7259L62.4277 67.7365L63.42 66ZM70.54 57.8V59.8C70.585 59.8 70.2515 59.8099 69.9208 59.4792C69.5901 59.1485 69.6 58.815 69.6 58.86H71.6H73.6C73.6 58.1984 73.4332 57.3348 72.7492 56.6508C72.0652 55.9668 71.2016 55.8 70.54 55.8V57.8ZM71.6 58.86H69.6V58.96H71.6H73.6V58.86H71.6ZM71.6 58.96H69.6C69.6 59.005 69.5901 58.6715 69.9208 58.3408C70.2515 58.0101 70.585 58.02 70.54 58.02V60.02V62.02C71.2016 62.02 72.0652 61.8532 72.7492 61.1692C73.4332 60.4852 73.6 59.6216 73.6 58.96H71.6ZM70.54 60.02V58.02H70.28V60.02V62.02H70.54V60.02ZM70.28 60.02V58.02C70.2283 58.02 70.5569 58.0084 70.8842 58.3358C71.2116 58.6631 71.2 58.9917 71.2 58.94H69.2H67.2C67.2 59.6083 67.3684 60.4769 68.0558 61.1642C68.7431 61.8516 69.6117 62.02 70.28 62.02V60.02ZM69.2 58.94H71.2V58.88H69.2H67.2V58.94H69.2ZM69.2 58.88H71.2C71.2 58.8283 71.2116 59.1569 70.8842 59.4842C70.5569 59.8116 70.2283 59.8 70.28 59.8V57.8V55.8C69.6117 55.8 68.7431 55.9684 68.0558 56.6558C67.3684 57.3431 67.2 58.2117 67.2 58.88H69.2ZM70.28 57.8V59.8H70.54V57.8V55.8H70.28V57.8ZM75.1 58.96V60.96C75.1317 60.96 74.7881 60.9666 74.4508 60.6292C74.1134 60.2919 74.12 59.9483 74.12 59.98H76.12H78.12C78.12 59.3317 77.9566 58.4781 77.2792 57.8008C76.6019 57.1234 75.7483 56.96 75.1 56.96V58.96ZM76.12 59.98H74.12V60.06H76.12H78.12V59.98H76.12ZM76.12 60.06H74.12C74.12 60.0917 74.1134 59.7481 74.4508 59.4108C74.7881 59.0734 75.1317 59.08 75.1 59.08V61.08V63.08C75.7483 63.08 76.6019 62.9166 77.2792 62.2392C77.9566 61.5619 78.12 60.7083 78.12 60.06H76.12ZM75.1 61.08V59.08H65.66V61.08V63.08H75.1V61.08ZM65.66 61.08V59.08C65.6283 59.08 65.9719 59.0734 66.3092 59.4108C66.6466 59.7481 66.64 60.0917 66.64 60.06H64.64H62.64C62.64 60.7083 62.8034 61.5619 63.4808 62.2392C64.1581 62.9166 65.0117 63.08 65.66 63.08V61.08ZM64.64 60.06H66.64V59.98H64.64H62.64V60.06H64.64ZM64.64 59.98H66.64C66.64 59.9483 66.6466 60.2919 66.3092 60.6292C65.9719 60.9666 65.6283 60.96 65.66 60.96V58.96V56.96C65.0117 56.96 64.1581 57.1234 63.4808 57.8008C62.8034 58.4781 62.64 59.3317 62.64 59.98H64.64ZM65.66 58.96V60.96H75.1V58.96V56.96H65.66V58.96ZM73.42 61.4L73.0345 63.3625C73.1131 63.3779 72.8172 63.3394 72.5692 62.9836C72.3153 62.6193 72.3815 62.3115 72.3723 62.3622L74.34 62.72L76.3077 63.0778C76.4319 62.3951 76.4114 61.5007 75.8508 60.6964C75.2961 59.9006 74.4736 59.5687 73.8055 59.4375L73.42 61.4ZM74.34 62.72L72.3672 62.3912L72.3272 62.6312L74.3 62.96L76.2728 63.2888L76.3128 63.0488L74.34 62.72ZM74.3 62.96L72.3375 62.5745C72.3221 62.6531 72.3606 62.3572 72.7164 62.1092C73.0807 61.8553 73.3885 61.9215 73.3378 61.9123L72.98 63.88L72.6222 65.8477C73.3049 65.9719 74.1993 65.9514 75.0036 65.3908C75.7994 64.8361 76.1313 64.0136 76.2625 63.3455L74.3 62.96ZM72.98 63.88V61.88H72.9V63.88V65.88H72.98V63.88ZM72.9 63.88L73.2855 61.9175C73.2069 61.9021 73.5028 61.9406 73.7508 62.2964C74.0047 62.6607 73.9385 62.9685 73.9477 62.9178L71.98 62.56L70.0123 62.2022C69.8881 62.8849 69.9086 63.7793 70.4692 64.5836C71.0239 65.3794 71.8465 65.7113 72.5145 65.8425L72.9 63.88ZM71.98 62.56L73.9528 62.8888L73.9928 62.6488L72.02 62.32L70.0472 61.9912L70.0072 62.2312L71.98 62.56ZM72.02 62.32L73.9825 62.7055C73.9979 62.6269 73.9594 62.9228 73.6036 63.1708C73.2393 63.4247 72.9315 63.3585 72.9822 63.3677L73.34 61.4L73.6978 59.4323C73.0151 59.3081 72.1207 59.3286 71.3164 59.8892C70.5206 60.4439 70.1887 61.2664 70.0575 61.9345L72.02 62.32ZM73.34 61.4V63.4H73.42V61.4V59.4H73.34V61.4ZM67.42 61.4L67.7778 63.3677C67.8285 63.3585 67.5207 63.4247 67.1564 63.1708C66.8006 62.9228 66.7621 62.6269 66.7775 62.7055L68.74 62.32L70.7025 61.9345C70.5713 61.2664 70.2394 60.4439 69.4436 59.8892C68.6393 59.3286 67.7449 59.3081 67.0622 59.4323L67.42 61.4ZM68.74 62.32L66.7672 62.6488L66.8072 62.8888L68.78 62.56L70.7528 62.2312L70.7128 61.9912L68.74 62.32ZM68.78 62.56L66.8123 62.9178C66.8215 62.9685 66.7553 62.6607 67.0092 62.2964C67.2572 61.9406 67.5531 61.9021 67.4745 61.9175L67.86 63.88L68.2455 65.8425C68.9136 65.7113 69.7361 65.3794 70.2908 64.5836C70.8514 63.7793 70.8719 62.8849 70.7477 62.2022L68.78 62.56ZM67.86 63.88V61.88H67.78V63.88V65.88H67.86V63.88ZM67.78 63.88L67.4222 61.9123C67.3715 61.9215 67.6793 61.8553 68.0436 62.1092C68.3994 62.3572 68.4379 62.6531 68.4225 62.5745L66.46 62.96L64.4975 63.3455C64.6287 64.0135 64.9606 64.8361 65.7564 65.3908C66.5607 65.9514 67.4551 65.9719 68.1378 65.8477L67.78 63.88ZM66.46 62.96L68.4328 62.6312L68.3928 62.3912L66.42 62.72L64.4472 63.0488L64.4872 63.2888L66.46 62.96ZM66.42 62.72L68.3877 62.3622C68.3785 62.3115 68.4447 62.6193 68.1908 62.9836C67.9428 63.3394 67.6469 63.3779 67.7255 63.3625L67.34 61.4L66.9545 59.4375C66.2864 59.5687 65.4639 59.9006 64.9092 60.6964C64.3486 61.5007 64.3281 62.3951 64.4523 63.0778L66.42 62.72ZM67.34 61.4V63.4H67.42V61.4V59.4H67.34V61.4ZM74.34 62.82V64.82C74.4912 64.82 74.5461 64.8402 74.537 64.8371C74.531 64.8351 74.51 64.8271 74.48 64.8088C74.4495 64.7903 74.4168 64.7652 74.3858 64.7342L75.8 63.32L77.2142 61.9058C76.3875 61.0791 75.3157 60.82 74.34 60.82V62.82ZM75.8 63.32L74.4149 64.7628C74.3742 64.7237 74.3422 64.6826 74.3188 64.6449C74.2959 64.608 74.2858 64.5815 74.2829 64.573C74.2802 64.5651 74.2847 64.5758 74.2898 64.6106C74.2949 64.6456 74.3 64.7009 74.3 64.78H76.3H78.3C78.3 63.8115 78.0506 62.7082 77.1851 61.8772L75.8 63.32ZM76.3 64.78H74.3V64.98H76.3H78.3V64.78H76.3ZM76.3 64.98H74.3C74.3 65.0317 74.2884 64.7031 74.6158 64.3758C74.9431 64.0484 75.2717 64.06 75.22 64.06V66.06V68.06C75.8883 68.06 76.7569 67.8916 77.4442 67.2042C78.1316 66.5169 78.3 65.6483 78.3 64.98H76.3ZM75.22 66.06V64.06H75.14V66.06V68.06H75.22V66.06ZM75.14 66.06V64.06C75.0883 64.06 75.4169 64.0484 75.7442 64.3758C76.0716 64.7031 76.06 65.0317 76.06 64.98H74.06H72.06C72.06 65.6483 72.2284 66.5169 72.9158 67.2042C73.6031 67.8916 74.4717 68.06 75.14 68.06V66.06ZM74.06 64.98H76.06V64.94H74.06H72.06V64.98H74.06ZM74.06 64.94V62.94H66.72V64.94V66.94H74.06V64.94ZM66.72 64.94H64.72V64.98H66.72H68.72V64.94H66.72ZM66.72 64.98H64.72C64.72 65.0317 64.7084 64.7031 65.0358 64.3758C65.3631 64.0484 65.6917 64.06 65.64 64.06V66.06V68.06C66.3083 68.06 67.1769 67.8916 67.8642 67.2042C68.5516 66.5169 68.72 65.6483 68.72 64.98H66.72ZM65.64 66.06V64.06H65.56V66.06V68.06H65.64V66.06ZM65.56 66.06V64.06C65.5083 64.06 65.8369 64.0484 66.1642 64.3758C66.4916 64.7031 66.48 65.0317 66.48 64.98H64.48H62.48C62.48 65.6483 62.6484 66.5169 63.3358 67.2042C64.0231 67.8916 64.8917 68.06 65.56 68.06V66.06ZM64.48 64.98H66.48V64.78H64.48H62.48V64.98H64.48ZM64.48 64.78H66.48C66.48 64.6216 66.5004 64.5584 66.5 64.5596C66.4992 64.5619 66.4928 64.5804 66.476 64.6091C66.4589 64.6384 66.4346 64.6719 66.4028 64.7051L64.96 63.32L63.5172 61.9349C62.7211 62.7643 62.48 63.825 62.48 64.78H64.48ZM64.96 63.32L66.3742 64.7342C66.3408 64.7676 66.3062 64.7937 66.2751 64.8126C66.2446 64.831 66.2241 64.8385 66.2201 64.8398C66.2168 64.8409 66.2309 64.8358 66.2677 64.8305C66.3046 64.8251 66.361 64.82 66.44 64.82V62.82V60.82C65.4648 60.82 64.3796 61.072 63.5458 61.9058L64.96 63.32ZM66.44 62.82V64.82H74.34V62.82V60.82H66.44V62.82ZM67.86 67.78V69.78C67.9317 69.78 67.6181 69.7966 67.3008 69.4792C66.9834 69.1619 67 68.8483 67 68.92H69H71C71 68.2317 70.8266 67.3481 70.1292 66.6508C69.4319 65.9534 68.5483 65.78 67.86 65.78V67.78ZM69 68.92H67V69.92H69H71V68.92H69ZM69 69.92H67C67 71.7224 66.3404 73.1246 64.9451 74.279L66.22 75.82L67.4949 77.361C69.8063 75.4487 71 72.9176 71 69.92H69ZM66.22 75.82L65.009 74.2283C64.9409 74.2801 65.2197 74.0411 65.7233 74.1315C66.2194 74.2205 66.3909 74.5327 66.3345 74.4464L64.66 75.54L62.9855 76.6336C63.3558 77.2007 64.0006 77.8862 65.0167 78.0685C66.0403 78.2523 66.8857 77.8266 67.431 77.4117L66.22 75.82ZM64.66 75.54L66.4489 74.6456L66.4089 74.5656L64.62 75.46L62.8311 76.3544L62.8711 76.4344L64.66 75.54ZM64.62 75.46L66.2841 74.3506C66.2418 74.2871 66.4285 74.5353 66.3412 74.9722L64.38 74.58L62.4188 74.1878C62.2248 75.158 62.5716 75.9929 62.9559 76.5694L64.62 75.46ZM64.38 74.58L66.3203 75.0651C66.242 75.3782 66.074 75.4722 66.1726 75.395L64.94 73.82L63.7074 72.245C63.1927 72.6478 62.6513 73.2485 62.4397 74.0949L64.38 74.58ZM64.94 73.82L66.2707 75.313C67.057 74.6122 67.6958 73.7944 68.0885 72.8435L66.24 72.08L64.3915 71.3165C64.2776 71.5922 64.0496 71.9345 63.6093 72.327L64.94 73.82ZM66.24 72.08L68.0803 72.8631C68.4707 71.9456 68.64 70.9512 68.64 69.92H66.64H64.64C64.64 70.5155 64.5426 70.9611 64.3997 71.2969L66.24 72.08ZM66.64 69.92H68.64V68.92H66.64H64.64V69.92H66.64ZM66.64 68.92H68.64C68.64 68.8483 68.6566 69.1619 68.3392 69.4792C68.0219 69.7966 67.7083 69.78 67.78 69.78V67.78V65.78C67.0917 65.78 66.2081 65.9534 65.5108 66.6508C64.8134 67.3481 64.64 68.2317 64.64 68.92H66.64ZM67.78 67.78V69.78H67.86V67.78V65.78H67.78V67.78ZM70.44 65.36V67.36C70.505 67.36 70.1865 67.3749 69.8658 67.0542C69.5451 66.7335 69.56 66.415 69.56 66.48H71.56H73.56C73.56 65.7984 73.3882 64.9198 72.6942 64.2258C72.0002 63.5318 71.1216 63.36 70.44 63.36V65.36ZM71.56 66.48H69.56V66.66H71.56H73.56V66.48H71.56ZM71.56 66.66H69.56C69.56 66.725 69.5451 66.4065 69.8658 66.0858C70.1865 65.7651 70.505 65.78 70.44 65.78V67.78V69.78C71.1216 69.78 72.0002 69.6082 72.6942 68.9142C73.3882 68.2202 73.56 67.3416 73.56 66.66H71.56ZM70.44 67.78V65.78H70.36V67.78V69.78H70.44V67.78ZM70.36 67.78V65.78C70.295 65.78 70.6135 65.7651 70.9342 66.0858C71.2549 66.4065 71.24 66.725 71.24 66.66H69.24H67.24C67.24 67.3416 67.4118 68.2202 68.1058 68.9142C68.7998 69.6082 69.6784 69.78 70.36 69.78V67.78ZM69.24 66.66H71.24V66.48H69.24H67.24V66.66H69.24ZM69.24 66.48H71.24C71.24 66.415 71.2549 66.7335 70.9342 67.0542C70.6135 67.3749 70.295 67.36 70.36 67.36V65.36V63.36C69.6784 63.36 68.7998 63.5318 68.1058 64.2258C67.4118 64.9198 67.24 65.7984 67.24 66.48H69.24ZM70.36 65.36V67.36H70.44V65.36V63.36H70.36V65.36ZM75.28 66.7V68.7C75.3184 68.7 74.9798 68.7082 74.6458 68.3742C74.3118 68.0402 74.32 67.7016 74.32 67.74H76.32H78.32C78.32 67.085 78.1549 66.2265 77.4742 65.5458C76.7935 64.8651 75.935 64.7 75.28 64.7V66.7ZM76.32 67.74H74.32V67.82H76.32H78.32V67.74H76.32ZM76.32 67.82H74.32C74.32 67.8584 74.3118 67.5198 74.6458 67.1858C74.9798 66.8518 75.3184 66.86 75.28 66.86V68.86V70.86C75.935 70.86 76.7935 70.6949 77.4742 70.0142C78.1549 69.3335 78.32 68.475 78.32 67.82H76.32ZM75.28 68.86V66.86H65.48V68.86V70.86H75.28V68.86ZM65.48 68.86V66.86C65.4416 66.86 65.7802 66.8518 66.1142 67.1858C66.4482 67.5198 66.44 67.8584 66.44 67.82H64.44H62.44C62.44 68.475 62.6051 69.3335 63.2858 70.0142C63.9665 70.6949 64.825 70.86 65.48 70.86V68.86ZM64.44 67.82H66.44V67.74H64.44H62.44V67.82H64.44ZM64.44 67.74H66.44C66.44 67.7016 66.4482 68.0402 66.1142 68.3742C65.7802 68.7082 65.4416 68.7 65.48 68.7V66.7V64.7C64.825 64.7 63.9665 64.8651 63.2858 65.5458C62.6051 66.2265 62.44 67.085 62.44 67.74H64.44ZM65.48 66.7V68.7H75.28V66.7V64.7H65.48V66.7ZM73.76 70.02V72.02C73.8407 72.02 73.8988 72.0253 73.9377 72.031C73.9763 72.0367 73.993 72.0425 73.9926 72.0423C73.9916 72.042 73.9751 72.0362 73.9493 72.0204C73.9228 72.0043 73.8936 71.9821 73.8658 71.9542L75.28 70.54L76.6942 69.1258C75.8536 68.2852 74.7613 68.02 73.76 68.02V70.02ZM75.28 70.54L73.8938 71.9817C73.8566 71.9459 73.8277 71.9086 73.807 71.8752C73.7867 71.8425 73.7788 71.8208 73.7777 71.8174C73.7767 71.8147 73.7826 71.8308 73.7885 71.8716C73.7945 71.9125 73.8 71.9742 73.8 72.06H75.8H77.8C77.8 71.0651 77.5441 69.9425 76.6662 69.0983L75.28 70.54ZM75.8 72.06H73.8V74.06H75.8H77.8V72.06H75.8ZM75.8 74.06H73.8C73.8 74.1407 73.7947 74.1988 73.789 74.2377C73.7833 74.2763 73.7775 74.293 73.7777 74.2926C73.778 74.2916 73.7838 74.2751 73.7996 74.2493C73.8157 74.2228 73.8379 74.1936 73.8658 74.1658L75.28 75.58L76.6942 76.9942C77.5348 76.1536 77.8 75.0613 77.8 74.06H75.8ZM75.28 75.58L73.8383 74.1938C73.8741 74.1566 73.9114 74.1277 73.9448 74.107C73.9775 74.0867 73.9992 74.0788 74.0026 74.0777C74.0053 74.0767 73.9892 74.0826 73.9484 74.0885C73.9075 74.0945 73.8458 74.1 73.76 74.1V76.1V78.1C74.7549 78.1 75.8775 77.8441 76.7217 76.9662L75.28 75.58ZM73.76 76.1V74.1H72.88V76.1V78.1H73.76V76.1ZM72.88 76.1V74.1C72.8416 74.1 73.1802 74.0918 73.5142 74.4258C73.8482 74.7598 73.84 75.0984 73.84 75.06H71.84H69.84C69.84 75.715 70.0051 76.5735 70.6858 77.2542C71.3665 77.9349 72.225 78.1 72.88 78.1V76.1ZM71.84 75.06H73.84V74.98H71.84H69.84V75.06H71.84ZM71.84 74.98H73.84C73.84 74.9416 73.8482 75.2802 73.5142 75.6142C73.1802 75.9482 72.8416 75.94 72.88 75.94V73.94V71.94C72.225 71.94 71.3665 72.1051 70.6858 72.7858C70.0051 73.4665 69.84 74.325 69.84 74.98H71.84ZM72.88 73.94V75.94H73.44V73.94V71.94H72.88V73.94ZM73.44 73.94H75.44V72.18H73.44H71.44V73.94H73.44ZM73.44 72.18V70.18H68.86V72.18V74.18H73.44V72.18ZM68.86 72.18V70.18C68.8216 70.18 69.1602 70.1718 69.4942 70.5058C69.8282 70.8398 69.82 71.1784 69.82 71.14H67.82H65.82C65.82 71.795 65.9851 72.6535 66.6658 73.3342C67.3465 74.0149 68.205 74.18 68.86 74.18V72.18ZM67.82 71.14H69.82V71.06H67.82H65.82V71.14H67.82ZM67.82 71.06H69.82C69.82 71.0216 69.8282 71.3602 69.4942 71.6942C69.1602 72.0282 68.8216 72.02 68.86 72.02V70.02V68.02C68.205 68.02 67.3465 68.1851 66.6658 68.8658C65.9851 69.5465 65.82 70.405 65.82 71.06H67.82ZM68.86 70.02V72.02H73.76V70.02V68.02H68.86V70.02ZM58.94 63.94V65.94C58.9393 65.94 58.8573 65.9406 58.7275 65.8974C58.5881 65.8509 58.4101 65.7585 58.2458 65.5942C58.0815 65.4299 57.9891 65.2519 57.9426 65.1125C57.8994 64.9827 57.9 64.9007 57.9 64.9H59.9H61.9C61.9 64.2717 61.7416 63.4331 61.0742 62.7658C60.4069 62.0984 59.5683 61.94 58.94 61.94V63.94ZM59.9 64.9H57.9V67.04H59.9H61.9V64.9H59.9ZM59.9 67.04H57.9C57.9 69.241 57.7647 71.1906 57.5031 72.897L59.48 73.2L61.4569 73.503C61.7553 71.5561 61.9 69.399 61.9 67.04H59.9ZM59.48 73.2L57.5072 72.8712C57.5073 72.8709 57.508 72.8664 57.5099 72.8582C57.5119 72.85 57.5151 72.8375 57.5202 72.8213C57.5303 72.7893 57.5488 72.7393 57.5811 72.6778C57.6491 72.5486 57.7712 72.3832 57.9681 72.2435C58.166 72.1033 58.3672 72.0402 58.5221 72.0183C58.6658 71.9981 58.7527 72.015 58.7561 72.0157L58.38 73.98L58.0039 75.9443C58.6241 76.0631 59.4949 76.0645 60.2819 75.5065C61.0612 74.9538 61.3509 74.1403 61.4528 73.5288L59.48 73.2ZM58.38 73.98V71.98H58.3V73.98V75.98H58.38V73.98ZM58.3 73.98L58.684 72.0172C58.704 72.0211 59.036 72.0961 59.2956 72.4756C59.5465 72.8422 59.4955 73.153 59.4991 73.1286L57.52 72.84L55.5409 72.5514C55.4511 73.167 55.4835 73.9878 55.9944 74.7344C56.514 75.4939 57.2826 75.8189 57.916 75.9428L58.3 73.98ZM57.52 72.84L59.5002 73.1208C59.7685 71.2283 59.9 69.2001 59.9 67.04H57.9H55.9C55.9 69.0399 55.7781 70.8783 55.5398 72.5592L57.52 72.84ZM57.9 67.04H59.9V64.9H57.9H55.9V67.04H57.9ZM57.9 64.9H59.9C59.9 64.9007 59.9006 64.9827 59.8574 65.1125C59.8109 65.2519 59.7185 65.4299 59.5542 65.5942C59.3899 65.7585 59.2119 65.8509 59.0725 65.8974C58.9427 65.9406 58.8607 65.94 58.86 65.94V63.94V61.94C58.2317 61.94 57.3931 62.0984 56.7258 62.7658C56.0584 63.4331 55.9 64.2717 55.9 64.9H57.9ZM58.86 63.94V65.94H58.94V63.94V61.94H58.86V63.94ZM62.92 60.56V62.56C62.9984 62.56 62.6898 62.5782 62.3758 62.2642C62.0618 61.9502 62.08 61.6416 62.08 61.72H64.08H66.08C66.08 61.025 65.9049 60.1365 65.2042 59.4358C64.5035 58.7351 63.615 58.56 62.92 58.56V60.56ZM64.08 61.72H62.08V61.8H64.08H66.08V61.72H64.08ZM64.08 61.8H62.08C62.08 61.8784 62.0618 61.5698 62.3758 61.2558C62.6898 60.9418 62.9984 60.96 62.92 60.96V62.96V64.96C63.615 64.96 64.5035 64.7849 65.2042 64.0842C65.9049 63.3835 66.08 62.495 66.08 61.8H64.08ZM62.92 62.96V60.96H58.88V62.96V64.96H62.92V62.96ZM58.88 62.96V60.96C58.8016 60.96 59.1102 60.9418 59.4242 61.2558C59.7382 61.5698 59.72 61.8784 59.72 61.8H57.72H55.72C55.72 62.495 55.8951 63.3835 56.5958 64.0842C57.2965 64.7849 58.185 64.96 58.88 64.96V62.96ZM57.72 61.8H59.72V61.72H57.72H55.72V61.8H57.72ZM57.72 61.72H59.72C59.72 61.6416 59.7382 61.9502 59.4242 62.2642C59.1102 62.5782 58.8016 62.56 58.88 62.56V60.56V58.56C58.185 58.56 57.2965 58.7351 56.5958 59.4358C55.8951 60.1365 55.72 61.025 55.72 61.72H57.72ZM58.88 60.56V62.56H62.92V60.56V58.56H58.88V60.56ZM61.84 57.78V59.78C61.905 59.78 61.5865 59.7949 61.2658 59.4742C60.9451 59.1535 60.96 58.835 60.96 58.9H62.96H64.96C64.96 58.2184 64.7882 57.3398 64.0942 56.6458C63.4002 55.9518 62.5216 55.78 61.84 55.78V57.78ZM62.96 58.9H60.96V75.1H62.96H64.96V58.9H62.96ZM62.96 75.1H60.96C60.96 75.165 60.9451 74.8465 61.2658 74.5258C61.5865 74.2051 61.905 74.22 61.84 74.22V76.22V78.22C62.5216 78.22 63.4002 78.0482 64.0942 77.3542C64.7882 76.6602 64.96 75.7816 64.96 75.1H62.96ZM61.84 76.22V74.22H61.76V76.22V78.22H61.84V76.22ZM61.76 76.22V74.22C61.695 74.22 62.0135 74.2051 62.3342 74.5258C62.6549 74.8465 62.64 75.165 62.64 75.1H60.64H58.64C58.64 75.7816 58.8118 76.6602 59.5058 77.3542C60.1998 78.0482 61.0784 78.22 61.76 78.22V76.22ZM60.64 75.1H62.64V58.9H60.64H58.64V75.1H60.64ZM60.64 58.9H62.64C62.64 58.835 62.6549 59.1535 62.3342 59.4742C62.0135 59.7949 61.695 59.78 61.76 59.78V57.78V55.78C61.0784 55.78 60.1998 55.9518 59.5058 56.6458C58.8118 57.3398 58.64 58.2184 58.64 58.9H60.64ZM61.76 57.78V59.78H61.84V57.78V55.78H61.76V57.78ZM63.7 66.16L62.671 67.875C62.74 67.9164 62.4671 67.7745 62.3597 67.3451C62.2524 66.9156 62.4264 66.662 62.385 66.731L64.1 67.76L65.815 68.789C66.1736 68.1913 66.481 67.3377 66.2403 66.3749C65.9996 65.4122 65.3267 64.8036 64.729 64.445L63.7 66.16ZM64.1 67.76L62.3111 66.8656L62.2711 66.9456L64.06 67.84L65.8489 68.7344L65.8889 68.6544L64.1 67.76ZM64.06 67.84L62.345 66.811C62.3036 66.88 62.4455 66.6071 62.8749 66.4997C63.3044 66.3924 63.558 66.5664 63.489 66.525L62.46 68.24L61.431 69.955C62.0287 70.3136 62.8823 70.621 63.8451 70.3803C64.8078 70.1396 65.4164 69.4667 65.775 68.869L64.06 67.84ZM62.46 68.24L63.4523 66.5035L63.1723 66.3435L62.18 68.08L61.1877 69.8165L61.4677 69.9765L62.46 68.24ZM62.18 68.08L63.209 66.365C63.14 66.3236 63.4129 66.4655 63.5203 66.8949C63.6276 67.3244 63.4536 67.578 63.495 67.509L61.78 66.48L60.065 65.451C59.7064 66.0487 59.399 66.9023 59.6397 67.8651C59.8804 68.8278 60.5533 69.4364 61.151 69.795L62.18 68.08ZM61.78 66.48L63.5689 67.3744L63.6089 67.2944L61.82 66.4L60.0311 65.5056L59.9911 65.5856L61.78 66.48ZM61.82 66.4L63.535 67.429C63.5764 67.36 63.4345 67.6329 63.0051 67.7403C62.5756 67.8476 62.322 67.6736 62.391 67.715L63.42 66L64.449 64.285C63.8513 63.9264 62.9977 63.619 62.0349 63.8597C61.0722 64.1004 60.4636 64.7733 60.105 65.371L61.82 66.4ZM63.42 66L62.4277 67.7365L62.7077 67.8965L63.7 66.16L64.6923 64.4235L64.4123 64.2635L63.42 66Z" fill="#4E433C" mask="url(#path-10-outside-1_432_4170)"/>
</svg>
