<svg width="90" height="90" viewBox="0 0 90 90" fill="none" xmlns="http://www.w3.org/2000/svg">
<path d="M22.7489 8.29417C23.024 5.41157 22.3251 4.038 25.7901 4.02968C28.7509 4.02255 31.7495 4.00603 34.7148 4.00794L51.1373 4.00996L60.4461 4.00722C62.2134 4.0077 64.0811 3.9528 65.8366 4.13853C66.2418 4.18143 66.5317 4.39009 66.7635 4.72579C67.3807 5.6194 67.1752 7.19748 67.2177 8.29001C68.9689 11.3518 71.4648 14.9702 72.7605 18.2353C73.5821 20.3057 72.1816 23.011 70.1947 24.1402C69.7912 24.3744 69.3645 24.5658 68.9218 24.7113C68.9018 25.311 68.9574 26.7473 68.8716 27.2407C68.9077 30.3544 69.2293 50.8794 68.5083 52.2429C68.1817 52.4178 67.9548 52.4174 67.5934 52.4554C68.5808 52.4333 70.515 52.2811 71.3151 52.8313C71.6596 53.0678 71.8905 53.4387 71.9521 53.8545C72.0272 54.3457 71.9014 54.8467 71.6036 55.2428C70.8921 56.2079 69.629 55.978 68.596 55.9711C67.3248 55.9625 66.0545 55.9556 64.7833 55.9554L51.2762 55.9572L30.2599 55.955C27.0099 55.9535 23.7448 56.0067 20.4951 55.9625C17.0273 55.9155 17.5715 52.3403 20.5493 52.417C21.4635 52.4405 22.3842 52.4513 23.3002 52.4448C22.814 52.4255 22.6404 52.4209 22.1737 52.2984C21.3268 51.2637 21.5789 43.6007 21.5791 41.8834L21.5863 27.035L21.5708 24.7823C19.6605 24.5998 17.8826 22.9574 17.2847 21.1639C16.6101 19.1407 17.2257 17.7681 18.1775 16.0526C19.6087 13.4727 21.4657 10.9328 22.7489 8.29417Z" fill="#F5F2E9"/>
<path d="M22.7489 8.29417C23.024 5.41157 22.3251 4.038 25.7901 4.02968C28.7509 4.02255 31.7495 4.00603 34.7148 4.00794L51.1373 4.00996L60.4461 4.00722C62.2134 4.0077 64.0811 3.9528 65.8366 4.13853C66.2418 4.18143 66.5317 4.39009 66.7635 4.72579C67.3807 5.6194 67.1752 7.19748 67.2177 8.29001C68.9689 11.3518 71.4648 14.9702 72.7605 18.2353C73.5821 20.3057 72.1816 23.011 70.1947 24.1402C69.7912 24.3744 69.3645 24.5658 68.9218 24.7113C66.2554 25.1457 64.6762 23.7953 63.5885 21.4774C63.0263 22.7611 61.8431 23.9466 60.5333 24.4472C59.2706 24.9303 57.8668 24.8706 56.6488 24.2822C54.5825 23.3008 54.8627 21.9587 53.95 21.475C52.1646 25.8443 47.2113 25.9567 45.2144 21.5596C44.6843 22.1583 44.3066 22.763 43.7404 23.3242C41.7611 25.2857 39.1565 25.3204 37.1179 23.4192C36.6229 22.9576 36.1189 22.2101 35.6471 21.8209C34.9233 23.0031 34.4123 23.8645 33.0802 24.4327C32.0254 24.8902 30.8325 24.8995 29.7709 24.4583C28.461 23.9234 27.631 23.0101 27.0886 21.7197C25.8499 22.564 25.4005 24.1754 23.5253 24.5775C22.9219 24.7069 21.9553 24.6569 21.5708 24.7823C19.6605 24.5998 17.8826 22.9574 17.2847 21.1639C16.6101 19.1407 17.2257 17.7681 18.1775 16.0527C19.6087 13.4727 21.4657 10.9328 22.7489 8.29417Z" fill="#F5F0E9"/>
<path d="M67.2176 8.29054C68.9689 11.3523 71.4648 14.9707 72.7604 18.2359C73.582 20.3063 72.1816 23.0116 70.1947 24.1407C69.7911 24.3749 69.3644 24.5664 68.9218 24.7118C66.2553 25.1463 64.6761 23.7959 63.5884 21.4779C63.0263 22.7617 61.843 23.9471 60.5332 24.4478C59.2706 24.9308 57.8668 24.8712 56.6488 24.2827C54.5825 23.3013 54.8626 21.9592 53.9499 21.4756C52.1646 25.8449 47.2112 25.9573 45.2144 21.5602C44.957 20.3266 45.0321 17.6475 45.0344 16.3122L45.0315 8.27782C47.5313 8.2821 50.0311 8.27152 52.5307 8.24609C53.5988 8.26368 59.3079 8.20308 59.8886 8.32512C62.1719 8.20866 64.8985 8.27592 67.2176 8.29054Z" fill="#F5F2E9"/>
<path d="M67.2175 8.29029C68.9688 11.3521 71.4647 14.9705 72.7603 18.2356C73.5819 20.306 72.1815 23.0113 70.1946 24.1405C69.791 24.3747 69.3644 24.5661 68.9217 24.7116C66.2552 25.146 64.676 23.7956 63.5883 21.4777C63.4738 18.7067 60.8749 11.3919 59.8885 8.32487C62.1718 8.20842 64.8984 8.27568 67.2175 8.29029Z" fill="#F96A67"/>
<path d="M45.0315 8.27782C47.5313 8.2821 50.0311 8.27152 52.5307 8.24609C52.9017 11.0701 54.5984 19.2793 53.9499 21.4756C52.1646 25.8449 47.2112 25.9573 45.2144 21.5602C44.957 20.3266 45.0321 17.6475 45.0344 16.3122L45.0315 8.27782Z" fill="#F96A67"/>
<path d="M22.749 8.29417C23.0241 5.41157 22.3252 4.038 25.7902 4.02968C28.751 4.02255 31.7496 4.00603 34.7149 4.00794L51.1374 4.00996L60.4462 4.00722C62.2135 4.0077 64.0812 3.9528 65.8367 4.13853C66.2419 4.18143 66.5318 4.39009 66.7636 4.72579C67.3808 5.6194 67.1753 7.19748 67.2177 8.29001C64.8987 8.2754 62.172 8.20814 59.8888 8.32459C59.308 8.20255 53.5989 8.26315 52.5309 8.24557C50.0312 8.271 47.5314 8.28157 45.0317 8.2773C42.6448 8.20885 40.0041 8.26601 37.5986 8.28288C35.5665 8.16904 32.2665 8.27314 30.1569 8.28038C27.8614 8.19994 25.047 8.26589 22.749 8.29417Z" fill="#F96A67"/>
<path d="M37.5989 8.28451C40.0044 8.26764 42.6451 8.21048 45.032 8.27892L45.0348 16.3133C45.0326 17.6486 44.9574 20.3277 45.2148 21.5613C44.6847 22.1599 44.3069 22.7647 43.7408 23.3258C41.7615 25.2873 39.1569 25.322 37.1183 23.4209C36.6233 22.9592 36.1192 22.2117 35.6475 21.8226C35.8117 21.2257 35.9743 19.0834 36.0971 18.2613C36.6142 14.9383 37.1149 11.6126 37.5989 8.28451Z" fill="#F5F2E9"/>
<path d="M30.1572 8.28091C32.2669 8.27366 35.5668 8.16957 37.5989 8.28341C37.1149 11.6115 36.6143 14.9372 36.0971 18.2602C35.9744 19.0823 35.8117 21.2246 35.6475 21.8215C34.9238 23.0036 34.4128 23.865 33.0806 24.4333C32.0258 24.8908 30.8329 24.9 29.7713 24.4588C28.4614 23.9239 27.6314 23.0106 27.089 21.7202C26.6025 19.7988 27.7278 16.9015 28.2502 14.9707C28.843 12.7801 29.4674 10.4392 30.1572 8.28091Z" fill="#F96A67"/>
<path d="M51.4043 52.4362C51.4124 52.421 51.4213 52.4061 51.4287 52.3907C51.7054 51.8178 51.5481 50.3558 51.5454 49.6915C51.5329 46.6219 51.0568 37.8107 52.13 35.5057C52.6945 34.2934 54.0989 33.1509 55.3061 32.6948C56.7182 32.1772 58.2755 32.2405 59.6418 32.871C63.7559 34.7709 62.8343 38.3218 62.9461 41.8942C63.0537 45.331 62.7539 49.0572 62.9481 52.4494C59.2448 52.541 55.1373 52.447 51.4043 52.4362Z" fill="#5EB897"/>
<path d="M53.8815 42.5449C54.4929 42.4495 55.068 42.8637 55.1772 43.4781C55.2864 44.0924 54.8897 44.6824 54.2835 44.8072C53.8783 44.8908 53.46 44.7461 53.1906 44.4293C52.9213 44.1126 52.8433 43.6736 52.9868 43.2821C53.1303 42.8908 53.4727 42.6086 53.8815 42.5449Z" fill="#50423C"/>
<path d="M67.5931 52.4537C68.5805 52.4316 70.5147 52.2795 71.3148 52.8296C71.6593 53.0661 71.8902 53.437 71.9518 53.8528C72.0269 54.344 71.901 54.845 71.6033 55.2411C70.8918 56.2062 69.6286 55.9763 68.5957 55.9694C67.3245 55.9608 66.0542 55.9539 64.7829 55.9537L51.2759 55.9555L30.2596 55.9534C27.0096 55.9518 23.7445 56.005 20.4948 55.9608C17.027 55.9138 17.5712 52.3386 20.549 52.4153C21.4632 52.4388 22.3839 52.4496 23.2999 52.4431L51.4041 52.4339C55.137 52.4447 59.2446 52.5387 62.9479 52.4471C64.3037 52.4477 66.2917 52.3824 67.5931 52.4537Z" fill="#50423C"/>
<path d="M63.5889 21.4789C64.6766 23.7969 66.2558 25.1473 68.9223 24.7128C68.9022 25.3125 68.9578 26.7489 68.8721 27.2422L68.75 27.0432C65.8601 27.1608 65.4142 27.5503 63.3125 25.2043C63.1911 25.3581 63.0619 25.5054 62.9253 25.6457C60.3688 28.319 56.4001 27.8095 53.8971 25.3652C51.2356 28.4528 47.4052 27.8914 44.838 25.02C42.7544 28.3659 38.2996 28.073 35.9135 25.1047C33.3936 27.866 28.9404 28.5556 26.8751 24.986C25.2617 27.1599 24.0727 27.2986 21.5867 27.0365L21.5713 24.7839C21.9558 24.6584 22.9223 24.7084 23.5258 24.579C25.401 24.1769 25.8504 22.5655 27.089 21.7212C27.6315 23.0116 28.4615 23.925 29.7714 24.4598C30.8329 24.901 32.0259 24.8918 33.0806 24.4343C34.4128 23.866 34.9238 23.0046 35.6475 21.8225C36.1193 22.2116 36.6234 22.9591 37.1183 23.4208C39.1569 25.3219 41.7615 25.2872 43.7409 23.3257C44.307 22.7646 44.6848 22.1598 45.2148 21.5612C47.2117 25.9583 52.1651 25.8459 53.9504 21.4766C54.8631 21.9602 54.583 23.3023 56.6493 24.2837C57.8673 24.8722 59.2711 24.9318 60.5337 24.4488C61.8435 23.9481 63.0268 22.7627 63.5889 21.4789Z" fill="#F0E7D2"/>
<path d="M26.7206 44.5459C26.8981 40.3033 26.6108 36.0027 26.8053 31.7624C26.8537 30.7077 27.5274 29.5073 28.6584 29.4628C34.05 29.2512 39.5381 29.3163 44.9348 29.3989C46.3315 29.4203 47.2657 30.3727 47.2613 31.739C47.4574 35.964 47.1333 40.2942 47.3791 44.5073C47.8581 45.1762 48.2329 47.5279 47.4315 47.4981C45.3371 47.4199 27.4516 47.975 26.5342 47.4462C26.0602 46.8906 26.1897 45.9735 26.2031 45.2312C26.3341 45.0293 26.5676 44.7452 26.7206 44.5459Z" fill="#50423C"/>
<path d="M32.9542 35.5508C34.1787 35.6548 35.7528 35.5904 37.006 35.573C38.435 35.6053 39.8646 35.6082 41.2937 35.5814C41.6871 35.6826 41.9866 35.7097 42.2176 36.0392C42.558 36.9506 42.6042 42.6894 42.1542 43.8404C42.0822 44.0244 41.7864 44.4069 41.6481 44.5689C43.1112 44.569 46.0493 44.6443 47.3788 44.5077C47.8579 45.1766 48.2326 47.5282 47.4312 47.4984C45.3368 47.4202 27.4514 47.9754 26.534 47.4466C26.06 46.8909 26.1894 45.9738 26.2029 45.2316C26.3339 45.0297 26.5673 44.7456 26.7204 44.5463C27.4097 44.6946 31.5108 44.5849 32.3701 44.5484L32.4184 44.4456C32.3546 44.3676 31.8835 43.7865 31.8722 43.7163C31.5686 41.8276 31.7238 39.7881 31.7035 37.8647C31.6891 36.4935 31.5778 35.9413 32.9542 35.5508Z" fill="#F8C24C"/>
<path d="M34.795 37.4648C35.9287 37.9468 34.9112 39.8797 36.8072 40.1074C39.4501 40.4247 37.8289 37.9384 39.3056 37.5165C39.8675 37.797 39.8615 38.2674 39.8477 38.8207C39.4812 40.1787 38.6863 41.2089 37.1802 41.2171C36.3756 41.2225 35.6043 40.8937 35.0474 40.308C34.2495 39.4856 33.8606 38.3249 34.795 37.4648Z" fill="#50423C"/>
<path d="M36.9756 35.1187C37.1836 34.2921 37.4324 33.5563 38.2043 33.0985C38.6454 32.832 39.1772 32.7647 39.6697 32.9134C40.843 33.2593 41.2687 34.4605 41.294 35.5812C39.8649 35.6079 38.4353 35.605 37.0063 35.5727L36.9756 35.1187Z" fill="#F2879D"/>
<path d="M32.9541 35.5507C33.1399 34.1655 34.2068 33.053 35.6545 33.6127C36.466 33.9265 36.625 34.3748 36.9752 35.1189L37.006 35.5729C35.7527 35.5903 34.1786 35.6547 32.9541 35.5507Z" fill="#5EB897"/>
<mask id="path-19-outside-1_424_3756" maskUnits="userSpaceOnUse" x="10" y="51" width="68" height="24" fill="black">
<rect fill="white" x="10" y="51" width="68" height="24"/>
<path d="M13.96 60.14C13.96 59.46 14.1333 58.9467 14.48 58.6C14.84 58.24 15.36 58.06 16.04 58.06H27.96C28.64 58.06 29.1533 58.24 29.5 58.6C29.86 58.9467 30.04 59.46 30.04 60.14V66.06C30.04 66.74 29.86 67.26 29.5 67.62C29.1533 67.9667 28.64 68.14 27.96 68.14H16.04C15.36 68.14 14.84 67.9667 14.48 67.62C14.1333 67.26 13.96 66.74 13.96 66.06V60.14ZM27.64 60.3H16.36V65.9H27.64V60.3ZM29.94 69.5C30.6733 69.5 31.04 69.8667 31.04 70.6V70.68C31.04 71.4133 30.6733 71.78 29.94 71.78H14.06C13.3267 71.78 12.96 71.4133 12.96 70.68V70.6C12.96 69.8667 13.3267 69.5 14.06 69.5H29.94ZM27.8 62.02C28.4933 62.02 28.84 62.3667 28.84 63.06V63.14C28.84 63.8333 28.4933 64.18 27.8 64.18H16.2C15.5067 64.18 15.16 63.8333 15.16 63.14V63.06C15.16 62.3667 15.5067 62.02 16.2 62.02H27.8ZM22.04 59.28C22.8133 59.28 23.2 59.6667 23.2 60.44V65.86C23.2 66.6333 22.8133 67.02 22.04 67.02H21.96C21.1867 67.02 20.8 66.6333 20.8 65.86V60.44C20.8 59.6667 21.1867 59.28 21.96 59.28H22.04ZM16.74 53.74C17.4867 53.74 17.86 54.0467 17.86 54.66H25.42C26.8333 54.66 27.6667 54.9333 27.92 55.48C28.1733 56.0267 27.84 56.84 26.92 57.92L25.9 59.12C25.4333 59.6667 24.92 59.7133 24.36 59.26L24.28 59.22C23.72 58.7667 23.6733 58.2667 24.14 57.72L24.92 56.82H17.56C16.8933 56.82 16.3867 56.6533 16.04 56.32C15.7067 55.9733 15.54 55.4667 15.54 54.8V54.66C15.54 54.0467 15.9133 53.74 16.66 53.74H16.74ZM51.84 56.32C52.6 56.32 52.98 56.7 52.98 57.46V57.54C52.98 58.3 52.6 58.68 51.84 58.68H36.16C35.4 58.68 35.02 58.3 35.02 57.54V57.46C35.02 56.7 35.4 56.32 36.16 56.32H51.84ZM44.04 57.5C44.8267 57.5 45.22 57.8933 45.22 58.68V71.04C45.22 71.8267 44.8267 72.22 44.04 72.22H43.96C43.1733 72.22 42.78 71.8267 42.78 71.04V58.68C42.78 57.8933 43.1733 57.5 43.96 57.5H44.04ZM49.56 60.68C50.2667 60.68 50.8 60.86 51.16 61.22C51.52 61.58 51.7 62.1133 51.7 62.82V68.1C51.7 68.8067 51.52 69.34 51.16 69.7C50.8 70.06 50.2667 70.24 49.56 70.24H48.8C48.04 70.24 47.66 69.86 47.66 69.1V69.02C47.66 68.26 48.04 67.88 48.8 67.88H49.3V63.04H38.7V69.1C38.7 69.8733 38.3133 70.26 37.54 70.26H37.46C36.6867 70.26 36.3 69.8733 36.3 69.1V62.82C36.3 62.1133 36.48 61.58 36.84 61.22C37.2 60.86 37.7333 60.68 38.44 60.68H49.56ZM44.08 53.56C44.84 53.56 45.22 53.94 45.22 54.7V54.8C45.22 55.56 44.84 55.94 44.08 55.94H43.94C43.1667 55.94 42.78 55.5533 42.78 54.78V54.72C42.78 53.9467 43.1667 53.56 43.94 53.56H44.08ZM61.56 58.42C62.3333 58.42 62.72 58.8067 62.72 59.58V59.66C62.72 60.4333 62.3333 60.82 61.56 60.82H58.1C57.3267 60.82 56.94 60.4333 56.94 59.66V59.58C56.94 58.8067 57.3267 58.42 58.1 58.42H61.56ZM61.72 67.04C62.4933 67.04 62.88 67.4267 62.88 68.2V68.28C62.88 69.0533 62.4933 69.44 61.72 69.44H57.94C57.1667 69.44 56.78 69.0533 56.78 68.28V68.2C56.78 67.4267 57.1667 67.04 57.94 67.04H61.72ZM59.86 53.88C60.6333 53.88 61.02 54.2667 61.02 55.04V67.02C61.02 67.7933 60.6333 68.18 59.86 68.18H59.78C59.0067 68.18 58.62 67.7933 58.62 67.02V55.04C58.62 54.2667 59.0067 53.88 59.78 53.88H59.86ZM69.34 54.24C71.0867 54.24 72.0867 54.5467 72.34 55.16C72.5933 55.7733 72.0667 56.68 70.76 57.88L68.54 59.94H72.96C74.3733 59.94 75.08 60.6467 75.08 62.06V69.9C75.08 71.3133 74.3733 72.02 72.96 72.02H71.78C71.0333 72.02 70.66 71.6467 70.66 70.9V70.82C70.66 70.0733 71.0333 69.7 71.78 69.7H72.68V62.26H67.94C66.1933 62.26 65.1933 61.9533 64.94 61.34C64.6867 60.7267 65.2133 59.82 66.52 58.62L68.74 56.56H64.6C63.8533 56.56 63.48 56.1867 63.48 55.44V55.36C63.48 54.6133 63.8533 54.24 64.6 54.24H69.34ZM67.7 61.18C68.3933 61.3533 68.64 61.7933 68.44 62.5C67.92 64.18 67.3 65.8133 66.58 67.4C65.86 68.9733 65.14 70.3267 64.42 71.46C64.0467 72.0867 63.5467 72.2067 62.92 71.82L62.84 71.78C62.2267 71.4067 62.1133 70.9 62.5 70.26C64.1267 67.5133 65.3867 64.7267 66.28 61.9C66.48 61.22 66.9267 60.9667 67.62 61.14L67.7 61.18ZM71.52 61.1C72.2267 61.2867 72.4933 61.7267 72.32 62.42C71.5067 65.5667 70.4133 68.54 69.04 71.34C68.72 72.0067 68.24 72.1667 67.6 71.82L67.52 71.78C66.88 71.4467 66.72 70.9533 67.04 70.3C67.7467 68.8333 68.3667 67.3667 68.9 65.9C69.4467 64.42 69.8533 63.0867 70.12 61.9C70.3067 61.1933 70.7467 60.9267 71.44 61.1H71.52Z"/>
</mask>
<path d="M13.96 60.14C13.96 59.46 14.1333 58.9467 14.48 58.6C14.84 58.24 15.36 58.06 16.04 58.06H27.96C28.64 58.06 29.1533 58.24 29.5 58.6C29.86 58.9467 30.04 59.46 30.04 60.14V66.06C30.04 66.74 29.86 67.26 29.5 67.62C29.1533 67.9667 28.64 68.14 27.96 68.14H16.04C15.36 68.14 14.84 67.9667 14.48 67.62C14.1333 67.26 13.96 66.74 13.96 66.06V60.14ZM27.64 60.3H16.36V65.9H27.64V60.3ZM29.94 69.5C30.6733 69.5 31.04 69.8667 31.04 70.6V70.68C31.04 71.4133 30.6733 71.78 29.94 71.78H14.06C13.3267 71.78 12.96 71.4133 12.96 70.68V70.6C12.96 69.8667 13.3267 69.5 14.06 69.5H29.94ZM27.8 62.02C28.4933 62.02 28.84 62.3667 28.84 63.06V63.14C28.84 63.8333 28.4933 64.18 27.8 64.18H16.2C15.5067 64.18 15.16 63.8333 15.16 63.14V63.06C15.16 62.3667 15.5067 62.02 16.2 62.02H27.8ZM22.04 59.28C22.8133 59.28 23.2 59.6667 23.2 60.44V65.86C23.2 66.6333 22.8133 67.02 22.04 67.02H21.96C21.1867 67.02 20.8 66.6333 20.8 65.86V60.44C20.8 59.6667 21.1867 59.28 21.96 59.28H22.04ZM16.74 53.74C17.4867 53.74 17.86 54.0467 17.86 54.66H25.42C26.8333 54.66 27.6667 54.9333 27.92 55.48C28.1733 56.0267 27.84 56.84 26.92 57.92L25.9 59.12C25.4333 59.6667 24.92 59.7133 24.36 59.26L24.28 59.22C23.72 58.7667 23.6733 58.2667 24.14 57.72L24.92 56.82H17.56C16.8933 56.82 16.3867 56.6533 16.04 56.32C15.7067 55.9733 15.54 55.4667 15.54 54.8V54.66C15.54 54.0467 15.9133 53.74 16.66 53.74H16.74ZM51.84 56.32C52.6 56.32 52.98 56.7 52.98 57.46V57.54C52.98 58.3 52.6 58.68 51.84 58.68H36.16C35.4 58.68 35.02 58.3 35.02 57.54V57.46C35.02 56.7 35.4 56.32 36.16 56.32H51.84ZM44.04 57.5C44.8267 57.5 45.22 57.8933 45.22 58.68V71.04C45.22 71.8267 44.8267 72.22 44.04 72.22H43.96C43.1733 72.22 42.78 71.8267 42.78 71.04V58.68C42.78 57.8933 43.1733 57.5 43.96 57.5H44.04ZM49.56 60.68C50.2667 60.68 50.8 60.86 51.16 61.22C51.52 61.58 51.7 62.1133 51.7 62.82V68.1C51.7 68.8067 51.52 69.34 51.16 69.7C50.8 70.06 50.2667 70.24 49.56 70.24H48.8C48.04 70.24 47.66 69.86 47.66 69.1V69.02C47.66 68.26 48.04 67.88 48.8 67.88H49.3V63.04H38.7V69.1C38.7 69.8733 38.3133 70.26 37.54 70.26H37.46C36.6867 70.26 36.3 69.8733 36.3 69.1V62.82C36.3 62.1133 36.48 61.58 36.84 61.22C37.2 60.86 37.7333 60.68 38.44 60.68H49.56ZM44.08 53.56C44.84 53.56 45.22 53.94 45.22 54.7V54.8C45.22 55.56 44.84 55.94 44.08 55.94H43.94C43.1667 55.94 42.78 55.5533 42.78 54.78V54.72C42.78 53.9467 43.1667 53.56 43.94 53.56H44.08ZM61.56 58.42C62.3333 58.42 62.72 58.8067 62.72 59.58V59.66C62.72 60.4333 62.3333 60.82 61.56 60.82H58.1C57.3267 60.82 56.94 60.4333 56.94 59.66V59.58C56.94 58.8067 57.3267 58.42 58.1 58.42H61.56ZM61.72 67.04C62.4933 67.04 62.88 67.4267 62.88 68.2V68.28C62.88 69.0533 62.4933 69.44 61.72 69.44H57.94C57.1667 69.44 56.78 69.0533 56.78 68.28V68.2C56.78 67.4267 57.1667 67.04 57.94 67.04H61.72ZM59.86 53.88C60.6333 53.88 61.02 54.2667 61.02 55.04V67.02C61.02 67.7933 60.6333 68.18 59.86 68.18H59.78C59.0067 68.18 58.62 67.7933 58.62 67.02V55.04C58.62 54.2667 59.0067 53.88 59.78 53.88H59.86ZM69.34 54.24C71.0867 54.24 72.0867 54.5467 72.34 55.16C72.5933 55.7733 72.0667 56.68 70.76 57.88L68.54 59.94H72.96C74.3733 59.94 75.08 60.6467 75.08 62.06V69.9C75.08 71.3133 74.3733 72.02 72.96 72.02H71.78C71.0333 72.02 70.66 71.6467 70.66 70.9V70.82C70.66 70.0733 71.0333 69.7 71.78 69.7H72.68V62.26H67.94C66.1933 62.26 65.1933 61.9533 64.94 61.34C64.6867 60.7267 65.2133 59.82 66.52 58.62L68.74 56.56H64.6C63.8533 56.56 63.48 56.1867 63.48 55.44V55.36C63.48 54.6133 63.8533 54.24 64.6 54.24H69.34ZM67.7 61.18C68.3933 61.3533 68.64 61.7933 68.44 62.5C67.92 64.18 67.3 65.8133 66.58 67.4C65.86 68.9733 65.14 70.3267 64.42 71.46C64.0467 72.0867 63.5467 72.2067 62.92 71.82L62.84 71.78C62.2267 71.4067 62.1133 70.9 62.5 70.26C64.1267 67.5133 65.3867 64.7267 66.28 61.9C66.48 61.22 66.9267 60.9667 67.62 61.14L67.7 61.18ZM71.52 61.1C72.2267 61.2867 72.4933 61.7267 72.32 62.42C71.5067 65.5667 70.4133 68.54 69.04 71.34C68.72 72.0067 68.24 72.1667 67.6 71.82L67.52 71.78C66.88 71.4467 66.72 70.9533 67.04 70.3C67.7467 68.8333 68.3667 67.3667 68.9 65.9C69.4467 64.42 69.8533 63.0867 70.12 61.9C70.3067 61.1933 70.7467 60.9267 71.44 61.1H71.52Z" fill="white"/>
<path d="M14.48 58.6L13.0658 57.1858L13.0658 57.1858L14.48 58.6ZM29.5 58.6L28.0594 59.9873L28.0855 60.0145L28.1127 60.0406L29.5 58.6ZM29.5 67.62L30.9142 69.0342V69.0342L29.5 67.62ZM14.48 67.62L13.0394 69.0073L13.0655 69.0345L13.0927 69.0606L14.48 67.62ZM27.64 60.3H29.64V58.3H27.64V60.3ZM16.36 60.3V58.3H14.36V60.3H16.36ZM16.36 65.9H14.36V67.9H16.36V65.9ZM27.64 65.9V67.9H29.64V65.9H27.64ZM17.86 54.66H15.86V56.66H17.86V54.66ZM27.92 55.48L29.7346 54.6391L29.7346 54.6391L27.92 55.48ZM26.92 57.92L25.3975 56.6231L25.3961 56.6247L26.92 57.92ZM25.9 59.12L27.4211 60.4185L27.4239 60.4153L25.9 59.12ZM24.36 59.26L25.6184 57.7055L25.4492 57.5685L25.2544 57.4712L24.36 59.26ZM24.28 59.22L23.0216 60.7745L23.1908 60.9115L23.3856 61.0088L24.28 59.22ZM24.14 57.72L22.6286 56.4101L22.6237 56.4158L22.6189 56.4215L24.14 57.72ZM24.92 56.82L26.4314 58.1299L29.2999 54.82H24.92V56.82ZM16.04 56.32L14.5983 57.7062L14.6255 57.7345L14.6538 57.7617L16.04 56.32ZM13.96 60.14H15.96C15.96 59.9645 15.983 59.8905 15.9849 59.8848C15.9852 59.8838 15.9799 59.8997 15.964 59.9261C15.9476 59.9531 15.9244 59.984 15.8942 60.0142L14.48 58.6L13.0658 57.1858C12.2184 58.0332 11.96 59.1386 11.96 60.14H13.96ZM14.48 58.6L15.8942 60.0142C15.8717 60.0367 15.8478 60.055 15.826 60.0684C15.8047 60.0815 15.7922 60.0857 15.7942 60.085C15.8009 60.0827 15.8722 60.06 16.04 60.06V58.06V56.06C15.0134 56.06 13.9134 56.3381 13.0658 57.1858L14.48 58.6ZM16.04 58.06V60.06H27.96V58.06V56.06H16.04V58.06ZM27.96 58.06V60.06C28.1286 60.06 28.1948 60.0829 28.1932 60.0823C28.1908 60.0815 28.1726 60.0747 28.1452 60.0575C28.1172 60.04 28.0873 60.0163 28.0594 59.9873L29.5 58.6L30.9406 57.2127C30.0966 56.3362 28.9813 56.06 27.96 56.06V58.06ZM29.5 58.6L28.1127 60.0406C28.0837 60.0127 28.06 59.9828 28.0425 59.9548C28.0253 59.9274 28.0185 59.9092 28.0177 59.9068C28.0171 59.9052 28.04 59.9714 28.04 60.14H30.04H32.04C32.04 59.1187 31.7638 58.0034 30.8873 57.1594L29.5 58.6ZM30.04 60.14H28.04V66.06H30.04H32.04V60.14H30.04ZM30.04 66.06H28.04C28.04 66.2278 28.0173 66.2991 28.015 66.3058C28.0143 66.3078 28.0185 66.2953 28.0316 66.274C28.045 66.2522 28.0633 66.2283 28.0858 66.2058L29.5 67.62L30.9142 69.0342C31.7619 68.1866 32.04 67.0866 32.04 66.06H30.04ZM29.5 67.62L28.0858 66.2058C28.116 66.1756 28.1469 66.1524 28.1739 66.136C28.2003 66.1201 28.2162 66.1148 28.2152 66.1151C28.2095 66.117 28.1355 66.14 27.96 66.14V68.14V70.14C28.9614 70.14 30.0668 69.8816 30.9142 69.0342L29.5 67.62ZM27.96 68.14V66.14H16.04V68.14V70.14H27.96V68.14ZM16.04 68.14V66.14C15.8654 66.14 15.7863 66.1172 15.7725 66.1126C15.767 66.1108 15.7773 66.1137 15.7975 66.1256C15.8182 66.1379 15.8428 66.1558 15.8673 66.1794L14.48 67.62L13.0927 69.0606C13.943 69.8794 15.0329 70.14 16.04 70.14V68.14ZM14.48 67.62L15.9206 66.2327C15.9442 66.2572 15.9621 66.2818 15.9744 66.3025C15.9863 66.3227 15.9892 66.333 15.9874 66.3275C15.9828 66.3137 15.96 66.2346 15.96 66.06H13.96H11.96C11.96 67.0671 12.2206 68.157 13.0394 69.0073L14.48 67.62ZM13.96 66.06H15.96V60.14H13.96H11.96V66.06H13.96ZM27.64 60.3V58.3H16.36V60.3V62.3H27.64V60.3ZM16.36 60.3H14.36V65.9H16.36H18.36V60.3H16.36ZM16.36 65.9V67.9H27.64V65.9V63.9H16.36V65.9ZM27.64 65.9H29.64V60.3H27.64H25.64V65.9H27.64ZM29.94 69.5V71.5C29.9984 71.5 29.6748 71.5132 29.3508 71.1892C29.0268 70.8652 29.04 70.5416 29.04 70.6H31.04H33.04C33.04 69.925 32.8699 69.0515 32.1792 68.3608C31.4885 67.6701 30.615 67.5 29.94 67.5V69.5ZM31.04 70.6H29.04V70.68H31.04H33.04V70.6H31.04ZM31.04 70.68H29.04C29.04 70.7384 29.0268 70.4148 29.3508 70.0908C29.6748 69.7668 29.9984 69.78 29.94 69.78V71.78V73.78C30.615 73.78 31.4885 73.6099 32.1792 72.9192C32.8699 72.2285 33.04 71.355 33.04 70.68H31.04ZM29.94 71.78V69.78H14.06V71.78V73.78H29.94V71.78ZM14.06 71.78V69.78C14.0016 69.78 14.3252 69.7668 14.6492 70.0908C14.9732 70.4148 14.96 70.7384 14.96 70.68H12.96H10.96C10.96 71.355 11.1301 72.2285 11.8208 72.9192C12.5115 73.6099 13.385 73.78 14.06 73.78V71.78ZM12.96 70.68H14.96V70.6H12.96H10.96V70.68H12.96ZM12.96 70.6H14.96C14.96 70.5416 14.9732 70.8652 14.6492 71.1892C14.3252 71.5132 14.0016 71.5 14.06 71.5V69.5V67.5C13.385 67.5 12.5115 67.6701 11.8208 68.3608C11.1301 69.0515 10.96 69.925 10.96 70.6H12.96ZM14.06 69.5V71.5H29.94V69.5V67.5H14.06V69.5ZM27.8 62.02V64.02C27.8384 64.02 27.4998 64.0282 27.1658 63.6942C26.8318 63.3602 26.84 63.0216 26.84 63.06H28.84H30.84C30.84 62.405 30.6749 61.5465 29.9942 60.8658C29.3135 60.1851 28.455 60.02 27.8 60.02V62.02ZM28.84 63.06H26.84V63.14H28.84H30.84V63.06H28.84ZM28.84 63.14H26.84C26.84 63.1784 26.8318 62.8398 27.1658 62.5058C27.4998 62.1718 27.8384 62.18 27.8 62.18V64.18V66.18C28.455 66.18 29.3135 66.0149 29.9942 65.3342C30.6749 64.6535 30.84 63.795 30.84 63.14H28.84ZM27.8 64.18V62.18H16.2V64.18V66.18H27.8V64.18ZM16.2 64.18V62.18C16.1616 62.18 16.5002 62.1718 16.8342 62.5058C17.1682 62.8398 17.16 63.1784 17.16 63.14H15.16H13.16C13.16 63.795 13.3251 64.6535 14.0058 65.3342C14.6865 66.0149 15.545 66.18 16.2 66.18V64.18ZM15.16 63.14H17.16V63.06H15.16H13.16V63.14H15.16ZM15.16 63.06H17.16C17.16 63.0216 17.1682 63.3602 16.8342 63.6942C16.5002 64.0282 16.1616 64.02 16.2 64.02V62.02V60.02C15.545 60.02 14.6865 60.1851 14.0058 60.8658C13.3251 61.5465 13.16 62.405 13.16 63.06H15.16ZM16.2 62.02V64.02H27.8V62.02V60.02H16.2V62.02ZM22.04 59.28V61.28C22.1184 61.28 21.8098 61.2982 21.4958 60.9842C21.1818 60.6702 21.2 60.3616 21.2 60.44H23.2H25.2C25.2 59.745 25.0249 58.8565 24.3242 58.1558C23.6235 57.4551 22.735 57.28 22.04 57.28V59.28ZM23.2 60.44H21.2V65.86H23.2H25.2V60.44H23.2ZM23.2 65.86H21.2C21.2 65.9384 21.1818 65.6298 21.4958 65.3158C21.8098 65.0018 22.1184 65.02 22.04 65.02V67.02V69.02C22.735 69.02 23.6235 68.8449 24.3242 68.1442C25.0249 67.4435 25.2 66.555 25.2 65.86H23.2ZM22.04 67.02V65.02H21.96V67.02V69.02H22.04V67.02ZM21.96 67.02V65.02C21.8816 65.02 22.1902 65.0018 22.5042 65.3158C22.8182 65.6298 22.8 65.9384 22.8 65.86H20.8H18.8C18.8 66.555 18.9751 67.4435 19.6758 68.1442C20.3765 68.8449 21.265 69.02 21.96 69.02V67.02ZM20.8 65.86H22.8V60.44H20.8H18.8V65.86H20.8ZM20.8 60.44H22.8C22.8 60.3616 22.8182 60.6702 22.5042 60.9842C22.1902 61.2982 21.8816 61.28 21.96 61.28V59.28V57.28C21.265 57.28 20.3765 57.4551 19.6758 58.1558C18.9751 58.8565 18.8 59.745 18.8 60.44H20.8ZM21.96 59.28V61.28H22.04V59.28V57.28H21.96V59.28ZM16.74 53.74V55.74C16.8902 55.74 16.6312 55.7788 16.3105 55.5155C16.1389 55.3745 16.0119 55.1947 15.9368 55.0095C15.8666 54.8366 15.86 54.7057 15.86 54.66H17.86H19.86C19.86 53.9299 19.6188 53.0565 18.8495 52.4245C18.1555 51.8545 17.3365 51.74 16.74 51.74V53.74ZM17.86 54.66V56.66H25.42V54.66V52.66H17.86V54.66ZM25.42 54.66V56.66C25.7115 56.66 25.9458 56.6742 26.1297 56.6966C26.316 56.7193 26.4272 56.7475 26.4817 56.7654C26.6142 56.8088 26.301 56.743 26.1054 56.3209L27.92 55.48L29.7346 54.6391C29.2857 53.6704 28.4292 53.1945 27.7283 52.9646C27.0257 52.7342 26.2256 52.66 25.42 52.66V54.66ZM27.92 55.48L26.1054 56.3209C25.908 55.8951 26.0629 55.6109 26.0094 55.7416C25.9875 55.795 25.9365 55.8986 25.8323 56.056C25.7295 56.2114 25.5875 56.4 25.3975 56.6231L26.92 57.92L28.4425 59.2169C28.9663 58.602 29.4299 57.9435 29.7106 57.2584C29.9904 56.5757 30.1853 55.6116 29.7346 54.6391L27.92 55.48ZM26.92 57.92L25.3961 56.6247L24.3761 57.8247L25.9 59.12L27.4239 60.4153L28.4439 59.2153L26.92 57.92ZM25.9 59.12L24.3789 57.8215C24.3492 57.8563 24.5444 57.6132 24.9839 57.5732C25.4223 57.5334 25.6565 57.7364 25.6184 57.7055L24.36 59.26L23.1016 60.8145C23.6235 61.237 24.3943 61.6433 25.3461 61.5568C26.299 61.4702 26.9842 60.9304 27.4211 60.4185L25.9 59.12ZM24.36 59.26L25.2544 57.4712L25.1744 57.4312L24.28 59.22L23.3856 61.0088L23.4656 61.0488L24.36 59.26ZM24.28 59.22L25.5384 57.6655C25.4934 57.629 25.7713 57.8361 25.8163 58.3191C25.8616 58.8035 25.6257 59.0601 25.6611 59.0185L24.14 57.72L22.6189 56.4215C22.1877 56.9266 21.7418 57.7065 21.8337 58.6909C21.9254 59.6739 22.5066 60.3576 23.0216 60.7745L24.28 59.22ZM24.14 57.72L25.6514 59.0299L26.4314 58.1299L24.92 56.82L23.4086 55.5101L22.6286 56.4101L24.14 57.72ZM24.92 56.82V54.82H17.56V56.82V58.82H24.92V56.82ZM17.56 56.82V54.82C17.3882 54.82 17.3135 54.798 17.305 54.7951C17.3024 54.7943 17.3164 54.7987 17.3411 54.8132C17.3664 54.828 17.3963 54.8495 17.4262 54.8783L16.04 56.32L14.6538 57.7617C15.4969 58.5724 16.5786 58.82 17.56 58.82V56.82ZM16.04 56.32L17.4817 54.9338C17.5105 54.9637 17.532 54.9936 17.5468 55.0189C17.5613 55.0436 17.5657 55.0576 17.5649 55.055C17.562 55.0465 17.54 54.9718 17.54 54.8H15.54H13.54C13.54 55.7814 13.7876 56.8631 14.5983 57.7062L16.04 56.32ZM15.54 54.8H17.54V54.66H15.54H13.54V54.8H15.54ZM15.54 54.66H17.54C17.54 54.7057 17.5334 54.8366 17.4632 55.0095C17.3881 55.1947 17.2611 55.3745 17.0895 55.5155C16.7688 55.7788 16.5098 55.74 16.66 55.74V53.74V51.74C16.0635 51.74 15.2445 51.8545 14.5505 52.4245C13.7812 53.0565 13.54 53.9299 13.54 54.66H15.54ZM16.66 53.74V55.74H16.74V53.74V51.74H16.66V53.74ZM51.16 61.22L49.7458 62.6342V62.6342L51.16 61.22ZM51.16 69.7L52.5742 71.1142V71.1142L51.16 69.7ZM49.3 67.88V69.88H51.3V67.88H49.3ZM49.3 63.04H51.3V61.04H49.3V63.04ZM38.7 63.04V61.04H36.7V63.04H38.7ZM36.84 61.22L38.2542 62.6342V62.6342L36.84 61.22ZM51.84 56.32V58.32C51.9117 58.32 51.5981 58.3366 51.2808 58.0192C50.9634 57.7019 50.98 57.3883 50.98 57.46H52.98H54.98C54.98 56.7717 54.8066 55.8881 54.1092 55.1908C53.4119 54.4934 52.5283 54.32 51.84 54.32V56.32ZM52.98 57.46H50.98V57.54H52.98H54.98V57.46H52.98ZM52.98 57.54H50.98C50.98 57.6117 50.9634 57.2981 51.2808 56.9808C51.5981 56.6634 51.9117 56.68 51.84 56.68V58.68V60.68C52.5283 60.68 53.4119 60.5066 54.1092 59.8092C54.8066 59.1119 54.98 58.2283 54.98 57.54H52.98ZM51.84 58.68V56.68H36.16V58.68V60.68H51.84V58.68ZM36.16 58.68V56.68C36.0883 56.68 36.4019 56.6634 36.7192 56.9808C37.0366 57.2981 37.02 57.6117 37.02 57.54H35.02H33.02C33.02 58.2283 33.1934 59.1119 33.8908 59.8092C34.5881 60.5066 35.4717 60.68 36.16 60.68V58.68ZM35.02 57.54H37.02V57.46H35.02H33.02V57.54H35.02ZM35.02 57.46H37.02C37.02 57.3883 37.0366 57.7019 36.7192 58.0192C36.4019 58.3366 36.0883 58.32 36.16 58.32V56.32V54.32C35.4717 54.32 34.5881 54.4934 33.8908 55.1908C33.1934 55.8881 33.02 56.7717 33.02 57.46H35.02ZM36.16 56.32V58.32H51.84V56.32V54.32H36.16V56.32ZM44.04 57.5V59.5C44.125 59.5 43.8215 59.5199 43.5108 59.2092C43.2001 58.8985 43.22 58.595 43.22 58.68H45.22H47.22C47.22 57.9784 47.0432 57.0848 46.3392 56.3808C45.6352 55.6768 44.7416 55.5 44.04 55.5V57.5ZM45.22 58.68H43.22V71.04H45.22H47.22V58.68H45.22ZM45.22 71.04H43.22C43.22 71.125 43.2001 70.8215 43.5108 70.5108C43.8215 70.2001 44.125 70.22 44.04 70.22V72.22V74.22C44.7416 74.22 45.6352 74.0432 46.3392 73.3392C47.0432 72.6352 47.22 71.7416 47.22 71.04H45.22ZM44.04 72.22V70.22H43.96V72.22V74.22H44.04V72.22ZM43.96 72.22V70.22C43.875 70.22 44.1785 70.2001 44.4892 70.5108C44.7999 70.8215 44.78 71.125 44.78 71.04H42.78H40.78C40.78 71.7416 40.9568 72.6352 41.6608 73.3392C42.3648 74.0432 43.2584 74.22 43.96 74.22V72.22ZM42.78 71.04H44.78V58.68H42.78H40.78V71.04H42.78ZM42.78 58.68H44.78C44.78 58.595 44.7999 58.8985 44.4892 59.2092C44.1785 59.5199 43.875 59.5 43.96 59.5V57.5V55.5C43.2584 55.5 42.3648 55.6768 41.6608 56.3808C40.9568 57.0848 40.78 57.9784 40.78 58.68H42.78ZM43.96 57.5V59.5H44.04V57.5V55.5H43.96V57.5ZM49.56 60.68V62.68C49.7489 62.68 49.8347 62.7047 49.8504 62.71C49.8565 62.712 49.8451 62.7088 49.8229 62.6953C49.8 62.6815 49.7727 62.6611 49.7458 62.6342L51.16 61.22L52.5742 59.8058C51.7132 58.9448 50.5875 58.68 49.56 58.68V60.68ZM51.16 61.22L49.7458 62.6342C49.7189 62.6073 49.6985 62.58 49.6847 62.5571C49.6712 62.5349 49.668 62.5235 49.67 62.5296C49.6753 62.5453 49.7 62.6311 49.7 62.82H51.7H53.7C53.7 61.7925 53.4352 60.6668 52.5742 59.8058L51.16 61.22ZM51.7 62.82H49.7V68.1H51.7H53.7V62.82H51.7ZM51.7 68.1H49.7C49.7 68.2889 49.6753 68.3747 49.67 68.3904C49.668 68.3965 49.6712 68.3851 49.6847 68.3629C49.6985 68.34 49.7189 68.3127 49.7458 68.2858L51.16 69.7L52.5742 71.1142C53.4352 70.2532 53.7 69.1275 53.7 68.1H51.7ZM51.16 69.7L49.7458 68.2858C49.7727 68.2589 49.8 68.2385 49.8229 68.2247C49.8451 68.2112 49.8565 68.208 49.8504 68.21C49.8347 68.2153 49.7489 68.24 49.56 68.24V70.24V72.24C50.5875 72.24 51.7132 71.9752 52.5742 71.1142L51.16 69.7ZM49.56 70.24V68.24H48.8V70.24V72.24H49.56V70.24ZM48.8 70.24V68.24C48.7283 68.24 49.0419 68.2234 49.3592 68.5408C49.6766 68.8581 49.66 69.1717 49.66 69.1H47.66H45.66C45.66 69.7883 45.8334 70.6719 46.5308 71.3692C47.2281 72.0666 48.1117 72.24 48.8 72.24V70.24ZM47.66 69.1H49.66V69.02H47.66H45.66V69.1H47.66ZM47.66 69.02H49.66C49.66 68.9483 49.6766 69.2619 49.3592 69.5792C49.0419 69.8966 48.7283 69.88 48.8 69.88V67.88V65.88C48.1117 65.88 47.2281 66.0534 46.5308 66.7508C45.8334 67.4481 45.66 68.3317 45.66 69.02H47.66ZM48.8 67.88V69.88H49.3V67.88V65.88H48.8V67.88ZM49.3 67.88H51.3V63.04H49.3H47.3V67.88H49.3ZM49.3 63.04V61.04H38.7V63.04V65.04H49.3V63.04ZM38.7 63.04H36.7V69.1H38.7H40.7V63.04H38.7ZM38.7 69.1H36.7C36.7 69.1784 36.6818 68.8698 36.9958 68.5558C37.3098 68.2418 37.6184 68.26 37.54 68.26V70.26V72.26C38.235 72.26 39.1235 72.0849 39.8242 71.3842C40.5249 70.6835 40.7 69.795 40.7 69.1H38.7ZM37.54 70.26V68.26H37.46V70.26V72.26H37.54V70.26ZM37.46 70.26V68.26C37.3816 68.26 37.6902 68.2418 38.0042 68.5558C38.3182 68.8698 38.3 69.1784 38.3 69.1H36.3H34.3C34.3 69.795 34.4751 70.6835 35.1758 71.3842C35.8765 72.0849 36.765 72.26 37.46 72.26V70.26ZM36.3 69.1H38.3V62.82H36.3H34.3V69.1H36.3ZM36.3 62.82H38.3C38.3 62.6311 38.3247 62.5453 38.33 62.5296C38.332 62.5235 38.3288 62.5349 38.3153 62.5571C38.3015 62.58 38.2811 62.6073 38.2542 62.6342L36.84 61.22L35.4258 59.8058C34.5648 60.6668 34.3 61.7925 34.3 62.82H36.3ZM36.84 61.22L38.2542 62.6342C38.2273 62.6611 38.2 62.6815 38.1771 62.6953C38.1549 62.7088 38.1435 62.712 38.1496 62.71C38.1653 62.7047 38.2511 62.68 38.44 62.68V60.68V58.68C37.4125 58.68 36.2868 58.9448 35.4258 59.8058L36.84 61.22ZM38.44 60.68V62.68H49.56V60.68V58.68H38.44V60.68ZM44.08 53.56V55.56C44.1517 55.56 43.8381 55.5766 43.5208 55.2592C43.2034 54.9419 43.22 54.6283 43.22 54.7H45.22H47.22C47.22 54.0117 47.0466 53.1281 46.3492 52.4308C45.6519 51.7334 44.7683 51.56 44.08 51.56V53.56ZM45.22 54.7H43.22V54.8H45.22H47.22V54.7H45.22ZM45.22 54.8H43.22C43.22 54.8717 43.2034 54.5581 43.5208 54.2408C43.8381 53.9234 44.1517 53.94 44.08 53.94V55.94V57.94C44.7683 57.94 45.6519 57.7666 46.3492 57.0692C47.0466 56.3719 47.22 55.4883 47.22 54.8H45.22ZM44.08 55.94V53.94H43.94V55.94V57.94H44.08V55.94ZM43.94 55.94V53.94C43.8616 53.94 44.1702 53.9218 44.4842 54.2358C44.7982 54.5498 44.78 54.8584 44.78 54.78H42.78H40.78C40.78 55.475 40.9551 56.3635 41.6558 57.0642C42.3565 57.7649 43.245 57.94 43.94 57.94V55.94ZM42.78 54.78H44.78V54.72H42.78H40.78V54.78H42.78ZM42.78 54.72H44.78C44.78 54.6416 44.7982 54.9502 44.4842 55.2642C44.1702 55.5782 43.8616 55.56 43.94 55.56V53.56V51.56C43.245 51.56 42.3565 51.7351 41.6558 52.4358C40.9551 53.1365 40.78 54.025 40.78 54.72H42.78ZM43.94 53.56V55.56H44.08V53.56V51.56H43.94V53.56ZM70.76 57.88L69.4072 56.4069L69.3996 56.4139L70.76 57.88ZM68.54 59.94L67.1796 58.4739L63.4443 61.94H68.54V59.94ZM72.68 69.7V71.7H74.68V69.7H72.68ZM72.68 62.26H74.68V60.26H72.68V62.26ZM66.52 58.62L67.8728 60.0931L67.8804 60.0861L66.52 58.62ZM68.74 56.56L70.1004 58.0261L73.8357 54.56H68.74V56.56ZM67.7 61.18L66.8056 62.9689L67.0019 63.067L67.2149 63.1203L67.7 61.18ZM68.44 62.5L70.3506 63.0914L70.3578 63.0681L70.3644 63.0446L68.44 62.5ZM66.58 67.4L68.3986 68.2323L68.4013 68.2265L66.58 67.4ZM64.42 71.46L62.7319 70.3875L62.7165 70.4117L62.7018 70.4364L64.42 71.46ZM62.92 71.82L63.9702 70.1179L63.8943 70.0711L63.8144 70.0311L62.92 71.82ZM62.84 71.78L61.8001 73.4884L61.8712 73.5317L61.9456 73.5689L62.84 71.78ZM62.5 70.26L64.2118 71.2942L64.2164 71.2867L64.2209 71.2791L62.5 70.26ZM66.28 61.9L68.187 62.5027L68.1931 62.4836L68.1987 62.4643L66.28 61.9ZM67.62 61.14L68.5144 59.3511L68.3181 59.253L68.1051 59.1997L67.62 61.14ZM71.52 61.1L72.0308 59.1663L71.7797 59.1H71.52V61.1ZM72.32 62.42L74.2564 62.9205L74.2584 62.9128L74.2603 62.9051L72.32 62.42ZM69.04 71.34L67.2444 70.4593L67.2406 70.4669L67.237 70.4745L69.04 71.34ZM67.6 71.82L68.5526 70.0614L68.5237 70.0458L68.4944 70.0311L67.6 71.82ZM67.52 71.78L66.5961 73.5538L66.6108 73.5615L66.6256 73.5689L67.52 71.78ZM67.04 70.3L68.8362 71.1798L68.8418 71.1681L67.04 70.3ZM68.9 65.9L67.0239 65.207L67.0204 65.2165L68.9 65.9ZM70.12 61.9L68.1863 61.3892L68.1768 61.4252L68.1687 61.4615L70.12 61.9ZM71.44 61.1L70.9549 63.0403L71.1938 63.1H71.44V61.1ZM61.56 58.42V60.42C61.6384 60.42 61.3298 60.4382 61.0158 60.1242C60.7018 59.8102 60.72 59.5016 60.72 59.58H62.72H64.72C64.72 58.885 64.5449 57.9965 63.8442 57.2958C63.1435 56.5951 62.255 56.42 61.56 56.42V58.42ZM62.72 59.58H60.72V59.66H62.72H64.72V59.58H62.72ZM62.72 59.66H60.72C60.72 59.7384 60.7018 59.4298 61.0158 59.1158C61.3298 58.8018 61.6384 58.82 61.56 58.82V60.82V62.82C62.255 62.82 63.1435 62.6449 63.8442 61.9442C64.5449 61.2435 64.72 60.355 64.72 59.66H62.72ZM61.56 60.82V58.82H58.1V60.82V62.82H61.56V60.82ZM58.1 60.82V58.82C58.0216 58.82 58.3302 58.8018 58.6442 59.1158C58.9582 59.4298 58.94 59.7384 58.94 59.66H56.94H54.94C54.94 60.355 55.1151 61.2435 55.8158 61.9442C56.5165 62.6449 57.405 62.82 58.1 62.82V60.82ZM56.94 59.66H58.94V59.58H56.94H54.94V59.66H56.94ZM56.94 59.58H58.94C58.94 59.5016 58.9582 59.8102 58.6442 60.1242C58.3302 60.4382 58.0216 60.42 58.1 60.42V58.42V56.42C57.405 56.42 56.5165 56.5951 55.8158 57.2958C55.1151 57.9965 54.94 58.885 54.94 59.58H56.94ZM58.1 58.42V60.42H61.56V58.42V56.42H58.1V58.42ZM61.72 67.04V69.04C61.7984 69.04 61.4898 69.0582 61.1758 68.7442C60.8618 68.4302 60.88 68.1216 60.88 68.2H62.88H64.88C64.88 67.505 64.7049 66.6165 64.0042 65.9158C63.3035 65.2151 62.415 65.04 61.72 65.04V67.04ZM62.88 68.2H60.88V68.28H62.88H64.88V68.2H62.88ZM62.88 68.28H60.88C60.88 68.3584 60.8618 68.0498 61.1758 67.7358C61.4898 67.4218 61.7984 67.44 61.72 67.44V69.44V71.44C62.415 71.44 63.3035 71.2649 64.0042 70.5642C64.7049 69.8635 64.88 68.975 64.88 68.28H62.88ZM61.72 69.44V67.44H57.94V69.44V71.44H61.72V69.44ZM57.94 69.44V67.44C57.8616 67.44 58.1702 67.4218 58.4842 67.7358C58.7982 68.0498 58.78 68.3584 58.78 68.28H56.78H54.78C54.78 68.975 54.9551 69.8635 55.6558 70.5642C56.3565 71.2649 57.245 71.44 57.94 71.44V69.44ZM56.78 68.28H58.78V68.2H56.78H54.78V68.28H56.78ZM56.78 68.2H58.78C58.78 68.1216 58.7982 68.4302 58.4842 68.7442C58.1702 69.0582 57.8616 69.04 57.94 69.04V67.04V65.04C57.245 65.04 56.3565 65.2151 55.6558 65.9158C54.9551 66.6165 54.78 67.505 54.78 68.2H56.78ZM57.94 67.04V69.04H61.72V67.04V65.04H57.94V67.04ZM59.86 53.88V55.88C59.9384 55.88 59.6298 55.8982 59.3158 55.5842C59.0018 55.2702 59.02 54.9616 59.02 55.04H61.02H63.02C63.02 54.345 62.8449 53.4565 62.1442 52.7558C61.4435 52.0551 60.555 51.88 59.86 51.88V53.88ZM61.02 55.04H59.02V67.02H61.02H63.02V55.04H61.02ZM61.02 67.02H59.02C59.02 67.0984 59.0018 66.7898 59.3158 66.4758C59.6298 66.1618 59.9384 66.18 59.86 66.18V68.18V70.18C60.555 70.18 61.4435 70.0049 62.1442 69.3042C62.8449 68.6035 63.02 67.715 63.02 67.02H61.02ZM59.86 68.18V66.18H59.78V68.18V70.18H59.86V68.18ZM59.78 68.18V66.18C59.7016 66.18 60.0102 66.1618 60.3242 66.4758C60.6382 66.7898 60.62 67.0984 60.62 67.02H58.62H56.62C56.62 67.715 56.7951 68.6035 57.4958 69.3042C58.1965 70.0049 59.085 70.18 59.78 70.18V68.18ZM58.62 67.02H60.62V55.04H58.62H56.62V67.02H58.62ZM58.62 55.04H60.62C60.62 54.9616 60.6382 55.2702 60.3242 55.5842C60.0102 55.8982 59.7016 55.88 59.78 55.88V53.88V51.88C59.085 51.88 58.1965 52.0551 57.4958 52.7558C56.7951 53.4565 56.62 54.345 56.62 55.04H58.62ZM59.78 53.88V55.88H59.86V53.88V51.88H59.78V53.88ZM69.34 54.24V56.24C70.1286 56.24 70.5884 56.313 70.8136 56.3821C71.0712 56.4611 70.6978 56.423 70.4915 55.9235L72.34 55.16L74.1885 54.3965C73.7289 53.2836 72.7288 52.7856 71.9864 52.5579C71.2116 52.3203 70.298 52.24 69.34 52.24V54.24ZM72.34 55.16L70.4915 55.9235C70.269 55.3849 70.5395 55.0649 70.4056 55.2954C70.2896 55.4952 69.9996 55.8629 69.4072 56.4069L70.76 57.88L72.1128 59.3531C72.827 58.6971 73.4538 58.0115 73.8644 57.3046C74.2572 56.6284 74.6643 55.5485 74.1885 54.3965L72.34 55.16ZM70.76 57.88L69.3996 56.4139L67.1796 58.4739L68.54 59.94L69.9004 61.4061L72.1204 59.3461L70.76 57.88ZM68.54 59.94V61.94H72.96V59.94V57.94H68.54V59.94ZM72.96 59.94V61.94C73.1526 61.94 73.2398 61.9648 73.255 61.9699C73.2607 61.9717 73.2476 61.968 73.2229 61.9531C73.1974 61.9378 73.1666 61.915 73.1358 61.8842C73.105 61.8534 73.0822 61.8226 73.0669 61.7971C73.052 61.7724 73.0483 61.7593 73.0501 61.765C73.0552 61.7802 73.08 61.8674 73.08 62.06H75.08H77.08C77.08 61.045 76.8249 59.9165 75.9642 59.0558C75.1035 58.1951 73.975 57.94 72.96 57.94V59.94ZM75.08 62.06H73.08V69.9H75.08H77.08V62.06H75.08ZM75.08 69.9H73.08C73.08 70.0926 73.0552 70.1798 73.0501 70.195C73.0483 70.2007 73.052 70.1876 73.0669 70.1629C73.0822 70.1374 73.105 70.1066 73.1358 70.0758C73.1666 70.045 73.1974 70.0222 73.2229 70.0069C73.2476 69.992 73.2607 69.9883 73.255 69.9901C73.2398 69.9952 73.1526 70.02 72.96 70.02V72.02V74.02C73.975 74.02 75.1035 73.7649 75.9642 72.9042C76.8249 72.0435 77.08 70.915 77.08 69.9H75.08ZM72.96 72.02V70.02H71.78V72.02V74.02H72.96V72.02ZM71.78 72.02V70.02C71.715 70.02 72.0335 70.0051 72.3542 70.3258C72.6749 70.6465 72.66 70.965 72.66 70.9H70.66H68.66C68.66 71.5816 68.8318 72.4602 69.5258 73.1542C70.2198 73.8482 71.0984 74.02 71.78 74.02V72.02ZM70.66 70.9H72.66V70.82H70.66H68.66V70.9H70.66ZM70.66 70.82H72.66C72.66 70.755 72.6749 71.0735 72.3542 71.3942C72.0335 71.7149 71.715 71.7 71.78 71.7V69.7V67.7C71.0984 67.7 70.2198 67.8718 69.5258 68.5658C68.8318 69.2598 68.66 70.1384 68.66 70.82H70.66ZM71.78 69.7V71.7H72.68V69.7V67.7H71.78V69.7ZM72.68 69.7H74.68V62.26H72.68H70.68V69.7H72.68ZM72.68 62.26V60.26H67.94V62.26V64.26H72.68V62.26ZM67.94 62.26V60.26C67.1514 60.26 66.6916 60.187 66.4664 60.1179C66.2088 60.0389 66.5822 60.0769 66.7885 60.5765L64.94 61.34L63.0915 62.1035C63.5511 63.2164 64.5512 63.7144 65.2936 63.9421C66.0684 64.1797 66.982 64.26 67.94 64.26V62.26ZM64.94 61.34L66.7885 60.5765C67.011 61.1151 66.7405 61.4351 66.8744 61.2046C66.9904 61.0048 67.2804 60.6371 67.8728 60.0931L66.52 58.62L65.1672 57.1469C64.453 57.8029 63.8262 58.4885 63.4156 59.1954C63.0228 59.8716 62.6157 60.9515 63.0915 62.1035L64.94 61.34ZM66.52 58.62L67.8804 60.0861L70.1004 58.0261L68.74 56.56L67.3796 55.0939L65.1596 57.1539L66.52 58.62ZM68.74 56.56V54.56H64.6V56.56V58.56H68.74V56.56ZM64.6 56.56V54.56C64.535 54.56 64.8535 54.5451 65.1742 54.8658C65.4949 55.1865 65.48 55.505 65.48 55.44H63.48H61.48C61.48 56.1216 61.6518 57.0002 62.3458 57.6942C63.0398 58.3882 63.9184 58.56 64.6 58.56V56.56ZM63.48 55.44H65.48V55.36H63.48H61.48V55.44H63.48ZM63.48 55.36H65.48C65.48 55.295 65.4949 55.6135 65.1742 55.9342C64.8535 56.2549 64.535 56.24 64.6 56.24V54.24V52.24C63.9184 52.24 63.0398 52.4118 62.3458 53.1058C61.6518 53.7998 61.48 54.6784 61.48 55.36H63.48ZM64.6 54.24V56.24H69.34V54.24V52.24H64.6V54.24ZM67.7 61.18L67.2149 63.1203C67.2543 63.1301 66.9028 63.0504 66.6604 62.618C66.4255 62.199 66.5369 61.8801 66.5156 61.9554L68.44 62.5L70.3644 63.0446C70.5431 62.4132 70.6311 61.521 70.1496 60.662C69.6605 59.7896 68.839 59.4032 68.1851 59.2397L67.7 61.18ZM68.44 62.5L66.5294 61.9086C66.034 63.5092 65.4437 65.064 64.7587 66.5735L66.58 67.4L68.4013 68.2265C69.1563 66.5627 69.806 64.8508 70.3506 63.0914L68.44 62.5ZM66.58 67.4L64.7614 66.5678C64.0691 68.0805 63.3913 69.3495 62.7319 70.3875L64.42 71.46L66.1081 72.5325C66.8887 71.3039 67.6509 69.8662 68.3986 68.2322L66.58 67.4ZM64.42 71.46L62.7018 70.4364C62.674 70.4831 62.8369 70.186 63.2983 70.0752C63.7547 69.9657 64.0276 70.1533 63.9702 70.1179L62.92 71.82L61.8698 73.5221C62.4391 73.8733 63.2753 74.1943 64.2317 73.9648C65.1931 73.734 65.7927 73.0636 66.1382 72.4836L64.42 71.46ZM62.92 71.82L63.8144 70.0311L63.7344 69.9911L62.84 71.78L61.9456 73.5689L62.0256 73.6089L62.92 71.82ZM62.84 71.78L63.8799 70.0716C63.8551 70.0565 64.1452 70.2293 64.2468 70.6834C64.3438 71.1173 64.168 71.3668 64.2118 71.2942L62.5 70.26L60.7882 69.2258C60.4454 69.7932 60.1329 70.6161 60.3432 71.5566C60.5582 72.5174 61.2116 73.1302 61.8001 73.4884L62.84 71.78ZM62.5 70.26L64.2209 71.2791C65.9193 68.4112 67.2444 65.4855 68.187 62.5027L66.28 61.9L64.373 61.2973C63.529 63.9678 62.334 66.6155 60.7791 69.2409L62.5 70.26ZM66.28 61.9L68.1987 62.4643C68.2088 62.43 68.1283 62.7261 67.7517 62.9397C67.3784 63.1514 67.0894 63.0689 67.1349 63.0803L67.62 61.14L68.1051 59.1997C67.4573 59.0378 66.5982 58.9953 65.7783 59.4603C64.9551 59.9272 64.5512 60.69 64.3613 61.3357L66.28 61.9ZM67.62 61.14L66.7256 62.9289L66.8056 62.9689L67.7 61.18L68.5944 59.3911L68.5144 59.3511L67.62 61.14ZM71.52 61.1L71.0092 63.0337C71.0731 63.0506 70.7701 62.987 70.5396 62.6066C70.3033 62.2166 70.3883 61.9006 70.3797 61.9349L72.32 62.42L74.2603 62.9051C74.425 62.2461 74.4634 61.3634 73.9604 60.5334C73.4632 59.713 72.6736 59.3361 72.0308 59.1663L71.52 61.1ZM72.32 62.42L70.3836 61.9195C69.6028 64.9405 68.5556 67.7859 67.2444 70.4593L69.04 71.34L70.8356 72.2207C72.2711 69.2941 73.4105 66.1928 74.2564 62.9205L72.32 62.42ZM69.04 71.34L67.237 70.4745C67.2028 70.5457 67.3365 70.2196 67.8075 70.0626C68.2874 69.9027 68.6027 70.0885 68.5526 70.0614L67.6 71.82L66.6474 73.5786C67.2373 73.8981 68.1126 74.1773 69.0725 73.8574C70.0235 73.5404 70.5572 72.801 70.843 72.2055L69.04 71.34ZM67.6 71.82L68.4944 70.0311L68.4144 69.9911L67.52 71.78L66.6256 73.5689L66.7056 73.6089L67.6 71.82ZM67.52 71.78L68.4439 70.0062C68.4044 69.9856 68.686 70.1224 68.8224 70.543C68.9576 70.9598 68.8117 71.2297 68.8361 71.1797L67.04 70.3L65.2439 69.4203C64.9483 70.0237 64.7224 70.8669 65.0176 71.777C65.314 72.6909 65.9956 73.2411 66.5961 73.5538L67.52 71.78ZM67.04 70.3L68.8418 71.1681C69.5762 69.6438 70.2225 68.1156 70.7796 66.5835L68.9 65.9L67.0204 65.2165C66.5109 66.6177 65.9171 68.0228 65.2382 69.4319L67.04 70.3ZM68.9 65.9L70.7761 66.593C71.345 65.0529 71.7805 63.6325 72.0713 62.3385L70.12 61.9L68.1687 61.4615C67.9261 62.5408 67.5484 63.7871 67.0239 65.207L68.9 65.9ZM70.12 61.9L72.0537 62.4108C72.0706 62.3469 72.007 62.6499 71.6266 62.8804C71.2366 63.1167 70.9206 63.0317 70.9549 63.0403L71.44 61.1L71.9251 59.1597C71.2661 58.995 70.3834 58.9566 69.5534 59.4596C68.733 59.9568 68.3561 60.7464 68.1863 61.3892L70.12 61.9ZM71.44 61.1V63.1H71.52V61.1V59.1H71.44V61.1Z" fill="#4E433C" mask="url(#path-19-outside-1_424_3756)"/>
</svg>
