<svg width="44" height="28" viewBox="0 0 44 28" fill="none" xmlns="http://www.w3.org/2000/svg">
<path d="M1.24106 0.141246C4.0425 -0.105781 42.2172 0.00162451 42.8603 0.230036C43.2042 0.352263 43.6449 0.662242 43.7852 1.00884C44.2089 2.05414 43.875 17.4361 43.875 19.9073C43.8752 21.8402 43.9997 23.7952 43.9322 25.7238C43.9169 26.1593 43.8758 26.6433 43.7128 27.0499C43.5132 27.5481 43.1676 27.7027 42.7035 27.8911C41.3926 28.0322 38.5989 27.9382 37.1581 27.9321L27.0467 27.9146L9.24932 27.918C7.54232 27.9203 2.61161 28.1668 1.28355 27.7938C0.873701 27.6788 0.407328 27.3473 0.218045 26.9617C0.0246978 26.5679 -0.0483292 4.93739 0.0324577 2.40478C0.0462506 1.97184 0.0861535 1.49603 0.232334 1.08636C0.412257 0.582022 0.786017 0.37076 1.24106 0.141246Z" fill="#534740"/>
<path d="M6.46579 1.88865C16.4716 1.97499 26.9256 2.00022 36.9242 1.88118C37.5122 4.84844 38.6308 6.0205 41.6361 6.57824C41.5151 11.3075 41.6161 16.2471 41.5618 21.0098C38.6048 21.0347 37.219 22.77 37.0019 25.5545L6.17171 25.5503C5.91112 22.9327 4.67308 21.302 1.92743 20.9629C1.91623 16.2279 2.00231 11.3582 1.8916 6.63642C4.90941 5.70293 5.82122 5.09632 6.46579 1.88865Z" fill="#F6F3E7"/>
<path d="M21.0672 5.36679C25.869 4.90703 30.1309 8.41893 30.5691 13.1966C31.0071 17.9742 27.4545 22.1949 22.6482 22.6066C17.876 23.0154 13.6685 19.5127 13.2334 14.7689C12.7984 10.025 16.2993 5.82312 21.0672 5.36679Z" fill="#534740"/>
<path d="M21.4587 7.78803C21.6811 7.80554 21.9199 7.85 22.1415 7.88576C22.528 8.2582 22.4226 8.19818 22.5944 8.77332C23.3794 9.19695 25.8784 10.377 25.0544 11.6971C24.2828 12.9333 22.7143 10.2661 21.4934 10.7419C20.8271 11.0015 20.0492 11.2771 20.2242 12.1887C21.3122 13.6343 27.1399 13.5594 25.3175 17.7232C24.866 18.7546 23.6823 19.1591 22.6761 19.4744C22.5655 19.9514 22.4537 20.1765 22.2505 20.6243C20.8984 20.4944 21.4209 19.8609 20.7147 19.3289C19.9258 18.7345 18.7557 18.681 18.5485 17.4398C18.4773 17.0131 18.3537 16.8152 18.6007 16.4051C19.5618 16.0652 23.2393 19.485 23.6892 16.3093C23.3193 15.0961 20.7411 14.9408 19.7332 14.3358C19.2001 14.0158 19.032 13.8229 18.6033 13.3842C18.5739 13.2793 18.547 13.1739 18.5226 13.0679C18.0059 10.8431 18.4162 10.2939 20.3164 9.23186C21.0971 8.79561 20.9976 8.51931 21.4587 7.78803Z" fill="#F6F3E7"/>
<path d="M7.68246 11.5663C9.04747 11.5232 10.1918 12.5836 10.245 13.9407C10.2981 15.298 9.24007 16.4436 7.87581 16.506C6.49763 16.5692 5.33139 15.5041 5.27769 14.1331C5.22412 12.762 6.30354 11.6099 7.68246 11.5663Z" fill="#57A974"/>
<path d="M35.4504 11.6682C36.7631 11.3023 38.1265 12.059 38.5025 13.3621C38.8785 14.6654 38.1258 16.0259 36.8177 16.4077C35.4983 16.7927 34.116 16.0363 33.7367 14.722C33.3575 13.4076 34.1264 12.0374 35.4504 11.6682Z" fill="#57A974"/>
</svg>
