<svg width="56" height="57" viewBox="0 0 56 57" fill="none" xmlns="http://www.w3.org/2000/svg">
<path d="M44.6214 0.0207609C45.8914 -0.115493 47.664 0.433815 48.6631 1.2315C51.4243 3.43586 51.2005 7.36395 51.5769 10.6035L52.8938 21.2301C53.8171 29.0163 55.0967 36.8216 55.9414 44.6163C56.8557 53.0541 46.8591 52.3743 41.1272 53.1839C34.8623 54.0565 28.589 54.8676 22.308 55.6173C18.7219 56.0693 15.1536 56.6313 11.5563 56.983C9.7159 57.0457 8.50647 56.9888 6.95476 55.8517C5.61452 54.8697 4.70033 52.9412 4.51488 51.3363C4.30393 49.5106 4.13525 47.6478 3.91263 45.8033L1.30036 23.3968C1.00217 20.7343 0.594014 18.0749 0.311908 15.4106C0.0399169 12.5985 -0.567177 10.1791 1.33131 7.76662C3.43591 5.0922 6.95035 5.0576 10.1069 4.68498C11.7314 4.49309 13.3526 4.27528 14.97 4.03144L44.6214 0.0207609Z" fill="white"/>
<path d="M44.0821 2.76582C45.7515 2.61008 47.8001 3.94034 48.276 5.57349C48.6493 6.85464 48.7312 8.5745 48.9075 9.93541C49.3519 13.1927 49.7491 16.4563 50.0991 19.7249C50.3498 21.9789 50.7002 24.261 50.9997 26.5123L52.4289 37.4646C52.5887 38.6781 52.7284 39.9784 52.8723 41.1972C52.988 42.177 53.3537 44.337 53.2728 45.2172C53.1957 46.1036 52.8628 46.949 52.3142 47.6523C51.8353 48.2598 50.941 48.8658 50.1833 49.0136C46.7822 49.6772 43.2434 49.9406 39.8111 50.414L20.3783 52.899C17.6163 53.2474 14.8715 53.6772 12.102 54.0032C9.31256 54.1116 7.3724 52.5556 7.07655 49.8206C6.95248 48.6733 6.79678 47.486 6.64868 46.34C6.24726 43.4322 5.88795 40.5186 5.57066 37.6005L4.03096 24.6307C3.57724 20.7524 2.92916 16.8765 2.65959 12.9777C2.31749 8.02975 6.50551 7.8613 10.1346 7.43125C11.843 7.23532 13.5478 7.00918 15.248 6.75273L44.0821 2.76582Z" fill="#FD8A92"/>
<path d="M37.9463 20.6449C38.9887 19.8534 40.173 19.077 41.3208 20.3223C41.964 21.02 41.7581 23.2478 42.4089 23.3128C42.7664 23.3485 44.0832 22.7811 44.5999 22.677C46.4444 23.21 46.0201 23.549 46.4507 24.9067C46.478 24.9928 48.0416 25.3371 48.1029 25.8517C48.3873 26.4879 48.2244 27.2343 47.8001 27.7687C46.2768 29.6875 50.3961 28.8541 47.7 31.1368C48.3868 31.7404 48.6896 31.9161 48.8292 32.8279C48.9322 33.5007 47.6275 35.8892 48.161 36.2354C49.4275 37.0573 49.5963 37.8039 48.9185 39.28C48.9969 39.6029 49.1151 40.032 49.1564 40.3519C48.8297 41.0568 48.5773 41.5213 48.1824 42.1926C49.0736 42.9996 50.0435 43.9563 48.8985 45.1632C47.8317 46.2876 46.3273 46.12 44.9451 45.8083C43.9407 46.6663 43.6543 46.731 42.3626 46.2102C40.9785 47.1553 39.7315 47.5379 38.1853 46.6282C36.5751 47.777 35.6822 47.9524 33.8145 47.1903C33.1492 47.7435 32.2421 48.2978 31.3454 48.2532C30.8553 48.2287 29.7826 47.7021 29.3483 47.9461C27.903 48.758 26.9818 48.9998 25.2928 48.3283C23.7609 49.1824 23.0782 49.5629 21.3058 49.0683C21.1237 49.019 20.9429 48.9646 20.7638 48.9051C19.1179 49.9943 18.1132 50.4066 16.2635 49.3373C14.5899 50.2876 13.0559 51.3101 11.2762 49.8109C10.6999 48.435 10.9812 48.1071 11.6346 46.8334C9.97517 45.1964 9.54617 45.1392 10.8864 42.9097C8.80395 40.975 9.65061 41.1222 9.89295 38.7792C10.0049 37.6974 8.91349 37.3267 8.56896 36.1079C8.88937 35.0078 9.50882 34.7717 9.27349 34.0436C9.08709 33.8676 8.92672 33.7201 8.72899 33.5548C8.85677 33.2824 8.98594 33.0107 9.11657 32.7396C6.39243 29.8932 11.1392 29.3474 11.4745 27.0614C10.8133 25.8321 11.5395 25.2155 12.7777 25.6096C14.4251 25.2905 15.9533 21.6034 18.403 23.22C19.346 23.8423 18.9088 25.7205 20.2576 25.4789C21.8848 25.1873 23.7048 21.6365 26.6358 21.1643C27.1428 21.0827 27.6712 21.0789 28.1158 21.3695C29.0427 21.9753 28.8263 24.07 30.0287 23.8387C31.6762 23.5219 34.8902 18.6247 37.5164 20.3251C37.6656 20.4216 37.8095 20.5318 37.9463 20.6449Z" fill="#DCDBDC"/>
<path d="M26.8737 26.6105C29.2296 26.4954 29.8237 28.234 30.8704 30.0182C32.7146 30.2119 35.9363 29.7207 36.0761 32.5339C36.1452 33.9262 34.6443 35.3703 33.7238 36.3093C34.1356 37.6572 35.11 39.8301 34.3192 41.0693C32.997 43.1408 30.3688 41.7912 28.837 40.9571C27.5994 41.7831 26.3427 43.3269 24.7705 43.136C22.1089 42.813 22.6197 39.4324 22.7457 37.7023C21.2303 36.6438 19.1356 35.516 19.7662 33.3695C20.3401 31.4163 22.6787 31.6432 24.1253 30.823C24.9327 28.9964 24.7265 27.4817 26.8737 26.6105Z" fill="white"/>
<path d="M27.2434 28.1295C28.4167 28.3882 29.4453 30.6291 30.0806 31.6637C31.1619 31.6504 33.4503 31.5054 34.2817 32.0902C35.2716 32.7865 32.4766 35.3276 32.0317 35.9447L31.9822 36.0143C32.2132 36.7983 33.1519 39.1374 32.9822 39.7756C32.4277 41.8608 29.5422 39.272 28.5253 39.1151C27.7037 39.794 26.095 41.1854 25.18 41.6172C24.9112 41.4969 24.5835 41.3647 24.4064 41.1292C23.8314 40.3646 24.2392 37.8437 24.3921 36.9003C22.7248 35.8002 18.9952 33.848 23.0398 32.8252C23.7792 32.6382 24.6081 32.3916 25.3141 32.1105C25.6735 30.9795 26.001 29.7379 26.557 28.6872C26.7191 28.3808 26.9376 28.277 27.2434 28.1295Z" fill="#FED563"/>
<path d="M29.0091 35.3328C29.2843 35.4035 29.3255 35.48 29.4625 35.6657C29.5962 36.7584 28.1753 37.0772 27.2659 36.7654C27.0569 36.5708 26.7574 36.2418 26.786 35.9419C27.4935 35.5123 27.9016 36.3976 29.0091 35.3328Z" fill="#635142"/>
<path d="M26.1617 33.2765C26.9775 33.4339 27.1693 34.5482 26.3351 35.0793C25.7327 34.9646 25.412 34.6159 25.5452 33.957C25.63 33.5376 25.8195 33.4847 26.1617 33.2765Z" fill="#635142"/>
<path d="M29.3633 32.8395C30.3471 33.1043 30.534 33.9349 29.9518 34.692C29.6985 34.7148 29.5789 34.7458 29.347 34.6292C28.8092 34.1017 28.9162 33.3854 29.3633 32.8395Z" fill="#635142"/>
<path d="M43.4751 39.9711C43.6366 39.967 43.6802 40.0011 43.8237 40.069C43.9017 40.1937 44.0016 40.3093 43.9632 40.4607C43.7168 41.431 42.1522 43.1714 41.4322 43.7639C41.2617 43.671 40.9684 43.4901 41.0059 43.2828C41.2054 42.1815 42.7517 40.7337 43.4751 39.9711Z" fill="white"/>
<path d="M40.5304 36.4386C40.8484 36.603 40.7911 36.5192 40.9582 36.7979C40.9594 37.5951 39.1326 39.2896 38.521 40.048C38.3547 40.0114 38.3007 39.9621 38.155 39.8689C37.7136 38.9968 39.9106 37.0212 40.5304 36.4386Z" fill="white"/>
<path d="M42.8673 37.5749L43.0136 37.641C43.5901 38.5092 42.1358 39.7516 41.4816 40.2638C41.2607 40.1251 41.2204 40.0969 41.0454 39.905C40.8728 39.1858 42.318 37.9481 42.8673 37.5749Z" fill="white"/>
<path d="M40.7588 6.67228C41.052 6.66627 41.203 6.64369 41.4697 6.76647C42.0544 7.28547 42.3483 11.6765 42.4716 12.7906C42.1999 13.2164 42.016 13.462 41.5178 13.5993C40.5282 13.4441 40.5709 12.2189 40.5237 11.4353L39.2428 11.5543C39.3236 12.7973 39.926 13.8943 38.5133 14.4548C38.3438 14.4007 38.1294 14.3493 37.982 14.2501C37.7684 14.1062 37.7129 13.8997 37.6598 13.6617C37.4735 12.826 36.928 8.40288 37.3071 7.86414C37.4661 7.63825 37.7296 7.46748 38.0057 7.42215C38.1657 7.39588 38.331 7.42138 38.46 7.52458C38.9957 7.95317 38.9259 9.18065 38.972 9.81676C39.3524 9.76971 39.87 9.64419 40.2551 9.5628C40.2996 8.40864 39.6874 7.36059 40.7588 6.67228Z" fill="#FED563"/>
<path d="M19.5161 12.3708C21.5833 12.1749 22.5024 14.6432 21.0388 16.1392C21.3035 16.5072 22.4721 17.7412 22.2792 18.1878C21.433 20.1462 20.3951 18.0552 19.7549 17.2136L19.6738 17.1378C19.2756 17.2889 19.8275 19.0878 19.3367 19.4753C18.9505 19.7801 18.5439 19.807 18.1689 19.5241C17.8306 18.873 17.1705 14.0591 17.3687 13.23C17.7698 12.6808 18.8556 12.5043 19.5161 12.3708Z" fill="#FED563"/>
<path d="M19.0657 14.1173C19.5494 14.1324 19.9171 14.1392 20.0818 14.6522C20.0344 14.9816 19.9781 15.0424 19.7956 15.3168L19.4521 15.5282L19.2741 15.4698C19.0512 15.1787 19.0768 14.5012 19.0657 14.1173Z" fill="#FD8A92"/>
<path d="M23.9938 11.1638C26.1527 10.9409 26.2296 12.9981 26.9464 14.5749C27.1804 15.0894 27.5988 16.4321 27.5104 16.9611C27.2843 17.3917 26.8211 17.6388 26.3362 17.5282C25.6593 17.1245 25.8737 16.7224 25.5384 16.1459L24.475 16.4416C24.4202 17.4316 24.5401 18.5407 23.2138 18.3475C23.0677 18.3262 22.9104 18.3124 22.85 18.1507C22.3664 16.8181 22.7352 15.0146 22.8698 13.6026C22.9521 12.7393 23.2716 11.684 23.9938 11.1638Z" fill="#FED563"/>
<path d="M24.5017 13.1755C25.038 13.4083 25.2441 14.2577 24.9711 14.7624L24.6152 14.7951C24.225 14.4298 24.3142 13.6293 24.5017 13.1755Z" fill="#FD8A92"/>
<path d="M34.4499 8.4164C35.0425 8.36446 35.7377 8.44654 36.1604 8.90827C36.3419 9.1078 36.4339 9.37198 36.4152 9.64028C36.3826 10.182 36.0541 10.4129 35.6717 10.7466C35.4527 10.5992 35.0444 10.2997 34.7902 10.3026C33.399 10.3206 33.4588 12.4562 34.1698 13.1897C34.8845 13.9268 36.1139 12.1661 36.7892 12.841C36.9999 13.0517 37.0098 13.4139 37.0092 13.7051C36.7459 14.3285 35.8958 15.3459 35.2066 15.4238C31.3904 15.855 30.5174 9.27085 34.4499 8.4164Z" fill="#FED563"/>
<path d="M9.97688 15.1037C10.7674 15.0658 12.0696 15.3916 11.72 16.4885C11.45 17.3354 10.3841 16.7487 9.80345 17.0199C9.6863 17.2791 9.70662 17.1637 9.76809 17.4831C10.3836 17.8885 11.1449 17.9991 11.984 18.5265C12.9885 20.3613 12.157 21.8099 10.1637 22.2322C10.0652 22.2287 9.96677 22.2231 9.86847 22.2151C9.13013 22.1531 8.32324 21.755 8.41324 20.9051C8.55736 19.5438 9.97636 20.6911 10.6415 20.1745L10.653 19.9769C10.2196 18.8458 6.42241 19.6485 8.57491 15.7119C9.09244 15.4529 9.42244 15.2783 9.97688 15.1037Z" fill="#FED563"/>
<path d="M14.9037 13.6605C16.158 13.5863 17.65 14.7442 15.9309 15.8851C15.7541 15.8262 15.4348 15.7102 15.2658 15.6781C13.5389 15.3646 13.9043 18.1594 14.936 18.6682C15.3841 18.8892 16.0721 18.0775 16.4749 17.7742C17.1592 18.2065 17.3944 18.3028 17.2775 19.1339C16.0248 21.8926 12.793 20.6047 12.4742 17.8588C12.2502 15.9294 12.575 14.0203 14.9037 13.6605Z" fill="#FED563"/>
<path d="M30.6849 9.44882C31.3441 9.34451 31.9261 10.132 31.4634 10.7781C31.009 11.4127 30.6883 11.4087 29.9921 11.5923C30.223 12.8522 30.4446 14.1378 30.5393 15.4147C30.5949 16.165 30.2258 16.895 29.366 16.816C28.9613 16.5811 28.8962 16.2951 28.7819 15.8669C28.6382 15.2687 28.3307 12.5442 28.284 11.893C27.7542 12.0558 27.359 12.2715 26.8188 11.976C26.4154 11.8194 26.1489 11.2012 26.4694 10.8422C27.2059 10.017 29.6205 9.68922 30.6849 9.44882Z" fill="#FED563"/>
<path d="M44.4292 5.31621C45.5489 5.51583 45.5508 6.7434 45.4828 7.65158C45.4006 8.74685 45.58 9.88462 44.425 10.3306C44.3565 10.3098 44.2885 10.287 44.2214 10.2622C43.1356 9.86118 43.2077 6.92095 43.5109 5.99319C43.6417 5.59327 44.0785 5.45204 44.4292 5.31621Z" fill="#FED563"/>
<path d="M6.93352 10.2203C8.11399 11.0222 6.64043 11.8863 9.89922 12.5225C7.2445 13.8009 8.52119 14.7249 7.69658 15.4011C7.37634 14.9877 7.19799 14.2694 6.84317 13.892C6.46657 13.4913 5.4252 13.5787 5.08145 13.1872C5.2446 12.8892 5.76204 12.7923 6.0885 12.5395C6.79294 11.994 6.83426 11.0294 6.93352 10.2203Z" fill="#FED563"/>
<path d="M45.6047 14.3543C46.0014 14.5207 45.9795 14.9585 46.2049 15.3479C46.6739 16.1581 47.3336 16.2706 48.1549 16.5125C48.0301 16.5817 47.9056 16.6515 47.7815 16.722C46.4494 17.4808 46.6556 17.7706 46.2772 19.1512C45.2291 18.4755 46.6276 17.6363 43.7282 17.156C45.2218 16.1605 45.3254 16.1596 45.6047 14.3543Z" fill="#FED563"/>
<path d="M44.2716 10.8751C45.6846 10.811 45.8151 12.4416 44.8273 12.8604C44.3089 12.8934 43.7937 12.9732 43.5191 12.4376C43.1444 11.7064 43.7373 11.1928 44.2716 10.8751Z" fill="#FED563"/>
</svg>
