<svg width="66" height="62" viewBox="0 0 66 62" fill="none" xmlns="http://www.w3.org/2000/svg">
<path d="M46.4199 12.299C46.9539 12.3023 47.5441 12.5154 47.9033 12.9113C48.7229 13.8142 48.4869 15.7169 48.4775 16.8859C49.5999 16.8514 50.7823 16.8467 51.9062 16.8605C52.8956 16.8727 54.2717 16.7697 55.208 16.9924C55.8155 17.1363 56.3758 17.4341 56.8339 17.8566C58.5173 19.4303 57.9944 21.9609 57.4179 23.9113C55.981 28.7747 52.9366 32.2659 47.9863 33.6203C46.6286 37.8351 44.2815 40.8579 40.3154 43.0266C39.2768 43.6569 37.4692 43.8397 37.0595 45.1623C36.8413 45.8667 36.8872 47.1535 37.2538 47.7853C38.5375 49.9934 41.7589 47.9257 41.6992 51.5686L24.6044 51.5705C24.5974 50.8852 24.6544 50.266 25.1542 49.7385C26.507 48.3096 29.3297 49.8967 29.3037 46.1066C29.2989 45.4205 29.1911 44.8244 28.6669 44.3322C27.9654 43.6725 26.7606 43.4431 25.9101 42.9777C22.0071 40.8429 19.7129 37.7665 18.2871 33.6271C14.8074 32.7686 12.265 30.6834 10.3828 27.6477C9.17956 25.7069 7.74466 21.8313 8.32318 19.59C8.55399 18.6588 9.15653 17.8617 9.99115 17.384C10.3907 17.1532 10.8296 16.998 11.2861 16.9279C11.6603 16.8671 12.0236 16.8555 12.4023 16.8596C14.1534 16.8783 15.9205 16.8323 17.6708 16.8811C17.6726 14.8393 17.1869 12.256 20.079 12.2941C20.8232 12.304 21.5956 12.2899 22.3437 12.2902L40.1904 12.2893C42.2665 12.2893 44.3442 12.2865 46.4199 12.299ZM53.249 21.2512C52.6677 20.8195 49.368 21.0052 48.4775 21.0012C48.4765 23.5966 48.5008 26.2388 48.4706 28.8303C49.7491 28.2714 50.5887 27.7207 51.5009 26.634C52.2486 25.6573 53.7198 23.0856 53.5742 21.8478C53.5458 21.6092 53.445 21.3966 53.249 21.2512ZM17.6777 21.0051C16.6216 21.0027 14.2843 20.9345 13.3115 21.0363C12.8995 21.2899 12.8455 21.352 12.6425 21.7902C12.886 23.8559 14.2288 26.4316 15.8779 27.7434C16.3151 28.0902 16.7904 28.3867 17.2949 28.6262C17.46 28.6929 17.4999 28.7431 17.6435 28.7141C17.7001 28.3165 17.6721 27.8849 17.6767 27.4816C17.7012 25.3287 17.6371 23.1567 17.6777 21.0051Z" fill="#F9C74A"/>
<path d="M41.6993 51.5701C42.8203 51.5691 43.9357 51.5038 44.8621 52.2394C45.2327 52.5344 45.5202 52.9205 45.6946 53.3601C45.8582 53.7688 45.9106 54.2662 45.9714 54.7035C46.1722 56.037 46.3051 57.3442 46.4852 58.6824C46.7134 60.3772 45.9365 61.8948 44.0555 61.9643C42.4866 62.0216 40.8941 61.9916 39.3157 61.9892L24.8808 61.9897C23.8676 61.9897 22.7808 62.0042 21.7697 61.9446C21.3398 61.9192 20.7251 61.5646 20.4051 61.2936C19.9152 60.8703 19.5776 60.0376 19.6209 59.3945C19.7268 57.8872 19.976 56.386 20.1457 54.8834C20.2503 53.9576 20.4378 53.1065 21.1207 52.4174C22.0933 51.4353 23.3422 51.5743 24.6048 51.5719L41.6993 51.5701Z" fill="#51433D"/>
<path d="M6.0723 32.973C6.22311 32.9625 6.38844 32.9574 6.53755 32.9879C7.67662 33.2224 7.85831 36.0952 8.62226 36.9637C9.39178 37.8378 11.9239 37.8665 12.5285 38.8454C12.6645 39.0661 12.6982 39.3489 12.6303 39.5974C12.3064 40.7811 9.53599 40.8623 8.68958 41.6777C7.71778 42.6129 7.91729 45.0301 6.58738 45.7633C4.85978 45.9103 4.92197 42.689 4.05609 41.7543C3.33358 40.9741 0.680798 40.7411 0.133987 39.8369C-0.00159626 39.6077 -0.0361051 39.3329 0.038805 39.0769C0.357916 37.998 3.2582 37.7185 3.94021 37.0591C4.87779 36.153 4.84838 33.6681 6.0723 32.973Z" fill="#F5798F"/>
<path d="M60.1287 38.7031C61.7528 38.705 61.435 41.2353 62.4481 42.2663C63.2887 43.1226 66.5241 43.0883 65.9273 44.7972C65.5888 45.7671 63.0539 45.8991 62.4203 46.6093C61.6443 47.4783 61.6792 49.8808 60.396 50.2416C59.0232 50.158 59.0166 48.2758 58.5268 47.2829C58.4278 47.0814 58.2939 46.6967 58.0935 46.5637C57.2789 46.024 56.2215 45.8507 55.3404 45.4205C54.7789 45.1523 54.3221 44.6609 54.6676 44.0315C55.3144 42.9582 57.409 43.0977 58.2048 42.2039C58.9265 41.3927 58.9214 39.0343 60.1287 38.7031Z" fill="#F5F2E8"/>
<path d="M32.8257 0.0152289C34.8848 -0.227659 34.4063 2.49685 34.4332 3.76113C34.4606 5.01925 34.651 6.16191 33.2905 6.65393C31.4552 6.73012 31.6468 4.70083 31.696 3.42876C31.7511 2.00018 31.2944 0.649573 32.8257 0.0152289Z" fill="#F9C74A"/>
<path d="M42.0355 2.95312C42.9807 2.9589 43.2914 3.47427 43.5356 4.28983C43.3216 5.34856 42.0671 6.92632 41.5433 7.92628C41.2473 8.4921 40.872 8.87195 40.246 9.05227C39.0881 9.05129 38.3838 8.06832 38.9599 7.01908C39.379 6.28859 39.7986 5.53306 40.2667 4.83103C40.8621 3.93731 40.9625 3.31288 42.0355 2.95312Z" fill="#F9C74A"/>
<path d="M23.8213 2.95745C24.133 2.94961 24.7137 3.05022 24.9046 3.32294C25.802 4.60497 26.6537 6.0164 27.36 7.41144C27.4506 7.59064 27.3747 8.11554 27.2646 8.29098C27.0035 8.75275 26.7189 8.90625 26.2391 9.05036C25.1163 9.00475 24.8931 8.37759 24.3566 7.50167C23.841 6.65981 23.2866 5.79127 22.8416 4.91267C22.363 3.96766 22.9131 3.2848 23.8213 2.95745Z" fill="#F9C74A"/>
<path d="M32.9937 19.5236C35.0836 19.5007 35.0506 22.6695 36.265 23.6402C37.5511 24.5225 40.3801 23.752 41.1029 25.3887C41.8171 27.0051 38.8984 28.3459 38.353 29.5472C37.8769 30.595 39.1577 33.0052 38.6142 34.1531C38.3002 34.8171 37.487 35.1295 36.7822 34.9262C35.6597 34.5163 34.5868 33.8551 33.4846 33.3367C31.8785 33.1871 26.6709 38.0614 27.8931 31.7154C28.0145 31.0849 28.137 30.3922 28.1908 29.7543C27.6337 28.7298 25.5284 27.2997 25.2649 26.3796C24.6601 23.7904 28.3984 24.4268 29.6704 23.8796C31.3218 23.1693 31.038 20.131 32.9937 19.5236Z" fill="#F5F2E8"/>
</svg>
