<svg width="62" height="52" viewBox="0 0 62 52" fill="none" xmlns="http://www.w3.org/2000/svg">
<path d="M22.8316 11.7621C22.8267 10.7644 22.8378 9.89651 23.5963 9.12079C25.0226 7.6618 28.0857 7.52208 30.0024 7.50087C32.3928 7.47456 35.4076 8.04035 37.1637 9.77936C37.9056 10.514 38.2654 11.2242 38.4055 12.2486L38.7259 12.5363C40.1253 8.55319 46.8849 10.427 49.7804 11.3526C52.4407 12.2028 54.9322 14.6268 53.7797 17.6179C53.7377 17.7276 53.6923 17.8359 53.6435 17.9427C54.1008 18.2733 54.3092 18.428 54.8141 18.6681C55.863 18.8324 56.3675 18.9993 57.2461 19.6797C60.955 22.5521 64.6397 35.7303 59.3844 38.3424C58.9223 39.4041 58.4638 40.6881 57.6573 41.495C58.328 46.9538 49.7568 49.7927 45.5616 50.4021C44.1432 50.608 42.3922 50.3221 41.1085 49.6759C40.2141 50.0823 39.0858 50.0178 38.0963 50.0303C36.5069 51.8351 33.0729 51.865 30.8498 51.7992C28.7799 51.7377 25.4915 51.4412 24.7312 49.1312C24.5942 49.0986 24.3892 48.9983 24.252 48.9376C24.2207 49.0262 24.1882 49.1145 24.1549 49.2025C22.6631 53.1297 18.1207 52.1442 15.0501 50.9053C11.4721 49.4616 6.73871 46.8761 6.77354 42.427C6.77978 41.6193 7.07182 40.9648 7.36897 40.2282C6.84922 40.6137 6.03674 41.2945 5.40353 41.3525C2.24282 41.6425 1.6188 35.7537 1.11561 33.6003C0.327986 30.2287 0.680386 22.9174 5.2296 22.4068L5.21917 20.997C5.9133 19.6649 6.47628 19.3595 7.82654 18.7446C8.31612 19.5413 8.64186 20.9966 9.71744 21.3279C10.6884 21.2276 11.9724 19.1994 12.4713 19.0676C16.3789 18.0347 16.0267 17.5426 16.9662 13.5168C17.2607 13.4548 17.538 13.3446 17.819 13.2392C19.4579 12.6253 21.1395 12.2052 22.8316 11.7621Z" fill="#54B6C7"/>
<path d="M7.36897 40.2282C6.84922 40.6137 6.03674 41.2945 5.40353 41.3525C2.24282 41.6425 1.6188 35.7537 1.11561 33.6003C0.327986 30.2287 0.680386 22.9174 5.2296 22.4068C5.93508 22.7195 6.97039 23.2902 7.18517 24.0572C7.76301 26.1213 7.13649 28.5941 7.33595 30.8159C7.61733 33.9515 10.1154 35.0045 8.7282 37.9889C8.5225 38.4235 8.31067 38.855 8.09272 39.2836C11.7571 37.0417 12.1729 40.0395 14.8224 41.789C17.8904 43.8147 25.164 43.3551 24.252 48.9376C24.2207 49.0262 24.1882 49.1145 24.1549 49.2025C22.6631 53.1297 18.1207 52.1442 15.0501 50.9053C11.4721 49.4616 6.73871 46.8761 6.77354 42.427C6.77978 41.6193 7.07182 40.9648 7.36897 40.2282Z" fill="#F1EEE3"/>
<path d="M39.5205 46.8971C40.6795 43.0333 42.707 44.3943 45.5535 42.7367C47.2616 41.7422 48.5025 40.0007 50.3394 38.9917C53.5872 37.2079 56.0289 38.4661 57.6573 41.495C58.328 46.9538 49.7568 49.7927 45.5616 50.4021C44.1432 50.608 42.3922 50.3221 41.1085 49.6759C39.9934 48.6116 39.9239 48.3591 39.5205 46.8971Z" fill="#F1EEE3"/>
<path d="M54.8141 18.6681C55.863 18.8324 56.3675 18.9993 57.2461 19.6797C60.955 22.5521 64.6397 35.7303 59.3844 38.3424C58.564 38.5252 57.8248 38.5386 57.0246 38.2401C56.1837 37.9221 55.5093 37.2743 55.158 36.447C54.4887 34.8834 55.211 32.0251 55.1607 30.2803C55.1478 29.1528 54.9317 28.0444 54.6103 26.9651C53.8431 24.3882 51.079 20.1962 54.8141 18.6681Z" fill="#F1EEE3"/>
<path d="M22.8316 11.7621C22.8267 10.7644 22.8378 9.89651 23.5963 9.12079C25.0226 7.6618 28.0857 7.52208 30.0024 7.50087C32.3928 7.47456 35.4076 8.04035 37.1637 9.77936C37.9056 10.514 38.2654 11.2242 38.4055 12.2486C37.6046 13.8783 36.7547 14.4206 34.9388 14.437C32.1928 14.4299 29.3898 14.5779 26.6522 14.361C24.6747 14.2043 23.4821 13.7517 22.8316 11.7621Z" fill="#F1EEE3"/>
<path d="M38.7266 12.5352C40.126 8.55207 46.8856 10.4259 49.781 11.3514C52.4413 12.2017 54.9328 14.6256 53.7803 17.6168C53.7383 17.7265 53.6929 17.8348 53.6441 17.9416C53.1505 18.4679 52.7688 18.7957 52.0445 18.9635L51.9669 18.9811C50.7454 19.2678 47.9998 17.4129 46.744 16.9648C45.0823 16.3719 43.3789 15.8894 41.7305 15.2625C40.0131 14.6094 39.4535 14.2599 38.7266 12.5352Z" fill="#F1EEE3"/>
<path d="M24.7316 49.1296C24.6765 48.3625 24.5182 47.2656 25.1308 46.6748C26.5066 45.3478 29.0013 45.1096 30.8057 45.0361C34.3356 44.8925 39.9379 44.6778 38.0967 50.0287C36.5073 51.8335 33.0733 51.8634 30.8502 51.7975C28.7803 51.7361 25.4919 51.4396 24.7316 49.1296Z" fill="#F1EEE3"/>
<path d="M27.2167 16.9782C30.4819 16.8687 36.8081 16.7281 39.7004 17.9974C40.6022 18.3932 42.6852 20.1034 43.752 20.6981C45.2124 21.5125 47.0201 22.0378 48.2988 22.9786C50.0326 24.2542 51.2739 26.8493 51.5284 28.9657C51.9262 32.2733 51.4996 35.2524 49.4726 37.9386C44.8308 44.0896 38.6399 41.3734 32.713 42.2011C30.2201 42.5942 28.6626 43.8545 26.5126 43.978C23.6589 44.142 17.5515 42.4494 15.3542 40.5927C12.4471 38.3492 14.0166 35.1552 13.0068 32.4234C12.0303 30.2732 9.43807 28.7582 10.1069 26.0546C10.7852 23.3132 13.4779 22.849 15.578 21.6299C16.4915 21.0996 17.6425 20.0214 18.4634 19.2484C20.8583 16.9933 24.0634 17.0838 27.2167 16.9782Z" fill="#8CD1DA"/>
<path d="M34.0919 25.1807C36.2093 22.0804 40.9395 24.6578 41.4841 27.4517C42.0699 27.8972 42.6386 28.3646 43.1889 28.8533C44.2948 27.6514 47.0682 24.901 48.4862 27.0905C49.6568 28.5874 48.6711 30.3227 48.4849 31.9004C48.3398 33.1294 49.4847 35.3739 47.3416 35.7297C45.7929 35.6119 44.8537 34.8525 43.8761 33.7172C43.7819 33.6098 43.6917 33.4988 43.6057 33.3848C42.4812 34.4922 40.8703 35.4389 40.2299 36.0855C40.7506 39.1823 37.8028 37.7201 36.2059 37.5602C36.1229 37.5813 35.9769 37.6168 35.8925 37.6251C32.4519 37.949 28.5301 37.5725 25.6848 35.4322C23.3467 33.6735 23.7483 30.5694 25.5169 28.5427C27.8813 25.8329 30.6986 25.4445 34.0919 25.1807Z" fill="#53443D"/>
<path d="M36.2062 37.5621C35.5653 37.1942 34.611 37.0889 34.731 36.182C35.3542 35.2312 37.5194 34.3008 38.6407 34.4741C39.2954 34.5754 39.8915 35.5646 40.2302 36.0873C40.7509 39.1842 37.8031 37.722 36.2062 37.5621Z" fill="#FDC955"/>
<path d="M48.4862 27.0905C49.6568 28.5874 48.6711 30.3227 48.4849 31.9004C48.3398 33.1294 49.4847 35.3739 47.3416 35.7297C47.4725 35.3936 47.7095 34.9185 47.8658 34.5784C47.703 32.7072 47.128 32.4411 46.4659 30.8287C47.36 29.2055 47.7291 29.1203 48.4862 27.0905Z" fill="#FDC955"/>
<path d="M34.0919 25.1807C36.2093 22.0804 40.9395 24.6578 41.4841 27.4517C38.197 25.9989 38.0293 25.476 34.0919 25.1807Z" fill="#FDC955"/>
<path d="M28.2347 29.4762C28.9524 29.2291 29.748 29.3942 30.3081 29.9063C30.8683 30.4185 31.1035 31.1957 30.9211 31.9324C30.7388 32.6689 30.1682 33.247 29.4338 33.439C28.7951 33.606 28.1149 33.4588 27.6024 33.0426C27.09 32.6264 26.8066 31.9911 26.8395 31.3319C26.8815 30.4865 27.434 29.7517 28.2347 29.4762Z" fill="#FDC955"/>
<path d="M28.7981 30.5118C29.136 30.4803 29.4638 30.6368 29.6516 30.9193C29.8394 31.2017 29.8569 31.5645 29.6969 31.8636C29.5371 32.1627 29.2256 32.3499 28.8864 32.3507C28.3934 32.3521 27.9866 31.9656 27.963 31.4735C27.9394 30.9813 28.3073 30.5577 28.7981 30.5118Z" fill="#53443D"/>
<path d="M21.0317 21.0987C21.8667 20.9164 22.6931 21.4399 22.8847 22.2725C23.0763 23.1053 22.5616 23.9369 21.7308 24.1375C21.1851 24.2693 20.6107 24.0978 20.2267 23.6885C19.8427 23.2792 19.7084 22.6953 19.875 22.1594C20.0415 21.6236 20.4832 21.2185 21.0317 21.0987Z" fill="#F1EEE3"/>
<path d="M19.5924 27.4098C19.9341 27.2195 20.3533 27.2353 20.6799 27.4505C21.0064 27.6658 21.186 28.0448 21.1457 28.4337C21.1053 28.8225 20.8519 29.1567 20.4881 29.3004C19.9744 29.5034 19.3912 29.2732 19.1548 28.7742C18.9184 28.2752 19.1097 27.6785 19.5924 27.4098Z" fill="#F1EEE3"/>
<path d="M10.0062 14.0365C9.46153 11.0145 8.06589 7.87447 7.57314 4.80383C7.36244 3.51755 7.28279 1.99176 8.08676 0.888863C8.71271 0.0301355 10.2932 -0.369062 11.1002 0.439992C13.7139 3.0604 13.5633 7.64221 13.9763 11.0429C14.3616 9.5004 15.959 2.83132 18.6894 5.40172C19.6368 6.29356 17.3233 12.2274 16.9662 13.5168C16.0267 17.5426 16.3789 18.0347 12.4713 19.0676C11.9724 19.1994 10.6884 21.2276 9.71744 21.3279C8.64186 20.9966 8.31612 19.5413 7.82654 18.7446C6.78228 16.6658 4.92956 14.2824 2.9563 12.819C0.988821 11.36 -2.49457 6.88782 2.79961 7.49308C5.71753 7.82673 8.4277 11.6397 10.0062 14.0365Z" fill="#4EA474"/>
</svg>
