<svg width="56" height="52" viewBox="0 0 56 52" fill="none" xmlns="http://www.w3.org/2000/svg">
<path d="M5.74893 4.29417C6.02399 1.41157 5.3251 0.0379976 8.79009 0.0296794C11.7509 0.0225496 14.7495 0.00603402 17.7148 0.00793532L43.4461 0.00722091C45.2134 0.00769624 47.0811 -0.0472024 48.8366 0.138531C49.2418 0.181429 49.5317 0.390094 49.7635 0.725792C50.3807 1.6194 50.1752 3.19748 50.2177 4.29001C51.9689 7.35181 54.4648 10.9702 55.7605 14.2353C56.5821 16.3057 55.1816 19.011 53.1947 20.1402C52.7912 20.3744 52.3645 20.5658 51.9218 20.7113C51.9018 21.311 51.9574 22.7473 51.8716 23.2407C51.9077 26.3544 52.2293 46.8794 51.5084 48.2429C51.1817 48.4178 50.9548 48.4174 50.5934 48.4554C51.5808 48.4333 53.515 48.2812 54.3151 48.8313C54.6596 49.0678 54.8905 49.4387 54.9521 49.8545C55.0272 50.3457 54.9014 50.8467 54.6036 51.2428C53.8921 52.2079 52.629 51.978 51.596 51.9711C50.3248 51.9625 49.0545 51.9556 47.7833 51.9554L13.2599 51.955C10.0099 51.9535 6.74478 52.0067 3.49513 51.9625C0.0273099 51.9155 0.571533 48.3403 3.54932 48.417C4.46354 48.4405 5.38423 48.4513 6.30022 48.4448C5.81396 48.4255 5.64044 48.4209 5.17373 48.2984C4.32677 47.2637 4.57886 39.6007 4.57909 37.8834L4.58628 23.035L4.57085 20.7823C2.66054 20.5998 0.882632 18.9574 0.284696 17.1639C-0.389926 15.1407 0.225681 13.7681 1.17748 12.0527C2.60871 9.47271 4.46565 6.93281 5.74893 4.29417Z" fill="#F5F2E9"/>
<path d="M5.74893 4.29417C6.02399 1.41157 5.3251 0.0379976 8.79009 0.0296794C11.7509 0.0225496 14.7495 0.00603402 17.7148 0.00793532L43.4461 0.00722091C45.2134 0.00769624 47.0811 -0.0472024 48.8366 0.138531C49.2418 0.181429 49.5317 0.390094 49.7635 0.725792C50.3807 1.6194 50.1752 3.19748 50.2177 4.29001C51.9689 7.35181 54.4648 10.9702 55.7605 14.2353C56.5821 16.3057 55.1816 19.011 53.1947 20.1402C52.7912 20.3744 52.3645 20.5658 51.9218 20.7113C49.2554 21.1457 47.6762 19.7953 46.5885 17.4774C46.0263 18.7611 44.8431 19.9466 43.5333 20.4472C42.2706 20.9303 40.8668 20.8706 39.6488 20.2822C37.5825 19.3008 37.8627 17.9587 36.95 17.475C35.1646 21.8443 30.2113 21.9567 28.2144 17.5596C27.6843 18.1583 27.3066 18.763 26.7404 19.3242C24.7611 21.2857 22.1565 21.3204 20.1179 19.4192C19.6229 18.9576 19.1189 18.2101 18.6471 17.8209C17.9233 19.0031 17.4123 19.8645 16.0802 20.4327C15.0254 20.8902 13.8325 20.8995 12.7709 20.4583C11.461 19.9234 10.631 19.0101 10.0886 17.7197C8.84993 18.564 8.40053 20.1754 6.52533 20.5775C5.92186 20.7069 4.95534 20.6568 4.57085 20.7823C2.66054 20.5998 0.882632 18.9574 0.284696 17.1639C-0.389926 15.1407 0.225681 13.7681 1.17748 12.0527C2.60871 9.47271 4.46565 6.93281 5.74893 4.29417Z" fill="#F5F0E9"/>
<path d="M50.2177 4.29001C51.9689 7.35181 54.4648 10.9702 55.7605 14.2353C56.5821 16.3057 55.1816 19.011 53.1947 20.1402C52.7912 20.3744 52.3645 20.5658 51.9218 20.7113C49.2554 21.1457 47.6762 19.7953 46.5885 17.4774C46.0263 18.7611 44.8431 19.9466 43.5333 20.4472C42.2706 20.9303 40.8668 20.8706 39.6488 20.2822C37.5825 19.3008 37.8627 17.9587 36.95 17.475C35.1646 21.8443 30.2113 21.9567 28.2144 17.5596C27.957 16.3261 28.0321 13.6475 28.0344 12.3122L28.0315 4.27782C30.5313 4.2821 33.0311 4.27152 35.5307 4.24609C36.5988 4.26368 42.3079 4.20308 42.8886 4.32512C45.1719 4.20866 47.8986 4.2754 50.2177 4.29001Z" fill="#F5F2E9"/>
<path d="M50.2177 4.29001C51.9689 7.35181 54.4648 10.9702 55.7605 14.2353C56.5821 16.3057 55.1816 19.011 53.1947 20.1402C52.7912 20.3744 52.3645 20.5658 51.9218 20.7113C49.2554 21.1457 47.6762 19.7953 46.5885 17.4774C46.474 14.7064 43.875 7.39215 42.8886 4.32512C45.1719 4.20866 47.8986 4.2754 50.2177 4.29001Z" fill="#F96A67"/>
<path d="M28.0315 4.27782C30.5313 4.2821 33.0311 4.27152 35.5307 4.24609C35.9016 7.07011 37.5984 15.2788 36.95 17.475C35.1646 21.8443 30.2113 21.9567 28.2144 17.5596C27.957 16.3261 28.0321 13.6475 28.0344 12.3122L28.0315 4.27782Z" fill="#F96A67"/>
<path d="M5.74893 4.29417C6.02399 1.41157 5.3251 0.0379976 8.79009 0.0296794C11.7509 0.0225496 14.7495 0.00603402 17.7148 0.00793532L43.4461 0.00722091C45.2134 0.00769624 47.0811 -0.0472024 48.8366 0.138531C49.2418 0.181429 49.5317 0.390094 49.7635 0.725792C50.3807 1.6194 50.1752 3.19748 50.2177 4.29001C47.8986 4.2754 45.1719 4.20866 42.8886 4.32512C42.3079 4.20308 36.5988 4.26368 35.5307 4.24609C33.0311 4.27152 30.5313 4.2821 28.0315 4.27782C25.6446 4.20937 23.0042 4.26601 20.5986 4.28288C18.5665 4.16904 15.2666 4.27314 13.1569 4.28039C10.8614 4.19994 8.04691 4.26589 5.74893 4.29417Z" fill="#F96A67"/>
<path d="M20.5989 4.28451C23.0044 4.26764 25.6451 4.21048 28.032 4.27892L28.0348 12.3133C28.0326 13.6486 27.9574 16.3277 28.2148 17.5613C27.6847 18.1599 27.3069 18.7647 26.7408 19.3258C24.7615 21.2873 22.1569 21.322 20.1183 19.4209C19.6233 18.9592 19.1192 18.2117 18.6475 17.8226C18.8117 17.2257 18.9743 15.0834 19.0971 14.2613C19.6142 10.9383 20.1149 7.61261 20.5989 4.28451Z" fill="#F5F2E9"/>
<path d="M13.1569 4.28039C15.2666 4.27314 18.5665 4.16904 20.5986 4.28288C20.1146 7.61099 19.6143 10.9372 19.0971 14.2602C18.9744 15.0823 18.8113 17.2241 18.6471 17.8209C17.9233 19.0031 17.4123 19.8645 16.0802 20.4327C15.0254 20.8902 13.8325 20.8995 12.7709 20.4583C11.461 19.9234 10.631 19.0101 10.0886 17.7197C9.60206 15.7983 10.7278 12.9015 11.2502 10.9707C11.843 8.78009 12.4671 6.43871 13.1569 4.28039Z" fill="#F96A67"/>
<path d="M34.4043 48.4362C34.4124 48.421 34.4213 48.4061 34.4287 48.3907C34.7054 47.8178 34.5481 46.3558 34.5454 45.6915C34.5329 42.6219 34.0568 33.8107 35.13 31.5057C35.6945 30.2934 37.0989 29.1509 38.3061 28.6948C39.7182 28.1772 41.2755 28.2405 42.6418 28.871C46.7559 30.7709 45.8343 34.3218 45.9461 37.8942C46.0537 41.331 45.7539 45.0572 45.9481 48.4494C42.2448 48.541 38.1373 48.447 34.4043 48.4362Z" fill="#5EB897"/>
<path d="M36.8815 38.5449C37.4929 38.4495 38.068 38.8637 38.1772 39.4781C38.2864 40.0924 37.8897 40.6824 37.2835 40.8072C36.8783 40.8908 36.46 40.7461 36.1906 40.4293C35.9213 40.1126 35.8433 39.6736 35.9868 39.2821C36.1303 38.8908 36.4727 38.6086 36.8815 38.5449Z" fill="#50423C"/>
<path d="M50.5931 48.4537C51.5805 48.4316 53.5147 48.2795 54.3148 48.8296C54.6593 49.0661 54.8902 49.437 54.9518 49.8528C55.0268 50.344 54.901 50.845 54.6033 51.2411C53.8918 52.2062 52.6286 51.9763 51.5957 51.9694C50.3245 51.9608 49.0542 51.9539 47.7829 51.9537L13.2596 51.9534C10.0096 51.9518 6.74446 52.0051 3.4948 51.9608C0.0269868 51.9138 0.57121 48.3386 3.54899 48.4153C4.46321 48.4388 5.38391 48.4496 6.2999 48.4431L34.4041 48.4339C38.137 48.4447 42.2446 48.5387 45.9479 48.4471C47.3037 48.4477 49.2917 48.3824 50.5931 48.4537Z" fill="#50423C"/>
<path d="M46.5889 17.4789C47.6766 19.7969 49.2558 21.1473 51.9223 20.7128C51.9022 21.3125 51.9578 22.7489 51.8721 23.2422L51.75 23.0432C48.8601 23.1608 48.4142 23.5503 46.3125 21.2043C46.1911 21.3581 46.0619 21.5054 45.9254 21.6458C43.3688 24.319 39.4001 23.8095 36.8971 21.3652C34.2356 24.4528 30.4052 23.8914 27.838 21.02C25.7544 24.3659 21.2996 24.073 18.9135 21.1047C16.3936 23.866 11.9404 24.5556 9.87508 20.986C8.26174 23.1599 7.0727 23.2986 4.58672 23.0366L4.57129 20.7839C4.95578 20.6584 5.9223 20.7084 6.52577 20.579C8.40098 20.1769 8.85037 18.5655 10.089 17.7212C10.6315 19.0116 11.4615 19.925 12.7714 20.4598C13.8329 20.901 15.0259 20.8918 16.0806 20.4343C17.4128 19.866 17.9237 19.0047 18.6475 17.8226C19.1192 18.2117 19.6233 18.9592 20.1183 19.4209C22.1569 21.322 24.7615 21.2873 26.7408 19.3258C27.3069 18.7647 27.6847 18.1599 28.2148 17.5613C30.2117 21.9584 35.1651 21.8459 36.9504 17.4766C37.8631 17.9602 37.583 19.3023 39.6493 20.2837C40.8673 20.8722 42.2711 20.9318 43.5337 20.4488C44.8435 19.9481 46.0268 18.7627 46.5889 17.4789Z" fill="#F0E7D2"/>
<path d="M9.72055 40.5459C9.89807 36.3033 9.61076 32.0027 9.80524 27.7624C9.85366 26.7077 10.5273 25.5073 11.6583 25.4628C17.05 25.2512 22.538 25.3163 27.9347 25.3989C29.3315 25.4203 30.2657 26.3727 30.2612 27.739C30.4573 31.9639 30.1333 36.2942 30.379 40.5073C30.8581 41.1762 31.2328 43.5279 30.4314 43.498C28.337 43.4199 10.4516 43.975 9.53419 43.4462C9.06018 42.8906 9.18964 41.9734 9.20307 41.2312C9.33406 41.0293 9.56753 40.7452 9.72055 40.5459Z" fill="#50423C"/>
<path d="M15.9542 31.5508C17.1787 31.6548 18.7528 31.5904 20.006 31.573C21.435 31.6053 22.8646 31.6082 24.2937 31.5814C24.6871 31.6826 24.9866 31.7097 25.2176 32.0392C25.558 32.9506 25.6042 38.6894 25.1542 39.8404C25.0822 40.0244 24.7864 40.4069 24.6481 40.5689C26.1112 40.569 29.0494 40.644 30.379 40.5073C30.8581 41.1762 31.2328 43.5279 30.4314 43.498C28.337 43.4199 10.4516 43.975 9.53419 43.4462C9.06018 42.8906 9.18964 41.9734 9.20307 41.2312C9.33406 41.0293 9.56753 40.7452 9.72055 40.5459C10.4099 40.6942 14.5108 40.5849 15.3701 40.5484L15.4184 40.4456C15.3546 40.3676 14.8835 39.7865 14.8722 39.7163C14.5686 37.8276 14.7238 35.7881 14.7035 33.8647C14.6891 32.4935 14.5778 31.9413 15.9542 31.5508Z" fill="#F8C24C"/>
<path d="M17.795 33.4648C18.9287 33.9468 17.9112 35.8797 19.8072 36.1074C22.4501 36.4247 20.8289 33.9384 22.3056 33.5165C22.8675 33.797 22.8615 34.2674 22.8477 34.8207C22.4812 36.1787 21.6863 37.2089 20.1802 37.2171C19.3756 37.2225 18.6043 36.8937 18.0474 36.308C17.2495 35.4856 16.8606 34.3249 17.795 33.4648Z" fill="#50423C"/>
<path d="M19.9756 31.1187C20.1836 30.2921 20.4324 29.5563 21.2043 29.0985C21.6454 28.832 22.1772 28.7647 22.6697 28.9134C23.843 29.2593 24.2684 30.4607 24.2937 31.5814C22.8646 31.6082 21.435 31.6053 20.006 31.573L19.9756 31.1187Z" fill="#F2879D"/>
<path d="M15.9542 31.5508C16.1399 30.1656 17.2068 29.053 18.6545 29.6127C19.466 29.9265 19.6254 30.3745 19.9756 31.1187L20.006 31.573C18.7528 31.5904 17.1787 31.6548 15.9542 31.5508Z" fill="#5EB897"/>
</svg>
