<svg width="46" height="26" viewBox="0 0 46 26" fill="none" xmlns="http://www.w3.org/2000/svg">
<path d="M18.4666 2.56997C22.364 -3.07613 31.0709 1.61763 32.0734 6.70587C33.1516 7.51715 34.1986 8.3685 35.2114 9.25847C37.247 7.06959 42.3522 2.06065 44.9623 6.04805C47.117 8.77414 45.3025 11.9346 44.9598 14.8077C44.6927 17.0459 46.8001 21.1337 42.8553 21.7816C40.0046 21.567 38.2758 20.1841 36.4764 18.1164C36.3031 17.9208 36.137 17.7188 35.9787 17.5111C33.9089 19.5279 30.9435 21.2521 29.7648 22.4295C30.7232 28.0694 25.2972 25.4066 22.3578 25.1153C22.2051 25.1538 21.9363 25.2184 21.781 25.2335C15.4478 25.8233 8.22893 25.1376 2.99156 21.2399C-1.31227 18.0369 -0.572971 12.3838 2.68247 8.69276C7.03476 3.75777 12.2205 3.05038 18.4666 2.56997Z" fill="#53443D"/>
<path d="M22.3584 25.1187C21.1786 24.4487 19.422 24.2571 19.643 22.6054C20.7902 20.8738 24.7755 19.1793 26.8395 19.4949C28.0447 19.6794 29.142 21.481 29.7654 22.4329C30.7238 28.0728 25.2978 25.4099 22.3584 25.1187Z" fill="#FDC955"/>
<path d="M44.9621 6.04689C47.1167 8.77297 45.3023 11.9334 44.9596 14.8065C44.6925 17.0448 46.7999 21.1325 42.8551 21.7805C43.0961 21.1683 43.5326 20.3043 43.8203 19.6849C43.5206 16.2771 42.4622 15.7925 41.2434 12.856C42.8893 9.89984 43.5685 9.74349 44.9621 6.04689Z" fill="#FDC955"/>
<path d="M18.4666 2.56997C22.364 -3.07613 31.0709 1.61763 32.0734 6.70587C26.0228 4.06014 25.7141 3.1078 18.4666 2.56997Z" fill="#FDC955"/>
<path d="M7.68437 10.3928C9.00552 9.94295 10.4699 10.2435 11.501 11.1762C12.532 12.1089 12.965 13.5243 12.6294 14.866C12.2937 16.2074 11.2435 17.2601 9.89164 17.6098C8.71585 17.914 7.46384 17.6459 6.52049 16.888C5.57736 16.13 5.05567 14.973 5.11623 13.7724C5.19351 12.2328 6.21057 10.8947 7.68437 10.3928Z" fill="#FDC955"/>
<path d="M8.72224 12.2789C9.34417 12.2215 9.94752 12.5065 10.2934 13.021C10.639 13.5353 10.6712 14.196 10.3767 14.7408C10.0824 15.2855 9.50916 15.6265 8.88472 15.6279C7.9773 15.6304 7.2286 14.9265 7.18516 14.0303C7.14172 13.134 7.81878 12.3626 8.72224 12.2789Z" fill="#53443D"/>
</svg>
