<svg width="90" height="90" viewBox="0 0 90 90" fill="none" xmlns="http://www.w3.org/2000/svg">
<path d="M31.3524 4.06816C33.381 4.03462 36.208 3.92483 38.1604 4.08399C43.1306 3.96149 48.4224 4.05515 53.4157 4.05261L58.4994 4.05251C61.6044 4.05457 64.0853 3.85552 66.4928 6.18162C68.276 7.90442 68.9709 9.9254 68.9937 12.3954C69.0024 15.2608 68.9809 18.1535 68.9738 21.0288L68.9854 34.9101L68.9862 43.0517C68.9864 45.6852 69.0804 47.3125 68.7397 49.9254L68.9244 50.0423C69.0451 50.6143 68.955 51.2015 68.9779 51.776C69.0662 53.9889 68.9343 55.6491 67.7504 57.5573C66.764 59.1472 64.788 60.4565 62.9735 60.803C61.5801 61.0692 59.0476 60.9757 57.5303 60.9763L48.4165 60.9786L34.5228 60.9773C31.8817 60.9763 28.2798 61.1134 25.7927 60.7253L25.7181 60.8535C23.5319 60.791 21.3013 58.939 21.1581 56.7191C20.9013 52.7371 21.1134 48.6797 21.0525 44.6844C21.0365 43.6348 21.0006 42.1033 21.165 41.0952C20.9397 40.3599 20.9921 32.5348 21.0503 31.3482C21.0536 29.286 20.9637 25.949 21.1379 24.0409C20.9373 23.1449 21.0223 21.1438 21.0518 20.1605L21.0431 12.9757C21.0612 10.356 21.4719 8.24591 23.4259 6.32319C25.8028 3.98427 28.2929 4.0358 31.3524 4.06816Z" fill="#4F433E"/>
<path d="M68.7395 49.9258L68.9243 50.0426C69.0449 50.6146 68.9549 51.2018 68.9778 51.7764C69.066 53.9893 68.9341 55.6495 67.7503 57.5577C66.7638 59.1476 64.7879 60.4568 62.9733 60.8033C61.5799 61.0695 59.0475 60.9761 57.5302 60.9767L48.4164 60.9789L34.5226 60.9776C31.8816 60.9767 28.2797 61.1137 25.7925 60.7256C23.8438 60.0312 23.0327 58.1575 24.2422 56.3769C25.7135 55.6184 30.5344 55.9231 32.4113 55.9258L52.7991 55.9243C54.6335 55.9208 56.468 55.9281 58.3024 55.9464C60.7315 55.9655 63.0421 56.1731 65.2034 54.8493C66.9917 53.749 68.2654 51.9754 68.7395 49.9258Z" fill="#F3EFE5"/>
<path d="M21.1379 24.0387C23.3681 22.583 24.2302 22.1451 27.0637 22.0352C27.3072 22.0601 27.595 22.0416 27.7498 22.1733C27.8169 26.7618 27.6524 31.307 27.7714 35.9476C27.7734 36.9571 27.7704 37.9665 27.7622 38.976C24.3113 39.2236 23.9291 39.1898 21.165 41.093C20.9397 40.3577 20.9921 32.5327 21.0503 31.346C21.0536 29.2839 20.9637 25.9468 21.1379 24.0387Z" fill="#453B38"/>
<path d="M21.0503 31.3477C21.1828 33.2157 21.1212 36.1772 21.0987 38.0859C23.3672 36.3451 24.8827 36.0916 27.7714 35.9492C27.7734 36.9587 27.7704 37.9681 27.7622 38.9777C24.3113 39.2252 23.9291 39.1915 21.165 41.0946C20.9397 40.3594 20.9921 32.5343 21.0503 31.3477Z" fill="#64995B"/>
<path d="M31.3519 4.06816C33.3805 4.03462 36.2076 3.92483 38.1599 4.08399C38.4537 5.12772 38.4301 8.44643 38.3561 9.65695C38.1979 12.2453 35.9048 10.7095 34.6956 9.99003C34.0507 10.2863 33.0554 11.059 32.4248 11.1692C30.6066 11.487 30.9788 7.93669 30.9651 6.9564C30.9523 6.0337 30.874 4.75847 31.3519 4.06816Z" fill="#FCB928"/>
<path d="M21.051 20.1583C21.0831 20.4123 21.0777 20.7504 21.2143 20.9153C21.4759 20.7542 22.932 19.8278 23.0667 19.7785C24.3186 19.3208 26.4379 18.9081 27.752 18.9222C27.7702 19.6228 27.9272 21.3697 27.6253 21.8965C27.4141 22.0156 27.2996 22.0095 27.0629 22.035C24.2294 22.145 23.3673 22.5829 21.1371 24.0386C20.9366 23.1426 21.0216 21.1416 21.051 20.1583Z" fill="#64995B"/>
<path d="M36.8062 13.8669C37.733 13.7901 39.3775 13.8333 40.3425 13.8331L46.9055 13.8336L55.1126 13.8315C56.6255 13.8296 58.1593 13.7723 59.6692 13.8463C60.1802 13.8714 60.8654 13.9242 61.324 14.1482C61.7775 14.3698 62.2237 15.0742 62.3938 15.5345C62.676 16.2981 62.6254 35.9369 62.5263 38.3544C62.5085 38.7891 62.5076 39.223 62.3175 39.6229C61.977 40.3393 61.3116 40.7624 60.5944 41.0272C59.9363 41.1555 58.2691 41.1183 57.5376 41.1178L52.3508 41.115L42.6346 41.119C40.875 41.1191 39.084 41.1877 37.3288 41.0895C36.9531 41.0685 36.6161 40.9894 36.2732 40.8314C35.6127 40.5273 35.1284 40.0292 34.8812 39.3385C34.652 38.698 34.6465 18.5423 34.774 16.2319C34.7939 15.8681 34.8684 15.571 35.0274 15.244C35.395 14.488 36.0451 14.1269 36.8062 13.8669Z" fill="#F3EFE5"/>
<path d="M47.6557 16.0817C48.4819 15.9439 49.5614 15.9742 50.4158 15.9811C53.1152 16.0025 55.7701 16.0092 58.4728 15.9773C59.5899 15.9641 59.9438 16.3859 60.0575 17.506C60.1279 19.5882 60.096 21.72 60.0487 23.8107C60.0934 24.186 60.123 26.0098 60.0777 26.369C59.8089 28.5074 60.5771 37.1883 59.6339 38.7098C59.0342 38.9655 49.8711 39.0253 49.2241 38.835C48.4364 39.0263 46.5171 38.9193 45.6081 38.8844C45.4166 38.923 44.1297 38.9407 43.9269 38.9203C42.6166 38.788 38.6195 39.2278 37.5596 38.5849C37.059 37.6591 37.2133 34.07 37.2157 32.9389L37.2144 25.8995L37.2087 20.6525C37.208 19.5289 37.1592 18.3079 37.3075 17.1999C37.3317 17.0193 37.4541 16.4266 37.579 16.3148C37.7515 16.1604 38.555 16.0087 38.7556 16.0161C40.5016 16.0805 46.2354 15.7989 47.6557 16.0817Z" fill="#B2DDE9"/>
<path d="M51.0622 25.1836C51.9473 25.2027 53.0891 25.6118 53.8503 26.0551C53.1198 26.8834 52.5914 27.3871 52.1386 28.4239C50.8326 31.4144 51.5543 34.3179 53.8601 36.5201C52.5727 37.0897 51.5149 37.2523 50.1422 37.541L49.2245 38.8372C48.4368 39.0284 46.5176 38.9214 45.6085 38.8865C45.5867 38.1072 45.9462 37.446 46.3012 36.7842C44.5005 35.8861 43.5263 35.1747 42.4389 33.4883C41.8805 34.6799 41.0988 36.4504 39.655 36.7262C38.8742 36.8754 38.3318 36.2451 38.2633 35.5053C38.1278 34.043 38.8864 32.8466 39.7181 31.7323C38.9853 30.7036 36.994 27.463 38.8574 26.4664C40.425 25.6279 41.9057 28.524 42.4432 29.6898C43.2886 28.0097 44.5607 26.9173 46.2188 26.0976C48.225 25.3264 48.9554 25.298 51.0622 25.1836Z" fill="#FCB928"/>
<path d="M47.6559 16.0848C48.4821 15.947 49.5616 15.9773 50.416 15.9842C53.1154 16.0056 55.7704 16.0123 58.473 15.9803C59.5901 15.9671 59.944 16.389 60.0578 17.5091C60.1281 19.5913 60.0962 21.7231 60.0489 23.8138C59.6641 23.8316 59.2786 23.8102 58.8981 23.7502C57.4172 23.5206 56.7458 22.7564 55.9332 21.6249C54.1943 23.0089 52.5618 22.057 51.7893 20.2049C50.3442 20.2418 48.5347 20.4507 47.348 19.4615C46.094 18.4162 46.7693 17.1057 47.6559 16.0848Z" fill="#80BE87"/>
<path d="M53.8505 26.0547C59.2145 28.8692 59.4023 33.7406 53.8602 36.5198C51.5545 34.3175 50.8327 31.414 52.1388 28.4235C52.5916 27.3867 53.1199 26.883 53.8505 26.0547Z" fill="#F3EFE5"/>
<path d="M54.7348 29.3235C55.4308 29.1596 56.1264 29.5966 56.2833 30.2961C56.4402 30.9956 55.9982 31.6892 55.2992 31.8401C54.6093 31.989 53.9287 31.5527 53.7738 30.8622C53.619 30.1718 54.0477 29.4852 54.7348 29.3235Z" fill="#4F433E"/>
<path d="M46.2188 26.0984C44.013 22.2614 47.7045 20.9716 50.0618 25.0538C50.394 25.1065 50.7283 25.144 51.0622 25.1844C48.9554 25.2987 48.225 25.3272 46.2188 26.0984Z" fill="#FCB928"/>
<path d="M39.6167 47.0807C45.5812 46.9585 51.7184 47.0833 57.6948 47.0918C59.1204 47.0938 59.0496 48.2875 58.1769 49.2246C57.714 49.2483 57.2349 49.2439 56.7696 49.2414C51.2001 49.2114 45.6193 49.3327 40.0532 49.2014C39.7557 49.1944 39.4113 49.0185 39.2219 48.7862C38.6745 48.1151 39.121 47.5582 39.6167 47.0807Z" fill="#64995B"/>
<path d="M40.2179 43.1197C44.4053 42.9606 48.8615 43.2431 53.0737 43.1709C54.9466 43.1388 54.8191 45.1151 53.5197 45.3273C50.9002 45.3848 48.1157 45.3293 45.4838 45.3535C44.2413 45.3649 40.4544 45.4383 39.5414 45.2116C38.5675 44.5064 38.9018 43.3479 40.2179 43.1197Z" fill="#64995B"/>
<mask id="path-17-outside-1_424_3776" maskUnits="userSpaceOnUse" x="23" y="51" width="45" height="23" fill="black">
<rect fill="white" x="23" y="51" width="45" height="23"/>
<path d="M25.28 56.14C25.28 55.46 25.4533 54.9467 25.8 54.6C26.16 54.24 26.68 54.06 27.36 54.06H40.64C41.32 54.06 41.8333 54.24 42.18 54.6C42.54 54.9467 42.72 55.46 42.72 56.14V69.82C42.72 70.5 42.54 71.0133 42.18 71.36C41.8333 71.72 41.32 71.9 40.64 71.9H27.36C26.68 71.9 26.16 71.72 25.8 71.36C25.4533 71.0133 25.28 70.5 25.28 69.82V56.14ZM40.36 56.34H27.64V69.62H40.36V56.34ZM37.42 67.18C38.0733 67.26 38.36 67.6267 38.28 68.28V68.36C38.2 69.0133 37.8333 69.3 37.18 69.22L30.6 68.5C29.9467 68.42 29.66 68.0533 29.74 67.4V67.32C29.82 66.6667 30.1867 66.38 30.84 66.46L37.42 67.18ZM36.52 64.48C37.16 64.5467 37.44 64.9 37.36 65.54V65.62C37.28 66.26 36.92 66.5467 36.28 66.48L31.5 65.92C30.86 65.8533 30.58 65.5 30.66 64.86V64.78C30.74 64.14 31.1 63.8533 31.74 63.92L36.52 64.48ZM30.26 56.56C30.6467 56.56 30.9267 56.62 31.1 56.74C31.2733 56.86 31.36 57.0667 31.36 57.36L31.16 57.12H36.78C37.3133 57.12 37.7467 57.2467 38.08 57.5C38.4133 57.7533 38.58 58.1267 38.58 58.62C38.58 59.1 38.3733 59.66 37.96 60.3C37.3733 60.9933 36.6333 61.6133 35.74 62.16C34.8467 62.7067 33.8467 63.1733 32.74 63.56C31.6333 63.9333 30.4667 64.22 29.24 64.42C28.5733 64.5133 28.1867 64.22 28.08 63.54V63.46C27.9867 62.7933 28.28 62.4067 28.96 62.3C30.6133 62.0467 32.0267 61.6667 33.2 61.16C34.3733 60.64 35.3067 60 36 59.24H31.06C30.4067 59.24 29.9133 59.1 29.58 58.82C29.2467 58.54 29.08 58.0867 29.08 57.46V57.42C29.08 57.1667 29.1733 56.96 29.36 56.8C29.5467 56.64 29.82 56.56 30.18 56.56H30.26ZM31.82 59.5C32.8867 60.2467 34 60.8467 35.16 61.3C36.32 61.7533 37.58 62.0867 38.94 62.3C39.62 62.4067 39.9133 62.7933 39.82 63.46V63.54C39.7133 64.22 39.3267 64.5133 38.66 64.42C36.9133 64.14 35.3267 63.7133 33.9 63.14C32.4733 62.5667 31.3133 61.9133 30.42 61.18C29.86 60.7533 29.8067 60.2733 30.26 59.74L30.3 59.66C30.7533 59.1267 31.26 59.0733 31.82 59.5ZM48.84 54.4C49.5867 54.4 49.96 54.7733 49.96 55.52V59.2C49.96 59.9467 49.5867 60.32 48.84 60.32H48.76C48.0133 60.32 47.64 59.9467 47.64 59.2V55.52C47.64 54.7733 48.0133 54.4 48.76 54.4H48.84ZM53.06 53.8C53.82 53.8 54.2 54.18 54.2 54.94V59.2C54.2 59.96 53.82 60.34 53.06 60.34H52.98C52.22 60.34 51.84 59.96 51.84 59.2V54.94C51.84 54.18 52.22 53.8 52.98 53.8H53.06ZM62.3 58.74C62.9 59.06 63.04 59.52 62.72 60.12L62.68 60.2C62.36 60.8 61.9 60.94 61.3 60.62L59.26 59.56C58.66 59.24 58.52 58.78 58.84 58.18L58.88 58.1C59.2 57.5 59.66 57.36 60.26 57.68L62.3 58.74ZM57.36 53.8C58.12 53.8 58.5 54.18 58.5 54.94V55.04H63.94C64.6333 55.04 64.98 55.3867 64.98 56.08V56.16C64.98 56.8533 64.6333 57.2 63.94 57.2H58.18C57.5133 57.2 57.0067 57.0333 56.66 56.7C56.3133 56.3533 56.14 55.84 56.14 55.16V54.94C56.14 54.18 56.52 53.8 57.28 53.8H57.36ZM62.84 65.94C63.48 65.94 63.8 66.26 63.8 66.9V66.98C63.8 67.62 63.48 67.94 62.84 67.94H49.16C48.52 67.94 48.2 67.62 48.2 66.98V66.9C48.2 66.26 48.52 65.94 49.16 65.94H62.84ZM64 69.78C64.6667 69.78 65 70.1133 65 70.78V70.86C65 71.5267 64.6667 71.86 64 71.86H48C47.3333 71.86 47 71.5267 47 70.86V70.78C47 70.1133 47.3333 69.78 48 69.78H64ZM56.04 63.98C56.8133 63.98 57.2 64.3667 57.2 65.14V69.66C57.2 70.4333 56.8133 70.82 56.04 70.82H55.96C55.1867 70.82 54.8 70.4333 54.8 69.66V65.14C54.8 64.3667 55.1867 63.98 55.96 63.98H56.04ZM60.98 68.42C61.7267 68.5933 62.0067 69.0533 61.82 69.8L61.76 70C61.5867 70.72 61.1333 70.9933 60.4 70.82H60.32C59.5867 70.6467 59.3067 70.1867 59.48 69.44L59.54 69.24C59.7133 68.52 60.1667 68.2467 60.9 68.42H60.98ZM50.9 68.42C51.6333 68.2467 52.0867 68.52 52.26 69.24L52.32 69.44C52.5067 70.1867 52.2267 70.6467 51.48 70.82H51.4C50.6667 70.9933 50.2133 70.72 50.04 70L49.98 69.8C49.8067 69.0533 50.0867 68.5933 50.82 68.42H50.9ZM60.02 63.02C60.62 63.02 60.92 63.32 60.92 63.92V64.02C60.92 64.62 60.62 64.92 60.02 64.92H52C51.3867 64.92 51.08 64.6133 51.08 64V63.94C51.08 63.3267 51.3867 63.02 52 63.02H60.02ZM53.62 60.08C53.8467 59.8667 54.16 59.76 54.56 59.76H57.44C57.7467 59.76 58.0467 59.8667 58.34 60.08C59.1267 60.72 60.0267 61.32 61.04 61.88C62.0533 62.4267 63.1467 62.9267 64.32 63.38C64.9867 63.5933 65.2067 64.0333 64.98 64.7L64.94 64.78C64.7267 65.42 64.2933 65.6333 63.64 65.42C62.3733 64.94 61.1933 64.4067 60.1 63.82C59.0067 63.2333 58.0267 62.6 57.16 61.92H54.84C53.9067 62.6667 52.8467 63.3533 51.66 63.98C50.4733 64.5933 49.3733 65.0667 48.36 65.4C47.7067 65.64 47.2733 65.4333 47.06 64.78L47.02 64.7C46.8067 64.0467 47.0267 63.6 47.68 63.36C48.9467 62.88 50.08 62.3667 51.08 61.82C52.0933 61.26 52.94 60.68 53.62 60.08Z"/>
</mask>
<path d="M25.28 56.14C25.28 55.46 25.4533 54.9467 25.8 54.6C26.16 54.24 26.68 54.06 27.36 54.06H40.64C41.32 54.06 41.8333 54.24 42.18 54.6C42.54 54.9467 42.72 55.46 42.72 56.14V69.82C42.72 70.5 42.54 71.0133 42.18 71.36C41.8333 71.72 41.32 71.9 40.64 71.9H27.36C26.68 71.9 26.16 71.72 25.8 71.36C25.4533 71.0133 25.28 70.5 25.28 69.82V56.14ZM40.36 56.34H27.64V69.62H40.36V56.34ZM37.42 67.18C38.0733 67.26 38.36 67.6267 38.28 68.28V68.36C38.2 69.0133 37.8333 69.3 37.18 69.22L30.6 68.5C29.9467 68.42 29.66 68.0533 29.74 67.4V67.32C29.82 66.6667 30.1867 66.38 30.84 66.46L37.42 67.18ZM36.52 64.48C37.16 64.5467 37.44 64.9 37.36 65.54V65.62C37.28 66.26 36.92 66.5467 36.28 66.48L31.5 65.92C30.86 65.8533 30.58 65.5 30.66 64.86V64.78C30.74 64.14 31.1 63.8533 31.74 63.92L36.52 64.48ZM30.26 56.56C30.6467 56.56 30.9267 56.62 31.1 56.74C31.2733 56.86 31.36 57.0667 31.36 57.36L31.16 57.12H36.78C37.3133 57.12 37.7467 57.2467 38.08 57.5C38.4133 57.7533 38.58 58.1267 38.58 58.62C38.58 59.1 38.3733 59.66 37.96 60.3C37.3733 60.9933 36.6333 61.6133 35.74 62.16C34.8467 62.7067 33.8467 63.1733 32.74 63.56C31.6333 63.9333 30.4667 64.22 29.24 64.42C28.5733 64.5133 28.1867 64.22 28.08 63.54V63.46C27.9867 62.7933 28.28 62.4067 28.96 62.3C30.6133 62.0467 32.0267 61.6667 33.2 61.16C34.3733 60.64 35.3067 60 36 59.24H31.06C30.4067 59.24 29.9133 59.1 29.58 58.82C29.2467 58.54 29.08 58.0867 29.08 57.46V57.42C29.08 57.1667 29.1733 56.96 29.36 56.8C29.5467 56.64 29.82 56.56 30.18 56.56H30.26ZM31.82 59.5C32.8867 60.2467 34 60.8467 35.16 61.3C36.32 61.7533 37.58 62.0867 38.94 62.3C39.62 62.4067 39.9133 62.7933 39.82 63.46V63.54C39.7133 64.22 39.3267 64.5133 38.66 64.42C36.9133 64.14 35.3267 63.7133 33.9 63.14C32.4733 62.5667 31.3133 61.9133 30.42 61.18C29.86 60.7533 29.8067 60.2733 30.26 59.74L30.3 59.66C30.7533 59.1267 31.26 59.0733 31.82 59.5ZM48.84 54.4C49.5867 54.4 49.96 54.7733 49.96 55.52V59.2C49.96 59.9467 49.5867 60.32 48.84 60.32H48.76C48.0133 60.32 47.64 59.9467 47.64 59.2V55.52C47.64 54.7733 48.0133 54.4 48.76 54.4H48.84ZM53.06 53.8C53.82 53.8 54.2 54.18 54.2 54.94V59.2C54.2 59.96 53.82 60.34 53.06 60.34H52.98C52.22 60.34 51.84 59.96 51.84 59.2V54.94C51.84 54.18 52.22 53.8 52.98 53.8H53.06ZM62.3 58.74C62.9 59.06 63.04 59.52 62.72 60.12L62.68 60.2C62.36 60.8 61.9 60.94 61.3 60.62L59.26 59.56C58.66 59.24 58.52 58.78 58.84 58.18L58.88 58.1C59.2 57.5 59.66 57.36 60.26 57.68L62.3 58.74ZM57.36 53.8C58.12 53.8 58.5 54.18 58.5 54.94V55.04H63.94C64.6333 55.04 64.98 55.3867 64.98 56.08V56.16C64.98 56.8533 64.6333 57.2 63.94 57.2H58.18C57.5133 57.2 57.0067 57.0333 56.66 56.7C56.3133 56.3533 56.14 55.84 56.14 55.16V54.94C56.14 54.18 56.52 53.8 57.28 53.8H57.36ZM62.84 65.94C63.48 65.94 63.8 66.26 63.8 66.9V66.98C63.8 67.62 63.48 67.94 62.84 67.94H49.16C48.52 67.94 48.2 67.62 48.2 66.98V66.9C48.2 66.26 48.52 65.94 49.16 65.94H62.84ZM64 69.78C64.6667 69.78 65 70.1133 65 70.78V70.86C65 71.5267 64.6667 71.86 64 71.86H48C47.3333 71.86 47 71.5267 47 70.86V70.78C47 70.1133 47.3333 69.78 48 69.78H64ZM56.04 63.98C56.8133 63.98 57.2 64.3667 57.2 65.14V69.66C57.2 70.4333 56.8133 70.82 56.04 70.82H55.96C55.1867 70.82 54.8 70.4333 54.8 69.66V65.14C54.8 64.3667 55.1867 63.98 55.96 63.98H56.04ZM60.98 68.42C61.7267 68.5933 62.0067 69.0533 61.82 69.8L61.76 70C61.5867 70.72 61.1333 70.9933 60.4 70.82H60.32C59.5867 70.6467 59.3067 70.1867 59.48 69.44L59.54 69.24C59.7133 68.52 60.1667 68.2467 60.9 68.42H60.98ZM50.9 68.42C51.6333 68.2467 52.0867 68.52 52.26 69.24L52.32 69.44C52.5067 70.1867 52.2267 70.6467 51.48 70.82H51.4C50.6667 70.9933 50.2133 70.72 50.04 70L49.98 69.8C49.8067 69.0533 50.0867 68.5933 50.82 68.42H50.9ZM60.02 63.02C60.62 63.02 60.92 63.32 60.92 63.92V64.02C60.92 64.62 60.62 64.92 60.02 64.92H52C51.3867 64.92 51.08 64.6133 51.08 64V63.94C51.08 63.3267 51.3867 63.02 52 63.02H60.02ZM53.62 60.08C53.8467 59.8667 54.16 59.76 54.56 59.76H57.44C57.7467 59.76 58.0467 59.8667 58.34 60.08C59.1267 60.72 60.0267 61.32 61.04 61.88C62.0533 62.4267 63.1467 62.9267 64.32 63.38C64.9867 63.5933 65.2067 64.0333 64.98 64.7L64.94 64.78C64.7267 65.42 64.2933 65.6333 63.64 65.42C62.3733 64.94 61.1933 64.4067 60.1 63.82C59.0067 63.2333 58.0267 62.6 57.16 61.92H54.84C53.9067 62.6667 52.8467 63.3533 51.66 63.98C50.4733 64.5933 49.3733 65.0667 48.36 65.4C47.7067 65.64 47.2733 65.4333 47.06 64.78L47.02 64.7C46.8067 64.0467 47.0267 63.6 47.68 63.36C48.9467 62.88 50.08 62.3667 51.08 61.82C52.0933 61.26 52.94 60.68 53.62 60.08Z" fill="white"/>
<path d="M25.8 54.6L24.3858 53.1858H24.3858L25.8 54.6ZM42.18 54.6L40.7394 55.9873L40.7655 56.0145L40.7927 56.0406L42.18 54.6ZM42.18 71.36L40.7927 69.9194L40.7655 69.9455L40.7394 69.9727L42.18 71.36ZM40.36 56.34H42.36V54.34H40.36V56.34ZM27.64 56.34V54.34H25.64V56.34H27.64ZM27.64 69.62H25.64V71.62H27.64V69.62ZM40.36 69.62V71.62H42.36V69.62H40.36ZM37.42 67.18L37.6631 65.1948L37.6503 65.1933L37.6375 65.1919L37.42 67.18ZM38.28 68.28L36.2948 68.0369L36.28 68.158V68.28H38.28ZM38.28 68.36L40.2652 68.6031L40.28 68.482V68.36H38.28ZM37.18 69.22L37.4231 67.2348L37.4103 67.2333L37.3975 67.2319L37.18 69.22ZM30.6 68.5L30.3569 70.4852L30.3697 70.4867L30.3825 70.4881L30.6 68.5ZM29.74 67.4L31.7252 67.6431L31.74 67.522V67.4H29.74ZM29.74 67.32L27.7548 67.0769L27.74 67.198V67.32H29.74ZM30.84 66.46L30.5969 68.4452L30.6097 68.4467L30.6225 68.4481L30.84 66.46ZM36.52 64.48L36.2873 66.4664L36.3 66.4679L36.3128 66.4692L36.52 64.48ZM37.36 65.54L35.3754 65.2919L35.36 65.4155V65.54H37.36ZM37.36 65.62L39.3446 65.8681L39.36 65.7445V65.62H37.36ZM36.28 66.48L36.0473 68.4664L36.06 68.4679L36.0728 68.4692L36.28 66.48ZM31.5 65.92L31.7327 63.9336L31.72 63.9321L31.7072 63.9308L31.5 65.92ZM30.66 64.86L32.6446 65.1081L32.66 64.9845V64.86H30.66ZM30.66 64.78L28.6754 64.5319L28.66 64.6555V64.78H30.66ZM31.74 63.92L31.9727 61.9336L31.96 61.9321L31.9472 61.9308L31.74 63.92ZM31.36 57.36L29.8236 58.6404L33.36 62.8841V57.36H31.36ZM31.16 57.12V55.12H26.8899L29.6236 58.4004L31.16 57.12ZM38.08 57.5L36.8698 59.0923V59.0923L38.08 57.5ZM37.96 60.3L39.4868 61.5919L39.5701 61.4934L39.6401 61.3851L37.96 60.3ZM35.74 62.16L34.6961 60.4541L34.6961 60.4541L35.74 62.16ZM32.74 63.56L33.3793 65.4551L33.3895 65.4516L33.3997 65.4481L32.74 63.56ZM29.24 64.42L29.5173 66.4007L29.5396 66.3976L29.5618 66.3939L29.24 64.42ZM28.08 63.54H26.08V63.6959L26.1042 63.8499L28.08 63.54ZM28.08 63.46H30.08V63.3207L30.0607 63.1827L28.08 63.46ZM28.96 62.3L28.6571 60.3231L28.6501 60.3242L28.96 62.3ZM33.2 61.16L33.9929 62.9961L34.0016 62.9923L34.0103 62.9885L33.2 61.16ZM36 59.24L37.4775 60.5879L40.5318 57.24H36V59.24ZM29.58 58.82L28.2936 60.3514L28.2936 60.3514L29.58 58.82ZM31.82 59.5L30.6079 61.0909L30.64 61.1153L30.6731 61.1385L31.82 59.5ZM35.16 61.3L35.888 59.4372H35.888L35.16 61.3ZM38.94 62.3L39.2499 60.3242H39.2499L38.94 62.3ZM39.82 63.46L37.8393 63.1827L37.82 63.3207V63.46H39.82ZM39.82 63.54L41.7958 63.8499L41.82 63.6959V63.54H39.82ZM38.66 64.42L38.3434 66.3948L38.363 66.3979L38.3827 66.4007L38.66 64.42ZM33.9 63.14L34.6458 61.2842V61.2842L33.9 63.14ZM30.42 61.18L31.689 59.6341L31.6609 59.6111L31.6321 59.5891L30.42 61.18ZM30.26 59.74L31.7839 61.0353L31.9406 60.8509L32.0489 60.6344L30.26 59.74ZM30.3 59.66L28.7761 58.3647L28.6194 58.5491L28.5111 58.7656L30.3 59.66ZM25.28 56.14H27.28C27.28 55.9645 27.303 55.8905 27.3049 55.8848C27.3052 55.8838 27.2999 55.8997 27.284 55.9261C27.2676 55.9531 27.2444 55.984 27.2142 56.0142L25.8 54.6L24.3858 53.1858C23.5384 54.0332 23.28 55.1386 23.28 56.14H25.28ZM25.8 54.6L27.2142 56.0142C27.1917 56.0367 27.1678 56.055 27.146 56.0684C27.1247 56.0815 27.1122 56.0857 27.1142 56.085C27.1209 56.0827 27.1922 56.06 27.36 56.06V54.06V52.06C26.3334 52.06 25.2334 52.3381 24.3858 53.1858L25.8 54.6ZM27.36 54.06V56.06H40.64V54.06V52.06H27.36V54.06ZM40.64 54.06V56.06C40.8086 56.06 40.8748 56.0829 40.8732 56.0823C40.8708 56.0815 40.8526 56.0747 40.8252 56.0575C40.7972 56.04 40.7673 56.0163 40.7394 55.9873L42.18 54.6L43.6206 53.2127C42.7766 52.3362 41.6613 52.06 40.64 52.06V54.06ZM42.18 54.6L40.7927 56.0406C40.7637 56.0127 40.74 55.9828 40.7225 55.9548C40.7053 55.9274 40.6985 55.9092 40.6977 55.9068C40.6971 55.9052 40.72 55.9714 40.72 56.14H42.72H44.72C44.72 55.1187 44.4438 54.0034 43.5673 53.1594L42.18 54.6ZM42.72 56.14H40.72V69.82H42.72H44.72V56.14H42.72ZM42.72 69.82H40.72C40.72 69.9886 40.6971 70.0548 40.6977 70.0532C40.6985 70.0508 40.7053 70.0326 40.7225 70.0052C40.74 69.9772 40.7637 69.9473 40.7927 69.9194L42.18 71.36L43.5673 72.8006C44.4438 71.9566 44.72 70.8413 44.72 69.82H42.72ZM42.18 71.36L40.7394 69.9727C40.7673 69.9437 40.7972 69.92 40.8252 69.9025C40.8526 69.8853 40.8708 69.8785 40.8732 69.8777C40.8748 69.8771 40.8086 69.9 40.64 69.9V71.9V73.9C41.6613 73.9 42.7766 73.6238 43.6206 72.7473L42.18 71.36ZM40.64 71.9V69.9H27.36V71.9V73.9H40.64V71.9ZM27.36 71.9V69.9C27.1922 69.9 27.1209 69.8773 27.1142 69.875C27.1122 69.8743 27.1247 69.8785 27.146 69.8916C27.1678 69.905 27.1917 69.9233 27.2142 69.9458L25.8 71.36L24.3858 72.7742C25.2334 73.6219 26.3334 73.9 27.36 73.9V71.9ZM25.8 71.36L27.2142 69.9458C27.2444 69.976 27.2676 70.0069 27.284 70.0339C27.2999 70.0603 27.3052 70.0762 27.3049 70.0752C27.303 70.0695 27.28 69.9955 27.28 69.82H25.28H23.28C23.28 70.8214 23.5384 71.9268 24.3858 72.7742L25.8 71.36ZM25.28 69.82H27.28V56.14H25.28H23.28V69.82H25.28ZM40.36 56.34V54.34H27.64V56.34V58.34H40.36V56.34ZM27.64 56.34H25.64V69.62H27.64H29.64V56.34H27.64ZM27.64 69.62V71.62H40.36V69.62V67.62H27.64V69.62ZM40.36 69.62H42.36V56.34H40.36H38.36V69.62H40.36ZM37.42 67.18L37.1769 69.1652C37.1766 69.1651 37.1585 69.163 37.1264 69.1543C37.0942 69.1456 37.0443 69.1294 36.9829 69.1002C36.8534 69.0387 36.6905 68.9274 36.5494 68.7468C36.4082 68.5663 36.3395 68.3814 36.3111 68.2409C36.2976 68.1742 36.2939 68.122 36.2932 68.0885C36.2925 68.0553 36.2948 68.0372 36.2948 68.0369L38.28 68.28L40.2652 68.5231C40.3426 67.8904 40.2859 67.0318 39.7006 66.2832C39.1153 65.5346 38.2958 65.2723 37.6631 65.1948L37.42 67.18ZM38.28 68.28H36.28V68.36H38.28H40.28V68.28H38.28ZM38.28 68.36L36.2948 68.1169C36.2949 68.1166 36.297 68.0985 36.3057 68.0664C36.3144 68.0342 36.3306 67.9843 36.3598 67.9229C36.4213 67.7934 36.5326 67.6305 36.7132 67.4894C36.8937 67.3482 37.0786 67.2795 37.2191 67.2511C37.2858 67.2376 37.338 67.2339 37.3715 67.2332C37.4047 67.2325 37.4228 67.2348 37.4231 67.2348L37.18 69.22L36.9369 71.2052C37.5696 71.2826 38.4282 71.2259 39.1768 70.6406C39.9254 70.0553 40.1877 69.2358 40.2652 68.6031L38.28 68.36ZM37.18 69.22L37.3975 67.2319L30.8175 66.5119L30.6 68.5L30.3825 70.4881L36.9625 71.2081L37.18 69.22ZM30.6 68.5L30.8431 66.5148C30.8434 66.5149 30.8615 66.517 30.8936 66.5257C30.9258 66.5344 30.9757 66.5506 31.0371 66.5798C31.1666 66.6413 31.3295 66.7526 31.4706 66.9332C31.6118 67.1137 31.6805 67.2986 31.7089 67.4391C31.7224 67.5058 31.7261 67.558 31.7268 67.5915C31.7275 67.6247 31.7252 67.6428 31.7252 67.6431L29.74 67.4L27.7548 67.1569C27.6774 67.7896 27.7341 68.6482 28.3194 69.3968C28.9047 70.1454 29.7242 70.4077 30.3569 70.4852L30.6 68.5ZM29.74 67.4H31.74V67.32H29.74H27.74V67.4H29.74ZM29.74 67.32L31.7252 67.5631C31.7251 67.5634 31.723 67.5815 31.7143 67.6136C31.7056 67.6458 31.6894 67.6957 31.6602 67.7571C31.5987 67.8866 31.4874 68.0495 31.3068 68.1906C31.1263 68.3318 30.9414 68.4005 30.8009 68.4289C30.7342 68.4424 30.682 68.4461 30.6485 68.4468C30.6153 68.4475 30.5972 68.4452 30.5969 68.4452L30.84 66.46L31.0831 64.4748C30.4504 64.3974 29.5918 64.4541 28.8432 65.0394C28.0946 65.6247 27.8323 66.4442 27.7548 67.0769L29.74 67.32ZM30.84 66.46L30.6225 68.4481L37.2025 69.1681L37.42 67.18L37.6375 65.1919L31.0575 64.4719L30.84 66.46ZM36.52 64.48L36.3128 66.4692C36.3105 66.469 36.2901 66.4668 36.2553 66.458C36.2203 66.4492 36.1671 66.4329 36.1019 66.4031C35.9645 66.3404 35.7919 66.2256 35.6425 66.0372C35.4933 65.8488 35.4214 65.6552 35.3918 65.5085C35.3778 65.4389 35.3741 65.384 35.3734 65.3486C35.3728 65.3134 35.3752 65.2936 35.3754 65.2919L37.36 65.54L39.3446 65.7881C39.4222 65.167 39.3722 64.3033 38.7775 63.5528C38.182 62.8014 37.3513 62.5558 36.7272 62.4908L36.52 64.48ZM37.36 65.54H35.36V65.62H37.36H39.36V65.54H37.36ZM37.36 65.62L35.3754 65.3719C35.3757 65.3702 35.3781 65.3512 35.3869 65.3187C35.3958 65.286 35.412 65.2365 35.4408 65.1759C35.5014 65.0484 35.6097 64.8894 35.7841 64.7504C35.9587 64.6114 36.1385 64.5411 36.2778 64.5105C36.4075 64.4819 36.4866 64.4907 36.4872 64.4908L36.28 66.48L36.0728 68.4692C36.7039 68.535 37.5458 68.4609 38.2759 67.8796C39.005 67.299 39.2661 66.4961 39.3446 65.8681L37.36 65.62ZM36.28 66.48L36.5127 64.4936L31.7327 63.9336L31.5 65.92L31.2673 67.9064L36.0473 68.4664L36.28 66.48ZM31.5 65.92L31.7072 63.9308C31.7095 63.931 31.7299 63.9332 31.7647 63.942C31.7997 63.9508 31.8529 63.9671 31.9181 63.9969C32.0555 64.0596 32.2281 64.1744 32.3775 64.3628C32.5267 64.5512 32.5986 64.7448 32.6282 64.8915C32.6422 64.9611 32.6459 65.016 32.6466 65.0514C32.6472 65.0866 32.6448 65.1064 32.6446 65.1081L30.66 64.86L28.6754 64.6119C28.5978 65.233 28.6478 66.0967 29.2425 66.8472C29.838 67.5986 30.6687 67.8442 31.2928 67.9092L31.5 65.92ZM30.66 64.86H32.66V64.78H30.66H28.66V64.86H30.66ZM30.66 64.78L32.6446 65.0281C32.6443 65.0298 32.6419 65.0488 32.6331 65.0813C32.6242 65.114 32.608 65.1635 32.5792 65.2241C32.5186 65.3516 32.4103 65.5106 32.2359 65.6496C32.0613 65.7886 31.8815 65.8589 31.7422 65.8895C31.6125 65.9181 31.5335 65.9093 31.5328 65.9092L31.74 63.92L31.9472 61.9308C31.3161 61.865 30.4742 61.9391 29.7441 62.5204C29.015 63.101 28.7539 63.9039 28.6754 64.5319L30.66 64.78ZM31.74 63.92L31.5073 65.9064L36.2873 66.4664L36.52 64.48L36.7527 62.4936L31.9727 61.9336L31.74 63.92ZM30.26 56.56V58.56C30.358 58.56 30.377 58.5683 30.3409 58.5606C30.3098 58.5539 30.1545 58.518 29.9616 58.3844L31.1 56.74L32.2384 55.0956C31.5512 54.6198 30.7601 54.56 30.26 54.56V56.56ZM31.1 56.74L29.9616 58.3844C29.7146 58.2134 29.545 57.9836 29.4506 57.7585C29.3648 57.5539 29.36 57.4008 29.36 57.36H31.36H33.36C33.36 56.6886 33.1456 55.7236 32.2384 55.0956L31.1 56.74ZM31.36 57.36L32.8964 56.0796L32.6964 55.8396L31.16 57.12L29.6236 58.4004L29.8236 58.6404L31.36 57.36ZM31.16 57.12V59.12H36.78V57.12V55.12H31.16V57.12ZM36.78 57.12V59.12C36.8901 59.12 36.939 59.1332 36.9439 59.1347C36.9458 59.1352 36.9379 59.1331 36.9231 59.1257C36.908 59.1182 36.8895 59.1072 36.8698 59.0923L38.08 57.5L39.2902 55.9077C38.5235 55.325 37.6295 55.12 36.78 55.12V57.12ZM38.08 57.5L36.8698 59.0923C36.7759 59.0209 36.6857 58.9128 36.6287 58.7853C36.5764 58.6681 36.58 58.5973 36.58 58.62H38.58H40.58C40.58 57.6273 40.2133 56.6093 39.2902 55.9077L38.08 57.5ZM38.58 58.62H36.58C36.58 58.574 36.5894 58.5973 36.5487 58.7076C36.5079 58.8182 36.4277 58.9862 36.2799 59.2149L37.96 60.3L39.6401 61.3851C40.1501 60.5953 40.58 59.6495 40.58 58.62H38.58ZM37.96 60.3L36.4332 59.0081C36.0037 59.5158 35.4347 60.0021 34.6961 60.4541L35.74 62.16L36.7839 63.8659C37.8319 63.2246 38.743 62.4709 39.4868 61.5919L37.96 60.3ZM35.74 62.16L34.6961 60.4541C33.9374 60.9184 33.0685 61.3267 32.0803 61.6719L32.74 63.56L33.3997 65.4481C34.6249 65.02 35.756 64.495 36.7839 63.8659L35.74 62.16ZM32.74 63.56L32.1007 61.6649C31.1039 62.0012 30.0439 62.2625 28.9182 62.4461L29.24 64.42L29.5618 66.3939C30.8895 66.1775 32.1628 65.8655 33.3793 65.4551L32.74 63.56ZM29.24 64.42L28.9627 62.4393C28.963 62.4393 28.9811 62.4367 29.0143 62.4369C29.0477 62.4371 29.0996 62.4401 29.1656 62.4526C29.3053 62.4791 29.4845 62.5444 29.6588 62.6766C30.023 62.9529 30.0627 63.2737 30.0558 63.2301L28.08 63.54L26.1042 63.8499C26.204 64.4863 26.4904 65.2938 27.2412 65.8634C28.0009 66.4397 28.8647 66.492 29.5173 66.4007L29.24 64.42ZM28.08 63.54H30.08V63.46H28.08H26.08V63.54H28.08ZM28.08 63.46L30.0607 63.1827C30.0607 63.183 30.0633 63.2011 30.0631 63.2343C30.0629 63.2677 30.0599 63.3196 30.0474 63.3856C30.0209 63.5253 29.9556 63.7045 29.8234 63.8788C29.5471 64.243 29.2263 64.2827 29.2699 64.2758L28.96 62.3L28.6501 60.3242C28.0137 60.424 27.2062 60.7104 26.6366 61.4612C26.0603 62.2209 26.008 63.0847 26.0993 63.7373L28.08 63.46ZM28.96 62.3L29.2629 64.2769C31.0362 64.0052 32.6233 63.5875 33.9929 62.9961L33.2 61.16L32.4071 59.3239C31.43 59.7458 30.1905 60.0881 28.6571 60.3231L28.96 62.3ZM33.2 61.16L34.0103 62.9885C35.3762 62.3832 36.5574 61.5966 37.4775 60.5879L36 59.24L34.5225 57.8921C34.056 58.4034 33.3705 58.8968 32.3897 59.3315L33.2 61.16ZM36 59.24V57.24H31.06V59.24V61.24H36V59.24ZM31.06 59.24V57.24C30.8701 57.24 30.7742 57.219 30.746 57.211C30.7233 57.2045 30.7817 57.2174 30.8664 57.2886L29.58 58.82L28.2936 60.3514C29.1296 61.0536 30.1632 61.24 31.06 61.24V59.24ZM29.58 58.82L30.8664 57.2886C30.9257 57.3384 30.9753 57.3944 31.0137 57.4508C31.0515 57.5063 31.0721 57.5525 31.0822 57.5799C31.1002 57.629 31.08 57.6043 31.08 57.46H29.08H27.08C27.08 58.4092 27.3364 59.5473 28.2936 60.3514L29.58 58.82ZM29.08 57.46H31.08V57.42H29.08H27.08V57.46H29.08ZM29.08 57.42H31.08C31.08 57.5438 31.0559 57.714 30.9727 57.8982C30.8888 58.0839 30.7718 58.224 30.6616 58.3185L29.36 56.8L28.0584 55.2815C27.4132 55.8345 27.08 56.6032 27.08 57.42H29.08ZM29.36 56.8L30.6616 58.3185C30.3498 58.5858 30.0811 58.56 30.18 58.56V56.56V54.56C29.5589 54.56 28.7435 54.6942 28.0584 55.2815L29.36 56.8ZM30.18 56.56V58.56H30.26V56.56V54.56H30.18V56.56ZM31.82 59.5L30.6731 61.1385C31.8641 61.9722 33.1174 62.649 34.432 63.1628L35.16 61.3L35.888 59.4372C34.8826 59.0443 33.9093 58.5212 32.9669 57.8615L31.82 59.5ZM35.16 61.3L34.432 63.1628C35.7401 63.674 37.1418 64.0424 38.6301 64.2758L38.94 62.3L39.2499 60.3242C38.0182 60.1309 36.8999 59.8326 35.888 59.4372L35.16 61.3ZM38.94 62.3L38.6301 64.2758C38.6737 64.2827 38.3529 64.243 38.0766 63.8788C37.9444 63.7045 37.8791 63.5253 37.8526 63.3856C37.8401 63.3196 37.8371 63.2677 37.8369 63.2343C37.8367 63.2011 37.8393 63.183 37.8393 63.1827L39.82 63.46L41.8007 63.7373C41.892 63.0847 41.8397 62.2209 41.2634 61.4612C40.6938 60.7104 39.8863 60.424 39.2499 60.3242L38.94 62.3ZM39.82 63.46H37.82V63.54H39.82H41.82V63.46H39.82ZM39.82 63.54L37.8442 63.2301C37.8373 63.2737 37.877 62.9529 38.2412 62.6766C38.4155 62.5444 38.5947 62.4791 38.7344 62.4526C38.8004 62.4401 38.8523 62.4371 38.8857 62.4369C38.9189 62.4367 38.937 62.4393 38.9373 62.4393L38.66 64.42L38.3827 66.4007C39.0353 66.492 39.8991 66.4397 40.6588 65.8634C41.4096 65.2938 41.696 64.4863 41.7958 63.8499L39.82 63.54ZM38.66 64.42L38.9766 62.4452C37.3555 62.1853 35.9154 61.7945 34.6458 61.2842L33.9 63.14L33.1542 64.9958C34.7379 65.6322 36.4712 66.0947 38.3434 66.3948L38.66 64.42ZM33.9 63.14L34.6458 61.2842C33.3498 60.7635 32.3825 60.2034 31.689 59.6341L30.42 61.18L29.151 62.7259C30.2442 63.6232 31.5968 64.3699 33.1542 64.9958L33.9 63.14ZM30.42 61.18L31.6321 59.5891C31.5866 59.5545 31.8909 59.7678 31.9478 60.2791C32.005 60.7939 31.752 61.0728 31.7839 61.0353L30.26 59.74L28.7361 58.4447C28.3147 58.9405 27.8617 59.7261 27.9722 60.7209C28.0824 61.7122 28.6934 62.3788 29.2079 62.7709L30.42 61.18ZM30.26 59.74L32.0489 60.6344L32.0889 60.5544L30.3 59.66L28.5111 58.7656L28.4711 58.8456L30.26 59.74ZM30.3 59.66L31.8239 60.9553C31.844 60.9316 31.6526 61.1645 31.2294 61.209C30.8087 61.2533 30.577 61.0673 30.6079 61.0909L31.82 59.5L33.0321 57.9091C32.503 57.506 31.738 57.1334 30.8106 57.231C29.8807 57.3289 29.2093 57.8551 28.7761 58.3647L30.3 59.66ZM62.3 58.74L63.2412 56.9753L63.2317 56.9702L63.2222 56.9653L62.3 58.74ZM62.72 60.12L60.9553 59.1788L60.9429 59.202L60.9311 59.2256L62.72 60.12ZM62.68 60.2L64.4447 61.1412L64.4571 61.118L64.4689 61.0944L62.68 60.2ZM61.3 60.62L62.2412 58.8553L62.2317 58.8502L62.2222 58.8453L61.3 60.62ZM59.26 59.56L58.3188 61.3247L58.3283 61.3298L58.3378 61.3347L59.26 59.56ZM58.84 58.18L60.6047 59.1212L60.6171 59.098L60.6288 59.0744L58.84 58.18ZM58.88 58.1L57.1153 57.1588L57.1029 57.182L57.0912 57.2056L58.88 58.1ZM60.26 57.68L59.3188 59.4447L59.3283 59.4498L59.3378 59.4547L60.26 57.68ZM58.5 55.04H56.5V57.04H58.5V55.04ZM56.66 56.7L55.2458 58.1142L55.2597 58.1281L55.2738 58.1417L56.66 56.7ZM60.98 68.42L61.4323 66.4718L61.2091 66.42H60.98V68.42ZM61.82 69.8L63.7357 70.3747L63.749 70.3302L63.7603 70.2851L61.82 69.8ZM61.76 70L59.8443 69.4253L59.8285 69.4782L59.8156 69.5319L61.76 70ZM60.4 70.82L60.8601 68.8736L60.6332 68.82H60.4V70.82ZM60.32 70.82L59.8599 72.7664L60.0868 72.82H60.32V70.82ZM59.48 69.44L57.5644 68.8653L57.5461 68.926L57.5318 68.9877L59.48 69.44ZM59.54 69.24L61.4557 69.8147L61.4715 69.7618L61.4844 69.7081L59.54 69.24ZM60.9 68.42L60.4399 70.3664L60.6669 70.42H60.9V68.42ZM50.9 68.42V70.42H51.1332L51.3601 70.3664L50.9 68.42ZM52.26 69.24L50.3156 69.7081L50.3285 69.7618L50.3443 69.8147L52.26 69.24ZM52.32 69.44L54.2603 68.9549L54.249 68.9098L54.2357 68.8653L52.32 69.44ZM51.48 70.82V72.82H51.7091L51.9323 72.7682L51.48 70.82ZM51.4 70.82V68.82H51.1668L50.9399 68.8736L51.4 70.82ZM50.04 70L51.9844 69.5319L51.9715 69.4782L51.9557 69.4253L50.04 70ZM49.98 69.8L48.0318 70.2523L48.0461 70.314L48.0643 70.3747L49.98 69.8ZM50.82 68.42V66.42H50.5868L50.3599 66.4736L50.82 68.42ZM53.62 60.08L54.9432 61.5797L54.9673 61.5584L54.9907 61.5364L53.62 60.08ZM58.34 60.08L59.6022 58.5286L59.5602 58.4944L59.5163 58.4625L58.34 60.08ZM61.04 61.88L60.0726 63.6305L60.0815 63.6354L60.0904 63.6402L61.04 61.88ZM64.32 63.38L63.5992 65.2456L63.6542 65.2669L63.7104 65.2848L64.32 63.38ZM64.98 64.7L66.7689 65.5944L66.8297 65.4727L66.8735 65.3438L64.98 64.7ZM64.94 64.78L63.1512 63.8856L63.0876 64.0127L63.0426 64.1475L64.94 64.78ZM63.64 65.42L62.9313 67.2902L62.9749 67.3067L63.0192 67.3212L63.64 65.42ZM57.16 61.92L58.3946 60.3465L57.851 59.92H57.16V61.92ZM54.84 61.92V59.92H54.1384L53.5906 60.3583L54.84 61.92ZM51.66 63.98L52.5783 65.7567L52.5861 65.7527L52.5939 65.7485L51.66 63.98ZM48.36 65.4L47.735 63.5001L47.7025 63.5109L47.6704 63.5227L48.36 65.4ZM47.06 64.78L48.9612 64.1592L48.9152 64.0182L48.8489 63.8856L47.06 64.78ZM47.02 64.7L45.1188 65.3208L45.1648 65.4618L45.2311 65.5944L47.02 64.7ZM47.68 63.36L48.3696 65.2373L48.3792 65.2338L48.3887 65.2302L47.68 63.36ZM51.08 61.82L52.0394 63.5749L52.0474 63.5705L51.08 61.82ZM48.84 54.4V56.4C48.905 56.4 48.5865 56.4149 48.2658 56.0942C47.9451 55.7735 47.96 55.455 47.96 55.52H49.96H51.96C51.96 54.8384 51.7882 53.9598 51.0942 53.2658C50.4002 52.5718 49.5216 52.4 48.84 52.4V54.4ZM49.96 55.52H47.96V59.2H49.96H51.96V55.52H49.96ZM49.96 59.2H47.96C47.96 59.265 47.9451 58.9465 48.2658 58.6258C48.5865 58.3051 48.905 58.32 48.84 58.32V60.32V62.32C49.5216 62.32 50.4002 62.1482 51.0942 61.4542C51.7882 60.7602 51.96 59.8816 51.96 59.2H49.96ZM48.84 60.32V58.32H48.76V60.32V62.32H48.84V60.32ZM48.76 60.32V58.32C48.695 58.32 49.0135 58.3051 49.3342 58.6258C49.6549 58.9465 49.64 59.265 49.64 59.2H47.64H45.64C45.64 59.8816 45.8118 60.7602 46.5058 61.4542C47.1998 62.1482 48.0784 62.32 48.76 62.32V60.32ZM47.64 59.2H49.64V55.52H47.64H45.64V59.2H47.64ZM47.64 55.52H49.64C49.64 55.455 49.6549 55.7735 49.3342 56.0942C49.0135 56.4149 48.695 56.4 48.76 56.4V54.4V52.4C48.0784 52.4 47.1998 52.5718 46.5058 53.2658C45.8118 53.9598 45.64 54.8384 45.64 55.52H47.64ZM48.76 54.4V56.4H48.84V54.4V52.4H48.76V54.4ZM53.06 53.8V55.8C53.1317 55.8 52.8181 55.8166 52.5008 55.4992C52.1834 55.1819 52.2 54.8683 52.2 54.94H54.2H56.2C56.2 54.2517 56.0266 53.3681 55.3292 52.6708C54.6319 51.9734 53.7483 51.8 53.06 51.8V53.8ZM54.2 54.94H52.2V59.2H54.2H56.2V54.94H54.2ZM54.2 59.2H52.2C52.2 59.2717 52.1834 58.9581 52.5008 58.6408C52.8181 58.3234 53.1317 58.34 53.06 58.34V60.34V62.34C53.7483 62.34 54.6319 62.1666 55.3292 61.4692C56.0266 60.7719 56.2 59.8883 56.2 59.2H54.2ZM53.06 60.34V58.34H52.98V60.34V62.34H53.06V60.34ZM52.98 60.34V58.34C52.9083 58.34 53.2219 58.3234 53.5392 58.6408C53.8566 58.9581 53.84 59.2717 53.84 59.2H51.84H49.84C49.84 59.8883 50.0134 60.7719 50.7108 61.4692C51.4081 62.1666 52.2917 62.34 52.98 62.34V60.34ZM51.84 59.2H53.84V54.94H51.84H49.84V59.2H51.84ZM51.84 54.94H53.84C53.84 54.8683 53.8566 55.1819 53.5392 55.4992C53.2219 55.8166 52.9083 55.8 52.98 55.8V53.8V51.8C52.2917 51.8 51.4081 51.9734 50.7108 52.6708C50.0134 53.3681 49.84 54.2517 49.84 54.94H51.84ZM52.98 53.8V55.8H53.06V53.8V51.8H52.98V53.8ZM62.3 58.74L61.3588 60.5047C61.3868 60.5196 61.0806 60.3637 60.9417 59.9073C60.8027 59.4509 60.9702 59.1508 60.9553 59.1788L62.72 60.12L64.4847 61.0612C64.7898 60.4892 65.0473 59.6591 64.7683 58.7427C64.4894 57.8262 63.8132 57.2804 63.2412 56.9753L62.3 58.74ZM62.72 60.12L60.9311 59.2256L60.8911 59.3056L62.68 60.2L64.4689 61.0944L64.5089 61.0144L62.72 60.12ZM62.68 60.2L60.9153 59.2588C60.9004 59.2868 61.0563 58.9806 61.5127 58.8417C61.9691 58.7027 62.2692 58.8702 62.2412 58.8553L61.3 60.62L60.3588 62.3847C60.9308 62.6898 61.7609 62.9473 62.6773 62.6683C63.5938 62.3894 64.1396 61.7132 64.4447 61.1412L62.68 60.2ZM61.3 60.62L62.2222 58.8453L60.1822 57.7853L59.26 59.56L58.3378 61.3347L60.3778 62.3947L61.3 60.62ZM59.26 59.56L60.2012 57.7953C60.1732 57.7804 60.4794 57.9362 60.6183 58.3927C60.7573 58.8491 60.5898 59.1492 60.6047 59.1212L58.84 58.18L57.0753 57.2388C56.7702 57.8108 56.5127 58.6409 56.7917 59.5573C57.0706 60.4738 57.7468 61.0196 58.3188 61.3247L59.26 59.56ZM58.84 58.18L60.6288 59.0744L60.6688 58.9944L58.88 58.1L57.0912 57.2056L57.0512 57.2856L58.84 58.18ZM58.88 58.1L60.6447 59.0412C60.6596 59.0132 60.5038 59.3194 60.0473 59.4583C59.5909 59.5973 59.2908 59.4298 59.3188 59.4447L60.26 57.68L61.2012 55.9153C60.6292 55.6102 59.7991 55.3527 58.8827 55.6317C57.9662 55.9106 57.4204 56.5868 57.1153 57.1588L58.88 58.1ZM60.26 57.68L59.3378 59.4547L61.3778 60.5147L62.3 58.74L63.2222 56.9653L61.1822 55.9053L60.26 57.68ZM57.36 53.8V55.8C57.4317 55.8 57.1181 55.8166 56.8008 55.4992C56.4834 55.1819 56.5 54.8683 56.5 54.94H58.5H60.5C60.5 54.2517 60.3266 53.3681 59.6292 52.6708C58.9319 51.9734 58.0483 51.8 57.36 51.8V53.8ZM58.5 54.94H56.5V55.04H58.5H60.5V54.94H58.5ZM58.5 55.04V57.04H63.94V55.04V53.04H58.5V55.04ZM63.94 55.04V57.04C63.9784 57.04 63.6398 57.0482 63.3058 56.7142C62.9718 56.3802 62.98 56.0416 62.98 56.08H64.98H66.98C66.98 55.425 66.8149 54.5665 66.1342 53.8858C65.4535 53.2051 64.595 53.04 63.94 53.04V55.04ZM64.98 56.08H62.98V56.16H64.98H66.98V56.08H64.98ZM64.98 56.16H62.98C62.98 56.1984 62.9718 55.8598 63.3058 55.5258C63.6398 55.1918 63.9784 55.2 63.94 55.2V57.2V59.2C64.595 59.2 65.4535 59.0349 66.1342 58.3542C66.8149 57.6735 66.98 56.815 66.98 56.16H64.98ZM63.94 57.2V55.2H58.18V57.2V59.2H63.94V57.2ZM58.18 57.2V55.2C58.0082 55.2 57.9335 55.178 57.9249 55.1751C57.9224 55.1743 57.9364 55.1787 57.9611 55.1932C57.9864 55.208 58.0163 55.2295 58.0462 55.2583L56.66 56.7L55.2738 58.1417C56.1169 58.9524 57.1986 59.2 58.18 59.2V57.2ZM56.66 56.7L58.0742 55.2858C58.1044 55.316 58.1276 55.3469 58.144 55.3739C58.1599 55.4003 58.1652 55.4162 58.1649 55.4152C58.163 55.4095 58.14 55.3355 58.14 55.16H56.14H54.14C54.14 56.1614 54.3984 57.2668 55.2458 58.1142L56.66 56.7ZM56.14 55.16H58.14V54.94H56.14H54.14V55.16H56.14ZM56.14 54.94H58.14C58.14 54.8683 58.1566 55.1819 57.8392 55.4992C57.5219 55.8166 57.2083 55.8 57.28 55.8V53.8V51.8C56.5917 51.8 55.7081 51.9734 55.0108 52.6708C54.3134 53.3681 54.14 54.2517 54.14 54.94H56.14ZM57.28 53.8V55.8H57.36V53.8V51.8H57.28V53.8ZM62.84 65.94V67.94C62.8393 67.94 62.7573 67.9406 62.6275 67.8974C62.4881 67.8509 62.3101 67.7585 62.1458 67.5942C61.9815 67.4299 61.8891 67.2519 61.8426 67.1125C61.7994 66.9827 61.8 66.9007 61.8 66.9H63.8H65.8C65.8 66.2717 65.6416 65.4331 64.9742 64.7658C64.3069 64.0984 63.4683 63.94 62.84 63.94V65.94ZM63.8 66.9H61.8V66.98H63.8H65.8V66.9H63.8ZM63.8 66.98H61.8C61.8 66.9793 61.7994 66.8973 61.8426 66.7675C61.8891 66.6281 61.9815 66.4501 62.1458 66.2858C62.3101 66.1215 62.4881 66.0291 62.6275 65.9826C62.7573 65.9394 62.8393 65.94 62.84 65.94V67.94V69.94C63.4683 69.94 64.3069 69.7816 64.9742 69.1142C65.6416 68.4469 65.8 67.6083 65.8 66.98H63.8ZM62.84 67.94V65.94H49.16V67.94V69.94H62.84V67.94ZM49.16 67.94V65.94C49.1607 65.94 49.2427 65.9394 49.3725 65.9826C49.5119 66.0291 49.6899 66.1215 49.8542 66.2858C50.0185 66.4501 50.1109 66.6281 50.1574 66.7675C50.2006 66.8973 50.2 66.9793 50.2 66.98H48.2H46.2C46.2 67.6083 46.3584 68.4469 47.0258 69.1142C47.6931 69.7816 48.5317 69.94 49.16 69.94V67.94ZM48.2 66.98H50.2V66.9H48.2H46.2V66.98H48.2ZM48.2 66.9H50.2C50.2 66.9007 50.2006 66.9827 50.1574 67.1125C50.1109 67.2519 50.0185 67.4299 49.8542 67.5942C49.6899 67.7585 49.5119 67.8509 49.3725 67.8974C49.2427 67.9406 49.1607 67.94 49.16 67.94V65.94V63.94C48.5317 63.94 47.6931 64.0984 47.0258 64.7658C46.3584 65.4331 46.2 66.2717 46.2 66.9H48.2ZM49.16 65.94V67.94H62.84V65.94V63.94H49.16V65.94ZM64 69.78V71.78C64.025 71.78 63.6765 71.7849 63.3358 71.4442C63.1748 71.2832 63.0849 71.1094 63.0401 70.975C63.0189 70.9112 63.0091 70.8606 63.0045 70.8285C63.0022 70.8122 63.0011 70.7999 63.0005 70.7919C63.0003 70.7879 63.0001 70.7849 63.0001 70.783C63 70.782 63 70.7812 63 70.7807C63 70.7805 63 70.7803 63 70.7802C63 70.7801 63 70.7801 63 70.78C63 70.7804 63 70.7797 63 70.78C63 70.7803 63 70.7797 63 70.78H65H67C67 70.1384 66.8382 69.2898 66.1642 68.6158C65.4902 67.9418 64.6416 67.78 64 67.78V69.78ZM65 70.78H63V70.86H65H67V70.78H65ZM65 70.86H63C63 70.8603 63 70.8597 63 70.86C63 70.8603 63 70.8596 63 70.86C63 70.8599 63 70.8599 63 70.8598C63 70.8597 63 70.8595 63 70.8593C63 70.8588 63 70.858 63.0001 70.857C63.0001 70.8551 63.0003 70.8521 63.0005 70.8481C63.0011 70.8401 63.0022 70.8278 63.0045 70.8115C63.0091 70.7794 63.0189 70.7288 63.0401 70.665C63.0849 70.5306 63.1748 70.3568 63.3358 70.1958C63.6765 69.8551 64.025 69.86 64 69.86V71.86V73.86C64.6416 73.86 65.4902 73.6982 66.1642 73.0242C66.8382 72.3502 67 71.5016 67 70.86H65ZM64 71.86V69.86H48V71.86V73.86H64V71.86ZM48 71.86V69.86C47.975 69.86 48.3235 69.8551 48.6642 70.1958C49.0049 70.5365 49 70.885 49 70.86H47H45C45 71.5016 45.1618 72.3502 45.8358 73.0242C46.5098 73.6982 47.3584 73.86 48 73.86V71.86ZM47 70.86H49V70.78H47H45V70.86H47ZM47 70.78H49C49 70.755 49.0049 71.1035 48.6642 71.4442C48.5032 71.6052 48.3294 71.6951 48.195 71.7399C48.1312 71.7611 48.0806 71.7709 48.0485 71.7755C48.0322 71.7778 48.0199 71.7789 48.0119 71.7795C48.0079 71.7797 48.0049 71.7799 48.003 71.7799C48.002 71.78 48.0012 71.78 48.0007 71.78C48.0005 71.78 48.0003 71.78 48.0002 71.78C48.0001 71.78 48.0001 71.78 48 71.78C48.0004 71.78 47.9997 71.78 48 71.78C48.0003 71.78 47.9997 71.78 48 71.78V69.78V67.78C47.3584 67.78 46.5098 67.9418 45.8358 68.6158C45.1618 69.2898 45 70.1384 45 70.78H47ZM48 69.78V71.78H64V69.78V67.78H48V69.78ZM56.04 63.98V65.98C56.1184 65.98 55.8098 65.9982 55.4958 65.6842C55.1818 65.3702 55.2 65.0616 55.2 65.14H57.2H59.2C59.2 64.445 59.0249 63.5565 58.3242 62.8558C57.6235 62.1551 56.735 61.98 56.04 61.98V63.98ZM57.2 65.14H55.2V69.66H57.2H59.2V65.14H57.2ZM57.2 69.66H55.2C55.2 69.7384 55.1818 69.4298 55.4958 69.1158C55.8098 68.8018 56.1184 68.82 56.04 68.82V70.82V72.82C56.735 72.82 57.6235 72.6449 58.3242 71.9442C59.0249 71.2435 59.2 70.355 59.2 69.66H57.2ZM56.04 70.82V68.82H55.96V70.82V72.82H56.04V70.82ZM55.96 70.82V68.82C55.8816 68.82 56.1902 68.8018 56.5042 69.1158C56.8182 69.4298 56.8 69.7384 56.8 69.66H54.8H52.8C52.8 70.355 52.9751 71.2435 53.6758 71.9442C54.3765 72.6449 55.265 72.82 55.96 72.82V70.82ZM54.8 69.66H56.8V65.14H54.8H52.8V69.66H54.8ZM54.8 65.14H56.8C56.8 65.0616 56.8182 65.3702 56.5042 65.6842C56.1902 65.9982 55.8816 65.98 55.96 65.98V63.98V61.98C55.265 61.98 54.3765 62.1551 53.6758 62.8558C52.9751 63.5565 52.8 64.445 52.8 65.14H54.8ZM55.96 63.98V65.98H56.04V63.98V61.98H55.96V63.98ZM60.98 68.42L60.5277 70.3682C60.6017 70.3854 60.2817 70.3294 60.0416 69.9349C59.8026 69.5423 59.8995 69.2358 59.8797 69.3149L61.82 69.8L63.7603 70.2851C63.9272 69.6176 63.9774 68.7077 63.4584 67.8551C62.9383 67.0006 62.105 66.628 61.4323 66.4718L60.98 68.42ZM61.82 69.8L59.9043 69.2253L59.8443 69.4253L61.76 70L63.6757 70.5747L63.7357 70.3747L61.82 69.8ZM61.76 70L59.8156 69.5319C59.8033 69.5829 59.8684 69.2667 60.2573 69.0322C60.6386 68.8023 60.9344 68.8912 60.8601 68.8736L60.4 70.82L59.9399 72.7664C60.5989 72.9221 61.4881 72.961 62.3227 72.4578C63.1649 71.9499 63.5434 71.1371 63.7044 70.4681L61.76 70ZM60.4 70.82V68.82H60.32V70.82V72.82H60.4V70.82ZM60.32 70.82L60.7801 68.8736C60.7225 68.86 61.0346 68.9211 61.2684 69.3051C61.4976 69.6817 61.4095 69.9729 61.4282 69.8923L59.48 69.44L57.5318 68.9877C57.3772 69.6538 57.3424 70.5483 57.8516 71.3849C58.3654 72.2289 59.1841 72.6066 59.8599 72.7664L60.32 70.82ZM59.48 69.44L61.3957 70.0147L61.4557 69.8147L59.54 69.24L57.6244 68.6653L57.5644 68.8653L59.48 69.44ZM59.54 69.24L61.4844 69.7081C61.4967 69.6571 61.4316 69.9733 61.0427 70.2078C60.6614 70.4377 60.3656 70.3488 60.4399 70.3664L60.9 68.42L61.3601 66.4736C60.7011 66.3179 59.8119 66.279 58.9773 66.7822C58.1351 67.2901 57.7566 68.1029 57.5956 68.7719L59.54 69.24ZM60.9 68.42V70.42H60.98V68.42V66.42H60.9V68.42ZM50.9 68.42L51.3601 70.3664C51.4344 70.3488 51.1386 70.4377 50.7573 70.2078C50.3684 69.9733 50.3033 69.6571 50.3156 69.7081L52.26 69.24L54.2044 68.7719C54.0434 68.1029 53.6649 67.2901 52.8227 66.7822C51.9881 66.279 51.0989 66.3179 50.4399 66.4736L50.9 68.42ZM52.26 69.24L50.3443 69.8147L50.4043 70.0147L52.32 69.44L54.2357 68.8653L54.1757 68.6653L52.26 69.24ZM52.32 69.44L50.3797 69.9251C50.3995 70.0042 50.3026 69.6977 50.5416 69.3051C50.7817 68.9106 51.1017 68.8546 51.0277 68.8718L51.48 70.82L51.9323 72.7682C52.605 72.612 53.4383 72.2394 53.9584 71.3849C54.4774 70.5323 54.4272 69.6224 54.2603 68.9549L52.32 69.44ZM51.48 70.82V68.82H51.4V70.82V72.82H51.48V70.82ZM51.4 70.82L50.9399 68.8736C50.8656 68.8912 51.1614 68.8023 51.5427 69.0322C51.9316 69.2667 51.9967 69.5829 51.9844 69.5319L50.04 70L48.0956 70.4681C48.2566 71.1371 48.6351 71.9499 49.4773 72.4578C50.3119 72.961 51.2011 72.9221 51.8601 72.7664L51.4 70.82ZM50.04 70L51.9557 69.4253L51.8957 69.2253L49.98 69.8L48.0643 70.3747L48.1243 70.5747L50.04 70ZM49.98 69.8L51.9282 69.3477C51.9095 69.2671 51.9976 69.5583 51.7684 69.9349C51.5346 70.3189 51.2225 70.38 51.2801 70.3664L50.82 68.42L50.3599 66.4736C49.6841 66.6334 48.8654 67.0111 48.3516 67.8551C47.8424 68.6917 47.8772 69.5862 48.0318 70.2523L49.98 69.8ZM50.82 68.42V70.42H50.9V68.42V66.42H50.82V68.42ZM60.02 63.02V65.02C60.0117 65.02 59.6381 65.0166 59.2808 64.6592C58.9234 64.3019 58.92 63.9283 58.92 63.92H60.92H62.92C62.92 63.3117 62.7666 62.4881 62.1092 61.8308C61.4519 61.1734 60.6283 61.02 60.02 61.02V63.02ZM60.92 63.92H58.92V64.02H60.92H62.92V63.92H60.92ZM60.92 64.02H58.92C58.92 64.0117 58.9234 63.6381 59.2808 63.2808C59.6381 62.9234 60.0117 62.92 60.02 62.92V64.92V66.92C60.6283 66.92 61.4519 66.7666 62.1092 66.1092C62.7666 65.4519 62.92 64.6283 62.92 64.02H60.92ZM60.02 64.92V62.92H52V64.92V66.92H60.02V64.92ZM52 64.92V62.92C52.0016 62.92 52.3702 62.9218 52.7242 63.2758C53.0782 63.6298 53.08 63.9984 53.08 64H51.08H49.08C49.08 64.615 49.2351 65.4435 49.8958 66.1042C50.5565 66.7649 51.385 66.92 52 66.92V64.92ZM51.08 64H53.08V63.94H51.08H49.08V64H51.08ZM51.08 63.94H53.08C53.08 63.9416 53.0782 64.3102 52.7242 64.6642C52.3702 65.0182 52.0016 65.02 52 65.02V63.02V61.02C51.385 61.02 50.5565 61.1751 49.8958 61.8358C49.2351 62.4965 49.08 63.325 49.08 63.94H51.08ZM52 63.02V65.02H60.02V63.02V61.02H52V63.02ZM53.62 60.08L54.9907 61.5364C54.883 61.6378 54.7659 61.7005 54.6695 61.7333C54.5806 61.7636 54.535 61.76 54.56 61.76V59.76V57.76C53.8011 57.76 52.9437 57.97 52.2493 58.6236L53.62 60.08ZM54.56 59.76V61.76H57.44V59.76V57.76H54.56V59.76ZM57.44 59.76V61.76C57.3564 61.76 57.2818 61.7446 57.225 61.7244C57.1712 61.7053 57.1509 61.6882 57.1637 61.6975L58.34 60.08L59.5163 58.4625C58.9455 58.0473 58.2425 57.76 57.44 57.76V59.76ZM58.34 60.08L57.0778 61.6314C57.9685 62.356 58.9696 63.0209 60.0726 63.6305L61.04 61.88L62.0074 60.1295C61.0837 59.6191 60.2848 59.084 59.6022 58.5286L58.34 60.08ZM61.04 61.88L60.0904 63.6402C61.1841 64.2302 62.3546 64.7647 63.5992 65.2456L64.32 63.38L65.0408 61.5144C63.9388 61.0886 62.9225 60.6231 61.9896 60.1198L61.04 61.88ZM64.32 63.38L63.7104 65.2848C63.7503 65.2976 63.4137 65.1996 63.1961 64.7644C62.98 64.3322 63.1026 64.0088 63.0865 64.0562L64.98 64.7L66.8735 65.3438C67.0841 64.7245 67.21 63.8478 66.7739 62.9756C66.3363 62.1004 65.5563 61.6757 64.9296 61.4752L64.32 63.38ZM64.98 64.7L63.1912 63.8056L63.1512 63.8856L64.94 64.78L66.7289 65.6744L66.7689 65.5944L64.98 64.7ZM64.94 64.78L63.0426 64.1475C63.0427 64.1474 63.0441 64.1432 63.0472 64.1355C63.0504 64.1278 63.0555 64.1161 63.0631 64.1011C63.078 64.0714 63.1039 64.026 63.1447 63.972C63.2313 63.8579 63.3715 63.7242 63.5716 63.6257C63.9903 63.4195 64.3022 63.5323 64.2608 63.5188L63.64 65.42L63.0192 67.3212C63.6311 67.521 64.4864 67.6338 65.3384 67.2143C66.1989 66.7907 66.6299 66.0349 66.8374 65.4125L64.94 64.78ZM63.64 65.42L64.3487 63.5498C63.156 63.0978 62.0558 62.5997 61.0456 62.0577L60.1 63.82L59.1544 65.5823C60.3308 66.2136 61.5907 66.7822 62.9313 67.2902L63.64 65.42ZM60.1 63.82L61.0456 62.0577C60.0414 61.5188 59.16 60.9471 58.3946 60.3465L57.16 61.92L55.9254 63.4935C56.8933 64.2529 57.972 64.9479 59.1544 65.5823L60.1 63.82ZM57.16 61.92V59.92H54.84V61.92V63.92H57.16V61.92ZM54.84 61.92L53.5906 60.3583C52.7668 61.0173 51.8146 61.6366 50.7261 62.2115L51.66 63.98L52.5939 65.7485C53.8787 65.0701 55.0465 64.316 56.0894 63.4817L54.84 61.92ZM51.66 63.98L50.7417 62.2033C49.627 62.7794 48.626 63.2071 47.735 63.5001L48.36 65.4L48.985 67.2999C50.1206 66.9263 51.3197 66.4072 52.5783 65.7567L51.66 63.98ZM48.36 65.4L47.6704 63.5227C47.6207 63.5409 47.9537 63.4041 48.4059 63.6198C48.8647 63.8386 48.9723 64.1931 48.9612 64.1592L47.06 64.78L45.1588 65.4008C45.361 66.0202 45.792 66.8048 46.6841 67.2302C47.5696 67.6526 48.446 67.4991 49.0496 67.2773L48.36 65.4ZM47.06 64.78L48.8489 63.8856L48.8089 63.8056L47.02 64.7L45.2311 65.5944L45.2711 65.6744L47.06 64.78ZM47.02 64.7L48.9212 64.0792C48.9139 64.0569 49.0158 64.3594 48.8192 64.7587C48.6252 65.1526 48.3317 65.2513 48.3696 65.2373L47.68 63.36L46.9904 61.4827C46.375 61.7087 45.6448 62.1507 45.2308 62.9913C44.8142 63.8372 44.9127 64.6897 45.1188 65.3208L47.02 64.7ZM47.68 63.36L48.3887 65.2302C49.7259 64.7235 50.9452 64.173 52.0393 63.5749L51.08 61.82L50.1207 60.0651C49.2148 60.5603 48.1674 61.0365 46.9713 61.4898L47.68 63.36ZM51.08 61.82L52.0474 63.5705C53.155 62.9584 54.129 62.2982 54.9432 61.5797L53.62 60.08L52.2968 58.5803C51.751 59.0618 51.0317 59.5616 50.1126 60.0695L51.08 61.82Z" fill="#4E433C" mask="url(#path-17-outside-1_424_3776)"/>
</svg>
