<svg width="200" height="229" viewBox="0 0 200 229" fill="none" xmlns="http://www.w3.org/2000/svg">
<rect width="200" height="200" rx="40" fill="#82D5BB"/>
<path d="M85.6591 36.7543C85.7833 33.0182 87.4175 29.4925 90.1872 26.9846C93.1566 24.2446 97.1022 22.8155 101.136 23.0191C105.184 23.1916 108.989 25.0009 111.68 28.0329C114.498 31.2156 115.3 34.512 115.225 38.6572L116.079 38.7041C119.104 38.6839 122.95 38.2893 125.531 39.6887C126.951 39.9311 128.613 40.6824 129.911 41.3134C139.832 46.1383 145.68 56.023 144.819 67.0607C144.675 68.9035 145.03 70.7624 144.514 72.6415C144.501 72.8581 144.477 73.1243 144.588 73.3161C145.851 75.5006 147.046 77.776 147.59 80.277C148.129 82.7598 148.036 85.4558 148.032 88.0112L148.033 95.4318C152.663 95.4057 158.563 94.5568 161.019 99.5881C162.097 101.794 161.966 103.659 161.961 106.059L161.935 110.962L161.928 124.214C161.932 129.371 162.745 135.537 158.789 139.473C155.714 142.532 151.957 142.261 147.966 142.257C147.318 148.665 144.987 153.926 139.913 158.073C137.039 160.379 133.639 161.936 130.016 162.608C127.128 163.12 122.023 162.962 118.929 162.962L101.697 162.953L83.3155 162.956C80.1383 162.956 76.2244 163.121 73.0933 162.814C62.9902 161.822 54.153 152.697 52.9794 142.663C48.6923 142.676 44.2743 143.234 40.9676 139.931C37.2805 136.248 38.0706 130.569 38.0721 125.708L38.0859 111.72C38.1626 108.078 37.381 102.985 39.5057 99.9063C42.4032 95.7078 48.2824 96.5455 52.7575 96.5703L52.756 88.3768C52.7558 82.6881 52.705 78.1899 56.3656 73.3111C56.2987 72.7399 56.2709 72.101 56.233 71.5219C56.076 71.1294 56.052 70.2417 56.0339 69.7954C55.6755 60.987 56.5534 54.1389 62.8569 47.3428C65.7078 44.2689 68.4198 42.4908 72.2005 40.7544C73.0382 40.3697 74.4402 39.7886 75.3501 39.7629C77.278 38.2672 82.2347 38.6735 84.8116 38.6926C85.1646 38.6854 85.1575 38.7087 85.4619 38.5431C85.6586 38.1189 85.5901 37.3606 85.6591 36.7543Z" fill="#4E433C"/>
<path d="M85.6594 36.7543C85.7836 33.0182 87.4178 29.4925 90.1875 26.9846C93.1569 24.2446 97.1025 22.8155 101.136 23.0191C105.185 23.1916 108.99 25.0009 111.681 28.0329C114.498 31.2156 115.301 34.512 115.225 38.6572L116.079 38.7041C119.104 38.6839 122.95 38.2893 125.531 39.6887C126.952 39.9311 128.613 40.6824 129.911 41.3134C139.832 46.1383 145.68 56.0231 144.82 67.0607C144.676 68.9035 145.031 70.7624 144.514 72.6415C144.488 72.6924 144.462 72.7432 144.436 72.794C142.69 80.645 137.426 87.2163 129.808 90.0426C129.858 92.7842 129.847 94.7893 126.779 95.7376C125.681 95.8631 123.708 95.8097 122.573 95.8097C120.453 95.8084 118.219 95.842 116.109 95.7475C114.017 95.1447 113.186 94.1927 112.929 92.0607L95.2934 92.0878C94.2316 92.0863 88.7107 91.9794 87.9539 92.1194C87.7907 94.0709 86.7519 95.2939 84.828 95.7513C81.5383 95.8768 77.5523 95.842 74.2417 95.7749C70.9893 94.7632 70.978 92.8131 71.0342 89.9003C62.7719 86.2312 57.881 80.3206 56.306 71.6921C56.2818 71.6354 56.2576 71.5787 56.2333 71.5219C56.0763 71.1294 56.0523 70.2417 56.0342 69.7954C55.6758 60.987 56.5537 54.1389 62.8572 47.3428C65.7081 44.269 68.4201 42.4908 72.2008 40.7544C73.0384 40.3697 74.4405 39.7886 75.3504 39.7629C77.2783 38.2672 82.235 38.6735 84.8119 38.6926C85.1649 38.6854 85.1578 38.7087 85.4622 38.5431C85.6589 38.1189 85.5904 37.3606 85.6594 36.7543Z" fill="#755F52"/>
<path d="M116.079 38.705C119.105 38.6848 122.951 38.2902 125.531 39.6896C126.952 39.932 128.614 40.6833 129.911 41.3143C139.832 46.1392 145.68 56.024 144.82 67.0617C144.676 68.9044 145.031 70.7633 144.514 72.6425C144.488 72.6933 144.462 72.7441 144.436 72.795C142.69 80.6459 137.426 87.2172 129.808 90.0435C129.858 92.7851 129.847 94.7902 126.779 95.7385C125.682 95.8641 123.708 95.8106 122.573 95.8106C120.453 95.8094 118.219 95.8429 116.109 95.7485C114.017 95.1456 113.186 94.1936 112.929 92.0616C112.904 89.6914 112.414 83.1271 113.498 81.3844C114.135 80.3609 114.961 79.9709 116.096 79.6949C115.884 66.2452 116.082 52.1959 116.079 38.705Z" fill="#FCC532"/>
<path d="M125.531 39.6885C126.952 39.9308 128.614 40.6822 129.911 41.3132C139.832 46.1381 145.68 56.0228 144.82 67.0605C144.676 68.9033 145.031 70.7622 144.514 72.6413C144.488 72.6922 144.462 72.743 144.436 72.7938C142.69 80.6448 137.426 87.2161 129.808 90.0423C129.718 86.3078 131.197 80.7276 126.664 79.7176L126.66 53.5082L126.674 45.8456C126.677 43.5194 127.128 41.5011 125.531 39.6885Z" fill="#49B2AC"/>
<path d="M118.716 83.78C120.31 83.7529 122.031 83.6565 123.586 83.7847C125.996 83.9836 126.027 86.0931 125.93 87.9763C125.878 88.9918 125.9 89.8566 125.748 90.8695C125.186 91.7289 124.885 91.9253 123.921 92.1896C119.743 92.2665 116.23 93.3202 116.698 87.8557C116.85 86.071 116.524 84.3414 118.716 83.78Z" fill="#4E433C"/>
<path d="M75.3504 39.7626C77.2783 38.2669 82.235 38.6732 84.8119 38.6923L84.8198 79.7101C85.9179 79.9419 86.7605 80.3638 87.3809 81.3362C88.4773 83.0549 87.9706 89.7569 87.9539 92.1191C87.7907 94.0706 86.7519 95.2936 84.828 95.751C81.5383 95.8765 77.5523 95.8417 74.2417 95.7746C70.9893 94.7629 70.978 92.8129 71.0342 89.9C62.7719 86.2309 57.881 80.3203 56.306 71.6918C56.2818 71.6351 56.2576 71.5784 56.2333 71.5216C56.0763 71.1291 56.0523 70.2414 56.0342 69.7951C55.6758 60.9867 56.5537 54.1386 62.8572 47.3425C65.7081 44.2687 68.4201 42.4905 72.2008 40.7541C73.0384 40.3694 74.4405 39.7883 75.3504 39.7626Z" fill="#FCC532"/>
<path d="M56.2333 71.5217C56.0763 71.1292 56.0523 70.2415 56.0342 69.7952C55.6758 60.9868 56.5537 54.1387 62.8572 47.3426C65.7081 44.2687 68.4201 42.4906 72.2008 40.7542C73.0384 40.3695 74.4405 39.7884 75.3504 39.7627C73.7936 41.4211 74.2304 43.5282 74.2341 45.7143L74.2429 52.9893L74.2511 79.6723C69.6693 80.9992 71.212 85.9994 71.0342 89.9001C62.7719 86.231 57.881 80.3204 56.306 71.6919C56.2818 71.6352 56.2576 71.5785 56.2333 71.5217Z" fill="#49B2AC"/>
<path d="M76.751 83.7652C78.311 83.744 81.5046 83.5075 82.9086 84.0927C83.9804 84.5394 84.1143 86.8001 84.0535 87.8595C83.9431 89.7827 84.3332 91.3338 82.205 92.1728C81.0956 92.2384 79.7159 92.181 78.6596 92.2397C75.4079 92.42 74.7099 91.3044 74.7993 88.1557C74.8506 86.3486 74.5645 84.4353 76.751 83.7652Z" fill="#4E433C"/>
<path d="M85.6602 36.7543C85.7843 33.0182 87.4185 29.4925 90.1882 26.9846C93.1576 24.2446 97.1032 22.8155 101.137 23.0191C105.185 23.1916 108.99 25.0009 111.681 28.0329C114.499 31.2156 115.301 34.512 115.226 38.6572C112.45 38.696 109.673 38.7013 106.898 38.6731C102.668 38.7627 98.2172 38.6922 93.9697 38.6745C93.9827 37.6755 93.9741 36.6766 93.9438 35.6781C93.7569 36.0429 93.8496 38.0586 93.8548 38.6596C91.1031 38.6965 88.4379 38.6545 85.6805 38.7445C85.6834 38.1743 85.7143 37.2977 85.6602 36.7543Z" fill="#4E433C"/>
<path d="M93.9434 35.6781C94.1089 33.6166 94.6774 32.0735 96.3504 30.6954C97.7026 29.582 99.4486 29.0673 101.187 29.2698C103.002 29.4786 104.464 30.3087 105.566 31.7609C107.153 33.8538 106.931 36.1983 106.897 38.6732C102.668 38.7628 98.2167 38.6923 93.9692 38.6745C93.9822 37.6756 93.9737 36.6767 93.9434 35.6781Z" fill="#AD90E5"/>
<path d="M38.0859 111.721L52.7581 111.726L52.7665 131.466C52.7661 134.517 52.6065 139.784 52.9794 142.663C48.6923 142.677 44.2743 143.235 40.9676 139.931C37.2805 136.248 38.0706 130.569 38.0721 125.708L38.0859 111.721Z" fill="#38958D"/>
<path d="M148.024 110.946L161.935 110.962L161.929 124.214C161.933 129.371 162.746 135.537 158.79 139.474C155.715 142.532 151.958 142.261 147.967 142.258C148.194 139.584 148.03 134.496 148.029 131.582L148.024 110.946Z" fill="#38958D"/>
<path d="M52.7585 96.5704L52.7591 111.725L38.0869 111.72C38.1636 108.079 37.382 102.985 39.5067 99.9064C42.4042 95.7078 48.2834 96.5455 52.7585 96.5704Z" fill="#FCC532"/>
<path d="M148.033 95.4317C152.663 95.4056 158.563 94.5567 161.019 99.588C162.097 101.794 161.966 103.659 161.961 106.059L161.935 110.962L148.023 110.946L148.033 95.4317Z" fill="#FCC532"/>
<path d="M116.108 95.7472C118.218 95.8417 120.452 95.8081 122.572 95.8094C123.707 95.8094 125.681 95.8628 126.778 95.7373C126.627 96.1437 126.649 96.8174 126.638 97.2686C126.581 99.5742 126.962 101.359 125.221 103.172C124.195 104.229 122.788 104.829 121.317 104.839C119.895 104.843 118.532 104.265 117.546 103.24C115.691 101.279 116.074 98.2952 116.108 95.7472Z" fill="#755F52"/>
<path d="M84.8275 95.751C84.7113 98.3139 85.3735 100.972 83.4651 103.095C82.4915 104.159 81.1302 104.783 79.69 104.827C77.5709 104.884 75.2676 103.559 74.6429 101.506C74.153 99.8961 74.2643 97.496 74.2412 95.7746C77.5519 95.8417 81.5379 95.8765 84.8275 95.751Z" fill="#755F52"/>
<path d="M67.5631 128.223C67.4396 128.011 67.2445 127.668 67.141 127.448C65.9812 124.752 65.9273 120.251 66.8484 117.538C67.9009 114.438 71.1183 112.51 74.2946 112.473C77.4037 112.437 80.5399 112.441 83.6634 112.442L101.837 112.45L118.123 112.438C120.608 112.436 124.296 112.323 126.661 112.474C127.739 112.533 128.799 112.764 129.804 113.159C135.006 115.239 134.933 121.16 134.231 125.925C134.159 126.412 133.873 127.053 133.685 127.516L133.713 136.074C133.716 140.974 134.217 145.496 130.445 149.278C127.638 152.09 125.081 152.613 121.313 152.627L90.7499 152.63L82.2415 152.629C77.742 152.625 74.3321 152.746 70.8693 149.258C68.3815 146.753 67.4143 143.592 67.5254 140.119C67.6099 136.214 67.4391 132.112 67.5631 128.223Z" fill="#49B2AC"/>
<path d="M107.935 132.078C114.768 132.128 120.538 132.006 127.299 130.622C130.118 130.045 131.97 130.01 133.685 127.516L133.714 136.073C133.716 140.974 134.218 145.496 130.445 149.278C127.638 152.089 125.081 152.613 121.314 152.626L90.7504 152.63L82.2419 152.629C77.7424 152.625 74.3325 152.746 70.8697 149.258C68.3819 146.752 67.4148 143.591 67.5258 140.119C67.6104 136.214 67.4395 132.112 67.5635 128.223C67.958 128.627 68.3573 129.073 68.8628 129.336C72.3737 131.165 83.5852 132.055 87.8508 132.101C89.4405 132.118 91.2471 132.262 92.8127 131.98C93.0607 133.763 93.3472 134.583 94.6211 135.944C97.6886 138.239 103.102 138.396 106.112 135.976C107.303 134.686 107.691 133.795 107.935 132.078Z" fill="#38958D"/>
<path d="M94.6219 135.943C97.6894 138.239 103.103 138.396 106.113 135.976C106.145 138.263 106.647 143.035 104.917 144.8C102.704 147.286 96.553 146.99 95.1394 143.763C94.4069 142.09 94.6425 137.889 94.6219 135.943Z" fill="#4E433C"/>
<path d="M92.8134 131.98C92.7202 129.868 92.7854 127.857 94.3373 126.177C96.9951 123.301 103.534 123.314 106.317 126.013C107.808 127.458 107.983 129.576 107.948 131.542L107.936 132.078C107.691 133.795 107.304 134.686 106.113 135.976C103.103 138.396 97.6893 138.239 94.6218 135.944C93.3479 134.583 93.0614 133.762 92.8134 131.98Z" fill="#FCC532"/>
<mask id="path-22-outside-1_338_3120" maskUnits="userSpaceOnUse" x="45" y="172" width="112" height="57" fill="black">
<rect fill="white" x="45" y="172" width="112" height="57"/>
<path d="M67.45 177.5C69.35 177.5 70.3 178.45 70.3 180.35V192.85C70.3 194.75 69.35 195.7 67.45 195.7H67.25C65.35 195.7 64.4 194.75 64.4 192.85V180.35C64.4 178.45 65.35 177.5 67.25 177.5H67.45ZM64.55 187.6C66.1833 187.333 67.1167 188 67.35 189.6V189.8C67.6167 191.433 66.95 192.367 65.35 192.6L53.3 194.6C51.6667 194.867 50.7333 194.2 50.5 192.6V192.4C50.2333 190.767 50.9 189.833 52.5 189.6L64.55 187.6ZM64.9 180.6C66.5333 180.6 67.35 181.417 67.35 183.05V183.25C67.35 184.883 66.5333 185.7 64.9 185.7H53.25C51.6167 185.7 50.8 184.883 50.8 183.25V183.05C50.8 181.417 51.6167 180.6 53.25 180.6H64.9ZM91.3 179.8C92.9 179.267 93.9667 179.75 94.5 181.25L94.6 181.45C95.1667 183.017 94.6667 184.067 93.1 184.6C91.6 185.133 90.0833 185.633 88.55 186.1C87.05 186.533 85.85 186.867 84.95 187.1C84.15 187.3 83.5 187.25 83 186.95C82.5 186.65 82.15 186.1 81.95 185.3V185.1C81.55 183.5 82.15 182.5 83.75 182.1C86.0167 181.5 88.5333 180.733 91.3 179.8ZM78.3 177.5C80.2 177.5 81.15 178.45 81.15 180.35V190.35H89.9C89.9 188.583 90.85 187.7 92.75 187.7H92.95C94.85 187.7 95.8 188.65 95.8 190.55V190.65C95.8 192.317 95.3667 193.583 94.5 194.45C93.6667 195.317 92.4 195.75 90.7 195.75H80.35C78.6833 195.75 77.4167 195.333 76.55 194.5C75.6833 193.633 75.25 192.35 75.25 190.65V180.35C75.25 178.45 76.2 177.5 78.1 177.5H78.3ZM86.35 211.5C87.9833 211.5 88.8 212.317 88.8 213.95V214.15C88.8 215.783 87.9833 216.6 86.35 216.6H59.65C58.0167 216.6 57.2 215.783 57.2 214.15V213.95C57.2 212.317 58.0167 211.5 59.65 211.5H86.35ZM86.35 204.55C87.9833 204.55 88.8 205.367 88.8 207V207.2C88.8 208.833 87.9833 209.65 86.35 209.65H59.65C58.0167 209.65 57.2 208.833 57.2 207.2V207C57.2 205.367 58.0167 204.55 59.65 204.55H86.35ZM86.8 197.6C88.4667 197.6 89.7167 198.033 90.55 198.9C91.4167 199.733 91.85 200.983 91.85 202.65V218.5C91.85 220.167 91.4167 221.417 90.55 222.25C89.7167 223.117 88.4667 223.55 86.8 223.55H81.75C80.1167 223.55 79.3 222.733 79.3 221.1V220.9C79.3 219.267 80.1167 218.45 81.75 218.45H85.75V202.7H60.25V220.65C60.25 222.617 59.2667 223.6 57.3 223.6H57.1C55.1333 223.6 54.15 222.617 54.15 220.65V202.65C54.15 200.983 54.5667 199.733 55.4 198.9C56.2667 198.033 57.5333 197.6 59.2 197.6H86.8ZM114.65 177.45C116.583 177.45 117.55 178.367 117.55 180.2H142.5C144.267 180.2 145.6 180.65 146.5 181.55C147.4 182.45 147.85 183.783 147.85 185.55V205.15C147.85 206.917 147.4 208.25 146.5 209.15C145.6 210.05 144.267 210.5 142.5 210.5H140.5C138.6 210.5 137.65 209.55 137.65 207.65V207.45C137.65 205.55 138.6 204.6 140.5 204.6H141.85V186.1H116.9C115.133 186.1 113.8 185.65 112.9 184.75C112 183.85 111.55 182.517 111.55 180.75V180.2C111.55 178.367 112.517 177.45 114.45 177.45H114.65ZM129.45 190.1C131.217 190.1 132.55 190.55 133.45 191.45C134.35 192.35 134.8 193.683 134.8 195.45V204C134.8 205.767 134.35 207.1 133.45 208C132.55 208.9 131.217 209.35 129.45 209.35H114.3C112.4 209.35 111.45 208.4 111.45 206.5V206.35C111.45 204.45 112.4 203.5 114.3 203.5H128.8V195.95H114.45V217H145.3V215.2C145.3 213.267 146.267 212.3 148.2 212.3H148.4C150.333 212.3 151.3 213.267 151.3 215.2V217.5C151.3 219.267 150.85 220.6 149.95 221.5C149.05 222.4 147.717 222.85 145.95 222.85H113.8C112.033 222.85 110.7 222.4 109.8 221.5C108.9 220.6 108.45 219.267 108.45 217.5V195.45C108.45 193.683 108.9 192.35 109.8 191.45C110.7 190.55 112.033 190.1 113.8 190.1H129.45Z"/>
</mask>
<path d="M67.45 177.5C69.35 177.5 70.3 178.45 70.3 180.35V192.85C70.3 194.75 69.35 195.7 67.45 195.7H67.25C65.35 195.7 64.4 194.75 64.4 192.85V180.35C64.4 178.45 65.35 177.5 67.25 177.5H67.45ZM64.55 187.6C66.1833 187.333 67.1167 188 67.35 189.6V189.8C67.6167 191.433 66.95 192.367 65.35 192.6L53.3 194.6C51.6667 194.867 50.7333 194.2 50.5 192.6V192.4C50.2333 190.767 50.9 189.833 52.5 189.6L64.55 187.6ZM64.9 180.6C66.5333 180.6 67.35 181.417 67.35 183.05V183.25C67.35 184.883 66.5333 185.7 64.9 185.7H53.25C51.6167 185.7 50.8 184.883 50.8 183.25V183.05C50.8 181.417 51.6167 180.6 53.25 180.6H64.9ZM91.3 179.8C92.9 179.267 93.9667 179.75 94.5 181.25L94.6 181.45C95.1667 183.017 94.6667 184.067 93.1 184.6C91.6 185.133 90.0833 185.633 88.55 186.1C87.05 186.533 85.85 186.867 84.95 187.1C84.15 187.3 83.5 187.25 83 186.95C82.5 186.65 82.15 186.1 81.95 185.3V185.1C81.55 183.5 82.15 182.5 83.75 182.1C86.0167 181.5 88.5333 180.733 91.3 179.8ZM78.3 177.5C80.2 177.5 81.15 178.45 81.15 180.35V190.35H89.9C89.9 188.583 90.85 187.7 92.75 187.7H92.95C94.85 187.7 95.8 188.65 95.8 190.55V190.65C95.8 192.317 95.3667 193.583 94.5 194.45C93.6667 195.317 92.4 195.75 90.7 195.75H80.35C78.6833 195.75 77.4167 195.333 76.55 194.5C75.6833 193.633 75.25 192.35 75.25 190.65V180.35C75.25 178.45 76.2 177.5 78.1 177.5H78.3ZM86.35 211.5C87.9833 211.5 88.8 212.317 88.8 213.95V214.15C88.8 215.783 87.9833 216.6 86.35 216.6H59.65C58.0167 216.6 57.2 215.783 57.2 214.15V213.95C57.2 212.317 58.0167 211.5 59.65 211.5H86.35ZM86.35 204.55C87.9833 204.55 88.8 205.367 88.8 207V207.2C88.8 208.833 87.9833 209.65 86.35 209.65H59.65C58.0167 209.65 57.2 208.833 57.2 207.2V207C57.2 205.367 58.0167 204.55 59.65 204.55H86.35ZM86.8 197.6C88.4667 197.6 89.7167 198.033 90.55 198.9C91.4167 199.733 91.85 200.983 91.85 202.65V218.5C91.85 220.167 91.4167 221.417 90.55 222.25C89.7167 223.117 88.4667 223.55 86.8 223.55H81.75C80.1167 223.55 79.3 222.733 79.3 221.1V220.9C79.3 219.267 80.1167 218.45 81.75 218.45H85.75V202.7H60.25V220.65C60.25 222.617 59.2667 223.6 57.3 223.6H57.1C55.1333 223.6 54.15 222.617 54.15 220.65V202.65C54.15 200.983 54.5667 199.733 55.4 198.9C56.2667 198.033 57.5333 197.6 59.2 197.6H86.8ZM114.65 177.45C116.583 177.45 117.55 178.367 117.55 180.2H142.5C144.267 180.2 145.6 180.65 146.5 181.55C147.4 182.45 147.85 183.783 147.85 185.55V205.15C147.85 206.917 147.4 208.25 146.5 209.15C145.6 210.05 144.267 210.5 142.5 210.5H140.5C138.6 210.5 137.65 209.55 137.65 207.65V207.45C137.65 205.55 138.6 204.6 140.5 204.6H141.85V186.1H116.9C115.133 186.1 113.8 185.65 112.9 184.75C112 183.85 111.55 182.517 111.55 180.75V180.2C111.55 178.367 112.517 177.45 114.45 177.45H114.65ZM129.45 190.1C131.217 190.1 132.55 190.55 133.45 191.45C134.35 192.35 134.8 193.683 134.8 195.45V204C134.8 205.767 134.35 207.1 133.45 208C132.55 208.9 131.217 209.35 129.45 209.35H114.3C112.4 209.35 111.45 208.4 111.45 206.5V206.35C111.45 204.45 112.4 203.5 114.3 203.5H128.8V195.95H114.45V217H145.3V215.2C145.3 213.267 146.267 212.3 148.2 212.3H148.4C150.333 212.3 151.3 213.267 151.3 215.2V217.5C151.3 219.267 150.85 220.6 149.95 221.5C149.05 222.4 147.717 222.85 145.95 222.85H113.8C112.033 222.85 110.7 222.4 109.8 221.5C108.9 220.6 108.45 219.267 108.45 217.5V195.45C108.45 193.683 108.9 192.35 109.8 191.45C110.7 190.55 112.033 190.1 113.8 190.1H129.45Z" fill="white"/>
<path d="M64.55 187.6L63.7443 182.665L63.7313 182.667L64.55 187.6ZM67.35 189.6H72.35V189.237L72.2977 188.878L67.35 189.6ZM67.35 189.8H62.35V190.205L62.4153 190.606L67.35 189.8ZM65.35 192.6L64.6285 187.652L64.5798 187.659L64.5313 187.667L65.35 192.6ZM53.3 194.6L54.1057 199.535L54.1187 199.533L53.3 194.6ZM50.5 192.6H45.5V192.963L45.5523 193.322L50.5 192.6ZM50.5 192.4H55.5V191.995L55.4347 191.594L50.5 192.4ZM52.5 189.6L53.2215 194.548L53.2702 194.541L53.3187 194.533L52.5 189.6ZM91.3 179.8L89.7189 175.057L89.7103 175.059L89.7018 175.062L91.3 179.8ZM94.5 181.25L89.7889 182.925L89.8913 183.213L90.0279 183.486L94.5 181.25ZM94.6 181.45L99.3019 179.749L99.2026 179.475L99.0722 179.214L94.6 181.45ZM93.1 184.6L91.4887 179.867L91.4567 179.878L91.425 179.889L93.1 184.6ZM88.55 186.1L89.9377 190.904L89.9718 190.894L90.0058 190.883L88.55 186.1ZM84.95 187.1L86.1627 191.951L86.1838 191.945L86.2048 191.94L84.95 187.1ZM81.95 185.3H76.95V185.916L77.0993 186.513L81.95 185.3ZM81.95 185.1H86.95V184.484L86.8007 183.887L81.95 185.1ZM83.75 182.1L84.9627 186.951L84.9961 186.942L85.0295 186.934L83.75 182.1ZM81.15 190.35H76.15V195.35H81.15V190.35ZM89.9 190.35V195.35H94.9V190.35H89.9ZM94.5 194.45L90.9645 190.914L90.9298 190.949L90.8958 190.984L94.5 194.45ZM76.55 194.5L73.0145 198.036L73.0491 198.07L73.0845 198.104L76.55 194.5ZM90.55 198.9L86.9458 202.366L87.0138 202.436L87.0845 202.504L90.55 198.9ZM90.55 222.25L87.0845 218.646L87.0138 218.714L86.9458 218.784L90.55 222.25ZM85.75 218.45V223.45H90.75V218.45H85.75ZM85.75 202.7H90.75V197.7H85.75V202.7ZM60.25 202.7V197.7H55.25V202.7H60.25ZM55.4 198.9L51.8645 195.364L51.8645 195.364L55.4 198.9ZM67.45 177.5V182.5C67.6293 182.5 66.8454 182.541 66.052 181.748C65.2586 180.955 65.3 180.171 65.3 180.35H70.3H75.3C75.3 178.629 74.8664 176.42 73.123 174.677C71.3796 172.934 69.1707 172.5 67.45 172.5V177.5ZM70.3 180.35H65.3V192.85H70.3H75.3V180.35H70.3ZM70.3 192.85H65.3C65.3 193.029 65.2586 192.245 66.052 191.452C66.8454 190.659 67.6293 190.7 67.45 190.7V195.7V200.7C69.1707 200.7 71.3796 200.266 73.123 198.523C74.8664 196.78 75.3 194.571 75.3 192.85H70.3ZM67.45 195.7V190.7H67.25V195.7V200.7H67.45V195.7ZM67.25 195.7V190.7C67.0707 190.7 67.8546 190.659 68.648 191.452C69.4414 192.245 69.4 193.029 69.4 192.85H64.4H59.4C59.4 194.571 59.8336 196.78 61.577 198.523C63.3204 200.266 65.5293 200.7 67.25 200.7V195.7ZM64.4 192.85H69.4V180.35H64.4H59.4V192.85H64.4ZM64.4 180.35H69.4C69.4 180.171 69.4414 180.955 68.648 181.748C67.8546 182.541 67.0707 182.5 67.25 182.5V177.5V172.5C65.5293 172.5 63.3204 172.934 61.577 174.677C59.8336 176.42 59.4 178.629 59.4 180.35H64.4ZM67.25 177.5V182.5H67.45V177.5V172.5H67.25V177.5ZM64.55 187.6L65.3557 192.535C65.4477 192.52 64.5743 192.687 63.5688 191.969C63.0852 191.623 62.7753 191.207 62.5981 190.863C62.4338 190.544 62.4033 190.328 62.4023 190.322L67.35 189.6L72.2977 188.878C72.0665 187.294 71.3456 185.235 69.3812 183.831C67.4423 182.446 65.2856 182.414 63.7443 182.665L64.55 187.6ZM67.35 189.6H62.35V189.8H67.35H72.35V189.6H67.35ZM67.35 189.8L62.4153 190.606C62.4304 190.698 62.2631 189.824 62.9813 188.819C63.3267 188.335 63.7425 188.025 64.0868 187.848C64.406 187.684 64.6219 187.653 64.6285 187.652L65.35 192.6L66.0715 197.548C67.6564 197.317 69.7155 196.596 71.1187 194.631C72.5036 192.692 72.5363 190.536 72.2847 188.994L67.35 189.8ZM65.35 192.6L64.5313 187.667L52.4813 189.667L53.3 194.6L54.1187 199.533L66.1687 197.533L65.35 192.6ZM53.3 194.6L52.4943 189.665C52.4023 189.68 53.2757 189.513 54.2812 190.231C54.7648 190.577 55.0747 190.992 55.2519 191.337C55.4162 191.656 55.4467 191.872 55.4477 191.878L50.5 192.6L45.5523 193.322C45.7835 194.906 46.5044 196.965 48.4688 198.369C50.4077 199.754 52.5644 199.786 54.1057 199.535L53.3 194.6ZM50.5 192.6H55.5V192.4H50.5H45.5V192.6H50.5ZM50.5 192.4L55.4347 191.594C55.4196 191.502 55.5869 192.376 54.8687 193.381C54.5233 193.865 54.1075 194.175 53.7632 194.352C53.444 194.516 53.2281 194.547 53.2215 194.548L52.5 189.6L51.7785 184.652C50.1936 184.883 48.1345 185.604 46.7313 187.569C45.3464 189.508 45.3137 191.664 45.5653 193.206L50.5 192.4ZM52.5 189.6L53.3187 194.533L65.3687 192.533L64.55 187.6L63.7313 182.667L51.6813 184.667L52.5 189.6ZM64.9 180.6V185.6C64.8978 185.6 64.8508 185.6 64.7671 185.588C64.683 185.576 64.5532 185.551 64.3907 185.497C64.0485 185.382 63.6086 185.155 63.202 184.748C62.7953 184.341 62.5676 183.902 62.4535 183.559C62.3993 183.397 62.374 183.267 62.362 183.183C62.35 183.099 62.35 183.052 62.35 183.05H67.35H72.35C72.35 181.463 71.9498 179.354 70.273 177.677C68.5963 176 66.4874 175.6 64.9 175.6V180.6ZM67.35 183.05H62.35V183.25H67.35H72.35V183.05H67.35ZM67.35 183.25H62.35C62.35 183.248 62.35 183.201 62.362 183.117C62.374 183.033 62.3993 182.903 62.4535 182.741C62.5676 182.398 62.7953 181.959 63.202 181.552C63.6086 181.145 64.0485 180.918 64.3907 180.803C64.5532 180.749 64.683 180.724 64.7671 180.712C64.8508 180.7 64.8978 180.7 64.9 180.7V185.7V190.7C66.4874 190.7 68.5963 190.3 70.273 188.623C71.9498 186.946 72.35 184.837 72.35 183.25H67.35ZM64.9 185.7V180.7H53.25V185.7V190.7H64.9V185.7ZM53.25 185.7V180.7C53.2522 180.7 53.2992 180.7 53.3829 180.712C53.467 180.724 53.5968 180.749 53.7593 180.803C54.1015 180.918 54.5414 181.145 54.948 181.552C55.3547 181.959 55.5824 182.398 55.6965 182.741C55.7507 182.903 55.776 183.033 55.788 183.117C55.8 183.201 55.8 183.248 55.8 183.25H50.8H45.8C45.8 184.837 46.2002 186.946 47.877 188.623C49.5537 190.3 51.6626 190.7 53.25 190.7V185.7ZM50.8 183.25H55.8V183.05H50.8H45.8V183.25H50.8ZM50.8 183.05H55.8C55.8 183.052 55.8 183.099 55.788 183.183C55.776 183.267 55.7507 183.397 55.6965 183.559C55.5824 183.902 55.3547 184.341 54.948 184.748C54.5414 185.155 54.1015 185.382 53.7593 185.497C53.5968 185.551 53.467 185.576 53.3829 185.588C53.2992 185.6 53.2522 185.6 53.25 185.6V180.6V175.6C51.6626 175.6 49.5537 176 47.877 177.677C46.2002 179.354 45.8 181.463 45.8 183.05H50.8ZM53.25 180.6V185.6H64.9V180.6V175.6H53.25V180.6ZM91.3 179.8L92.8811 184.543C93.0081 184.501 92.2693 184.785 91.2363 184.317C90.139 183.82 89.8084 182.98 89.7889 182.925L94.5 181.25L99.2111 179.575C98.6582 178.02 97.5277 176.189 95.3637 175.208C93.264 174.257 91.1919 174.566 89.7189 175.057L91.3 179.8ZM94.5 181.25L90.0279 183.486L90.1279 183.686L94.6 181.45L99.0722 179.214L98.9722 179.014L94.5 181.25ZM94.6 181.45L89.8981 183.151C89.925 183.225 89.6013 182.385 90.1357 181.263C90.3898 180.729 90.7402 180.359 91.0342 180.134C91.1735 180.027 91.2906 179.96 91.3672 179.921C91.4435 179.882 91.4879 179.867 91.4887 179.867L93.1 184.6L94.7113 189.333C96.2242 188.818 98.1261 187.742 99.1643 185.562C100.199 183.39 99.8416 181.242 99.3019 179.749L94.6 181.45ZM93.1 184.6L91.425 179.889C89.998 180.396 88.5544 180.872 87.0942 181.317L88.55 186.1L90.0058 190.883C91.6123 190.394 93.202 189.87 94.7751 189.311L93.1 184.6ZM88.55 186.1L87.1623 181.296C85.6812 181.724 84.531 182.043 83.6952 182.26L84.95 187.1L86.2048 191.94C87.169 191.69 88.4188 191.342 89.9377 190.904L88.55 186.1ZM84.95 187.1L83.7373 182.249C83.7376 182.249 83.7813 182.238 83.8636 182.23C83.9464 182.221 84.0768 182.214 84.246 182.227C84.6026 182.255 85.0818 182.368 85.5725 182.663L83 186.95L80.4275 191.237C82.4657 192.46 84.615 192.338 86.1627 191.951L84.95 187.1ZM83 186.95L85.5725 182.663C86.0632 182.957 86.3888 183.326 86.5808 183.628C86.6719 183.771 86.7272 183.89 86.7586 183.967C86.7898 184.043 86.8006 184.087 86.8007 184.087L81.95 185.3L77.0993 186.513C77.4862 188.06 78.3894 190.015 80.4275 191.237L83 186.95ZM81.95 185.3H86.95V185.1H81.95H76.95V185.3H81.95ZM81.95 185.1L86.8007 183.887C86.8008 183.888 86.8118 183.931 86.8203 184.014C86.8289 184.096 86.8358 184.227 86.8228 184.396C86.7953 184.753 86.6819 185.232 86.3875 185.722C86.093 186.213 85.7236 186.539 85.4219 186.731C85.2787 186.822 85.1604 186.877 85.0834 186.909C85.0067 186.94 84.9629 186.951 84.9627 186.951L83.75 182.1L82.5373 177.249C80.9896 177.636 79.0354 178.539 77.8125 180.578C76.5896 182.616 76.7124 184.765 77.0993 186.313L81.95 185.1ZM83.75 182.1L85.0295 186.934C87.4256 186.299 90.0507 185.498 92.8983 184.538L91.3 179.8L89.7018 175.062C87.016 175.968 84.6077 176.701 82.4705 177.266L83.75 182.1ZM78.3 177.5V182.5C78.4793 182.5 77.6954 182.541 76.902 181.748C76.1086 180.955 76.15 180.171 76.15 180.35H81.15H86.15C86.15 178.629 85.7164 176.42 83.973 174.677C82.2296 172.934 80.0207 172.5 78.3 172.5V177.5ZM81.15 180.35H76.15V190.35H81.15H86.15V180.35H81.15ZM81.15 190.35V195.35H89.9V190.35V185.35H81.15V190.35ZM89.9 190.35H94.9C94.9 190.351 94.9 190.4 94.8865 190.488C94.8729 190.577 94.8445 190.711 94.7848 190.878C94.6572 191.234 94.4142 191.655 94.0172 192.024C93.2159 192.769 92.484 192.7 92.75 192.7V187.7V182.7C91.116 182.7 88.9591 183.072 87.2078 184.701C85.3879 186.393 84.9 188.599 84.9 190.35H89.9ZM92.75 187.7V192.7H92.95V187.7V182.7H92.75V187.7ZM92.95 187.7V192.7C93.1293 192.7 92.3454 192.741 91.552 191.948C90.7586 191.155 90.8 190.371 90.8 190.55H95.8H100.8C100.8 188.829 100.366 186.62 98.623 184.877C96.8796 183.134 94.6707 182.7 92.95 182.7V187.7ZM95.8 190.55H90.8V190.65H95.8H100.8V190.55H95.8ZM95.8 190.65H90.8C90.8 190.852 90.7868 190.997 90.7724 191.094C90.7582 191.191 90.7439 191.232 90.7442 191.232C90.745 191.229 90.7596 191.188 90.799 191.123C90.8393 191.057 90.8948 190.984 90.9645 190.914L94.5 194.45L98.0355 197.986C100.137 195.884 100.8 193.153 100.8 190.65H95.8ZM94.5 194.45L90.8958 190.984C90.9853 190.891 91.0784 190.819 91.162 190.767C91.2437 190.717 91.298 190.697 91.3066 190.694C91.3134 190.692 91.2729 190.706 91.1711 190.721C91.0688 190.736 90.9146 190.75 90.7 190.75V195.75V200.75C93.1873 200.75 95.9938 200.11 98.1042 197.916L94.5 194.45ZM90.7 195.75V190.75H80.35V195.75V200.75H90.7V195.75ZM80.35 195.75V190.75C79.9206 190.75 79.7337 190.695 79.7124 190.688C79.7059 190.686 79.7411 190.697 79.8027 190.733C79.8659 190.77 79.9407 190.824 80.0155 190.896L76.55 194.5L73.0845 198.104C75.1923 200.131 77.8965 200.75 80.35 200.75V195.75ZM76.55 194.5L80.0855 190.964C80.161 191.04 80.2191 191.117 80.2599 191.185C80.2998 191.251 80.3131 191.291 80.3122 191.288C80.3075 191.274 80.25 191.089 80.25 190.65H75.25H70.25C70.25 193.153 70.8959 195.917 73.0145 198.036L76.55 194.5ZM75.25 190.65H80.25V180.35H75.25H70.25V190.65H75.25ZM75.25 180.35H80.25C80.25 180.171 80.2914 180.955 79.498 181.748C78.7046 182.541 77.9207 182.5 78.1 182.5V177.5V172.5C76.3793 172.5 74.1704 172.934 72.427 174.677C70.6836 176.42 70.25 178.629 70.25 180.35H75.25ZM78.1 177.5V182.5H78.3V177.5V172.5H78.1V177.5ZM86.35 211.5V216.5C86.3478 216.5 86.3008 216.5 86.2171 216.488C86.133 216.476 86.0032 216.451 85.8407 216.397C85.4985 216.282 85.0586 216.055 84.652 215.648C84.2453 215.241 84.0176 214.802 83.9035 214.459C83.8493 214.297 83.824 214.167 83.812 214.083C83.8 213.999 83.8 213.952 83.8 213.95H88.8H93.8C93.8 212.363 93.3998 210.254 91.723 208.577C90.0463 206.9 87.9374 206.5 86.35 206.5V211.5ZM88.8 213.95H83.8V214.15H88.8H93.8V213.95H88.8ZM88.8 214.15H83.8C83.8 214.148 83.8 214.101 83.812 214.017C83.824 213.933 83.8493 213.803 83.9035 213.641C84.0176 213.298 84.2453 212.859 84.652 212.452C85.0586 212.045 85.4985 211.818 85.8407 211.703C86.0032 211.649 86.133 211.624 86.2171 211.612C86.3008 211.6 86.3478 211.6 86.35 211.6V216.6V221.6C87.9374 221.6 90.0463 221.2 91.723 219.523C93.3998 217.846 93.8 215.737 93.8 214.15H88.8ZM86.35 216.6V211.6H59.65V216.6V221.6H86.35V216.6ZM59.65 216.6V211.6C59.6523 211.6 59.6992 211.6 59.7829 211.612C59.867 211.624 59.9968 211.649 60.1593 211.703C60.5015 211.818 60.9414 212.045 61.348 212.452C61.7547 212.859 61.9824 213.298 62.0965 213.641C62.1507 213.803 62.176 213.933 62.188 214.017C62.2 214.101 62.2 214.148 62.2 214.15H57.2H52.2C52.2 215.737 52.6002 217.846 54.277 219.523C55.9537 221.2 58.0626 221.6 59.65 221.6V216.6ZM57.2 214.15H62.2V213.95H57.2H52.2V214.15H57.2ZM57.2 213.95H62.2C62.2 213.952 62.2 213.999 62.188 214.083C62.176 214.167 62.1507 214.297 62.0965 214.459C61.9825 214.802 61.7547 215.241 61.348 215.648C60.9414 216.055 60.5015 216.282 60.1593 216.397C59.9968 216.451 59.867 216.476 59.7829 216.488C59.6992 216.5 59.6523 216.5 59.65 216.5V211.5V206.5C58.0626 206.5 55.9537 206.9 54.277 208.577C52.6002 210.254 52.2 212.363 52.2 213.95H57.2ZM59.65 211.5V216.5H86.35V211.5V206.5H59.65V211.5ZM86.35 204.55V209.55C86.3478 209.55 86.3008 209.55 86.2171 209.538C86.133 209.526 86.0032 209.501 85.8407 209.447C85.4985 209.332 85.0586 209.105 84.652 208.698C84.2453 208.291 84.0176 207.852 83.9035 207.509C83.8493 207.347 83.824 207.217 83.812 207.133C83.8 207.049 83.8 207.002 83.8 207H88.8H93.8C93.8 205.413 93.3998 203.304 91.723 201.627C90.0463 199.95 87.9374 199.55 86.35 199.55V204.55ZM88.8 207H83.8V207.2H88.8H93.8V207H88.8ZM88.8 207.2H83.8C83.8 207.198 83.8 207.151 83.812 207.067C83.824 206.983 83.8493 206.853 83.9035 206.691C84.0176 206.348 84.2453 205.909 84.652 205.502C85.0586 205.095 85.4985 204.868 85.8407 204.753C86.0032 204.699 86.133 204.674 86.2171 204.662C86.3008 204.65 86.3478 204.65 86.35 204.65V209.65V214.65C87.9374 214.65 90.0463 214.25 91.723 212.573C93.3998 210.896 93.8 208.787 93.8 207.2H88.8ZM86.35 209.65V204.65H59.65V209.65V214.65H86.35V209.65ZM59.65 209.65V204.65C59.6523 204.65 59.6992 204.65 59.7829 204.662C59.867 204.674 59.9968 204.699 60.1593 204.753C60.5015 204.868 60.9414 205.095 61.348 205.502C61.7547 205.909 61.9824 206.348 62.0965 206.691C62.1507 206.853 62.176 206.983 62.188 207.067C62.2 207.151 62.2 207.198 62.2 207.2H57.2H52.2C52.2 208.787 52.6002 210.896 54.277 212.573C55.9537 214.25 58.0626 214.65 59.65 214.65V209.65ZM57.2 207.2H62.2V207H57.2H52.2V207.2H57.2ZM57.2 207H62.2C62.2 207.002 62.2 207.049 62.188 207.133C62.176 207.217 62.1507 207.347 62.0965 207.509C61.9825 207.852 61.7547 208.291 61.348 208.698C60.9414 209.105 60.5015 209.332 60.1593 209.447C59.9968 209.501 59.867 209.526 59.7829 209.538C59.6992 209.55 59.6523 209.55 59.65 209.55V204.55V199.55C58.0626 199.55 55.9537 199.95 54.277 201.627C52.6002 203.304 52.2 205.413 52.2 207H57.2ZM59.65 204.55V209.55H86.35V204.55V199.55H59.65V204.55ZM86.8 197.6V202.6C87.0019 202.6 87.1448 202.613 87.2371 202.627C87.3288 202.641 87.3618 202.653 87.3498 202.649C87.336 202.644 87.2803 202.623 87.1999 202.573C87.118 202.522 87.0294 202.452 86.9458 202.366L90.55 198.9L94.1542 195.434C92.0608 193.257 89.2884 192.6 86.8 192.6V197.6ZM90.55 198.9L87.0845 202.504C86.9976 202.421 86.928 202.332 86.8769 202.25C86.8267 202.17 86.8056 202.114 86.8008 202.1C86.7966 202.088 86.8094 202.121 86.823 202.213C86.8368 202.305 86.85 202.448 86.85 202.65H91.85H96.85C96.85 200.162 96.1926 197.389 94.0155 195.296L90.55 198.9ZM91.85 202.65H86.85V218.5H91.85H96.85V202.65H91.85ZM91.85 218.5H86.85C86.85 218.702 86.8368 218.845 86.823 218.937C86.8094 219.029 86.7966 219.062 86.8008 219.05C86.8056 219.036 86.8267 218.98 86.8769 218.9C86.928 218.818 86.9976 218.729 87.0845 218.646L90.55 222.25L94.0155 225.854C96.1926 223.761 96.85 220.988 96.85 218.5H91.85ZM90.55 222.25L86.9458 218.784C87.0294 218.698 87.118 218.628 87.1999 218.577C87.2803 218.527 87.336 218.506 87.3498 218.501C87.3618 218.497 87.3288 218.509 87.2371 218.523C87.1448 218.537 87.0019 218.55 86.8 218.55V223.55V228.55C89.2884 228.55 92.0608 227.893 94.1542 225.716L90.55 222.25ZM86.8 223.55V218.55H81.75V223.55V228.55H86.8V223.55ZM81.75 223.55V218.55C81.7523 218.55 81.7992 218.55 81.8829 218.562C81.967 218.574 82.0968 218.599 82.2593 218.653C82.6015 218.768 83.0414 218.995 83.448 219.402C83.8547 219.809 84.0825 220.248 84.1965 220.591C84.2507 220.753 84.276 220.883 84.288 220.967C84.3 221.051 84.3 221.098 84.3 221.1H79.3H74.3C74.3 222.687 74.7002 224.796 76.377 226.473C78.0537 228.15 80.1626 228.55 81.75 228.55V223.55ZM79.3 221.1H84.3V220.9H79.3H74.3V221.1H79.3ZM79.3 220.9H84.3C84.3 220.902 84.3 220.949 84.288 221.033C84.276 221.117 84.2507 221.247 84.1965 221.409C84.0825 221.752 83.8547 222.191 83.448 222.598C83.0414 223.005 82.6015 223.232 82.2593 223.347C82.0968 223.401 81.967 223.426 81.8829 223.438C81.7992 223.45 81.7523 223.45 81.75 223.45V218.45V213.45C80.1626 213.45 78.0537 213.85 76.377 215.527C74.7002 217.204 74.3 219.313 74.3 220.9H79.3ZM81.75 218.45V223.45H85.75V218.45V213.45H81.75V218.45ZM85.75 218.45H90.75V202.7H85.75H80.75V218.45H85.75ZM85.75 202.7V197.7H60.25V202.7V207.7H85.75V202.7ZM60.25 202.7H55.25V220.65H60.25H65.25V202.7H60.25ZM60.25 220.65H55.25C55.25 220.863 55.2002 220.104 55.977 219.327C56.7537 218.55 57.5126 218.6 57.3 218.6V223.6V228.6C59.0541 228.6 61.288 228.158 63.048 226.398C64.8081 224.638 65.25 222.404 65.25 220.65H60.25ZM57.3 223.6V218.6H57.1V223.6V228.6H57.3V223.6ZM57.1 223.6V218.6C56.8874 218.6 57.6463 218.55 58.423 219.327C59.1998 220.104 59.15 220.863 59.15 220.65H54.15H49.15C49.15 222.404 49.5919 224.638 51.352 226.398C53.112 228.158 55.3459 228.6 57.1 228.6V223.6ZM54.15 220.65H59.15V202.65H54.15H49.15V220.65H54.15ZM54.15 202.65H59.15C59.15 202.44 59.1633 202.288 59.1779 202.185C59.1924 202.083 59.2069 202.041 59.2059 202.044C59.2044 202.048 59.1871 202.098 59.1406 202.176C59.093 202.255 59.0251 202.346 58.9355 202.436L55.4 198.9L51.8645 195.364C49.7627 197.466 49.15 200.213 49.15 202.65H54.15ZM55.4 198.9L58.9355 202.436C58.8659 202.505 58.7929 202.561 58.7269 202.601C58.6621 202.64 58.6209 202.655 58.6184 202.656C58.6175 202.656 58.6591 202.642 58.7557 202.628C58.8529 202.613 58.9983 202.6 59.2 202.6V197.6V192.6C56.6967 192.6 53.9659 193.263 51.8645 195.364L55.4 198.9ZM59.2 197.6V202.6H86.8V197.6V192.6H59.2V197.6ZM117.55 180.2H112.55V185.2H117.55V180.2ZM146.5 181.55L150.036 178.014V178.014L146.5 181.55ZM146.5 209.15L150.036 212.686V212.686L146.5 209.15ZM141.85 204.6V209.6H146.85V204.6H141.85ZM141.85 186.1H146.85V181.1H141.85V186.1ZM112.9 184.75L116.436 181.214V181.214L112.9 184.75ZM133.45 208L136.986 211.536V211.536L133.45 208ZM128.8 203.5V208.5H133.8V203.5H128.8ZM128.8 195.95H133.8V190.95H128.8V195.95ZM114.45 195.95V190.95H109.45V195.95H114.45ZM114.45 217H109.45V222H114.45V217ZM145.3 217V222H150.3V217H145.3ZM149.95 221.5L153.486 225.036L153.486 225.036L149.95 221.5ZM109.8 221.5L113.336 217.964V217.964L109.8 221.5ZM109.8 191.45L113.336 194.986V194.986L109.8 191.45ZM114.65 177.45V182.45C114.91 182.45 114.176 182.516 113.385 181.766C112.543 180.968 112.55 180.124 112.55 180.2H117.55H122.55C122.55 178.443 122.074 176.224 120.265 174.509C118.507 172.842 116.323 172.45 114.65 172.45V177.45ZM117.55 180.2V185.2H142.5V180.2V175.2H117.55V180.2ZM142.5 180.2V185.2C142.972 185.2 143.187 185.262 143.226 185.275C143.241 185.28 143.213 185.272 143.157 185.238C143.1 185.204 143.032 185.153 142.964 185.086L146.5 181.55L150.036 178.014C147.883 175.862 145.069 175.2 142.5 175.2V180.2ZM146.5 181.55L142.964 185.086C142.897 185.018 142.846 184.95 142.812 184.893C142.778 184.837 142.77 184.809 142.775 184.824C142.788 184.863 142.85 185.078 142.85 185.55H147.85H152.85C152.85 182.981 152.188 180.167 150.036 178.014L146.5 181.55ZM147.85 185.55H142.85V205.15H147.85H152.85V185.55H147.85ZM147.85 205.15H142.85C142.85 205.622 142.788 205.837 142.775 205.876C142.77 205.891 142.778 205.863 142.812 205.807C142.846 205.75 142.897 205.682 142.964 205.614L146.5 209.15L150.036 212.686C152.188 210.533 152.85 207.719 152.85 205.15H147.85ZM146.5 209.15L142.964 205.614C143.032 205.547 143.1 205.496 143.157 205.462C143.213 205.428 143.241 205.42 143.226 205.425C143.187 205.438 142.972 205.5 142.5 205.5V210.5V215.5C145.069 215.5 147.883 214.838 150.036 212.686L146.5 209.15ZM142.5 210.5V205.5H140.5V210.5V215.5H142.5V210.5ZM140.5 210.5V205.5C140.321 205.5 141.105 205.459 141.898 206.252C142.691 207.045 142.65 207.829 142.65 207.65H137.65H132.65C132.65 209.371 133.084 211.58 134.827 213.323C136.57 215.066 138.779 215.5 140.5 215.5V210.5ZM137.65 207.65H142.65V207.45H137.65H132.65V207.65H137.65ZM137.65 207.45H142.65C142.65 207.271 142.691 208.055 141.898 208.848C141.105 209.641 140.321 209.6 140.5 209.6V204.6V199.6C138.779 199.6 136.57 200.034 134.827 201.777C133.084 203.52 132.65 205.729 132.65 207.45H137.65ZM140.5 204.6V209.6H141.85V204.6V199.6H140.5V204.6ZM141.85 204.6H146.85V186.1H141.85H136.85V204.6H141.85ZM141.85 186.1V181.1H116.9V186.1V191.1H141.85V186.1ZM116.9 186.1V181.1C116.428 181.1 116.213 181.038 116.174 181.025C116.159 181.02 116.187 181.028 116.243 181.062C116.3 181.096 116.368 181.147 116.436 181.214L112.9 184.75L109.364 188.286C111.517 190.438 114.331 191.1 116.9 191.1V186.1ZM112.9 184.75L116.436 181.214C116.503 181.282 116.554 181.35 116.588 181.407C116.622 181.463 116.63 181.491 116.625 181.476C116.612 181.437 116.55 181.222 116.55 180.75H111.55H106.55C106.55 183.319 107.212 186.133 109.364 188.286L112.9 184.75ZM111.55 180.75H116.55V180.2H111.55H106.55V180.75H111.55ZM111.55 180.2H116.55C116.55 180.124 116.557 180.968 115.715 181.766C114.924 182.516 114.19 182.45 114.45 182.45V177.45V172.45C112.777 172.45 110.593 172.842 108.835 174.509C107.026 176.224 106.55 178.443 106.55 180.2H111.55ZM114.45 177.45V182.45H114.65V177.45V172.45H114.45V177.45ZM129.45 190.1V195.1C129.922 195.1 130.137 195.162 130.176 195.175C130.191 195.18 130.163 195.172 130.107 195.138C130.05 195.104 129.982 195.053 129.914 194.986L133.45 191.45L136.986 187.914C134.833 185.762 132.019 185.1 129.45 185.1V190.1ZM133.45 191.45L129.914 194.986C129.847 194.918 129.796 194.85 129.762 194.793C129.728 194.737 129.72 194.709 129.725 194.724C129.738 194.763 129.8 194.978 129.8 195.45H134.8H139.8C139.8 192.881 139.138 190.067 136.986 187.914L133.45 191.45ZM134.8 195.45H129.8V204H134.8H139.8V195.45H134.8ZM134.8 204H129.8C129.8 204.472 129.738 204.687 129.725 204.726C129.72 204.741 129.728 204.713 129.762 204.657C129.796 204.6 129.847 204.532 129.914 204.464L133.45 208L136.986 211.536C139.138 209.383 139.8 206.569 139.8 204H134.8ZM133.45 208L129.914 204.464C129.982 204.397 130.05 204.346 130.107 204.312C130.163 204.278 130.191 204.27 130.176 204.275C130.137 204.288 129.922 204.35 129.45 204.35V209.35V214.35C132.019 214.35 134.833 213.688 136.986 211.536L133.45 208ZM129.45 209.35V204.35H114.3V209.35V214.35H129.45V209.35ZM114.3 209.35V204.35C114.121 204.35 114.905 204.309 115.698 205.102C116.491 205.895 116.45 206.679 116.45 206.5H111.45H106.45C106.45 208.221 106.884 210.43 108.627 212.173C110.37 213.916 112.579 214.35 114.3 214.35V209.35ZM111.45 206.5H116.45V206.35H111.45H106.45V206.5H111.45ZM111.45 206.35H116.45C116.45 206.171 116.491 206.955 115.698 207.748C114.905 208.541 114.121 208.5 114.3 208.5V203.5V198.5C112.579 198.5 110.37 198.934 108.627 200.677C106.884 202.42 106.45 204.629 106.45 206.35H111.45ZM114.3 203.5V208.5H128.8V203.5V198.5H114.3V203.5ZM128.8 203.5H133.8V195.95H128.8H123.8V203.5H128.8ZM128.8 195.95V190.95H114.45V195.95V200.95H128.8V195.95ZM114.45 195.95H109.45V217H114.45H119.45V195.95H114.45ZM114.45 217V222H145.3V217V212H114.45V217ZM145.3 217H150.3V215.2H145.3H140.3V217H145.3ZM145.3 215.2H150.3C150.3 215.004 150.346 215.775 149.561 216.561C148.775 217.346 148.004 217.3 148.2 217.3V212.3V207.3C146.463 207.3 144.241 207.738 142.489 209.489C140.738 211.241 140.3 213.463 140.3 215.2H145.3ZM148.2 212.3V217.3H148.4V212.3V207.3H148.2V212.3ZM148.4 212.3V217.3C148.596 217.3 147.825 217.346 147.039 216.561C146.254 215.775 146.3 215.004 146.3 215.2H151.3H156.3C156.3 213.463 155.862 211.241 154.111 209.489C152.359 207.738 150.137 207.3 148.4 207.3V212.3ZM151.3 215.2H146.3V217.5H151.3H156.3V215.2H151.3ZM151.3 217.5H146.3C146.3 217.972 146.238 218.187 146.225 218.226C146.22 218.241 146.228 218.213 146.262 218.157C146.296 218.1 146.347 218.032 146.414 217.964L149.95 221.5L153.486 225.036C155.638 222.883 156.3 220.069 156.3 217.5H151.3ZM149.95 221.5L146.414 217.964C146.482 217.897 146.55 217.846 146.607 217.812C146.663 217.778 146.691 217.77 146.676 217.775C146.637 217.788 146.422 217.85 145.95 217.85V222.85V227.85C148.519 227.85 151.333 227.188 153.486 225.036L149.95 221.5ZM145.95 222.85V217.85H113.8V222.85V227.85H145.95V222.85ZM113.8 222.85V217.85C113.328 217.85 113.113 217.788 113.074 217.775C113.059 217.77 113.087 217.778 113.143 217.812C113.2 217.846 113.268 217.897 113.336 217.964L109.8 221.5L106.264 225.036C108.417 227.188 111.231 227.85 113.8 227.85V222.85ZM109.8 221.5L113.336 217.964C113.403 218.032 113.454 218.1 113.488 218.157C113.522 218.213 113.53 218.241 113.525 218.226C113.512 218.187 113.45 217.972 113.45 217.5H108.45H103.45C103.45 220.069 104.112 222.883 106.264 225.036L109.8 221.5ZM108.45 217.5H113.45V195.45H108.45H103.45V217.5H108.45ZM108.45 195.45H113.45C113.45 194.978 113.512 194.763 113.525 194.724C113.53 194.709 113.522 194.737 113.488 194.793C113.454 194.85 113.403 194.918 113.336 194.986L109.8 191.45L106.264 187.914C104.112 190.067 103.45 192.881 103.45 195.45H108.45ZM109.8 191.45L113.336 194.986C113.268 195.053 113.2 195.104 113.143 195.138C113.087 195.172 113.059 195.18 113.074 195.175C113.113 195.162 113.328 195.1 113.8 195.1V190.1V185.1C111.231 185.1 108.417 185.762 106.264 187.914L109.8 191.45ZM113.8 190.1V195.1H129.45V190.1V185.1H113.8V190.1Z" fill="#4E433C" mask="url(#path-22-outside-1_338_3120)"/>
</svg>
