<svg width="48" height="57" viewBox="0 0 48 57" fill="none" xmlns="http://www.w3.org/2000/svg">
<path d="M10.3524 0.068155C12.381 0.0346219 15.208 -0.0751671 17.1604 0.0839931C22.1306 -0.0385055 27.4224 0.0551527 32.4157 0.0526109L37.4994 0.0525124C40.6044 0.0545654 43.0853 -0.144483 45.4928 2.18162C47.276 3.90442 47.9709 5.92541 47.9937 8.39542C48.0024 11.2608 47.9809 14.1535 47.9738 17.0288L47.9862 39.0517C47.9864 41.6852 48.0804 43.3125 47.7397 45.9254L47.9244 46.0423C48.0451 46.6143 47.955 47.2015 47.9779 47.776C48.0662 49.9889 47.9343 51.6491 46.7504 53.5573C45.764 55.1472 43.788 56.4565 41.9735 56.803C40.5801 57.0692 38.0476 56.9757 36.5303 56.9763L13.5228 56.9773C10.8817 56.9763 7.27985 57.1134 4.79267 56.7253L4.71809 56.8535C2.53194 56.791 0.301333 54.939 0.15813 52.7191C-0.0987375 48.7371 0.113384 44.6797 0.0524572 40.6844C0.03647 39.6348 0.000598401 38.1033 0.164955 37.0952C-0.0603285 36.3599 -0.00788509 28.5348 0.0503123 27.3482C0.0536267 25.286 -0.0363491 21.949 0.137853 20.0409C-0.0626695 19.1449 0.0223361 17.1439 0.0517759 16.1605L0.043101 8.97575C0.0612328 6.35596 0.471928 4.24591 2.42588 2.32319C4.80281 -0.0157259 7.29291 0.0357951 10.3524 0.068155Z" fill="#4F433E"/>
<path d="M47.7397 45.9254L47.9244 46.0423C48.0451 46.6143 47.955 47.2015 47.9779 47.776C48.0662 49.9889 47.9343 51.6491 46.7504 53.5573C45.764 55.1472 43.788 56.4565 41.9735 56.803C40.5801 57.0692 38.0476 56.9757 36.5303 56.9763L13.5228 56.9773C10.8817 56.9763 7.27985 57.1134 4.79267 56.7253C2.84398 56.0308 2.03266 54.1575 3.24223 52.3769C4.71354 51.6184 9.53437 51.9231 11.4113 51.9258L31.7991 51.9243C33.6335 51.9208 35.468 51.9281 37.3024 51.9464C39.7315 51.9655 42.0421 52.1731 44.2034 50.8493C45.9917 49.749 47.2655 47.9751 47.7397 45.9254Z" fill="#F3EFE5"/>
<path d="M0.137853 20.0387C2.36807 18.583 3.23021 18.1451 6.06365 18.0352C6.30716 18.0601 6.59503 18.0416 6.74983 18.1733C6.8169 22.7618 6.65235 27.307 6.77138 31.9476C6.77343 32.9571 6.77041 33.9665 6.76222 34.976C3.31132 35.2236 2.92909 35.1898 0.164955 37.093C-0.0603285 36.3577 -0.00788509 28.5327 0.0503123 27.346C0.0536267 25.2839 -0.0363491 21.9468 0.137853 20.0387Z" fill="#453B38"/>
<path d="M0.0503123 27.3482C0.182792 29.2163 0.121183 32.1772 0.0986641 34.0859C2.36719 32.3451 3.88266 32.0916 6.77138 31.9492C6.77343 32.9587 6.77041 33.9682 6.76222 34.9777C3.31132 35.2252 2.92909 35.192 0.164955 37.0952C-0.0603285 36.3599 -0.00788509 28.5348 0.0503123 27.3482Z" fill="#64995B"/>
<path d="M10.3524 0.068155C12.381 0.0346219 15.208 -0.0751671 17.1604 0.0839931C17.4542 1.12772 17.4301 4.44643 17.3561 5.65695C17.1979 8.24525 14.9048 6.70948 13.6956 5.99003C13.0507 6.28625 12.0554 7.05898 11.4248 7.16916C9.60657 7.48699 9.97876 3.93669 9.96511 2.9564C9.95234 2.0337 9.87446 0.758468 10.3524 0.068155Z" fill="#FCB928"/>
<path d="M0.0510103 16.1583C0.0830823 16.4123 0.0777195 16.7504 0.214293 16.9153C0.475938 16.7542 1.93204 15.8278 2.06667 15.7785C3.31864 15.3208 5.43792 14.9081 6.75199 14.9222C6.77022 15.6228 6.92717 17.3697 6.62527 17.8965C6.41412 18.0156 6.30034 18.0096 6.06365 18.0352C3.23021 18.1451 2.36807 18.583 0.137853 20.0387C-0.0626695 19.1427 0.0215705 17.1416 0.0510103 16.1583Z" fill="#64995B"/>
<path d="M15.8062 9.86688C16.733 9.79013 18.3775 9.83334 19.3425 9.83315L34.1126 9.83149C35.6255 9.82963 37.1593 9.77234 38.6692 9.84635C39.1802 9.87138 39.8654 9.92417 40.3241 10.1482C40.7775 10.3698 41.2237 11.0742 41.3938 11.5345C41.676 12.2981 41.6254 31.9369 41.5263 34.3544C41.5085 34.7891 41.5076 35.223 41.3175 35.6229C40.977 36.3393 40.3116 36.7624 39.5944 37.0272C38.9363 37.1555 37.2691 37.1183 36.5376 37.1178L21.6346 37.119C19.875 37.1191 18.084 37.1877 16.3288 37.0895C15.9531 37.0685 15.6161 36.9894 15.2732 36.8314C14.6127 36.5273 14.1284 36.0292 13.8812 35.3385C13.652 34.698 13.6465 14.5423 13.774 12.2319C13.7939 11.8681 13.8684 11.571 14.0274 11.244C14.395 10.488 15.0451 10.1269 15.8062 9.86688Z" fill="#F3EFE5"/>
<path d="M26.6557 12.0817C27.4819 11.9439 28.5614 11.9742 29.4158 11.9811C32.1152 12.0025 34.7701 12.0092 37.4728 11.9773C38.5899 11.9641 38.9438 12.3859 39.0575 13.506C39.1279 15.5882 39.096 17.72 39.0487 19.8107C39.0934 20.186 39.123 22.0098 39.0777 22.369C38.8089 24.5074 39.5771 33.1883 38.6339 34.7098C38.0342 34.9655 28.8711 35.0253 28.2241 34.835C27.4364 35.0263 25.5172 34.9193 24.6081 34.8844C24.4166 34.923 23.1297 34.9407 22.9269 34.9203C21.6166 34.788 17.6195 35.2278 16.5596 34.5849C16.059 33.6591 16.2133 30.07 16.2157 28.9389L16.2087 16.6525C16.208 15.5289 16.1592 14.3079 16.3075 13.1999C16.3317 13.0193 16.4541 12.4266 16.579 12.3148C16.7515 12.1604 17.555 12.0087 17.7556 12.0161C19.5016 12.0805 25.2354 11.7989 26.6557 12.0817Z" fill="#B2DDE9"/>
<path d="M30.0622 21.1836C30.9473 21.2027 32.0891 21.6118 32.8503 22.0551C32.1198 22.8834 31.5914 23.3871 31.1386 24.4239C29.8326 27.4144 30.5543 30.3179 32.8601 32.5201C31.5727 33.0897 30.5149 33.2523 29.1422 33.541L28.2245 34.8372C27.4368 35.0284 25.5176 34.9214 24.6085 34.8865C24.5867 34.1072 24.9462 33.446 25.3012 32.7842C23.5005 31.8861 22.5263 31.1747 21.4389 29.4883C20.8805 30.6799 20.0988 32.4504 18.655 32.7262C17.8742 32.8754 17.3318 32.2451 17.2633 31.5053C17.1278 30.043 17.8864 28.8466 18.7181 27.7323C17.9853 26.7036 15.994 23.463 17.8575 22.4664C19.425 21.6279 20.9057 24.524 21.4432 25.6898C22.2886 24.0097 23.5607 22.9173 25.2188 22.0976C27.225 21.3264 27.9554 21.298 30.0622 21.1836Z" fill="#FCB928"/>
<path d="M26.6559 12.0848C27.4821 11.947 28.5616 11.9773 29.416 11.9842C32.1154 12.0056 34.7704 12.0123 37.473 11.9803C38.5901 11.9671 38.944 12.389 39.0578 13.5091C39.1281 15.5913 39.0962 17.7231 39.0489 19.8138C38.6641 19.8316 38.2786 19.8102 37.8981 19.7502C36.4172 19.5206 35.7458 18.7564 34.9332 17.6249C33.1943 19.0089 31.5618 18.057 30.7894 16.2049C29.3442 16.2418 27.5347 16.4507 26.348 15.4615C25.094 14.4162 25.7693 13.1057 26.6559 12.0848Z" fill="#80BE87"/>
<path d="M32.8503 22.0551C38.2143 24.8696 38.4022 29.741 32.8601 32.5201C30.5543 30.3179 29.8326 27.4144 31.1386 24.4239C31.5914 23.3871 32.1198 22.8834 32.8503 22.0551Z" fill="#F3EFE5"/>
<path d="M33.7348 25.3235C34.4308 25.1596 35.1264 25.5966 35.2833 26.2961C35.4402 26.9956 34.9982 27.6892 34.2992 27.8401C33.6093 27.989 32.9287 27.5527 32.7738 26.8622C32.619 26.1718 33.0477 25.4852 33.7348 25.3235Z" fill="#4F433E"/>
<path d="M25.2188 22.0976C23.013 18.2606 26.7045 16.9716 29.0618 21.0538C29.394 21.1065 29.7283 21.1432 30.0622 21.1836C27.9554 21.298 27.225 21.3264 25.2188 22.0976Z" fill="#FCB928"/>
<path d="M18.6167 43.0807C24.5812 42.9585 30.7184 43.0833 36.6948 43.0918C38.1204 43.0938 38.0496 44.2875 37.1769 45.2246C36.714 45.2483 36.2349 45.2439 35.7696 45.2414C30.2001 45.2114 24.6193 45.3327 19.0532 45.2014C18.7557 45.1944 18.4113 45.0185 18.2219 44.7862C17.6745 44.1151 18.121 43.5582 18.6167 43.0807Z" fill="#64995B"/>
<path d="M19.2179 39.1197C23.4053 38.9606 27.8615 39.2431 32.0737 39.1709C33.9467 39.1388 33.8191 41.1151 32.5197 41.3273C29.9002 41.3848 27.1157 41.3293 24.4838 41.3535C23.2413 41.365 19.4544 41.4383 18.5414 41.2116C17.5675 40.5064 17.9018 39.3479 19.2179 39.1197Z" fill="#64995B"/>
</svg>
