<svg width="1010" height="1039" viewBox="0 0 1010 1039" fill="none" xmlns="http://www.w3.org/2000/svg">
<path d="M465.018 105L553.706 105.022L553.655 122.373L572.509 122.356C572.368 128.435 572.355 134.517 572.464 140.596L590.517 140.448L590.574 172.801L608.627 172.751L608.595 206.339L655.29 206.324L655.047 223.248C666.206 223.361 677.513 223.254 688.686 223.24C688.795 229.136 687.462 233.544 689.32 238.796C691.159 240.285 691.088 239.777 694.061 239.914C698.673 239.622 703.183 239.761 707.802 239.834L707.828 258.092L726.054 258.081L726.002 276.069L744.388 276.03C744.279 288.301 744.267 300.573 744.35 312.844L762.499 313.095L762.518 450.974L779.257 450.98L779.379 535.011L809.194 535.03L809.175 550.892L825.857 550.912L825.837 567.01C831.103 567.081 837.029 567.292 842.237 567.087L842.116 755.886C836.798 755.867 831.09 755.963 825.805 755.796L825.857 772.914L809.22 772.734L809.213 788.917C794.485 788.827 778.623 788.603 763.921 788.955L763.863 827.719L746.714 827.713C747.38 834.497 747.06 844.997 746.887 851.935L799.636 851.864L799.623 867.265L823.153 867.323L823.166 884.447L843.525 884.696L843.576 894.389L822.692 894.472L822.794 884.408L802.865 884.395L802.916 894.549C790.456 894.415 777.989 894.459 765.529 894.664C765.503 901.474 765.221 910.187 765.49 916.843C747.105 917.484 726.425 917.022 707.943 916.971L707.917 933.602C694.522 934.018 679.403 933.595 665.873 933.57L581.958 933.576L314.571 933.499L314.497 916.997C292.605 916.907 269.542 917.477 247.842 916.792C247.494 909.937 247.591 901.519 247.489 894.543C237.792 894.306 227.601 894.415 217.864 894.376L217.809 884.581C211.838 884.248 205.914 884.357 199.938 884.395L199.96 894.338C192.442 894.408 184.925 894.408 177.409 894.338L177.242 884.594C184.725 884.626 192.375 884.453 199.886 884.427L199.806 867.111C207.003 867.464 215.094 867.303 222.358 867.316L222.332 851.852H271.1L271.132 827.732L253.88 827.674C253.796 814.791 253.889 801.915 254.158 789.032L199.166 788.923L199.123 772.728L182.645 772.766L182.688 755.22L166 755.226L166.026 567.536L182.693 567.6L182.7 550.854L199.993 550.969L199.909 534.813C211.864 535.056 224.378 534.883 236.377 534.902L236.441 450.989L253.757 450.905L253.794 312.728C260.221 312.744 266.647 312.81 273.073 312.924C272.869 300.767 273.015 288.23 273.004 276.043L291.327 276.032C291.739 271.931 291.452 261.974 291.454 257.444L310.374 257.517C310.316 251.449 310.329 245.38 310.412 239.313C316.635 239.49 323.528 239.322 329.801 239.301L329.778 222.308C340.54 222.545 351.931 222.354 362.741 222.345C362.679 216.952 362.778 211.41 362.807 206.004L410.063 205.968L410.072 172.61L428.039 172.765L427.978 140.422L446.51 140.655L446.406 122.319L465.009 122.418L465.018 105Z" fill="#584840"/>
<path d="M655.527 447.582C660.05 447.209 666.93 446.82 671.459 447.157L671.408 456.672L671.216 471.685L671.35 481.532L666.277 481.605L666.334 470.454C662.503 470.48 658.672 470.453 654.842 470.372L654.822 456.073L655.034 452.114C655.463 451.196 655.456 448.757 655.527 447.582Z" fill="#115455"/>
<path d="M350.584 621.246L668.128 621.393L668.032 636.461C674.323 635.859 680.467 636.032 686.777 636.089C686.738 641.951 686.809 648.146 686.623 653.976L704.215 654.065C703.792 712.958 705.182 774.118 704.003 832.71L685.752 832.825L685.476 848.155L668.077 848.149C667.981 855.529 667.987 862.909 668.109 870.283C674.573 870.321 681.03 870.417 687.488 870.558C694.605 870.532 701.723 870.558 708.84 870.635L709.186 855.33C715.944 854.562 722.094 855.407 727.751 854.831C732.152 856.022 733.69 855.305 737.565 855.933C739.564 856.15 744.305 856.01 746.509 856.01C746.361 848.687 745.906 834.593 746.714 827.713C747.38 834.497 747.06 844.997 746.887 851.935L799.636 851.865L799.623 867.265L823.153 867.323L823.166 884.447L843.525 884.697L843.576 894.389L822.692 894.473L822.794 884.408L802.864 884.396L802.916 894.55C790.455 894.415 777.989 894.46 765.529 894.665C765.503 901.475 765.221 910.187 765.49 916.843C747.104 917.484 726.425 917.023 707.943 916.971L707.917 933.602C694.522 934.018 679.403 933.596 665.873 933.57L581.958 933.576L314.57 933.499L314.497 916.997C292.605 916.907 269.542 917.477 247.842 916.792C247.494 909.937 247.591 901.52 247.489 894.543C237.791 894.306 227.6 894.415 217.864 894.377L217.808 884.581C211.838 884.248 205.914 884.357 199.938 884.396L199.959 894.338C192.442 894.409 184.925 894.409 177.409 894.338L177.242 884.594C184.725 884.626 192.374 884.453 199.886 884.428L199.806 867.112C207.003 867.464 215.094 867.304 222.358 867.317L222.332 851.852H271.099C271.137 854.523 270.677 854.389 271.994 855.984C277.759 857.829 283.868 856.592 290.178 856.727L289.927 873.037L309.248 873.127L309.353 889.841L331.891 889.937C332.23 884.114 332.079 876.516 332.138 870.552C337.663 870.302 344.349 870.449 349.966 870.417C349.855 862.518 349.869 854.619 350.008 846.727L331.327 846.765L331.263 832.467C325.052 832.133 319.522 832.428 313.335 832.684L313.349 716.577C313.41 695.917 313.919 674.54 313.372 653.956C319.498 654.02 325.871 654.181 331.974 654.129L331.742 636.07C337.921 636.089 344.268 636.192 350.432 636.057L350.584 621.246Z" fill="#302E2E"/>
<path d="M646.5 889.277C652.125 889.988 661.856 889.066 665.149 889.783L664.97 907.695L647.205 907.657C647.199 911.558 647.41 915.716 647.545 919.637C621.92 918.471 587.236 919.528 560.83 919.464L373.809 919.515L373.769 907.766L357.347 907.683L357.339 889.86C363.084 889.092 368.524 889.553 374.246 889.406L374.203 899.534L646.436 899.463L646.5 889.277Z" fill="#302E2E"/>
<path d="M709.186 855.331C715.945 854.562 722.095 855.408 727.751 854.831C732.153 856.023 733.69 855.305 737.566 855.933C734.036 856.196 731.493 856.336 727.931 856.311L727.886 873.063C721.704 873.057 715.516 873.076 709.327 873.134L709.314 889.931L686.918 889.976C686.95 883.159 687.078 877.387 687.488 870.558C694.605 870.533 701.723 870.558 708.84 870.635L709.186 855.331Z" fill="#302E2E"/>
<path d="M668.109 870.282C674.572 870.321 681.03 870.417 687.487 870.558C687.077 877.387 686.949 883.159 686.917 889.975C683.17 889.994 667.801 890.238 665.149 889.783C661.856 889.065 652.125 889.988 646.5 889.277L646.436 899.463L374.203 899.533L374.246 889.405C368.523 889.552 363.084 889.091 357.339 889.86C352.813 890.379 337.227 889.956 331.891 889.937C332.23 884.113 332.079 876.515 332.137 870.551C337.663 870.301 344.348 870.449 349.966 870.417L349.974 883.953C365.788 885.273 381.271 884.549 397.134 884.485L469.908 884.466L638.198 884.536C648.044 884.478 658.614 885.164 668.109 885.017V870.282Z" fill="#393231"/>
<path d="M350.908 637.057L549.145 637.166C588.281 637.159 628.986 637.768 667.955 637.108C667.833 642.662 667.616 648.473 667.661 654.008C671.389 654.104 683.599 653.995 686.245 654.488L686.168 668.723L686.162 706.597L686.066 724.034C680.121 724.034 673.932 724.124 668.013 723.932L668.032 741.069C662.35 741.075 656.437 741.171 650.78 741.062C650.71 746.117 650.409 753.048 650.69 757.955C644.393 758.058 638.089 758.071 631.792 757.994L555.058 758.045L540.817 758.154C540.753 763.804 540.644 769.474 540.804 775.124L527.767 775.06C527.767 778.955 527.658 782.959 527.607 786.867C515.48 786.726 503.219 786.816 491.086 786.809C491.005 783.042 491.13 778.897 491.175 775.099H477.619C477.713 769.442 477.752 763.791 477.736 758.135L462.572 758.039L388.227 758.064C381.725 758.391 375.596 758.148 369.107 757.962C369.015 752.228 368.984 746.495 369.015 740.761C362.842 741.062 356.511 740.812 350.32 740.671C350.329 735.104 350.369 729.544 350.44 723.983L332.279 724.015C331.996 711.901 331.321 683.918 332.425 672.599L332.356 672.073C332.342 667.544 330.771 657.127 333.774 654.123L336.648 654.155C341.339 654.014 345.268 654.398 350.098 653.854L350.8 652.925C350.897 647.633 350.934 642.342 350.908 637.057Z" fill="#299F98"/>
<path d="M350.908 637.057L549.145 637.166C588.281 637.159 628.986 637.768 667.955 637.108C667.834 642.662 667.616 648.473 667.661 654.008L462.474 654.104L383.06 654.033C373.648 654.008 364.247 653.95 354.833 654.174C352.248 654.238 352.054 654.277 350.8 652.925C350.897 647.633 350.934 642.342 350.908 637.057Z" fill="#38B1A5"/>
<path d="M495.973 737.93C504.73 738.282 513.494 738.314 522.252 738.026C522.187 744.182 522.168 750.332 522.187 756.482C528.337 756.399 534.494 756.393 540.644 756.45L540.817 758.154C540.753 763.805 540.644 769.474 540.804 775.124L527.767 775.06C527.767 778.955 527.658 782.959 527.607 786.867C515.48 786.726 503.219 786.816 491.086 786.809C491.005 783.043 491.13 778.898 491.175 775.099H477.619C477.713 769.442 477.752 763.792 477.736 758.135L477.861 756.463C483.845 756.418 490.004 756.284 495.973 756.386C496.082 750.236 496.082 744.086 495.973 737.93Z" fill="#FAB417"/>
<path d="M488.26 720.05L529.811 720.069L529.702 730.908L540.74 730.819L540.784 741.254C540.759 745.918 540.9 751.895 540.644 756.45C534.494 756.392 528.337 756.399 522.187 756.482C522.168 750.332 522.187 744.182 522.251 738.026C513.494 738.314 504.73 738.282 495.973 737.93C496.082 744.086 496.082 750.236 495.973 756.386C490.004 756.284 483.844 756.418 477.861 756.463L477.671 741.453L477.564 730.889L488.315 730.883L488.26 720.05Z" fill="#FAC23B"/>
<path d="M332.279 724.015C331.996 711.901 331.321 683.918 332.425 672.599C333.165 681.99 332.694 696.789 332.677 706.571C338.539 706.597 344.588 706.705 350.432 706.622C350.522 712.221 350.726 718.173 350.665 723.74C356.659 723.817 363.046 724.009 369.008 723.9L369.165 740.454C375.543 740.364 381.921 740.37 388.299 740.473L388.227 758.064C381.725 758.391 375.596 758.148 369.107 757.962C369.015 752.228 368.984 746.495 369.015 740.761C362.842 741.062 356.511 740.812 350.32 740.671C350.329 735.104 350.369 729.544 350.44 723.983L332.279 724.015Z" fill="#176D6C"/>
<path d="M667.757 706.59C673.843 706.513 680.063 706.59 686.162 706.596L686.066 724.034C680.121 724.034 673.932 724.123 668.013 723.931L668.032 741.068C662.35 741.074 656.437 741.17 650.78 741.062C650.71 746.116 650.409 753.048 650.69 757.955C644.393 758.057 638.089 758.07 631.792 757.993L631.946 740.62C638.128 740.408 644.348 740.517 650.543 740.562L650.434 723.842L667.712 723.758C667.923 717.576 668.064 712.804 667.757 706.59Z" fill="#176D6C"/>
<path d="M332.356 672.073C332.342 667.544 330.771 657.128 333.773 654.123L336.648 654.155C341.005 655.167 346.141 654.879 350.621 654.616C350.565 660.459 350.418 666.519 350.456 672.342C344.533 672.381 338.226 672.573 332.356 672.073Z" fill="#38B1A5"/>
<path d="M686.245 654.488L686.168 668.723C685.822 670.421 685.944 670.389 684.727 671.58C679.935 672.74 673.112 672.202 668.045 672.08L667.885 654.764C673.388 654.898 680.941 655.123 686.245 654.488Z" fill="#38B1A5"/>
<path d="M462.723 741.356L477.671 741.452L477.861 756.462L477.737 758.134L462.572 758.038L462.723 741.356Z" fill="#176D6C"/>
<path d="M540.784 741.254L554.981 741.273C555.038 746.642 555.243 752.74 555.058 758.045L540.817 758.154L540.644 756.45C540.9 751.895 540.759 745.918 540.784 741.254Z" fill="#176D6C"/>
<path d="M651.082 758.334C657.219 758.327 662.735 758.372 668.878 757.821L685.361 757.776L685.413 817.636L668.199 817.835C668.18 824.241 668.071 830.884 668.141 837.272L650.595 837.233L650.473 852.256L650.652 868.271C642.17 868.329 609.095 869.661 602.99 868.162C596.026 868.566 585.956 868.265 578.819 868.271H532.47L387.491 868.297C381.268 868.15 374.842 868.246 368.602 868.252C368.824 858.181 368.266 847.214 368.9 837.265L349.83 837.278C349.933 830.827 349.858 824.164 349.862 817.688C344.107 817.809 338.133 817.72 332.36 817.713L332.494 757.783L343.073 757.892C349.578 757.501 361.575 758.314 368.838 758.411L368.929 775.06L388.833 775.092L477.541 775.112L477.337 792.178L477.327 808.11C477.337 812.319 477.521 818.206 477.276 822.281L490.791 822.454L491.318 836.804L493.513 836.964C503.398 837.688 517.62 837.214 527.819 837.214L527.684 822.223L540.747 822.236L540.811 813.575C540.164 803.991 540.772 785.349 540.804 775.124C547.031 775.124 555.423 774.907 561.484 775.189L631.248 775.124C637.846 775.169 644.438 775.156 651.037 775.092L651.082 758.334Z" fill="#176D6C"/>
<path d="M368.929 775.06L388.832 775.092L477.54 775.111L477.337 792.177L477.327 808.109C477.337 812.318 477.52 818.206 477.276 822.28L490.79 822.453L491.318 836.803L493.513 836.963L493.321 846.252C497.863 846.118 502.488 845.144 505.711 847.572C506.646 849.942 506.639 848.821 506.05 851.038C503.462 852.908 469.762 852.101 463.541 852.088L387.65 852.031L387.728 836.188C382.224 836.681 374.072 836.579 368.367 836.675C368.541 830.397 368.751 824.119 368.999 817.841L350.388 818.026C350.201 803.76 350.096 789.493 350.071 775.233L368.541 775.2L368.929 775.06Z" fill="#218D87"/>
<path d="M388.832 775.092L477.54 775.111L477.336 792.177C462.726 792.555 448.16 791.191 432.414 791.902L388.838 791.915L388.832 775.092Z" fill="#146060"/>
<path d="M368.929 775.06L388.832 775.092L388.838 791.914L368.909 791.972C368.885 787.77 369.287 778.878 368.541 775.2L368.929 775.06Z" fill="#176D6C"/>
<path d="M432.415 791.902C448.161 791.191 462.726 792.556 477.337 792.178L477.327 808.11C473.359 807.732 467.091 807.802 462.944 807.726C462.706 802.742 462.676 797.444 462.56 792.434C452.537 791.947 442.449 792.453 432.415 791.902Z" fill="#176D6C"/>
<path d="M477.276 822.28L490.79 822.453L491.317 836.803C489.647 836.099 479.871 836.97 477.395 837.104C477.193 831.826 477.084 827.54 477.276 822.28Z" fill="#176D6C"/>
<path d="M651.036 775.092L651.465 775.208L668.179 775.182C667.987 789.385 667.955 803.587 668.096 817.796L650.306 817.899L650.421 836.669C644.265 836.342 638.102 836.214 631.933 836.298L632.234 852.07L556.429 852.108C545.506 852.108 534.596 852.108 523.673 852.275C521.732 852.307 518.888 850.628 518.119 848.77C520.182 844.273 532.629 846.118 537.383 846.016L537.447 834.715C543.148 834.593 548.984 834.401 554.673 834.485C554.833 820.308 554.878 806.118 554.808 791.941C549.901 792.21 546.236 792.447 541.348 792.165C541.431 799.583 541.63 806.169 540.81 813.575C540.163 803.991 540.772 785.349 540.804 775.124C547.031 775.124 555.423 774.906 561.483 775.188L631.247 775.124C637.846 775.169 644.438 775.156 651.036 775.092Z" fill="#218D87"/>
<path d="M540.804 775.124C547.031 775.124 555.423 774.906 561.483 775.188L631.247 775.124C631.068 780.71 631.004 786.31 631.061 791.902L580.484 791.851C573.854 791.845 561.054 791.435 554.808 791.941C549.901 792.21 546.236 792.447 541.348 792.165C541.432 799.583 541.63 806.169 540.81 813.575C540.163 803.991 540.772 785.349 540.804 775.124Z" fill="#146060"/>
<path d="M540.804 775.124C547.031 775.124 555.423 774.906 561.483 775.188C557.78 775.694 557.748 775.06 555.551 777.117C553.885 781.518 554.93 786.745 554.648 791.659C552.117 791.64 543.02 791.287 541.348 792.165C541.432 799.583 541.63 806.169 540.81 813.575C540.163 803.991 540.772 785.349 540.804 775.124Z" fill="#115455"/>
<path d="M651.036 775.092L651.465 775.207C650.729 780.345 650.908 786.591 650.972 791.857L631.062 791.902C631.004 786.309 631.068 780.71 631.247 775.124C637.846 775.169 644.438 775.156 651.036 775.092Z" fill="#176D6C"/>
<path d="M343.072 757.892C349.577 757.501 361.574 758.314 368.838 758.411L368.929 775.06L368.541 775.201L350.071 775.233C349.738 769.417 351.072 763.363 349.211 759.596C346.765 757.783 346.601 758.327 343.072 757.892Z" fill="#115455"/>
<path d="M650.472 852.255L650.652 868.271C642.17 868.328 609.094 869.661 602.989 868.162C606.769 867.451 627.141 867.758 631.747 867.784L632.029 852.012C638.172 852.255 644.322 852.338 650.472 852.255Z" fill="#146060"/>
<path d="M368.899 837.265C369.521 841.57 369.156 847.893 369.04 852.415L387.959 852.012C387.842 857.438 387.686 862.87 387.49 868.296C381.267 868.149 374.842 868.245 368.602 868.252C368.824 858.181 368.266 847.214 368.899 837.265Z" fill="#146060"/>
<path d="M651.081 758.333C657.218 758.326 662.734 758.371 668.878 757.82C667.692 761.273 668.435 770.844 668.179 775.181L651.465 775.207L651.036 775.092L651.081 758.333Z" fill="#115455"/>
<path d="M491.318 806.842L527.389 806.867L527.53 822.101L491.361 821.967L491.318 806.842Z" fill="#393231"/>
<path d="M465.018 105L553.706 105.022L553.655 122.373L572.508 122.356C572.367 128.435 572.355 134.517 572.464 140.596L590.516 140.448L590.574 172.801L608.627 172.751L608.595 206.339L655.29 206.324L655.046 223.248C666.206 223.361 677.513 223.254 688.686 223.24C688.795 229.136 687.462 233.544 689.32 238.796C691.158 240.285 691.088 239.777 694.061 239.914C691.889 240.271 690.896 240.534 688.673 240.347C685.233 239.879 675.303 240.114 671.382 240.112L671.434 257.421C671.37 311.393 670.62 367.383 671.389 421.221L671.459 447.157C666.93 446.82 660.05 447.209 655.527 447.582C655.456 448.757 655.463 451.196 655.034 452.114L654.822 456.073L608.537 455.842L608.544 470.41C604.738 470.438 600.222 469.921 596.686 470.823C595.212 472.744 595.776 471.648 595.507 474.498C595.737 476.298 596.013 478.161 596.141 479.966L595.391 481.527C593.361 482.114 593.066 481.875 591.003 481.477C588.729 481.697 588.639 481.311 587.198 482.525C586.564 488.436 586.922 500.005 586.974 506.394C546.941 505.818 506.492 507.362 466.405 506.497C455.157 506.26 442.858 505.844 431.723 506.439C431.875 498.282 431.68 489.775 431.595 481.587L429.903 481.832C427.971 481.863 425.315 482.195 423.846 481.206C423.702 477.735 423.746 473.83 423.705 470.32L410.979 470.282L410.891 460.931L410.816 455.746L410.765 238.953C401.69 239.638 373.63 239.637 363.698 239.352L363.005 238.457L362.945 239.784C357.77 239.881 352.409 240.062 347.255 239.882L347.23 257.403C341.63 257.722 335.496 257.481 329.847 257.379L329.195 257.787L329.341 276.123C324.215 276.106 315.426 275.819 310.6 276.319C306.452 276.888 296.494 276.374 291.594 276.45L291.327 276.032C291.739 271.931 291.452 261.974 291.454 257.444L310.374 257.517C310.316 251.449 310.329 245.38 310.412 239.313C316.634 239.49 323.528 239.322 329.801 239.301L329.777 222.308C340.54 222.545 351.931 222.354 362.741 222.345C362.679 216.952 362.777 211.41 362.807 206.004L410.063 205.968L410.072 172.61L428.039 172.765L427.978 140.422L446.51 140.655L446.406 122.319L465.009 122.418L465.018 105Z" fill="#584840"/>
<path d="M465.018 105L553.706 105.022L553.655 122.373L572.508 122.356C572.367 128.435 572.355 134.517 572.464 140.596L590.516 140.448L590.574 172.801L608.627 172.751L608.595 206.339L655.29 206.324L655.046 223.248C666.206 223.361 677.513 223.254 688.686 223.24C688.795 229.136 687.462 233.544 689.32 238.796C691.158 240.285 691.088 239.777 694.061 239.914C691.889 240.271 690.896 240.534 688.673 240.347C685.233 239.879 675.303 240.114 671.382 240.112C666.462 240.086 660.607 239.9 655.79 240.297L654.931 241.367L654.841 239.556C639.447 239.632 624.047 239.581 608.646 239.403C604.77 239.83 594.488 239.525 590.132 239.515L590.094 223.559L428.592 223.616L428.6 239.333L411.311 239.506C411.41 234.421 411.747 227.551 411.212 222.637C410.595 227.973 410.751 233.564 410.765 238.953C401.69 239.638 373.63 239.637 363.698 239.352L363.005 238.457L362.945 239.784C357.77 239.881 352.409 240.062 347.255 239.882L347.23 257.403C341.63 257.722 335.496 257.481 329.847 257.379L329.195 257.787L329.341 276.123C324.215 276.106 315.426 275.819 310.6 276.319C306.452 276.888 296.494 276.374 291.594 276.45L291.327 276.032C291.739 271.931 291.452 261.974 291.454 257.444L310.374 257.517C310.316 251.449 310.329 245.38 310.412 239.313C316.634 239.49 323.528 239.322 329.801 239.301L329.777 222.308C340.54 222.545 351.931 222.354 362.741 222.345C362.679 216.952 362.777 211.41 362.807 206.004L410.063 205.968L410.072 172.61L428.039 172.765L427.978 140.422L446.51 140.655L446.406 122.319L465.009 122.418L465.018 105Z" fill="#393231"/>
<path d="M362.938 222.615C379.029 222.508 395.121 222.515 411.212 222.636C410.595 227.973 410.751 233.564 410.765 238.953C401.69 239.638 373.629 239.637 363.698 239.352L363.005 238.457L362.938 222.615Z" fill="#FAC23B"/>
<path d="M608.473 223.417C623.822 223.409 639.671 223.598 654.976 223.345L654.841 239.556C639.447 239.632 624.046 239.581 608.646 239.403L608.473 223.417Z" fill="#FAC23B"/>
<path d="M310.491 257.813C316.656 257.938 323.014 257.822 329.195 257.787L329.342 276.123C324.215 276.106 315.427 275.819 310.6 276.319L310.491 257.813Z" fill="#38B1A5"/>
<path d="M329.852 239.594C335.653 239.647 341.455 239.743 347.255 239.882L347.23 257.403C341.63 257.723 335.496 257.481 329.847 257.379L329.852 239.594Z" fill="#38B1A5"/>
<path d="M465.128 122.836C494.57 123.049 524.007 123.095 553.45 122.973L553.373 140.988L572.175 140.975C572.175 150.444 572.675 163.962 572.227 173.065C566.089 173.044 559.017 174.559 554.597 172.075C553.194 169.625 553.7 168.713 553.719 165.601C547.806 165.803 541.585 165.688 535.647 165.673C535.743 160.484 535.73 155.232 535.769 150.036L482.673 149.94C482.513 155.635 482.662 160.004 482.964 165.712C477.142 165.749 470.93 165.516 465.079 165.4L465.049 173.012L446.59 173.103C446.596 162.471 446.747 151.446 446.502 140.848C452.714 140.976 459.157 141.199 465.352 141.132C465.272 135.083 465.11 128.869 465.128 122.836Z" fill="#584840"/>
<path d="M483.814 168.521L534.981 168.562L534.968 184.398L552.726 184.477C552.38 191.237 552.566 198.989 552.566 205.824L535.147 205.804L466.397 205.81L466.438 184.519L484.133 184.501L483.814 168.521Z" fill="white" fill-opacity="0.5"/>
<path d="M446.591 173.103C446.291 183.735 446.522 195.3 446.535 206.001C442.874 206.057 431.219 206.536 428.533 205.763C428.545 194.929 428.718 183.705 428.079 172.925C434.82 173.264 439.834 173.673 446.591 173.103Z" fill="#59463F"/>
<path d="M572.227 173.066C578.947 173.336 583.361 173.499 590.126 173.012L590.01 206.129L572.297 206.291C572.316 195.936 572.771 183.178 572.227 173.066Z" fill="#59463F"/>
<path d="M608.646 239.403C624.047 239.581 639.448 239.632 654.842 239.556L654.932 241.367L655.79 240.297C660.607 239.9 666.463 240.086 671.383 240.112L671.434 257.421C671.37 311.393 670.62 367.383 671.389 421.222L671.46 447.157C666.93 446.82 660.05 447.209 655.527 447.582C655.457 448.757 655.463 451.196 655.034 452.114L654.823 456.074L608.537 455.842L608.499 450.054L608.646 239.403Z" fill="#FAB417"/>
<path d="M654.931 241.367L655.789 240.297C660.607 239.9 666.462 240.086 671.382 240.112L671.433 257.421C671.369 311.393 670.62 367.383 671.389 421.221L671.459 447.157C666.93 446.82 660.05 447.209 655.527 447.582C655.456 448.757 655.463 451.196 655.034 452.114C654.547 447.56 654.841 435.18 654.841 430.276L654.873 385.075L654.931 241.367Z" fill="#176D6C"/>
<path d="M655.681 421.198C660.511 421.097 666.693 420.784 671.389 421.221L671.46 447.157C666.931 446.82 660.05 447.209 655.527 447.582C655.63 438.788 655.681 429.993 655.681 421.198Z" fill="#146060"/>
<path d="M411.603 429.363C417.889 429.753 422.344 429.544 428.602 429.265C428.703 439.592 428.583 450.072 428.555 460.412C434.834 460.093 441.507 460.06 447.821 459.921C447.936 468.868 447.848 478.007 447.859 486.971C482.132 487.547 519.01 486.821 553.501 486.783C553.597 477.916 553.616 469.049 553.565 460.181C559.805 460.404 565.827 460.15 572.054 459.949L572.047 446.449C578.255 446.49 584.463 446.603 590.67 446.785L590.773 431.281C595.834 430.798 602.631 431.093 607.839 431.17C607.813 436.174 607.442 445.501 608.499 450.054L608.537 455.842L608.544 470.41C604.738 470.438 600.222 469.921 596.686 470.823C595.212 472.745 595.776 471.648 595.507 474.498C595.738 476.298 596.013 478.161 596.141 479.966L595.392 481.527C593.361 482.114 593.066 481.875 591.003 481.478C588.729 481.697 588.639 481.311 587.198 482.525C586.564 488.436 586.923 500.005 586.974 506.395C546.941 505.818 506.492 507.362 466.405 506.497C455.157 506.26 442.858 505.844 431.723 506.439C431.875 498.282 431.681 489.776 431.595 481.587L429.903 481.832C427.971 481.863 425.315 482.195 423.846 481.207C423.702 477.736 423.746 473.83 423.705 470.32L410.979 470.282L410.892 460.931C411.683 457.058 411.51 451.54 411.53 447.456L411.603 429.363Z" fill="#59463F"/>
<path d="M590.772 431.28C595.833 430.797 602.63 431.093 607.838 431.17C607.813 436.173 607.441 445.5 608.498 450.053L608.537 455.842L608.543 470.41C604.738 470.438 600.221 469.92 596.685 470.823C595.212 472.744 595.775 471.647 595.506 474.498C595.737 476.298 596.012 478.161 596.141 479.965L595.391 481.527C593.36 482.114 593.066 481.875 591.003 481.477C588.728 481.697 588.639 481.311 587.197 482.525C586.563 488.436 586.922 500.005 586.973 506.394C546.941 505.818 506.491 507.362 466.404 506.497C455.157 506.26 442.858 505.843 431.722 506.439C431.875 498.282 431.68 489.775 431.595 481.587C433.458 480.14 444.141 480.501 447.141 480.53C447.645 488.657 447.707 497.721 447.92 505.927L553.706 505.978L553.635 486.965L572.156 486.996C572.252 478.005 572.188 469.013 571.976 460.025L590.791 460.602L590.67 446.785L590.772 431.28Z" fill="#584840"/>
<path d="M595.506 474.498C595.737 476.298 596.012 478.161 596.141 479.966L595.391 481.527C593.36 482.114 593.066 481.875 591.003 481.478C591.144 479.239 590.51 478.48 591.048 475.432C592.854 474.175 592.867 474.607 595.506 474.498Z" fill="#975E14"/>
<path d="M411.53 447.456C416.106 446.98 423.264 447.401 428.058 447.538C427.813 454.232 427.885 476.245 429.903 481.832C427.971 481.863 425.315 482.195 423.846 481.207C423.702 477.736 423.746 473.83 423.705 470.32L410.979 470.282L410.892 460.931C411.683 457.057 411.51 451.54 411.53 447.456Z" fill="#584840"/>
<path d="M590.715 419.741L607.839 419.639C607.826 423.104 607.666 427.809 607.839 431.171C602.63 431.093 595.833 430.798 590.772 431.281L590.715 419.741Z" fill="#59463F"/>
<path d="M363.006 238.457L363.698 239.352C373.63 239.637 401.69 239.638 410.765 238.954L410.816 455.746C396.312 456.361 377.881 455.886 363.118 455.931L363.017 457.178L363.081 470.414C359.358 470.566 355.631 470.595 351.906 470.5L351.864 481.813L348.068 481.41C345.474 481.643 345.598 481.215 343.88 482.543C343.408 490.433 343.893 498.922 343.845 506.881L343.604 519.905C343.444 521.167 343.437 523.269 342.725 524.018C340.456 526.401 332.406 525.389 328.905 525.287C329.174 519.617 329.034 512.743 329.072 506.984C319.952 507.119 308.293 506.017 299.417 506.817L291.652 506.837C285.39 506.696 279.126 506.709 272.865 506.881C272.64 501.202 272.642 471.603 271.179 468.923L254.458 468.873C255.416 488.265 254.946 510.86 254.893 530.424L273.482 530.341L273.524 826.265C279.278 826.079 285.322 825.791 291.055 825.861L290.868 837.149C294.431 839.02 302.988 837.687 307.454 837.655C307.598 841.339 307.349 853.12 309.388 855.151C310.649 857.675 310.079 867.143 310.075 870.776L332.138 870.551C332.079 876.516 332.23 884.113 331.891 889.937L309.353 889.841L309.248 873.127L289.927 873.037L290.178 856.727C283.869 856.592 277.76 857.829 271.994 855.984C270.677 854.388 271.137 854.523 271.1 851.852L271.132 827.732L253.88 827.674C253.796 814.791 253.889 801.915 254.158 789.032L199.166 788.923L199.123 772.728L182.645 772.766L182.688 755.22L166 755.226L166.026 567.536L182.693 567.6L182.7 550.854L199.993 550.969L199.909 534.813C211.864 535.056 224.378 534.883 236.377 534.902L236.441 450.989L253.757 450.906L253.794 312.728C260.221 312.745 266.647 312.81 273.073 312.924C272.869 300.767 273.015 288.23 273.004 276.043L291.327 276.032L291.594 276.451C296.494 276.374 306.452 276.888 310.6 276.319C315.426 275.819 324.215 276.107 329.341 276.123L329.195 257.787L329.847 257.379C335.497 257.481 341.63 257.723 347.23 257.403L347.255 239.882C352.409 240.062 357.77 239.881 362.945 239.784L363.006 238.457Z" fill="#302E2E"/>
<path d="M363.005 238.457L363.698 239.352C373.629 239.637 401.69 239.638 410.764 238.954L410.816 455.746C396.312 456.361 377.88 455.886 363.117 455.931L363.017 457.178L363.08 470.414C359.357 470.566 355.63 470.595 351.906 470.5L351.863 481.813L348.068 481.41C347.975 478.656 347.413 474.166 347.118 471.358C347.371 466.372 347.246 460.906 347.228 455.873L347.304 447.959L347.23 257.403L347.255 239.882C352.408 240.062 357.77 239.881 362.945 239.784L363.005 238.457Z" fill="#FAB417"/>
<path d="M362.945 239.784L363.117 455.931L363.017 457.178L363.08 470.414C359.357 470.566 355.63 470.595 351.906 470.5L351.863 481.813L348.068 481.409C347.975 478.655 347.413 474.166 347.118 471.358C347.371 466.371 347.246 460.906 347.228 455.873L347.304 447.959L347.23 257.403L347.255 239.882C352.408 240.062 357.77 239.881 362.945 239.784Z" fill="#176D6C"/>
<path d="M347.304 447.959C352.28 447.72 357.705 447.578 362.6 446.903C362.522 450.113 362.147 454.209 363.017 457.178L363.08 470.414C359.357 470.566 355.63 470.595 351.906 470.499L351.863 481.813L348.068 481.409C347.975 478.655 347.413 474.166 347.118 471.358C347.371 466.371 347.246 460.906 347.228 455.873L347.304 447.959Z" fill="#115455"/>
<path d="M347.23 257.403L347.304 447.959L347.229 455.873C347.246 460.906 347.371 466.371 347.119 471.358C334.477 472.439 322.711 471.656 310.12 472.099C304.144 472.067 298.168 471.938 292.196 471.71L292.182 454.93L273.656 454.799L273.616 427.038L273.57 313.102L291.606 313.276C291.446 301.089 291.719 288.733 291.594 276.45C296.494 276.373 306.452 276.888 310.6 276.319C315.426 275.819 324.215 276.106 329.341 276.123L329.195 257.787L329.847 257.379C335.496 257.481 341.63 257.722 347.23 257.403Z" fill="#299F98"/>
<path d="M273.616 427.039C279.751 426.978 286.035 426.988 292.155 426.817C292.013 436.158 292.014 445.501 292.158 454.842L310.143 454.982C310.176 460.164 310.061 466.147 310.261 471.258L310.12 472.1C304.145 472.068 298.169 471.939 292.197 471.71L292.183 454.931L273.657 454.8L273.616 427.039Z" fill="#176D6C"/>
<path d="M329.628 455.691C335.402 456.046 341.426 455.905 347.229 455.873C347.246 460.906 347.371 466.371 347.119 471.358C334.477 472.439 322.712 471.656 310.12 472.099L310.261 471.257C313.465 471.618 326.203 471.398 330.031 471.406L329.628 455.691Z" fill="#218D87"/>
<path d="M292.637 295.562C297.695 296.203 304.791 295.892 310.04 295.822C309.873 307.243 310.635 321.352 309.915 332.471C303.76 332.642 297.604 332.717 291.447 332.695C291.636 325.023 291.635 301.984 292.637 295.562Z" fill="#38B1A5"/>
<path d="M347.119 471.358C347.414 474.166 347.976 478.656 348.068 481.41C345.474 481.643 345.598 481.215 343.88 482.544C343.408 490.434 343.893 498.922 343.845 506.882L329.459 506.715L329.458 488.779L310.261 488.636L310.12 472.1C322.712 471.656 334.477 472.44 347.119 471.358Z" fill="#176D6C"/>
<path d="M271.179 468.923L272.541 469.448C273.357 472.961 273.06 481.541 273.054 485.534C279.851 485.154 285.138 484.927 291.99 485.379C291.971 492.533 291.858 499.686 291.651 506.837C285.39 506.696 279.126 506.709 272.865 506.882C272.639 501.202 272.642 471.603 271.179 468.923Z" fill="#393231"/>
<path d="M290.868 837.149C294.431 839.02 302.988 837.688 307.454 837.656C307.598 841.339 307.35 853.12 309.388 855.151L290.993 855.068C291.144 849.347 290.931 842.921 290.868 837.149Z" fill="#393231"/>
<path d="M200.222 621.329C210.36 621.342 230.318 620.81 239.754 621.47L240.29 621.585L254.227 621.444C254.326 632.963 253.641 652.56 254.491 663.341L254.613 734.777L254.431 771.536C241.395 771.69 228.357 771.684 215.322 771.511C209.776 771.466 204.791 771.6 199.247 771.837C199.308 766.11 199.415 760.55 199.123 754.823L182.879 754.912C182.337 712.317 181.71 663.847 182.758 621.489L183.276 621.457C188.924 621.374 194.573 621.329 200.222 621.329Z" fill="#299F98"/>
<path d="M240.289 621.585L254.227 621.444C254.326 632.963 253.641 652.56 254.491 663.341L254.613 734.777L254.431 771.536C241.394 771.69 228.357 771.684 215.322 771.511C209.776 771.466 204.79 771.6 199.247 771.837C199.307 766.11 199.415 760.55 199.123 754.823L199.546 754.624C198.968 751.747 199.539 738.903 199.643 735.328C194.204 735.014 188.61 735.578 183.215 734.976C188.296 734.329 194.537 734.54 199.747 734.56L199.912 716.686C206.115 716.84 212.547 716.763 218.77 716.776C218.227 705.994 218.885 690.927 218.889 679.652C225.87 679.824 232.853 679.882 239.835 679.831C239.502 660.382 239.475 640.926 239.754 621.47L240.289 621.585Z" fill="#218D87"/>
<path d="M240.29 621.585L254.227 621.444C254.326 632.963 253.641 652.56 254.491 663.341L254.613 734.777C251.916 734.803 242.397 734.726 240.376 735.296L240.248 734.899C240.686 697.493 240.258 659.062 240.29 621.585Z" fill="#176D6C"/>
<path d="M240.375 735.296C242.397 734.726 251.916 734.803 254.613 734.777L254.431 771.536C241.395 771.69 228.357 771.684 215.322 771.511C209.776 771.466 204.791 771.6 199.247 771.837C199.308 766.11 199.415 760.55 199.123 754.823L199.546 754.624L215.293 754.541L219.619 754.566C225.879 755.918 233.607 755.111 240.049 754.611L240.375 735.296Z" fill="#146060"/>
<path d="M199.546 754.624L215.293 754.541C215.405 760.127 215.632 765.963 215.322 771.511C209.776 771.466 204.791 771.601 199.247 771.838C199.308 766.111 199.415 760.55 199.123 754.823L199.546 754.624Z" fill="#176D6C"/>
<path d="M219.741 734.765C226.576 734.899 233.412 734.944 240.248 734.899L240.375 735.296L240.049 754.611C233.607 755.111 225.879 755.918 219.619 754.566L219.741 734.765Z" fill="#176D6C"/>
<path d="M182.758 621.489L183.276 621.457L183.174 639.51L183.215 734.976C188.61 735.578 194.204 735.014 199.643 735.328C199.539 738.903 198.968 751.747 199.547 754.624L199.123 754.822L182.879 754.912C182.337 712.317 181.71 663.847 182.758 621.489Z" fill="#176D6C"/>
<path d="M183.276 621.457C188.924 621.374 194.572 621.329 200.222 621.329C200.029 627.293 199.942 633.258 199.957 639.228C195.027 639.408 187.93 639.875 183.174 639.51L183.276 621.457Z" fill="#38B1A5"/>
<path d="M240.17 551.642L254.745 551.546C254.392 569.624 255.029 587.978 254.647 605.897C254.868 622.988 255.565 646.512 254.491 663.341C253.641 652.56 254.326 632.963 254.227 621.444L240.289 621.585L239.754 621.47C230.318 620.81 210.359 621.342 200.222 621.329C194.573 621.329 188.924 621.374 183.276 621.457L182.757 621.489C183.022 616.095 182.881 611.329 182.736 605.954C182.983 599.471 182.875 592.745 182.863 586.242L182.97 567.978L200.065 568.055L200.272 567.715C200.765 563.269 200.499 556.21 200.461 551.546C213.536 551.802 227.062 551.636 240.17 551.642Z" fill="#E27E08"/>
<path d="M200.461 551.546C213.536 551.802 227.062 551.636 240.17 551.642C240.371 557.139 240.432 562.648 240.354 568.151L240.401 587.363L199.79 587.19C199.861 593.199 200.01 599.356 199.89 605.352C196.794 605.454 190.902 605.499 188.063 605.865L182.736 605.954C182.983 599.471 182.875 592.745 182.863 586.242L182.97 567.978L200.065 568.055L200.272 567.715C200.765 563.269 200.499 556.21 200.461 551.546Z" fill="#FAB417"/>
<path d="M200.46 551.546C213.536 551.802 227.061 551.636 240.17 551.642C240.37 557.139 240.431 562.648 240.353 568.151C227.123 567.651 213.541 568.51 200.271 567.715C200.764 563.269 200.498 556.21 200.46 551.546Z" fill="#FAC23B"/>
<path d="M182.969 567.978L200.065 568.054L199.943 586.934C196.859 586.953 184.621 587.51 182.862 586.242L182.969 567.978Z" fill="#FAC23B"/>
<path d="M188.063 605.864C210.258 605.986 232.453 605.999 254.647 605.896C254.868 622.988 255.565 646.512 254.491 663.341C253.641 652.559 254.326 632.963 254.227 621.444L240.289 621.585L239.754 621.47C230.318 620.81 210.359 621.342 200.222 621.329C194.573 621.329 188.924 621.374 183.276 621.457L182.757 621.489C183.022 616.095 182.881 611.329 182.736 605.954L188.063 605.864Z" fill="#115455"/>
<path d="M240.401 587.363C240.457 593.36 240.587 599.356 240.789 605.352C228.147 605.301 212.261 604.84 199.891 605.352C200.01 599.356 199.861 593.199 199.79 587.19L240.401 587.363Z" fill="#FAC23B"/>
<path d="M694.06 239.914C698.673 239.622 703.183 239.761 707.802 239.834L707.827 258.092L726.053 258.08L726.002 276.069L744.388 276.03C744.279 288.301 744.266 300.573 744.349 312.844L762.498 313.095L762.517 450.974L779.257 450.98L779.379 535.011L809.193 535.03L809.174 550.892L825.856 550.911L825.837 567.01C831.103 567.081 837.028 567.292 842.237 567.087L842.115 755.886C836.798 755.867 831.09 755.963 825.805 755.796L825.856 772.914L809.219 772.734L809.213 788.916C794.485 788.827 778.623 788.603 763.92 788.955L763.863 827.719L746.713 827.713C745.906 834.593 746.361 848.687 746.508 856.009C744.304 856.009 739.564 856.15 737.565 855.932C733.689 855.304 732.152 856.022 727.751 854.83L728.02 838.206L727.828 825.772C733.343 825.97 739 825.906 744.535 825.913L744.465 530.405L761.691 530.443C761.845 522.698 761.717 514.53 761.71 506.753C750.32 506.362 738.116 506.888 726.482 506.74L707.853 506.804C707.853 512.858 707.795 519.015 707.872 525.062L688.942 525.158C688.64 537.516 688.468 549.88 688.436 562.25C682.465 562.167 676.501 562.122 670.53 562.122C670.556 566.184 671.299 578.625 669.121 581.36C667.506 581.559 666.058 581.392 665.271 582.462C663.355 585.05 663.983 591.405 664.053 594.801L655.097 594.89C655.001 598.023 654.976 603.782 654.476 606.684C653.451 601.354 654.924 586.889 653.726 582.686C651.491 582.411 649.248 582.123 647.013 581.822C649.883 581.546 652.131 581.822 654.207 580.355L654.2 578.394C654.86 571.046 654.508 556.113 654.764 547.728L666.462 547.689L666.52 537.285L674.496 537.356L674.572 506.92C674.592 502.23 675.399 484.463 673.611 481.835L671.35 481.532L671.216 471.685L671.408 456.672L671.459 447.157L671.388 421.221C670.62 367.383 671.369 311.393 671.433 257.421L671.382 240.112C675.303 240.113 685.232 239.879 688.673 240.347C690.896 240.534 691.888 240.27 694.06 239.914Z" fill="#302E2E"/>
<path d="M694.061 239.914C698.673 239.622 703.183 239.761 707.802 239.834L707.828 258.092C707.847 263.011 708.091 270.214 707.636 274.934L708.443 276.311C712.466 277.206 721.646 276.511 725.996 276.296C725.97 282.739 725.823 289.613 726.009 296.018L725.99 299.127C725.452 310.146 726.111 321.188 725.932 332.131C725.407 363.269 725.804 395.575 725.919 426.763C725.906 433.498 725.778 440.645 725.913 447.344C719.936 447.184 713.959 447.099 707.982 447.087C708.007 451.359 708.411 468.608 707.963 471.865L688.891 471.516C682.113 471.856 678.097 471.969 671.216 471.685L671.408 456.672L671.46 447.157L671.389 421.221C670.62 367.383 671.37 311.393 671.434 257.421L671.383 240.112C675.303 240.113 685.233 239.879 688.673 240.347C690.896 240.534 691.889 240.27 694.061 239.914Z" fill="#299F98"/>
<path d="M707.091 275.931L707.635 274.935L708.443 276.312C712.466 277.206 721.646 276.512 725.996 276.297C725.97 282.739 725.823 289.613 726.008 296.019C719.987 296.034 713.971 295.966 707.949 295.814C708.013 290.149 707.725 281.54 707.091 275.931Z" fill="#218D87"/>
<path d="M694.061 239.914C698.673 239.622 703.183 239.761 707.802 239.834L707.828 258.092L704.938 258.23C699.474 257.948 693.004 259.389 689.621 257.191C688.141 255.193 688.57 252.69 688.628 250.096C688.788 247.838 688.667 242.78 688.673 240.347C690.896 240.534 691.889 240.27 694.061 239.914Z" fill="#302E2E"/>
<path d="M707.828 258.092C707.847 263.011 708.091 270.214 707.636 274.934L707.091 275.93C701.358 276.431 694.855 276.274 689.045 276.271C689.218 270.593 689.167 264.588 689.211 258.881C693.971 258.897 700.352 258.858 704.939 258.23L707.828 258.092Z" fill="#38B1A5"/>
<path d="M671.383 240.112C675.303 240.114 685.233 239.879 688.673 240.347C688.667 242.781 688.789 247.838 688.628 250.096C688.097 253.164 688.001 254.537 687.924 257.659C682.722 257.822 676.521 258.127 671.434 257.421L671.383 240.112Z" fill="#38B1A5"/>
<path d="M671.408 456.672C676.764 456.767 683.388 457.068 688.647 456.894L688.891 471.516C682.113 471.857 678.096 471.969 671.216 471.686L671.408 456.672Z" fill="#218D87"/>
<path d="M725.931 332.131C731.921 332.292 737.911 332.359 743.907 332.335C743.907 363.652 744.234 395.456 743.901 426.731C738.347 426.73 731.345 426.521 725.919 426.763C725.803 395.575 725.406 363.269 725.931 332.131Z" fill="#218D87"/>
<path d="M744.958 468.401L761.749 468.404L761.71 506.754C750.32 506.363 738.116 506.888 726.482 506.741C726.54 499.649 726.649 492.504 726.617 485.416L744.888 485.299L744.958 468.401Z" fill="#393231"/>
<path d="M725.919 426.763C731.345 426.521 738.347 426.731 743.901 426.731C743.92 436.1 743.991 445.468 744.119 454.835L726.309 454.804C726.207 460.532 726.213 466.262 726.329 471.989L708.34 472.027L707.962 471.866C708.41 468.608 708.007 451.359 707.981 447.088C713.958 447.099 719.935 447.184 725.912 447.344C725.778 440.646 725.906 433.499 725.919 426.763Z" fill="#176D6C"/>
<path d="M688.891 471.516L707.962 471.865L708.34 472.027C707.885 477.564 708.02 483.278 708.039 488.846L688.852 488.77C688.923 494.829 688.903 500.889 688.807 506.945C684.374 506.92 678.916 506.747 674.573 506.92C674.592 502.23 675.399 484.463 673.612 481.835L671.35 481.532L671.216 471.685C678.096 471.969 682.113 471.856 688.891 471.516Z" fill="#176D6C"/>
<path d="M725.989 299.128C726.303 304.038 726.348 308.421 726.367 313.349L743.85 313.354C743.895 319.565 744.061 326.157 743.908 332.335C737.911 332.36 731.921 332.292 725.932 332.132C726.111 321.189 725.451 310.147 725.989 299.128Z" fill="#176D6C"/>
<path d="M763.671 622.169C766.509 621.195 774.42 621.342 777.841 621.304C782.479 621.349 787.355 621.477 791.973 621.425L825.222 621.323L825.049 633.834C825.049 634.911 825.113 638.005 825.017 638.934C825.529 676.737 824.024 718.045 825.344 755.297C820.244 755.271 814.254 755.092 809.232 755.284L809.187 771.921C794.677 771.441 778.194 771.755 763.536 771.716L763.645 734.861L763.671 622.169Z" fill="#218D87"/>
<path d="M791.974 621.426L825.223 621.323L825.05 633.835C825.05 634.911 825.114 638.005 825.018 638.934C823.967 643.406 824.287 672.573 824.441 679.332C824.845 697.372 824.069 716.834 824.518 734.72L808.47 734.752C808.336 722.459 808.534 710.159 809.079 697.872L791.833 698.16L792 656.897C791.775 645.078 791.763 633.252 791.974 621.426Z" fill="#299F98"/>
<path d="M791.974 621.426L825.223 621.323L825.05 633.835C824.55 637.217 825.133 637.095 823.23 639.126C818.996 640.741 813.743 639.664 809.028 639.748L809.124 657.211C804.005 657.192 796.952 657.365 792 656.897C791.775 645.078 791.763 633.252 791.974 621.426Z" fill="#38B1A5"/>
<path d="M763.671 622.169C766.509 621.195 774.421 621.342 777.842 621.304C778.002 657.896 776.791 698.537 777.88 734.649L777.803 735.072C775.568 734.605 766.471 734.842 763.646 734.861L763.671 622.169Z" fill="#176D6C"/>
<path d="M777.88 734.649C782.973 734.79 788.066 734.842 793.152 734.803C793.107 741.344 792.973 748.096 793.152 754.618C795.708 754.72 798.508 754.695 800.974 755.258L809.232 755.284L809.187 771.921C794.677 771.441 778.194 771.754 763.536 771.716L763.645 734.861C766.47 734.842 775.567 734.605 777.803 735.072L777.88 734.649Z" fill="#146060"/>
<path d="M777.88 734.649C782.973 734.79 788.066 734.842 793.152 734.803C793.107 741.344 792.973 748.096 793.152 754.618C795.708 754.72 798.508 754.695 800.974 755.258C796.541 755.7 782.915 755.233 777.905 755.194C777.924 748.487 777.892 741.78 777.803 735.072L777.88 734.649Z" fill="#176D6C"/>
<path d="M763.799 551.565L778.931 551.604C788.873 551.604 798.925 551.687 808.861 551.578C808.829 556.908 808.7 562.501 808.95 567.805C814.287 567.831 819.834 567.78 825.139 567.997L825.126 586.992C825.12 593.417 825.216 600.118 825.036 606.518C825.177 611.451 825.241 616.39 825.222 621.323L791.974 621.426C787.355 621.477 782.48 621.349 777.842 621.304C774.421 621.342 766.509 621.195 763.671 622.169L763.716 605.955C764.03 588.1 763.78 569.484 763.799 551.565Z" fill="#FAB417"/>
<path d="M789.373 605.942C794.581 605.98 817.528 606.428 821.814 605.666L825.036 606.518C825.177 611.451 825.241 616.39 825.222 621.323L791.974 621.425C787.355 621.477 782.48 621.349 777.842 621.304C774.421 621.342 766.509 621.195 763.671 622.169L763.716 605.954L789.373 605.942Z" fill="#115455"/>
<path d="M778.931 551.604C788.873 551.604 798.925 551.687 808.861 551.578C808.829 556.908 808.701 562.501 808.951 567.805C814.287 567.831 819.835 567.78 825.139 567.997L825.126 586.992C819.611 586.921 814.095 586.909 808.579 586.953L808.778 567.735C800.046 568.337 786.695 567.985 777.765 567.991C777.746 564.41 777.099 553.538 778.931 551.604Z" fill="#FAC23B"/>
<path d="M763.799 551.565L778.931 551.604C777.098 553.539 777.746 564.41 777.765 567.991L777.803 605.365C781.506 605.442 785.881 605.634 789.52 605.538L789.373 605.942L763.716 605.955C764.03 588.1 763.78 569.484 763.799 551.565Z" fill="#E27E08"/>
<path d="M791.852 586.947C797.656 587.53 803.012 587.441 808.829 587.312C808.919 593.296 808.957 599.286 808.944 605.276C810.879 605.346 820.975 605.416 821.814 605.666C817.529 606.429 794.581 605.98 789.373 605.942L789.52 605.538L791.276 604.93C792.493 601.163 791.942 591.137 791.852 586.947Z" fill="#FAC23B"/>
<path d="M410.816 455.746L410.892 460.931L410.979 470.282L423.705 470.32C423.746 473.83 423.702 477.736 423.846 481.206C425.315 482.195 427.971 481.863 429.903 481.832L431.595 481.587C431.68 489.775 431.875 498.282 431.723 506.439C442.858 505.844 455.157 506.26 466.405 506.497C506.492 507.362 546.941 505.818 586.974 506.395C586.922 500.005 586.564 488.436 587.198 482.525C588.639 481.311 588.729 481.697 591.003 481.477C593.066 481.875 593.361 482.114 595.391 481.527L596.141 479.966C596.013 478.161 595.737 476.298 595.507 474.498C595.776 471.648 595.212 472.744 596.686 470.823C600.222 469.921 604.738 470.438 608.544 470.41L608.537 455.842L654.822 456.073L654.841 470.372C658.672 470.453 662.503 470.48 666.334 470.454L666.277 481.605L671.35 481.533L673.612 481.836C675.399 484.463 674.592 502.231 674.573 506.92L674.496 537.356L666.52 537.285L666.462 547.689L654.765 547.728C654.508 556.113 654.861 571.046 654.201 578.394L654.207 580.355C652.132 581.822 649.883 581.546 647.013 581.822C649.249 582.123 651.491 582.411 653.727 582.687C654.925 586.889 653.451 601.354 654.476 606.684C645.239 606.736 635.572 606.928 626.366 606.729C621.984 606.928 616.212 606.64 611.721 606.543C606.859 606.672 601.67 606.601 596.775 606.62C596.628 594.66 596.987 582.232 596.903 570.124C588.031 570.028 584.142 571.668 582.816 564.397C582.483 562.558 573.79 563.09 571.471 563.148L571.31 542.686L450.324 542.545C450.562 549.38 450.624 556.222 450.51 563.058C448.862 563.007 447.214 562.975 445.565 562.955C442.345 562.923 440.747 562.603 438.369 564.954C437.976 567.023 438.099 567.267 436.759 568.932C434.499 570.137 431.306 569.88 428.642 569.938C428.693 574.115 429.663 583.526 426.217 586.255L423.94 585.755L422.947 586.453C421.238 592.802 422.633 599.862 421.694 606.582C413.609 606.627 403.922 606.915 395.966 606.563C389.17 605.807 371.236 605.711 364.139 605.685C364.658 598.536 362.821 590.534 363.15 581.7C358.065 581.636 352.168 580.97 346.821 580.778C346.978 575.947 346.883 572.315 346.641 567.478C346.778 561.68 347.377 555.268 346.58 549.656C342.035 546.203 343.084 542.968 343.183 537.651C346.336 537.753 348.638 537.587 351.745 537.369C349.522 537.061 346.068 537.061 343.727 536.984C343.803 531.289 343.762 525.6 343.603 519.905L343.845 506.881C343.893 498.922 343.408 490.433 343.88 482.543C345.598 481.215 345.473 481.643 348.068 481.41L351.864 481.813L351.906 470.5C355.631 470.595 359.358 470.566 363.08 470.414L363.017 457.178L363.118 455.931C377.881 455.886 396.312 456.361 410.816 455.746Z" fill="#393231"/>
<path d="M410.816 455.746L410.892 460.931L410.979 470.282L423.705 470.32C423.746 473.83 423.702 477.736 423.846 481.206C425.315 482.195 427.971 481.863 429.903 481.832L431.595 481.587C431.68 489.775 431.875 498.282 431.723 506.439C442.858 505.844 455.157 506.26 466.405 506.497C506.492 507.362 546.941 505.818 586.974 506.395L586.942 524.358C569.766 526.164 541.63 525.287 523.558 525.287C502.052 525.434 480.548 525.28 459.047 524.819C451.102 524.723 442.774 524.998 434.914 524.614C435.022 529.258 436.01 542.372 434.679 546.305C430.821 549.214 431.602 550.143 431.682 554.73L421.896 554.916L421.633 586.28C421.538 591.88 421.041 601.361 421.694 606.582C413.609 606.627 403.922 606.915 395.966 606.563C389.17 605.807 371.236 605.711 364.139 605.685C364.658 598.536 362.821 590.534 363.15 581.7C358.065 581.636 352.168 580.97 346.821 580.778C346.978 575.947 346.883 572.315 346.641 567.478C346.778 561.68 347.377 555.268 346.58 549.656C342.035 546.203 343.084 542.968 343.183 537.651C346.336 537.753 348.638 537.587 351.745 537.369C349.522 537.061 346.068 537.061 343.727 536.984C343.803 531.289 343.762 525.6 343.603 519.905L343.845 506.881C343.893 498.922 343.408 490.433 343.88 482.543C345.598 481.215 345.473 481.643 348.068 481.41L351.864 481.813L351.906 470.5C355.631 470.595 359.358 470.566 363.08 470.414L363.017 457.178L363.118 455.931C377.881 455.886 396.312 456.361 410.816 455.746Z" fill="#302E2E"/>
<path d="M410.816 455.746L410.892 460.931L410.979 470.282L423.705 470.32C423.746 473.83 423.702 477.736 423.846 481.206C425.315 482.195 427.971 481.863 429.903 481.832L431.595 481.587C431.681 489.775 431.875 498.282 431.723 506.439C431.74 512.006 432.468 532.756 430.901 536.773C428.999 537.215 428.925 536.978 426.918 536.619C422.936 538.919 424.037 543.333 424.178 547.503C420.128 546.844 406.626 547.209 401.843 547.234C387.158 547.324 372.473 547.337 357.788 547.266L351.789 547.036L351.745 537.369C349.522 537.061 346.068 537.061 343.727 536.984C343.803 531.289 343.762 525.6 343.604 519.905L343.845 506.881C343.893 498.922 343.408 490.433 343.88 482.543C345.598 481.215 345.474 481.643 348.068 481.41L351.864 481.813L351.906 470.5C355.631 470.595 359.358 470.566 363.08 470.414L363.017 457.178L363.118 455.931C377.881 455.886 396.312 456.361 410.816 455.746Z" fill="#FAB417"/>
<path d="M369.029 482.672C376.138 483.382 399.979 483.188 407.706 482.901C407.877 485.285 407.782 489.976 407.802 492.509L415.43 492.593L415.379 528.131C413.011 528.035 410.406 527.573 408.546 528.816C407.407 530.808 407.774 533.877 407.799 536.305C394.772 536.241 381.744 536.292 368.717 536.446L368.848 528.246L360.945 528.342C360.915 516.433 360.957 504.517 361.072 492.609L368.738 492.583C368.713 489.181 368.865 486.056 369.029 482.672Z" fill="#302E2E"/>
<path d="M407.459 493.009C406.285 501.682 407.533 515.805 406.814 526.421C394.545 526.824 382.627 526.408 370.42 526.696C371.196 517.035 370.034 502.224 371.421 493.542C382.955 493.043 395.744 493.236 407.459 493.009Z" fill="#584840"/>
<path d="M410.816 455.746L410.891 460.931L410.978 470.282L423.705 470.32C423.745 473.83 423.702 477.736 423.845 481.206C422.301 484.188 417.395 485.164 414.292 484.708C412.814 482.481 412.416 481.123 410.307 480.133C408.694 480.766 408.393 481.022 407.706 482.902C399.978 483.188 376.137 483.382 369.029 482.672C363.444 476.408 355.855 491.627 351.863 481.813L351.906 470.5C355.63 470.595 359.357 470.566 363.08 470.414L363.017 457.178L363.117 455.931C377.88 455.886 396.312 456.361 410.816 455.746Z" fill="#FAC23B"/>
<path d="M410.816 455.746L410.891 460.931L410.978 470.282C395.047 470.49 379.013 470.071 363.08 470.414L363.017 457.178L363.117 455.931C377.88 455.886 396.312 456.361 410.816 455.746Z" fill="#E27E08"/>
<path d="M357.788 547.266C372.473 547.337 387.158 547.324 401.843 547.234C406.625 547.208 420.128 546.843 424.177 547.503C419.753 547.996 415.303 547.849 410.848 547.817C410.547 558.484 411.043 568.599 410.876 578.996C401.641 579.291 393.503 579.483 384.281 579.233C384.138 576.472 384.038 573.564 383.766 570.828C376.485 570.809 371.35 570.585 364.081 569.963C364.085 572.693 364.233 578.842 363.842 581.219C363.071 575.082 364.558 551.302 362.687 548.182L357.788 547.266Z" fill="#59463F"/>
<path d="M364.081 569.964C371.35 570.585 376.485 570.809 383.766 570.829C384.038 573.564 384.138 576.473 384.281 579.234C393.503 579.484 401.641 579.291 410.876 578.997L410.909 592.674C400.28 593.244 382.979 593.302 372.17 592.873L372.128 581.092L363.842 581.22C364.233 578.843 364.085 572.693 364.081 569.964Z" fill="#584840"/>
<path d="M608.537 455.843L654.822 456.074L654.841 470.373C658.672 470.453 662.503 470.481 666.334 470.455L666.276 481.605L671.35 481.533L673.612 481.836C675.399 484.463 674.592 502.231 674.573 506.92L674.496 537.357L666.52 537.286L666.462 547.69L654.764 547.728C639.485 547.888 623.963 547.741 608.659 547.722L595.859 547.703L595.91 537.312L587.063 537.222L586.941 524.358L586.973 506.395C586.922 500.006 586.563 488.436 587.198 482.525C588.639 481.311 588.729 481.698 591.003 481.478C593.066 481.876 593.36 482.115 595.391 481.527L596.141 479.966C596.013 478.162 595.737 476.299 595.507 474.498C595.776 471.648 595.212 472.745 596.685 470.824C600.222 469.921 604.738 470.439 608.543 470.411L608.537 455.843Z" fill="#FAB417"/>
<path d="M611.318 482.75C617.634 482.994 644.054 483.428 649.608 482.682C649.806 485.722 649.71 489.505 649.717 492.611L657.078 492.692L657.18 528.471C654.912 528.426 652.254 528.074 650.415 529.176C649.179 531.11 649.589 534.256 649.621 536.703C636.847 536.556 624.073 536.562 611.299 536.729C611.343 534.365 611.766 531.13 610.575 529.278C608.569 528.016 605.757 528.484 603.271 528.567C603.368 516.626 603.393 504.685 603.348 492.741L611.177 492.779C611.158 489.435 611.209 486.092 611.318 482.75Z" fill="#302E2E"/>
<path d="M612.08 493.569C623.912 493.039 636.52 493.254 648.403 493.318C648 504.486 648.743 515.485 648.179 526.901C636.244 527.247 623.887 527.132 611.939 527.151C611.695 515.959 611.74 504.761 612.08 493.569Z" fill="#584840"/>
<path d="M608.537 455.843L654.822 456.074L654.842 470.373C658.672 470.453 662.503 470.481 666.334 470.455L666.277 481.605C661.914 490.585 656.783 480.85 651.542 480.93C649.915 481.875 650.434 481.203 649.608 482.682C644.053 483.428 617.634 482.994 611.317 482.75C610.28 481.171 610.773 481.719 609.056 480.708C604.617 480.55 602.72 486.788 597.871 484.88C596.09 482.598 596.641 483.207 596.141 479.966C596.013 478.162 595.737 476.299 595.507 474.498C595.776 471.648 595.212 472.745 596.686 470.824C600.222 469.921 604.738 470.439 608.544 470.411L608.537 455.843Z" fill="#FAC23B"/>
<path d="M608.537 455.843L654.822 456.074L654.842 470.373C639.409 470.3 623.976 470.313 608.544 470.411L608.537 455.843Z" fill="#E27E08"/>
<path d="M608.659 547.722C623.964 547.741 639.486 547.888 654.765 547.728C654.509 556.114 654.861 571.047 654.201 578.395C651.338 577.152 636.776 577.934 631.389 577.152C630.075 575.602 630.639 574.269 630.338 571.476C628.038 569.99 612.868 570.099 608.557 569.798C608.717 562.309 608.89 555.217 608.659 547.722Z" fill="#59463F"/>
<path d="M608.556 569.797C612.867 570.098 628.037 569.989 630.337 571.475C630.638 574.268 630.075 575.601 631.388 577.151C636.776 577.933 651.337 577.151 654.201 578.394L654.207 580.354C652.131 581.821 649.883 581.546 647.013 581.821L646.744 593.026C636.212 593.09 625.686 593.084 615.154 593.013C615.193 591.418 615.225 589.816 615.238 588.221C615.27 585.057 615.616 583.769 613.341 581.469C606.999 580.098 608.518 575.454 608.556 569.797Z" fill="#584840"/>
<path d="M299.417 506.818C308.293 506.017 319.952 507.119 329.072 506.984C329.034 512.744 329.173 519.617 328.905 525.287C332.405 525.389 340.456 526.402 342.725 524.019C343.437 523.269 343.443 521.168 343.603 519.906C343.762 525.601 343.803 531.29 343.727 536.985C346.068 537.062 349.522 537.062 351.745 537.369C348.638 537.587 346.336 537.754 343.183 537.651C343.084 542.968 342.035 546.203 346.58 549.656C347.377 555.268 346.778 561.681 346.641 567.479L345.967 567.312C345.969 565.608 345.955 565.499 345.584 563.833C342.692 561.681 333.065 562.898 329.02 562.962C328.449 551.021 328.73 537.388 328.709 525.319C322.963 525.428 317.012 525.319 311.249 525.287L311.226 507.164C307.568 507.157 302.961 507.317 299.417 506.818Z" fill="#393231"/>
<path d="M711.306 837.649C716.463 837.559 722.786 837.982 728.02 838.206L727.751 854.831C722.094 855.407 715.944 854.562 709.186 855.33C712.542 853.197 711.428 841.717 711.306 837.649Z" fill="#393231"/>
<path d="M345.968 567.312L346.642 567.478C346.884 572.315 346.979 575.947 346.822 580.777C352.168 580.97 358.065 581.636 363.15 581.7C362.821 590.534 364.658 598.536 364.139 605.685C371.236 605.711 389.17 605.807 395.967 606.563C390.553 606.966 381.666 606.832 377.305 608.485C375.827 610.035 376.15 609.157 376.091 611.124L377.005 612.085C380.692 612.412 387.41 613.078 390.828 612.117C391.361 611.047 391.528 610.4 391.722 609.215L392.173 610.009L391.726 609.234L392.088 610.829C391.255 612.495 391.803 611.745 390.053 612.815C386.54 612.975 378.274 613.898 375.586 611.893L375.741 608.581C373.049 605.653 366.457 606.672 362.672 606.812C362.789 603.026 362.752 598.958 362.787 595.147L352.4 594.98C352.507 588.67 354.169 583.615 347.796 581.123C344.98 578.157 345.874 571.674 345.968 567.312Z" fill="#393231"/>
<path d="M611.722 606.544C616.212 606.64 621.984 606.928 626.366 606.73C624.656 608.152 625.559 611.016 625.764 613.066C620.709 612.905 616.507 614.219 612.554 612.207C611.145 609.741 611.664 609.894 611.722 606.544Z" fill="#393231"/>
</svg>
