<svg width="1000" height="1000" viewBox="0 0 1000 1000" fill="none" xmlns="http://www.w3.org/2000/svg">
<path d="M413.066 139L606.433 139.056L606.417 163.034C614.388 163.037 622.491 162.986 630.452 163.114C630.427 170.393 630.239 178.278 630.402 185.507L678.278 185.485C678.146 193.433 678.101 201.383 678.141 209.333C686.138 209.45 694.139 209.525 702.141 209.556C702.4 232.737 701.552 257.946 702.313 280.757L678.151 280.896L678.075 304.669C670.592 304.733 661.834 305.028 654.452 304.801C654.269 312.684 654.198 320.569 654.238 328.454L630.27 328.579C630.285 320.85 630.462 312.538 630.29 304.858C622.167 304.605 614.495 304.958 606.468 304.913L606.397 328.495C598.411 328.53 590.115 328.457 582.159 328.758C582.078 336.642 582.073 344.527 582.139 352.41L557.673 352.64C557.632 360.613 557.642 368.587 557.698 376.561C565.755 376.564 574.066 376.46 582.098 376.608C582.108 384.238 581.951 392.558 582.19 400.132C590.283 400.384 598.375 400.428 606.463 400.263C606.443 415.934 606.225 432.106 606.494 447.737L630.335 447.797C630.346 455.51 630.239 463.543 630.391 471.227L654.309 471.23L654.249 610.695L881.676 610.756L881.722 634.509C889.814 634.403 897.907 634.418 906 634.555L905.944 763.792L905.965 860.8C879.757 860.998 853.549 861.049 827.341 860.953L695.368 860.932L94 860.988L94.0822 813.309C97.3255 812.761 113.884 812.979 117.892 812.979L117.968 589.477C125.316 589.37 132.665 589.385 140.012 589.522L141.88 589.436C142.18 585.246 141.992 580.558 142.293 576.064C142.092 573.403 142.22 568.507 142.202 565.673C167.409 565.353 193.238 565.627 218.478 565.622L364.981 565.581C365.534 534.424 364.978 502.641 365.185 471.363C373.164 471.204 381.144 471.129 389.124 471.138C388.992 463.442 389.114 455.459 389.131 447.74L413 447.713C413.35 432.355 413.053 415.9 413.052 400.457C417.652 399.8 432.177 400.147 437.521 400.173C437.485 394.874 437.055 381.168 437.656 376.527C438.29 382.856 438.022 393.446 438.012 400.089C444.444 400.27 455.32 400.819 461.376 400.273C461.138 392.401 461.178 384.524 461.496 376.655L485.451 376.546C485.975 370.81 485.696 358.713 485.821 352.29C477.981 352.518 469.224 352.339 461.31 352.353C453.456 352.527 445.303 352.466 437.424 352.515C437.58 344.528 437.637 336.539 437.595 328.551C429.629 328.353 421.111 328.517 413.105 328.535L412.983 304.836C405.705 304.498 396.56 304.768 389.158 304.816L389.086 328.457C381.311 328.639 372.98 328.492 365.162 328.494L365.15 305.009C358.319 304.512 348.043 304.78 340.925 304.719C340.868 296.784 340.976 288.72 341.008 280.773C333.225 280.651 325.134 280.77 317.326 280.776C317.664 257.234 317.361 233.055 317.484 209.423C325.231 209.262 333.211 209.319 340.978 209.281C340.792 201.455 340.938 193.379 340.989 185.531C357.026 185.664 373.065 185.596 389.101 185.327C388.891 178.236 389.084 170.338 389.109 163.187C397.065 163.015 405.024 162.992 412.982 163.119L413.066 139Z" fill="#242627"/>
<path d="M389.128 494.678C409.177 495.495 431.514 494.871 451.782 494.911L582.884 494.962C595.191 494.977 607.493 494.977 619.8 494.972C622.222 494.972 628.025 494.571 629.786 495.704L630.193 496.674L630.223 634.682L630.203 658.501L654.755 658.425C653.77 694.041 654.415 731.68 654.4 767.423L654.354 797.449C654.339 801.125 654.009 810.033 654.568 813.106C648.49 813.558 639.961 813.177 633.584 813.243C609.976 813.487 586.342 813.228 562.713 813.289L477.751 813.319C461.989 813.324 443.173 813.827 427.555 813.015C414.757 812.984 401.959 813.02 389.161 813.121L389.147 610.69L389.096 589.654L389.128 494.678Z" fill="#FDC647"/>
<path d="M630.203 658.501L654.756 658.425C653.771 694.042 654.415 731.68 654.4 767.423L654.354 797.449C654.339 801.126 654.009 810.034 654.568 813.106C648.49 813.558 639.961 813.177 633.584 813.243C609.976 813.487 586.342 813.228 562.713 813.289L477.751 813.32C461.989 813.325 443.173 813.827 427.555 813.015C433.664 812.583 443.87 812.878 450.211 812.883L493.3 812.898L630.193 812.908L630.203 658.501Z" fill="#A17B66"/>
<path d="M485.972 536.669L533.273 536.74C533.1 543.723 533.125 550.97 533.197 557.959C533.623 600.381 532.613 643.022 533.232 685.418C541.919 685.434 550.601 685.525 559.288 685.703C559.145 694.215 559.14 702.732 559.262 711.244C551.377 711.381 485.268 711.787 483.319 710.771L483.256 685.571C491.94 685.444 500.622 685.418 509.309 685.495C509.801 660.741 508.974 635.734 509.329 610.955C509.568 594.246 508.867 577.375 509.324 560.686C501.587 560.508 493.844 560.513 486.109 560.711C485.923 568.944 485.874 577.171 485.962 585.404L461.394 585.424C461.531 577.146 461.553 568.873 461.46 560.595L485.949 560.539C486.022 552.586 486.03 544.627 485.972 536.669Z" fill="#593E2A"/>
<path d="M365.184 471.363C373.163 471.203 381.143 471.128 389.124 471.138L389.128 494.677L389.096 589.654L389.147 610.69L389.162 813.121C382.922 813.547 371.257 813.116 364.759 813.075L142.272 813.141L142.224 610.624C142.209 603.696 142.23 596.764 142.285 589.836C145.338 589.765 148.392 589.806 151.442 589.958L151.298 589.517C149.761 589.242 144.284 589.329 142.495 589.329C142.541 584.971 142.699 580.38 142.292 576.063C142.092 573.402 142.22 568.506 142.201 565.672C167.409 565.352 193.238 565.626 218.478 565.621L364.981 565.581C365.534 534.423 364.978 502.641 365.184 471.363Z" fill="#B5B4B4"/>
<path d="M365.184 471.363C373.163 471.203 381.143 471.128 389.124 471.138L389.128 494.677L389.096 589.654L246.703 589.593C215.076 589.557 182.854 589.943 151.298 589.517C149.761 589.242 144.284 589.329 142.495 589.329C142.541 584.971 142.699 580.38 142.292 576.063C142.092 573.402 142.22 568.506 142.201 565.672C167.409 565.352 193.238 565.626 218.478 565.621L364.981 565.581C365.534 534.423 364.978 502.641 365.184 471.363Z" fill="#242627"/>
<path d="M365.205 610.817C373.213 610.817 381.108 610.563 389.148 610.69L389.162 813.121C382.923 813.548 371.258 813.116 364.76 813.075C365.637 745.981 363.677 677.759 365.205 610.817Z" fill="#969899"/>
<path d="M142.286 589.837C145.339 589.766 148.393 589.806 151.442 589.959C159.218 590.436 169.612 590.162 177.552 590.157L221.912 590.131L364.707 590.182C364.724 596.998 364.847 603.808 365.074 610.619L208.239 610.695L164.268 610.654C159.819 610.629 146.174 610.182 142.224 610.624C142.21 603.696 142.23 596.764 142.286 589.837Z" fill="#D2D1D1"/>
<path d="M211.445 634.413C237.748 633.732 266.749 634.387 293.343 634.316C292.989 663.442 293.338 692.777 293.227 721.934C280.22 722.269 266.133 722.005 253.045 721.995L253.004 743.833L230.164 743.889L230.192 763.122L298.537 763.228L298.526 788.571H206.802C206.529 765.966 206.774 742.792 206.789 720.156C214.38 719.994 222.193 720.08 229.803 720.08L229.78 699.008C242.747 698.658 256.445 699.069 269.62 698.866L269.634 657.038L211.257 656.937L211.445 634.413Z" fill="#464445"/>
<path d="M413.066 139L606.433 139.056L606.418 163.034C614.389 163.037 622.492 162.986 630.452 163.114C630.427 170.393 630.239 178.278 630.402 185.507L678.278 185.485C678.146 193.433 678.101 201.383 678.141 209.333C662.204 209.29 646.267 209.329 630.331 209.448C626.279 209.431 608.392 208.959 606.412 209.528C604.041 208.836 585.409 209.451 581.875 209.515L581.87 280.54C581.9 285.223 581.657 298.766 582.139 302.859L582.22 304.975C581.85 312.544 581.992 320.899 581.971 328.533C578.966 328.501 559.856 328.162 557.652 328.784L557.617 352.378C549.768 352.383 541.238 352.233 533.45 352.526C520.001 353.109 499.936 352.303 485.821 352.29C477.981 352.518 469.224 352.339 461.31 352.353C453.456 352.527 445.303 352.466 437.424 352.515C437.58 344.528 437.637 336.539 437.595 328.551C429.629 328.353 421.111 328.517 413.105 328.535L412.983 304.836C405.705 304.498 396.56 304.768 389.159 304.816L389.086 328.457C381.311 328.639 372.98 328.492 365.162 328.494L365.15 305.009C358.319 304.512 348.043 304.78 340.925 304.719C340.868 296.784 340.976 288.72 341.008 280.773C333.225 280.651 325.134 280.77 317.326 280.776C317.664 257.234 317.361 233.055 317.485 209.423C325.231 209.262 333.211 209.319 340.978 209.281C340.792 201.455 340.938 193.379 340.989 185.531C357.026 185.664 373.065 185.596 389.101 185.327C388.892 178.236 389.084 170.338 389.109 163.187C397.066 163.015 405.024 162.992 412.982 163.119L413.066 139Z" fill="#FED844"/>
<path d="M413.066 139L606.432 139.056L606.417 163.034C614.388 163.037 622.491 162.986 630.452 163.114C630.426 170.393 630.239 178.278 630.401 185.507L678.278 185.485C678.146 193.433 678.1 201.383 678.141 209.333C662.204 209.29 646.267 209.329 630.33 209.448C626.279 209.431 608.392 208.959 606.412 209.528C604.041 208.836 585.408 209.451 581.875 209.515C557.281 209.939 531.007 209.347 506.241 209.373L444.195 209.311C433.875 209.339 423.754 209.68 413.404 209.527C413.496 213.665 413.908 224.505 413.122 228.137L412.994 209.489C413.324 202.363 412.966 193.046 413.028 185.609C405.051 185.637 397.075 185.543 389.101 185.327C388.891 178.236 389.083 170.338 389.109 163.187C397.065 163.015 405.024 162.992 412.981 163.119L413.066 139Z" fill="#FBA313"/>
<path d="M413.066 139L606.432 139.056L606.417 163.034C598.228 162.911 590.038 162.938 581.854 163.115C564.435 163.008 544.781 162.563 527.484 163.239C519.147 163.005 510.491 162.985 502.149 163.1C472.514 163.51 442.689 162.609 413.075 163.21L413.11 172.247L413.028 185.609C405.051 185.637 397.075 185.543 389.101 185.327C388.891 178.236 389.083 170.338 389.109 163.187C397.065 163.015 405.024 162.992 412.981 163.119L413.066 139Z" fill="#242627"/>
<path d="M527.484 163.239C544.782 162.563 564.435 163.008 581.855 163.114C582.109 170.521 582.215 177.931 582.164 185.342C539.649 185.789 497.134 185.913 454.617 185.715C445.673 185.69 436.729 185.715 427.784 185.79C424.55 185.804 416.176 185.975 413.363 185.454C413.417 180.84 413.504 176.866 413.111 172.247L413.075 163.209C442.689 162.609 472.515 163.51 502.15 163.1C510.491 162.984 519.148 163.005 527.484 163.239Z" fill="#FED844"/>
<path d="M527.485 163.239C544.782 162.563 564.436 163.008 581.855 163.114C582.109 170.521 582.215 177.931 582.165 185.342C539.649 185.789 497.134 185.913 454.618 185.715C445.673 185.69 436.729 185.715 427.785 185.79C424.55 185.804 416.176 185.975 413.363 185.454C416.049 185.084 424.418 185.283 427.453 185.288L457.365 185.349L557.592 185.161C557.541 178.034 557.744 170.569 557.83 163.416C548.824 163.404 536.197 163.814 527.485 163.239Z" fill="#FDC647"/>
<path d="M606.417 163.034C614.388 163.037 622.491 162.986 630.452 163.114C630.427 170.393 630.239 178.278 630.401 185.507L678.278 185.485C678.146 193.433 678.101 201.383 678.141 209.333C662.204 209.29 646.267 209.329 630.33 209.448C630.168 201.503 630.168 193.555 630.325 185.61L606.407 185.669L606.417 163.034Z" fill="#242627"/>
<path d="M340.989 185.531C357.026 185.664 373.065 185.596 389.101 185.326C397.075 185.542 405.052 185.636 413.028 185.608C412.967 193.046 413.325 202.363 412.995 209.488L413.122 228.137C412.958 237.601 412.954 247.067 413.11 256.531C413.054 272.515 413.241 288.78 413.024 304.715C420.957 304.77 429.763 304.658 437.618 305.058C437.595 312.623 437.402 320.972 437.651 328.475C441.996 328.464 457.282 328.213 461.224 328.82L461.31 352.353C453.456 352.526 445.303 352.465 437.424 352.515C437.58 344.528 437.637 336.539 437.595 328.55C429.629 328.353 421.111 328.516 413.105 328.534L412.983 304.836C405.705 304.497 396.56 304.767 389.159 304.815L389.086 328.456C381.311 328.638 372.98 328.492 365.162 328.494L365.15 305.008C358.319 304.512 348.043 304.779 340.925 304.719C340.868 296.783 340.976 288.719 341.008 280.772C333.225 280.65 325.134 280.77 317.326 280.775C317.664 257.233 317.361 233.054 317.485 209.422C325.231 209.261 333.211 209.319 340.978 209.28C340.792 201.454 340.938 193.378 340.989 185.531Z" fill="#242627"/>
<path d="M413.028 185.608C412.967 193.046 413.325 202.363 412.994 209.488C405.038 209.51 397.082 209.469 389.127 209.366C389.008 201.426 389.1 193.283 389.101 185.326C397.075 185.542 405.051 185.636 413.028 185.608Z" fill="#FDC647"/>
<path d="M366.135 209.37C373.343 209.358 382.039 209.119 389.126 209.44L389.09 234.052C381.188 234.043 372.989 233.923 365.113 234.085C365.127 249.103 364.686 265.974 365.184 280.794C357.429 280.77 348.771 280.935 341.091 280.66C340.912 256.916 340.89 233.172 341.023 209.427C349.353 209.4 357.817 209.291 366.135 209.37Z" fill="#FED844"/>
<path d="M365.184 280.794C373.148 280.724 381.114 280.775 389.078 280.948L389.136 304.668C381.17 304.752 373.203 304.779 365.237 304.748L365.184 280.794Z" fill="#FDC647"/>
<path d="M413.11 256.532C413.962 261.136 413.659 275.981 413.638 281.132C421.874 280.685 429.525 280.631 437.785 280.603C437.821 285.581 437.457 300.008 439.028 303.725C440.329 304.531 443.539 304.504 445.111 304.518C490.095 304.912 535.075 304.692 580.057 304.525C581.256 304.52 581.636 303.666 582.139 302.859L582.22 304.976C581.85 312.544 581.992 320.899 581.972 328.534C578.966 328.502 559.856 328.162 557.652 328.785L557.617 352.379C549.768 352.384 541.238 352.233 533.45 352.526C520.001 353.109 499.936 352.303 485.821 352.29C477.981 352.519 469.224 352.34 461.31 352.354L461.224 328.821C457.282 328.214 441.996 328.465 437.651 328.476C437.402 320.973 437.595 312.624 437.618 305.059C429.764 304.659 420.957 304.771 413.024 304.716C413.241 288.781 413.054 272.516 413.11 256.532Z" fill="#FABC24"/>
<path d="M461.38 328.529C493.198 328.333 525.813 329.132 557.514 328.527L557.651 328.784L557.615 352.378C549.766 352.383 541.237 352.233 533.449 352.525C519.999 353.109 499.935 352.302 485.82 352.289C477.98 352.518 469.223 352.339 461.308 352.353L461.223 328.82L461.38 328.529Z" fill="#FBA313"/>
<path d="M557.606 305.041C565.41 305.212 574.508 305.293 582.22 304.976C581.849 312.544 581.991 320.899 581.971 328.534C578.965 328.502 559.855 328.162 557.652 328.784L557.515 328.528C557.916 320.894 557.723 312.708 557.606 305.041Z" fill="#FDC647"/>
<path d="M437.617 305.059C445.501 305.136 453.385 305.152 461.269 305.105C461.275 311.925 460.967 321.973 461.38 328.529L461.223 328.821C457.281 328.214 441.995 328.465 437.65 328.475C437.402 320.973 437.594 312.624 437.617 305.059Z" fill="#FDC647"/>
<path d="M461.199 213.629C469.356 213.663 477.513 213.642 485.67 213.567L485.696 258.029C478.082 258.123 470.467 258.165 462.852 258.155C454.581 258.31 446.086 258.11 437.796 258.006C437.865 250.008 437.774 242.01 437.523 234.016C445.117 234.252 453.538 234.067 461.192 234.055C461.125 227.287 461.195 220.408 461.199 213.629Z" fill="#FEE597"/>
<path d="M630.223 634.682L654.238 634.596L857.839 634.591L881.736 634.561C881.721 639.949 881.853 646.079 881.559 651.406C881.909 672.661 881.645 694.667 881.64 715.982L881.569 813.229L858.072 813.091L654.568 813.107C654.009 810.034 654.339 801.126 654.355 797.449L654.4 767.424C654.416 731.68 653.771 694.042 654.756 658.425L630.203 658.501L630.223 634.682Z" fill="#BC8E6F"/>
<path d="M654.238 634.596L857.839 634.591C857.691 642.29 857.844 650.452 857.859 658.186C836.155 658.892 810.673 658.308 788.714 658.323L654.385 658.364C654.076 651.508 654.065 641.457 654.238 634.596Z" fill="#D69F72"/>
<path d="M881.559 651.406C881.91 672.661 881.646 694.666 881.641 715.982L881.569 813.228L858.073 813.091C857.027 798.571 857.682 776.779 857.717 761.583C857.799 727.018 858.108 693.057 857.535 658.45L881.204 658.395C881.148 655.495 881.184 654.271 881.559 651.406Z" fill="#A17B66"/>
<path d="M718.168 678.989C746.011 678.4 775.351 678.841 803.285 678.862C803.067 700.847 803.006 722.833 803.107 744.819C803.107 758.673 802.651 775.672 803.443 789.242C778.027 790.212 746.828 789.46 721.021 789.369C719.671 789.475 719.519 789.653 718.402 788.998C717.747 786.2 718.133 770.44 718.173 766.885L770.056 766.779C770.005 759.983 770.01 753.193 770.066 746.398C759.983 746.383 749.9 746.281 739.817 746.098C739.842 738.455 739.817 730.812 739.73 723.168L770.046 723.026C770.005 716.099 770.02 709.171 770.091 702.249C752.895 702.031 735.354 702.183 718.122 702.132L718.168 678.989Z" fill="#593E2A"/>
<path d="M141.88 589.436C142.18 585.246 141.991 580.558 142.292 576.063C142.7 580.38 142.541 584.971 142.495 589.329C144.284 589.329 149.761 589.243 151.299 589.517L151.442 589.959C148.392 589.806 145.338 589.766 142.285 589.837C142.23 596.764 142.209 603.697 142.224 610.624L142.273 813.142L364.759 813.075C371.257 813.116 382.922 813.548 389.162 813.121C401.96 813.02 414.757 812.984 427.555 813.015C443.173 813.827 461.989 813.324 477.752 813.319L562.714 813.289C586.342 813.228 609.976 813.487 633.585 813.243C639.961 813.177 648.491 813.558 654.568 813.106L858.072 813.091L881.569 813.228L881.797 837.255L118.152 836.849C118.065 829.144 117.88 821.212 118.005 813.527C113.872 813.553 97.0684 813.852 94.082 813.309C97.3253 812.761 113.884 812.979 117.892 812.979L117.968 589.476C125.316 589.37 132.665 589.385 140.012 589.522L141.88 589.436Z" fill="#464445"/>
<path d="M140.011 589.522L141.879 589.436C141.354 596.896 141.654 608.745 141.665 616.454L141.71 663.879L141.7 812.877C133.905 813.248 126.099 813.314 118.299 813.08L118.597 590.116C123.982 590.07 135.145 590.218 140.011 589.522Z" fill="#242627"/>
<path d="M485.82 352.289C499.936 352.302 520 353.108 533.449 352.525C533.338 360.447 533.302 368.371 533.338 376.294C539.806 377.032 550.798 376.528 557.672 376.628C557.647 381.829 557.494 387.613 557.738 392.764C558.058 395.703 558.149 397.405 558.185 400.332C566.141 400.228 574.152 400.462 582.052 400.266L582.083 423.993C565.811 423.848 549.534 423.787 533.262 423.81C533.201 431.467 533.267 439.526 533.023 447.147C514.344 447.436 496.189 447.476 477.528 447.28C471.435 447.216 454.385 446.944 448.9 447.719L437.747 447.757C437.311 432.963 437.732 415.703 437.642 400.685C430.221 400.682 420.18 401.015 413.052 400.456C417.652 399.799 432.177 400.146 437.52 400.172C437.485 394.873 437.054 381.167 437.655 376.527C438.29 382.855 438.021 393.445 438.011 400.089C444.443 400.269 455.319 400.818 461.375 400.272C461.137 392.401 461.177 384.523 461.496 376.654L485.451 376.545C485.974 370.81 485.695 358.713 485.82 352.289Z" fill="#504342"/>
<path d="M485.821 352.289C499.936 352.302 520 353.108 533.45 352.525C533.338 360.447 533.302 368.371 533.338 376.294L533.226 376.629L533.252 400.009L486.194 400.021C480.08 400.014 468.028 399.653 462.326 400.127L461.375 400.272C461.137 392.401 461.177 384.523 461.496 376.654L485.451 376.545C485.974 370.81 485.696 358.713 485.821 352.289Z" fill="#FABC24"/>
<path d="M485.821 352.289C499.936 352.302 520.001 353.108 533.45 352.525C533.338 360.447 533.303 368.371 533.338 376.294L533.226 376.629C517.802 376.249 501.017 376.634 485.451 376.545C485.975 370.81 485.696 358.713 485.821 352.289Z" fill="#FDC647"/>
<path d="M533.338 376.295C539.806 377.033 550.798 376.529 557.673 376.629C557.647 381.83 557.495 387.614 557.739 392.765L557.688 400.464L491.721 400.376C486.552 400.378 466.265 400.747 462.326 400.128C468.028 399.654 480.08 400.015 486.195 400.021L533.252 400.01L533.226 376.63L533.338 376.295Z" fill="#FBA313"/>
<path d="M389.124 471.138L561.256 471.241C583.692 471.283 608.143 470.732 630.32 471.309L630.193 496.674L629.787 495.704C628.025 494.571 622.222 494.972 619.8 494.972C607.493 494.977 595.192 494.977 582.885 494.962L451.783 494.911C431.514 494.871 409.177 495.495 389.128 494.678L389.124 471.138Z" fill="#FABC24"/>
<path d="M678.142 209.332C678.517 231.512 678.741 258.817 678.106 280.8C670.318 280.775 662.088 280.886 654.335 280.693L654.249 234.073L630.346 233.985C630.295 225.806 630.29 217.627 630.331 209.448C646.268 209.328 662.205 209.29 678.142 209.332Z" fill="#FED844"/>
<path d="M581.874 209.516C585.408 209.452 604.041 208.837 606.412 209.529L606.488 281.93C601.903 280.663 587.52 280.656 581.869 280.541L581.874 209.516Z" fill="#FABC24"/>
<path d="M533.261 423.811C549.533 423.788 565.81 423.85 582.082 423.995C581.884 431.854 581.859 439.716 582.001 447.576L494.366 447.849C481.351 447.854 461.407 448.442 448.899 447.721C454.385 446.945 471.435 447.217 477.527 447.282C496.188 447.478 514.344 447.437 533.022 447.149C533.266 439.527 533.2 431.468 533.261 423.811Z" fill="#464445"/>
<path d="M581.869 280.54C587.52 280.655 601.903 280.662 606.488 281.929L606.386 304.811C599.177 304.82 589.271 304.564 582.219 304.975L582.138 302.859C581.656 298.765 581.9 285.223 581.869 280.54Z" fill="#FDC647"/>
<path d="M630.38 280.97C638.351 280.743 646.327 280.692 654.304 280.819C654.37 288.806 654.354 296.794 654.258 304.781C646.642 304.824 637.803 305.096 630.289 304.858L630.38 280.97Z" fill="#FDC647"/>
<path d="M745.463 398.952L768.284 398.943L768.177 422.822C775.707 422.694 783.241 422.615 790.775 422.584L790.735 446.065C783.764 445.57 775.565 446.004 768.269 445.738C768.284 453.499 768.243 461.259 768.152 469.02C760.567 469.055 752.982 469.049 745.397 469.001C745.305 461.326 745.305 453.651 745.392 445.976C738.081 446.093 730.145 445.838 722.794 445.738L722.753 422.798L745.204 422.79L745.463 398.952Z" fill="#FEE597"/>
<path d="M294.964 348.68L317.609 348.668C317.434 356.362 317.506 364.376 317.466 372.096C325.067 371.95 332.908 372.04 340.528 372.035C340.4 380.025 340.425 388.018 340.601 396.007C332.877 396.007 325.152 395.91 317.43 395.716C317.511 401.478 317.869 412.726 317.278 418.136C310.109 417.867 302.185 418.019 294.941 417.978C294.877 410.644 294.722 403.226 295.055 395.908L272.791 395.887L272.678 372.011L294.906 372.136L294.964 348.68Z" fill="#FEE597"/>
<path d="M210.434 464.624L232.894 464.507L232.749 486.339L253.859 486.171C253.567 493.566 253.659 501.209 253.661 508.624C247.614 508.157 239.123 508.37 232.777 508.243C232.997 515.175 232.786 523.184 232.759 530.178C225.535 529.97 217.699 530.091 210.427 530.061L210.416 508.512C203.404 508.527 196.295 508.4 189.275 508.339C189.177 501.006 189.124 493.672 189.117 486.339C196.119 486.14 203.357 486.283 210.38 486.339L210.434 464.624Z" fill="#FEE597"/>
<path d="M461.309 352.353C469.223 352.338 477.981 352.518 485.82 352.289C485.696 358.713 485.974 370.81 485.451 376.545L461.496 376.654C461.177 384.523 461.137 392.401 461.375 400.272C455.319 400.818 444.443 400.269 438.011 400.089C438.021 393.445 438.29 382.855 437.655 376.527L461.33 376.501L461.309 352.353Z" fill="#242627"/>
</svg>
