<svg xmlns="http://www.w3.org/2000/svg" viewBox="0 0 512 420" role="img" aria-label="Pixel whale avatar">
  <g shape-rendering="crispEdges">
    <path d="M154 174h-24v24h-24v48h24v32h32v24h64v24h112v-24h56v-24h32v-24h24v-72h-24v-32h-40v-24h-72v-24H202v24h-48z" fill="#073f6c"/>
    <path d="M162 150h-24v24h-24v72h24v32h40v24h72v24h96v-24h56v-24h32v-32h24v-64h-24v-32h-48v-24h-72v-24H202v24h-40z" fill="#0d78ba"/>
    <path d="M162 174h-24v64h24v32h48v24h80v24h56v-24h48v-24h32v-32h24v-40h-24v-24h-56v-24h-72v-24h-88v24h-48z" fill="#27adea"/>
    <path d="M186 166h-24v24h-16v32h16v16h40v-24h64v-24h72v-24z" fill="#69cdf7"/>
    <path d="M162 246h-24v24h24v24h48v24h72v24h56v-24h-40v-24h-56v-24h-56z" fill="#dff8ff"/>
    <path d="M242 294h56v24h48v24h-40v24h-48v-24h-32v-24h16z" fill="#8ad8f7"/>
    <path d="M314 126h24v-48h24v-40h24v40h24v88h-24v24h-48v-24h-24z" fill="#073f6c"/>
    <path d="M338 78h24V46h24v48h16v64h-16v24h-40v-24h-24v-32h16z" fill="#18a8e3"/>
    <path d="M362 54h24v32h-16v24h-24V86h16z" fill="#dff8ff"/>
    <path d="M402 174h72v-24h24v96h-24v32h-72v-32h40v-48h-40z" fill="#073f6c"/>
    <path d="M410 190h56v-16h16v56h-16v24h-56v-24h32v-24h-32z" fill="#1aa6df"/>
    <path d="M298 286h56v24h32v88h-24v-24h-24v-40h-40z" fill="#073f6c"/>
    <path d="M314 302h40v24h16v56h-16v-24h-24v-32h-16z" fill="#20ade9"/>
    <path d="M58 226h56v40H58z" fill="#073f6c"/>
    <path d="M66 234h48v24H66z" fill="#e8c0ce"/>
    <path d="M190 214h32v48h-32z" fill="#07213a"/>
    <path d="M198 206h24v24h-24z" fill="#ffffff"/>
    <path d="M206 214h16v16h-16z" fill="#dff8ff"/>
    <path d="M294 226h40v16h16v48h-16v24h-40v-16h-16v-48h16z" fill="#073f6c"/>
    <path d="M306 238h32v48h-16v16h-28v-16h-8v-32h20z" fill="#109fe0"/>
    <path d="M314 246h24v16h-16v16h-16v-16h8z" fill="#65ccf5"/>
    <path d="M146 174h24v16h-24zM170 150h32v16h-32zM202 126h88v16h-88zM386 150h40v16h-40z" fill="#bcefff"/>
    <path d="M154 190h32v16h-32zM114 214h24v24h-24zM258 150h48v16h-48z" fill="#ffffff" opacity=".92"/>
    <path d="M402 214h24v24h-24zM386 246h32v24h-32zM354 270h32v24h-32z" fill="#55c3ed"/>
    <path d="M242 198h24v24h-24zM226 230h16v16h-16zM274 270h16v16h-16z" fill="#48bfe9"/>
    <path d="M114 246h24v24h-24zM138 270h40v24h-40zM178 294h56v24h-56z" fill="#eefcff"/>
    <path d="M250 326h48v16h-48zM298 342h32v16h-32z" fill="#c3efff"/>
  </g>
</svg>
