<svg width="200" height="200" viewBox="0 0 200 200" fill="none" xmlns="http://www.w3.org/2000/svg">
<path d="M71.1187 48.1904C75.1912 48.5577 84.6281 48.2898 89.1775 48.2875L126.101 48.2766L126.316 52.6304C129.984 52.617 133.833 52.4356 137.558 52.397L137.606 55.9954C140.432 56.0669 143.233 56.2242 146.094 56.2826C146.188 57.8976 146.156 58.8701 146.068 60.4796L149.898 60.3685C149.854 61.9353 150.059 63.3695 150.236 64.9225C152.725 65.2853 155.566 65.0841 158.105 64.9886C157.975 66.8699 157.925 67.5192 158.197 69.392C159.523 69.3902 160.877 69.4891 162.203 69.5658L162.262 73.0985C163.556 72.9827 165.492 72.9915 166.831 72.9624C166.835 74.5068 166.975 76.0698 167.087 77.6119C168.39 77.652 169.814 77.6042 171.127 77.5872C170.831 79.8133 170.946 84.9873 170.949 87.4129L170.99 104.853C169.729 104.94 168.404 105.151 167.147 105.325C167.078 107.629 167.288 110.596 167.293 112.999L167.18 130.051C167.167 131.706 167.22 137.061 166.96 138.353C165.986 138.698 166.047 137.766 164.635 138.231C163.669 139.772 164.032 147.9 164.081 150.138C163.003 150.202 161.526 150.443 160.424 150.589C160.423 152.064 160.573 153.934 160.657 155.435C159.37 155.36 157.914 155.347 156.612 155.309L156.582 159.164C152.731 159.192 148.88 159.198 145.029 159.182C145.054 157.896 144.932 156.632 144.832 155.35L141.065 155.174C141.002 153.436 141.071 151.642 141.11 149.899C140.059 149.714 138.683 149.666 137.596 149.596C137.595 146.801 137.483 142.234 137.952 139.658C138.807 139.054 139.295 140.004 140.212 139.402C140.324 131.542 140.161 123.557 140.211 115.671L136.294 115.937C136.259 113.208 136.261 110.479 136.299 107.751C135.42 107.432 134.767 108.033 133.702 107.296C133.239 106.57 133.484 104.788 133.536 103.838L129.055 103.9L129.15 100.003C127.241 99.8769 125.33 99.8007 123.418 99.774C123.613 98.5065 123.677 97.3357 123.759 96.0615C115.944 96.3194 105.222 96.2885 97.5273 95.8557L97.5692 100.301L89.636 100.221C89.5303 101.585 89.4962 103.022 89.4418 104.395L69.1082 104.397C69.3014 113.289 69.1233 122.909 69.1382 131.85C66.9043 131.923 66.3683 131.6 64.8764 133.436C63.4185 133.806 59.4284 133.786 57.7761 133.837L57.6365 126.754C56.3188 126.738 54.4956 126.551 53.1371 126.447C52.9664 125.109 52.96 123.539 52.9182 122.174C51.6074 122.322 50.1496 122.42 48.8244 122.535C48.801 120.827 49.045 113.12 48.6158 112.15C47.9077 112.044 47.4882 112.133 46.7857 112.217C46.0924 111.417 46.4506 104.907 46.5386 103.575C44.7195 103.899 42.4363 103.833 40.5493 103.841L40.6362 99.2523L31.3354 99.1288C31.3515 97.5869 31.476 96.6131 31.6751 95.1024L27.2528 95.0576C27.3044 93.0026 27.2428 90.7375 27.2285 88.6653C25.922 88.6722 24.4637 88.7754 23.1467 88.8392L23.127 63.34C24.9463 63.3901 25.7009 63.3832 27.4976 63.1338L27.5784 59.2899C30.1762 59.2116 32.7757 59.2912 35.3743 59.346C35.3907 60.5821 35.4707 61.9157 35.5208 63.1598C37.9943 63.6918 46.1148 63.4782 49.0866 63.4609L49.1849 60.6271C51.5525 60.6148 54.0989 60.4565 56.4776 60.352L56.6264 56.1833C60.125 56.1722 63.4657 56.2013 66.9651 56.0114C67.0315 54.8736 66.912 53.5448 66.8412 52.3924C68.2272 52.4135 69.745 52.5038 71.1413 52.5609C71.2365 51.1215 71.1602 49.6358 71.1187 48.1904Z" fill="#242424"/>
<path d="M71.8079 54.1904L125.85 54.2036L125.883 58.1181C129.748 58.1121 133.804 58.0422 137.654 58.1178L137.756 62.2053C140.368 62.1955 143.303 62.1172 145.889 62.2071L145.863 66.9274L149.773 66.8683C149.812 68.2704 149.894 69.8519 149.865 71.2401C152.455 71.2432 155.118 71.2153 157.701 71.2563L157.618 75.1476L161.944 75.1166L161.784 79.2838L166.127 79.1676L166.118 104.514L161.809 104.59C161.831 110.15 162.002 116.648 161.791 122.123L165.544 122.12C165.548 124.161 165.762 133.793 165.135 135.009C164.455 135.275 163.998 135.039 163.273 134.823C161.637 137.09 164.585 138.888 159.942 138.274C159.371 138.792 159.435 138.945 159.418 140.001C159.364 143.237 159.466 146.443 159.349 149.686C158.149 149.621 156.824 149.521 155.633 149.518L155.61 154.19L146.28 154.165C146.298 152.81 146.341 151.378 146.317 150.029C146.258 148.829 146.359 147.16 146.398 145.925L142.151 145.807C142.254 144.596 142.204 142.977 142.202 141.733L145.778 141.697C145.951 135.283 145.685 128.592 145.726 122.129C147.037 122.121 148.34 122.008 149.648 121.912C149.508 120.465 149.555 118.965 149.565 117.507L145.636 117.48L145.718 112.08L141.277 111.881L141.277 103.982C140.08 103.972 138.792 104.019 137.587 104.04L137.657 99.4397L132.981 99.3651L133.064 95.4863C130.665 95.5075 128.265 95.4698 125.868 95.3735C125.878 93.7609 125.973 92.4327 126.101 90.8282L107.598 90.8217C104.363 90.8235 100.338 90.9304 97.1643 90.7208L97.1571 95.3107C94.3054 95.2694 91.4531 95.2583 88.6014 95.2777L88.586 99.4183C81.7507 99.3698 74.9153 99.3739 68.08 99.4305C68.0636 100.845 67.9971 102.665 68.0643 104.043L63.8129 104.05C60.3238 104.026 56.2953 103.901 52.849 104.008C52.937 105.276 53.0676 106.673 53.0501 107.934C51.6689 107.918 50.2525 107.958 48.8687 107.981C48.8272 105.037 48.7782 102.346 48.9426 99.4005L44.4829 99.4008L44.5863 95.2906L36.3818 95.2431C36.5728 94.0811 36.5644 92.0258 36.5959 90.7866L32.0077 90.8731L31.9146 84.6722L28.127 84.99L28.1647 74.5808L28.1329 65.0732L35.3235 65.0962L35.3314 69.4233L49.4038 69.4179L49.4135 65.956C51.9682 65.9393 54.5832 65.953 57.1317 65.8954L57.0968 62.2278L67.3187 62.1632L67.1858 58.1263L71.7543 58.0786C71.7748 56.826 71.83 55.4301 71.8079 54.1904Z" fill="#FDCA3E"/>
<path d="M28.1646 75.1904C29.0431 75.4641 30.7923 75.2681 31.7799 75.2112L31.3922 79.8705C33.0469 79.6894 34.3426 79.5487 36.0086 79.5256C36.033 82.1679 36.1325 85.1866 36.0504 87.8002C39.84 87.7428 43.681 87.8094 47.4286 87.7415C47.3954 89.292 47.3718 90.3535 47.5225 91.9122C51.5169 92.3186 62.8767 92.1999 67.0292 91.8338L67.0863 88.871C72.4022 88.7016 77.7546 88.8097 83.0759 88.7626C83.0505 87.168 83.1127 85.7964 83.1954 84.206C86.6037 84.1719 90.815 84.2296 94.1481 83.9795L94.1906 79.7404C102.95 80.0858 113.488 79.8019 122.386 79.7947L122.33 84.2916C124.625 84.1799 126.607 84.1629 128.906 84.1901C128.76 85.739 128.624 87.289 128.498 88.84L132.343 88.7974C132.408 89.8472 132.521 91.1115 132.532 92.1446C135.052 92.1349 138.591 92.0214 141.025 92.242L141.129 95.6504L144.571 95.8251L144.562 92.3329C148.229 92.2819 151.897 92.2727 155.564 92.3055C155.564 93.745 155.534 95.3116 155.572 96.7389L151.946 96.7537C151.872 101.027 152.213 108.526 151.791 112.373C153.005 112.348 154.658 112.362 155.831 112.24L155.852 122.401C156.782 122.363 158.075 122.166 158.766 122.691C160.253 125.273 158.167 125.738 162.675 126.126C162.781 127.725 163.419 133.905 162.967 134.972C161.335 137.221 164.276 139.005 159.644 138.395C159.074 138.909 159.138 139.062 159.121 140.11C159.067 143.321 159.169 146.503 159.053 149.72C157.855 149.656 156.533 149.556 155.344 149.553L155.321 154.19L146.012 154.166C146.03 152.821 146.074 151.399 146.05 150.061C145.991 148.87 146.092 147.214 146.131 145.988L141.893 145.871C141.996 144.67 141.946 143.063 141.944 141.829L145.512 141.793C145.685 135.428 145.419 128.788 145.46 122.374C146.768 122.367 148.068 122.255 149.373 122.159C149.233 120.723 149.28 119.234 149.29 117.788L145.37 117.761L145.453 112.402L141.021 112.205L141.021 104.366C139.826 104.356 138.542 104.403 137.34 104.424L137.409 99.859L132.744 99.785L132.827 95.9358C130.433 95.9568 128.039 95.9194 125.647 95.8239C125.657 94.2237 125.751 92.9056 125.88 91.3134L107.418 91.307C104.191 91.3088 100.175 91.4149 97.0082 91.2068L97.001 95.7616C94.1558 95.7206 91.31 95.7096 88.4647 95.7288L88.4493 99.8377C81.6294 99.7896 74.8096 99.7937 67.9897 99.8498C67.9733 101.253 67.907 103.059 67.974 104.427L63.7322 104.434C60.251 104.41 56.2316 104.286 52.7931 104.393C52.8809 105.651 53.0112 107.037 52.9938 108.288C51.6157 108.273 50.2025 108.312 48.8218 108.335C48.7804 105.413 48.7315 102.743 48.8955 99.8201L44.4459 99.8203L44.5491 95.7416L36.3631 95.6945C36.5537 94.5414 36.5453 92.5018 36.5768 91.2721L31.999 91.358L31.9061 85.2045L28.127 85.52L28.1646 75.1904Z" fill="#F6A122"/>
<path d="M156.11 138.096C156.039 135.898 154.973 126.975 159.459 129.705C160.543 131.345 159.999 135.604 159.926 137.903C159.348 138.433 159.414 138.59 159.396 139.671C159.342 142.982 159.445 146.263 159.327 149.581C158.115 149.515 156.777 149.412 155.573 149.409L155.55 154.19L146.127 154.165C146.145 152.778 146.189 151.312 146.165 149.932C147.401 149.401 148.466 149.571 149.306 148.89C149.786 148.135 149.602 146.712 149.569 145.746L152.907 145.668C152.991 143.013 153.013 140.356 152.972 137.7L156.11 138.096Z" fill="#D08521"/>
<path d="M149.145 122.19L152.127 122.391C152.037 126.619 152.025 130.849 152.09 135.078L148.617 135.073C148.93 137.004 149.403 140.222 148.184 141.866C147.154 142.431 146.21 142.194 145.184 141.646C145.362 135.339 145.09 128.759 145.131 122.403C146.473 122.396 147.807 122.285 149.145 122.19Z" fill="#FDCA3E"/>
<path d="M49.2399 99.3402C54.0655 99.3285 63.5892 98.99 68.127 99.3711C68.1108 100.83 68.0452 102.707 68.1115 104.128L63.9157 104.136C60.4722 104.111 56.4964 103.982 53.0952 104.093C53.1821 105.4 53.3109 106.841 53.2937 108.142C51.9305 108.126 50.5327 108.167 49.167 108.19C49.126 105.154 49.0777 102.379 49.2399 99.3402Z" fill="#D08521"/>
<path d="M93.4032 59.41C104.065 59.4303 115.053 59.6061 125.673 59.1904L125.709 63.5491C128.343 63.5462 130.977 63.5585 133.612 63.5857C133.602 64.7928 133.558 66.1814 133.62 67.3716C135.893 67.4316 139.33 67.365 141.453 67.6837C141.583 68.8968 141.765 70.271 141.812 71.4771C143.1 71.5999 144.303 71.7087 145.585 71.9181L145.525 75.8337C146.963 75.6928 149.477 75.2115 150.127 77.0308C149.835 79.3139 147.234 79.1774 145.545 79.1822L145.633 83.9593C141.588 83.9957 136.677 83.9373 132.674 84.1904L132.483 79.5312L128.501 79.5051L128.914 75.1342L94.2408 75.1139L94.2582 79.6319C90.0391 79.646 83.4306 79.8602 79.3918 79.5169L79.1224 84.04C70.0019 83.8914 60.4422 84.243 51.4389 83.968C51.5693 82.7883 51.7641 81.3733 51.816 80.2074C50.0366 80.2597 41.273 80.6172 40.3629 79.8482C40.1363 78.7743 40.348 79.0398 39.6253 78.3648C38.6599 77.9679 37.3603 78.199 36.2883 78.2936C36.2402 76.7254 36.2216 75.0127 36.127 73.4589C37.393 73.5409 39.3527 73.4981 40.2655 74.3098C40.2655 74.7826 40.2626 74.9102 40.1765 75.3732C41.4011 76.75 50.0281 76.2227 52.0512 76.0546L51.9707 71.4671C58.6638 71.6186 65.3592 71.6444 72.0537 71.5445C72.0291 70.1969 72.0319 68.6813 71.9662 67.3478C73.289 67.4962 74.629 67.6827 75.9577 67.6586L76.0907 63.6926C80.0834 63.4812 84.2252 63.7856 88.0682 63.3625C88.0687 62.0962 88.0948 60.7699 88.0022 59.5115L93.4032 59.41Z" fill="#FDDF89"/>
<path d="M53.127 104.233C56.5846 104.127 60.6264 104.251 64.127 104.274L64.1061 128.19C62.867 128.163 61.2018 128.176 60.0018 128.044C60.448 118.901 56.8435 127.167 57.6034 118.551C56.3128 118.51 54.576 118.405 53.3212 118.459C53.384 115.361 53.5297 111.174 53.3287 108.108C53.3462 106.864 53.2152 105.484 53.127 104.233Z" fill="#F6A122"/>
<path d="M31.6018 125.208C33.4104 125.164 35.3887 125.215 37.211 125.227C37.2156 126.983 37.1914 128.453 37.0742 130.203L42.127 130.23L42.062 135.73L37.2141 135.702C37.2298 137.182 37.2022 138.706 37.194 140.19L31.6023 140.189L31.6067 135.689L26.1719 135.687C26.0975 133.883 26.1348 132.03 26.1482 130.221L31.6196 130.184L31.6018 125.208Z" fill="#FDDF89"/>
<path d="M62.15 32.2087C63.8033 32.1756 65.5202 32.1981 67.1796 32.1954L67.1617 37.297C68.812 37.2336 70.4633 37.2094 72.1144 37.2236L72.127 42.2751L67.1866 42.3105L67.176 47.113C66.4763 47.2598 63.0666 47.1551 62.1462 47.1424L62.1678 42.3039L57.1533 42.2767L57.127 37.3165L62.1814 37.1486L62.15 32.2087Z" fill="#FDDF89"/>
<path d="M164.799 54.2259C166.361 54.1423 168.075 54.2272 169.649 54.2681L169.483 58.2973L174.127 58.3099L174.067 63.114L169.645 63.0671L169.587 67.0162C169.152 67.255 165.587 67.1786 164.817 67.1794L164.761 63.0661L160.157 63.0658L160.127 58.3059L164.799 58.2725L164.799 54.2259Z" fill="#FDDF89"/>
</svg>
