<svg width="1000" height="1000" viewBox="0 0 1000 1000" fill="none" xmlns="http://www.w3.org/2000/svg">
<path d="M452.439 119C460.234 119.173 468.032 119.206 475.828 119.098L475.888 137.468C482.792 137.284 490.422 137.45 497.369 137.464C497.759 150.307 497.1 163.547 497.708 176.169L497.99 176.193C505.154 176.249 512.7 176.416 519.819 176.05C519.756 182.149 519.777 188.249 519.873 194.348C527.151 194.259 534.424 194.234 541.702 194.274C541.74 200.389 541.929 207.191 541.769 213.25C549.068 213.217 556.362 213.224 563.661 213.273L563.695 194.251C570.452 194.289 577.205 194.287 583.962 194.244C583.803 188.398 583.908 182.121 583.904 176.243C590.938 176.381 598.468 176.221 605.544 176.195L605.603 158.328L685.242 158.403C685.166 164.361 685.175 170.318 685.259 176.276L711.495 176.253C711.528 182.2 711.642 188.361 711.402 194.286L731.225 194.254L731.372 213.302C737.529 213.222 743.69 213.223 749.847 213.304L749.931 237.205C756.785 237.277 763.635 237.312 770.489 237.31C770.505 241.806 770.442 246.691 770.564 251.161L796.359 251.159C798.433 251.157 807.133 251.069 808.837 251.429C808.762 258.722 808.762 266.016 808.846 273.308L808.778 274.047C814.205 274.662 821.701 274.487 827.262 274.434L827.225 501.623L827.271 511.864C832.685 511.99 838.099 512.019 843.513 511.952C843.534 515.223 843.438 519.356 843.606 522.56L863.676 522.657L863.718 689.471L863.802 702.494L843.539 702.511L843.572 721.334L843.593 740.784L833.957 740.729C834.183 752.933 834.183 765.138 833.961 777.342C843.942 777.393 823.922 777.38 833.899 777.309C833.785 789.186 833.529 803.435 833.999 815.165L834.057 815.119C834.011 822.2 833.869 829.503 833.948 836.559L793.728 836.458L793.669 858.049C786.887 858.095 780.1 858.196 773.313 858.351C773.099 866.234 773.053 874.117 773.166 882L210.9 881.962C210.746 875.377 210.49 865.025 210.858 858.402L158.244 858.221L158.127 833.875C158.087 830.381 157.813 821.818 158.258 818.563L137.188 818.533C137.096 811.734 137.114 804.935 137.242 798.139C136.732 779.434 137.187 758.8 137.188 739.931L137.197 628.608L137.228 327.402L158.535 327.401C158.497 324.469 158.039 311.355 158.967 309.306L160.031 309.192C166.824 308.894 175.285 309.145 182.293 309.081C182.462 302.789 182.389 296.137 182.42 289.816C189.336 290.096 197.033 289.978 204.008 290.01L204.261 289.957C204.688 286.242 204.457 275.276 204.48 271.081L236.272 271.155L236.417 270.977L236.576 250.392C263.459 250.919 291.708 250.558 318.681 250.567C318.543 246.327 318.76 241.512 318.858 237.231L339.678 237.206C339.853 229.302 339.845 221.184 339.952 213.253L362.782 213.304L362.976 194.149C369.445 194.504 377.579 194.281 384.174 194.273L384.404 176.126L408.112 176.275L408.3 156.927C415.341 157.114 422.89 156.983 429.97 156.985L430.115 137.462C437.196 137.687 445.207 137.496 452.36 137.489L452.439 119Z" fill="#8F5A2D"/>
<path d="M827.271 511.863C832.686 511.989 838.1 512.019 843.514 511.951C843.535 515.223 843.439 519.356 843.606 522.56L863.677 522.657L863.719 689.471L863.803 702.494L843.539 702.511L843.573 721.334L843.594 740.783L833.957 740.729C834.184 752.933 834.184 765.137 833.962 777.342C843.942 777.392 823.923 777.38 833.899 777.308C833.786 789.185 833.53 803.435 834 815.165L834.058 815.119C834.012 822.199 833.869 829.503 833.949 836.558L793.728 836.458L793.67 858.048C786.887 858.095 780.101 858.195 773.314 858.351C773.1 866.234 773.054 874.117 773.167 882L210.9 881.962C210.747 875.377 210.49 865.024 210.859 858.401L158.245 858.221L158.128 833.875C158.087 830.381 157.814 821.817 158.259 818.562C158.685 823.581 158.505 831.267 158.523 836.508C164.221 836.508 177.03 836.164 182.216 836.722C182.426 829.331 182.463 821.935 182.328 814.543C185.988 815.929 278.137 815.14 287.02 815.131L593.755 815.135L684.231 815.186C691.58 815.119 698.925 815.098 706.274 815.114C713.002 815.182 720.187 815.484 726.857 815.119C726.852 806.224 726.16 785.401 727.28 777.716L727.285 776.716C726.924 772.609 727.188 762.559 727.163 758.107C723.142 758.09 719.197 758.162 715.18 758.422C692.327 759.888 669.415 759.086 646.558 760.22C636.225 760.732 625.934 761.122 615.592 760.984C615.445 754.222 615.462 747.457 615.63 740.691C606.682 740.829 597.73 740.876 588.777 740.829C588.71 734.253 588.706 727.676 588.769 721.099C581.462 721.04 574.155 721.027 566.848 721.061C566.428 708.869 566.591 695.657 566.554 683.381L566.596 613.027L566.457 579.147C566.453 574.935 566.214 566.615 566.638 562.659C574.041 562.743 581.445 562.743 588.848 562.659L588.819 551.064C588.58 548.309 588.731 543.328 588.731 540.417L608.973 540.38C608.86 535.088 608.541 526.294 609.175 521.17C616.671 521.334 624.482 521.183 632.003 521.136L715.877 521.199L808.095 521.187L813.505 521.199C818.122 521.023 822.671 521.166 827.288 521.258C827.141 518.222 827.238 514.925 827.271 511.863Z" fill="#302E2E"/>
<path d="M827.271 511.863C832.685 511.989 838.099 512.019 843.513 511.951C843.534 515.223 843.438 519.356 843.606 522.56L863.676 522.657L863.718 689.471L863.802 702.494L843.539 702.511L843.572 721.334C837.944 721.216 832.316 721.137 826.687 721.086C826.507 714.543 826.679 707.181 826.687 700.566C823.111 700.541 810.201 701.234 807.817 700.495C802.667 700.222 796.019 700.44 790.773 700.47L763.232 700.482L666.33 700.554C661.801 700.558 638.743 701.297 636.48 700.516C629.815 700.201 623.146 700.046 616.477 700.041C616.62 692.058 616.028 686.3 615.222 678.4C606.765 678.287 598.169 678.497 589.822 678.337C588.781 677.438 589.2 678.005 589.003 676.212L588.81 676.262C588.676 671.441 588.722 666.233 588.802 661.391C589.339 628.65 588.109 595.493 588.995 562.789C595.756 563.041 602.337 562.941 609.094 562.861C608.994 555.507 609.044 548.153 609.25 540.8L589.129 540.816C589.133 544.285 589.205 547.603 588.818 551.064C588.579 548.309 588.73 543.328 588.73 540.417L608.973 540.38C608.859 535.088 608.54 526.294 609.174 521.17C616.67 521.334 624.481 521.183 632.002 521.136L715.876 521.199L808.094 521.187L813.504 521.199C818.121 521.023 822.671 521.166 827.287 521.258C827.141 518.222 827.237 514.925 827.271 511.863Z" fill="#83532B"/>
<path d="M827.271 511.863C832.685 511.989 838.099 512.019 843.513 511.951C843.534 515.223 843.438 519.356 843.606 522.56L863.676 522.657L863.718 689.471L863.802 702.494L843.539 702.511L843.572 721.334C837.944 721.216 832.316 721.137 826.687 721.086C826.507 714.543 826.679 707.181 826.687 700.566C823.111 700.541 810.201 701.234 807.817 700.495C808.212 685.233 807.931 669.383 807.931 654.063L807.922 571.323C808.774 566.956 808.392 545.734 808.321 540.674C813.685 540.35 821.601 540.615 827.258 540.56C827.22 534.252 827.212 527.948 827.241 521.644C823.351 521.594 817.194 521.695 813.504 521.199C818.121 521.023 822.671 521.166 827.288 521.258C827.141 518.222 827.237 514.925 827.271 511.863Z" fill="#5E3D20"/>
<path d="M843.607 522.561L863.677 522.657L863.719 689.471L863.803 702.494L843.539 702.511C843.304 700.18 843.477 692.499 843.477 689.811C844.35 634.429 842.868 578.111 843.607 522.561Z" fill="#46362B"/>
<path d="M843.476 689.811C850.111 689.958 857.062 689.66 863.718 689.471L863.802 702.494L843.539 702.511C843.304 700.18 843.476 692.499 843.476 689.811Z" fill="#392E28"/>
<path d="M609.174 521.17C616.67 521.334 624.481 521.183 632.002 521.137L715.876 521.2L808.094 521.187L813.504 521.2C817.194 521.695 823.351 521.594 827.241 521.645C827.212 527.949 827.22 534.253 827.258 540.561C821.6 540.615 813.685 540.351 808.321 540.674C808.392 545.735 808.774 566.956 807.922 571.324C807.691 567.741 807.809 563.768 807.838 560.152C793.724 560.577 779.772 560.383 765.658 560.35L702.647 560.266L651.271 560.182C645.466 560.182 637.19 560.782 631.931 560.551C626.206 560.866 620.603 561.185 614.865 560.74C614.274 567.729 614.358 576.212 614.471 583.289C606.144 583.285 597.485 583.402 589.184 583.188L589.196 645.017C589.196 652.354 589.645 669.325 589.003 676.212L588.81 676.263C588.676 671.441 588.722 666.234 588.802 661.391C589.339 628.65 588.109 595.493 588.995 562.79C595.756 563.042 602.337 562.941 609.094 562.861C608.994 555.507 609.044 548.154 609.25 540.8L589.129 540.817C589.133 544.286 589.205 547.604 588.818 551.064C588.579 548.309 588.73 543.328 588.73 540.418L608.973 540.38C608.859 535.088 608.54 526.294 609.174 521.17Z" fill="#704622"/>
<path d="M631.965 540.409C669.243 541.35 709.413 540.77 746.872 540.649C759.623 540.577 772.378 540.581 785.129 540.661C791.701 540.682 801.493 540.947 807.856 540.468C808.061 546.877 807.894 553.71 807.839 560.152C793.724 560.576 779.773 560.383 765.658 560.35L702.648 560.266L651.272 560.182C645.467 560.182 637.19 560.782 631.931 560.551C631.881 553.853 632.032 547.158 631.965 540.409Z" fill="#8F5A2D"/>
<path d="M609.175 521.17C616.671 521.334 624.482 521.183 632.003 521.137C632.053 527.583 631.994 534.03 631.826 540.477C624.435 540.514 616.725 540.666 609.359 540.556C609.292 536.369 609.548 524.555 609.175 521.17Z" fill="#392E28"/>
<path d="M654.339 578.636L705.783 578.686C705.812 584.419 706.018 591.088 705.837 596.741C711.331 596.837 719.138 597.157 724.489 596.791C724.724 603.414 724.674 610.041 724.338 616.656C719.473 616.467 712.573 616.177 707.869 616.828L724.367 616.929L724.313 654.269C721.723 654.328 716.896 654.298 714.513 654.622C711.957 654.567 708.758 654.366 706.328 654.823C705.669 655.63 705.841 655.168 705.808 656.201C705.262 660.606 705.531 667.654 705.619 672.328C689.997 672.315 669.478 671.669 654.276 672.357C654.129 666.482 654.121 660.606 654.251 654.727C650.843 654.328 641.622 654.664 637.312 654.508C636.535 654.328 636.925 654.513 636.225 653.811C635.838 651.485 636.086 648.436 636.17 646.017C636.166 641.212 636.271 635.685 635.83 630.965C635.935 629.302 635.838 626.731 635.83 624.997C636.22 622.498 635.729 618.878 636.518 616.87C635.457 615.375 636.149 600.222 636.057 596.854C642.096 596.753 648.14 596.686 654.18 596.657L654.339 578.636Z" fill="#FDD04B"/>
<path d="M676.689 596.82C686.229 596.757 696.038 596.598 705.553 596.883C706.132 601.163 705.015 614.598 706.367 616.681C706.9 616.757 707.345 616.857 707.869 616.828L724.368 616.929L724.313 654.269C721.724 654.327 716.897 654.298 714.513 654.621C711.957 654.567 708.759 654.365 706.329 654.823C705.67 655.629 705.842 655.167 705.809 656.201C705.263 660.606 705.532 667.653 705.62 672.328C689.998 672.315 669.479 671.668 654.277 672.357C654.13 666.482 654.122 660.606 654.252 654.726C659.553 653.059 674.767 653.349 680.672 653.345L680.723 619.86L680.714 616.79C680.735 612.973 681.025 600.768 680.412 597.551C679.48 596.837 677.953 596.921 676.689 596.82Z" fill="#D49211"/>
<path d="M676.689 596.82C686.229 596.757 696.038 596.598 705.553 596.883C705.036 602.053 705.309 611.297 705.33 616.832C697.57 616.828 688.307 617.122 680.714 616.79C680.735 612.973 681.025 600.768 680.412 597.551C679.481 596.837 677.953 596.921 676.689 596.82Z" fill="#F8B609"/>
<path d="M654.34 578.636L705.783 578.686C705.813 584.419 706.018 591.088 705.838 596.741C711.332 596.837 719.138 597.157 724.49 596.791C724.725 603.414 724.674 610.041 724.339 616.656C719.474 616.467 712.574 616.177 707.869 616.828C707.345 616.858 706.9 616.757 706.367 616.681C705.015 614.598 706.132 601.163 705.552 596.884C696.038 596.598 686.229 596.758 676.689 596.821C669.227 596.716 661.764 596.711 654.302 596.816C654.252 603.389 654.302 610.277 654.105 616.828L636.519 616.87C635.457 615.375 636.15 600.222 636.057 596.854C642.097 596.753 648.141 596.686 654.18 596.657L654.34 578.636Z" fill="#5E3D20"/>
<path d="M654.39 619.922C659.565 620.397 674.8 619.885 680.722 619.859L680.672 653.344C674.767 653.348 659.552 653.058 654.251 654.726C650.843 654.327 641.622 654.663 637.312 654.507C636.536 654.327 636.926 654.511 636.225 653.81C635.839 651.483 636.086 648.434 636.17 646.015C641.136 646.57 648.686 646.221 654.222 646.536C654.125 637.561 653.949 628.893 654.39 619.922Z" fill="#F8B609"/>
<path d="M654.205 672.538C671.367 672.744 688.529 672.815 705.69 672.744L705.816 689.501C688.789 689.161 671.358 689.547 654.239 689.312L654.205 672.538Z" fill="#392E28"/>
<path d="M724.783 616.811C730.839 616.924 737.127 616.827 743.204 616.815L743.116 654.541C738.037 654.193 730.08 654.545 724.729 654.587L724.783 616.811Z" fill="#5E3D20"/>
<path d="M618.056 616.828L635.751 616.757C635.679 619.747 635.65 622.015 635.831 624.997C635.839 626.731 635.936 629.302 635.831 630.965C635.344 635.139 635.692 649.263 635.7 654.269C629.673 654.37 624.171 654.752 617.98 654.723C618.383 642.128 617.989 629.444 618.056 616.828Z" fill="#5E3D20"/>
<path d="M705.808 656.2C705.841 655.167 705.669 655.629 706.328 654.822C708.758 654.364 711.956 654.566 714.512 654.621C717.992 654.805 721.047 654.763 724.539 654.705C724.48 660.551 724.346 666.586 724.413 672.415C718.071 672.675 712.3 672.554 705.942 672.415C705.929 668.148 706.143 660.173 705.808 656.2Z" fill="#392E28"/>
<path d="M637.311 654.508C641.622 654.663 650.843 654.327 654.251 654.726C654.121 660.606 654.129 666.481 654.276 672.357C649.764 672.693 640.954 672.395 636.115 672.386C636.052 668.539 635.767 658.439 636.325 655.003L637.311 654.508Z" fill="#392E28"/>
<path d="M189.938 836.479C205.279 836.761 221.226 836.542 236.603 836.538L320.153 836.526L609.712 836.534L705.556 836.568C719.822 836.572 734.348 836.299 748.555 836.492L748.668 836.782C748.916 843.779 748.777 851.086 748.74 858.112L182.385 857.999C182.449 850.99 182.372 843.863 182.362 836.845C183.875 836.488 188.197 836.509 189.938 836.479Z" fill="#392E28"/>
<path d="M589.129 540.817L609.25 540.8C609.044 548.154 608.994 555.507 609.094 562.861C602.337 562.941 595.756 563.042 588.995 562.79C588.109 595.493 589.339 628.65 588.801 661.391C588.722 666.234 588.676 671.441 588.81 676.263L589.003 676.212C589.2 678.006 588.78 677.439 589.821 678.337C598.169 678.497 606.765 678.287 615.222 678.4C616.028 686.3 616.62 692.058 616.477 700.042C623.146 700.046 629.815 700.201 636.48 700.516C638.742 701.297 661.801 700.558 666.33 700.554L763.232 700.483L790.773 700.47C796.019 700.441 802.667 700.222 807.817 700.495C810.201 701.234 823.111 700.541 826.687 700.567C826.679 707.181 826.507 714.543 826.687 721.087C832.315 721.137 837.944 721.217 843.572 721.334L843.593 740.783L833.956 740.729L793.757 740.788C793.984 751.93 793.757 763.37 793.749 774.549L793.702 836.487C782.916 836.605 772.205 836.479 761.427 836.466C759.274 836.466 750.439 836.399 748.668 836.781L748.554 836.491C749.058 830.843 748.857 821.158 748.89 815.211L770.816 815.069C770.455 808.303 770.77 798.248 770.778 791.302L770.849 740.851C719.452 740.179 667.232 741.002 615.679 740.72L615.528 721.469L588.919 721.124C588.948 714.354 588.898 707.58 588.772 700.81C583.299 700.39 572.903 700.798 566.93 700.777C567.363 671.769 566.922 641.43 566.91 612.317L566.905 581.836C566.918 576.258 567.149 568.086 566.637 562.66C574.04 562.744 581.444 562.744 588.848 562.66L588.818 551.064C589.204 547.603 589.133 544.286 589.129 540.817Z" fill="#392E28"/>
<path d="M807.817 700.495C810.201 701.234 823.112 700.541 826.687 700.566C826.679 707.181 826.507 714.543 826.687 721.086C808.842 720.834 790.261 721.133 772.331 721.124L636.644 721.103L636.48 700.516C638.743 701.297 661.801 700.558 666.33 700.554L763.232 700.482L790.773 700.47C796.02 700.44 802.668 700.222 807.817 700.495Z" fill="#704622"/>
<path d="M588.811 676.262L589.004 676.212C589.201 678.005 588.781 677.438 589.822 678.337C598.17 678.497 606.766 678.287 615.223 678.4C616.029 686.3 616.62 692.058 616.478 700.041C623.147 700.045 629.816 700.201 636.481 700.516L636.645 721.103L615.835 720.994C615.651 713.678 615.529 707.668 616.192 700.39C607.148 700.516 598.103 700.533 589.058 700.436C589.046 692.377 588.966 684.322 588.811 676.262Z" fill="#5E3D20"/>
<path d="M727.658 757.033C730.873 756.961 746.78 756.167 748.698 757.138C748.946 767.658 748.492 778.766 748.702 789.48C741.647 789.442 734.44 789.48 727.402 789.358C727.419 786.401 727.616 780.417 727.28 777.716L727.284 776.717C728.233 773.109 727.746 761.178 727.658 757.033Z" fill="#5E3D20"/>
<path d="M726.962 815.182C734.24 815.014 741.547 815.379 748.892 815.211C748.858 821.158 749.059 830.843 748.556 836.492C734.349 836.298 719.823 836.571 705.557 836.567L609.713 836.534L320.154 836.525L236.604 836.538C221.227 836.542 205.28 836.76 189.938 836.479C192.765 836.009 200.298 836.139 203.537 836.13L232.041 836.21L334.404 836.067L605.679 836.084C645.929 836.084 686.691 836.567 726.886 836.177C726.76 829.18 726.786 822.179 726.962 815.182Z" fill="#5E3D20"/>
<path d="M452.441 119C460.235 119.173 468.033 119.206 475.83 119.098L475.889 137.468C482.793 137.284 490.424 137.45 497.37 137.464C497.76 150.307 497.101 163.547 497.71 176.169L497.991 176.193C505.155 176.249 512.702 176.416 519.82 176.05C519.757 182.149 519.778 188.249 519.874 194.348C527.152 194.259 534.426 194.234 541.703 194.274C541.741 200.389 541.93 207.191 541.771 213.25C549.069 213.217 556.364 213.224 563.663 213.273L563.696 194.251C570.453 194.289 577.207 194.287 583.964 194.244C583.804 188.398 583.909 182.121 583.905 176.243C590.939 176.381 598.469 176.221 605.545 176.195L605.604 158.328L685.243 158.403C685.168 164.361 685.176 170.318 685.26 176.276L711.496 176.253C711.53 182.2 711.643 188.361 711.404 194.286L731.226 194.254L731.373 213.302C737.53 213.222 743.692 213.223 749.849 213.304L749.933 237.205C756.786 237.277 763.636 237.312 770.49 237.31C770.507 241.806 770.444 246.691 770.565 251.161L796.361 251.159C798.434 251.157 807.135 251.069 808.839 251.429C808.763 258.722 808.763 266.016 808.847 273.308L808.78 274.047C814.207 274.662 821.703 274.487 827.264 274.434L827.226 501.623L827.272 511.864C827.239 514.925 827.142 518.222 827.289 521.258C822.672 521.166 818.122 521.023 813.506 521.2L808.096 521.187L715.878 521.2L632.003 521.137C631.592 515.639 631.911 505.619 631.911 499.781L770.842 499.84L770.859 430.748C770.868 419.125 771.245 406.179 770.863 394.704L770.943 385.825L770.259 385.106C765.479 384.513 754.881 384.889 749.912 384.996C749.937 379.103 749.928 373.209 749.882 367.316L749.987 367.111L749.84 348.424C742.781 347.968 733.388 348.236 726.236 348.258L687.434 348.295L562.051 348.27L204.455 348.782C204.614 341.548 204.647 334.311 204.555 327.076L212.087 327.151C212.19 320.765 212.238 314.378 212.233 307.99C215.083 308.276 217.852 308.191 220.709 308.236C232.502 308.419 244.361 307.89 256.143 308.142C255.829 304.178 256.199 294.961 256.246 290.685L278.235 290.662C278.089 284.415 278.187 277.842 278.296 271.592C276.298 270.434 242.642 271.807 236.419 270.977L236.578 250.392C263.46 250.919 291.71 250.558 318.682 250.567C318.544 246.327 318.761 241.512 318.86 237.231L339.679 237.206C339.855 229.302 339.847 221.184 339.953 213.253L362.783 213.304L362.977 194.149C369.447 194.504 377.58 194.281 384.175 194.273L384.405 176.126L408.114 176.275L408.301 156.927C415.343 157.114 422.892 156.983 429.972 156.985L430.116 137.462C437.198 137.687 445.209 137.496 452.361 137.489L452.441 119Z" fill="#392E28"/>
<path d="M452.44 119C460.235 119.173 468.032 119.206 475.829 119.098L475.888 137.468C482.793 137.284 490.423 137.45 497.369 137.464C497.759 150.307 497.1 163.547 497.709 176.169L497.99 176.193C505.155 176.249 512.701 176.416 519.819 176.05C519.756 182.149 519.777 188.249 519.874 194.348C527.151 194.259 534.425 194.234 541.703 194.274C541.74 200.389 541.929 207.191 541.77 213.25C541.623 226.963 542.299 242.357 541.879 255.744C541.774 267.902 541.745 280.059 541.795 292.217L541.862 314.532C541.866 317.849 542.026 323.875 541.665 326.931C540.154 327.388 539.44 327.358 537.892 327.438L347.803 327.263L299.646 327.524C295.548 327.529 281.782 327.737 278.473 327.097L278.295 327.11C276.371 327.599 258.884 327.325 255.937 327.327C256.136 321.182 256.156 314.287 256.143 308.142C255.829 304.178 256.198 294.961 256.245 290.685L278.234 290.662C278.088 284.415 278.186 277.842 278.295 271.592C276.297 270.434 242.641 271.807 236.418 270.977L236.577 250.392C263.459 250.919 291.709 250.558 318.681 250.567C318.543 246.327 318.761 241.512 318.859 237.231L339.678 237.206C339.854 229.302 339.846 221.184 339.952 213.253L362.782 213.304L362.976 194.149C369.446 194.504 377.58 194.281 384.175 194.273L384.405 176.126L408.113 176.275L408.301 156.927C415.342 157.114 422.891 156.983 429.971 156.985L430.115 137.462C437.197 137.687 445.208 137.496 452.361 137.489L452.44 119Z" fill="#97C394"/>
<path d="M452.351 213.209C460.202 213.25 468.053 213.244 475.904 213.191C475.83 221.188 475.844 229.185 475.945 237.182L497.554 237.232L497.625 273.772C504.681 273.819 512.722 274.064 519.698 273.842C519.702 279.907 519.626 286.201 519.79 292.244C527.026 292.259 534.585 292.384 541.795 292.218L541.862 314.532C541.867 317.849 542.026 323.875 541.665 326.931C540.154 327.388 539.441 327.358 537.892 327.438L347.803 327.263L299.647 327.524C295.548 327.529 281.782 327.737 278.474 327.097L318.69 327.076C318.846 321.413 318.741 315.332 318.739 309.636L339.606 309.424C339.827 303.896 339.815 298.015 339.891 292.455C347.445 292.27 355.248 292.317 362.823 292.267L362.967 273.816L384.325 273.795L408.203 273.799C408.158 267.776 408.171 261.753 408.242 255.731C408.197 249.72 408.028 243.189 408.192 237.221L452.401 237.215C452.427 229.213 452.41 221.211 452.351 213.209Z" fill="#547C55"/>
<path d="M452.42 273.742L475.711 273.848C475.757 285.597 475.967 297.727 475.797 309.44C483.045 309.373 490.289 309.376 497.537 309.448C497.625 315.33 497.663 321.213 497.638 327.096C468.44 327.024 437.263 326.505 408.185 327.042C408.026 315.475 408.058 303.907 408.284 292.341L429.797 292.172C429.934 286.114 430.042 280.055 430.119 273.995C437.551 273.81 444.985 273.726 452.42 273.742Z" fill="#78A577"/>
<path d="M408.242 255.731C422.775 255.759 437.895 255.461 452.336 255.782C452.383 261.683 452.524 267.865 452.42 273.743C444.985 273.726 437.55 273.81 430.118 273.996C430.041 280.055 429.934 286.114 429.796 292.172L408.283 292.342C408.058 303.907 408.025 315.476 408.185 327.043C400.231 327.105 392.277 327.121 384.322 327.093L384.325 273.796L408.203 273.799C408.158 267.777 408.171 261.753 408.242 255.731Z" fill="#97C394"/>
<path d="M452.44 119C460.235 119.173 468.032 119.206 475.829 119.098L475.888 137.468C482.793 137.284 490.423 137.45 497.369 137.464C497.759 150.307 497.1 163.547 497.709 176.169L475.841 176.228L475.871 157.019C468.086 156.993 460.153 156.882 452.381 156.945L452.397 176.185C445.145 176.167 437.242 176.378 430.079 176.185L429.996 194.211C422.741 194.154 415.486 194.149 408.23 194.197L408.157 213.226L384.269 213.263C384.203 221.097 384.303 229.382 384.06 237.168L362.905 237.227L362.834 255.577L339.79 255.735L339.595 273.723L318.821 273.854C318.729 279.98 318.679 286.106 318.671 292.232C311.862 292.279 305.051 292.291 298.242 292.267C298.054 297.561 297.989 302.86 298.048 308.158L278.157 308.273C278.081 314.552 278.128 320.832 278.295 327.11C276.371 327.599 258.884 327.325 255.937 327.327C256.136 321.182 256.156 314.287 256.143 308.142C255.829 304.178 256.198 294.961 256.245 290.685L278.234 290.662C278.088 284.415 278.186 277.842 278.295 271.592C276.297 270.434 242.641 271.807 236.418 270.977L236.577 250.392C263.459 250.919 291.709 250.558 318.681 250.567C318.543 246.327 318.761 241.512 318.859 237.231L339.678 237.206C339.854 229.302 339.846 221.184 339.952 213.253L362.783 213.304L362.976 194.149C369.446 194.504 377.58 194.281 384.175 194.273L384.405 176.126L408.113 176.275L408.301 156.927C415.342 157.114 422.891 156.983 429.971 156.985L430.115 137.462C437.197 137.687 445.208 137.496 452.361 137.489L452.44 119Z" fill="#2B4B2D"/>
<path d="M236.577 250.392C263.459 250.919 291.709 250.558 318.681 250.567C318.575 252.175 318.446 253.782 318.296 255.388C312.332 255.371 303.738 255.076 298.054 255.706C298.287 260.943 298.31 265.852 298.313 271.093C295.223 271.206 279.446 270.93 278.295 271.592C276.297 270.434 242.641 271.807 236.418 270.977L236.577 250.392Z" fill="#46362B"/>
<path d="M497.99 176.193C505.154 176.249 512.701 176.416 519.819 176.05C519.756 182.149 519.777 188.249 519.874 194.348C527.151 194.259 534.425 194.234 541.703 194.274C541.74 200.389 541.929 207.191 541.77 213.25C541.623 226.963 542.299 242.357 541.879 255.744C534.492 255.633 527.101 255.628 519.714 255.728C519.588 241.574 519.576 227.42 519.685 213.266L497.642 213.245C497.625 208.126 497.277 178.961 497.99 176.193Z" fill="#2B4B2D"/>
<path d="M384.169 255.733L408.241 255.73C408.17 261.753 408.158 267.776 408.203 273.799L384.325 273.795C384.378 267.839 384.237 261.703 384.169 255.733Z" fill="#547C55"/>
<path d="M605.604 158.328L685.243 158.403C685.168 164.361 685.176 170.318 685.26 176.276L711.496 176.253C711.53 182.2 711.643 188.361 711.404 194.286L731.226 194.254L731.373 213.302C737.53 213.222 743.692 213.223 749.849 213.305L749.933 237.205C749.937 253.965 749.509 272.767 749.979 289.366C749.962 301.912 749.752 314.889 750 327.391C737.602 327.483 724.054 327.455 711.689 327.263C709.284 327.721 688.714 327.436 685.172 327.415L626.669 327.218C624.197 327.69 608.437 327.619 605.373 327.529C591.993 327.138 576.892 327.822 563.688 327.074C561.132 325.854 542.522 328.027 537.893 327.438C539.441 327.358 540.155 327.388 541.666 326.931C542.027 323.875 541.867 317.849 541.863 314.532L541.796 292.217C541.745 280.059 541.775 267.902 541.88 255.744C542.3 242.357 541.624 226.963 541.771 213.25C549.069 213.217 556.364 213.224 563.663 213.273L563.696 194.252C570.453 194.289 577.207 194.287 583.964 194.244C583.804 188.398 583.909 182.121 583.905 176.243C590.939 176.381 598.469 176.221 605.545 176.195L605.604 158.328Z" fill="#FDD04B"/>
<path d="M626.245 200.377C643.709 200.359 662.075 200.692 679.434 200.403C679.43 206.531 679.312 212.983 679.422 219.082C661.748 219.326 644.049 219.127 626.371 219.267L626.085 237.489C619.462 237.408 612.839 237.379 606.216 237.4C606.376 253.97 606.082 270.475 606.187 286.94C612.684 287.036 619.181 287.054 625.674 286.994C625.657 271.503 625.288 254.13 625.825 238.786C631.974 238.876 638.064 238.782 644.175 238.848C644.116 254.97 642.387 271.112 642.441 287.315L630.421 287.31L626.115 287.332L626.081 308.18C619.416 308.243 612.747 308.227 606.082 308.131C606.103 301.235 606.015 293.985 606.225 287.119L586.591 287.165L586.666 237.221L606.246 237.226C606.183 231.019 605.952 223.8 606.233 217.68C613.372 217.455 619.08 218.822 626.262 218.815L626.245 200.377Z" fill="#D49211"/>
<path d="M541.771 213.25C549.069 213.217 556.364 213.224 563.663 213.272L563.629 299.787C563.18 308.177 563.797 318.373 563.688 327.073C561.132 325.854 542.522 328.026 537.893 327.438C539.441 327.357 540.155 327.387 541.666 326.931C542.027 323.874 541.867 317.848 541.863 314.531L541.796 292.217C541.745 280.059 541.775 267.901 541.88 255.744C542.3 242.357 541.624 226.963 541.771 213.25Z" fill="#46362B"/>
<path d="M605.603 158.328L685.243 158.403C685.167 164.361 685.176 170.318 685.26 176.276C659.788 176.073 630.987 175.6 605.616 176.274C605.532 182.268 605.536 188.262 605.629 194.256C598.418 194.201 591.212 194.186 584.005 194.212C583.909 200.578 583.926 206.945 584.047 213.31C577.252 213.228 570.457 213.215 563.662 213.273L563.696 194.252C570.453 194.289 577.206 194.287 583.963 194.244C583.804 188.398 583.909 182.121 583.905 176.243C590.939 176.381 598.468 176.221 605.545 176.195L605.603 158.328Z" fill="#46362B"/>
<path d="M699.411 238.639L716.242 238.86C715.998 255.957 716.917 273.302 716.708 289.927L699.277 289.844C699.466 296.47 699.487 303.1 699.34 309.728C692.692 309.634 686.048 309.649 679.404 309.775L679.337 289.665L699.332 289.763L699.411 238.639Z" fill="#D49211"/>
<path d="M732.183 289.44C737.925 289.668 744.237 289.515 749.979 289.365C749.962 301.912 749.752 314.888 750 327.39C737.602 327.482 724.054 327.454 711.689 327.262L711.483 309.94C718.178 310.108 725.455 309.94 732.192 309.91L732.183 289.44Z" fill="#D49211"/>
<path d="M626.483 309.59C631.477 309.978 639.2 309.765 644.35 309.777L679.404 309.775C679.416 315.499 679.37 321.328 679.45 327.041L699.713 327.065C702.655 327.054 708.93 326.878 711.688 327.263C709.283 327.721 688.713 327.436 685.17 327.416L626.668 327.218L626.223 327.011C626.491 321.511 626.42 315.158 626.483 309.59Z" fill="#D49211"/>
<path d="M685.259 176.276L711.495 176.253C711.528 182.201 711.642 188.362 711.402 194.286L731.225 194.254L731.372 213.302C725.559 213.559 717.463 213.242 711.478 213.193C711.511 206.923 711.428 200.597 711.386 194.323L685.267 194.315L685.259 176.276Z" fill="#46362B"/>
<path d="M731.373 213.301C737.53 213.222 743.691 213.222 749.849 213.304L749.932 237.205L731.436 237.249L731.373 213.301Z" fill="#46362B"/>
<path d="M563.629 299.787C563.939 303.037 563.939 306.016 563.973 309.281C571.402 309.402 578.831 309.466 586.264 309.474L586.297 327.068C599.476 327.097 613.083 327.288 626.224 327.011L626.669 327.218C624.197 327.69 608.437 327.619 605.373 327.529C591.993 327.138 576.892 327.822 563.688 327.074C563.797 318.373 563.18 308.178 563.629 299.787Z" fill="#C07B45"/>
<path d="M679.421 219.082C686.074 219.025 692.726 219.042 699.379 219.132C699.358 225.393 699.181 232.441 699.412 238.639C692.797 238.441 685.944 238.62 679.329 238.756L679.421 219.082Z" fill="#D49211"/>
<path d="M650.818 250.733C654.096 250.903 657.924 250.805 661.244 250.801C661.164 253.887 661.139 256.974 661.164 260.061C659.494 260.499 652.829 260.313 650.852 260.297L650.818 250.733Z" fill="#FEECB4"/>
<path d="M749.932 237.205C756.786 237.277 763.636 237.312 770.489 237.31C770.506 241.806 770.443 246.691 770.565 251.16L796.36 251.159C798.434 251.157 807.134 251.068 808.838 251.429C808.763 258.722 808.763 266.015 808.846 273.308L808.779 274.047C807.562 276.193 807.835 321.956 807.877 327.981L807.852 443.557L807.81 480.294C807.801 486.231 807.55 494.88 807.932 500.659C806.127 500.997 796.167 500.737 793.8 500.704C794.375 456.495 793.661 411.795 793.897 367.533C788.894 367.454 783.408 367.454 778.447 367.842L778.468 353.277C773.608 353.281 768.748 353.361 763.892 353.516C764.135 349.434 763.997 344.659 763.976 340.521C759.564 340.773 754.797 340.763 750.356 340.837C750.327 338.237 750.381 329.46 749.999 327.39C749.752 314.889 749.962 301.912 749.978 289.366C749.508 272.767 749.936 253.965 749.932 237.205Z" fill="#46362B"/>
<path d="M770.506 272.606C782.17 272.539 793.863 272.328 805.514 272.859C806.668 272.912 808.007 273.445 808.846 273.308L808.779 274.047C807.562 276.194 807.835 321.957 807.877 327.982L790.572 328.068L790.467 309.451C783.802 309.386 777.246 309.163 770.552 309.178C770.942 297.398 770.594 284.482 770.506 272.606Z" fill="#704622"/>
<path d="M808.838 251.43C808.762 258.723 808.762 266.016 808.846 273.309C808.007 273.446 806.668 272.913 805.514 272.86C793.863 272.328 782.17 272.539 770.506 272.607C770.195 268.314 770.472 255.676 771.144 251.704L794.845 251.707C799.054 251.706 804.762 251.856 808.838 251.43Z" fill="#392E28"/>
<path d="M808.174 500.951C812.632 501.182 823.804 500.871 827.225 501.624L827.271 511.864C827.238 514.925 827.141 518.222 827.288 521.259C822.671 521.166 818.122 521.023 813.505 521.2L808.095 521.187C808.41 514.589 808.233 507.588 808.174 500.951Z" fill="#46362B"/>
<path d="M749.986 367.111C756.751 367.616 764.151 366.885 770.954 367.316C770.917 373 770.669 380.263 770.942 385.825L770.258 385.106C765.477 384.513 754.88 384.888 749.91 384.996C749.935 379.102 749.927 373.209 749.881 367.316L749.986 367.111Z" fill="#83532B"/>
<path d="M236.273 271.155L236.419 270.977C242.642 271.806 276.298 270.433 278.296 271.591C278.187 277.841 278.089 284.415 278.235 290.661L256.246 290.684C256.199 294.96 255.829 304.177 256.143 308.141C244.361 307.89 232.502 308.418 220.709 308.235C217.852 308.191 215.083 308.275 212.233 307.99C212.238 314.377 212.19 320.764 212.087 327.151L204.555 327.076C204.647 334.311 204.614 341.547 204.455 348.781L562.051 348.27L687.434 348.295L726.236 348.258C733.388 348.236 742.781 347.968 749.84 348.424L749.987 367.111L749.882 367.315C746.718 366.643 732.93 367.112 728.813 367.168C720.52 367.236 712.23 367.23 703.937 367.148L574.151 367.156L310.859 367.192L225.038 367.171C212.475 367.184 194.663 366.507 182.48 367.373C176.129 367 165.886 367.56 158.868 367.402L158.862 367.008C158.997 361.811 158.889 356.213 158.876 350.986C164.214 351.052 169.554 351.053 174.893 350.988C177.533 350.419 179.341 350.534 182.033 350.561C182.548 342.948 182.193 335.1 182.347 327.432C182.531 321.547 182.329 315.216 182.235 309.293C175.107 309.361 167.077 309.561 160.032 309.192C166.825 308.894 175.287 309.145 182.294 309.081C182.464 302.788 182.39 296.136 182.422 289.816C189.337 290.096 197.034 289.977 204.009 290.01L204.262 289.956C204.689 286.242 204.458 275.275 204.482 271.081L236.273 271.155Z" fill="#8F5A2D"/>
<path d="M236.273 271.155L236.418 270.977C242.642 271.806 276.297 270.433 278.296 271.591C278.186 277.841 278.089 284.415 278.235 290.661L256.246 290.684C256.198 294.96 255.829 304.177 256.143 308.141C244.361 307.89 232.501 308.418 220.709 308.235C217.852 308.191 215.083 308.275 212.232 307.99C214.941 307.496 232.172 307.835 236.423 307.774C236.626 301.886 236.121 296.212 236.412 290.051C236.651 287.958 236.468 273.438 236.273 271.155Z" fill="#83532B"/>
<path d="M204.48 271.081L236.272 271.155C236.467 273.438 236.65 287.958 236.411 290.051L204.261 289.956C204.688 286.242 204.457 275.275 204.48 271.081Z" fill="#46362B"/>
<path d="M182.422 289.816C189.337 290.097 197.034 289.978 204.009 290.01C204.827 293.078 204.264 305.298 204.275 309.078C196.948 309.128 189.621 309.129 182.294 309.081C182.464 302.789 182.39 296.137 182.422 289.816Z" fill="#46362B"/>
<path d="M174.893 350.989L182.478 351.044L182.357 366.925C174.527 367.079 166.694 367.107 158.862 367.008C158.997 361.812 158.889 356.214 158.876 350.986C164.214 351.053 169.554 351.054 174.893 350.989Z" fill="#C07B45"/>
<path d="M158.535 327.401C158.497 324.469 158.039 311.355 158.967 309.306L160.031 309.192C167.076 309.562 175.106 309.362 182.234 309.294C182.327 315.217 182.53 321.548 182.346 327.433C182.191 335.101 182.547 342.948 182.032 350.561C179.34 350.535 177.532 350.419 174.891 350.989C169.553 351.053 164.213 351.053 158.874 350.986C158.887 356.214 158.996 361.811 158.861 367.008L158.867 367.402C165.884 367.56 176.128 367 182.478 367.374L182.415 371.812C181.652 377.711 181.961 384.942 182.156 390.95C182.617 405.157 183.495 419.088 182.474 433.315C182.191 437.257 182.618 441.633 182.301 445.525C174.393 445.532 166.518 445.35 158.602 445.433L158.644 631.515L158.664 707.009C158.665 719.592 158.95 733.636 158.618 746.113C158.415 748.49 158.656 750.766 158.726 753.148C158.998 762.303 158.608 771.442 158.701 780.601C158.724 782.857 159.128 789.954 158.658 791.869C156.81 791.995 154.805 792.373 152.705 792.529C148.14 792.869 142.387 792.676 138.005 793.352C137.795 794.683 137.555 796.972 137.242 798.14C136.732 779.434 137.187 758.801 137.188 739.931L137.197 628.608L137.228 327.402L158.535 327.401Z" fill="#46362B"/>
<path d="M158.867 367.402C165.885 367.56 176.128 367 182.478 367.373L182.415 371.811C181.652 377.711 181.961 384.941 182.156 390.95C182.617 405.157 183.495 419.088 182.474 433.314C182.191 437.256 182.618 441.633 182.301 445.525C174.393 445.531 166.518 445.349 158.602 445.433C158.373 435.92 158.871 425.149 158.917 415.456L158.867 367.402Z" fill="#704622"/>
<path d="M158.698 327.529C166.561 327.472 174.497 327.593 182.346 327.433C182.192 335.101 182.548 342.948 182.033 350.561C179.34 350.535 177.532 350.419 174.892 350.989C169.553 351.053 164.214 351.052 158.875 350.986C158.888 356.214 158.997 361.811 158.862 367.008C157.781 363.766 158.808 333.686 158.698 327.529Z" fill="#83532B"/>
<path d="M182.479 367.373C194.663 366.507 212.475 367.185 225.038 367.171L310.859 367.192L574.151 367.156L703.937 367.148C712.23 367.23 720.519 367.237 728.813 367.168C732.93 367.112 746.717 366.643 749.882 367.316C749.928 373.209 749.937 379.102 749.911 384.995C754.881 384.888 765.478 384.513 770.259 385.106L770.943 385.825L770.863 394.703C770.469 398.899 770.553 403.85 770.515 408.117C763.627 408.188 756.74 408.104 749.857 407.862C749.882 400.638 749.907 393.814 749.559 386.587C730.97 386.886 711.441 386.618 692.81 386.62L570.281 386.583L182.436 386.635C182.217 382.064 182.533 376.621 182.416 371.811L182.479 367.373Z" fill="#C07B45"/>
<path d="M158.602 445.433C166.518 445.35 174.393 445.531 182.301 445.525C181.859 462.305 182.413 481.76 182.388 498.896L182.381 627.189L182.412 710.075L182.393 736.029C182.387 739.582 182.194 745.306 182.416 748.733C178.882 748.687 160.789 749.397 158.989 748.322L158.618 746.113C158.95 733.635 158.665 719.591 158.664 707.009L158.644 631.514L158.602 445.433Z" fill="#C07B45"/>
<path d="M137.243 798.139C137.555 796.972 137.795 794.683 138.006 793.352C142.387 792.675 148.141 792.869 152.706 792.528C154.806 792.373 156.81 791.995 158.659 791.869C158.596 794.633 158.445 797.841 158.615 800.563C158.628 805.031 158.678 809.504 158.765 813.972C162.347 814.035 180.352 813.754 182.328 814.544C182.463 821.935 182.426 829.331 182.216 836.722C177.029 836.164 164.221 836.508 158.523 836.508C158.505 831.267 158.685 823.581 158.259 818.563L137.188 818.533C137.097 811.734 137.115 804.935 137.243 798.139Z" fill="#392E28"/>
<path d="M158.619 746.113L158.99 748.322C160.79 749.397 178.882 748.688 182.417 748.734C182.445 762.278 181.838 779.186 182.463 792.504C174.64 792.575 166.817 792.605 158.993 792.596C158.938 794.898 158.948 798.383 158.615 800.563C158.445 797.842 158.596 794.633 158.659 791.87C159.128 789.954 158.725 782.857 158.702 780.602C158.609 771.442 158.998 762.303 158.727 753.148C158.656 750.767 158.416 748.49 158.619 746.113Z" fill="#704622"/>
<path d="M204.684 408.134C213.258 408.016 221.834 407.972 230.409 408.001C237.015 408.042 244.811 408.294 251.332 407.854L251.345 427.496C243.942 427.433 233.681 427.135 226.417 427.508C227.652 427.79 229.686 427.862 231.003 427.953C230.949 433.674 231.12 439.69 231.2 445.434C222.282 445.527 213.435 445.258 204.456 445.445C204.357 439.444 204.331 433.443 204.379 427.442L204.684 408.134Z" fill="#704622"/>
<path d="M204.379 427.441C211.662 427.442 219.151 427.354 226.417 427.508C227.652 427.789 229.686 427.861 231.003 427.952C230.949 433.673 231.12 439.69 231.2 445.434C222.282 445.527 213.435 445.257 204.456 445.444C204.357 439.444 204.331 433.442 204.379 427.441Z" fill="#C07B45"/>
<path d="M317.271 768.997C331.312 769.61 346.525 769.094 360.74 769.308C360.814 776.027 360.82 782.743 360.756 789.462L317.353 789.475C317.25 782.65 317.223 775.822 317.271 768.997Z" fill="#704622"/>
<path d="M293.68 408.036C297.502 408.155 301.324 408.101 305.145 408C316.317 407.706 327.497 408.196 338.668 407.924L338.648 427.426C328.53 427.519 318.412 427.535 308.293 427.473C303.911 427.458 297.883 427.633 293.646 427.414L293.68 408.036Z" fill="#704622"/>
<path d="M200.217 769.22C213.619 769.014 227.144 769.442 240.687 769.249C240.84 775.675 240.506 782.907 240.436 789.441C227.638 789.559 213.195 789.903 200.49 789.425C200.524 782.688 200.433 775.952 200.217 769.22Z" fill="#704622"/>
<path d="M548.179 769.098C561.102 769.056 574.1 769.317 587.052 769.363C587.338 776.158 587.237 782.752 587.17 789.547L547.646 789.434C547.696 786.321 546.651 770.329 548.179 769.098Z" fill="#704622"/>
<path d="M534.488 407.941C543.411 407.794 551.713 408.092 560.736 407.708C560.589 414.217 560.359 420.898 560.56 427.391C556.199 427.394 551.608 427.548 547.23 427.634C538.425 427.79 528.889 427.489 520.029 427.353L519.949 408.088L534.488 407.941Z" fill="#704622"/>
<path d="M437.112 769.258L475.846 769.287C475.785 776.15 475.742 782.705 475.963 789.564C463.044 789.715 449.895 789.475 436.91 789.543C437.052 782.785 437.12 776.024 437.112 769.258Z" fill="#704622"/>
<path d="M415.366 407.698C428.293 408.142 441.905 408.081 454.865 408.143C454.948 414.645 455.074 421.147 455.244 427.647C442.024 427.44 428.803 427.352 415.581 427.385C415.386 420.825 415.314 414.262 415.366 407.698Z" fill="#704622"/>
<path d="M633.006 407.923C645.74 408.173 658.474 408.137 671.207 407.815C671.199 410.741 671.489 426.261 670.561 427.502C657.634 427.416 644.619 427.617 631.726 427.415C631.797 424.171 631.629 410.541 632.196 408.287L633.006 407.923Z" fill="#704622"/>
<path d="M359.183 408.123C371.406 407.899 384.067 408.107 396.37 408.032C396.191 414.122 396.399 420.999 396.298 427.275C394.629 427.658 384.329 427.472 382.003 427.448C374.314 427.319 366.624 427.323 358.935 427.461C358.726 421.122 359.009 414.489 359.183 408.123Z" fill="#C07B45"/>
<path d="M380.021 769.33L415.464 769.254C415.37 775.793 415.639 782.928 415.769 789.505C403.847 789.35 391.923 789.329 379.999 789.442C379.74 783.466 380.091 775.633 380.021 769.33Z" fill="#C07B45"/>
<path d="M256.858 769.274L289.351 769.304C289.178 775.746 289.854 783.1 289.367 789.471C278.574 789.366 267.779 789.353 256.985 789.433L256.858 769.274Z" fill="#C07B45"/>
<path d="M580.806 407.86C590.808 408.524 603.542 407.942 613.934 408.165C613.9 414.597 613.942 421.029 614.059 427.461C603.08 427.582 591.865 427.434 580.869 427.396C580.751 420.885 580.731 414.372 580.806 407.86Z" fill="#C07B45"/>
<path d="M604.612 769.296C614.878 769.052 625.606 769.267 635.914 769.338C635.918 775.902 635.805 782.899 636.069 789.425C625.535 789.484 615 789.484 604.47 789.429C604.323 782.529 604.428 776.205 604.612 769.296Z" fill="#C07B45"/>
<path d="M662.378 777.952C671.326 777.561 680.249 778.292 689.1 777.721C689.138 781.786 689.474 793.827 688.895 797.371C687.539 798.178 687.161 797.871 685.302 797.892L658.5 797.749C658.403 791.189 658.399 784.625 658.487 778.065L662.378 777.952Z" fill="#5E3D20"/>
<path d="M726.156 445.513L746.516 445.516C746.696 454.877 746.721 464.24 746.591 473.601C739.767 473.605 732.947 473.57 726.122 473.496C725.95 464.169 725.958 454.839 726.156 445.513Z" fill="#704622"/>
<path d="M494.171 769.304C502.448 769.136 511.19 769.299 519.505 769.316C519.484 775.96 519.563 782.6 519.74 789.24C517.973 789.672 497.319 789.454 494.112 789.475C494.297 782.751 494.318 776.027 494.171 769.304Z" fill="#C07B45"/>
<path d="M267.695 407.868C276.356 408.01 285.018 408.066 293.68 408.035L293.646 427.413L267.722 427.481L267.695 407.868Z" fill="#C07B45"/>
<path d="M491.283 407.929C492.588 407.863 494.93 407.996 496.315 408.029C496.236 414.495 496.202 420.961 496.227 427.428L477.017 427.42L471.26 427.441L471.266 407.996C477.938 408.121 484.61 408.099 491.283 407.929Z" fill="#C07B45"/>
<path d="M688.44 407.932C696.096 408.079 704.532 408.277 712.153 407.815L712.112 427.452C704.355 427.264 696.075 427.429 688.276 427.45C688.226 423.446 687.869 411.439 688.44 407.932Z" fill="#C07B45"/>
</svg>
