<svg width="60" height="61" viewBox="0 0 60 61" fill="none" xmlns="http://www.w3.org/2000/svg">
<path d="M15.9931 13.9025H20.5201H37.2046H41.9596C43.512 13.6385 47.0081 13.9025 47.0081 13.9025H48.7528H49.9118C49.9118 13.9025 52.1387 14.5061 52.5301 15.8778C52.7188 16.5404 52.5889 16.946 52.6459 17.5659C54.3545 18.7006 55.4014 19.9401 55.8247 21.9912C56.0679 23.1708 55.9491 24.5423 55.9926 25.7468C57.0763 27.5557 56.9323 28.5654 56.9329 30.6176C56.9329 32.0039 56.9096 33.4416 56.9317 34.8265C57.7703 34.8401 58.5153 34.9598 59.1426 35.5783C59.9573 36.3823 60.0223 37.4549 59.9953 38.5195C59.972 40.3415 60.0008 42.1665 59.9922 43.9884C59.9837 45.8868 58.9049 47.1315 56.9372 47.0484C56.9029 48.6503 56.9341 50.3686 56.9341 51.9783C56.9341 54.7097 57.1792 56.9767 55.1018 59.1266C53.887 60.3835 52.3408 60.9783 50.6084 60.9825C47.3358 60.9904 44.0572 60.9844 40.7834 60.985L21.0983 60.9819L12.2112 60.9856C10.661 60.9868 8.48382 61.0638 6.9963 60.8564C5.49199 60.6473 3.60382 59.6202 2.52815 58.561C0.786205 56.8457 0.0167756 54.8589 0.0181846 52.4409C0.0224115 45.2059 0.0225949 37.9702 0.0223499 30.7375L0.019411 24.6766C0.0159191 23.3048 -0.0775666 21.5167 0.17936 20.2035C0.752512 17.2737 3.27638 14.8259 6.18392 14.1386C7.36184 13.8601 9.67356 13.9025 9.67356 13.9025H14.2289H15.9931Z" fill="#4F423A"/>
<path d="M52.6453 17.5664C54.3538 18.7011 55.4008 19.9406 55.8241 21.9918C56.0673 23.1713 55.9484 24.5428 55.9919 25.7473C55.87 25.5996 55.7408 25.4579 55.6048 25.3226C54.6558 24.3866 53.4625 24.0046 52.1436 24.0008C52.2698 21.912 52.4817 19.6628 52.6453 17.5664Z" fill="#6D594C"/>
<path d="M36.4963 37.994C36.1741 38.018 35.7126 37.9522 35.3805 37.9301C29.8057 37.5552 25.0992 33.909 22.719 28.9368C20.6377 24.5887 20.4947 19.8509 22.0646 15.2987C23.476 11.1393 26.4798 7.70968 30.4169 5.76246C34.4128 3.82125 38.4652 3.87381 42.6147 5.30977C43.1267 5.44241 43.6256 5.6497 44.1167 5.84664C47.3046 7.11319 49.979 9.40635 51.7171 12.3635C55.1037 18.0983 54.6471 25.6108 50.9811 31.0642C49.6627 33.0252 47.8934 34.8036 45.8467 35.9885C43.0277 37.6478 39.7479 38.3516 36.4963 37.994Z" fill="#FDCE45"/>
<path d="M42.6146 5.31171C43.1265 5.44435 43.6255 5.65164 44.1166 5.84858C47.3044 7.11512 49.9788 9.40829 51.7169 12.3655C55.1035 18.1003 54.647 25.6127 50.981 31.0661C49.6626 33.0271 47.8933 34.8056 45.8465 35.9905C43.0276 37.6498 39.7477 38.3535 36.4962 37.9959C36.6545 37.8941 38.2327 37.7484 38.6437 37.6786C41.106 37.262 44.1123 35.7923 45.9149 34.0722C46.286 33.7448 46.5969 33.4507 46.9559 33.1113C47.3561 32.6731 47.7455 32.2246 48.1237 31.7672C48.3726 31.4628 48.6124 31.1123 48.8423 30.7903C49.135 30.3052 49.4204 29.873 49.7119 29.3708C49.9072 29.0287 50.0898 28.6796 50.2595 28.3238C50.4925 27.8259 50.6761 27.4041 50.8603 26.8891C50.9994 26.5547 51.1418 26.0925 51.2608 25.7396C51.4506 25.1455 51.5103 24.6775 51.6663 24.1568L51.7793 23.5487C51.7779 23.4801 51.8786 22.8188 51.8934 22.6871C51.9447 22.2397 51.9735 21.8263 52.0005 21.3761C52.008 20.9645 52.0312 20.6093 52.0209 20.1908C52.0172 19.6188 51.9793 19.0715 51.9352 18.5019C51.8693 18.1386 51.8251 17.706 51.7782 17.3354C51.6468 16.8972 51.4891 16.0741 51.3854 15.6066C51.2834 15.2451 51.1215 14.8178 51.0073 14.4268C50.9305 14.2931 50.7761 13.8835 50.7114 13.7253C50.5691 13.3775 50.4194 13.0326 50.2629 12.691C50.0413 12.3134 49.8221 11.8992 49.6103 11.5132C48.0138 9.09995 46.2035 7.24914 43.6193 5.90299C43.4053 5.79156 42.6976 5.488 42.6146 5.31171Z" fill="#F4AA1B"/>
<path d="M51.2608 25.7375C51.7648 25.8565 52.1994 25.9509 52.7204 26.0053C52.622 26.4243 52.4929 26.7436 52.3388 27.1438C51.7899 26.9984 51.3487 26.9988 50.8603 26.8869C50.9994 26.5525 51.1418 26.0903 51.2608 25.7375Z" fill="#E19A23"/>
<path d="M52.0212 20.188C52.5174 20.2498 53.0105 20.3337 53.4993 20.4395L53.5118 21.6065C53.0244 21.4975 52.4989 21.4386 52.0008 21.3733C52.0084 20.9617 52.0315 20.6065 52.0212 20.188Z" fill="#E19A23"/>
<path d="M50.2593 28.3213C50.7528 28.4208 51.2483 28.5116 51.7452 28.5943C51.5534 28.945 51.3701 29.3001 51.1958 29.6594C50.826 29.5896 49.9968 29.4893 49.7117 29.3683C49.907 29.0262 50.0896 28.6771 50.2593 28.3213Z" fill="#E19A23"/>
<path d="M46.9561 33.1108C47.2833 33.2259 48.0396 33.3542 48.4001 33.4198C48.0755 33.7507 47.7694 34.107 47.376 34.3456C47.0349 34.2998 46.1947 34.2025 45.915 34.0717C46.2862 33.7443 46.5971 33.4502 46.9561 33.1108Z" fill="#E19A23"/>
<path d="M48.8426 30.79C49.2139 30.893 49.9581 31.0104 50.3414 31.0387C50.0937 31.4047 49.8657 31.752 49.5838 32.094C49.2464 32.0182 48.3629 31.8838 48.124 31.767C48.373 31.4625 48.6127 31.112 48.8426 30.79Z" fill="#E19A23"/>
<path d="M51.7786 17.3326C52.2635 17.375 52.7756 17.4773 53.254 17.573C53.2908 17.8393 53.4236 18.4448 53.2831 18.6557C53.0985 18.771 52.239 18.5416 51.9355 18.4991C51.8696 18.1358 51.8255 17.7032 51.7786 17.3326Z" fill="#E19A23"/>
<path d="M51.8738 23.048C52.3724 23.1025 52.8377 23.22 53.3254 23.2944C53.2539 23.6673 53.1852 24.0407 53.119 24.4145C52.633 24.3169 52.1461 24.2484 51.6668 24.1535L51.7798 23.5454C51.8174 23.3725 51.8468 23.2245 51.8738 23.048Z" fill="#E19A23"/>
<path d="M51.0076 14.4253C52.4538 14.6616 52.4376 14.3907 52.7623 15.841L51.3857 15.6051C51.2837 15.2436 51.1217 14.8163 51.0076 14.4253Z" fill="#E19A23"/>
<path d="M49.6101 11.5098C50.0117 11.5677 50.5224 11.6092 50.8909 11.745C51.2755 12.2095 51.3567 12.3289 51.519 12.8955C50.9135 12.8655 50.7062 12.7334 50.2627 12.6876C50.0411 12.31 49.8219 11.8958 49.6101 11.5098Z" fill="#E19A23"/>
<path d="M37.9803 7.64837C45.2858 8.37275 49.5226 15.5444 48.6614 22.4294C47.8084 29.2497 41.9243 35.1553 34.802 34.4192C34.115 34.3141 33.2651 34.187 32.606 33.9701C26.7169 32.0105 23.3849 25.8388 24.0044 19.823C24.7245 12.8309 30.7071 6.85596 37.9803 7.64837Z" fill="#F6F1E5"/>
<path d="M37.9703 9.59538C40.4471 9.90356 42.739 11.2152 44.3337 13.156C49.9017 19.9323 45.9728 31.3125 37.073 32.4821C36.251 32.5902 35.6822 32.5548 34.8612 32.485C32.2976 32.1511 30.0123 30.7712 28.4029 28.7643C26.4319 26.2794 25.538 23.1089 25.9211 19.9603C26.6 13.8838 31.6272 8.87085 37.9703 9.59538Z" fill="#FDCE45"/>
<path d="M37.163 13.403C38.0665 13.5258 38.156 14.6933 38.2973 15.3941C38.4409 16.1292 38.5938 16.8624 38.7562 17.5936C39.4397 17.7915 40.1419 17.951 40.8314 18.1456C41.3838 18.3016 42.3268 18.4167 42.6999 18.8826C43.0519 19.3221 43.0398 20.0639 42.6469 20.4841C42.2913 20.8642 41.823 21.153 41.3932 21.4564C40.8268 21.8508 40.2656 22.2525 39.7099 22.6614C39.8634 23.8052 39.8216 25.2969 39.8196 26.449C39.8186 27.0642 38.653 27.7947 38.0472 27.3818C37.1515 26.7704 36.2668 25.9461 35.4573 25.237L35.1383 24.9742C34.229 25.2697 33.2379 25.7611 32.3076 26.056C31.9327 26.158 31.6794 26.2831 31.2988 26.0987C29.7224 25.3341 30.9394 23.6628 31.2566 22.5082C31.3463 22.1816 31.61 21.4821 31.7537 21.2093C31.2326 20.4788 30.7632 19.6829 30.2457 18.9518C29.8028 18.3261 29.559 17.5008 30.2292 16.9101C30.3833 16.7752 30.5735 16.6882 30.7763 16.6597C31.068 16.6192 31.677 16.6604 31.9864 16.683C32.757 16.7395 33.5263 16.803 34.298 16.8574C34.9123 15.9852 35.4827 14.954 36.0805 14.0597C36.3973 13.5857 36.6291 13.5004 37.163 13.403Z" fill="#F4AA1B"/>
<path d="M28.5182 34.2535C28.2025 34.3219 27.7363 34.3206 27.4044 34.3447C21.8313 34.7454 16.6652 31.7861 13.6195 27.1913C10.9561 23.1733 10.1585 18.501 11.0828 13.7753C11.9046 9.4605 14.4046 5.64795 18.0342 3.1743C21.7228 0.698459 25.7434 0.189364 30.0518 1.03689C30.5772 1.09736 31.1 1.23356 31.6137 1.3606C34.9462 2.17351 37.9123 4.07425 40.0432 6.76225C44.1913 11.9728 44.7794 19.4761 41.9039 25.3847C40.8697 27.5093 39.3638 29.5156 37.5008 30.9726C34.9388 33.0062 31.788 34.1574 28.5182 34.2535Z" fill="#FDCE45"/>
<path d="M30.0517 1.0357C30.5771 1.09617 31.1 1.23237 31.6136 1.35941C34.9461 2.17232 37.9123 4.07306 40.0431 6.76106C44.1912 11.9717 44.7794 19.475 41.9039 25.3835C40.8697 27.5081 39.3637 29.5145 37.5008 30.9714C34.9387 33.005 31.788 34.1562 28.5182 34.2523C28.6609 34.1295 30.2037 33.7667 30.6011 33.6407C32.982 32.8871 35.7558 31.0152 37.3028 29.0621C37.6251 28.6865 37.8923 28.3522 38.2007 27.9663C38.5364 27.4769 38.86 26.9788 39.1712 26.4735C39.3756 26.1375 39.5645 25.7572 39.7476 25.4064C39.9702 24.8855 40.1931 24.4179 40.4123 23.8802C40.5583 23.5143 40.6908 23.1433 40.8096 22.7674C40.9714 22.2421 41.0948 21.799 41.206 21.2634C41.2974 20.9129 41.3744 20.4355 41.4434 20.0695C41.549 19.4548 41.5434 18.9831 41.6259 18.4458L41.6535 17.8279C41.6426 17.7602 41.6508 17.0913 41.6473 16.9588C41.6361 16.5087 41.6074 16.0953 41.5717 15.6456C41.5222 15.2369 41.4959 14.8819 41.4278 14.4689C41.3449 13.903 41.2317 13.3661 41.109 12.8082C40.9935 12.4575 40.8898 12.0352 40.7921 11.6746C40.6012 11.2588 40.3311 10.4656 40.1636 10.0169C40.0126 9.67302 39.793 9.27224 39.6258 8.90084C39.5312 8.77907 39.3216 8.39473 39.2356 8.24705C39.0465 7.92225 38.8505 7.60145 38.6482 7.28483C38.3765 6.94149 38.102 6.56167 37.8388 6.20869C35.9235 4.03979 33.8743 2.4575 31.1286 1.48216C30.9013 1.40143 30.1583 1.1988 30.0517 1.0357Z" fill="#F4AA1B"/>
<path d="M41.4435 20.0712C41.9591 20.1193 42.4026 20.1526 42.9261 20.1343C42.8867 20.563 42.803 20.897 42.7059 21.3147C42.1421 21.2467 41.7052 21.3082 41.206 21.265C41.2975 20.9146 41.3745 20.4372 41.4435 20.0712Z" fill="#E19A23"/>
<path d="M41.4275 14.4697C41.9274 14.4622 42.4274 14.477 42.9261 14.5141L43.1002 15.6681C42.6023 15.6277 42.0737 15.6421 41.5714 15.6464C41.5219 15.2377 41.4956 14.8827 41.4275 14.4697Z" fill="#E19A23"/>
<path d="M40.8097 22.7693C41.3122 22.7994 41.8155 22.8207 42.3191 22.8339C42.1777 23.2077 42.0454 23.5848 41.9225 23.9648C41.5465 23.9468 40.7114 23.9624 40.4124 23.882C40.5584 23.5162 40.6909 23.1452 40.8097 22.7693Z" fill="#E19A23"/>
<path d="M38.2007 27.9662C38.5408 28.0349 39.3075 28.0572 39.6736 28.0723C39.398 28.4449 39.1442 28.8402 38.7876 29.1309C38.4435 29.1328 37.5979 29.1529 37.3028 29.0621C37.6251 28.6864 37.8923 28.3521 38.2007 27.9662Z" fill="#E19A23"/>
<path d="M39.7471 25.4087C40.1291 25.4593 40.8824 25.4725 41.2659 25.4475C41.0713 25.8443 40.8935 26.2197 40.6617 26.5975C40.3171 26.5692 39.4235 26.5584 39.1707 26.4758C39.3751 26.1398 39.5641 25.7595 39.7471 25.4087Z" fill="#E19A23"/>
<path d="M40.7924 11.6769C41.2785 11.6518 41.7999 11.6821 42.2869 11.7107C42.3602 11.9693 42.5756 12.5506 42.4656 12.7789C42.2988 12.9187 41.4157 12.8105 41.1093 12.8105C40.9937 12.4598 40.8901 12.0375 40.7924 11.6769Z" fill="#E19A23"/>
<path d="M41.6775 17.3252C42.1788 17.3102 42.6559 17.362 43.1492 17.3682C43.13 17.7474 43.1137 18.1267 43.0998 18.5061C42.6051 18.4767 42.1133 18.4763 41.6256 18.4487L41.6532 17.8308C41.6665 17.6543 41.6751 17.5038 41.6775 17.3252Z" fill="#E19A23"/>
<path d="M39.6262 8.90245C41.0912 8.93626 41.0377 8.6702 41.5601 10.0615L40.1641 10.0185C40.0131 9.67463 39.7935 9.27385 39.6262 8.90245Z" fill="#E19A23"/>
<path d="M37.8384 6.20954C38.2442 6.21131 38.7557 6.1817 39.1395 6.26515C39.5846 6.67192 39.6816 6.77888 39.9208 7.31756C39.317 7.37175 39.0934 7.26956 38.6478 7.28567C38.376 6.94233 38.1016 6.56252 37.8384 6.20954Z" fill="#E19A23"/>
<path d="M25.7856 3.99622C33.121 3.702 38.3101 10.2179 38.4106 17.1558C38.5103 24.0285 33.5006 30.692 26.3449 30.9493C25.65 30.9403 24.7908 30.9321 24.108 30.8086C18.0042 29.6834 13.8497 24.0325 13.6302 17.9889C13.3751 10.9644 18.4728 4.21859 25.7856 3.99622Z" fill="#F6F1E5"/>
<path d="M26.0463 5.92636C28.5419 5.8886 30.9934 6.8702 32.8414 8.57152C39.2942 14.5115 36.979 26.3261 28.3269 28.7169C27.5277 28.9378 26.9595 28.9815 26.1368 29.026C23.5517 29.0503 21.0973 28.0002 19.2255 26.2355C16.9294 24.0474 15.6051 21.0312 15.5485 17.86C15.3794 11.7479 19.664 6.08716 26.0463 5.92636Z" fill="#FDCE45"/>
<path d="M25.7735 9.80601C26.6852 9.80247 26.9356 10.9463 27.1725 11.6209C27.4165 12.329 27.6695 13.0339 27.9316 13.7357C28.6359 13.8369 29.3534 13.8977 30.0633 13.995C30.6319 14.0729 31.5818 14.0563 32.0158 14.4661C32.4252 14.8526 32.516 15.5889 32.1851 16.0595C31.8856 16.4852 31.4618 16.8361 31.078 17.196C30.5718 17.6651 30.0716 18.1406 29.5779 18.6225C29.8883 19.734 30.0535 21.2172 30.211 22.3584C30.2952 22.9678 29.242 23.8528 28.5849 23.5277C27.6132 23.0462 26.6228 22.3524 25.7229 21.7622L25.3705 21.5461C24.511 21.9647 23.5974 22.5886 22.7169 23.0095C22.3598 23.1624 22.1263 23.3214 21.7237 23.1915C20.0567 22.6524 21.0305 20.8288 21.1848 19.6413C21.2284 19.3055 21.3927 18.5762 21.4973 18.2862C20.88 17.6348 20.3049 16.9116 19.6912 16.2592C19.1659 15.7009 18.8102 14.9172 19.3921 14.2395C19.5261 14.0845 19.7023 13.972 19.8992 13.9158C20.1826 13.8352 20.7914 13.7917 21.1009 13.7713C21.872 13.7204 22.6426 13.6769 23.4144 13.6239C23.902 12.6749 24.3241 11.5747 24.7923 10.6062C25.0405 10.093 25.2582 9.97642 25.7735 9.80601Z" fill="#F4AA1B"/>
<rect y="24" width="57" height="37" rx="5" fill="#4F423A"/>
<path d="M56.9313 35.0063C57.7699 35.0199 58.5148 35.1397 59.1421 35.7581C59.9569 36.5622 60.0218 37.6347 59.9949 38.6994C59.9716 40.5213 60.0004 42.3463 59.9918 44.1683C59.9833 46.0666 58.9045 47.3114 56.9368 47.2283C53.3641 47.1925 49.784 47.2556 46.2113 47.2313C45.301 47.2247 44.3441 47.2671 43.4534 47.0616C42.437 46.819 41.4991 46.3285 40.7242 45.6349C39.4959 44.532 38.7602 42.9914 38.6793 41.3526C38.6089 39.6998 39.2172 38.0895 40.3658 36.8884C42.6472 34.4819 45.203 35.0866 48.2237 35.0258C51.1176 34.9675 54.0385 35.0895 56.9313 35.0063Z" fill="#6D594C"/>
<path d="M44.6844 37.6588C46.5173 37.3569 48.2485 38.5877 48.5432 40.4036C48.8385 42.2189 47.5851 43.9256 45.7491 44.2075C43.9272 44.4883 42.2193 43.2593 41.9258 41.4573C41.633 39.6554 42.8656 37.9584 44.6844 37.6588Z" fill="#F4C668"/>
</svg>
