<svg width="60" height="61" viewBox="0 0 60 61" fill="none" xmlns="http://www.w3.org/2000/svg">
<path d="M41.9596 13.2458C43.512 12.9819 47.0081 13.2458 47.0081 13.2458H49.9118C49.9118 13.2458 52.1387 13.8494 52.5301 15.2211C52.7188 15.8837 52.5889 16.2894 52.6459 16.9092C54.3545 18.0439 55.4014 19.2835 55.8247 21.3346C56.0679 22.5141 55.9491 23.8856 55.9926 25.0902C57.0763 26.899 56.9323 27.9087 56.9329 29.961C56.9329 31.3473 56.9096 32.785 56.9317 34.1698C57.7703 34.1834 58.5153 34.3031 59.1426 34.9216C59.9573 35.7257 60.0223 36.7982 59.9953 37.8629C59.972 39.6848 60.0008 41.5098 59.9922 43.3318C59.9837 45.2301 58.9049 46.4748 56.9372 46.3918C56.9029 47.9936 56.9341 49.7119 56.9341 51.3216C56.9341 54.0531 57.1792 56.32 55.1018 58.47C53.887 59.7269 52.3408 60.3216 50.6084 60.3259C47.3358 60.3338 44.0572 60.3277 40.7834 60.3283L12.2112 60.3289C10.661 60.3301 8.48382 60.4071 6.9963 60.1998C5.49199 59.9906 3.60382 58.9635 2.52815 57.9043C0.786205 56.1891 0.0167756 54.2022 0.0181846 51.7843C0.0224115 44.5492 0.0225949 37.3136 0.0223499 30.0808L0.019411 24.0199C0.0159191 22.6481 -0.0775666 20.8601 0.17936 19.5468C0.752512 16.617 3.27638 14.1692 6.18392 13.4819C7.36184 13.2034 9.67356 13.2458 9.67356 13.2458H41.9596Z" fill="#4F423A"/>
<path d="M52.6459 16.9092C54.3545 18.0439 55.4014 19.2835 55.8247 21.3346C56.0679 22.5141 55.9491 23.8856 55.9926 25.0902C55.8706 24.9425 55.7408 24.8012 55.6048 24.666C54.6558 23.73 53.4625 23.348 52.1436 23.3441C52.2698 21.2553 52.4823 19.0056 52.6459 16.9092Z" fill="#6D594C"/>
<path d="M36.4966 37.3373C36.1744 37.3614 35.7129 37.2956 35.3808 37.2734C29.8059 36.8985 25.0994 33.2524 22.7193 28.2801C20.638 23.932 20.495 19.1943 22.0648 14.6421C23.4762 10.4827 26.48 7.05302 30.4172 5.1058C34.4131 3.16459 38.4655 3.21716 42.615 4.65312C43.1269 4.78575 43.6259 4.99304 44.117 5.18998C47.3048 6.45653 49.9792 8.74969 51.7173 11.7069C55.1039 17.4417 54.6473 24.9541 50.9814 30.4075C49.6629 32.3685 47.8937 34.147 45.8469 35.3319C43.028 36.9912 39.7481 37.6949 36.4966 37.3373Z" fill="#FDCE45"/>
<path d="M42.6148 4.65505C43.1268 4.78769 43.6257 4.99498 44.1168 5.19192C47.3047 6.45847 49.979 8.75163 51.7171 11.7088C55.1037 17.4436 54.6472 24.9561 50.9812 30.4095C49.6628 32.3704 47.8935 34.1489 45.8468 35.3338C43.0278 36.9931 39.748 37.6969 36.4964 37.3393C36.6547 37.2375 38.2329 37.0917 38.6439 37.022C41.1063 36.6053 44.1126 35.1356 45.9151 33.4156C46.2862 33.0882 46.5972 32.794 46.9561 32.4547C47.3563 32.0164 47.7458 31.568 48.1239 31.1106C48.3729 30.8061 48.6127 30.4556 48.8425 30.1336C49.1352 29.6486 49.4207 29.2163 49.7122 28.7141C49.9075 28.372 50.09 28.0229 50.2597 27.6671C50.4927 27.1693 50.6763 26.7475 50.8606 26.2324C50.9996 25.898 51.142 25.4358 51.261 25.0829C51.4508 24.4888 51.5105 24.0208 51.6666 23.5002L51.7795 22.892C51.7781 22.8234 51.8788 22.1621 51.8937 22.0304C51.945 21.5831 51.9738 21.1697 52.0007 20.7194C52.0082 20.3078 52.0314 19.9526 52.0211 19.5341C52.0174 18.9622 51.9796 18.4148 51.9354 17.8452C51.8695 17.4819 51.8254 17.0494 51.7785 16.6788C51.647 16.2405 51.4893 15.4175 51.3856 14.95C51.2836 14.5885 51.1217 14.1612 51.0075 13.7702C50.9307 13.6365 50.7763 13.2268 50.7116 13.0687C50.5693 12.7208 50.4196 12.3759 50.2631 12.0344C50.0415 11.6567 49.8223 11.2425 49.6105 10.8565C48.014 8.44329 46.2037 6.59248 43.6195 5.24633C43.4055 5.1349 42.6978 4.83134 42.6148 4.65505Z" fill="#F4AA1B"/>
<path d="M51.2611 25.0809C51.7651 25.2 52.1997 25.2944 52.7206 25.3487C52.6223 25.7678 52.4932 26.0871 52.3391 26.4873C51.7902 26.3419 51.349 26.3423 50.8606 26.2304C50.9997 25.896 51.1421 25.4338 51.2611 25.0809Z" fill="#E19A23"/>
<path d="M52.0215 19.5314C52.5176 19.5931 53.0108 19.677 53.4995 19.7828L53.5121 20.9498C53.0246 20.8409 52.4991 20.7819 52.0011 20.7167C52.0086 20.305 52.0318 19.9498 52.0215 19.5314Z" fill="#E19A23"/>
<path d="M50.2595 27.6647C50.753 27.7641 51.2485 27.8549 51.7455 27.9377C51.5536 28.2883 51.3703 28.6435 51.196 29.0027C50.8262 28.9329 49.997 28.8326 49.7119 28.7117C49.9072 28.3696 50.0898 28.0205 50.2595 27.6647Z" fill="#E19A23"/>
<path d="M46.9561 32.4547C47.2834 32.5697 48.0398 32.6975 48.4003 32.7631C48.0758 33.094 47.7696 33.4504 47.3762 33.6889C47.0351 33.6431 46.1947 33.5464 45.9151 33.4156C46.2862 33.0882 46.5972 32.794 46.9561 32.4547Z" fill="#E19A23"/>
<path d="M48.8425 30.1336C49.2138 30.2366 49.9583 30.3537 50.3416 30.3821C50.0939 30.748 49.8659 31.0953 49.584 31.4373C49.2467 31.3615 48.3628 31.2274 48.1239 31.1106C48.3729 30.8061 48.6127 30.4556 48.8425 30.1336Z" fill="#E19A23"/>
<path d="M51.7788 16.676C52.2637 16.7184 52.7759 16.8206 53.2542 16.9164C53.2911 17.1826 53.4239 17.7881 53.2833 17.9991C53.0987 18.1143 52.2392 17.8849 51.9357 17.8425C51.8698 17.4792 51.8257 17.0466 51.7788 16.676Z" fill="#E19A23"/>
<path d="M51.874 22.3914C52.3726 22.4459 52.8379 22.5633 53.3256 22.6377C53.2541 23.0106 53.1854 23.384 53.1192 23.7579C52.6333 23.6603 52.1463 23.5918 51.6671 23.4969L51.78 22.8887C51.8176 22.7158 51.847 22.5679 51.874 22.3914Z" fill="#E19A23"/>
<path d="M51.0078 13.7686C52.454 14.005 52.4378 13.7341 52.7626 15.1843L51.3859 14.9484C51.2839 14.5869 51.122 14.1596 51.0078 13.7686Z" fill="#E19A23"/>
<path d="M49.6103 10.8531C50.0119 10.9111 50.5226 10.9526 50.8912 11.0884C51.2757 11.5529 51.3569 11.6722 51.5192 12.2388C50.9137 12.2089 50.7065 12.0767 50.2629 12.031C50.0413 11.6533 49.8221 11.2392 49.6103 10.8531Z" fill="#E19A23"/>
<path d="M37.9805 6.99172C45.286 7.71609 49.5228 14.8877 48.6616 21.7727C47.8086 28.593 41.9245 34.4986 34.8022 33.7626C34.1152 33.6574 33.2654 33.5303 32.6062 33.3135C26.7171 31.3539 23.3851 25.1821 24.0046 19.1664C24.7247 12.1742 30.7073 6.1993 37.9805 6.99172Z" fill="#F6F1E5"/>
<path d="M37.9705 8.93873C40.4473 9.24691 42.7392 10.5585 44.3339 12.4994C49.9019 19.2757 45.973 30.6559 37.0733 31.8255C36.2512 31.9336 35.6824 31.8982 34.8614 31.8283C32.2979 31.4945 30.0126 30.1146 28.4032 28.1077C26.4321 25.6227 25.5383 22.4522 25.9213 19.3037C26.6002 13.2271 31.6274 8.2142 37.9705 8.93873Z" fill="#FDCE45"/>
<path d="M37.1632 12.7463C38.0667 12.8691 38.1562 14.0366 38.2975 14.7375C38.4411 15.4725 38.5941 16.2057 38.7564 16.937C39.4399 17.1348 40.1421 17.2943 40.8317 17.489C41.384 17.6449 42.327 17.76 42.7001 18.226C43.0521 18.6654 43.0401 19.4072 42.6472 19.8274C42.2915 20.2075 41.8232 20.4963 41.3934 20.7997C40.827 21.1941 40.2658 21.5958 39.7101 22.0047C39.8637 23.1485 39.8219 24.6403 39.8198 25.7923C39.8188 26.4075 38.6532 27.1381 38.0475 26.7251C37.1518 26.1138 36.267 25.2895 35.4575 24.5804L35.1385 24.3175C34.2293 24.613 33.2381 25.1045 32.3078 25.3994C31.9329 25.5014 31.6797 25.6265 31.299 25.4421C29.7227 24.6774 30.9396 23.0062 31.2568 21.8515C31.3465 21.525 31.6103 20.8254 31.754 20.5527C31.2328 19.8221 30.7634 19.0262 30.2459 18.2951C29.803 17.6695 29.5593 16.8441 30.2295 16.2535C30.3836 16.1185 30.5737 16.0315 30.7765 16.0031C31.0683 15.9625 31.6773 16.0038 31.9866 16.0264C32.7573 16.0828 33.5265 16.1464 34.2982 16.2008C34.9126 15.3285 35.4829 14.2973 36.0808 13.403C36.3976 12.929 36.6294 12.8438 37.1632 12.7463Z" fill="#F4AA1B"/>
<path d="M28.5182 33.5968C28.2024 33.6652 27.7363 33.664 27.4043 33.688C21.8312 34.0887 16.6652 31.1294 13.6194 26.5347C10.9561 22.5167 10.1584 17.8444 11.0828 13.1186C11.9046 8.80384 14.4046 4.99129 18.0341 2.51764C21.7227 0.0418029 25.7434 -0.467293 30.0517 0.380237C30.5771 0.440704 31.1 0.576905 31.6136 0.703941C34.9461 1.51685 37.9123 3.4176 40.0431 6.10559C44.1912 11.3162 44.7794 18.8195 41.9039 24.728C40.8697 26.8527 39.3637 28.859 37.5008 30.3159C34.9387 32.3496 31.788 33.5007 28.5182 33.5968Z" fill="#FDCE45"/>
<path d="M30.0517 0.379048C30.5771 0.439515 31.0999 0.575716 31.6136 0.702751C34.9461 1.51566 37.9122 3.41641 40.0431 6.1044C44.1912 11.315 44.7793 18.8183 41.9038 24.7268C40.8696 26.8515 39.3637 28.8578 37.5007 30.3147C34.9387 32.3484 31.7879 33.4995 28.5182 33.5956C28.6609 33.4729 30.2036 33.11 30.6011 32.984C32.982 32.2304 35.7558 30.3586 37.3028 28.4055C37.625 28.0298 37.8922 27.6955 38.2007 27.3097C38.5364 26.8203 38.86 26.3222 39.1711 25.8168C39.3755 25.4808 39.5645 25.1005 39.7475 24.7498C39.9702 24.2289 40.1931 23.7613 40.4122 23.2235C40.5583 22.8577 40.6907 22.4867 40.8095 22.1108C40.9713 21.5855 41.0948 21.1423 41.2059 20.6067C41.2973 20.2563 41.3743 19.7788 41.4434 19.4129C41.549 18.7982 41.5434 18.3264 41.6258 17.7892L41.6535 17.1713C41.6425 17.1035 41.6507 16.4347 41.6472 16.3022C41.636 15.852 41.6073 15.4386 41.5716 14.989C41.5221 14.5802 41.4959 14.2253 41.4277 13.8123C41.3448 13.2463 41.2316 12.7095 41.109 12.1515C40.9934 11.8008 40.8898 11.3785 40.792 11.018C40.6012 10.6021 40.331 9.80889 40.1636 9.36026C40.0125 9.01637 39.793 8.61559 39.6257 8.24419C39.5312 8.12241 39.3216 7.73807 39.2356 7.59039C39.0465 7.26559 38.8504 6.9448 38.6482 6.62817C38.3764 6.28483 38.102 5.90502 37.8388 5.55204C35.9235 3.38314 33.8743 1.80084 31.1286 0.825502C30.9013 0.744773 30.1583 0.542142 30.0517 0.379048Z" fill="#F4AA1B"/>
<path d="M41.4434 19.4145C41.9591 19.4627 42.4026 19.496 42.926 19.4777C42.8866 19.9063 42.803 20.2404 42.7058 20.658C42.1421 20.5901 41.7052 20.6515 41.206 20.6084C41.2974 20.258 41.3744 19.7805 41.4434 19.4145Z" fill="#E19A23"/>
<path d="M41.4277 13.8123C41.9276 13.8047 42.4274 13.8203 42.9261 13.8574L43.1001 15.0114C42.6022 14.971 42.0739 14.9847 41.5716 14.989C41.5221 14.5802 41.4959 14.2253 41.4277 13.8123Z" fill="#E19A23"/>
<path d="M40.8096 22.1126C41.3122 22.1428 41.8155 22.1641 42.3191 22.1772C42.1777 22.5511 42.0453 22.9282 41.9224 23.3081C41.5465 23.2902 40.7114 23.3057 40.4123 23.2254C40.5584 22.8595 40.6908 22.4885 40.8096 22.1126Z" fill="#E19A23"/>
<path d="M38.2007 27.3097C38.5407 27.3783 39.3075 27.4005 39.6736 27.4156C39.398 27.7883 39.1441 28.1836 38.7876 28.4743C38.4434 28.4762 37.5978 28.4963 37.3028 28.4055C37.625 28.0298 37.8922 27.6955 38.2007 27.3097Z" fill="#E19A23"/>
<path d="M39.7471 24.7521C40.1291 24.8026 40.8823 24.8159 41.2658 24.7908C41.0712 25.1876 40.8935 25.5631 40.6617 25.9408C40.3171 25.9125 39.4235 25.9017 39.1706 25.8191C39.3751 25.4832 39.564 25.1028 39.7471 24.7521Z" fill="#E19A23"/>
<path d="M40.7923 11.0203C41.2784 10.9951 41.7998 11.0255 42.2868 11.0541C42.3602 11.3127 42.5755 11.8939 42.4656 12.1223C42.2987 12.262 41.4157 12.1538 41.1093 12.1538C40.9937 11.8031 40.8901 11.3808 40.7923 11.0203Z" fill="#E19A23"/>
<path d="M41.6774 16.6686C42.1787 16.6535 42.6558 16.7054 43.1491 16.7115C43.13 17.0907 43.1136 17.47 43.0998 17.8494C42.605 17.8201 42.1133 17.8197 41.6255 17.7921L41.6532 17.1741C41.6665 16.9977 41.6751 16.8471 41.6774 16.6686Z" fill="#E19A23"/>
<path d="M39.6262 8.24579C41.0912 8.2796 41.0377 8.01354 41.5601 9.40488L40.164 9.36186C40.013 9.01797 39.7934 8.61719 39.6262 8.24579Z" fill="#E19A23"/>
<path d="M37.8388 5.55204C38.2445 5.55381 38.7556 5.52505 39.1394 5.6085C39.5846 6.01526 39.6815 6.12222 39.9207 6.66091C39.3169 6.71509 39.0938 6.61206 38.6482 6.62817C38.3764 6.28483 38.102 5.90502 37.8388 5.55204Z" fill="#E19A23"/>
<path d="M25.7856 3.33957C33.121 3.04534 38.31 9.5612 38.4105 16.4991C38.5102 23.3718 33.5005 30.0354 26.3449 30.2926C25.65 30.2836 24.7907 30.2754 24.1079 30.1519C18.0041 29.0267 13.8496 23.3758 13.6302 17.3322C13.3751 10.3077 18.4727 3.56193 25.7856 3.33957Z" fill="#F6F1E5"/>
<path d="M26.0462 5.2697C28.5419 5.23194 30.9933 6.21354 32.8414 7.91486C39.2941 13.8549 36.9789 25.6695 28.3269 28.0602C27.5277 28.2811 26.9595 28.3248 26.1368 28.3693C23.5517 28.3937 21.0973 27.3435 19.2255 25.5788C16.9293 23.3907 15.605 20.3745 15.5484 17.2033C15.3793 11.0913 19.664 5.43051 26.0462 5.2697Z" fill="#FDCE45"/>
<path d="M25.7734 9.14935C26.6852 9.14582 26.9355 10.2897 27.1725 10.9642C27.4165 11.6723 27.6695 12.3773 27.9315 13.079C28.6359 13.1803 29.3534 13.241 30.0632 13.3383C30.6319 13.4162 31.5817 13.3996 32.0157 13.8095C32.4252 14.1959 32.516 14.9323 32.185 15.4028C31.8855 15.8285 31.4617 16.1794 31.078 16.5394C30.5717 17.0084 30.0715 17.4839 29.5778 17.9659C29.8883 19.0774 30.0534 20.5605 30.211 21.7018C30.2952 22.3112 29.2419 23.1961 28.5848 22.871C27.6131 22.3896 26.6227 21.6958 25.7228 21.1056L25.3705 20.8894C24.5109 21.308 23.5974 21.932 22.7169 22.3528C22.3597 22.5057 22.1262 22.6647 21.7237 22.5348C20.0567 21.9958 21.0305 20.1721 21.1847 18.9847C21.2283 18.6489 21.3927 17.9195 21.4972 17.6295C20.8799 16.9782 20.3049 16.2549 19.6911 15.6026C19.1658 15.0442 18.8101 14.2606 19.3921 13.5828C19.526 13.4279 19.7023 13.3154 19.8992 13.2591C20.1825 13.1786 20.7914 13.1351 21.1009 13.1146C21.8719 13.0638 22.6425 13.0202 23.4143 12.9672C23.902 12.0183 24.324 10.9181 24.7923 9.94957C25.0404 9.43631 25.2582 9.31977 25.7734 9.14935Z" fill="#F4AA1B"/>
<path d="M56.9314 34.3497C57.7701 34.3633 58.515 34.483 59.1423 35.1015C59.9571 35.9055 60.022 36.9781 59.995 38.0427C59.9718 39.8647 60.0006 41.6897 59.992 43.5116C59.9834 45.41 58.9046 46.6547 56.9369 46.5716C53.3642 46.5359 49.7842 46.5989 46.2115 46.5747C45.3011 46.568 44.3442 46.6104 43.4535 46.4049C42.4372 46.1624 41.4993 45.6719 40.7244 44.9783C39.4961 43.8754 38.7603 42.3348 38.6795 40.6959C38.609 39.0431 39.2174 37.4328 40.366 36.2317C42.6473 33.8252 45.2031 34.4299 48.2239 34.3691C51.1178 34.3109 54.0387 34.4329 56.9314 34.3497Z" fill="#6D594C"/>
<path d="M44.6844 37.0022C46.5173 36.7002 48.2485 37.931 48.5432 39.7469C48.8385 41.5622 47.5851 43.269 45.7491 43.5509C43.9272 43.8316 42.2193 42.6026 41.9258 40.8007C41.633 38.9987 42.8656 37.3017 44.6844 37.0022Z" fill="#F4C668"/>
</svg>
