<svg width="201" height="229" viewBox="0 0 201 229" fill="none" xmlns="http://www.w3.org/2000/svg">
<rect width="201" height="200" rx="40" fill="#F8A6B3"/>
<path d="M72.9186 44.3966C73.8834 43.9734 81.253 42.9204 82.9379 42.6138L119.864 36.2636L130.388 34.5025C133.824 33.913 138.244 32.6509 141.561 33.8903C143.332 34.5519 144.777 36.232 145.423 38.0017C146.697 41.8039 147.012 46.266 147.988 50.1586C150.938 50.8262 152.916 52.3599 153.783 55.4234C154.2 56.9031 153.913 57.8092 154.039 59.1934C157.82 61.7276 160.137 64.4959 161.074 69.0767C161.613 71.7111 161.35 74.774 161.446 77.4642C163.844 81.5039 163.526 83.759 163.527 88.3423C163.527 91.4384 163.476 94.6492 163.524 97.742C165.38 97.7724 167.029 98.0398 168.417 99.4211C170.221 101.217 170.364 103.612 170.305 105.99C170.253 110.059 170.317 114.135 170.298 118.204C170.279 122.443 167.891 125.223 163.537 125.038C163.461 128.615 163.53 132.453 163.53 136.048C163.53 142.148 164.072 147.211 159.474 152.012C156.786 154.819 153.364 156.148 149.53 156.157C142.287 156.175 135.03 156.161 127.785 156.163L84.2174 156.156L64.5483 156.164C61.1174 156.167 56.299 156.339 53.0067 155.876C49.6774 155.408 45.4985 153.115 43.1178 150.749C39.2625 146.918 37.5596 142.481 37.5627 137.081C37.5721 120.923 37.5725 104.763 37.5719 88.61L37.5654 75.0739C37.5577 72.0103 37.3508 68.017 37.9194 65.0841C39.1879 58.5409 44.7738 53.0741 51.2088 51.5391C53.8158 50.9172 56.2615 51.0168 58.9321 51.0118C59.121 45.6253 64.4534 43.3674 69.0141 44.1696C70.041 44.3503 71.8149 44.3185 72.9186 44.3966Z" fill="#4F423A"/>
<path d="M72.9181 44.3966C73.8829 43.9734 81.2525 42.9204 82.9374 42.6138L119.864 36.2636L130.388 34.5025C133.823 33.913 138.243 32.6509 141.561 33.8903C143.332 34.5519 144.777 36.232 145.422 38.0017C146.697 41.8039 147.011 46.266 147.987 50.1586C150.938 50.8262 152.916 52.3599 153.782 55.4234C154.2 56.9031 153.912 57.8092 154.039 59.1934C157.82 61.7276 160.137 64.4959 161.074 69.0767C161.612 71.7111 161.349 74.774 161.445 77.4642C161.176 77.1343 160.889 76.8177 160.588 76.5156C158.488 74.4252 155.847 73.5721 152.928 73.5635L144.241 73.5627C138.978 73.4933 133.529 73.5498 128.26 73.5658L57.3457 73.5636C57.3693 70.859 57.8108 66.7034 57.9846 63.8825C58.2443 59.6683 58.5372 55.2023 58.9316 51.0118C59.1205 45.6253 64.4529 43.3674 69.0136 44.1696C70.0405 44.3503 71.8144 44.3185 72.9181 44.3966Z" fill="#33A29A"/>
<path d="M72.918 44.3966C73.8828 43.9734 81.2523 42.9204 82.9372 42.6138L119.863 36.2636L130.387 34.5025C133.823 33.913 138.243 32.6509 141.561 33.8903C143.331 34.5519 144.777 36.232 145.422 38.0017C146.697 41.8039 147.011 46.266 147.987 50.1586C146.25 49.8264 142.696 49.6422 140.819 49.499L127.045 48.5095L89.2369 45.6543L78.3935 44.8721C76.9533 44.7688 74.1702 44.6697 72.918 44.3966Z" fill="#F087A4"/>
<path d="M128.261 73.566C128.632 70.5559 128.51 67.3755 129.208 64.4296C129.409 63.5886 129.995 62.8306 130.688 62.3112C131.321 61.8376 132.057 61.5185 132.835 61.3791C134.351 61.1074 138.73 61.5192 140.441 61.7102C141.8 61.862 142.913 62.3948 143.723 63.5404C145.271 65.732 144.749 67.6405 144.486 70.115C144.367 71.2612 144.285 72.4112 144.242 73.5629C138.979 73.4935 133.529 73.55 128.261 73.566Z" fill="#81CBB6"/>
<path d="M154.038 59.1934C157.82 61.7275 160.137 64.4958 161.074 69.0767C161.612 71.711 161.349 74.7739 161.445 77.4641C161.175 77.1342 160.889 76.8176 160.588 76.5156C158.488 74.4251 155.847 73.5721 152.928 73.5634C153.207 68.8984 153.676 63.8752 154.038 59.1934Z" fill="#6D594C"/>
<path d="M70.6826 55.0609C73.4951 55.0412 81.4744 54.9542 81.8343 58.5521C81.9824 60.0324 81.8448 64.7513 81.5244 66.313C81.4204 66.8386 81.2287 67.3432 80.9573 67.8054C80.2647 68.9717 79.2811 69.4114 78.0454 69.7236C75.6133 69.8546 66.8583 69.8057 66.8817 66.1804C66.9061 62.375 65.9185 56.2027 70.6826 55.0609Z" fill="#F7F2E7"/>
<path d="M163.524 97.7417C165.38 97.772 167.029 98.0394 168.417 99.4207C170.22 101.216 170.364 103.612 170.304 105.989C170.253 110.059 170.316 114.134 170.297 118.203C170.278 122.443 167.891 125.223 163.536 125.037C155.629 124.957 147.705 125.098 139.798 125.044C137.783 125.029 135.666 125.124 133.694 124.665C131.445 124.123 129.369 123.028 127.654 121.479C124.936 119.016 123.307 115.575 123.128 111.915C122.972 108.224 124.319 104.627 126.861 101.945C131.91 96.5704 137.567 97.9209 144.252 97.7851C150.657 97.655 157.122 97.9275 163.524 97.7417Z" fill="#6D594C"/>
<path d="M136.419 104.065C140.476 103.39 144.307 106.139 144.96 110.195C145.613 114.249 142.839 118.06 138.776 118.69C134.743 119.317 130.963 116.572 130.314 112.548C129.666 108.524 132.394 104.734 136.419 104.065Z" fill="#F4C668"/>
<mask id="path-10-outside-1_341_3168" maskUnits="userSpaceOnUse" x="44" y="172" width="113" height="57" fill="black">
<rect fill="white" x="44" y="172" width="113" height="57"/>
<path d="M77.2 177.5C79.1333 177.5 80.1 178.467 80.1 180.4V190.5C80.1 195.5 80.6167 199.733 81.65 203.2C82.6833 206.667 84.2167 209.533 86.25 211.8C88.3167 214.067 90.9667 215.95 94.2 217.45C95.9667 218.183 96.5333 219.45 95.9 221.25L95.8 221.45C95.1333 223.283 93.9 223.817 92.1 223.05C86.1667 220.35 81.6833 216.383 78.65 211.15C75.6167 205.917 74.1 199.033 74.1 190.5V180.4C74.1 178.467 75.0667 177.5 77 177.5H77.2ZM90.8 205.65C92.3 204.45 93.6667 204.55 94.9 205.95L95 206.05C96.2667 207.55 96.1667 208.883 94.7 210.05C91.1333 212.983 87.2667 215.5 83.1 217.6C78.9667 219.667 74.6833 221.3 70.25 222.5C68.45 223 67.3167 222.317 66.85 220.45V220.25C66.4167 218.45 67.1167 217.3 68.95 216.8C73.3833 215.567 77.5 213.967 81.3 212C85.1333 210.033 88.3 207.917 90.8 205.65ZM91.85 185.7C93.6833 185.5 94.7 186.317 94.9 188.15V188.35C95.1 190.183 94.2833 191.2 92.45 191.4L69.9 193.65C68.0667 193.85 67.05 193.033 66.85 191.2V191C66.65 189.167 67.4667 188.15 69.3 187.95L91.85 185.7ZM92.7 195.8C94.5667 195.533 95.6167 196.317 95.85 198.15V198.35C96.1167 200.217 95.3333 201.267 93.5 201.5L69.8 204.95C67.9333 205.217 66.8833 204.433 66.65 202.6V202.4C66.3833 200.533 67.1667 199.483 69 199.25L92.7 195.8ZM87.4 178C89.2667 177.533 90.4167 178.217 90.85 180.05L91.05 181C91.5167 182.867 90.8333 184.017 89 184.45H88.8C86.9333 184.917 85.7833 184.233 85.35 182.4L85.15 181.45C84.6833 179.583 85.3667 178.433 87.2 178H87.4ZM54.1 177.3C56.1333 177.3 57.15 178.317 57.15 180.35V180.9H62.45C64.2833 180.9 65.2 181.817 65.2 183.65V183.9C65.2 185.733 64.2833 186.65 62.45 186.65H56.3C52.6667 186.65 50.85 184.833 50.85 181.2V180.35C50.85 178.317 51.8667 177.3 53.9 177.3H54.1ZM62.2 191.1C64.0333 191.1 64.95 192.017 64.95 193.85V194.05C64.95 195.883 64.0333 196.8 62.2 196.8H53.4C51.5667 196.8 50.65 195.883 50.65 194.05V193.85C50.65 192.017 51.5667 191.1 53.4 191.1H62.2ZM62.2 202.7C64.0333 202.7 64.95 203.617 64.95 205.45V205.65C64.95 207.483 64.0333 208.4 62.2 208.4H52.6C50.7667 208.4 49.85 207.483 49.85 205.65V205.45C49.85 203.617 50.7667 202.7 52.6 202.7H62.2ZM57.3 193.95C59.2333 193.95 60.2 194.917 60.2 196.85V217H61.55C63.4833 217 64.45 217.967 64.45 219.9V220.1C64.45 222.033 63.4833 223 61.55 223H59.6C57.8333 223 56.4833 222.55 55.55 221.65C54.65 220.75 54.2 219.4 54.2 217.6V196.85C54.2 194.917 55.1667 193.95 57.1 193.95H57.3ZM114.65 177.45C116.583 177.45 117.55 178.367 117.55 180.2H142.5C144.267 180.2 145.6 180.65 146.5 181.55C147.4 182.45 147.85 183.783 147.85 185.55V205.15C147.85 206.917 147.4 208.25 146.5 209.15C145.6 210.05 144.267 210.5 142.5 210.5H140.5C138.6 210.5 137.65 209.55 137.65 207.65V207.45C137.65 205.55 138.6 204.6 140.5 204.6H141.85V186.1H116.9C115.133 186.1 113.8 185.65 112.9 184.75C112 183.85 111.55 182.517 111.55 180.75V180.2C111.55 178.367 112.517 177.45 114.45 177.45H114.65ZM129.45 190.1C131.217 190.1 132.55 190.55 133.45 191.45C134.35 192.35 134.8 193.683 134.8 195.45V204C134.8 205.767 134.35 207.1 133.45 208C132.55 208.9 131.217 209.35 129.45 209.35H114.3C112.4 209.35 111.45 208.4 111.45 206.5V206.35C111.45 204.45 112.4 203.5 114.3 203.5H128.8V195.95H114.45V217H145.3V215.2C145.3 213.267 146.267 212.3 148.2 212.3H148.4C150.333 212.3 151.3 213.267 151.3 215.2V217.5C151.3 219.267 150.85 220.6 149.95 221.5C149.05 222.4 147.717 222.85 145.95 222.85H113.8C112.033 222.85 110.7 222.4 109.8 221.5C108.9 220.6 108.45 219.267 108.45 217.5V195.45C108.45 193.683 108.9 192.35 109.8 191.45C110.7 190.55 112.033 190.1 113.8 190.1H129.45Z"/>
</mask>
<path d="M77.2 177.5C79.1333 177.5 80.1 178.467 80.1 180.4V190.5C80.1 195.5 80.6167 199.733 81.65 203.2C82.6833 206.667 84.2167 209.533 86.25 211.8C88.3167 214.067 90.9667 215.95 94.2 217.45C95.9667 218.183 96.5333 219.45 95.9 221.25L95.8 221.45C95.1333 223.283 93.9 223.817 92.1 223.05C86.1667 220.35 81.6833 216.383 78.65 211.15C75.6167 205.917 74.1 199.033 74.1 190.5V180.4C74.1 178.467 75.0667 177.5 77 177.5H77.2ZM90.8 205.65C92.3 204.45 93.6667 204.55 94.9 205.95L95 206.05C96.2667 207.55 96.1667 208.883 94.7 210.05C91.1333 212.983 87.2667 215.5 83.1 217.6C78.9667 219.667 74.6833 221.3 70.25 222.5C68.45 223 67.3167 222.317 66.85 220.45V220.25C66.4167 218.45 67.1167 217.3 68.95 216.8C73.3833 215.567 77.5 213.967 81.3 212C85.1333 210.033 88.3 207.917 90.8 205.65ZM91.85 185.7C93.6833 185.5 94.7 186.317 94.9 188.15V188.35C95.1 190.183 94.2833 191.2 92.45 191.4L69.9 193.65C68.0667 193.85 67.05 193.033 66.85 191.2V191C66.65 189.167 67.4667 188.15 69.3 187.95L91.85 185.7ZM92.7 195.8C94.5667 195.533 95.6167 196.317 95.85 198.15V198.35C96.1167 200.217 95.3333 201.267 93.5 201.5L69.8 204.95C67.9333 205.217 66.8833 204.433 66.65 202.6V202.4C66.3833 200.533 67.1667 199.483 69 199.25L92.7 195.8ZM87.4 178C89.2667 177.533 90.4167 178.217 90.85 180.05L91.05 181C91.5167 182.867 90.8333 184.017 89 184.45H88.8C86.9333 184.917 85.7833 184.233 85.35 182.4L85.15 181.45C84.6833 179.583 85.3667 178.433 87.2 178H87.4ZM54.1 177.3C56.1333 177.3 57.15 178.317 57.15 180.35V180.9H62.45C64.2833 180.9 65.2 181.817 65.2 183.65V183.9C65.2 185.733 64.2833 186.65 62.45 186.65H56.3C52.6667 186.65 50.85 184.833 50.85 181.2V180.35C50.85 178.317 51.8667 177.3 53.9 177.3H54.1ZM62.2 191.1C64.0333 191.1 64.95 192.017 64.95 193.85V194.05C64.95 195.883 64.0333 196.8 62.2 196.8H53.4C51.5667 196.8 50.65 195.883 50.65 194.05V193.85C50.65 192.017 51.5667 191.1 53.4 191.1H62.2ZM62.2 202.7C64.0333 202.7 64.95 203.617 64.95 205.45V205.65C64.95 207.483 64.0333 208.4 62.2 208.4H52.6C50.7667 208.4 49.85 207.483 49.85 205.65V205.45C49.85 203.617 50.7667 202.7 52.6 202.7H62.2ZM57.3 193.95C59.2333 193.95 60.2 194.917 60.2 196.85V217H61.55C63.4833 217 64.45 217.967 64.45 219.9V220.1C64.45 222.033 63.4833 223 61.55 223H59.6C57.8333 223 56.4833 222.55 55.55 221.65C54.65 220.75 54.2 219.4 54.2 217.6V196.85C54.2 194.917 55.1667 193.95 57.1 193.95H57.3ZM114.65 177.45C116.583 177.45 117.55 178.367 117.55 180.2H142.5C144.267 180.2 145.6 180.65 146.5 181.55C147.4 182.45 147.85 183.783 147.85 185.55V205.15C147.85 206.917 147.4 208.25 146.5 209.15C145.6 210.05 144.267 210.5 142.5 210.5H140.5C138.6 210.5 137.65 209.55 137.65 207.65V207.45C137.65 205.55 138.6 204.6 140.5 204.6H141.85V186.1H116.9C115.133 186.1 113.8 185.65 112.9 184.75C112 183.85 111.55 182.517 111.55 180.75V180.2C111.55 178.367 112.517 177.45 114.45 177.45H114.65ZM129.45 190.1C131.217 190.1 132.55 190.55 133.45 191.45C134.35 192.35 134.8 193.683 134.8 195.45V204C134.8 205.767 134.35 207.1 133.45 208C132.55 208.9 131.217 209.35 129.45 209.35H114.3C112.4 209.35 111.45 208.4 111.45 206.5V206.35C111.45 204.45 112.4 203.5 114.3 203.5H128.8V195.95H114.45V217H145.3V215.2C145.3 213.267 146.267 212.3 148.2 212.3H148.4C150.333 212.3 151.3 213.267 151.3 215.2V217.5C151.3 219.267 150.85 220.6 149.95 221.5C149.05 222.4 147.717 222.85 145.95 222.85H113.8C112.033 222.85 110.7 222.4 109.8 221.5C108.9 220.6 108.45 219.267 108.45 217.5V195.45C108.45 193.683 108.9 192.35 109.8 191.45C110.7 190.55 112.033 190.1 113.8 190.1H129.45Z" fill="white"/>
<path d="M86.25 211.8L82.5281 215.139L82.5416 215.154L82.5552 215.169L86.25 211.8ZM94.2 217.45L92.0958 221.986L92.1886 222.029L92.2831 222.068L94.2 217.45ZM95.9 221.25L100.372 223.486L100.512 223.205L100.617 222.91L95.9 221.25ZM95.8 221.45L91.3279 219.214L91.1993 219.471L91.101 219.741L95.8 221.45ZM92.1 223.05L90.0291 227.601L90.0846 227.626L90.1407 227.65L92.1 223.05ZM78.65 211.15L82.9759 208.643V208.643L78.65 211.15ZM90.8 205.65L87.6765 201.746L87.556 201.842L87.4416 201.946L90.8 205.65ZM94.9 205.95L91.1482 209.255L91.2527 209.374L91.3645 209.486L94.9 205.95ZM95 206.05L98.8202 202.824L98.6843 202.663L98.5355 202.514L95 206.05ZM94.7 210.05L91.5874 206.137L91.5555 206.162L91.524 206.188L94.7 210.05ZM83.1 217.6L85.3361 222.072L85.3432 222.069L85.3503 222.065L83.1 217.6ZM70.25 222.5L68.9436 217.674L68.9277 217.678L68.9118 217.682L70.25 222.5ZM66.85 220.45H61.85V221.066L61.9993 221.663L66.85 220.45ZM66.85 220.25H71.85V219.657L71.7111 219.08L66.85 220.25ZM68.95 216.8L70.2656 221.624L70.2778 221.62L70.2901 221.617L68.95 216.8ZM81.3 212L79.0176 207.551L79.0097 207.555L79.0018 207.559L81.3 212ZM91.85 185.7L92.3464 190.675L92.3693 190.673L92.3922 190.671L91.85 185.7ZM94.9 188.15H99.9V187.878L99.8705 187.608L94.9 188.15ZM94.9 188.35H89.9V188.622L89.9295 188.892L94.9 188.35ZM92.45 191.4L92.9464 196.375L92.9693 196.373L92.9922 196.371L92.45 191.4ZM69.9 193.65L69.4036 188.675L69.3807 188.677L69.3578 188.679L69.9 193.65ZM66.85 191.2H61.85V191.472L61.8795 191.742L66.85 191.2ZM66.85 191H71.85V190.728L71.8205 190.458L66.85 191ZM69.3 187.95L68.8036 182.975L68.7807 182.977L68.7578 182.979L69.3 187.95ZM92.7 195.8L91.9929 190.85L91.9797 190.852L92.7 195.8ZM95.85 198.15H100.85V197.833L100.81 197.519L95.85 198.15ZM95.85 198.35H90.85V198.705L90.9003 199.057L95.85 198.35ZM93.5 201.5L92.8687 196.54L92.8242 196.546L92.7797 196.552L93.5 201.5ZM69.8 204.95L70.5071 209.9L70.5203 209.898L69.8 204.95ZM66.65 202.6H61.65V202.917L61.69 203.231L66.65 202.6ZM66.65 202.4H71.65V202.045L71.5997 201.693L66.65 202.4ZM69 199.25L69.6313 204.21L69.6758 204.204L69.7203 204.198L69 199.25ZM87.4 178V183H88.0155L88.6127 182.851L87.4 178ZM90.85 180.05L95.7428 179.02L95.7301 178.96L95.7159 178.9L90.85 180.05ZM91.05 181L86.1573 182.03L86.1766 182.122L86.1993 182.213L91.05 181ZM89 184.45V189.45H89.5829L90.1501 189.316L89 184.45ZM88.8 184.45V179.45H88.1845L87.5873 179.599L88.8 184.45ZM85.35 182.4L80.4573 183.43L80.4699 183.49L80.4841 183.55L85.35 182.4ZM85.15 181.45L90.0428 180.42L90.0234 180.328L90.0007 180.237L85.15 181.45ZM87.2 178V173H86.6171L86.0499 173.134L87.2 178ZM57.15 180.9H52.15V185.9H57.15V180.9ZM60.2 217H55.2V222H60.2V217ZM55.55 221.65L52.0145 225.186L52.0466 225.218L52.0793 225.249L55.55 221.65ZM77.2 177.5V182.5C77.3959 182.5 76.6245 182.546 75.8395 181.761C75.0544 180.975 75.1 180.204 75.1 180.4H80.1H85.1C85.1 178.663 84.6623 176.441 82.9105 174.689C81.1588 172.938 78.9374 172.5 77.2 172.5V177.5ZM80.1 180.4H75.1V190.5H80.1H85.1V180.4H80.1ZM80.1 190.5H75.1C75.1 195.813 75.6454 200.559 76.8583 204.628L81.65 203.2L86.4417 201.772C85.5879 198.908 85.1 195.187 85.1 190.5H80.1ZM81.65 203.2L76.8583 204.628C78.0635 208.671 79.9172 212.228 82.5281 215.139L86.25 211.8L89.9719 208.461C88.5161 206.838 87.3032 204.662 86.4417 201.772L81.65 203.2ZM86.25 211.8L82.5552 215.169C85.1358 217.999 88.3565 220.251 92.0958 221.986L94.2 217.45L96.3042 212.914C93.5768 211.649 91.4975 210.134 89.9448 208.431L86.25 211.8ZM94.2 217.45L92.2831 222.068C92.4391 222.133 91.794 221.904 91.3859 220.992C90.9767 220.077 91.2367 219.439 91.1834 219.59L95.9 221.25L100.617 222.91C101.197 221.261 101.49 219.09 100.514 216.908C99.5393 214.729 97.7276 213.501 96.1169 212.832L94.2 217.45ZM95.9 221.25L91.4279 219.014L91.3279 219.214L95.8 221.45L100.272 223.686L100.372 223.486L95.9 221.25ZM95.8 221.45L91.101 219.741C91.0233 219.955 91.2656 219.122 92.3904 218.636C93.5113 218.151 94.2781 218.543 94.0593 218.45L92.1 223.05L90.1407 227.65C91.7219 228.324 94.0054 228.832 96.3596 227.814C98.7177 226.795 99.91 224.778 100.499 223.159L95.8 221.45ZM92.1 223.05L94.1709 218.499C89.1058 216.194 85.447 212.906 82.9759 208.643L78.65 211.15L74.3241 213.657C77.9196 219.861 83.2275 224.506 90.0291 227.601L92.1 223.05ZM78.65 211.15L82.9759 208.643C80.529 204.421 79.1 198.496 79.1 190.5H74.1H69.1C69.1 199.571 70.7043 207.412 74.3241 213.657L78.65 211.15ZM74.1 190.5H79.1V180.4H74.1H69.1V190.5H74.1ZM74.1 180.4H79.1C79.1 180.204 79.1456 180.975 78.3605 181.761C77.5755 182.546 76.8041 182.5 77 182.5V177.5V172.5C75.2626 172.5 73.0412 172.938 71.2895 174.689C69.5377 176.441 69.1 178.663 69.1 180.4H74.1ZM77 177.5V182.5H77.2V177.5V172.5H77V177.5ZM90.8 205.65L93.9235 209.554C94.0857 209.425 93.5882 209.885 92.5851 209.812C91.5489 209.736 91.077 209.174 91.1482 209.255L94.9 205.95L98.6518 202.645C97.4896 201.326 95.7178 200.014 93.3149 199.838C90.9452 199.665 89.0143 200.675 87.6765 201.746L90.8 205.65ZM94.9 205.95L91.3645 209.486L91.4645 209.586L95 206.05L98.5355 202.514L98.4355 202.414L94.9 205.95ZM95 206.05L91.1799 209.276C91.3614 209.491 90.8033 208.944 90.889 207.801C90.9795 206.594 91.6802 206.063 91.5874 206.137L94.7 210.05L97.8126 213.963C99.1865 212.87 100.67 211.089 100.861 208.549C101.047 206.073 99.9053 204.109 98.8202 202.824L95 206.05ZM94.7 210.05L91.524 206.188C88.2456 208.884 84.6899 211.2 80.8497 213.135L83.1 217.6L85.3503 222.065C89.8435 219.8 94.021 217.082 97.876 213.912L94.7 210.05ZM83.1 217.6L80.8639 213.128C77.0261 215.047 73.0541 216.561 68.9436 217.674L70.25 222.5L71.5564 227.326C76.3126 226.039 80.9072 224.287 85.3361 222.072L83.1 217.6ZM70.25 222.5L68.9118 217.682C68.7799 217.719 69.604 217.461 70.6317 218.081C71.6245 218.679 71.7589 219.47 71.7007 219.237L66.85 220.45L61.9993 221.663C62.4078 223.297 63.3422 225.362 65.4683 226.644C67.6294 227.947 69.9201 227.781 71.5882 227.318L70.25 222.5ZM66.85 220.45H71.85V220.25H66.85H61.85V220.45H66.85ZM66.85 220.25L71.7111 219.08C71.6853 218.973 71.8831 219.714 71.321 220.637C70.775 221.534 70.0729 221.676 70.2656 221.624L68.95 216.8L67.6344 211.976C65.9937 212.424 64.025 213.391 62.779 215.438C61.5169 217.511 61.5813 219.727 61.9889 221.42L66.85 220.25ZM68.95 216.8L70.2901 221.617C75.0301 220.298 79.4706 218.577 83.5982 216.441L81.3 212L79.0018 207.559C75.5294 209.357 71.7365 210.835 67.6099 211.983L68.95 216.8ZM81.3 212L83.5824 216.449C87.7037 214.334 91.2589 211.983 94.1584 209.354L90.8 205.65L87.4416 201.946C85.3411 203.85 82.563 205.732 79.0176 207.551L81.3 212ZM91.85 185.7L92.3922 190.671C92.5427 190.654 91.7464 190.776 90.8562 190.061C89.9661 189.346 89.9131 188.542 89.9295 188.692L94.9 188.15L99.8705 187.608C99.6869 185.925 99.0256 183.796 97.1188 182.264C95.212 180.733 92.9906 180.546 91.3078 180.729L91.85 185.7ZM94.9 188.15H89.9V188.35H94.9H99.9V188.15H94.9ZM94.9 188.35L89.9295 188.892C89.9459 189.043 89.8244 188.246 90.5394 187.356C91.2544 186.466 92.0583 186.413 91.9078 186.429L92.45 191.4L92.9922 196.371C94.6751 196.187 96.8039 195.526 98.3356 193.619C99.8673 191.712 100.054 189.491 99.8705 187.808L94.9 188.35ZM92.45 191.4L91.9536 186.425L69.4036 188.675L69.9 193.65L70.3964 198.625L92.9464 196.375L92.45 191.4ZM69.9 193.65L69.3578 188.679C69.2073 188.696 70.0036 188.574 70.8938 189.289C71.7839 190.004 71.8369 190.808 71.8205 190.658L66.85 191.2L61.8795 191.742C62.0631 193.425 62.7244 195.554 64.6312 197.086C66.538 198.617 68.7594 198.804 70.4422 198.621L69.9 193.65ZM66.85 191.2H71.85V191H66.85H61.85V191.2H66.85ZM66.85 191L71.8205 190.458C71.8041 190.307 71.9256 191.104 71.2106 191.994C70.4956 192.884 69.6917 192.937 69.8422 192.921L69.3 187.95L68.7578 182.979C67.0749 183.163 64.9461 183.824 63.4144 185.731C61.8827 187.638 61.6959 189.859 61.8795 191.542L66.85 191ZM69.3 187.95L69.7964 192.925L92.3464 190.675L91.85 185.7L91.3536 180.725L68.8036 182.975L69.3 187.95ZM92.7 195.8L93.4071 200.75C93.609 200.721 92.8221 200.885 91.8977 200.195C90.9516 199.489 90.8731 198.648 90.89 198.781L95.85 198.15L100.81 197.519C100.594 195.819 99.8734 193.669 97.8773 192.18C95.9029 190.707 93.6577 190.612 91.9929 190.85L92.7 195.8ZM95.85 198.15H90.85V198.35H95.85H100.85V198.15H95.85ZM95.85 198.35L90.9003 199.057C90.9291 199.259 90.7653 198.472 91.4549 197.548C92.1607 196.602 93.0019 196.523 92.8687 196.54L93.5 201.5L94.1313 206.46C95.8314 206.244 97.981 205.523 99.4701 203.527C100.943 201.553 101.038 199.308 100.8 197.643L95.85 198.35ZM93.5 201.5L92.7797 196.552L69.0797 200.002L69.8 204.95L70.5203 209.898L94.2203 206.448L93.5 201.5ZM69.8 204.95L69.0929 200C68.891 200.029 69.6779 199.865 70.6023 200.555C71.5484 201.261 71.6269 202.102 71.61 201.969L66.65 202.6L61.69 203.231C61.9064 204.931 62.6266 207.081 64.6227 208.57C66.5971 210.043 68.8423 210.138 70.5071 209.9L69.8 204.95ZM66.65 202.6H71.65V202.4H66.65H61.65V202.6H66.65ZM66.65 202.4L71.5997 201.693C71.5709 201.491 71.7347 202.278 71.0451 203.202C70.3393 204.148 69.4981 204.227 69.6313 204.21L69 199.25L68.3687 194.29C66.6686 194.506 64.519 195.227 63.0299 197.223C61.5569 199.197 61.4624 201.442 61.7003 203.107L66.65 202.4ZM69 199.25L69.7203 204.198L93.4203 200.748L92.7 195.8L91.9797 190.852L68.2797 194.302L69 199.25ZM87.4 178L88.6127 182.851C88.8293 182.797 88.0835 183.04 87.1084 182.461C86.1089 181.867 85.9497 181.054 85.9841 181.2L90.85 180.05L95.7159 178.9C95.317 177.212 94.3661 175.141 92.2166 173.864C90.0915 172.601 87.8373 172.737 86.1873 173.149L87.4 178ZM90.85 180.05L85.9573 181.08L86.1573 182.03L91.05 181L95.9428 179.97L95.7428 179.02L90.85 180.05ZM91.05 181L86.1993 182.213C86.2535 182.429 86.0097 181.683 86.5891 180.708C87.1829 179.709 87.9955 179.55 87.8499 179.584L89 184.45L90.1501 189.316C91.8378 188.917 93.9087 187.966 95.1859 185.817C96.4487 183.692 96.3132 181.437 95.9007 179.787L91.05 181ZM89 184.45V179.45H88.8V184.45V189.45H89V184.45ZM88.8 184.45L87.5873 179.599C87.3707 179.653 88.1165 179.41 89.0916 179.989C90.0911 180.583 90.2504 181.396 90.2159 181.25L85.35 182.4L80.4841 183.55C80.883 185.238 81.8339 187.309 83.9834 188.586C86.1085 189.849 88.3627 189.713 90.0127 189.301L88.8 184.45ZM85.35 182.4L90.2428 181.37L90.0428 180.42L85.15 181.45L80.2573 182.48L80.4573 183.43L85.35 182.4ZM85.15 181.45L90.0007 180.237C89.9465 180.021 90.1903 180.767 89.6109 181.742C89.0171 182.741 88.2045 182.9 88.3501 182.866L87.2 178L86.0499 173.134C84.3622 173.533 82.2913 174.484 81.0141 176.633C79.7513 178.758 79.8868 181.013 80.2993 182.663L85.15 181.45ZM87.2 178V183H87.4V178V173H87.2V178ZM54.1 177.3V182.3C54.3459 182.3 53.612 182.358 52.852 181.598C52.0919 180.838 52.15 180.104 52.15 180.35H57.15H62.15C62.15 178.563 61.6998 176.304 59.923 174.527C58.1463 172.75 55.8874 172.3 54.1 172.3V177.3ZM57.15 180.35H52.15V180.9H57.15H62.15V180.35H57.15ZM57.15 180.9V185.9H62.45V180.9V175.9H57.15V180.9ZM62.45 180.9V185.9C62.5959 185.9 61.787 185.933 60.977 185.123C60.1669 184.313 60.2 183.504 60.2 183.65H65.2H70.2C70.2 181.963 69.7748 179.779 68.048 178.052C66.3213 176.325 64.1374 175.9 62.45 175.9V180.9ZM65.2 183.65H60.2V183.9H65.2H70.2V183.65H65.2ZM65.2 183.9H60.2C60.2 184.046 60.1669 183.237 60.977 182.427C61.787 181.617 62.5959 181.65 62.45 181.65V186.65V191.65C64.1374 191.65 66.3213 191.225 68.048 189.498C69.7748 187.771 70.2 185.587 70.2 183.9H65.2ZM62.45 186.65V181.65H56.3V186.65V191.65H62.45V186.65ZM56.3 186.65V181.65C55.7934 181.65 55.5537 181.585 55.4968 181.566C55.464 181.555 55.5914 181.595 55.748 181.752C55.9047 181.909 55.9449 182.036 55.934 182.003C55.9151 181.946 55.85 181.707 55.85 181.2H50.85H45.85C45.85 183.787 46.5002 186.646 48.677 188.823C50.8537 191 53.7126 191.65 56.3 191.65V186.65ZM50.85 181.2H55.85V180.35H50.85H45.85V181.2H50.85ZM50.85 180.35H55.85C55.85 180.104 55.9081 180.838 55.148 181.598C54.388 182.358 53.6541 182.3 53.9 182.3V177.3V172.3C52.1126 172.3 49.8537 172.75 48.077 174.527C46.3002 176.304 45.85 178.563 45.85 180.35H50.85ZM53.9 177.3V182.3H54.1V177.3V172.3H53.9V177.3ZM62.2 191.1V196.1C62.3459 196.1 61.537 196.133 60.727 195.323C59.9169 194.513 59.95 193.704 59.95 193.85H64.95H69.95C69.95 192.163 69.5248 189.979 67.798 188.252C66.0713 186.525 63.8874 186.1 62.2 186.1V191.1ZM64.95 193.85H59.95V194.05H64.95H69.95V193.85H64.95ZM64.95 194.05H59.95C59.95 194.196 59.9169 193.387 60.727 192.577C61.537 191.767 62.3459 191.8 62.2 191.8V196.8V201.8C63.8874 201.8 66.0713 201.375 67.798 199.648C69.5248 197.921 69.95 195.737 69.95 194.05H64.95ZM62.2 196.8V191.8H53.4V196.8V201.8H62.2V196.8ZM53.4 196.8V191.8C53.2541 191.8 54.063 191.767 54.873 192.577C55.6831 193.387 55.65 194.196 55.65 194.05H50.65H45.65C45.65 195.737 46.0752 197.921 47.802 199.648C49.5287 201.375 51.7126 201.8 53.4 201.8V196.8ZM50.65 194.05H55.65V193.85H50.65H45.65V194.05H50.65ZM50.65 193.85H55.65C55.65 193.704 55.6831 194.513 54.873 195.323C54.063 196.133 53.2541 196.1 53.4 196.1V191.1V186.1C51.7126 186.1 49.5287 186.525 47.802 188.252C46.0752 189.979 45.65 192.163 45.65 193.85H50.65ZM53.4 191.1V196.1H62.2V191.1V186.1H53.4V191.1ZM62.2 202.7V207.7C62.3459 207.7 61.537 207.733 60.727 206.923C59.9169 206.113 59.95 205.304 59.95 205.45H64.95H69.95C69.95 203.763 69.5248 201.579 67.798 199.852C66.0713 198.125 63.8874 197.7 62.2 197.7V202.7ZM64.95 205.45H59.95V205.65H64.95H69.95V205.45H64.95ZM64.95 205.65H59.95C59.95 205.796 59.9169 204.987 60.727 204.177C61.537 203.367 62.3459 203.4 62.2 203.4V208.4V213.4C63.8874 213.4 66.0713 212.975 67.798 211.248C69.5248 209.521 69.95 207.337 69.95 205.65H64.95ZM62.2 208.4V203.4H52.6V208.4V213.4H62.2V208.4ZM52.6 208.4V203.4C52.4541 203.4 53.263 203.367 54.073 204.177C54.8831 204.987 54.85 205.796 54.85 205.65H49.85H44.85C44.85 207.337 45.2752 209.521 47.002 211.248C48.7287 212.975 50.9126 213.4 52.6 213.4V208.4ZM49.85 205.65H54.85V205.45H49.85H44.85V205.65H49.85ZM49.85 205.45H54.85C54.85 205.304 54.8831 206.113 54.073 206.923C53.263 207.733 52.4541 207.7 52.6 207.7V202.7V197.7C50.9126 197.7 48.7287 198.125 47.002 199.852C45.2752 201.579 44.85 203.763 44.85 205.45H49.85ZM52.6 202.7V207.7H62.2V202.7V197.7H52.6V202.7ZM57.3 193.95V198.95C57.4959 198.95 56.7245 198.996 55.9395 198.211C55.1544 197.425 55.2 196.654 55.2 196.85H60.2H65.2C65.2 195.113 64.7623 192.891 63.0105 191.139C61.2588 189.388 59.0374 188.95 57.3 188.95V193.95ZM60.2 196.85H55.2V217H60.2H65.2V196.85H60.2ZM60.2 217V222H61.55V217V212H60.2V217ZM61.55 217V222C61.7459 222 60.9745 222.046 60.1895 221.261C59.4044 220.475 59.45 219.704 59.45 219.9H64.45H69.45C69.45 218.163 69.0123 215.941 67.2605 214.189C65.5088 212.438 63.2874 212 61.55 212V217ZM64.45 219.9H59.45V220.1H64.45H69.45V219.9H64.45ZM64.45 220.1H59.45C59.45 220.296 59.4044 219.525 60.1895 218.739C60.9745 217.954 61.7459 218 61.55 218V223V228C63.2874 228 65.5088 227.562 67.2605 225.811C69.0123 224.059 69.45 221.837 69.45 220.1H64.45ZM61.55 223V218H59.6V223V228H61.55V223ZM59.6 223V218C59.1297 218 58.9028 217.939 58.8436 217.919C58.8177 217.91 58.8323 217.913 58.8728 217.937C58.9147 217.961 58.9675 217.999 59.0207 218.051L55.55 221.65L52.0793 225.249C54.24 227.333 57.0172 228 59.6 228V223ZM55.55 221.65L59.0855 218.114C59.1584 218.187 59.2118 218.26 59.2468 218.318C59.2809 218.375 59.2877 218.402 59.2809 218.381C59.264 218.331 59.2 218.098 59.2 217.6H54.2H49.2C49.2 220.171 49.8461 223.017 52.0145 225.186L55.55 221.65ZM54.2 217.6H59.2V196.85H54.2H49.2V217.6H54.2ZM54.2 196.85H59.2C59.2 196.654 59.2456 197.425 58.4605 198.211C57.6755 198.996 56.9041 198.95 57.1 198.95V193.95V188.95C55.3626 188.95 53.1412 189.388 51.3895 191.139C49.6377 192.891 49.2 195.113 49.2 196.85H54.2ZM57.1 193.95V198.95H57.3V193.95V188.95H57.1V193.95ZM117.55 180.2H112.55V185.2H117.55V180.2ZM146.5 181.55L150.036 178.014V178.014L146.5 181.55ZM146.5 209.15L150.036 212.686V212.686L146.5 209.15ZM141.85 204.6V209.6H146.85V204.6H141.85ZM141.85 186.1H146.85V181.1H141.85V186.1ZM112.9 184.75L116.436 181.214V181.214L112.9 184.75ZM133.45 208L136.986 211.536V211.536L133.45 208ZM128.8 203.5V208.5H133.8V203.5H128.8ZM128.8 195.95H133.8V190.95H128.8V195.95ZM114.45 195.95V190.95H109.45V195.95H114.45ZM114.45 217H109.45V222H114.45V217ZM145.3 217V222H150.3V217H145.3ZM149.95 221.5L153.486 225.036L153.486 225.036L149.95 221.5ZM109.8 221.5L113.336 217.964V217.964L109.8 221.5ZM109.8 191.45L113.336 194.986V194.986L109.8 191.45ZM114.65 177.45V182.45C114.91 182.45 114.176 182.516 113.385 181.766C112.543 180.968 112.55 180.124 112.55 180.2H117.55H122.55C122.55 178.443 122.074 176.224 120.265 174.509C118.507 172.842 116.323 172.45 114.65 172.45V177.45ZM117.55 180.2V185.2H142.5V180.2V175.2H117.55V180.2ZM142.5 180.2V185.2C142.972 185.2 143.187 185.262 143.226 185.275C143.241 185.28 143.213 185.272 143.157 185.238C143.1 185.204 143.032 185.153 142.964 185.086L146.5 181.55L150.036 178.014C147.883 175.862 145.069 175.2 142.5 175.2V180.2ZM146.5 181.55L142.964 185.086C142.897 185.018 142.846 184.95 142.812 184.893C142.778 184.837 142.77 184.809 142.775 184.824C142.788 184.863 142.85 185.078 142.85 185.55H147.85H152.85C152.85 182.981 152.188 180.167 150.036 178.014L146.5 181.55ZM147.85 185.55H142.85V205.15H147.85H152.85V185.55H147.85ZM147.85 205.15H142.85C142.85 205.622 142.788 205.837 142.775 205.876C142.77 205.891 142.778 205.863 142.812 205.807C142.846 205.75 142.897 205.682 142.964 205.614L146.5 209.15L150.036 212.686C152.188 210.533 152.85 207.719 152.85 205.15H147.85ZM146.5 209.15L142.964 205.614C143.032 205.547 143.1 205.496 143.157 205.462C143.213 205.428 143.241 205.42 143.226 205.425C143.187 205.438 142.972 205.5 142.5 205.5V210.5V215.5C145.069 215.5 147.883 214.838 150.036 212.686L146.5 209.15ZM142.5 210.5V205.5H140.5V210.5V215.5H142.5V210.5ZM140.5 210.5V205.5C140.321 205.5 141.105 205.459 141.898 206.252C142.691 207.045 142.65 207.829 142.65 207.65H137.65H132.65C132.65 209.371 133.084 211.58 134.827 213.323C136.57 215.066 138.779 215.5 140.5 215.5V210.5ZM137.65 207.65H142.65V207.45H137.65H132.65V207.65H137.65ZM137.65 207.45H142.65C142.65 207.271 142.691 208.055 141.898 208.848C141.105 209.641 140.321 209.6 140.5 209.6V204.6V199.6C138.779 199.6 136.57 200.034 134.827 201.777C133.084 203.52 132.65 205.729 132.65 207.45H137.65ZM140.5 204.6V209.6H141.85V204.6V199.6H140.5V204.6ZM141.85 204.6H146.85V186.1H141.85H136.85V204.6H141.85ZM141.85 186.1V181.1H116.9V186.1V191.1H141.85V186.1ZM116.9 186.1V181.1C116.428 181.1 116.213 181.038 116.174 181.025C116.159 181.02 116.187 181.028 116.243 181.062C116.3 181.096 116.368 181.147 116.436 181.214L112.9 184.75L109.364 188.286C111.517 190.438 114.331 191.1 116.9 191.1V186.1ZM112.9 184.75L116.436 181.214C116.503 181.282 116.554 181.35 116.588 181.407C116.622 181.463 116.63 181.491 116.625 181.476C116.612 181.437 116.55 181.222 116.55 180.75H111.55H106.55C106.55 183.319 107.212 186.133 109.364 188.286L112.9 184.75ZM111.55 180.75H116.55V180.2H111.55H106.55V180.75H111.55ZM111.55 180.2H116.55C116.55 180.124 116.557 180.968 115.715 181.766C114.924 182.516 114.19 182.45 114.45 182.45V177.45V172.45C112.777 172.45 110.593 172.842 108.835 174.509C107.026 176.224 106.55 178.443 106.55 180.2H111.55ZM114.45 177.45V182.45H114.65V177.45V172.45H114.45V177.45ZM129.45 190.1V195.1C129.922 195.1 130.137 195.162 130.176 195.175C130.191 195.18 130.163 195.172 130.107 195.138C130.05 195.104 129.982 195.053 129.914 194.986L133.45 191.45L136.986 187.914C134.833 185.762 132.019 185.1 129.45 185.1V190.1ZM133.45 191.45L129.914 194.986C129.847 194.918 129.796 194.85 129.762 194.793C129.728 194.737 129.72 194.709 129.725 194.724C129.738 194.763 129.8 194.978 129.8 195.45H134.8H139.8C139.8 192.881 139.138 190.067 136.986 187.914L133.45 191.45ZM134.8 195.45H129.8V204H134.8H139.8V195.45H134.8ZM134.8 204H129.8C129.8 204.472 129.738 204.687 129.725 204.726C129.72 204.741 129.728 204.713 129.762 204.657C129.796 204.6 129.847 204.532 129.914 204.464L133.45 208L136.986 211.536C139.138 209.383 139.8 206.569 139.8 204H134.8ZM133.45 208L129.914 204.464C129.982 204.397 130.05 204.346 130.107 204.312C130.163 204.278 130.191 204.27 130.176 204.275C130.137 204.288 129.922 204.35 129.45 204.35V209.35V214.35C132.019 214.35 134.833 213.688 136.986 211.536L133.45 208ZM129.45 209.35V204.35H114.3V209.35V214.35H129.45V209.35ZM114.3 209.35V204.35C114.121 204.35 114.905 204.309 115.698 205.102C116.491 205.895 116.45 206.679 116.45 206.5H111.45H106.45C106.45 208.221 106.884 210.43 108.627 212.173C110.37 213.916 112.579 214.35 114.3 214.35V209.35ZM111.45 206.5H116.45V206.35H111.45H106.45V206.5H111.45ZM111.45 206.35H116.45C116.45 206.171 116.491 206.955 115.698 207.748C114.905 208.541 114.121 208.5 114.3 208.5V203.5V198.5C112.579 198.5 110.37 198.934 108.627 200.677C106.884 202.42 106.45 204.629 106.45 206.35H111.45ZM114.3 203.5V208.5H128.8V203.5V198.5H114.3V203.5ZM128.8 203.5H133.8V195.95H128.8H123.8V203.5H128.8ZM128.8 195.95V190.95H114.45V195.95V200.95H128.8V195.95ZM114.45 195.95H109.45V217H114.45H119.45V195.95H114.45ZM114.45 217V222H145.3V217V212H114.45V217ZM145.3 217H150.3V215.2H145.3H140.3V217H145.3ZM145.3 215.2H150.3C150.3 215.004 150.346 215.775 149.561 216.561C148.775 217.346 148.004 217.3 148.2 217.3V212.3V207.3C146.463 207.3 144.241 207.738 142.489 209.489C140.738 211.241 140.3 213.463 140.3 215.2H145.3ZM148.2 212.3V217.3H148.4V212.3V207.3H148.2V212.3ZM148.4 212.3V217.3C148.596 217.3 147.825 217.346 147.039 216.561C146.254 215.775 146.3 215.004 146.3 215.2H151.3H156.3C156.3 213.463 155.862 211.241 154.111 209.489C152.359 207.738 150.137 207.3 148.4 207.3V212.3ZM151.3 215.2H146.3V217.5H151.3H156.3V215.2H151.3ZM151.3 217.5H146.3C146.3 217.972 146.238 218.187 146.225 218.226C146.22 218.241 146.228 218.213 146.262 218.157C146.296 218.1 146.347 218.032 146.414 217.964L149.95 221.5L153.486 225.036C155.638 222.883 156.3 220.069 156.3 217.5H151.3ZM149.95 221.5L146.414 217.964C146.482 217.897 146.55 217.846 146.607 217.812C146.663 217.778 146.691 217.77 146.676 217.775C146.637 217.788 146.422 217.85 145.95 217.85V222.85V227.85C148.519 227.85 151.333 227.188 153.486 225.036L149.95 221.5ZM145.95 222.85V217.85H113.8V222.85V227.85H145.95V222.85ZM113.8 222.85V217.85C113.328 217.85 113.113 217.788 113.074 217.775C113.059 217.77 113.087 217.778 113.143 217.812C113.2 217.846 113.268 217.897 113.336 217.964L109.8 221.5L106.264 225.036C108.417 227.188 111.231 227.85 113.8 227.85V222.85ZM109.8 221.5L113.336 217.964C113.403 218.032 113.454 218.1 113.488 218.157C113.522 218.213 113.53 218.241 113.525 218.226C113.512 218.187 113.45 217.972 113.45 217.5H108.45H103.45C103.45 220.069 104.112 222.883 106.264 225.036L109.8 221.5ZM108.45 217.5H113.45V195.45H108.45H103.45V217.5H108.45ZM108.45 195.45H113.45C113.45 194.978 113.512 194.763 113.525 194.724C113.53 194.709 113.522 194.737 113.488 194.793C113.454 194.85 113.403 194.918 113.336 194.986L109.8 191.45L106.264 187.914C104.112 190.067 103.45 192.881 103.45 195.45H108.45ZM109.8 191.45L113.336 194.986C113.268 195.053 113.2 195.104 113.143 195.138C113.087 195.172 113.059 195.18 113.074 195.175C113.113 195.162 113.328 195.1 113.8 195.1V190.1V185.1C111.231 185.1 108.417 185.762 106.264 187.914L109.8 191.45ZM113.8 190.1V195.1H129.45V190.1V185.1H113.8V190.1Z" fill="#4E433C" mask="url(#path-10-outside-1_341_3168)"/>
</svg>
