<svg preserveAspectRatio="none" width="100%" height="100%" overflow="visible" style="display: block;" viewBox="0 0 36 37" fill="none" xmlns="http://www.w3.org/2000/svg">
<g id="&#228;&#189;&#153;&#233;&#162;&#157;">
<path d="M20.2228 36.7459C19.8816 36.8358 19.3732 36.8565 19.0122 36.8985C12.9529 37.6007 7.17987 34.6003 3.64242 29.7069C0.549102 25.4278 -0.540232 20.3432 0.24604 15.1189C0.939759 10.3499 3.48728 6.05231 7.32962 3.16921C11.2362 0.280936 15.5973 -0.466912 20.3359 0.258904C20.9117 0.300399 21.4883 0.42504 22.0545 0.540067C25.7272 1.27398 29.0513 3.21775 31.5014 6.06399C36.27 11.5805 37.2637 19.7785 34.405 26.3916C33.3769 28.7696 31.8287 31.0401 29.8653 32.7252C27.1666 35.0756 23.7843 36.4863 20.2228 36.7459Z" fill="#FDCE45"/>
<path d="M20.3359 0.258904C20.9117 0.300399 21.4883 0.42504 22.0545 0.540067C25.7272 1.27398 29.0513 3.21775 31.5014 6.06399C36.27 11.5805 37.2637 19.7785 34.405 26.3916C33.3769 28.7696 31.8287 31.0401 29.8653 32.7252C27.1666 35.0756 23.7843 36.4863 20.2228 36.7459C20.3727 36.6046 22.0382 36.1341 22.4657 35.9772C25.027 35.0387 27.9643 32.8557 29.5597 30.6416C29.8936 30.2146 30.1693 29.8354 30.4876 29.3979C30.8307 28.8455 31.1602 28.2842 31.4759 27.7155C31.683 27.3375 31.8712 26.9117 32.0544 26.5185C32.2728 25.937 32.4939 25.4138 32.7077 24.814C32.8498 24.406 32.9768 23.993 33.0888 23.5753C33.2406 22.9918 33.3544 22.5002 33.4504 21.9077C33.5337 21.5193 33.5953 20.9922 33.6534 20.5878C33.7397 19.9089 33.7115 19.392 33.7761 18.7991L33.7773 18.1204C33.7622 18.0467 33.7397 17.313 33.7297 17.1679C33.6963 16.675 33.6456 16.2231 33.5856 15.7319C33.5124 15.2861 33.4671 14.8982 33.3734 14.4487C33.2564 13.8322 33.1077 13.249 32.9478 12.6431C32.8053 12.2641 32.6725 11.806 32.5489 11.4154C32.3212 10.9685 31.9894 10.1116 31.7857 9.62768C31.6048 9.25781 31.3465 8.8288 31.1467 8.42954C31.0379 8.3005 30.7912 7.88905 30.6905 7.7312C30.469 7.38406 30.2401 7.04163 30.0047 6.70406C29.6922 6.34049 29.375 5.93706 29.0714 5.56251C26.8808 3.27518 24.5716 1.63725 21.5313 0.697569C21.2796 0.619795 20.4598 0.43267 20.3359 0.258904Z" fill="var(--fill-0, #F4AA1B)"/>
<path d="M33.6534 20.5878C34.218 20.6162 34.7031 20.6316 35.2732 20.5869C35.2503 21.0587 35.1748 21.4289 35.0884 21.8913C34.4704 21.8434 33.9969 21.9315 33.4504 21.9077C33.5337 21.5193 33.5953 20.9922 33.6534 20.5878Z" fill="#E19A23"/>
<path d="M33.3734 14.4487C33.9182 14.4168 34.4642 14.4094 35.0099 14.4265L35.2539 15.6835C34.709 15.6627 34.1332 15.7035 33.5856 15.7319C33.5124 15.2861 33.4671 14.8982 33.3734 14.4487Z" fill="#E19A23"/>
<path d="M33.0888 23.5753C33.6383 23.5847 34.1881 23.5843 34.738 23.5749C34.6013 23.9914 34.4747 24.411 34.3585 24.8334C33.9476 24.8314 33.0376 24.8879 32.7077 24.814C32.8498 24.406 32.9768 23.993 33.0888 23.5753Z" fill="#E19A23"/>
<path d="M30.4876 29.3979C30.8617 29.4571 31.6989 29.4454 32.0989 29.4446C31.8158 29.8661 31.5575 30.3115 31.1823 30.647C30.8071 30.6653 29.8858 30.7272 29.5597 30.6416C29.8936 30.2146 30.1693 29.8354 30.4876 29.3979Z" fill="#E19A23"/>
<path d="M32.0544 26.5185C32.4734 26.5559 33.2955 26.5349 33.7126 26.4894C33.519 26.9335 33.3428 27.3535 33.1077 27.7786C32.7305 27.7638 31.7555 27.7941 31.4759 27.7155C31.683 27.3375 31.8712 26.9117 32.0544 26.5185Z" fill="#E19A23"/>
<path d="M32.5489 11.4154C33.0779 11.3648 33.648 11.3734 34.1804 11.3818C34.2726 11.6618 34.5348 12.2889 34.4256 12.5444C34.2501 12.7055 33.282 12.6286 32.9478 12.6431C32.8053 12.2641 32.6725 11.806 32.5489 11.4154Z" fill="#E19A23"/>
<path d="M33.7799 17.565C34.326 17.5248 34.8487 17.5592 35.387 17.5426C35.3839 17.9592 35.3839 18.3758 35.3866 18.7924C34.8456 18.7836 34.3094 18.8064 33.7761 18.7991L33.7773 18.1204C33.7835 17.9263 33.7857 17.7608 33.7799 17.565Z" fill="#E19A23"/>
<path d="M31.1467 8.42954C32.746 8.39746 32.6752 8.10824 33.3103 9.60888L31.7857 9.62768C31.6048 9.25781 31.3465 8.8288 31.1467 8.42954Z" fill="#E19A23"/>
<path d="M29.0714 5.56251C29.514 5.54531 30.0705 5.48865 30.493 5.56202C30.9976 5.98694 31.1084 6.09963 31.3945 6.67889C30.7385 6.76678 30.4899 6.66537 30.0047 6.70406C29.6922 6.34049 29.375 5.93706 29.0714 5.56251Z" fill="#E19A23"/>
<path d="M15.8223 3.70414C23.8086 3.03542 29.7738 9.93375 30.2091 17.5349C30.6405 25.0646 25.4897 32.6061 17.6977 33.2258C16.9394 33.2488 16.0019 33.2803 15.2514 33.1772C8.54171 32.2317 3.74543 26.2328 3.22237 19.6176C2.61439 11.9288 7.85725 4.29301 15.8223 3.70414Z" fill="#F6F1E5"/>
<path d="M16.1965 5.80643C18.9165 5.64726 21.6362 6.60768 23.7316 8.38559C31.0479 14.593 29.0776 27.6544 19.7538 30.6836C18.8925 30.9635 18.2749 31.0382 17.3797 31.1258C14.5615 31.2745 11.8354 30.239 9.71114 28.3928C7.10421 26.1024 5.5183 22.8583 5.30768 19.3844C4.83632 12.6919 9.24345 6.28389 16.1965 5.80643Z" fill="#FDCE45"/>
<path d="M16.0817 10.0755C17.076 10.0286 17.4027 11.2708 17.6928 11.9992C17.9921 12.7639 18.3012 13.5248 18.6199 14.2817C19.3928 14.3595 20.1782 14.3922 20.9569 14.4654C21.5808 14.524 22.6159 14.461 23.1085 14.8898C23.5732 15.2941 23.7068 16.0971 23.3679 16.6285C23.0612 17.1093 22.6155 17.514 22.2139 17.9267C21.6838 18.4648 21.1606 19.0097 20.6448 19.5614C21.0355 20.7653 21.2853 22.3834 21.5107 23.6271C21.6311 24.2912 20.524 25.3111 19.7921 24.9856C18.7097 24.5037 17.597 23.7898 16.5879 23.1853L16.1934 22.965C15.2757 23.4644 14.3086 24.1915 13.3681 24.6945C12.9858 24.879 12.7386 25.0643 12.2935 24.9409C10.4501 24.4286 11.4265 22.3834 11.539 21.0743C11.5708 20.7042 11.7158 19.8968 11.8162 19.574C11.1123 18.889 10.4512 18.1233 9.75124 17.4371C9.15216 16.8498 8.72743 16.0075 9.3303 15.237C9.46909 15.0608 9.65601 14.9292 9.86815 14.8582C10.1734 14.7565 10.8353 14.6801 11.1719 14.6431C12.0105 14.551 12.8489 14.4668 13.6881 14.3723C14.1754 13.309 14.584 12.083 15.0493 10.9991C15.2958 10.4247 15.5278 10.2867 16.0817 10.0755Z" fill="var(--fill-0, #F4AA1B)"/>
</g>
</svg>
