<svg preserveAspectRatio="none" width="100%" height="100%" overflow="visible" style="display: block;" viewBox="0 0 40 27" fill="none" xmlns="http://www.w3.org/2000/svg">
<g id="&#233;&#177;&#188;&#233;&#162;&#157;">
<path d="M16.0579 2.66882C19.447 -3.19444 27.0182 1.67985 27.8899 6.96379C28.8275 7.80627 29.7379 8.69036 30.6186 9.61456C32.3887 7.3415 36.828 2.13991 39.0977 6.28067C40.9713 9.1116 39.3935 12.3936 39.0955 15.3772C38.8632 17.7016 40.6958 21.9465 37.2655 22.6194C34.7866 22.3965 33.2833 20.9604 31.7186 18.8132C31.5679 18.6101 31.4235 18.4003 31.2858 18.1846C29.486 20.279 26.9074 22.0695 25.8824 23.2922C26.7158 29.149 21.9976 26.3837 19.4416 26.0813C19.3088 26.1212 19.0751 26.1883 18.94 26.204C13.4329 26.8165 7.15559 26.1045 2.60136 22.0568C-1.14111 18.7306 -0.498236 12.8601 2.33259 9.0271C6.11718 3.9023 10.6266 3.1677 16.0579 2.66882Z" fill="var(--fill-0, #53443D)"/>
<path d="M19.4421 26.0848C18.4162 25.3891 16.8887 25.19 17.0809 23.4748C18.0784 21.6766 21.5439 19.917 23.3387 20.2447C24.3867 20.4363 25.3409 22.3072 25.883 23.2957C26.7163 29.1525 21.9981 26.3873 19.4421 26.0848Z" fill="#FDC955"/>
<path d="M39.0975 6.27946C40.9711 9.11039 39.3933 12.3924 39.0953 15.376C38.863 17.7003 40.6956 21.9453 37.2653 22.6182C37.4748 21.9824 37.8544 21.0853 38.1046 20.442C37.844 16.9031 36.9237 16.3999 35.8639 13.3505C37.2951 10.2806 37.8856 10.1182 39.0975 6.27946Z" fill="#FDC955"/>
<path d="M16.0579 2.66882C19.447 -3.19444 27.0182 1.67985 27.8899 6.96379C22.6285 4.2163 22.3601 3.22733 16.0579 2.66882Z" fill="#FDC955"/>
<path d="M6.68207 10.7925C7.83088 10.3254 9.10428 10.6374 10.0009 11.606C10.8974 12.5746 11.2739 14.0445 10.982 15.4377C10.6902 16.8308 9.77694 17.924 8.60142 18.2871C7.579 18.603 6.49029 18.3246 5.66999 17.5375C4.84988 16.7504 4.39623 15.5488 4.4489 14.3021C4.51609 12.7033 5.4005 11.3137 6.68207 10.7925Z" fill="#FDC955"/>
<path d="M7.58456 12.7512C8.12537 12.6916 8.65002 12.9875 8.95075 13.5218C9.25131 14.0559 9.27928 14.742 9.02322 15.3078C8.76734 15.8734 8.26884 16.2275 7.72584 16.229C6.93678 16.2316 6.28574 15.5006 6.24796 14.57C6.21019 13.6391 6.79894 12.838 7.58456 12.7512Z" fill="var(--fill-0, #53443D)"/>
</g>
</svg>
