<svg width="60" height="60" viewBox="0 0 60 60" fill="none" xmlns="http://www.w3.org/2000/svg">
<path d="M24.462 0.472011C25.4206 0.363186 26.7453 0.12967 27.6496 0.0645245C30.3488 -0.130072 35.3012 0.0938309 37.8266 1.03368C38.3868 1.17209 38.8382 1.27998 39.3824 1.4771C40.6609 1.96597 41.9959 2.4932 43.2281 3.0923L44.0966 3.52975C44.3328 3.67087 44.7377 3.92846 44.9742 4.02674C45.4038 4.29675 46.039 4.72206 46.4698 4.9525C46.7322 5.19871 47.0559 5.43035 47.355 5.63195C48.6697 6.51823 49.8045 7.54059 50.9386 8.6461C56.2958 13.8982 59.5064 20.9622 59.9435 28.4587C60.4358 36.3932 57.6942 44.1883 52.3459 50.061C50.6449 51.9494 49.0016 53.3208 46.935 54.7673C45.6681 55.5787 44.5988 56.1859 43.281 56.9107C38.2036 59.3379 33.2465 60.3507 27.6015 59.8929C26.5393 59.8068 25.4677 59.7319 24.4244 59.5074L22.3178 59.048C21.8496 58.9178 21.2538 58.7039 20.7815 58.5488C19.4528 58.0893 18.1448 57.5719 16.861 56.9983L16.0878 56.5954L15.1359 56.0609C14.6017 55.7803 13.7004 55.1751 13.1598 54.8365C9.34628 52.0462 8.01336 50.7102 5.14835 46.9334C4.34011 45.7571 3.73439 44.6713 3.07371 43.4171L3.03551 43.3422C-0.559018 36.2217 -0.869797 27.9558 1.61978 20.4385C2.05846 19.1971 2.57522 17.9849 3.16715 16.8091C4.39852 14.4826 5.23769 13.1756 6.83416 11.0872C8.85812 8.68082 10.4232 7.22615 12.9786 5.39517C14.199 4.51216 15.498 3.85697 16.7897 3.08474C19.8532 1.64389 21.2128 1.24106 24.462 0.472011Z" fill="#FD5F5A"/>
<path d="M23.9516 48.6133C22.7836 47.231 21.7179 45.734 21.6109 43.8521C21.5199 42.1744 22.1067 40.5306 23.2389 39.291C24.1883 38.2335 25.928 37.3323 27.3134 37.2672L27.354 37.2655C27.3371 37.2201 27.2852 37.0296 27.2575 37.0062C27.1032 36.8759 26.7322 36.8058 26.5361 36.7063C26.0608 36.4653 25.5865 35.5467 25.3566 35.0648C23.9396 32.0942 26.2871 16.9204 27.495 13.5114C28.0848 11.8468 29.0232 10.4601 30.6568 9.68999C32.4216 8.85813 34.624 8.89434 36.4374 9.55401C38.2284 10.2056 39.3826 11.5522 40.171 13.2562C40.9684 13.9905 41.29 15.1465 41.338 16.2081C41.4906 19.5885 37.0113 33.1239 35.3119 36.4182C35.0647 36.8972 34.7787 37.3111 34.4132 37.7065C33.7647 38.4084 33.0532 38.7935 32.1139 38.9342C32.0454 38.9445 32.0648 38.9432 31.9835 38.9764C32.8151 39.9295 33.2152 40.6117 33.782 41.7559C34.6481 42.9335 34.8636 44.3299 34.6447 45.7526C34.3975 47.3888 33.5021 48.8559 32.1611 49.8222C30.8431 50.7763 29.1973 51.1588 27.5946 50.8836C26.2884 50.6674 24.8635 49.9673 24.0952 48.867C24.0391 48.7874 23.9911 48.7024 23.9516 48.6133Z" fill="#A93B16"/>
<path d="M32.3798 10.6848C32.4161 10.6816 32.4525 10.6787 32.489 10.6761C34.2608 10.5491 35.8149 10.6374 37.2663 11.8363C38.0146 12.4542 38.7396 13.8853 38.7552 14.7823C38.8129 18.0974 33.9443 33.4906 32.2349 35.4093C32.0418 35.6007 31.7881 35.7792 31.5381 35.8873C30.5193 36.3277 28.9443 36.0456 27.9461 35.6204C27.3686 35.3744 26.9727 34.9493 26.7526 34.3616C25.6508 31.4184 27.882 16.303 29.3066 13.2522C29.9775 11.8155 30.9368 11.2113 32.3798 10.6848Z" fill="white"/>
<path d="M26.966 38.989C29.4501 38.5638 31.8068 40.2405 32.2246 42.7304C32.6424 45.2203 30.9625 47.5768 28.4761 47.9886C25.9991 48.399 23.6578 46.7237 23.2416 44.2432C22.8254 41.7628 24.4913 39.4127 26.966 38.989Z" fill="white"/>
</svg>
