<svg preserveAspectRatio="none" width="941.822" height="941.823" viewBox="0 0 941.822 941.823" fill="none" xmlns="http://www.w3.org/2000/svg">
<path id="Union" d="M472.467 465.097L677.623 46.498L735.104 79.6846L475.156 466.661L862.137 206.715L895.323 264.196L476.713 469.354L941.822 437.725V504.098L476.714 472.466L895.322 677.626L862.136 735.107L475.16 475.162L735.105 862.14L677.625 895.326L472.465 476.717L504.099 941.823H437.725L469.354 476.714L264.193 895.327L206.713 862.14L466.652 475.167L79.6826 735.108L46.4961 677.627L465.103 472.467L0 504.099V437.725L465.102 469.354L46.4951 264.195L79.6816 206.715L466.649 466.652L206.71 79.6836L264.191 46.4961L469.351 465.105L437.725 0H504.099L472.467 465.097Z" fill="#FCF1D6"/>
</svg>
