<svg width="1200" height="166" viewBox="0 0 1200 166" fill="none" xmlns="http://www.w3.org/2000/svg">
<path d="M563.211 41.8775C580.651 40.7025 592.413 45.6541 601.656 60.9994C601.661 55.4144 601.708 49.8297 601.784 44.2453C611.074 44.2668 620.37 44.2222 629.666 44.1115C630.433 53.7123 629.859 70.9131 629.854 81.1019L629.918 154.06C620.839 153.856 611.379 154.017 602.271 154.054C602.194 148.184 602.189 142.312 602.265 136.441C601.55 137.893 599.992 140.347 599.119 141.82C598.721 142.389 598.305 142.948 597.878 143.497C583.024 162.671 551.983 159.083 534.514 145.456C522.756 136.277 515.161 122.763 513.428 107.934C509.338 74.6413 529.366 46.0204 563.211 41.8775ZM572.558 130.413C589.771 130.019 603.389 115.698 602.938 98.4626C602.487 81.228 588.142 67.6383 570.934 68.1445C553.805 68.6483 540.31 82.9337 540.757 100.089C541.205 117.244 555.426 130.804 572.558 130.413Z" fill="#FEFEFE"/>
<path d="M946.672 40.9609C978.666 39.1141 1006.14 63.5058 1008.14 95.5374C1010.14 127.569 985.917 155.199 953.941 157.359C921.743 159.534 893.92 135.072 891.905 102.818C889.89 70.5641 914.456 42.8204 946.672 40.9609ZM951.305 130.777C990.082 126.889 989.168 69.5352 950.14 67.7333C947.826 67.9063 945.501 68.0735 943.181 68.5568C918.597 73.6835 912.898 108.285 930.88 123.748C936.943 128.966 943.228 130.671 951.305 130.777Z" fill="#FEFEFE"/>
<path d="M471.707 44.2548L500.385 44.1519C501.217 50.9468 500.652 79.565 500.634 87.6926L500.645 154.003L472.667 154.059C472.571 148.543 472.565 143.026 472.65 137.511C465.98 151.791 457.326 155.777 442.14 156.36C415.139 157.491 398.307 136.684 398.579 110.948C398.808 89.2511 398.114 66.8698 398.994 45.147C398.994 45.147 399.773 44.3297 399.84 44.2601L427.615 44.1518L427.551 87.2257C427.53 104.599 423.855 130.75 448.393 131.471C454.356 131.599 460.121 129.33 464.402 125.17C471.858 118.06 471.585 108.277 471.653 98.78C471.783 80.6132 471.302 62.4166 471.707 44.2548Z" fill="#FEFEFE"/>
<path d="M703.371 41.8788C714.717 39.9808 729.266 44.8154 737.432 52.7928C753.007 68.0054 750.412 91.1815 750.388 111.122C750.324 125.39 750.347 139.658 750.453 153.925C743.014 154.44 729.594 154.009 721.693 154.019C721.306 132.152 722.419 110.084 721.23 88.2563C720.105 67.545 698.509 60.8387 682.858 72.5221C682.746 72.6276 682.635 72.7362 682.524 72.8464C673.486 82.0263 675.36 99.6856 675.378 111.856L675.471 153.999L646.869 154.053C646.688 149.08 646.67 143.686 646.782 138.692C647.467 107.462 645.757 75.4039 646.957 44.2565L674.827 44.1378C675.196 48.8143 674.892 55.1637 674.78 59.9835C681.563 47.1297 689.652 43.9781 703.371 41.8788Z" fill="#FEFEFE"/>
<path d="M1075.68 41.8747L1082.52 41.3778L1082.61 68.7351C1081.62 68.6912 1080.64 68.67 1079.65 68.6712C1071.55 68.6865 1063.42 70.7535 1057.6 76.6609C1047.57 86.8321 1049.51 103.162 1049.53 116.307L1049.61 154.009C1040.05 153.973 1030.49 153.989 1020.94 154.057L1020.9 144.004L1020.97 44.2787C1029.77 43.9926 1039.51 44.2509 1048.51 44.1009C1048.47 50.4943 1048.52 56.888 1048.66 63.28C1054.38 49.3619 1060.06 43.5159 1075.68 41.8747Z" fill="#FEFEFE"/>
<path d="M158.065 2.30057C168.313 1.74075 190.416 1.72067 200.69 2.30659C197.552 8.48242 185.651 22.5681 181.027 28.6105L139.648 82.8627C144.965 90.5064 151.056 98.4709 156.892 105.731C171.992 124.515 185.956 145.116 201.219 163.657C186.949 164.082 172.889 163.56 158.713 164.015C154.016 158.043 143.51 143.436 139.124 138.65C122.552 154.929 103.667 163.979 80.0177 163.755C58.5946 163.481 38.1294 154.819 23.0038 139.624C13.2986 129.78 6.29877 117.592 2.68359 104.241C1.647 100.391 0.903878 94.9409 0 91.8872V74.5874C4.90774 49.2391 12.431 31.0844 34.9753 15.8463C52.8636 4.00955 74.6446 -0.40355 95.721 3.53855C116.018 7.49786 124.713 14.3411 139.333 27.1072C145.735 17.547 151.157 11.2451 158.065 2.30057ZM97.0834 126.461C115.004 118.972 119.907 107.041 131.713 92.4274C134.189 89.3626 136.737 85.4642 139.589 82.8117C122.757 64.5411 113.428 37.5776 83.4865 36.2133C81.6648 36.1303 76.5436 36.1601 74.951 36.581C48.269 40.5065 30.6326 63.8472 34.6482 90.6689C36.3251 102.207 42.4939 112.613 51.807 119.612C64.1176 128.72 82.7754 133.584 97.0834 126.461Z" fill="url(#paint0_linear_840_2773)"/>
<path d="M340.559 150.555C299.617 165.578 253.12 150.682 237.466 107.902C230.021 87.9694 230.891 65.8762 239.883 46.5932C255.634 12.6338 295.407 -3.60551 330.699 6.411C387.596 22.5596 404.925 94.0258 363.056 135.305C367.912 142.445 379.651 158.959 383.203 166H351.08C347.33 160.034 344.578 156.157 340.559 150.555ZM321.584 118.812C318.103 113.62 311.847 104.747 309.237 99.6194C319.733 99.2498 330.545 99.3636 341.072 99.3595C343.225 102.552 345.349 105.765 347.442 108.998C361.581 84.8325 357.005 52.4121 332.402 36.7494C325.878 32.5956 314.286 30.3146 306.411 31.3094C244.649 35.8062 251.261 134.141 313.308 129.07C318.128 128.676 321.747 128.004 326.335 126.276C324.795 123.711 323.349 121.238 321.584 118.812Z" fill="#FEFEFE"/>
<path d="M850.581 0H878.778C879.153 21.2614 878.831 43.5084 878.837 64.8344L878.761 154.06C869.898 153.83 860.427 154.018 851.518 154.056C851.36 147.9 851.207 142.434 851.553 136.258C848.343 142.369 841.993 150.157 835.697 152.816C810.217 163.568 780.221 151.455 768.201 126.867C760.428 110.967 760.024 95.9328 765.067 79.802C773.754 52.0404 803.434 35.4845 831.315 44.0044C839.709 46.5436 846.662 53.1938 850.616 61.0786L850.581 0ZM822.078 130.397C839.205 129.725 852.56 115.305 851.945 98.1523C851.33 80.9998 836.974 67.5784 819.841 68.1404C802.637 68.7052 789.159 83.1613 789.78 100.392C790.395 117.622 804.875 131.071 822.078 130.397Z" fill="#FEFEFE"/>
<path d="M1171.99 136.836C1160.67 153.987 1149.39 158.568 1129.46 156.063C1097.58 152.055 1079.19 121.781 1082.78 91.4584C1084.67 76.3676 1092.37 62.6096 1104.22 53.1022C1115.57 44.1667 1130.24 40.656 1144.46 42.4309C1159.37 44.2923 1163.32 50.3092 1171.47 60.7361C1171.42 55.271 1171.46 49.8056 1171.62 44.3427C1179.78 43.8898 1191.2 44.2211 1199.61 44.2089V153.875C1191.44 154.31 1180.36 154.039 1172.04 154.071L1171.99 136.836ZM1143.06 130.389C1160.11 129.504 1173.26 115.03 1172.52 97.9547C1171.8 80.879 1157.46 67.582 1140.4 68.1574C1123.13 68.7404 1109.64 83.3209 1110.38 100.617C1111.11 117.913 1125.8 131.286 1143.06 130.389Z" fill="#FEFEFE"/>
<defs>
<linearGradient id="paint0_linear_840_2773" x1="100.609" y1="1.8739" x2="100.609" y2="164.015" gradientUnits="userSpaceOnUse">
<stop stop-color="#DA9102"/>
<stop offset="1" stop-color="#DC4B00"/>
</linearGradient>
</defs>
</svg>
