<svg width="52" height="52" viewBox="0 0 52 52" fill="none" xmlns="http://www.w3.org/2000/svg">
<path d="M22.6658 0.0637805C24.5408 -0.0416644 26.8747 0.0148079 28.7798 0.0174869C29.9259 0.0189871 30.534 0.496276 31.2221 1.31358C31.5439 3.00424 31.7123 5.26005 32.1293 6.78289C36.8323 9.55886 36.3902 6.21248 40.5143 4.96633C41.5943 5.33271 41.9415 5.69491 42.7286 6.4372C48.2864 11.6786 47.5775 11.1652 43.8535 16.7783C44.0363 17.3179 44.8583 19.4194 45.2059 19.6983C47.1975 21.1613 51.6565 19.1526 51.8987 22.9014C51.9508 23.7085 51.9171 24.5774 51.9504 25.3381C52.2346 31.8599 51.455 31.5301 45.439 32.0205C44.7512 32.9797 44.3109 34.1312 43.8752 35.2248C46.1549 40.0711 49.2634 39.367 43.7805 44.6373C39.2924 48.9513 40.0766 46.6746 35.1543 43.891C34.2001 44.2491 33.0001 44.7956 32.1183 45.2965C31.4311 47.5351 32.1658 51.5711 29.261 51.9674C27.7098 51.9763 23.2134 52.0879 21.9071 51.8391C21.871 51.8165 21.8354 51.7931 21.8003 51.7689C20.0987 50.5874 20.3146 47.4985 19.8755 45.2772C18.9113 44.7541 17.8915 44.3288 16.8861 43.8903C15.4577 44.6409 12.1598 47.711 10.8502 46.8511C9.25792 45.8057 6.10229 42.8239 5.2585 41.0933C4.62925 39.8027 7.45612 36.6189 8.14583 35.2113C7.89453 34.5316 6.93291 32.2138 6.49215 32.1027C4.2192 31.5305 -0.127248 32.3169 0.0336255 28.602C0.109706 26.8467 -0.211083 23.5984 0.279825 21.8556C0.820462 19.9366 4.88714 20.5744 6.30365 20.0394C7.21417 19.6878 7.81601 17.6944 8.15529 16.8019C4.56518 11.4674 3.67166 11.9511 8.61411 7.1018C9.66064 6.075 10.0763 5.46526 11.527 4.97694C13.4156 5.56546 14.8879 7.10137 16.6928 8.08188L16.7655 8.06849C22.2694 7.00257 19.1634 3.6338 21.0004 0.995853C21.4115 0.405619 21.9852 0.184656 22.6658 0.0637805Z" fill="#53443E"/>
<path d="M25.0256 14.3385C31.4435 13.7958 37.074 18.6222 37.5774 25.0973C38.0806 31.5725 33.2645 37.2248 26.8413 37.6972C20.467 38.1661 14.9144 33.3541 14.415 26.9284C13.9155 20.5026 18.6568 14.877 25.0256 14.3385Z" fill="#F5F0E6"/>
<path d="M25.4021 20.2533C28.5649 19.9278 31.3969 22.2338 31.7478 25.4205C32.0988 28.6071 29.8377 31.4837 26.6811 31.8661C23.4843 32.2535 20.5877 29.9377 20.2322 26.7105C19.8768 23.4833 22.1988 20.5828 25.4021 20.2533Z" fill="#53443E"/>
</svg>
