<svg width="200" height="164" viewBox="0 0 200 164" fill="none" xmlns="http://www.w3.org/2000/svg">
<path d="M64.8225 0.177278C76.7333 -0.841042 88.6038 2.5526 98.1886 9.71567C102.621 8.12079 108.171 7.53677 112.857 7.88979C124.658 8.77879 135.42 15.7666 140.681 26.4376C142.915 30.9681 143.25 36.5531 148.816 37.785C151.922 38.5103 152.634 41.5406 154.222 43.8485C154.851 44.7617 155.52 45.5913 156.242 46.4547C156.058 49.122 154.457 55.4728 157.687 56.9379C160.167 58.0621 164.822 56.1193 167.308 55.1912L167.449 55.2366C173.644 57.2652 175.528 59.8611 178.459 65.3454C186.476 80.348 187.259 100.882 182.032 116.921C177.205 116.343 172.28 116.052 167.423 115.515C163.076 115.015 158.723 114.576 154.364 114.198C150.174 113.825 143.253 112.176 141.524 117.267C140.731 119.605 141.371 121.12 142.362 123.17C137.457 127.98 138.273 132.233 140.891 138.143C141.286 139.033 142.494 140.433 142.581 141.323C143.006 145.658 143.016 150.872 142.957 155.197C138.764 155.189 135.203 154.647 131.641 152.286C130.462 151.505 127.495 149.02 126.163 149.459C124.494 150.034 123.085 151.355 121.592 152.311C113.511 157.483 101.222 156.968 93.2596 151.766C92.1046 151.011 89.6041 148.647 88.2631 149.031C86.5897 149.512 84.8538 151.2 83.2735 152.023C77.3636 155.358 70.2723 155.206 64.4698 151.709C62.6617 150.619 61.018 149.122 59.1375 148.008C57.1105 149.064 55.1531 150.487 52.9503 151.362C48.7652 153.025 42.8958 153.185 38.6532 151.694C36.5996 150.973 34.7868 148.312 34.0147 146.314C34.1585 145.322 34.3235 144.482 34.5277 143.505C35.5897 142.385 37.259 141.9 38.4416 140.529C42.7788 135.498 37.7061 132.976 33.5371 130.73C33.0905 128.831 32.7248 126.685 31.4701 125.154C28.7331 121.815 26.2311 123.668 23.6806 125.769C23.0788 126.399 22.4466 127.194 21.6428 127.441C21.3124 127.395 21.0293 127.401 20.8078 127.093C18.987 124.559 17.1839 117.085 16.7137 114.215C16.4258 112.395 16.2556 110.559 16.2054 108.717C17.1011 107.811 18.2082 107.055 19.1556 106.17C21.3811 104.094 22.885 98.735 20.5794 96.2831C19.3762 95.0034 18.1077 95.0087 16.4791 94.9961C16.5889 91.0389 19.1576 89.018 19.8311 84.4506C20.7112 81.3349 18.7183 77.3108 19.483 74.4433C22.4636 63.2684 33.0573 53.5732 41.9637 47.6901C40.6214 45.7315 39.8669 43.1408 40.0455 40.7502C40.8433 30.0783 57.1833 28.2543 57.8288 18.1931C57.994 15.356 57.0561 12.5649 55.2121 10.4068C52.413 12.18 48.0807 13.7323 44.9063 15.6692C31.7094 23.7216 23.1866 34.6809 17.8714 49.127C16.5356 52.7573 15.302 56.5662 13.8985 60.2068C16.5282 64.4301 14.7183 65.8741 11.3661 68.1515C10.6501 68.6377 10.9536 71.1967 11.015 72.0777C15.4756 73.6769 16.8808 76.8277 17.4038 81.2924C17.479 81.936 17.4761 82.1724 17.1101 82.687C16.1898 83.077 15.0981 83.1789 14.1078 83.3274C8.43877 84.1766 5.14277 83.0919 0 81.3447C1.35297 75.7647 2.68422 73.6078 8.19893 71.4719C8.09516 69.9922 8.01362 69.2078 8.20506 67.7494C7.58186 67.4265 6.91089 67.0799 6.42559 66.5508C4.71485 64.6857 4.49832 60.5663 7.25284 59.5326C8.5322 59.0525 9.39729 59.6265 10.5504 60.1553C12.987 57.0982 13.3209 54.5449 14.7219 50.9575C15.8539 48.0329 17.075 45.1436 18.382 42.2932C17.6407 41.7934 16.5468 40.8126 15.8251 40.1982C15.2602 41.8399 14.2902 44.0079 13.6547 45.7666C12.7184 48.3569 11.6204 53.5229 10.3541 55.604C9.03623 56.3759 7.14696 55.4835 6.10741 54.6023C3.56962 52.4502 5.70518 47.8414 6.65713 45.3215C9.70504 37.2533 14.2168 29.7283 19.8372 23.1995C31.2007 9.85527 47.379 1.57551 64.8225 0.177278ZM109.96 118.189C108.872 108.839 100.433 102.142 91.1083 103.227C81.775 104.313 75.0891 112.782 76.1778 122.141C77.2666 131.499 85.7178 138.198 95.0498 137.1C104.373 136.004 111.047 127.539 109.96 118.189ZM118.352 21.595C115.648 20.3129 110.237 19.1739 107.391 19.8583C101.728 20.6151 96.7841 23.3615 93.2841 27.9383C83.2529 41.0562 82.5976 74.2279 84.7524 90.278C84.9773 91.9535 85.2278 94.9422 86.6492 96.0517C86.9179 96.2612 87.2029 96.4511 87.4887 96.6359C90.4664 96.3055 93.2851 95.8557 96.2642 96.4514C97.9329 96.7851 99.6902 97.6042 101.363 97.6915C102.651 97.7585 103.743 95.7226 104.214 94.7393C107.786 87.2954 110.261 81.5201 114.567 74.3633C120.761 64.069 128.223 58.2186 130.084 45.9719C130.768 41.7094 130.371 37.3433 128.935 33.2737C127.1 28.1221 123.292 23.9176 118.352 21.595ZM7.67452 62.0257C7.20505 65.653 9.42555 66.4406 12.2999 64.7296C12.5887 64.1064 12.8008 63.7705 12.7714 63.0844C12.5485 62.789 12.4721 62.6443 11.9848 62.6377C9.62039 62.6058 9.86795 62.8108 7.67452 62.0257ZM86.4322 7.22786C81.6197 5.53445 73.0739 3.97147 68.1138 4.46636C64.7349 4.64964 58.915 5.43522 55.6774 6.48367C57.3139 10.5181 60.0078 12.3684 60.0215 17.2091C60.0468 26.1807 51.7541 28.9455 46.0762 34.1371C42.6008 37.3148 40.1564 42.3384 44.0346 46.4839C49.1337 43.8404 52.9535 42.2402 58.4735 40.5473C65.1712 38.7333 72.6471 38.9674 76.2039 32.3504C77.1735 30.5467 78.0189 28.6823 78.9839 26.892C81.5229 22.0845 85.0886 17.8979 89.4269 14.6313C91.2618 13.2575 93.087 12.3242 94.7814 11.1164C92.3086 9.7712 89.0654 8.15444 86.4322 7.22786ZM26.4683 24.0013C22.7748 28.6579 19.9634 31.7542 17.3516 37.3706C17.8059 37.848 19.2973 39.5518 19.7 39.7892C23.2363 34.0235 24.534 31.6253 28.7844 26.0433C28.3082 25.6585 26.696 24.1584 26.4683 24.0013ZM39.656 13.0999C38.2221 14.2538 36.4349 15.3575 34.911 16.4649C32.5125 18.2076 30.7106 19.8419 28.6066 21.8749C29.027 22.5091 30.0786 23.8689 30.6889 24.3165C31.1726 23.9087 31.6589 23.4994 32.1203 23.0657C35.0694 20.2936 38.3596 17.8922 41.5674 15.4378C41.1134 14.7613 40.317 13.3183 39.656 13.0999ZM53.2417 7.2886C52.9389 7.21018 52.8571 7.16664 52.5448 7.23324C50.5232 8.14245 48.4154 8.89095 46.3683 9.75411C44.9491 10.3526 43.614 11.1011 42.2351 11.7284C42.6376 12.4681 43.3153 14.0412 44.0077 14.31C46.0308 12.4922 48.2623 11.6927 50.6687 10.4668C51.3812 10.1039 53.4263 9.35303 53.8895 8.88461C53.6916 8.1374 53.6091 7.97336 53.2417 7.2886Z" fill="#725D42" fill-opacity="0.38"/>
<path d="M157.92 137.061C158.485 136.889 159.096 137.035 159.523 137.443C159.948 137.85 160.121 138.456 159.977 139.029C159.83 139.601 159.389 140.05 158.821 140.203C157.961 140.436 157.075 139.934 156.829 139.076C156.584 138.218 157.07 137.321 157.92 137.061Z" fill="#725D42" fill-opacity="0.38"/>
<path d="M28.0799 151C28.6018 151.1 32.2555 153.156 33.1371 153.567C34.914 154.395 36.3206 154.935 38.3237 155.374C43.4232 156.494 49.4676 156.553 54.3975 154.673C55.9949 154.064 57.619 153.013 59.0637 152.111C67.3066 160.1 79.7996 159.586 88.591 152.777C90.72 154.534 94.1029 156.614 96.7157 157.527C105.984 160.765 119.137 160.074 126.576 153.04C132.185 158.512 141.756 160.034 148.991 157.455C150.284 156.995 151.914 156.022 153.139 155.341C155.338 157.366 158.316 158.474 161.099 159.347C162.609 159.731 166.155 160.156 167.044 161.188C167.285 162.581 164.972 162.769 163.984 162.896C160.985 163.283 158.416 162.63 155.569 161.86C155.418 161.819 155.268 161.78 155.117 161.741C154.961 161.701 154.806 161.663 154.649 161.626C154.515 161.595 154.381 161.565 154.247 161.537C151.183 160.89 149.404 162.37 146.503 162.846C142.548 163.496 138.214 163.402 134.259 162.662C131.801 162.202 128.828 160.753 126.372 160.82C124.341 160.876 121.643 162.29 119.627 162.746C115.45 164.092 111.352 164.001 107.083 163.997C101.166 163.991 96.5799 161.763 91.0386 160.598C89.3887 160.251 84.8386 161.168 83.0803 161.559C76.8154 162.952 70.8398 162.97 64.6513 161.102C63.0802 160.63 60.8835 160.052 59.2639 159.925C57.8695 159.816 55.8823 160.384 54.453 160.483C45.6101 161.258 35.2988 159.396 28.0677 153.973C27.5114 153.556 27.2485 153.215 27.1713 152.532C27.2567 151.857 27.6347 151.521 28.0799 151Z" fill="#725D42" fill-opacity="0.38"/>
<path d="M167.338 29.0907C167.651 29.1007 167.962 29.1548 168.26 29.2515C170.02 29.8228 172.417 34.7112 173.239 36.3842C177.928 37.0142 185.417 37.3404 179.393 43.6404C178.437 44.6399 177.544 45.5898 176.492 46.5091C177.235 48.8738 177.573 51.3477 177.489 53.8254C175.073 57.2935 171.529 54.4174 168.667 52.8456C165.438 51.1181 155.99 61.2191 158.489 49.1568C158.716 48.0607 158.857 46.6655 158.978 45.545C157.571 44.3825 154.987 41.7361 154.635 39.9657C154.026 36.8956 160.355 36.6379 162.283 36.3735C163.307 34.1634 165.341 30.4692 167.338 29.0907Z" fill="#725D42" fill-opacity="0.38"/>
<path d="M27.8491 125.81C30.3359 126.119 30.7953 130.779 31.3523 132.861C39.6666 136.373 39.0046 137.4 31.9341 141.858C31.3586 148.654 30.8691 151.562 24.6757 145.917C24.4783 145.725 24.2338 145.486 23.9419 145.2C21.9876 144.506 18.5411 146.658 16.7051 145.732C14.518 144.63 17.4132 139.143 18.0309 137.745C14.2931 132.773 13.3937 129.173 20.9767 130.236C21.5721 130.319 22.3752 130.343 22.9971 130.392C24.5823 128.455 25.6915 127.087 27.8491 125.81Z" fill="#725D42" fill-opacity="0.38"/>
<path d="M145.809 116.006C148.379 115.792 185.295 119.431 186.29 119.908C187.467 120.472 187.769 121.69 188.144 122.831C187.672 124.493 187.556 125.306 185.866 126.02C185.054 126.055 184.209 126.019 183.396 125.958C171.911 125.09 160.471 123.767 149.005 122.702C147.599 122.571 145.078 122.393 144.19 121.184C142.695 119.148 144.251 117.321 145.809 116.006Z" fill="#725D42" fill-opacity="0.38"/>
<path d="M0.14107 83.2455C4.97643 84.7835 9.93149 85.9818 14.9684 84.7286C15.483 84.6006 16.2358 84.4995 16.744 84.611L16.9282 84.9671C16.9021 85.6304 16.142 87.3299 15.8154 88.0617C14.645 90.6859 12.463 91.7868 9.99097 92.7593C8.57169 96.0196 4.16792 107.224 12.6037 103.451C13.9115 102.866 12.9221 101.185 13.1993 100.183C13.4121 99.4138 14.493 98.9457 15.164 98.5645C16.1568 98.1495 18.405 97.0536 18.9743 98.7345C19.4516 100.143 18.6774 102.572 17.9788 103.837C17.856 104.059 16.9477 104.123 16.7538 104.341C14.4096 106.658 11.6453 109.051 8.11849 107.622C6.51433 106.973 5.16722 106.072 4.43945 104.423C2.96748 101.088 4.89801 95.74 6.16009 92.4724C2.26989 90.7379 0.702528 87.2314 0.14107 83.2455Z" fill="#725D42" fill-opacity="0.38"/>
<path d="M193.651 53.7692C195.525 54.111 195.557 57.1648 195.795 58.7635C197.751 59.7493 198.442 60.1937 200 61.7236C198.564 63.4164 197.656 63.9978 195.695 64.8834C195.422 66.219 195.413 69.0181 194.173 69.6511C192.656 69.5284 192.01 68.6038 190.836 67.63C188.758 65.3524 185.704 68.4033 184.614 66.332C184.496 64.7586 185.639 62.9222 186.322 61.4331C184.226 56.4669 184.182 55.6811 189.853 56.6168C190.713 56.1774 192.758 54.4621 193.651 53.7692Z" fill="#725D42" fill-opacity="0.38"/>
<path fill-rule="evenodd" clip-rule="evenodd" d="M151.099 124.998C148.944 124.785 146.399 124.534 145.031 124.578C144.959 124.622 144.873 124.675 144.778 124.733C144.279 125.039 143.53 125.498 143.246 125.795C139.491 129.703 142.256 136.252 145.162 139.593C145.307 141.615 145.326 144.012 145.345 146.413C145.369 149.487 145.393 152.568 145.682 154.879C147.623 154.346 148.841 153.644 150.017 152.966C150.956 152.426 151.867 151.9 153.098 151.488L153.173 151.518C154.197 151.932 155.155 152.574 156.072 153.19C156.85 153.712 157.6 154.215 158.337 154.543C164.454 157.258 171.794 158.393 178.064 155.726C178.682 155.465 179.28 155.163 179.857 154.823L180.418 152.748L181.033 149.631C182.984 149.036 184.851 148.419 186.421 147.082C192.785 141.658 192.224 133.47 186.519 127.989C183.589 128.092 180.905 127.857 178.12 127.613C177.204 127.532 176.277 127.451 175.328 127.381C171.716 127.113 168.116 126.711 164.518 126.309C160.897 125.905 157.277 125.501 153.648 125.233C152.977 125.184 152.079 125.095 151.099 124.998ZM162.684 146.242C153.735 147.38 148.637 134.637 160.078 133.429C164.664 133.186 167.092 136.856 169.135 140.284C170.647 139.633 175.166 137.873 174.639 141.19C174.225 143.794 172.787 150.779 169.371 145.956C168.973 145.556 168.569 145.006 168.206 144.512L168.205 144.511C168.131 144.41 168.059 144.311 167.988 144.216C167.778 144.318 167.564 144.423 167.347 144.529C165.873 145.254 164.274 146.04 162.684 146.242ZM184.019 136.623C184.403 134.688 184.802 132.681 185.317 131.075C187.578 132.218 188.252 136.945 187.759 139.307C187.142 142.274 186 143.727 183.576 145.39C183.543 145.415 183.511 145.44 183.478 145.466C183.445 145.492 183.412 145.518 183.379 145.544C182.942 145.89 182.538 146.208 181.992 145.928C182.064 144.939 182.621 142.722 183.036 141.069L183.036 141.068L183.037 141.067C183.159 140.581 183.269 140.143 183.35 139.8C183.581 138.826 183.798 137.736 184.019 136.623ZM145.138 134.181C145.404 133.51 145.254 129.337 145.175 128.416L144.715 128.203C143.561 129.679 144.177 132.754 145.138 134.181Z" fill="#725D42" fill-opacity="0.38"/>
</svg>
