<svg preserveAspectRatio="none" width="100%" height="100%" overflow="visible" style="display: block;" viewBox="0 0 24 25" fill="none" xmlns="http://www.w3.org/2000/svg">
<g id="&#228;&#189;&#153;&#233;&#162;&#157;">
<path d="M13.4819 24.8283C13.2544 24.8891 12.9154 24.903 12.6748 24.9314C8.6353 25.4059 4.78658 23.3786 2.42828 20.0722C0.366068 17.1809 -0.360155 13.7454 0.164027 10.2155C0.626506 6.99318 2.32486 4.0894 4.88641 2.14136C7.49082 0.189822 10.3982 -0.315481 13.5572 0.174935C13.9411 0.202972 14.3255 0.287189 14.703 0.36491C17.1514 0.860797 19.3675 2.17416 21.001 4.09729C24.18 7.82467 24.8425 13.3638 22.9367 17.8322C22.2513 19.4389 21.2191 20.9731 19.9102 22.1117C18.111 23.6997 15.8562 24.6529 13.4819 24.8283Z" fill="#FDCE45"/>
<path d="M13.5572 0.174935C13.9411 0.202972 14.3255 0.287189 14.703 0.36491C17.1514 0.860797 19.3675 2.17416 21.001 4.09729C24.18 7.82467 24.8425 13.3638 22.9367 17.8322C22.2513 19.4389 21.2191 20.9731 19.9102 22.1117C18.111 23.6997 15.8562 24.6529 13.4819 24.8283C13.5818 24.7329 14.6921 24.4149 14.9771 24.3089C16.6847 23.6748 18.6429 22.1998 19.7065 20.7038C19.929 20.4152 20.1129 20.1591 20.3251 19.8634C20.5538 19.4902 20.7735 19.111 20.9839 18.7267C21.122 18.4713 21.2475 18.1836 21.3696 17.9179C21.5152 17.525 21.6626 17.1715 21.8051 16.7662C21.8999 16.4905 21.9846 16.2115 22.0592 15.9293C22.1604 15.535 22.2363 15.2028 22.3003 14.8025C22.3558 14.54 22.3969 14.1839 22.4356 13.9106C22.4931 13.4519 22.4743 13.1027 22.5174 12.7021L22.5182 12.2435C22.5081 12.1937 22.4931 11.698 22.4864 11.6C22.4642 11.2669 22.4304 10.9616 22.3904 10.6296C22.3416 10.3285 22.3114 10.0664 22.2489 9.76262C22.171 9.34606 22.0718 8.95201 21.9652 8.5426C21.8702 8.28653 21.7816 7.97702 21.6993 7.71308C21.5475 7.41114 21.3262 6.83217 21.1904 6.50519C21.0699 6.25527 20.8977 5.96541 20.7645 5.69563C20.6919 5.60844 20.5275 5.33044 20.4603 5.22379C20.3127 4.98923 20.1601 4.75786 20.0031 4.52977C19.7948 4.28412 19.5834 4.01153 19.381 3.75846C17.9205 2.21296 16.3811 1.10625 14.3542 0.471331C14.1864 0.41878 13.6399 0.292344 13.5572 0.174935Z" fill="var(--fill-0, #F4AA1B)"/>
<path d="M22.4356 13.9106C22.812 13.9298 23.1354 13.9403 23.5154 13.9101C23.5002 14.2288 23.4499 14.479 23.3923 14.7914C22.9803 14.7591 22.6646 14.8186 22.3003 14.8025C22.3558 14.54 22.3969 14.1839 22.4356 13.9106Z" fill="#E19A23"/>
<path d="M22.2489 9.76262C22.6122 9.74111 22.9762 9.73608 23.3399 9.74765L23.5026 10.5969C23.1393 10.5829 22.7554 10.6104 22.3904 10.6296C22.3416 10.3285 22.3114 10.0664 22.2489 9.76262Z" fill="#E19A23"/>
<path d="M22.0592 15.9293C22.4255 15.9356 22.7921 15.9353 23.1587 15.929C23.0675 16.2104 22.9831 16.494 22.9057 16.7793C22.6317 16.778 22.0251 16.8162 21.8051 16.7662C21.8999 16.4905 21.9846 16.2115 22.0592 15.9293Z" fill="#E19A23"/>
<path d="M20.3251 19.8634C20.5745 19.9034 21.1326 19.8955 21.3993 19.895C21.2106 20.1798 21.0384 20.4807 20.7882 20.7074C20.538 20.7198 19.9239 20.7616 19.7065 20.7038C19.929 20.4152 20.1129 20.1591 20.3251 19.8634Z" fill="#E19A23"/>
<path d="M21.3696 17.9179C21.6489 17.9432 22.197 17.929 22.4751 17.8982C22.346 18.1983 22.2285 18.4821 22.0718 18.7693C21.8204 18.7593 21.1703 18.7798 20.9839 18.7267C21.122 18.4713 21.2475 18.1836 21.3696 17.9179Z" fill="#E19A23"/>
<path d="M21.6993 7.71308C22.0519 7.67894 22.432 7.68476 22.787 7.69038C22.8484 7.8796 23.0232 8.30331 22.9504 8.47595C22.8334 8.58479 22.188 8.53285 21.9652 8.5426C21.8702 8.28653 21.7816 7.97702 21.6993 7.71308Z" fill="#E19A23"/>
<path d="M22.52 11.8682C22.884 11.8411 23.2325 11.8643 23.5913 11.8531C23.5893 12.1346 23.5893 12.4161 23.5911 12.6976C23.2304 12.6916 22.8729 12.707 22.5174 12.7021L22.5182 12.2435C22.5223 12.1124 22.5238 12.0005 22.52 11.8682Z" fill="#E19A23"/>
<path d="M20.7645 5.69563C21.8307 5.67396 21.7834 5.47854 22.2068 6.49249L21.1904 6.50519C21.0699 6.25527 20.8977 5.96541 20.7645 5.69563Z" fill="#E19A23"/>
<path d="M19.381 3.75846C19.676 3.74683 20.047 3.70855 20.3287 3.75812C20.6651 4.04523 20.7389 4.12137 20.9297 4.51276C20.4924 4.57215 20.3266 4.50363 20.0031 4.52977C19.7948 4.28412 19.5834 4.01153 19.381 3.75846Z" fill="#E19A23"/>
<path d="M10.5482 2.50279C15.8724 2.05096 19.8492 6.71199 20.1394 11.8479C20.427 16.9355 16.9931 22.0312 11.7985 22.4499C11.2929 22.4654 10.6679 22.4867 10.1676 22.417C5.69448 21.7781 2.49695 17.7248 2.14825 13.2552C1.74293 8.06002 5.23817 2.90068 10.5482 2.50279Z" fill="#F6F1E5"/>
<path d="M10.7977 3.92326C12.611 3.81571 14.4241 4.46465 15.8211 5.66594C20.6986 9.86012 19.3851 18.6854 13.1692 20.7322C12.595 20.9213 12.1832 20.9718 11.5865 21.0309C9.70765 21.1314 7.89026 20.4318 6.47409 19.1843C4.73614 17.6367 3.67887 15.4448 3.53845 13.0976C3.22421 8.57559 6.1623 4.24587 10.7977 3.92326Z" fill="#FDCE45"/>
<path d="M10.7212 6.8078C11.384 6.77611 11.6018 7.61541 11.7952 8.10754C11.9948 8.62425 12.2008 9.13837 12.4133 9.6498C12.9286 9.70235 13.4521 9.72447 13.9713 9.77389C14.3872 9.8135 15.0773 9.77092 15.4057 10.0607C15.7155 10.3338 15.8045 10.8764 15.5786 11.2355C15.3742 11.5604 15.077 11.8338 14.8093 12.1127C14.4559 12.4762 14.1071 12.8444 13.7632 13.2171C14.0237 14.0306 14.1902 15.1239 14.3405 15.9643C14.4208 16.413 13.6827 17.1021 13.1947 16.8822C12.4731 16.5566 11.7314 16.0742 11.0586 15.6657L10.7956 15.5169C10.1838 15.8543 9.53908 16.3456 8.91205 16.6855C8.65719 16.8101 8.49237 16.9353 8.19564 16.8519C6.96671 16.5058 7.61768 15.1239 7.69265 14.2394C7.71385 13.9893 7.81051 13.4438 7.87745 13.2257C7.40823 12.7629 6.96749 12.2455 6.50083 11.7818C6.10144 11.385 5.81828 10.8159 6.2202 10.2953C6.31273 10.1762 6.43734 10.0873 6.57877 10.0393C6.78225 9.97062 7.22356 9.91899 7.44796 9.89398C8.00697 9.83173 8.5659 9.77489 9.1254 9.71103C9.45028 8.99258 9.72269 8.16416 10.0329 7.43183C10.1972 7.04372 10.3519 6.95046 10.7212 6.8078Z" fill="var(--fill-0, #F4AA1B)"/>
</g>
</svg>
