<svg preserveAspectRatio="none" width="100%" height="100%" overflow="visible" style="display: block;" viewBox="0 0 1297.63 105.102" fill="none" xmlns="http://www.w3.org/2000/svg">
<g id="&#230;&#160;&#135;&#233;&#162;&#152;&#230;&#160;&#143;bg">
<path d="M66.8081 14.4499C69.6966 12.6693 75.7936 10.6404 79.2192 9.67679C131.431 -5.01124 188.747 0.209092 241.978 4.73263C279.635 7.9328 317.393 10.7316 354.793 11.1416C372.072 11.3781 389.354 11.0439 406.61 10.1394C471.793 6.56064 536.403 -3.38225 601.908 4.43952C606.997 5.0474 612.38 5.57322 617.489 5.93528C634.002 7.00298 650.548 7.46027 667.094 7.3062C706.807 7.23664 745.766 1.99482 785.768 2.62531C867.277 3.90989 947.986 17.1158 1029.66 9.92854C1083.81 5.16405 1137.75 -4.16105 1191.86 5.96385C1216.97 10.6619 1243.25 20.1674 1259.78 40.6547C1261.12 42.3052 1263.82 45.758 1265.45 46.9406L1264.92 47.5662C1265.27 48.2759 1265.31 48.4859 1265.05 49.2755C1264.81 49.9873 1264.17 50.5951 1263.65 51.1292C1262.4 53.713 1261.05 55.9903 1260.81 58.9124C1259.93 62.475 1261.1 66.8752 1261.04 70.5699C1260.3 71.8779 1259.37 75.1279 1258.44 76.0028C1258.35 76.0815 1258.27 76.1564 1258.18 76.2256C1257.6 76.038 1257.39 75.7738 1257.06 75.2989C1256.21 77.539 1258.09 84.347 1258.16 87.2715C1258.43 87.9191 1258.92 88.7737 1258.78 89.4781C1259.56 91.1534 1260.94 93.5723 1260.98 95.407C1261.92 98.7348 1263.12 101.651 1263.7 105.102H1259.92H1253.61H1249.35H102.862H53.1746H51.7333H43.6466H38.8772H33.8717H30.9017H17.1985L17.1435 104.719C12.6787 105.069 7.61584 103.738 3.33576 102.555C2.68121 102.273 2.0415 101.945 1.39933 101.636C-0.534599 99.3961 0.0599864 96.4281 0.179932 93.6783C0.186019 92.9806 0.220543 92.2407 0.35624 91.5546C0.663288 90.0023 2.46825 88.4769 3.73301 87.6367C5.2479 86.6301 7.96668 85.3109 9.79228 85.6857C10.6632 85.5097 11.8358 85.4318 12.3875 84.6642C12.2107 83.1669 9.55676 79.4685 8.78615 77.1837C8.36865 73.6447 9.46906 71.3181 11.2726 68.4445C11.4571 65.0364 11.367 61.9499 10.8313 58.5919C10.0351 57.6702 9.43146 55.4641 8.79198 54.284C7.05888 49.8167 6.56806 45.1597 8.45751 40.6179C9.45544 38.2187 11.1087 36.285 13.5473 35.2967C20.0376 32.6662 20.1289 36.103 23.5734 37.545C23.732 37.6114 23.8885 37.6762 24.0521 37.7298C25.2626 37.6899 25.8363 37.1532 26.6874 36.3883C26.621 36.1083 26.576 35.8191 26.581 35.5308C26.6749 30.0575 28.0346 24.0296 32.093 20.1189C34.3353 17.9581 37.2749 16.5741 40.4269 16.6537C42.339 16.702 44.3911 17.3638 45.7285 18.7795C47.7645 20.9338 48.0957 22.9787 48.0051 25.8497L47.6763 26.7268C46.6374 29.0269 45.8358 31.2639 45.7066 33.8207C45.8238 33.7571 45.9319 33.6867 46.0428 33.6134C46.1733 33.5272 51.6977 27.0407 53.1179 25.7819C58.2353 21.2449 65.4797 18.6234 71.4948 15.4964C70.3433 15.5149 69.2659 15.6301 68.1314 15.8235C67.2288 15.4245 67.1878 15.3618 66.8081 14.4499ZM487.743 104.62C494.169 105.114 502.781 105.203 509.208 104.36C509.067 104.237 494.827 102.137 493.374 101.988C492.571 102.869 492.152 103.659 490.856 103.721C489.416 103.789 487.813 103.509 486.372 103.367L486.066 103.75L487.743 104.62ZM621.183 103.79C629.99 103.896 639.033 104.211 647.811 103.572C644.494 103.008 637.969 104.043 635.364 101.911L635.29 101.848L631.621 101.747C628.209 103.517 624.748 102.847 621.183 103.79Z" fill="#2E8BF6"/>
<path d="M493.374 101.988C494.827 102.137 509.067 104.237 509.208 104.36C502.781 105.203 494.169 105.114 487.743 104.62L486.066 103.75L486.372 103.367C487.813 103.509 489.416 103.789 490.856 103.721C492.152 103.659 492.571 102.869 493.374 101.988Z" fill="#B9DBFD" fill-opacity="0.988235"/>
<path d="M66.8081 14.4499C69.6966 12.6693 75.7936 10.6404 79.2192 9.67679C131.431 -5.01124 188.747 0.209092 241.978 4.73263C279.635 7.9328 317.393 10.7316 354.793 11.1416C372.072 11.3781 389.354 11.0439 406.61 10.1394C471.793 6.56064 536.403 -3.38225 601.908 4.43952C606.997 5.0474 612.38 5.57322 617.489 5.93528C634.002 7.00298 650.548 7.46027 667.094 7.3062C706.807 7.23664 745.766 1.99482 785.768 2.62531C867.277 3.90989 947.986 17.1158 1029.66 9.92854C1083.81 5.16405 1137.75 -4.16105 1191.86 5.96385C1216.97 10.6619 1243.25 20.1674 1259.78 40.6547C1261.12 42.3052 1263.82 45.758 1265.45 46.9406L1264.92 47.5662C1265.27 48.2759 1265.31 48.4859 1265.05 49.2755C1264.81 49.9873 1264.17 50.5951 1263.65 51.1292C1262.4 53.713 1261.05 55.9903 1260.81 58.9124C1260.81 58.883 1260.81 58.854 1260.81 58.8246C1260.81 58.7555 1260.8 58.6896 1260.81 58.6201C1260.84 57.965 1260.79 57.3257 1260.54 56.7145C1253.3 39.4087 1234.04 27.1306 1217.11 20.7884C1211.65 18.7454 1205.66 17.6524 1200.34 15.4597C1197.75 15.4696 1192.98 14.1899 1190.27 13.5551C1183.93 12.1385 1176.1 11.3429 1169.58 10.6135C1165.45 10.152 1161.26 10.1516 1157.1 9.42094C1154.28 9.49551 1150.95 9.22451 1148.08 9.07868C1113.83 7.33816 1080.27 12.4708 1046.34 15.3321C1018.82 17.7234 991.185 18.7448 963.554 18.3924C931.017 17.7902 898.501 16.2687 866.047 13.8299C828.38 11.3066 790.079 8.73608 752.283 10.5042C747.049 10.7489 741.468 12.0346 736.151 12.3567C730.156 12.5087 721.742 12.089 716.442 12.4707C704.844 13.3061 692.07 15.0353 680.427 15.2903C670.473 15.593 660.527 16.0818 650.569 15.9097C641.538 15.7537 632.329 14.7958 623.319 15.5509L628.528 16.3474C621.452 16.2427 614.392 14.8539 607.39 13.9571C597.246 12.6577 587.01 11.5672 576.837 10.5185C561.301 8.91711 545.281 9.31138 529.683 9.5618C506.392 10.0227 483.122 11.0894 459.889 12.7609C440.188 14.1634 420.549 16.1647 400.817 17.2413C382.024 18.2669 362.892 18.3765 344.076 17.8484C310.528 16.7137 277.013 14.7695 243.558 12.0176C221.653 10.3099 199.782 8.12099 177.805 7.49907C165.118 7.14004 152.481 7.52743 139.815 8.12915C134.794 8.36765 129.789 8.3385 124.776 8.7933C101.376 10.9162 69.6013 16.1153 52.1121 33.1175C50.1168 35.0571 47.0088 38.0095 45.8639 40.5226C45.24 38.1925 44.5481 36.1169 45.7066 33.8207C45.8238 33.7571 45.9319 33.6867 46.0428 33.6134C46.1733 33.5272 51.6977 27.0407 53.1179 25.7819C58.2353 21.2449 65.4797 18.6234 71.4948 15.4964C70.3433 15.5149 69.2659 15.6301 68.1314 15.8235C67.2288 15.4245 67.1878 15.3618 66.8081 14.4499Z" fill="#B9DBFD"/>
<path d="M66.8081 14.4499C69.6966 12.6693 75.7936 10.6404 79.2192 9.67679C131.431 -5.01124 188.747 0.209092 241.978 4.73263C279.635 7.9328 317.393 10.7316 354.793 11.1416C372.072 11.3781 389.354 11.0439 406.61 10.1394C471.793 6.56064 536.403 -3.38225 601.908 4.43952C606.997 5.0474 612.38 5.57322 617.489 5.93528C634.002 7.00298 650.548 7.46027 667.094 7.3062C706.807 7.23664 745.766 1.99482 785.768 2.62531C867.277 3.90989 947.986 17.1158 1029.66 9.92854C1083.81 5.16405 1137.75 -4.16105 1191.86 5.96385C1216.97 10.6619 1243.25 20.1674 1259.78 40.6547C1261.12 42.3052 1263.82 45.758 1265.45 46.9406L1264.92 47.5662C1265.27 48.2759 1265.31 48.4859 1265.05 49.2755C1264.81 49.9873 1264.17 50.5951 1263.65 51.1292C1263.45 50.658 1263.28 50.2005 1263.12 49.7127C1262.37 47.4445 1260.44 45.1274 1258.99 43.2554C1251.3 33.3431 1241.86 26.9326 1230.77 21.3294C1213.05 12.3718 1194.34 8.76825 1174.82 6.39837C1172.87 6.16165 1170.95 5.47724 1169.04 5.30011C1163.51 4.7863 1156.05 4.69611 1150.31 4.47053C1110.99 2.92618 1072.17 8.62449 1033.13 12.0056C1012.57 13.7261 991.943 14.5012 971.314 14.3284C918.62 14.3371 866.246 8.09697 813.639 6.02161C811.68 5.9443 809.784 5.44387 807.796 5.37853C778.009 4.56399 748.196 5.17191 718.462 7.2002C702.757 8.14997 687.089 10.1714 671.346 10.2059C654.784 10.3805 638.217 9.91053 621.692 8.79711C597.204 7.10318 572.812 4.32064 548.217 4.2813C518.508 4.23381 488.538 5.99983 458.928 8.34794C427.43 10.8456 396.185 13.9427 364.537 13.7692C341.511 13.5595 318.497 12.6213 295.53 10.9561C289.183 10.5463 282.797 10.4251 276.462 9.90788C225.228 5.72473 173.427 -0.700732 122.05 4.43811C113.53 5.29038 105.012 6.12583 96.6189 7.89222C87.2673 9.86038 80.367 12.5826 71.4948 15.4964C70.3433 15.5149 69.2659 15.6301 68.1314 15.8235C67.2288 15.4245 67.1878 15.3618 66.8081 14.4499Z" fill="#227FF5"/>
<path d="M1190.27 13.5551L1190.59 12.6597C1192.94 11.7428 1197.98 14.3784 1200.62 14.6344L1200.92 15.1439L1200.34 15.4597C1197.75 15.4696 1192.98 14.1899 1190.27 13.5551Z" fill="#CDE3FC"/>
<path d="M1157.1 9.42094C1158.54 7.83177 1160.37 8.32304 1162.48 8.4668L1161.95 9.26619C1159.8 9.60294 1158.76 9.22927 1157.1 9.42094Z" fill="#CDE3FC"/>
<path d="M1189.73 79.4404L1197.46 79.5199C1198.16 79.6918 1200.15 80.6375 1200.59 80.6259L1200.1 80.2922L1200.81 80.7323C1198.22 81.218 1195.32 79.5982 1192.83 80.351C1193.16 81.3513 1194.99 82.43 1195.86 83.0771C1196.78 83.1786 1199.17 82.8788 1199.76 83.3802L1197.74 84.2837L1197.55 84.8377C1201.84 87.7863 1206.74 87.0294 1211.38 88.8239C1215.79 90.5257 1220.43 92.7472 1224.45 95.2129C1227.17 96.8861 1229.77 98.8794 1232.58 100.381C1234.84 101.584 1240.09 103.448 1241.73 104.596C1228.26 104.952 1214.73 104.695 1201.26 104.692L912.31 104.657L912.683 103.37C914.794 101.375 926.579 100.789 929.982 100.079C932.558 99.5427 935.083 98.6405 937.572 97.7995C969.832 86.8936 998.046 79.0226 1032.47 84.2212C1036.09 84.7686 1040.07 84.8108 1043.6 85.7263C1061.27 90.3158 1078.63 96.9772 1096.84 99.2674C1105.27 100.328 1114.88 100.193 1123.35 99.6235L1123.92 98.821C1123.16 98.048 1122.82 97.0509 1122.42 96.0667C1124.2 97.6476 1125.86 97.9022 1128.12 98.4451C1129.42 97.6877 1130.75 96.9727 1131.89 95.9632C1131.91 95.9321 1131.94 95.9011 1131.96 95.8713C1133.37 94.2353 1135.75 93.8328 1136.78 92.0557C1137.98 92.7509 1138.86 92.8759 1140.24 92.8751L1142.69 92.4399L1143.46 92.9683C1143.62 93.8602 1143.75 94.3024 1143.22 95.1115C1143.16 95.2038 1143.07 95.2642 1142.98 95.316L1141.25 96.3139L1141.22 96.7545C1142.55 96.7259 1174.59 85.5267 1174.84 85.2808C1174.93 85.1872 1175.02 85.094 1175.1 84.9897C1174.88 84.2204 1174.63 83.4602 1174.35 82.7111L1174.92 82.4267C1175.93 82.8204 1176.11 83.7131 1176.59 84.6572C1176.8 84.7736 1177.18 85.0539 1177.4 85.1011C1178.85 85.4154 1182.06 84.6137 1183.67 84.4986C1187.96 84.1914 1192.29 84.3259 1196.59 84.3992C1194.43 82.5488 1192.1 81.0048 1189.73 79.4404Z" fill="#AACEF8"/>
<path d="M1136.78 92.0557C1137.98 92.7509 1138.86 92.8759 1140.24 92.8751L1142.69 92.4399L1143.46 92.9683C1143.62 93.8602 1143.75 94.3024 1143.22 95.1115C1143.16 95.2038 1143.07 95.2642 1142.98 95.316C1137.7 95.4945 1131.94 103.056 1126.12 100.893C1125.59 100.37 1124.56 99.0744 1123.92 98.821C1123.16 98.048 1122.82 97.0509 1122.42 96.0667C1124.2 97.6476 1125.86 97.9022 1128.12 98.4451C1129.42 97.6877 1130.75 96.9727 1131.89 95.9632C1131.91 95.9321 1131.94 95.9011 1131.96 95.8713C1133.37 94.2353 1135.75 93.8328 1136.78 92.0557Z" fill="#8ABEF8"/>
<path d="M101.313 84.4516L101.304 84.5067C100.845 87.3182 98.218 88.2987 97.2859 90.6518C97.2284 90.7967 97.1733 90.9387 97.1274 91.0878C97.8391 91.2828 97.982 91.1818 98.6615 90.9375C106.065 88.273 113.12 84.9452 120.688 82.6807C156.492 71.9801 194.664 72.1312 230.383 83.1146C239.659 85.9729 248.694 89.8046 257.843 93.0505C264.299 95.3406 271.119 97.2495 277.756 98.9608C285.527 100.965 293.72 101.777 301.592 103.422L301.849 103.875L301.409 104.657L102.752 104.677C97.0044 103.798 90.7823 105.21 85.0024 104.37L85.1307 103.947L87.1464 103.571C87.8184 100.95 99.1741 88.0155 99.4962 85.3667L99.5074 85.2665L101.313 84.4516Z" fill="#AACEF8"/>
<path d="M26.6874 36.3883C26.621 36.1083 26.576 35.8191 26.581 35.5308C26.6749 30.0575 28.0346 24.0296 32.093 20.1189C34.3353 17.9581 37.2749 16.5741 40.4269 16.6537C42.339 16.702 44.3911 17.3638 45.7285 18.7795C47.7645 20.9338 48.0957 22.9787 48.0051 25.8497L47.6763 26.7268C47.5169 25.6564 47.3662 24.5847 47.2237 23.5119L46.6523 23.7684C44.8375 31.0954 41.8571 36.3892 46.2242 43.6425C50.1097 50.0957 55.2462 55.7592 53.2194 63.9494C51.5681 70.622 46.707 75.4533 41.0016 78.8676C40.7971 78.9902 40.6219 79.0854 40.3867 79.1413C37.7205 83.1768 36.5143 85.3315 36.799 90.2614C37.2182 91.6568 37.562 93.4186 38.5545 94.5121C38.9879 94.3784 39.1698 94.4074 39.3879 93.9954C39.754 93.3035 39.9366 92.5549 40.1368 91.8029C41.8012 92.8294 41.8935 94.0173 42.7394 95.71L43.4773 95.4024L43.9717 97.4673L44.4802 97.7269C45.0102 97.2773 45.5517 96.8388 46.0275 96.3303C44.8483 99.283 43.6264 101.87 43.6466 105.102H38.8772H33.8717H30.9017H17.1985L17.1435 104.719C12.6787 105.069 7.61584 103.738 3.33576 102.555C2.68121 102.273 2.0415 101.945 1.39933 101.636C-0.534599 99.3961 0.0599864 96.4281 0.179932 93.6783C0.186019 92.9806 0.220543 92.2407 0.35624 91.5546C0.663288 90.0023 2.46825 88.4769 3.73301 87.6367C5.2479 86.6301 7.96668 85.3109 9.79228 85.6857C10.6632 85.5097 11.8358 85.4318 12.3875 84.6642C12.2107 83.1669 9.55676 79.4685 8.78615 77.1837C8.36865 73.6447 9.46906 71.3181 11.2726 68.4445C11.4571 65.0364 11.367 61.9499 10.8313 58.5919C10.0351 57.6702 9.43146 55.4641 8.79198 54.284C7.05888 49.8167 6.56806 45.1597 8.45751 40.6179C9.45544 38.2187 11.1087 36.285 13.5473 35.2967C20.0376 32.6662 20.1289 36.103 23.5734 37.545C23.732 37.6114 23.8885 37.6762 24.0521 37.7298C25.2626 37.6899 25.8363 37.1532 26.6874 36.3883Z" fill="#9AC5AC"/>
<path d="M26.6874 36.3883C26.621 36.1083 26.576 35.8191 26.581 35.5308C26.6749 30.0575 28.0346 24.0296 32.093 20.1189C34.3353 17.9581 37.2749 16.5741 40.4269 16.6537C42.339 16.702 44.3911 17.3638 45.7285 18.7795C47.7645 20.9338 48.0957 22.9787 48.0051 25.8497L47.6763 26.7268C47.5169 25.6564 47.3662 24.5847 47.2237 23.5119L46.6523 23.7684C44.8375 31.0954 41.8571 36.3892 46.2242 43.6425C50.1097 50.0957 55.2462 55.7592 53.2194 63.9494C51.5681 70.622 46.707 75.4533 41.0016 78.8676C40.7971 78.9902 40.6219 79.0854 40.3867 79.1413C40.0373 78.9475 39.7172 78.9326 39.3276 78.8871C37.9417 78.7252 36.4134 78.3877 35.5343 77.2751C35.908 75.6913 37.0961 74.7469 38.0419 73.4894C39.0351 72.5105 39.9597 71.3342 40.7184 70.1665C48.933 57.5211 41.1966 51.7929 37.7494 40.4196C37.3604 39.1364 36.7954 37.628 36.7947 36.2904C36.7941 35.0875 37.3997 33.6844 37.1508 32.5511C37.1143 32.3849 37.0803 32.221 37.0314 32.0577C36.6589 32.244 36.598 32.411 36.4056 32.7632C34.5848 36.097 35.7984 39.751 36.8008 43.1465C36.2283 47.5305 40.6435 55.7493 36.4533 59.0829C36.048 59.4054 35.4458 59.5495 34.9506 59.6725L34.3879 59.3437L34.3848 58.6336C34.2215 59.0411 34.041 59.3947 34.1679 59.8385C33.3979 60.1744 33.3101 60.4791 32.8691 61.176C33.831 58.0904 34.5326 55.4636 33.4082 52.3208C31.9736 49.0853 30.7876 45.7128 29.3978 42.4492C29.4257 42.2769 29.4421 42.1059 29.4324 41.9312C29.3718 40.8389 28.473 35.6543 27.8011 35.0752C27.4805 35.6123 27.1625 35.983 26.6874 36.3883Z" fill="#B4D4B5"/>
<path d="M39.1298 18.2727C39.6967 18.1778 40.4252 18.2171 40.9983 18.2914C41.8331 18.3996 42.8591 18.9171 43.3701 19.5817C38.7402 20.3737 37.9257 19.2082 33.4227 22.0019C32.7409 22.911 32.1457 23.7467 31.1523 24.344L30.7404 23.9731C30.9814 22.9181 31.5943 22.1637 32.3123 21.3861C34.1714 19.3728 36.4231 18.3819 39.1298 18.2727Z" fill="#D4E6D8"/>
<path d="M8.79198 54.284C7.05888 49.8167 6.56806 45.1597 8.45751 40.6179C9.45544 38.2187 11.1087 36.285 13.5473 35.2967C20.0376 32.6662 20.1289 36.103 23.5734 37.545C23.732 37.6114 23.8885 37.6762 24.0521 37.7298C25.2626 37.6899 25.8363 37.1532 26.6874 36.3883C27.1625 35.983 27.4805 35.6123 27.8011 35.0752C28.473 35.6543 29.3718 40.8389 29.4324 41.9312C29.4421 42.1059 29.4257 42.2769 29.3978 42.4492C30.7876 45.7128 31.9736 49.0853 33.4082 52.3208C34.5326 55.4636 33.831 58.0904 32.8691 61.176C32.5937 63.549 30.1242 66.5736 28.8526 68.5624C28.7618 62.6831 27.4873 59.8989 24.9897 54.6863C24.9183 54.7128 24.8477 54.7376 24.7748 54.76C22.949 55.319 20.6474 55.0146 18.9869 54.1261C17.7724 52.7928 16.5838 50.2061 14.996 49.4347C13.2747 50.1221 12.8645 51.9328 11.1977 52.7282C10.1373 52.2764 9.92325 51.6674 9.30945 50.72C9.01662 51.9245 8.84846 53.0455 8.79198 54.284Z" fill="#D4E6D8"/>
<path d="M14.1309 37.4374C15.4858 36.8033 17.5269 36.2537 18.986 36.7883C19.6894 37.046 20.4531 37.5999 20.7641 38.2976C21.0202 38.8721 21.1869 39.4995 21.3417 40.108L22.5314 40.4616C22.5854 40.6126 22.6266 40.765 22.6676 40.9202C23.6161 44.506 20.7083 50.556 24.9897 54.6863C24.9183 54.7128 24.8477 54.7376 24.7748 54.76C22.949 55.319 20.6474 55.0146 18.9869 54.1261C17.7724 52.7928 16.5838 50.2061 14.996 49.4347C13.2747 50.1221 12.8645 51.9328 11.1977 52.7282C10.1373 52.2764 9.92325 51.6674 9.30945 50.72C9.29868 47.653 8.86619 43.4854 10.2816 40.7149C10.9387 39.4284 12.7499 37.8839 14.1309 37.4374Z" fill="#B4D4B5"/>
<path d="M14.1309 37.4374C15.4858 36.8033 17.5269 36.2537 18.986 36.7883C19.6894 37.046 20.4531 37.5999 20.7641 38.2976C21.0202 38.8721 21.1869 39.4995 21.3417 40.108C19.5874 41.7099 16.4724 44.4153 14.0449 44.583C13.3278 44.6327 13.1796 44.3756 12.6694 43.9334C11.8855 40.9285 12.8304 40.0064 14.1309 37.4374Z" fill="#9AC5AC"/>
<path d="M33.4082 52.3208C33.0586 52.8984 32.7257 53.3937 32.2392 53.8653C32.1548 53.8015 32.0776 53.7349 32.0025 53.6603L31.9608 53.6185C30.6363 52.3051 31.2888 49.3893 29.6218 47.6593C28.404 47.8647 28.7068 49.4265 27.6219 50.1247C26.522 50.3665 26.4293 50.4306 25.4525 49.8837C25.0298 49.2195 24.7081 48.5964 24.6416 47.8047C24.5081 46.213 24.9459 44.9774 25.9712 43.7663L25.8395 44.3174C26.6638 43.8081 27.6577 43.3133 28.1947 42.4835C28.2055 42.4666 28.2158 42.4496 28.2264 42.4326L29.3978 42.4492C30.7876 45.7128 31.9736 49.0853 33.4082 52.3208Z" fill="#F5FAFC"/>
<path d="M9.30945 50.72C9.92325 51.6674 10.1373 52.2764 11.1977 52.7282C12.8645 51.9328 13.2747 50.1221 14.996 49.4347C16.5838 50.2061 17.7724 52.7928 18.9869 54.1261C19.1609 55.367 21.041 55.8981 21.4784 57.3494C24.8689 64.8944 22.4174 70.7277 21.4837 78.4276C21.1433 81.2354 21.3067 84.0585 21.4459 86.8749C21.397 88.26 21.3836 89.6392 21.0843 90.9977C19.9598 88.6703 16.5545 86.9176 14.4204 85.4998C12.8637 85.711 11.3607 85.7196 9.79228 85.6857C10.6632 85.5097 11.8358 85.4318 12.3875 84.6642C12.2107 83.1669 9.55676 79.4685 8.78615 77.1837C8.36865 73.6447 9.46906 71.3181 11.2726 68.4445C11.4571 65.0364 11.367 61.9499 10.8313 58.5919C10.0351 57.6702 9.43146 55.4641 8.79198 54.284C8.84846 53.0455 9.01662 51.9245 9.30945 50.72Z" fill="#85C9EA"/>
<path d="M10.8313 58.5919C10.8905 57.7485 10.7801 57.2895 11.3701 56.6465C12.4164 56.7264 13.119 57.1169 13.7972 57.9086C15.3352 59.7031 16.0497 61.525 16.9048 63.6706C17.5274 67.0345 17.4692 71.944 15.4727 74.8507C14.6619 76.0312 13.5812 76.9372 12.1411 77.196C11.0504 77.3918 9.88383 77.2707 8.78615 77.1837C8.36865 73.6447 9.46906 71.3181 11.2726 68.4445C11.4571 65.0364 11.367 61.9499 10.8313 58.5919Z" fill="#B4D4B5"/>
<path d="M9.30945 50.72C9.92325 51.6674 10.1373 52.2764 11.1977 52.7282C12.8645 51.9328 13.2747 50.1221 14.996 49.4347C16.5838 50.2061 17.7724 52.7928 18.9869 54.1261C19.1609 55.367 21.041 55.8981 21.4784 57.3494L20.1406 57.3991C19.7854 57.7891 19.4004 58.1448 19.2922 58.681C19.6874 61.8167 21.0895 66.4579 19.527 69.2764L18.9987 69.3899C18.041 67.2716 18.9333 62.8191 17.7048 61.3989C17.0907 61.9703 16.9314 62.6962 16.9072 63.5297C16.9059 63.5765 16.9051 63.6239 16.9048 63.6706C16.0497 61.525 15.3352 59.7031 13.7972 57.9086C13.119 57.1169 12.4164 56.7264 11.3701 56.6465C10.7801 57.2895 10.8905 57.7485 10.8313 58.5919C10.0351 57.6702 9.43146 55.4641 8.79198 54.284C8.84846 53.0455 9.01662 51.9245 9.30945 50.72Z" fill="#95C3B2"/>
<path d="M19.2922 58.681C19.4004 58.1448 19.7854 57.7891 20.1406 57.3991L21.4784 57.3494C24.8689 64.8944 22.4174 70.7277 21.4837 78.4276C21.1433 81.2354 21.3067 84.0585 21.4459 86.8749L20.465 87.076L19.5801 86.4325C16.5692 80.7168 19.032 74.3754 20.5228 68.6651C21.2364 65.9319 20.7412 61.1563 19.2922 58.681Z" fill="#61A8CE"/>
<path d="M32.0409 99.07C30.3898 95.43 28.6413 91.5097 28.4496 87.4668C28.2803 83.8938 29.4152 80.6405 31.8315 77.9938C32.9451 76.774 36.4543 73.5614 38.0419 73.4894C37.0961 74.7469 35.908 75.6913 35.5343 77.2751C36.4134 78.3877 37.9417 78.7252 39.3276 78.8871C39.7172 78.9326 40.0373 78.9475 40.3867 79.1413C37.7205 83.1768 36.5143 85.3315 36.799 90.2614C37.2182 91.6568 37.562 93.4186 38.5545 94.5121C38.9879 94.3784 39.1698 94.4074 39.3879 93.9954C39.754 93.3035 39.9366 92.5549 40.1368 91.8029C41.8012 92.8294 41.8935 94.0173 42.7394 95.71L43.4773 95.4024L43.9717 97.4673L44.4802 97.7269C45.0102 97.2773 45.5517 96.8388 46.0275 96.3303C44.8483 99.283 43.6264 101.87 43.6466 105.102H38.8772H33.8717H30.9017L30.4735 101.762C30.4324 100.82 30.2347 99.639 30.76 98.8112L32.0409 99.07Z" fill="#9AC5AC"/>
<path d="M36.799 90.2614C37.2182 91.6568 37.562 93.4186 38.5545 94.5121C38.9879 94.3784 39.1698 94.4074 39.3879 93.9954C39.754 93.3035 39.9366 92.5549 40.1368 91.8029C41.8012 92.8294 41.8935 94.0173 42.7394 95.71L43.4773 95.4024L43.9717 97.4673L44.4802 97.7269C45.0102 97.2773 45.5517 96.8388 46.0275 96.3303C44.8483 99.283 43.6264 101.87 43.6466 105.102H38.8772C38.4938 100.903 35.2119 97.3761 34.3872 93.2467C34.1383 92.0007 34.2551 91.1672 34.9512 90.1279L36.799 90.2614Z" fill="#61A8CE"/>
<path d="M30.4735 101.762C30.4324 100.82 30.2347 99.639 30.76 98.8112L32.0409 99.07L33.8717 105.102H30.9017L30.4735 101.762Z" fill="#68AEF4"/>
<path d="M36.8008 43.1465C35.7984 39.751 34.5848 36.097 36.4056 32.7632C36.598 32.411 36.6589 32.244 37.0314 32.0577C37.0803 32.221 37.1143 32.3849 37.1508 32.5511C37.3997 33.6844 36.7941 35.0875 36.7947 36.2904C36.7954 37.628 37.3604 39.1364 37.7494 40.4196C41.1966 51.7929 48.933 57.5211 40.7184 70.1665C39.9597 71.3342 39.0351 72.5105 38.0419 73.4894C36.4543 73.5614 32.9451 76.774 31.8315 77.9938C29.4152 80.6405 28.2803 83.8938 28.4496 87.4668C28.6413 91.5097 30.3898 95.43 32.0409 99.07L30.76 98.8112C30.2347 99.639 30.4324 100.82 30.4735 101.762C29.7877 100.897 26.1536 92.5196 25.8286 91.3039C23.3933 82.1933 31.5753 75.8991 35.6653 68.8277C40.5002 60.4686 39.1671 52.0045 36.8008 43.1465Z" fill="#61A8CE"/>
<path d="M0.179932 93.6783C0.186019 92.9806 0.220543 92.2407 0.35624 91.5546C0.663288 90.0023 2.46825 88.4769 3.73301 87.6367C5.2479 86.6301 7.96668 85.3109 9.79228 85.6857C11.3607 85.7196 12.8637 85.711 14.4204 85.4998C16.5545 86.9176 19.9598 88.6703 21.0843 90.9977L21.2268 93.3697C21.1076 93.5034 20.7452 93.9895 20.5974 93.9978C20.447 94.0065 20.2961 94.0024 20.1456 93.9999C18.5196 93.9742 16.8868 92.554 15.2801 92.7034C15.1345 92.7171 14.9944 92.7328 14.8505 92.761C13.1967 93.3117 11.5747 93.698 10.2995 94.9522L10.4951 95.5257C12.2362 96.2486 14.3175 96.2027 16.181 96.3178C13.9156 96.3774 11.5403 96.2963 9.30198 96.6557C9.00924 96.8221 8.19706 97.1617 8.11582 97.4569C8.01897 97.8084 7.85889 98.2142 7.8774 98.5798C7.5033 99.9201 7.15453 100.378 5.93148 101.075C5.04045 101.583 4.1597 101.913 3.33576 102.555C2.68121 102.273 2.0415 101.945 1.39933 101.636C-0.534599 99.3961 0.0599864 96.4281 0.179932 93.6783Z" fill="#AACEB4"/>
<path d="M0.708458 93.4628C2.02316 92.3904 2.92495 90.8936 4.16517 89.7168C5.57816 90.3607 6.28827 92.9192 6.81215 94.3208C7.30389 95.6367 7.38558 96.6105 7.18952 97.9943L7.8774 98.5798C7.5033 99.9201 7.15453 100.378 5.93148 101.075C5.04045 101.583 4.1597 101.913 3.33576 102.555C2.68121 102.273 2.0415 101.945 1.39933 101.636C-0.534599 99.3961 0.0599864 96.4281 0.179932 93.6783L0.708458 93.4628Z" fill="#9AC5AC"/>
<path d="M0.179932 93.6783L0.708458 93.4628C0.648394 95.442 0.704599 96.8748 2.12681 98.3695C2.75981 99.0345 3.66862 99.2527 4.53389 99.4494C5.86208 99.2035 6.16484 98.3641 7.18952 97.9943L7.8774 98.5798C7.5033 99.9201 7.15453 100.378 5.93148 101.075C5.04045 101.583 4.1597 101.913 3.33576 102.555C2.68121 102.273 2.0415 101.945 1.39933 101.636C-0.534599 99.3961 0.0599864 96.4281 0.179932 93.6783Z" fill="#B4D4B5"/>
<path d="M9.79228 85.6857C11.3607 85.7196 12.8637 85.711 14.4204 85.4998C16.5545 86.9176 19.9598 88.6703 21.0843 90.9977L21.2268 93.3697C21.1076 93.5034 20.7452 93.9895 20.5974 93.9978C20.447 94.0065 20.2961 94.0024 20.1456 93.9999C18.5196 93.9742 16.8868 92.554 15.2801 92.7034C15.1345 92.7171 14.9944 92.7328 14.8505 92.761C13.3145 91.8426 12.243 91.0319 11.3648 89.4493C13.4298 89.8721 15.5971 91.0853 17.7049 90.9983L17.7347 90.4903C14.1215 85.5758 13.7922 87.84 9.79228 85.6857Z" fill="#F5FAFC"/>
<path d="M16.181 96.3178C18.8018 96.847 21.2382 97.3904 23.3453 99.1588C24.1361 100.099 24.9179 100.643 24.7981 101.963C24.7348 102.66 24.552 103.062 24.0055 103.493C22.6552 104.559 18.8974 104.509 17.1435 104.719C12.6787 105.069 7.61584 103.738 3.33576 102.555C4.1597 101.913 5.04045 101.583 5.93148 101.075C7.15453 100.378 7.5033 99.9201 7.8774 98.5798C7.85889 98.2142 8.01897 97.8084 8.11582 97.4569C8.19706 97.1617 9.00924 96.8221 9.30198 96.6557C11.5403 96.2963 13.9156 96.3774 16.181 96.3178Z" fill="#95C3B2"/>
<path d="M16.181 96.3178C18.8018 96.847 21.2382 97.3904 23.3453 99.1588C22.0448 99.6437 12.0839 96.7985 9.30198 96.6557C11.5403 96.2963 13.9156 96.3774 16.181 96.3178Z" fill="#B4D4B5"/>
<path d="M101.313 84.4516C143.345 67.4672 190.909 64.7776 234.044 79.2143C242.428 82.0199 250.622 85.3888 258.979 88.271C275.051 93.8145 292.083 97.8872 309.091 98.9539C316.729 99.4329 324.601 99.505 332.22 98.8056C341.904 97.9166 351.478 96.1631 361.207 95.7519C371.209 95.3292 381.235 97.1336 391.212 96.2289C404.809 94.9963 417.907 91.9355 431.67 92.114C446.44 92.3049 461.007 95.2078 475.404 98.2653C481.296 99.517 487.42 101.183 493.374 101.988C492.571 102.869 492.152 103.659 490.856 103.721C489.416 103.789 487.813 103.509 486.372 103.367L486.066 103.75L487.743 104.62C484.981 104.742 482.178 104.641 479.416 104.637C457.674 105.266 435.766 104.682 414.002 104.686C392.923 104.69 371.672 105.303 350.621 104.606L301.409 104.657L301.849 103.875L301.592 103.422C293.72 101.777 285.527 100.965 277.756 98.9608C271.119 97.2495 264.299 95.3406 257.843 93.0505C248.694 89.8046 239.659 85.9729 230.383 83.1146C194.664 72.1312 156.492 71.9801 120.688 82.6807C113.12 84.9452 106.065 88.273 98.6615 90.9375C97.982 91.1818 97.8391 91.2828 97.1274 91.0878C97.1733 90.9387 97.2284 90.7967 97.2859 90.6518C98.218 88.2987 100.845 87.3182 101.304 84.5067L101.313 84.4516Z" fill="#CDE3FC"/>
<path d="M341.436 103.905C350.605 101.478 363.466 100.121 372.977 100.417C377.608 100.562 382.266 101.519 386.903 101.276C397.065 100.743 407.048 98.1889 417.112 97.0879C425.195 96.2035 435.902 95.9931 443.914 97.2602C450.038 98.2287 456.038 99.9532 462.17 100.931C467.226 101.738 474.066 101.385 478.546 104.014C478.853 104.194 479.147 104.403 479.416 104.637C457.674 105.266 435.766 104.682 414.002 104.686C392.923 104.69 371.672 105.303 350.621 104.606C348.543 103.405 343.862 103.906 341.436 103.905Z" fill="#AACEF8"/>
<path d="M40.3867 79.1413C40.6219 79.0854 40.7971 78.9902 41.0016 78.8676C46.707 75.4533 51.5681 70.622 53.2194 63.9494C55.2462 55.7592 50.1097 50.0957 46.2242 43.6425C41.8571 36.3892 44.8375 31.0954 46.6523 23.7684L47.2237 23.5119C47.3662 24.5847 47.5169 25.6564 47.6763 26.7268C46.6374 29.0269 45.8358 31.2639 45.7066 33.8207C44.5481 36.1169 45.24 38.1925 45.8639 40.5226C51.8157 48.6776 55.2387 52.7542 54.9754 63.3683C55.6524 62.3534 55.7551 60.9733 55.9634 59.7932C56.9633 59.0599 57.9459 59.327 59.1632 59.3539C58.9355 54.7785 59.909 50.9236 62.4037 47.0306C64.8955 43.1421 68.5649 39.7269 73.1937 38.7279C76.8176 37.9457 79.9761 38.7909 83.036 40.7716C83.7441 41.9956 84.6413 43.3719 85.0036 44.7421C85.886 48.0765 84.5643 50.5381 82.9466 53.3227C80.745 55.1541 79.1985 56.8116 78.9161 59.7651C78.2925 66.2924 82.1727 69.007 80.3355 78.7598C77.8395 84.1053 75.7083 87.6323 69.8783 89.7573C63.9013 91.9361 59.1024 92.1108 54.281 96.9293C53.2181 98.793 52.0529 101.013 51.6596 103.139C52.0066 103.433 52.3291 103.775 52.8094 103.786L53.1746 105.102H51.7333H43.6466C43.6264 101.87 44.8483 99.283 46.0275 96.3303C45.5517 96.8388 45.0102 97.2773 44.4802 97.7269L43.9717 97.4673L43.4773 95.4024L42.7394 95.71C41.8935 94.0173 41.8012 92.8294 40.1368 91.8029C39.9366 92.5549 39.754 93.3035 39.3879 93.9954C39.1698 94.4074 38.9879 94.3784 38.5545 94.5121C37.562 93.4186 37.2182 91.6568 36.799 90.2614C36.5143 85.3315 37.7205 83.1768 40.3867 79.1413Z" fill="#F5FAFC"/>
<path d="M75.7945 39.5215C77.8503 40.0639 80.564 40.5124 82.1213 42.0514C83.5933 43.5065 83.5209 45.296 83.5354 47.2301C83.4049 50.4052 82.7114 51.6676 80.3997 53.798C79.9554 54.2063 79.5053 54.6079 79.049 55.0029C77.2913 57.6711 77.0677 60.1729 77.7058 63.2469C78.9728 69.351 80.8406 75.7367 76.987 81.4449C76.8615 81.6313 76.6611 81.7919 76.4764 81.9153C76.2918 81.823 75.9634 81.6027 75.7721 81.5634C75.0127 81.4068 71.9354 82.2267 71.0833 82.4267C68.5513 83.0217 61.2899 83.9678 59.8141 84.4635C59.0614 84.7164 58.5993 84.8705 58.0759 85.4837C57.1915 85.8729 56.4611 86.2071 55.4673 86.1466C57.9252 84.0796 61.583 83.9318 63.6985 81.3261C65.045 81.0276 66.7265 79.2343 67.7116 78.3246C66.6797 77.2911 66.1224 77.3759 64.7133 77.1557C65.2019 76.4911 65.5733 75.6137 65.9717 74.8833C64.7845 74.333 60.3578 75.4779 57.6188 74.8328C58.0254 74.5077 58.3231 74.1289 58.6299 73.7132C61.9664 69.1966 61.6116 65.0303 60.824 59.7646C60.1118 56.2492 61.323 51.8254 63.0099 48.7841C66.0143 43.3657 70.0845 41.1459 75.7945 39.5215Z" fill="#B4D4B5"/>
<path d="M60.824 59.7646C62.5581 59.8553 64.3759 58.8856 65.7903 59.2806L67.3377 61.2636L67.9554 61.2913L68.2461 60.541C69.0693 62.1265 67.3505 70.698 67.0818 72.8975C66.6594 73.5451 66.271 74.169 65.9717 74.8833C64.7845 74.333 60.3578 75.4779 57.6188 74.8328C58.0254 74.5077 58.3231 74.1289 58.6299 73.7132C61.9664 69.1966 61.6116 65.0303 60.824 59.7646Z" fill="#AACEB4"/>
<path d="M71.9876 50.207C71.4004 52.6624 70.5992 55.054 70.48 57.5914C70.217 63.1895 71.8977 68.4775 69.9955 73.903C68.9583 74.1204 68.2341 74.2798 67.2341 73.785L67.0818 72.8975C67.3505 70.698 69.0693 62.1265 68.2461 60.541C68.0188 56.082 69.5864 53.7473 71.9876 50.207Z" fill="#68AEF4"/>
<path d="M79.049 55.0029C78.4387 54.0887 77.4619 53.2758 76.6876 52.4904C76.8785 51.1703 79.2867 50.4383 80.0949 49.4027C80.4593 48.9356 80.7967 47.3146 80.9976 46.7051L83.5354 47.2301C83.4049 50.4052 82.7114 51.6676 80.3997 53.798C79.9554 54.2063 79.5053 54.6079 79.049 55.0029Z" fill="#95C3B2"/>
<path d="M67.0818 72.8975L67.2341 73.785C68.2341 74.2798 68.9583 74.1204 69.9955 73.903C69.5355 75.1671 68.6718 77.4331 67.7116 78.3246C66.6797 77.2911 66.1224 77.3759 64.7133 77.1557C65.2019 76.4911 65.5733 75.6137 65.9717 74.8833C66.271 74.169 66.6594 73.5451 67.0818 72.8975Z" fill="#5CA3F7"/>
<path d="M57.6188 74.8328C60.3578 75.4779 64.7845 74.333 65.9717 74.8833C65.5733 75.6137 65.2019 76.4911 64.7133 77.1557C66.1224 77.3759 66.6797 77.2911 67.7116 78.3246C66.7265 79.2343 65.045 81.0276 63.6985 81.3261C61.583 83.9318 57.9252 84.0796 55.4673 86.1466C56.4611 86.2071 57.1915 85.8729 58.0759 85.4837C57.3194 86.836 57.2701 88.0662 57.6995 89.5556C57.8444 90.0591 58.0519 90.546 58.2817 91.016L59.3893 91.2222C55.8673 94.6228 51.5101 95.015 51.3917 100.996C51.3648 102.355 51.5652 103.754 51.7333 105.102H43.6466C43.6264 101.87 44.8483 99.283 46.0275 96.3303C45.5517 96.8388 45.0102 97.2773 44.4802 97.7269L43.9717 97.4673L43.4773 95.4024L42.7394 95.71C41.8935 94.0173 41.8012 92.8294 40.1368 91.8029C41.1287 90.9628 41.3395 88.2223 41.9945 86.9863C45.2578 80.8308 52.0372 78.2558 57.6188 74.8328Z" fill="#95C3B2"/>
<path d="M59.0618 80.438C61.2725 79.7051 62.9395 78.6575 64.7133 77.1557C66.1224 77.3759 66.6797 77.2911 67.7116 78.3246C66.7265 79.2343 65.045 81.0276 63.6985 81.3261C61.583 83.9318 57.9252 84.0796 55.4673 86.1466C56.4611 86.2071 57.1915 85.8729 58.0759 85.4837C57.3194 86.836 57.2701 88.0662 57.6995 89.5556C57.8444 90.0591 58.0519 90.546 58.2817 91.016L59.3893 91.2222C55.8673 94.6228 51.5101 95.015 51.3917 100.996C51.3648 102.355 51.5652 103.754 51.7333 105.102H43.6466C43.6264 101.87 44.8483 99.283 46.0275 96.3303C46.0846 95.1713 48.1984 91.8454 48.7835 90.6065C50.6273 88.1197 52.8355 86.4125 55.4085 84.7666C54.9344 83.8618 54.6528 83.2209 54.6835 82.1754C55.671 81.2218 56.5455 81.1568 57.8535 80.8193L59.0618 80.438Z" fill="#9AC5AC"/>
<path d="M59.0618 80.438C61.2725 79.7051 62.9395 78.6575 64.7133 77.1557C66.1224 77.3759 66.6797 77.2911 67.7116 78.3246C66.7265 79.2343 65.045 81.0276 63.6985 81.3261C62.4554 81.917 61.265 82.3956 59.9359 82.7575C58.4705 83.5393 56.9488 84.1496 55.4085 84.7666C54.9344 83.8618 54.6528 83.2209 54.6835 82.1754C55.671 81.2218 56.5455 81.1568 57.8535 80.8193L59.0618 80.438Z" fill="#61A8CE"/>
<path d="M48.1823 88.0463C49.4257 86.0211 52.7751 85.5201 53.5879 83.2577C52.7117 82.6444 50.5015 82.9964 49.4179 83.0473L49.4634 82.6477C49.7027 82.4254 49.9644 82.2283 50.2439 82.0594C52.101 80.929 56.9124 79.9204 59.0618 80.438L57.8535 80.8193C56.5455 81.1568 55.671 81.2218 54.6835 82.1754C54.6528 83.2209 54.9344 83.8618 55.4085 84.7666C52.8355 86.4125 50.6273 88.1197 48.7835 90.6065C48.1984 91.8454 46.0846 95.1713 46.0275 96.3303C45.5517 96.8388 45.0102 97.2773 44.4802 97.7269L43.9717 97.4673L43.4773 95.4024C43.8226 93.0054 46.307 89.5063 48.1823 88.0463Z" fill="#68AEF4"/>
<path d="M58.0759 85.4837C58.5993 84.8705 59.0614 84.7164 59.8141 84.4635C61.2899 83.9678 68.5513 83.0217 71.0833 82.4267C71.9354 82.2267 75.0127 81.4068 75.7721 81.5634C75.9634 81.6027 76.2918 81.823 76.4764 81.9153C74.8475 85.2672 72.3503 87.3088 68.8361 88.5208C67.3708 89.0259 65.575 89.2955 64.2048 89.9667C62.5892 90.3497 60.9731 90.7203 59.3893 91.2222L58.2817 91.016C58.0519 90.546 57.8444 90.0591 57.6995 89.5556C57.2701 88.0662 57.3194 86.836 58.0759 85.4837Z" fill="#9AC5AC"/>
<path d="M58.0759 85.4837C59.9673 85.2796 62.6612 84.7812 64.2674 86.0482C64.9121 86.5571 65.0363 86.9761 65.1228 87.7716C65.2317 88.7732 64.7903 89.2458 64.2048 89.9667C62.5892 90.3497 60.9731 90.7203 59.3893 91.2222L58.2817 91.016C58.0519 90.546 57.8444 90.0591 57.6995 89.5556C57.2701 88.0662 57.3194 86.836 58.0759 85.4837Z" fill="#95C3B2"/>
<path d="M54.9754 63.3683C55.6524 62.3534 55.7551 60.9733 55.9634 59.7932C56.9633 59.0599 57.9459 59.327 59.1632 59.3539L59.3831 60.3485C60.3806 63.7455 60.3893 66.8919 58.6415 70.0955C58.2129 70.8806 57.1529 72.423 56.3865 72.8818C56.0341 72.712 55.4048 72.7108 55.0069 72.6565C52.7809 70.5767 55.3708 68.9527 54.3415 66.5996L54.2346 65.8365L54.6665 65.3193L54.9754 63.3683Z" fill="#3E96F7"/>
<path d="M54.9754 63.3683C55.6524 62.3534 55.7551 60.9733 55.9634 59.7932C56.9633 59.0599 57.9459 59.327 59.1632 59.3539L59.3831 60.3485C59.3876 61.3866 59.6986 64.2871 59.1607 65.0605C58.1219 64.4746 58.0834 64.4092 56.9323 64.7057L55.4184 66.1851C54.8777 65.9222 54.893 65.8829 54.6665 65.3193L54.9754 63.3683Z" fill="#227FF5"/>
<path d="M54.3415 66.5996C55.3708 68.9527 52.7809 70.5767 55.0069 72.6565C55.4048 72.7108 56.0341 72.712 56.3865 72.8818C54.7514 74.979 51.5966 76.7156 49.1061 77.5996C48.273 77.8952 47.9185 78.1126 47.0892 77.7188C46.938 76.0398 51.27 72.0454 52.2981 70.5295C53.1142 69.3254 53.7253 67.9163 54.3415 66.5996Z" fill="#227FF5"/>
<path d="M43.3415 79.4176C44.2023 79.3613 44.5332 79.3012 45.3041 79.6809C44.7824 81.5231 42.05 83.8145 40.8145 85.4683L40.583 86.0426L40.0607 86.1842C40.4903 83.2704 41.1478 81.4572 43.3415 79.4176Z" fill="#3E96F7"/>
<path d="M893.483 100.158C896.331 100.446 899.714 99.9264 902.579 99.6833C923.709 97.89 942.822 90.5201 963.041 84.9497C977.591 80.942 992.398 77.9119 1007.54 77.4813C1024 77.0134 1039.98 80.0398 1055.82 84.2326C1077.33 89.9268 1098.76 97.8656 1121.46 95.3199C1121.77 95.5216 1122.25 95.7466 1122.42 96.0667C1122.82 97.0509 1123.16 98.048 1123.92 98.821L1123.35 99.6235C1114.88 100.193 1105.27 100.328 1096.84 99.2674C1078.63 96.9772 1061.27 90.3158 1043.6 85.7263C1040.07 84.8108 1036.09 84.7686 1032.47 84.2212C998.046 79.0226 969.832 86.8936 937.572 97.7995C935.083 98.6405 932.558 99.5427 929.982 100.079C926.579 100.789 914.794 101.375 912.683 103.37L912.31 104.657C897.66 105.304 882.675 104.668 867.993 104.663C859.885 104.66 846.068 105.445 838.764 104.297C842.031 103.727 845.472 103.823 848.784 103.751C850.246 102.424 857.31 103.193 859.658 102.775C860.519 102.621 860.941 102.529 861.455 101.79C860.995 100.977 860.432 100.33 859.807 99.644C860.61 99.0904 862.059 99.2014 863.016 99.1993C868.072 99.1869 873.177 99.8316 878.241 99.9781C883.313 100.125 888.427 99.7546 893.483 100.158Z" fill="#CDE3FC"/>
<path d="M848.784 103.751C850.246 102.424 857.31 103.193 859.658 102.775C860.519 102.621 860.941 102.529 861.455 101.79C860.995 100.977 860.432 100.33 859.807 99.644C860.61 99.0904 862.059 99.2014 863.016 99.1993C868.072 99.1869 873.177 99.8316 878.241 99.9781C883.313 100.125 888.427 99.7546 893.483 100.158C887.884 100.802 882.233 100.357 876.63 100.742L880.804 102.406C870.846 102.303 858.043 104.752 848.784 103.751Z" fill="#3E96F7"/>
<path d="M1126.41 86.7899C1124.83 85.7733 1121.66 84.7299 1120.65 83.279C1120.74 79.6303 1125.32 80.275 1127.26 78.6962C1127.78 78.2738 1129.06 72.8393 1129.68 71.7213C1130.15 70.8853 1130.42 70.6783 1131.3 70.4307C1133.77 71.4178 1135.22 74.5879 1136.49 76.7629C1137.75 76.3584 1139.01 75.9977 1140.33 75.8876C1141.47 75.794 1142.69 75.8516 1143.59 76.6304C1144.08 77.0552 1144.35 77.7534 1144.38 78.4026C1144.52 80.81 1142.26 83.043 1140.81 84.7378C1142.1 86.9282 1143.05 88.9807 1143.87 91.3777C1149.65 90.3102 1155.07 87.6581 1160.49 85.4686C1169.6 81.7913 1179.88 79.4102 1189.73 79.4404C1192.1 81.0048 1194.43 82.5488 1196.59 84.3992C1192.29 84.3259 1187.96 84.1914 1183.67 84.4986C1182.06 84.6137 1178.85 85.4154 1177.4 85.1011C1177.18 85.0539 1176.8 84.7736 1176.59 84.6572C1176.11 83.7131 1175.93 82.8204 1174.92 82.4267L1174.35 82.7111C1174.63 83.4602 1174.88 84.2204 1175.1 84.9897C1175.02 85.094 1174.93 85.1872 1174.84 85.2808C1174.59 85.5267 1142.55 96.7259 1141.22 96.7545L1141.25 96.3139L1142.98 95.316C1143.07 95.2642 1143.16 95.2038 1143.22 95.1115C1143.75 94.3024 1143.62 93.8602 1143.46 92.9683L1142.69 92.4399L1140.24 92.8751C1138.86 92.8759 1137.98 92.7509 1136.78 92.0557C1135.75 93.8328 1133.37 94.2353 1131.96 95.8713C1131.94 95.9011 1131.91 95.9321 1131.89 95.9632L1130.34 95.734L1129.95 94.9995C1129.46 94.9659 1128.92 94.939 1128.43 94.8218C1125.87 94.197 1127.5 88.6958 1126.41 86.7899Z" fill="#B9DBFD"/>
<path d="M1130.06 75.6582C1132.21 76.8482 1133.9 76.3422 1134.19 76.5443C1134.6 76.8557 1135.21 77.4635 1135.66 77.6565C1137.61 78.4887 1142.68 75.7257 1143.33 78.6337C1142.47 80.5417 1140.11 82.4041 1139.68 84.291C1139.1 86.7725 1143.03 89.705 1142.69 92.4399L1140.24 92.8751C1138.41 91.7228 1136.65 90.7876 1134.65 89.9533C1132.57 91.9706 1130.23 93.6612 1127.91 95.3966C1127.89 92.2907 1128.06 89.1662 1128.08 86.0557C1126.79 85.3618 1125.03 84.6322 1123.99 83.6078C1123.39 83.0281 1123.42 82.913 1123.4 82.1296C1124.64 80.8692 1127.04 80.4787 1128.72 79.9951L1130.06 75.6582Z" fill="#FAD795"/>
<path d="M1130.06 75.6582C1130.09 74.6698 1130.2 73.995 1130.67 73.1176L1131.51 72.7031C1132.53 73.1052 1133.25 73.4563 1133.72 74.5374C1133.99 75.1457 1134.2 75.8772 1134.19 76.5443C1133.9 76.3422 1132.21 76.8482 1130.06 75.6582Z" fill="#FAD795"/>
<path d="M1129.95 94.9995C1131.38 94.0956 1132.92 92.6887 1134.41 91.9943C1135.44 91.519 1135.77 91.6938 1136.78 92.0557C1135.75 93.8328 1133.37 94.2353 1131.96 95.8713C1131.94 95.9011 1131.91 95.9321 1131.89 95.9632L1130.34 95.734L1129.95 94.9995Z" fill="#5CA3F7"/>
<path d="M1197.46 79.5199C1200.74 79.6491 1204 80.3452 1207.23 80.9207C1221.13 83.4022 1233.56 88.036 1245.76 95.1011C1246.45 95.4986 1252.5 99.6682 1252.64 99.6782C1252.7 99.6827 1253.14 99.3606 1253.22 99.3072L1253.51 98.118C1253.99 100.419 1252.96 102.629 1254.03 104.862L1253.61 105.102H1249.35C1247.8 104.176 1243.67 104.616 1241.73 104.596C1240.09 103.448 1234.84 101.584 1232.58 100.381C1229.77 98.8794 1227.17 96.8861 1224.45 95.2129C1220.43 92.7472 1215.79 90.5257 1211.38 88.8239C1206.74 87.0294 1201.84 87.7863 1197.55 84.8377L1197.74 84.2837L1199.76 83.3802C1199.17 82.8788 1196.78 83.1786 1195.86 83.0771C1194.99 82.43 1193.16 81.3513 1192.83 80.351C1195.32 79.5982 1198.22 81.218 1200.81 80.7323L1200.1 80.2922L1200.59 80.6259C1200.15 80.6375 1198.16 79.6918 1197.46 79.5199Z" fill="#8ABEF8"/>
<path d="M99.5074 85.2665L99.4962 85.3667C99.1741 88.0155 87.8184 100.95 87.1464 103.571L85.1307 103.947L85.0024 104.37C90.7823 105.21 97.0044 103.798 102.752 104.677L102.862 105.102H53.1746L52.8094 103.786C52.3291 103.775 52.0066 103.433 51.6596 103.139C52.0529 101.013 53.2181 98.793 54.281 96.9293L54.3837 97.8566C55.4839 98.3733 56.2805 97.9444 57.4333 98.0052C74.2397 99.0247 84.4914 89.5748 99.5074 85.2665Z" fill="#8ABEF8"/>
<path d="M51.6596 103.139C52.0529 101.013 53.2181 98.793 54.281 96.9293L54.3837 97.8566C55.4839 98.3733 56.2805 97.9444 57.4333 98.0052L57.0428 98.2297C55.3 98.8355 54.8408 99.4412 54.0376 101.098C53.6305 101.938 53.4831 102.812 52.5225 103.136C52.2695 103.222 51.9192 103.173 51.6596 103.139Z" fill="#227FF5"/>
<path d="M1253.86 71.3691C1255.15 71.8565 1256.22 72.7492 1256.8 74.0142C1257 74.4349 1257.11 74.8327 1257.06 75.2989C1256.21 77.539 1258.09 84.347 1258.16 87.2715C1258.43 87.9191 1258.92 88.7737 1258.78 89.4781C1259.56 91.1534 1260.94 93.5723 1260.98 95.407C1261.92 98.7348 1263.12 101.651 1263.7 105.102H1259.92H1253.61L1254.03 104.862C1254.65 104.79 1254.86 104.796 1255.36 104.404C1255 103.355 1254.91 102.5 1254.89 101.406C1254.91 99.0799 1254.59 97.5213 1253.7 95.34C1252.24 91.9153 1247.36 89.6173 1245.41 86.1702C1243.75 83.2378 1244.22 79.6992 1245.07 76.6062C1245.07 76.2112 1245.37 75.7412 1245.57 75.4125C1247.18 72.7281 1251.06 72.0776 1253.86 71.3691Z" fill="#85C9EA"/>
<path d="M1253.86 71.3691C1255.15 71.8565 1256.22 72.7492 1256.8 74.0142C1257 74.4349 1257.11 74.8327 1257.06 75.2989C1256.21 77.539 1258.09 84.347 1258.16 87.2715C1256.79 85.4277 1255.89 83.4813 1254.29 81.777L1253.62 81.7737C1252.99 82.9455 1253.51 84.2303 1253.82 85.4291C1254.52 87.0621 1256.69 90.7021 1256.04 92.4139C1256.01 92.4971 1255.97 92.5708 1255.93 92.6491L1255.35 91.3017L1254.73 91.4971L1254.32 91.2549C1253.81 89.8218 1252.6 88.903 1251.82 87.6211C1250.38 85.2361 1249.42 82.4983 1247.87 80.1899C1247.36 79.4276 1245.98 78.3167 1245.92 77.4584C1245.91 77.325 1245.9 77.1929 1245.9 77.0588C1245.9 77.0364 1245.91 77.0141 1245.91 76.9917L1245.07 76.6062C1245.07 76.2112 1245.37 75.7412 1245.57 75.4125C1247.18 72.7281 1251.06 72.0776 1253.86 71.3691Z" fill="#A5DBF8"/>
<path d="M1253.82 85.4291C1253.51 84.2303 1252.99 82.9455 1253.62 81.7737L1254.29 81.777C1255.89 83.4813 1256.79 85.4277 1258.16 87.2715C1258.43 87.9191 1258.92 88.7737 1258.78 89.4781C1259.56 91.1534 1260.94 93.5723 1260.98 95.407C1261.92 98.7348 1263.12 101.651 1263.7 105.102H1259.92H1253.61L1254.03 104.862C1254.65 104.79 1254.86 104.796 1255.36 104.404C1255 103.355 1254.91 102.5 1254.89 101.406L1255.75 101.186L1255.81 99.3144C1255.86 99.374 1255.91 99.4349 1255.96 99.4961C1257.27 101.092 1258.04 102.557 1259.62 104.073C1259.65 102.447 1259.8 100.599 1259.44 99.0092C1258.63 95.4213 1256.54 92.7714 1256.9 88.8713C1255.98 87.5293 1255.08 86.4733 1253.82 85.4291Z" fill="#8ABEF8"/>
<path d="M1258.78 89.4781C1259.56 91.1534 1260.94 93.5723 1260.98 95.407C1261.92 98.7348 1263.12 101.651 1263.7 105.102H1259.92C1260.99 100.874 1257.94 91.4588 1258.56 89.9347C1258.63 89.7761 1258.69 89.6263 1258.78 89.4781Z" fill="#68AEF4"/>
<path d="M680.427 15.2903C692.07 15.0353 704.844 13.3061 716.442 12.4707C721.742 12.089 730.156 12.5087 736.151 12.3567C730.325 14.021 689.549 17.3366 681.383 16.2725C681.205 16.2493 680.605 15.529 680.427 15.2903Z" fill="#68AEF4"/>
<path d="M1244.31 74.4569C1244.39 74.4292 1244.42 74.406 1244.48 74.3373C1245.32 73.3257 1246.33 72.3688 1247.46 71.6848C1249.73 70.3043 1251.43 70.7808 1253.86 71.3691C1251.06 72.0776 1247.18 72.7281 1245.57 75.4125C1245.37 75.7412 1245.07 76.2112 1245.07 76.6062C1244.22 79.6992 1243.75 83.2378 1245.41 86.1702C1247.36 89.6173 1252.24 91.9153 1253.7 95.34C1254.59 97.5213 1254.91 99.0799 1254.89 101.406C1254.91 102.5 1255 103.355 1255.36 104.404C1254.86 104.796 1254.65 104.79 1254.03 104.862C1252.96 102.629 1253.99 100.419 1253.51 98.118C1250.82 93.1302 1245.5 90.2501 1243.39 84.9066C1242.6 82.9241 1243 80.807 1242.34 78.7769C1243.16 77.4204 1243.71 75.9227 1244.31 74.4569Z" fill="#F5FAFC"/>
<path d="M82.9466 53.3227L83.7548 53.9193C83.0923 56.0687 81.2249 57.8873 80.7019 59.9307C79.9902 62.7115 83.0617 75.2477 83.2977 79.2616C82.4721 79.3949 81.41 79.7999 80.7231 79.3022C80.5069 79.1457 80.405 79.0211 80.3355 78.7598C82.1727 69.007 78.2925 66.2924 78.9161 59.7651C79.1985 56.8116 80.745 55.1541 82.9466 53.3227Z" fill="#227FF5"/>
<path d="M1126.41 86.791C1127.5 88.6969 1125.87 94.1982 1128.43 94.823C1128.92 94.9402 1129.46 94.9671 1129.95 95.0006L1130.34 95.7352L1131.89 95.9632C1130.75 96.9727 1129.42 97.6877 1128.12 98.4451C1125.86 97.9022 1124.2 97.6476 1122.42 96.0667C1122.25 95.7466 1121.77 95.5216 1121.46 95.3199C1122.14 94.5949 1125.74 94.7385 1126.9 94.6677C1126.37 91.9643 1126.32 89.5329 1126.41 86.791Z" fill="#68AEF4"/>
<path d="M1242.34 78.7769L1241.95 78.497C1241.65 77.5744 1241.68 76.5728 1242.04 75.6698C1242.44 74.647 1242.84 74.2508 1243.83 73.8301L1244.31 74.4569C1243.71 75.9227 1243.16 77.4204 1242.34 78.7769Z" fill="#3E96F7"/>
<path d="M635.29 101.848C640.325 101.242 645.484 100.797 650.482 99.9732C655.38 99.1649 660.212 97.8677 665.106 96.9667C681.876 93.8769 699.42 91.2944 716.5 91.6667C739.621 92.1706 762.113 98.1339 785.077 100.134C787.847 100.251 792.493 100.115 794.932 101.225L794.741 101.651C793.176 101.885 791.309 101.644 789.847 102.039C789.855 102.04 789.859 102.04 789.868 102.043C789.888 102.051 789.905 102.061 789.921 102.07C791.706 102.949 793.13 101.566 794.025 103.886C794.94 103.957 796.874 103.901 797.631 104.341C790.791 104.931 783.81 104.712 776.945 104.703C770.705 104.696 764.394 104.871 758.163 104.636C754.54 104.923 750.701 104.684 747.058 104.684L725.092 104.69C703.507 104.699 681.909 104.869 660.324 104.626C652.68 104.76 582.041 105.329 579.636 104.31C581.482 103.588 584.344 103.869 586.339 103.812C592.724 102.045 604.521 102.556 611.518 102.374C618.23 102.2 624.901 101.758 631.621 101.747C628.209 103.517 624.748 102.847 621.183 103.79C629.99 103.896 639.033 104.211 647.811 103.572C644.494 103.008 637.969 104.043 635.364 101.911L635.29 101.848Z" fill="#CDE3FC"/>
<path d="M660.324 104.626L660.527 103.808C660.643 103.722 660.763 103.648 660.891 103.574C662.837 102.422 667.632 102.495 670.092 101.974C675.889 100.748 681.64 100.249 687.503 99.5476C693.548 98.8242 699.573 97.8892 705.664 97.6189C723.7 96.8172 745.24 99.6536 763.086 102.725C763.098 102.738 763.111 102.75 763.123 102.763C763.782 103.402 764.97 103.471 765.844 103.627C763.786 103.638 759.703 103.103 758.163 104.636C754.54 104.923 750.701 104.684 747.058 104.684L725.092 104.69C703.507 104.699 681.909 104.869 660.324 104.626Z" fill="#AACEF8"/>
<path d="M785.077 100.134C787.847 100.251 792.493 100.115 794.932 101.225L794.741 101.651C793.176 101.885 791.309 101.644 789.847 102.039C789.855 102.04 789.859 102.04 789.868 102.043C789.888 102.051 789.905 102.061 789.921 102.07C791.706 102.949 793.13 101.566 794.025 103.886C794.94 103.957 796.874 103.901 797.631 104.341C790.791 104.931 783.81 104.712 776.945 104.703C770.705 104.696 764.394 104.871 758.163 104.636C759.703 103.103 763.786 103.638 765.844 103.627C764.97 103.471 763.782 103.402 763.123 102.763C763.111 102.75 763.098 102.738 763.086 102.725C765.045 102.369 768.055 102.998 771.247 102.363L770.61 102.128C772.75 101.522 773.905 102.132 775.992 102.198L776.009 101.944L774.816 101.208C777.479 101.41 786.083 102.75 788.046 101.212C787.549 100.435 785.992 100.349 785.077 100.134Z" fill="#B9DBFD"/>
<path d="M785.077 100.134C787.847 100.251 792.493 100.115 794.932 101.225L794.741 101.651C793.176 101.885 791.309 101.644 789.847 102.039C789.855 102.04 789.859 102.04 789.868 102.043C789.888 102.051 789.905 102.061 789.921 102.07C791.706 102.949 793.13 101.566 794.025 103.886C790.716 103.236 778.386 103.481 777.313 103.101C776.928 102.964 776.348 102.442 775.992 102.198L776.009 101.944L774.816 101.208C777.479 101.41 786.083 102.75 788.046 101.212C787.549 100.435 785.992 100.349 785.077 100.134Z" fill="#8ABEF8"/>
<path d="M586.339 103.812C592.724 102.045 604.521 102.556 611.518 102.374C618.23 102.2 624.901 101.758 631.621 101.747C628.209 103.517 624.748 102.847 621.183 103.79C617.527 103.584 613.717 103.89 610.04 103.885L586.339 103.812Z" fill="#68AEF4"/>
<path d="M1052.93 30.7295C1054.99 30.7456 1056.98 31.0341 1058.95 31.7016C1064.29 33.5204 1066.88 37.7217 1069.23 42.509C1072.35 40.1979 1075.62 38.5759 1079.11 36.9191C1078.82 41.7409 1077.94 46.6621 1077.31 51.4582C1074.67 49.756 1072.22 47.5076 1069.33 46.2874C1068.18 46.547 1068.06 47.0256 1067.4 47.949C1066.2 49.038 1065 50.0027 1063.58 50.7866C1059.03 53.2999 1053 54.2808 1047.96 52.8051C1042.28 51.1447 1038.87 46.4642 1036.19 41.5302C1037.09 40.3695 1037.87 39.1006 1038.75 37.9189C1042.38 33.0278 1047.2 31.5743 1052.93 30.7295Z" fill="#227FF5"/>
<path d="M521.468 51.0103C521.63 48.576 522.255 43.3771 524.164 41.7071C524.971 41.0012 525.393 41.1113 526.4 41.166C529.501 42.8793 530.47 45.9148 532.089 48.8837C534.648 48.7549 539.898 47.9077 541.881 49.5925C542.395 50.7714 542.233 51.1991 542.026 52.4247L542.871 52.4148C543.633 53.163 543.625 53.3038 543.757 54.3688C542.813 57.3612 539.844 59.357 538.73 62.409C539.227 64.0471 540.122 66.3248 540.051 68.0229C540.871 68.3873 540.9 68.4804 541.26 69.3032C541.215 70.4803 540.971 71.0629 540.217 71.966C539.161 72.5498 537.873 72.5241 536.739 72.2012C534.486 71.5623 531.621 69.5317 529.389 70.7669C529.261 70.8373 529.137 70.9106 529.012 70.9867C527.104 72.3163 524.557 73.9738 522.102 73.5092C521.779 73.4483 521.472 73.3233 521.191 73.1556L520.744 72.2815L522.089 71.8724C520.988 71.3652 520.048 71.0041 519.448 69.8982C518.214 67.625 519.332 64.0789 520.019 61.7494C517.787 60.6215 514.553 59.2713 513.224 57.0817C512.616 56.0805 512.711 55.5169 512.976 54.4454C515.1 51.9109 518.4 51.7001 521.468 51.0103Z" fill="#F5FAFC"/>
<path d="M523.083 52.6421C523.112 52.1804 523.145 51.7195 523.187 51.2587C523.373 49.0555 523.737 44.6022 525.456 43.1787C525.625 43.0379 526.176 43.1613 526.412 43.1845C528.01 44.5148 528.93 46.8659 529.969 48.6443C530.399 49.3768 530.971 50.2985 531.816 50.5258C534.611 51.2765 537.534 49.0832 540.623 50.6405C539.575 50.7531 536.938 50.6782 536.163 51.3042C536.983 51.6102 537.302 51.7013 537.865 52.3659C535.712 55.5041 531.869 57.7524 528.607 59.5271C527.012 59.3751 521.116 58.3565 519.949 59.2157L520.305 59.9925C518.168 59.812 515.063 56.7231 513.431 55.3939C516.702 53.683 519.406 52.9253 523.083 52.6421Z" fill="#B9DBFD"/>
<path d="M540.623 50.6405C540.494 53.4205 538.656 55.3546 536.689 57.1504C536.358 57.4535 536.018 57.7421 535.662 58.0166C536.283 60.2157 538.743 65.926 537.679 67.8352C537.579 68.017 536.863 68.2655 536.652 68.3197C535.625 68.5855 535.505 68.3197 534.793 69.1847C532.979 68.3412 531.145 67.5396 529.294 66.7802C529.745 66.6129 530.163 66.4982 530.445 66.0817C529.654 65.5902 529.36 65.7819 528.462 65.9227C526.698 67.6597 524.739 69.4468 522.342 70.2211L521.373 70.0211L520.884 69.1648C521.033 66.9637 521.315 64.6917 521.331 62.4926C521.34 61.2761 521.137 60.8451 520.305 59.9925L519.949 59.2157C521.116 58.3565 527.012 59.3751 528.607 59.5271C531.869 57.7524 535.712 55.5041 537.865 52.3659C537.302 51.7013 536.983 51.6102 536.163 51.3042C536.938 50.6782 539.575 50.7531 540.623 50.6405Z" fill="#A5DBF8"/>
<path d="M520.884 69.1648C523.646 68.6572 525.646 66.0618 528.081 64.7559L528.685 64.9964L528.462 65.9227C526.698 67.6597 524.739 69.4468 522.342 70.2211L521.373 70.0211L520.884 69.1648Z" fill="#8ABEF8"/>
<path d="M529.294 66.7802C531.145 67.5396 532.979 68.3412 534.793 69.1847C535.613 69.5047 536.461 69.6655 537.323 69.8414C538.573 69.7234 539.236 68.8783 540.051 68.0229C540.871 68.3873 540.9 68.4804 541.26 69.3032C541.215 70.4803 540.971 71.0629 540.217 71.966C539.161 72.5498 537.873 72.5241 536.739 72.2012C534.486 71.5623 531.621 69.5317 529.389 70.7669C529.261 70.8373 529.137 70.9106 529.012 70.9867C527.104 72.3163 524.557 73.9738 522.102 73.5092C521.779 73.4483 521.472 73.3233 521.191 73.1556L520.744 72.2815L522.089 71.8724C522.855 71.3619 523.708 70.9553 524.52 70.5242C526.147 69.3164 527.774 68.121 529.294 66.7802Z" fill="#227FF5"/>
<path d="M542.026 52.4247L542.871 52.4148C543.633 53.163 543.625 53.3038 543.757 54.3688C542.813 57.3612 539.844 59.357 538.73 62.409C538.428 61.901 538.138 61.3915 537.935 60.8354C536.71 57.4803 540.701 55.2594 542.026 52.4247Z" fill="#227FF5"/>
<path d="M471.027 38.5748C480.335 37.2608 485.01 43.0918 486.803 42.9854C488.26 42.8984 490.952 40.283 492.335 39.4816C493.217 38.9682 493.776 38.755 494.761 39.0081C495.49 43.2425 494.96 47.7533 495.697 52.1387C493.941 51.3387 492.053 50.287 490.215 49.7392C485.975 48.4754 485.051 52.5887 482.77 55.0272C481.486 56.3973 479.859 57.319 478.219 58.1947C475.847 59.7702 471.984 60.258 469.209 59.8883C465.425 59.3843 462.381 57.4088 460.1 54.4102C457.968 55.4462 455.843 56.5025 453.728 57.5786C453.342 54.146 452.945 50.783 452.883 47.3248C455.11 47.9326 457.23 49.0725 459.429 49.8216C459.553 49.7578 459.661 49.6862 459.777 49.6067C460.762 48.9131 461.222 46.3882 461.864 45.2387C463.715 41.9312 467.462 39.5835 471.027 38.5748Z" fill="#227FF5"/>
<path d="M771.347 53.4976C771.102 52.4537 770.891 51.6235 771.231 50.5639C773.736 48.0526 776.717 50.0435 779.524 48.8489C780.626 48.3793 781.048 47.0705 781.47 46.032C782.083 44.5397 782.613 42.5725 784.24 41.8997C784.944 41.6073 785.835 41.7614 786.572 41.8748C788.841 43.4922 789.321 48.1748 790.166 50.771C792.944 50.8546 796.488 50.4695 798.712 52.4189C798.865 52.9854 799.068 53.5762 799.151 54.1559C799.697 55.1691 800.161 55.7053 799.801 56.9194C799.126 59.2087 796.517 60.8708 794.559 61.9092C793.855 62.2831 793.449 62.496 792.642 62.4264C793.362 63.4496 793.279 64.8122 793.337 66.0147L792.944 67.9177C793.404 68.0833 793.934 68.2291 794.36 68.468C794.787 68.7094 794.816 69.3139 794.944 69.7735C794.6 70.0344 794.215 70.2642 793.809 70.4141C791.168 71.3859 788.29 69.8961 785.942 68.8315C784.199 69.388 782.315 70.1251 780.506 70.3839C778.174 70.7176 776.887 69.8506 775.065 68.4937C772.866 65.6934 774.518 64.2346 774.361 61.1672C774.274 59.482 772.854 58.7533 771.711 57.7359C770.622 56.7658 770.647 55.5099 770.572 54.1481L771.347 53.4976Z" fill="#FAD795"/>
<path d="M783.168 65.4043C784.038 65.5277 784.891 65.579 785.561 66.2125C787.197 67.3106 789.321 69.0882 791.412 68.6725C791.954 68.5652 792.484 68.2171 792.944 67.9177C793.404 68.0833 793.934 68.2291 794.36 68.468C794.787 68.7094 794.816 69.3139 794.944 69.7735C794.6 70.0344 794.215 70.2642 793.809 70.4141C791.168 71.3859 788.29 69.8961 785.942 68.8315C784.199 69.388 782.315 70.1251 780.506 70.3839C778.174 70.7176 776.887 69.8506 775.065 68.4937L776.096 68.1003C777.938 68.1458 781.806 66.6307 783.168 65.4043Z" fill="#227FF5"/>
<path d="M785.561 66.2125C785.495 65.4155 785.47 64.6714 785.553 63.8747C786.331 63.8143 787.106 63.8213 787.884 63.8259C787.83 62.5729 788.029 61.9058 788.779 60.9084C789.296 60.2189 789.42 59.8749 790.311 59.7461C790.422 59.8695 790.518 59.9974 790.617 60.1299C791.963 61.9303 791.246 64.4792 793.3 65.9864L793.337 66.0147L792.944 67.9177C792.484 68.2171 791.954 68.5652 791.412 68.6725C789.321 69.0882 787.197 67.3106 785.561 66.2125Z" fill="#F8CE91"/>
<path d="M774.841 63.8409L775.375 64.5278C775.997 63.6028 776.692 61.5958 777.591 61.1416L778.473 62.0939L780.825 62.0786C780.841 62.0989 780.853 62.1196 780.87 62.1395C781.976 63.5229 782.597 63.4756 783.168 65.4043C781.806 66.6307 777.938 68.1458 776.096 68.1003C775.657 67.5467 775.139 66.9459 774.821 66.3157C774.386 65.4628 774.56 64.7104 774.841 63.8409Z" fill="#F8CE91"/>
<path d="M771.347 53.4976C772.978 55.095 774.605 56.9342 776.452 58.2753C775.835 60.0947 775.123 61.9337 774.841 63.8409C774.56 64.7104 774.386 65.4628 774.821 66.3157C775.139 66.9459 775.657 67.5467 776.096 68.1003L775.065 68.4937C772.866 65.6934 774.518 64.2346 774.361 61.1672C774.274 59.482 772.854 58.7533 771.711 57.7359C770.622 56.7658 770.647 55.5099 770.572 54.1481L771.347 53.4976Z" fill="#227FF5"/>
<path d="M799.151 54.1559C799.697 55.1691 800.161 55.7053 799.801 56.9194C799.126 59.2087 796.517 60.8708 794.559 61.9092C793.855 62.2831 793.449 62.496 792.642 62.4264C792.625 61.8923 792.625 60.895 792.799 60.4167C793.395 58.8081 797.78 55.7182 799.151 54.1559Z" fill="#227FF5"/>
<path d="M841.576 40.1777C843.58 40.0541 845.874 40.1256 847.845 40.5438C851.886 41.3997 856.205 44.0286 857.865 47.9817C858.411 49.2831 858.639 50.9422 859.405 52.1094C859.517 52.2825 859.633 52.4544 859.753 52.62C860.403 52.7421 866.743 49.5216 868.871 49.1381C867.952 52.9276 868.038 56.7734 867.989 60.6445C864.283 59.3241 861.956 57.7813 859.476 54.7449C857.674 57.06 854.047 58.8914 851.277 59.6611C845.745 61.1965 839.994 60.0988 835.8 56.0807C834.76 55.082 833.8 53.485 832.632 52.7119C831.783 52.1509 830.553 52.4022 829.676 51.8892C829.092 51.5476 828.992 51.167 828.827 50.5211C828.599 49.6048 828.926 48.7232 829.394 47.9403C831.874 43.8046 837.104 41.3061 841.576 40.1777Z" fill="#227FF5"/>
<path d="M367.902 76.5835C364.849 74.9761 362.175 73.1162 360.779 69.826C359.5 66.8133 359.599 63.0139 360.823 59.9999C361.975 57.1317 364.24 54.8523 367.101 53.6817C370.204 52.3832 374.025 52.3799 377.134 53.6619C379.919 54.81 382.095 56.8683 383.254 59.667C384.845 63.5112 384.12 67.4327 382.571 71.1465C380.106 74.1405 376.987 76.8456 372.958 77.2427C371.318 77.4046 369.441 77.1889 367.902 76.5835Z" fill="#CDE3FC"/>
<path d="M371.458 54.0127C376.105 53.7572 380.406 56.4681 382.18 60.7702C383.695 64.4425 383.101 68.6473 380.63 71.7569C378.158 74.867 374.196 76.394 370.277 75.7477C366.357 75.1013 363.095 72.3826 361.753 68.644C360.884 66.2201 360.896 63.5668 361.788 61.1511C363.3 57.0569 367.1 54.252 371.458 54.0127Z" fill="#3E96F7"/>
<path d="M382.18 60.7702C383.695 64.4425 383.101 68.6473 380.63 71.7569C378.158 74.867 374.196 76.394 370.277 75.7477C366.357 75.1013 363.095 72.3826 361.753 68.644C360.884 66.2201 360.896 63.5668 361.788 61.1511L363.109 62.3132L363.626 61.9749L365.577 63.5926C365.489 65.2393 365.398 66.8571 366.09 68.3961C366.769 69.9058 367.935 71.1149 369.498 71.7024C371.105 72.3061 372.94 72.0925 374.481 71.3935C376.609 70.428 378.056 68.7228 378.86 66.5532C379.581 64.6091 379.113 63.6767 378.288 61.8958C379.1 62.6295 379.697 63.1525 380.812 63.369C381.824 62.639 381.83 61.9374 382.18 60.7702Z" fill="#5CA3F7"/>
<path d="M361.788 61.1511L363.109 62.3132C362.054 64.5512 364.136 67.0052 361.753 68.644C360.884 66.2201 360.896 63.5668 361.788 61.1511Z" fill="#3E96F7"/>
<path d="M371.458 54.0127C376.105 53.7572 380.406 56.4681 382.18 60.7702C381.83 61.9374 381.824 62.639 380.812 63.369C379.697 63.1525 379.1 62.6295 378.288 61.8958C377.842 61.2565 377.297 60.6957 376.702 60.1942C374.389 58.2453 370.326 60.8394 367.578 61.0741L365.577 63.5926L363.626 61.9749L363.109 62.3132L361.788 61.1511C363.3 57.0569 367.1 54.252 371.458 54.0127Z" fill="#68AEF4"/>
<path d="M363.626 61.9749C364.084 60.7414 364.878 59.3345 365.894 58.4799C366.665 57.8323 367.631 57.5904 368.618 57.6786L369.176 58.3627C368.991 59.7324 368.481 60.0729 367.578 61.0741L365.577 63.5926L363.626 61.9749Z" fill="#F5FAFC"/>
<path d="M406.874 49.2584C401.774 49.9163 396.886 46.9964 395.047 42.1937C393.209 37.3907 394.897 31.9533 399.133 29.0368C403.369 26.1202 409.051 26.4827 412.882 29.914C416.71 33.3453 417.696 38.9531 415.261 43.4835C416.247 44.2739 416.218 44.324 416.425 45.579C415.791 47.7467 413.24 49.6936 411.306 50.754C411.228 50.7958 411.149 50.8343 411.068 50.8691C409.563 50.9059 406.213 51.3825 404.946 50.7262C404.823 50.6629 404.708 50.6 404.594 50.5221L404.859 49.8832L406.874 49.2584Z" fill="#CDE3FC"/>
<path d="M415.261 43.4835C416.247 44.2739 416.218 44.324 416.425 45.579C415.791 47.7467 413.24 49.6936 411.306 50.754C411.228 50.7958 411.149 50.8343 411.068 50.8691C409.563 50.9059 406.213 51.3825 404.946 50.7262C404.823 50.6629 404.708 50.6 404.594 50.5221L404.859 49.8832L406.874 49.2584C410.438 48.7988 413.559 46.6486 415.261 43.4835Z" fill="#227FF5"/>
<path d="M402.522 28.6129C404.698 28.4051 406.893 28.1945 408.958 29.0693C411.439 30.1105 413.394 32.1082 414.383 34.6102C415.34 37.0207 415.406 40.0779 414.354 42.4693C413.348 44.7495 411.108 46.7764 408.795 47.6641C406.542 48.3639 405.087 48.5593 402.823 47.836C400.265 47.0414 398.136 45.2497 396.915 42.8656C395.673 40.4937 395.428 37.7243 396.235 35.1712C397.278 31.9345 399.594 30.1072 402.522 28.6129Z" fill="#68AEF4"/>
<path d="M400.009 36.854L399.433 36.6591C398.64 35.7652 398.586 35.7351 398.563 34.5471C399.117 33.375 399.791 32.162 401.089 31.6946C401.96 31.3808 402.19 31.4542 402.983 31.8205L403.452 33.3766C405.399 33.1353 407.767 32.8737 409.419 34.1952C410.29 34.8914 410.812 35.9144 410.92 37.0176C411.101 38.8733 410.4 40.7395 409.227 42.1593C408.23 43.3655 406.908 44.2573 405.319 44.4072C404.004 44.531 402.681 43.9808 401.683 43.1464C400.518 42.1725 399.922 40.9022 399.795 39.4002C399.722 38.5458 399.856 37.6928 400.009 36.854Z" fill="#3E96F7"/>
<path d="M400.009 36.854L399.433 36.6591C398.64 35.7652 398.586 35.7351 398.563 34.5471C399.117 33.375 399.791 32.162 401.089 31.6946C401.96 31.3808 402.19 31.4542 402.983 31.8205L403.452 33.3766C401.736 34.3921 401.01 35.1442 400.009 36.854Z" fill="#F5FAFC"/>
<path d="M899.702 34.8219C901.3 34.6323 902.911 34.551 904.521 34.5784C909.151 34.6747 912.323 37.3906 915.358 40.5543C917.482 38.5995 919.858 37.2771 922.364 35.879C922.136 37.3878 921.68 38.9959 921.668 40.51C921.655 42.1563 922.041 43.8196 921.978 45.4572C921.945 46.4687 921.875 46.9606 921.138 47.6517C919.217 47.6285 916.782 45.4609 915.291 44.3119C912.819 46.978 910.592 49.1784 907.085 50.4806C903.35 51.8681 898.741 51.5596 895.135 49.9001C893.284 49.0467 891.441 47.6356 890.725 45.658C890.203 44.227 890.315 42.6937 890.961 41.3219C892.539 37.9647 896.381 36.0144 899.702 34.8219Z" fill="#8ABEF8"/>
<path d="M273.532 26.2188C275.386 27.1434 276.68 29.7674 278.362 31.0172C280 32.2346 283.93 30.2646 285.995 29.9891C289.654 29.5009 292.759 30.4006 295.67 32.6471C298.89 35.1318 299.958 37.3185 300.693 41.1424C300.944 42.4459 302.904 41.6472 303.875 42.3457C303.523 43.4525 302.761 44.51 302.17 45.5075L301.567 45.4164L300.551 43.6496C299.691 44.51 298.825 45.2065 297.746 45.7774C294.655 47.413 291.191 48.5943 287.71 47.507C282.741 45.9543 280.509 41.6691 278.261 37.3906C277.168 36.7841 271.542 38.3137 270.087 38.588C271.734 34.432 272.94 30.6545 273.532 26.2188Z" fill="#8ABEF8"/>
<path d="M979.384 26.0675C983.057 25.1436 986.949 26.2691 989.562 29.0136C992.174 31.7581 993.11 35.6971 992.009 39.324C990.907 42.9508 987.939 45.7047 984.241 46.532C978.626 47.7879 973.041 44.2973 971.711 38.6978C970.382 33.0985 973.802 27.4704 979.384 26.0675Z" fill="#CDE3FC"/>
<path d="M979.148 27.6397C983.268 26.3135 987.756 28.0255 989.943 31.7579C992.129 35.4904 991.433 40.2418 988.266 43.1876C985.094 46.1332 980.307 46.4831 976.742 44.0285C973.181 41.5744 971.798 36.9747 973.422 32.964C974.448 30.4283 976.548 28.4782 979.148 27.6397Z" fill="#68AEF4"/>
<path d="M979.127 32.6148C979.545 32.4994 979.993 32.4038 980.353 32.1484C981.264 31.5003 982.663 31.6233 983.719 31.8122C984.966 32.0343 986.1 32.6463 986.833 33.6952C987.479 34.6124 987.653 35.8435 987.45 36.9337C987.152 38.494 986.237 39.8689 984.916 40.7504C983.574 41.6382 981.935 41.9516 980.361 41.6208C979.206 41.3872 978.075 41.0038 977.396 39.9814C976.73 38.98 976.531 36.8709 976.796 35.7097C976.875 35.3695 976.982 35.0297 977.073 34.6914C977.67 33.6994 978.138 33.2202 979.127 32.6148Z" fill="#3E96F7"/>
<path d="M975.107 33.0437C975.628 32.1652 976.436 30.7364 977.376 30.2603C978.428 29.7264 978.924 29.9556 979.976 30.2753C979.827 31.109 979.752 31.9902 979.127 32.6148C978.138 33.2202 977.67 33.6994 977.073 34.6914C976.721 34.7847 976.486 34.706 976.158 34.5735C975.442 34.2828 975.401 33.7362 975.107 33.0437Z" fill="#F5FAFC"/>
<path d="M127.66 18.7185C131.386 17.9825 135.901 18.8807 138.854 21.314C139.778 22.0761 139.989 22.9281 141.156 23.3492C142.629 21.8917 144.203 20.5657 145.786 19.2306C145.207 23.0361 145.322 26.5003 145.728 30.3201C144.341 29.3633 142.498 27.6051 140.808 27.4374C140.606 27.4175 139.85 28.1477 139.648 28.3139C139.138 28.8792 138.603 29.4217 138.045 29.9397C135.541 32.289 132.207 33.5493 128.775 33.4441C124.158 33.2594 121.591 30.9262 118.641 27.7343L118.691 27.6201C120.639 23.1922 123.135 20.474 127.66 18.7185Z" fill="#8ABEF8"/>
<path d="M109.374 61.4506C109.395 61.4461 109.416 61.4403 109.436 61.4365C110.821 61.1807 116.098 63.0845 117.334 63.9197C118.701 64.8443 120.107 66.3436 120.407 68.0255C120.741 69.8979 119.52 71.3082 118.503 72.7346C116.39 73.8319 114.143 74.6186 111.916 75.448C108.626 75.4894 107.249 75.0596 104.358 73.6696C102.994 73.0133 103.064 74.4514 101.94 74.8464C100.595 73.2829 100.781 69.2896 100.706 67.2545C103.24 63.5189 105.036 62.3649 109.374 61.4506Z" fill="#3E96F7"/>
<path d="M1149.86 57.5675C1150.12 56.3295 1150.36 54.2716 1151.42 53.453C1152.15 52.8907 1152.48 53.0099 1153.34 53.1188C1154.75 53.8761 1155.6 55.708 1156.41 57.0458C1157.71 57.0176 1158.96 57.0247 1160.25 57.1758C1161.24 57.9795 1161.22 58.2768 1161.45 59.4672C1162.16 60.2295 1162.58 60.6063 1162.52 61.7251C1162.41 63.8898 1161.39 66.4968 1159.75 67.9534C1158.82 68.7758 1157.66 69.1107 1156.43 69.0317C1156.13 69.0126 1155.9 68.9103 1155.65 68.7559C1155.51 68.6694 1155.35 68.6168 1155.2 68.5518C1154.76 69.2619 1155.19 69.4093 1155.03 69.8499C1154.81 70.4469 1152.62 71.6461 1151.98 71.8138C1151.06 72.0531 1150.13 71.9102 1149.32 71.4258C1147.97 70.6262 1146.86 68.7849 1146.51 67.2901C1146.31 66.4458 1146.42 65.5109 1146.57 64.667L1147.68 63.181C1146.91 62.6402 1145.74 61.9777 1145.23 61.1864C1144.82 60.5413 1144.91 60.2821 1145.05 59.584C1146.11 58.3642 1148.35 58.0048 1149.86 57.5675Z" fill="#FAD795"/>
<path d="M1161.45 59.4672C1162.16 60.2295 1162.58 60.6063 1162.52 61.7251C1162.41 63.8898 1161.39 66.4968 1159.75 67.9534C1158.82 68.7758 1157.66 69.1107 1156.43 69.0317C1156.13 69.0126 1155.9 68.9103 1155.65 68.7559C1155.51 68.6694 1155.35 68.6168 1155.2 68.5518C1154.76 69.2619 1155.19 69.4093 1155.03 69.8499C1154.81 70.4469 1152.62 71.6461 1151.98 71.8138C1151.06 72.0531 1150.13 71.9102 1149.32 71.4258C1147.97 70.6262 1146.86 68.7849 1146.51 67.2901C1146.31 66.4458 1146.42 65.5109 1146.57 64.667L1147.68 63.181C1148.74 64.6857 1147.84 67.235 1148.78 68.7683C1151.21 67.8089 1153.63 66.1597 1156.11 67.4437C1156.6 67.6975 1157.15 68.0839 1157.72 68.0598C1157.78 68.0574 1157.84 68.0557 1157.89 68.052C1157.98 68.0462 1158.12 68.0545 1158.18 67.9886C1159.23 66.9253 1158.59 63.7536 1159.22 62.3035C1159.63 61.3471 1160.75 60.2506 1161.45 59.4672Z" fill="#227FF5"/>
<path d="M811.95 75.6809C811.536 75.4929 811.117 75.3745 810.832 75.008C810.144 74.1306 810.505 72.6756 810.269 71.5961C809.896 69.8666 808.223 67.3135 808.418 65.6477C809.685 64.5819 811.966 64.8796 812.749 63.707C813.95 61.9191 813.358 60.1564 815.54 58.9424C816.148 59.0517 816.674 59.0339 817.134 59.4695C818.14 60.4293 817.875 62.1969 818.744 63.2006C819.651 64.2461 821.668 64.2428 822.972 64.3678C823.866 65.0208 823.978 65.1272 824.318 66.1785C823.912 67.2261 823.51 67.4365 822.661 68.1304C820.864 69.6037 821.419 71.1307 821.192 73.2747C821.08 74.3542 820.815 74.7832 819.995 75.4436C819.163 75.3359 818.699 75.0867 818.036 74.5819C816.682 76.0291 814.91 77.1922 812.865 77.2419C812.418 77.2531 811.97 77.1023 811.573 76.9081L811.25 76.2904L811.95 75.6809Z" fill="#CDE3FC"/>
<path d="M811.95 75.6809C812.877 75.1252 813.908 74.4449 814.918 74.0739C816.02 73.6702 817.034 74.1377 818.036 74.5819C816.682 76.0291 814.91 77.1922 812.865 77.2419C812.418 77.2531 811.97 77.1023 811.573 76.9081L811.25 76.2904L811.95 75.6809Z" fill="#227FF5"/>
<path d="M815.796 61.334C816.537 62.6466 817.461 64.808 818.889 65.4506C819.572 65.7558 820.181 65.8895 820.74 66.4286C820.69 66.6895 820.608 66.9756 820.467 67.2046C819.262 69.2111 816.927 70.5953 814.769 71.1083C814.616 71.1216 814.467 71.1237 814.318 71.0914C812.48 70.693 812.852 69.5138 811.974 68.5283C811.374 67.8488 810.703 68.0596 810.049 66.9979L810.36 66.3454C811.03 66.2158 811.693 66.0738 812.355 65.9189C814.343 65.4411 814.794 62.9695 815.796 61.334Z" fill="#B9DBFD"/>
<path d="M772.767 20.5778C773.313 20.4861 773.86 20.4982 774.411 20.5558C776.005 20.7234 777.673 21.3988 778.704 22.6734C779.86 24.1089 780.108 25.9159 779.909 27.7049C779.533 31.1234 777.951 32.6208 775.4 34.6642C774.626 34.7084 773.889 34.6312 773.123 34.5412C769.305 32.0981 768.709 28.5743 767.752 24.4301C769.247 22.7281 770.767 21.6304 772.767 20.5778Z" fill="#3E96F7"/>
<path d="M1002.73 55.7605C1004.4 53.4964 1005.34 51.2948 1008.46 50.8194C1009.76 50.6211 1011.03 50.7867 1012.11 51.5871C1013.75 52.8156 1015.31 54.8425 1015.59 56.9202C1015.78 58.309 1015.4 59.7164 1014.54 60.8215C1013.58 62.0757 1012.13 62.8463 1010.57 63.0508C1008.7 63.2951 1006.94 62.7858 1005.46 61.6364C1004.71 61.0518 1004.05 60.3044 1003.41 59.5996C1003.45 58.4278 1002.7 57.1546 1002.73 55.7605Z" fill="#8ABEF8"/>
<path d="M1007.57 55.0384C1007.63 55.0251 1007.7 55.0131 1007.76 55.002C1008.64 54.8529 1009.66 54.8955 1010.4 55.4367C1011.19 56.0106 1011.7 56.6549 1011.85 57.659C1012 58.726 1011.42 59.5045 1010.83 60.3169C1009.83 60.4253 1008.82 60.5214 1007.88 60.0535C1006.76 59.497 1006.53 58.8498 1006.14 57.7592C1006.21 56.4785 1006.73 55.9212 1007.57 55.0384Z" fill="#5CA3F7"/>
<path d="M383.011 72.0087C383.823 71.0335 384.477 70.1504 385.719 69.7218C387.493 69.68 389.516 70.2709 390.824 71.5143C391.883 72.5213 392.452 73.8947 392.488 75.3502C392.527 76.9344 391.896 78.603 390.791 79.7425C389.915 80.646 388.706 81.2311 387.437 81.2439C385.853 81.2601 384.497 80.5255 383.402 79.4241C383.056 79.0726 382.721 78.7099 382.397 78.3376C381.757 77.6979 380.848 76.6934 379.897 76.5894C379.582 76.5551 378.583 76.943 378.236 77.0404C373.695 78.3132 371.886 78.7508 367.253 77.2085L367.902 76.5835C369.441 77.1889 371.318 77.4046 372.958 77.2427C376.987 76.8456 380.106 74.1405 382.571 71.1465L383.011 72.0087Z" fill="#3E96F7"/>
<path d="M383.011 72.0087C383.823 71.0335 384.477 70.1504 385.719 69.7218C387.493 69.68 389.516 70.2709 390.824 71.5143C391.883 72.5213 392.452 73.8947 392.488 75.3502C392.527 76.9344 391.896 78.603 390.791 79.7425C389.915 80.646 388.706 81.2311 387.437 81.2439C385.853 81.2601 384.497 80.5255 383.402 79.4241C383.056 79.0726 382.721 78.7099 382.397 78.3376L383.005 77.6449C383.914 78.4585 384.77 79.0146 385.934 79.4042C387.106 79.7968 388.347 80.0137 389.491 79.427C390.053 79.1384 390.502 78.348 390.683 77.765C391.125 76.3385 391.115 74.4367 390.388 73.1014C389.8 72.0219 389.196 71.8637 388.101 71.5399C387.309 71.9739 387.085 72.5093 386.615 73.2492C385.098 73.373 384.289 72.7395 383.011 72.0087Z" fill="#AACEF8"/>
<path d="M386.615 73.2492C387.934 73.4546 388.025 73.4507 388.913 74.4357C389.136 75.432 389.105 76.4704 388.557 77.3727C388.506 77.4567 388.448 77.5346 388.388 77.6116C387.185 77.2178 386.813 77.1271 385.963 76.1288C385.792 75.1189 385.864 74.3248 386.455 73.4548C386.505 73.3824 386.559 73.3154 386.615 73.2492Z" fill="#227FF5"/>
<path d="M497.887 74.4255C498.794 74.2984 500.165 74.2177 501.022 74.5626C502.136 75.0114 503.059 76.0971 503.519 77.1906C504.239 78.9061 504.127 80.9541 503.432 82.6579C502.748 84.3345 501.572 85.6603 499.895 86.3609C499.394 86.5348 498.873 86.7116 498.351 86.8068C497.486 86.9642 496.181 86.4859 495.465 85.9795C494.745 85.4686 494.273 84.5999 494.14 83.7353C493.581 80.1272 495.925 77.1501 497.887 74.4255Z" fill="#3E96F7"/>
<path d="M350.329 74.2348C352.101 73.5276 354.119 73.8502 355.583 75.075C357.048 76.2998 357.721 78.2293 357.338 80.0992C356.955 81.9691 355.576 83.478 353.748 84.0278C351.087 84.8282 348.268 83.3914 347.352 80.7679C346.436 78.1444 347.748 75.265 350.329 74.2348Z" fill="#AACEF8"/>
<path d="M352.526 75.4579C353.326 75.3242 353.848 75.7242 354.499 76.1312C355.033 78.3841 354.951 79.7468 353.828 81.6983C353.448 81.7248 353.068 81.7289 352.688 81.7099C351.712 81.6544 350.77 81.5227 350.091 80.7554C349.721 78.2081 351.941 77.5763 352.526 75.4579Z" fill="#227FF5"/>
<path d="M1168 68.8686C1169.51 68.045 1171.96 68.3522 1173.63 68.5046C1174.59 69.4301 1175.98 70.4776 1176.17 71.8569C1175.44 73.2684 1172.71 73.7152 1171.44 75.1892C1171.29 75.7515 1170.93 76.2356 1170.62 76.7205C1170.06 76.9411 1169.67 77.185 1169.05 77.089C1167.77 76.8869 1166.57 75.9486 1165.82 74.9019C1164.94 73.6609 1164.87 72.4697 1165.12 71.0126C1166 69.7195 1166.62 69.5373 1168 68.8686Z" fill="#5CA3F7"/>
<path d="M1168 68.8686C1169.51 68.045 1171.96 68.3522 1173.63 68.5046C1174.59 69.4301 1175.98 70.4776 1176.17 71.8569C1175.44 73.2684 1172.71 73.7152 1171.44 75.1892C1170.72 74.8083 1170.05 74.345 1169.37 73.8936L1170.05 73.6676L1171.34 74.5383C1172 74.087 1172.13 73.5243 1172.35 72.7856C1172.27 71.6656 1171.79 70.8346 1171.07 70.001C1170.13 68.9166 1169.31 68.958 1168 68.8686Z" fill="#3E96F7"/>
<path d="M131.195 57.3994C131.216 57.4002 131.237 57.4007 131.258 57.4023C132.152 57.4744 133.122 58.0462 133.689 58.7186C134.504 59.6854 134.789 61.039 134.672 62.275C134.552 63.5553 133.979 64.9039 132.961 65.7291C131.924 66.5705 131.405 66.6115 130.099 66.4794C128.423 65.4331 126.85 64.1598 125.261 62.9835C126.768 60.5645 128.893 58.984 131.195 57.3994Z" fill="#3E96F7"/>
<path d="M631.621 101.747L635.29 101.848L635.364 101.911C637.969 104.043 644.494 103.008 647.811 103.572C639.033 104.211 629.99 103.896 621.183 103.79C624.748 102.847 628.209 103.517 631.621 101.747Z" fill="#B9DBFD" fill-opacity="0.988235"/>
<path d="M1001.67 59.9891C1001.64 58.6198 1001.27 56.0372 1002.09 55.0273L1002.73 55.7605C1002.7 57.1546 1003.45 58.4278 1003.41 59.5996C1001.56 60.441 999.942 60.3642 997.963 60.3174C998.675 59.8499 1000.75 60.0197 1001.67 59.9891Z" fill="#3E96F7"/>
<path d="M1265.45 46.9406C1268.7 44.0057 1272.38 40.9718 1277.05 41.1996C1279.42 41.3052 1281.65 42.3469 1283.25 44.0955C1284.73 45.7389 1285.55 48.1956 1285.41 50.4029C1285.38 50.8791 1285.36 51.1425 1285.09 51.5362C1284.66 51.9267 1284.52 52.3221 1284.26 52.8231C1283.79 53.7204 1283.12 54.5026 1282.17 54.8015C1281.41 53.7825 1281.48 53.0132 1281.36 51.7747C1279.19 52.1929 1278.02 53.7183 1276.67 55.3477L1275.78 57.5136C1275.84 59.6129 1275.53 61.8348 1276.52 63.7523C1276.86 63.8819 1277.27 64.0803 1277.63 64.1295C1276.57 66.1191 1277.04 67.9029 1277.67 69.979C1278.06 71.2655 1278.75 73.0273 1279.76 73.9573L1280.46 73.9093L1280.42 74.2111C1280.44 77.712 1280.11 81.1872 1279.82 84.6716C1283.07 83.2841 1287.73 82.7536 1291.11 84.1188C1292.03 84.4915 1294.49 85.5229 1294.89 86.4814C1294.91 86.5332 1294.92 86.5473 1294.94 86.6057C1294.94 88.4545 1295.26 90.9736 1293.87 92.3702C1293.55 92.6928 1293.21 92.9876 1292.85 93.2733L1292.99 93.6832C1292.78 95.6869 1292.31 97.5212 1291.76 99.4491C1292.51 99.7849 1292.8 99.7319 1293.57 99.4387C1295.02 98.8917 1296.48 96.7494 1297.08 95.4057C1297.27 94.9689 1297.43 94.5188 1297.55 94.0584C1297.65 96.6575 1297.94 98.7406 1296.02 100.803C1292.77 104.299 1286.35 104.286 1281.95 105.102H1276.14H1270.59H1268.3L1263.7 105.102C1263.12 101.651 1261.92 98.7348 1260.98 95.407C1260.94 93.5723 1259.56 91.1534 1258.78 89.4781C1258.92 88.7737 1258.43 87.9191 1258.16 87.2715C1258.09 84.347 1256.21 77.539 1257.06 75.2989C1257.39 75.7738 1257.6 76.038 1258.18 76.2256C1258.27 76.1564 1258.35 76.0815 1258.44 76.0028C1259.37 75.1279 1260.3 71.8779 1261.04 70.5699C1261.1 66.8752 1259.93 62.475 1260.81 58.9124C1261.05 55.9903 1262.4 53.713 1263.65 51.1292C1264.17 50.5951 1264.81 49.9873 1265.05 49.2755C1265.31 48.4859 1265.27 48.2759 1264.92 47.5662L1265.45 46.9406Z" fill="#CDE3FC"/>
<path d="M1279.82 84.6716C1283.07 83.2841 1287.73 82.7536 1291.11 84.1188C1292.03 84.4915 1294.49 85.5229 1294.89 86.4814C1294.91 86.5332 1294.92 86.5473 1294.94 86.6057C1294.94 88.4545 1295.26 90.9736 1293.87 92.3702C1293.55 92.6928 1293.21 92.9876 1292.85 93.2733L1292.99 93.6832C1292.78 95.6869 1292.31 97.5212 1291.76 99.4491C1292.51 99.7849 1292.8 99.7319 1293.57 99.4387C1295.02 98.8917 1296.48 96.7494 1297.08 95.4057C1297.27 94.9689 1297.43 94.5188 1297.55 94.0584C1297.65 96.6575 1297.94 98.7406 1296.02 100.803C1292.77 104.299 1286.35 104.286 1281.95 105.102H1276.14H1270.59C1270.64 103.362 1270.81 102.009 1271.51 100.402C1271.58 100.223 1271.65 100.04 1271.71 99.8542C1272.37 97.7603 1273.12 95.2821 1272.1 93.3174C1272.72 90.6537 1274.47 88.1205 1276.54 86.357C1277.42 85.6013 1278.58 84.5685 1279.82 84.6716Z" fill="#B9DBFD"/>
<path d="M1277.27 99.7175C1277.58 99.4467 1280.22 97.9176 1280.24 97.7884C1280.44 96.6791 1279.62 95.8021 1280.34 94.5293C1281.24 92.9203 1283.43 92.047 1285.12 91.5791C1286.25 92.7505 1287.69 94.6916 1289.41 94.7069C1290.58 94.7177 1291.91 94.0932 1292.99 93.6832C1292.78 95.6869 1292.31 97.5212 1291.76 99.4491C1292.51 99.7849 1292.8 99.7319 1293.57 99.4387C1295.02 98.8917 1296.48 96.7494 1297.08 95.4057C1297.27 94.9689 1297.43 94.5188 1297.55 94.0584C1297.65 96.6575 1297.94 98.7406 1296.02 100.803C1292.77 104.299 1286.35 104.286 1281.95 105.102H1276.14H1270.59C1270.64 103.362 1270.81 102.009 1271.51 100.402L1271.63 102.976L1272.11 103.389C1272.99 102.682 1273.89 102.001 1274.82 101.346C1275.47 100.9 1276.06 100.315 1276.65 99.7924L1277.27 99.7175Z" fill="#85C9EA"/>
<path d="M1277.27 99.7175C1279.9 99.1461 1281.9 98.6035 1284.37 100.155C1284.63 100.324 1284.82 100.594 1284.94 100.878C1284.44 101.775 1283.24 102.063 1282.31 102.325C1279.82 103.03 1278.15 103.282 1276.14 105.102H1270.59C1270.64 103.362 1270.81 102.009 1271.51 100.402L1271.63 102.976L1272.11 103.389C1272.99 102.682 1273.89 102.001 1274.82 101.346C1275.47 100.9 1276.06 100.315 1276.65 99.7924L1277.27 99.7175Z" fill="#8ABEF8"/>
<path d="M1273.6 93.3814C1275.26 91.5922 1280.77 86.8392 1283.13 86.6835C1283.68 86.6471 1284.14 86.732 1284.56 87.0914C1286.37 88.6346 1285.61 92.0891 1288.16 93.4452C1289.82 94.3296 1291.18 93.7851 1292.85 93.2733L1292.99 93.6832C1291.91 94.0932 1290.58 94.7177 1289.41 94.7069C1287.69 94.6916 1286.25 92.7505 1285.12 91.5791C1283.43 92.047 1281.24 92.9203 1280.34 94.5293C1279.62 95.8021 1280.44 96.6791 1280.24 97.7884C1280.22 97.9176 1277.58 99.4467 1277.27 99.7175L1276.65 99.7924C1276.06 100.315 1275.47 100.9 1274.82 101.346C1274.71 101.266 1274.61 101.179 1274.52 101.078C1273.1 99.529 1273.49 95.3561 1273.6 93.3814Z" fill="#AACEF8"/>
<path d="M1270.16 56.6296C1270.35 56.4805 1270.59 56.3526 1270.83 56.3074C1271.7 56.1489 1272.44 56.3302 1273.14 56.8337C1272.99 57.2548 1272.84 57.6391 1272.88 58.0945C1273.4 57.5948 1273.48 57.4387 1274.23 57.3571C1274.28 58.2076 1274.34 59.0572 1274.41 59.9065C1274.95 57.5608 1274.9 57.1484 1276.67 55.3477L1275.78 57.5136C1275.84 59.6129 1275.53 61.8348 1276.52 63.7523C1276.86 63.8819 1277.27 64.0803 1277.63 64.1295C1276.57 66.1191 1277.04 67.9029 1277.67 69.979C1278.06 71.2655 1278.75 73.0273 1279.76 73.9573L1280.46 73.9093L1280.42 74.2111C1280.44 77.712 1280.11 81.1872 1279.82 84.6716C1278.58 84.5685 1277.42 85.6013 1276.54 86.357C1274.47 88.1205 1272.72 90.6537 1272.1 93.3174C1271.48 92.7294 1270.93 91.5247 1270.73 90.7024C1270.38 89.2416 1271.36 85.9489 1272.15 84.6894C1272.64 79.7107 1270.45 73.8008 1269.22 68.9235C1269.46 66.7083 1269.99 64.6545 1270.09 62.39C1269.8 60.145 1271.56 59.0071 1271.49 57.0122L1270.16 56.6296Z" fill="#AACEF8"/>
<path d="M1272.15 84.6894L1272.73 84.8225C1274.2 83.1394 1272.86 79.7701 1274.1 77.6994C1275.67 77.1516 1277.07 78.528 1278.85 78.5048C1279.85 77.533 1279.29 75.4628 1280.42 74.2111C1280.44 77.712 1280.11 81.1872 1279.82 84.6716C1278.58 84.5685 1277.42 85.6013 1276.54 86.357C1274.47 88.1205 1272.72 90.6537 1272.1 93.3174C1271.48 92.7294 1270.93 91.5247 1270.73 90.7024C1270.38 89.2416 1271.36 85.9489 1272.15 84.6894Z" fill="#8ABEF8"/>
<path d="M1270.16 56.6296C1270.35 56.4805 1270.59 56.3526 1270.83 56.3074C1271.7 56.1489 1272.44 56.3302 1273.14 56.8337C1272.99 57.2548 1272.84 57.6391 1272.88 58.0945C1273.4 57.5948 1273.48 57.4387 1274.23 57.3571C1274.28 58.2076 1274.34 59.0572 1274.41 59.9065C1274.95 57.5608 1274.9 57.1484 1276.67 55.3477L1275.78 57.5136L1275.73 57.5832C1273.87 60.5056 1277.06 66.0677 1274.36 68.3492C1273.31 68.4155 1272.63 68.4424 1271.73 67.8147C1270.71 66.1207 1271.32 64.2471 1270.09 62.39C1269.8 60.145 1271.56 59.0071 1271.49 57.0122L1270.16 56.6296Z" fill="#A5DBF8"/>
<path d="M1262.34 60.3127C1262.44 58.7434 1262.64 57.2433 1263.06 55.7245C1264.04 52.1922 1266.15 49.0859 1269.38 47.2739C1271.98 45.816 1274.96 45.3079 1277.85 46.1344C1279.16 46.5071 1280.3 47.2073 1280.97 48.4171C1281.52 49.4163 1281.67 50.6742 1281.36 51.7747C1279.19 52.1929 1278.02 53.7183 1276.67 55.3477C1274.9 57.1484 1274.95 57.5608 1274.41 59.9065C1274.34 59.0572 1274.28 58.2076 1274.23 57.3571C1273.48 57.4387 1273.4 57.5948 1272.88 58.0945C1272.84 57.6391 1272.99 57.2548 1273.14 56.8337C1272.44 56.3302 1271.7 56.1489 1270.83 56.3074C1270.59 56.3526 1270.35 56.4805 1270.16 56.6296C1269.29 58.1148 1268.78 59.707 1268.23 61.3251C1266.51 61.3222 1264.47 61.2874 1263.05 60.2022L1262.98 60.1475L1262.34 60.3127Z" fill="#B9DBFD"/>
<path d="M1268.03 68.8516L1269.22 68.9235C1270.45 73.8008 1272.64 79.7107 1272.15 84.6894C1271.36 85.9489 1270.38 89.2416 1270.73 90.7024C1270.93 91.5247 1271.48 92.7294 1272.1 93.3174C1273.12 95.2821 1272.37 97.7603 1271.71 99.8542C1271.65 100.04 1271.58 100.223 1271.51 100.402C1270.81 102.009 1270.64 103.362 1270.59 105.102H1268.3L1263.7 105.102C1263.12 101.651 1261.92 98.7348 1260.98 95.407C1261.4 96.1047 1261.89 96.7391 1262.39 97.3834C1262.93 96.5946 1262.64 94.0957 1262.63 93.0784C1263.4 92.1103 1265.2 91.885 1266.41 91.5517L1267.33 92.3935C1269.78 87.7158 1269.1 84.0427 1268.58 79.0077C1268.59 76.6898 1268.49 74.506 1268.13 72.21L1268.03 68.8516Z" fill="#68AEF4"/>
<path d="M1260.98 95.407C1261.4 96.1047 1261.89 96.7391 1262.39 97.3834C1262.93 96.5946 1262.64 94.0957 1262.63 93.0784C1263.4 92.1103 1265.2 91.885 1266.41 91.5517L1267.33 92.3935C1266.06 97.0434 1268.48 100.427 1268.3 105.102L1263.7 105.102C1263.12 101.651 1261.92 98.7348 1260.98 95.407Z" fill="#85C9EA"/>
<path d="M1270.16 56.6296L1271.49 57.0122C1271.56 59.0071 1269.8 60.145 1270.09 62.39C1269.99 64.6545 1269.46 66.7083 1269.22 68.9235L1268.03 68.8516L1268.13 72.21C1266.67 72.3939 1265.97 72.2838 1264.86 73.3061C1264.39 75.0013 1265.52 76.6803 1264.79 78.0649L1263.76 78.1929C1263.64 72.1716 1262.2 66.467 1262.34 60.3127L1262.98 60.1475L1263.05 60.2022C1264.47 61.2874 1266.51 61.3222 1268.23 61.3251C1268.78 59.707 1269.29 58.1148 1270.16 56.6296Z" fill="#AACEF8"/>
<path d="M1270.16 56.6296L1271.49 57.0122C1271.56 59.0071 1269.8 60.145 1270.09 62.39C1269.99 64.6545 1269.46 66.7083 1269.22 68.9235L1268.03 68.8516C1267.87 66.0231 1267.86 64.149 1268.23 61.3251C1268.78 59.707 1269.29 58.1148 1270.16 56.6296Z" fill="#85C9EA"/>
<path d="M1263.76 78.1929L1264.79 78.0649C1265.52 76.6803 1264.39 75.0013 1264.86 73.3061C1265.97 72.2838 1266.67 72.3939 1268.13 72.21C1268.49 74.506 1268.59 76.6898 1268.58 79.0077C1268.6 79.611 1268.6 80.2146 1268.59 80.8183C1268.57 83.1702 1266.88 89.3753 1265.21 90.9136C1264.32 91.7289 1263.64 91.567 1262.55 91.4999L1261.71 92.4974C1261.23 90.3045 1261.15 88.1464 1261.07 85.9134C1262.33 83.1325 1264.34 81.425 1263.76 78.1929Z" fill="#A5DBF8"/>
<path d="M48.0051 25.8497C51.8285 23.4765 61.1805 14.9679 66.8081 14.4499C67.1878 15.3618 67.2288 15.4245 68.1314 15.8235C69.2659 15.6301 70.3433 15.5149 71.4948 15.4964C65.4797 18.6234 58.2353 21.2449 53.1179 25.7819C51.6977 27.0407 46.1733 33.5272 46.0428 33.6134C45.9319 33.6867 45.8238 33.7571 45.7066 33.8207C45.8358 31.2639 46.6374 29.0269 47.6763 26.7268L48.0051 25.8497Z" fill="#3E96F7" fill-opacity="0.988235"/>
<path d="M1276.67 55.3477C1278.02 53.7183 1279.19 52.1929 1281.36 51.7747C1281.48 53.0132 1281.41 53.7825 1282.17 54.8015C1283.12 54.5026 1283.79 53.7204 1284.26 52.8231C1284.52 52.3221 1284.66 51.9267 1285.09 51.5362C1285.17 52.7362 1285.37 54.3526 1285.09 55.5215C1283.92 60.4799 1279.16 62.8115 1280.15 68.8282C1278.76 67.3715 1279.02 65.3903 1277.63 64.1295C1277.27 64.0803 1276.86 63.8819 1276.52 63.7523C1275.53 61.8348 1275.84 59.6129 1275.78 57.5136L1276.67 55.3477Z" fill="#85C9EA"/>
<path d="M1294.94 86.6057C1296.92 88.7012 1297.66 90.4509 1297.58 93.3398C1297.57 93.5795 1297.57 93.8191 1297.55 94.0584C1297.43 94.5188 1297.27 94.9689 1297.08 95.4057C1296.48 96.7494 1295.02 98.8917 1293.57 99.4387C1292.8 99.7319 1292.51 99.7849 1291.76 99.4491C1292.31 97.5212 1292.78 95.6869 1292.99 93.6832L1292.85 93.2733C1293.21 92.9876 1293.55 92.6928 1293.87 92.3702C1295.26 90.9736 1294.94 88.4545 1294.94 86.6057Z" fill="#A5DBF8" fill-opacity="0.988235"/>
<path d="M1277.63 64.1295C1279.02 65.3903 1278.76 67.3715 1280.15 68.8282C1280.97 69.8907 1280.6 72.5793 1280.46 73.9093L1279.76 73.9573C1278.75 73.0273 1278.06 71.2655 1277.67 69.979C1277.04 67.9029 1276.57 66.1191 1277.63 64.1295Z" fill="var(--fill-0, #F5FAFC)" fill-opacity="0.988235"/>
</g>
</svg>
