<svg width="5760" height="1600" viewBox="0 0 5760 1600" fill="none" xmlns="http://www.w3.org/2000/svg">
<g clip-path="url(#clip0_906_223250)">
<rect width="5760" height="1600" fill="url(#paint0_linear_906_223250)"/>
<g opacity="0.1">
<mask id="path-1-outside-1_906_223250" maskUnits="userSpaceOnUse" x="0" y="0" width="2372" height="367" fill="black">
<rect fill="white" width="2372" height="367"/>
<path d="M304.4 299.6C309.467 306.267 312 312.533 312 318.4C312.267 324 310.267 328.4 306 331.6C301.733 335.067 296 336.8 288.8 336.8H288C280 336.8 273.333 335.067 268 331.6C262.933 328.4 257.6 322.533 252 314L210.4 252C207.2 247.2 205.867 242.533 206.4 238C206.933 233.467 208.933 229.733 212.4 226.8C215.867 223.867 220.133 222.4 225.2 222.4H226C233.2 222.4 239.333 223.733 244.4 226.4C249.467 229.067 254.267 233.333 258.8 239.2L304.4 299.6ZM184.4 284.8C203.6 284.8 220.667 280.533 235.6 272C250.8 263.2 262.667 251.2 271.2 236C279.733 220.533 284 203.067 284 183.6C284 163.867 279.733 146.267 271.2 130.8C262.667 115.067 250.8 102.8 235.6 94C220.667 85.2 203.6 80.8 184.4 80.8C165.2 80.8 148 85.2 132.8 94C117.867 102.8 106.133 115.067 97.6 130.8C89.0667 146.267 84.8 163.867 84.8 183.6C84.8 203.067 89.0667 220.533 97.6 236C106.133 251.2 117.867 263.2 132.8 272C148 280.533 165.2 284.8 184.4 284.8ZM184.4 335.6C156.667 335.6 130.933 328.8 107.2 315.2C83.7333 301.6 64.9333 283.2 50.8 260C36.9333 236.8 30 211.333 30 183.6C30 155.867 36.9333 130.267 50.8 106.8C64.9333 83.0667 83.7333 64.4 107.2 50.8C130.933 36.9333 156.667 30 184.4 30C212.133 30 237.733 36.9333 261.2 50.8C284.933 64.4 303.733 83.0667 317.6 106.8C331.733 130.267 338.8 155.867 338.8 183.6C338.8 211.333 331.867 236.8 318 260C304.4 283.2 285.733 301.6 262 315.2C238.533 328.8 212.667 335.6 184.4 335.6Z"/>
<path d="M386.941 60.8C386.941 52.2667 389.207 45.7333 393.741 41.2C398.274 36.6667 404.807 34.4 413.341 34.4H414.141C422.674 34.4 429.207 36.6667 433.741 41.2C438.274 45.7333 440.541 52.2667 440.541 60.8V216.8C440.541 230.667 442.941 242.533 447.741 252.4C452.807 262.267 459.741 269.867 468.541 275.2C477.607 280.533 488.007 283.2 499.741 283.2C511.474 283.2 521.874 280.667 530.941 275.6C540.007 270.267 546.941 262.667 551.741 252.8C556.807 242.667 559.341 230.667 559.341 216.8V60.8C559.341 52.2667 561.607 45.7333 566.141 41.2C570.674 36.6667 577.207 34.4 585.741 34.4H586.541C595.074 34.4 601.607 36.6667 606.141 41.2C610.674 45.7333 612.941 52.2667 612.941 60.8V216.8C612.941 238.4 607.741 258.267 597.341 276.4C587.207 294.533 573.474 308.933 556.141 319.6C538.807 330 520.007 335.2 499.741 335.2C479.474 335.2 460.674 330 443.341 319.6C426.007 308.933 412.274 294.533 402.141 276.4C392.007 258.267 386.941 238.4 386.941 216.8V60.8Z"/>
<path d="M898.859 299.2C901.793 307.467 901.259 314.8 897.259 321.2C893.259 327.6 886.859 330.8 878.059 330.8H876.459C867.659 330.8 860.593 328.267 855.259 323.2C850.193 317.867 845.926 310.133 842.459 300L764.859 86.4H787.259L709.659 300C705.926 310.133 701.526 317.867 696.459 323.2C691.659 328.267 684.726 330.8 675.659 330.8H674.059C665.526 330.8 659.126 327.6 654.859 321.2C650.859 314.8 650.326 307.467 653.259 299.2L741.259 57.6C747.126 42.1333 758.593 34.4 775.659 34.4H776.459C793.526 34.4 804.993 42.1333 810.859 57.6L898.859 299.2ZM842.059 202.8V254.8H710.059V202.8H842.059Z"/>
<path d="M1112.88 60.8C1112.88 52.2667 1115.15 45.7333 1119.68 41.2C1124.22 36.6667 1130.75 34.4 1139.28 34.4H1140.08C1148.62 34.4 1155.15 36.6667 1159.68 41.2C1164.22 45.7333 1166.48 52.2667 1166.48 60.8V302.8C1166.48 311.867 1164.35 318.8 1160.08 323.6C1156.08 328.4 1150.35 330.8 1142.88 330.8H1140.88C1133.15 330.8 1126.62 329.333 1121.28 326.4C1115.95 323.467 1111.28 318.8 1107.28 312.4L992.884 132V304.4C992.884 312.933 990.618 319.467 986.084 324C981.551 328.533 975.018 330.8 966.484 330.8H965.684C957.151 330.8 950.618 328.533 946.084 324C941.551 319.467 939.284 312.933 939.284 304.4V62.4C939.284 53.3333 941.284 46.4 945.284 41.6C949.551 36.8 955.551 34.4 963.284 34.4H964.884C972.618 34.4 979.151 35.8667 984.484 38.8C989.818 41.7333 994.484 46.4 998.484 52.8L1112.88 233.2V60.8Z"/>
<path d="M1269.97 330.8C1256.11 330.8 1245.44 327.2 1237.97 320C1230.77 312.533 1227.18 301.867 1227.18 288V77.2C1227.18 63.3333 1230.77 52.8 1237.97 45.6C1245.44 38.1333 1256.11 34.4 1269.97 34.4H1280.78V330.8H1269.97ZM1275.57 278.8H1326.78C1347.04 278.8 1363.84 274.8 1377.18 266.8C1390.78 258.8 1400.78 247.6 1407.18 233.2C1413.84 218.8 1417.18 202 1417.18 182.8C1417.18 163.067 1413.97 146 1407.57 131.6C1401.17 117.2 1391.17 106.133 1377.57 98.4C1364.24 90.4 1347.31 86.4 1326.78 86.4H1275.57V34.4H1326.78C1356.91 34.4 1382.77 41.2 1404.38 54.8C1426.24 68.4 1442.77 86.5333 1453.97 109.2C1465.17 131.867 1470.78 156.4 1470.78 182.8C1470.78 208.667 1465.17 232.933 1453.97 255.6C1442.77 278.267 1426.24 296.533 1404.38 310.4C1382.77 324 1356.91 330.8 1326.78 330.8H1275.57V278.8Z"/>
<path d="M1658.97 284.4C1678.17 284.4 1695.11 280.133 1709.77 271.6C1724.71 263.067 1736.31 251.2 1744.57 236C1752.84 220.533 1756.97 202.933 1756.97 183.2C1756.97 163.467 1752.84 145.867 1744.57 130.4C1736.31 114.933 1724.71 102.8 1709.77 94C1694.84 85.2 1677.91 80.8 1658.97 80.8C1640.04 80.8 1623.11 85.2 1608.17 94C1593.24 102.8 1581.64 114.933 1573.37 130.4C1565.11 145.867 1560.97 163.467 1560.97 183.2C1560.97 202.933 1565.11 220.533 1573.37 236C1581.64 251.2 1593.11 263.067 1607.77 271.6C1622.71 280.133 1639.77 284.4 1658.97 284.4ZM1658.97 335.2C1631.24 335.2 1605.64 328.4 1582.17 314.8C1558.97 301.2 1540.44 282.8 1526.57 259.6C1512.97 236.4 1506.17 210.933 1506.17 183.2C1506.17 155.467 1512.97 129.867 1526.57 106.4C1540.44 82.9333 1559.11 64.4 1582.57 50.8C1606.04 36.9333 1631.51 30 1658.97 30C1686.44 30 1711.91 36.9333 1735.37 50.8C1758.84 64.4 1777.37 82.9333 1790.97 106.4C1804.84 129.867 1811.77 155.467 1811.77 183.2C1811.77 210.933 1804.84 236.4 1790.97 259.6C1777.37 282.8 1758.84 301.2 1735.37 314.8C1712.17 328.4 1686.71 335.2 1658.97 335.2Z"/>
<path d="M1913.2 304.4C1913.2 312.933 1910.93 319.467 1906.4 324C1901.86 328.533 1895.33 330.8 1886.8 330.8H1886C1877.46 330.8 1870.93 328.533 1866.4 324C1861.86 319.467 1859.6 312.933 1859.6 304.4V77.2C1859.6 63.3333 1863.2 52.8 1870.4 45.6C1877.86 38.1333 1888.53 34.4 1902.4 34.4H1913.2V304.4ZM1904 163.2H1958.8C1967.86 163.2 1975.6 161.467 1982 158C1988.4 154.533 1993.2 149.867 1996.4 144C1999.6 138.133 2001.2 131.6 2001.2 124.4C2001.2 117.2 1999.6 110.8 1996.4 105.2C1993.2 99.3333 1988.4 94.8 1982 91.6C1975.6 88.1333 1967.86 86.4 1958.8 86.4H1904V34.4H1958.8C1976.93 34.4 1993.33 38.8 2008 47.6C2022.66 56.1333 2034.13 67.3333 2042.4 81.2C2050.66 95.0667 2054.8 109.467 2054.8 124.4C2054.8 139.067 2050.66 153.467 2042.4 167.6C2034.13 181.467 2022.66 192.933 2008 202C1993.33 210.8 1976.93 215.2 1958.8 215.2H1904V163.2ZM1989.2 187.6L2052 297.2C2057.33 306.8 2058.13 314.8 2054.4 321.2C2050.93 327.6 2044 330.8 2033.6 330.8H2032.4C2024.4 330.8 2017.46 328.8 2011.6 324.8C2006 320.533 2000.93 314 1996.4 305.2L1935.6 187.6H1989.2Z"/>
<path d="M2339.88 299.2C2342.81 307.467 2342.27 314.8 2338.27 321.2C2334.27 327.6 2327.87 330.8 2319.07 330.8H2317.48C2308.68 330.8 2301.61 328.267 2296.27 323.2C2291.21 317.867 2286.94 310.133 2283.48 300L2205.88 86.4H2228.27L2150.68 300C2146.94 310.133 2142.54 317.867 2137.48 323.2C2132.68 328.267 2125.74 330.8 2116.68 330.8H2115.07C2106.54 330.8 2100.14 327.6 2095.88 321.2C2091.88 314.8 2091.34 307.467 2094.27 299.2L2182.27 57.6C2188.14 42.1333 2199.61 34.4 2216.68 34.4H2217.48C2234.54 34.4 2246.01 42.1333 2251.88 57.6L2339.88 299.2ZM2283.07 202.8V254.8H2151.07V202.8H2283.07Z"/>
</mask>
<path d="M304.4 299.6C309.467 306.267 312 312.533 312 318.4C312.267 324 310.267 328.4 306 331.6C301.733 335.067 296 336.8 288.8 336.8H288C280 336.8 273.333 335.067 268 331.6C262.933 328.4 257.6 322.533 252 314L210.4 252C207.2 247.2 205.867 242.533 206.4 238C206.933 233.467 208.933 229.733 212.4 226.8C215.867 223.867 220.133 222.4 225.2 222.4H226C233.2 222.4 239.333 223.733 244.4 226.4C249.467 229.067 254.267 233.333 258.8 239.2L304.4 299.6ZM184.4 284.8C203.6 284.8 220.667 280.533 235.6 272C250.8 263.2 262.667 251.2 271.2 236C279.733 220.533 284 203.067 284 183.6C284 163.867 279.733 146.267 271.2 130.8C262.667 115.067 250.8 102.8 235.6 94C220.667 85.2 203.6 80.8 184.4 80.8C165.2 80.8 148 85.2 132.8 94C117.867 102.8 106.133 115.067 97.6 130.8C89.0667 146.267 84.8 163.867 84.8 183.6C84.8 203.067 89.0667 220.533 97.6 236C106.133 251.2 117.867 263.2 132.8 272C148 280.533 165.2 284.8 184.4 284.8ZM184.4 335.6C156.667 335.6 130.933 328.8 107.2 315.2C83.7333 301.6 64.9333 283.2 50.8 260C36.9333 236.8 30 211.333 30 183.6C30 155.867 36.9333 130.267 50.8 106.8C64.9333 83.0667 83.7333 64.4 107.2 50.8C130.933 36.9333 156.667 30 184.4 30C212.133 30 237.733 36.9333 261.2 50.8C284.933 64.4 303.733 83.0667 317.6 106.8C331.733 130.267 338.8 155.867 338.8 183.6C338.8 211.333 331.867 236.8 318 260C304.4 283.2 285.733 301.6 262 315.2C238.533 328.8 212.667 335.6 184.4 335.6Z" fill="white"/>
<path d="M386.941 60.8C386.941 52.2667 389.207 45.7333 393.741 41.2C398.274 36.6667 404.807 34.4 413.341 34.4H414.141C422.674 34.4 429.207 36.6667 433.741 41.2C438.274 45.7333 440.541 52.2667 440.541 60.8V216.8C440.541 230.667 442.941 242.533 447.741 252.4C452.807 262.267 459.741 269.867 468.541 275.2C477.607 280.533 488.007 283.2 499.741 283.2C511.474 283.2 521.874 280.667 530.941 275.6C540.007 270.267 546.941 262.667 551.741 252.8C556.807 242.667 559.341 230.667 559.341 216.8V60.8C559.341 52.2667 561.607 45.7333 566.141 41.2C570.674 36.6667 577.207 34.4 585.741 34.4H586.541C595.074 34.4 601.607 36.6667 606.141 41.2C610.674 45.7333 612.941 52.2667 612.941 60.8V216.8C612.941 238.4 607.741 258.267 597.341 276.4C587.207 294.533 573.474 308.933 556.141 319.6C538.807 330 520.007 335.2 499.741 335.2C479.474 335.2 460.674 330 443.341 319.6C426.007 308.933 412.274 294.533 402.141 276.4C392.007 258.267 386.941 238.4 386.941 216.8V60.8Z" fill="white"/>
<path d="M898.859 299.2C901.793 307.467 901.259 314.8 897.259 321.2C893.259 327.6 886.859 330.8 878.059 330.8H876.459C867.659 330.8 860.593 328.267 855.259 323.2C850.193 317.867 845.926 310.133 842.459 300L764.859 86.4H787.259L709.659 300C705.926 310.133 701.526 317.867 696.459 323.2C691.659 328.267 684.726 330.8 675.659 330.8H674.059C665.526 330.8 659.126 327.6 654.859 321.2C650.859 314.8 650.326 307.467 653.259 299.2L741.259 57.6C747.126 42.1333 758.593 34.4 775.659 34.4H776.459C793.526 34.4 804.993 42.1333 810.859 57.6L898.859 299.2ZM842.059 202.8V254.8H710.059V202.8H842.059Z" fill="white"/>
<path d="M1112.88 60.8C1112.88 52.2667 1115.15 45.7333 1119.68 41.2C1124.22 36.6667 1130.75 34.4 1139.28 34.4H1140.08C1148.62 34.4 1155.15 36.6667 1159.68 41.2C1164.22 45.7333 1166.48 52.2667 1166.48 60.8V302.8C1166.48 311.867 1164.35 318.8 1160.08 323.6C1156.08 328.4 1150.35 330.8 1142.88 330.8H1140.88C1133.15 330.8 1126.62 329.333 1121.28 326.4C1115.95 323.467 1111.28 318.8 1107.28 312.4L992.884 132V304.4C992.884 312.933 990.618 319.467 986.084 324C981.551 328.533 975.018 330.8 966.484 330.8H965.684C957.151 330.8 950.618 328.533 946.084 324C941.551 319.467 939.284 312.933 939.284 304.4V62.4C939.284 53.3333 941.284 46.4 945.284 41.6C949.551 36.8 955.551 34.4 963.284 34.4H964.884C972.618 34.4 979.151 35.8667 984.484 38.8C989.818 41.7333 994.484 46.4 998.484 52.8L1112.88 233.2V60.8Z" fill="white"/>
<path d="M1269.97 330.8C1256.11 330.8 1245.44 327.2 1237.97 320C1230.77 312.533 1227.18 301.867 1227.18 288V77.2C1227.18 63.3333 1230.77 52.8 1237.97 45.6C1245.44 38.1333 1256.11 34.4 1269.97 34.4H1280.78V330.8H1269.97ZM1275.57 278.8H1326.78C1347.04 278.8 1363.84 274.8 1377.18 266.8C1390.78 258.8 1400.78 247.6 1407.18 233.2C1413.84 218.8 1417.18 202 1417.18 182.8C1417.18 163.067 1413.97 146 1407.57 131.6C1401.17 117.2 1391.17 106.133 1377.57 98.4C1364.24 90.4 1347.31 86.4 1326.78 86.4H1275.57V34.4H1326.78C1356.91 34.4 1382.77 41.2 1404.38 54.8C1426.24 68.4 1442.77 86.5333 1453.97 109.2C1465.17 131.867 1470.78 156.4 1470.78 182.8C1470.78 208.667 1465.17 232.933 1453.97 255.6C1442.77 278.267 1426.24 296.533 1404.38 310.4C1382.77 324 1356.91 330.8 1326.78 330.8H1275.57V278.8Z" fill="white"/>
<path d="M1658.97 284.4C1678.17 284.4 1695.11 280.133 1709.77 271.6C1724.71 263.067 1736.31 251.2 1744.57 236C1752.84 220.533 1756.97 202.933 1756.97 183.2C1756.97 163.467 1752.84 145.867 1744.57 130.4C1736.31 114.933 1724.71 102.8 1709.77 94C1694.84 85.2 1677.91 80.8 1658.97 80.8C1640.04 80.8 1623.11 85.2 1608.17 94C1593.24 102.8 1581.64 114.933 1573.37 130.4C1565.11 145.867 1560.97 163.467 1560.97 183.2C1560.97 202.933 1565.11 220.533 1573.37 236C1581.64 251.2 1593.11 263.067 1607.77 271.6C1622.71 280.133 1639.77 284.4 1658.97 284.4ZM1658.97 335.2C1631.24 335.2 1605.64 328.4 1582.17 314.8C1558.97 301.2 1540.44 282.8 1526.57 259.6C1512.97 236.4 1506.17 210.933 1506.17 183.2C1506.17 155.467 1512.97 129.867 1526.57 106.4C1540.44 82.9333 1559.11 64.4 1582.57 50.8C1606.04 36.9333 1631.51 30 1658.97 30C1686.44 30 1711.91 36.9333 1735.37 50.8C1758.84 64.4 1777.37 82.9333 1790.97 106.4C1804.84 129.867 1811.77 155.467 1811.77 183.2C1811.77 210.933 1804.84 236.4 1790.97 259.6C1777.37 282.8 1758.84 301.2 1735.37 314.8C1712.17 328.4 1686.71 335.2 1658.97 335.2Z" fill="white"/>
<path d="M1913.2 304.4C1913.2 312.933 1910.93 319.467 1906.4 324C1901.86 328.533 1895.33 330.8 1886.8 330.8H1886C1877.46 330.8 1870.93 328.533 1866.4 324C1861.86 319.467 1859.6 312.933 1859.6 304.4V77.2C1859.6 63.3333 1863.2 52.8 1870.4 45.6C1877.86 38.1333 1888.53 34.4 1902.4 34.4H1913.2V304.4ZM1904 163.2H1958.8C1967.86 163.2 1975.6 161.467 1982 158C1988.4 154.533 1993.2 149.867 1996.4 144C1999.6 138.133 2001.2 131.6 2001.2 124.4C2001.2 117.2 1999.6 110.8 1996.4 105.2C1993.2 99.3333 1988.4 94.8 1982 91.6C1975.6 88.1333 1967.86 86.4 1958.8 86.4H1904V34.4H1958.8C1976.93 34.4 1993.33 38.8 2008 47.6C2022.66 56.1333 2034.13 67.3333 2042.4 81.2C2050.66 95.0667 2054.8 109.467 2054.8 124.4C2054.8 139.067 2050.66 153.467 2042.4 167.6C2034.13 181.467 2022.66 192.933 2008 202C1993.33 210.8 1976.93 215.2 1958.8 215.2H1904V163.2ZM1989.2 187.6L2052 297.2C2057.33 306.8 2058.13 314.8 2054.4 321.2C2050.93 327.6 2044 330.8 2033.6 330.8H2032.4C2024.4 330.8 2017.46 328.8 2011.6 324.8C2006 320.533 2000.93 314 1996.4 305.2L1935.6 187.6H1989.2Z" fill="white"/>
<path d="M2339.88 299.2C2342.81 307.467 2342.27 314.8 2338.27 321.2C2334.27 327.6 2327.87 330.8 2319.07 330.8H2317.48C2308.68 330.8 2301.61 328.267 2296.27 323.2C2291.21 317.867 2286.94 310.133 2283.48 300L2205.88 86.4H2228.27L2150.68 300C2146.94 310.133 2142.54 317.867 2137.48 323.2C2132.68 328.267 2125.74 330.8 2116.68 330.8H2115.07C2106.54 330.8 2100.14 327.6 2095.88 321.2C2091.88 314.8 2091.34 307.467 2094.27 299.2L2182.27 57.6C2188.14 42.1333 2199.61 34.4 2216.68 34.4H2217.48C2234.54 34.4 2246.01 42.1333 2251.88 57.6L2339.88 299.2ZM2283.07 202.8V254.8H2151.07V202.8H2283.07Z" fill="white"/>
<path d="M304.4 299.6C309.467 306.267 312 312.533 312 318.4C312.267 324 310.267 328.4 306 331.6C301.733 335.067 296 336.8 288.8 336.8H288C280 336.8 273.333 335.067 268 331.6C262.933 328.4 257.6 322.533 252 314L210.4 252C207.2 247.2 205.867 242.533 206.4 238C206.933 233.467 208.933 229.733 212.4 226.8C215.867 223.867 220.133 222.4 225.2 222.4H226C233.2 222.4 239.333 223.733 244.4 226.4C249.467 229.067 254.267 233.333 258.8 239.2L304.4 299.6ZM184.4 284.8C203.6 284.8 220.667 280.533 235.6 272C250.8 263.2 262.667 251.2 271.2 236C279.733 220.533 284 203.067 284 183.6C284 163.867 279.733 146.267 271.2 130.8C262.667 115.067 250.8 102.8 235.6 94C220.667 85.2 203.6 80.8 184.4 80.8C165.2 80.8 148 85.2 132.8 94C117.867 102.8 106.133 115.067 97.6 130.8C89.0667 146.267 84.8 163.867 84.8 183.6C84.8 203.067 89.0667 220.533 97.6 236C106.133 251.2 117.867 263.2 132.8 272C148 280.533 165.2 284.8 184.4 284.8ZM184.4 335.6C156.667 335.6 130.933 328.8 107.2 315.2C83.7333 301.6 64.9333 283.2 50.8 260C36.9333 236.8 30 211.333 30 183.6C30 155.867 36.9333 130.267 50.8 106.8C64.9333 83.0667 83.7333 64.4 107.2 50.8C130.933 36.9333 156.667 30 184.4 30C212.133 30 237.733 36.9333 261.2 50.8C284.933 64.4 303.733 83.0667 317.6 106.8C331.733 130.267 338.8 155.867 338.8 183.6C338.8 211.333 331.867 236.8 318 260C304.4 283.2 285.733 301.6 262 315.2C238.533 328.8 212.667 335.6 184.4 335.6Z" stroke="#FFAE0B" stroke-width="60" stroke-linejoin="round" mask="url(#path-1-outside-1_906_223250)"/>
<path d="M386.941 60.8C386.941 52.2667 389.207 45.7333 393.741 41.2C398.274 36.6667 404.807 34.4 413.341 34.4H414.141C422.674 34.4 429.207 36.6667 433.741 41.2C438.274 45.7333 440.541 52.2667 440.541 60.8V216.8C440.541 230.667 442.941 242.533 447.741 252.4C452.807 262.267 459.741 269.867 468.541 275.2C477.607 280.533 488.007 283.2 499.741 283.2C511.474 283.2 521.874 280.667 530.941 275.6C540.007 270.267 546.941 262.667 551.741 252.8C556.807 242.667 559.341 230.667 559.341 216.8V60.8C559.341 52.2667 561.607 45.7333 566.141 41.2C570.674 36.6667 577.207 34.4 585.741 34.4H586.541C595.074 34.4 601.607 36.6667 606.141 41.2C610.674 45.7333 612.941 52.2667 612.941 60.8V216.8C612.941 238.4 607.741 258.267 597.341 276.4C587.207 294.533 573.474 308.933 556.141 319.6C538.807 330 520.007 335.2 499.741 335.2C479.474 335.2 460.674 330 443.341 319.6C426.007 308.933 412.274 294.533 402.141 276.4C392.007 258.267 386.941 238.4 386.941 216.8V60.8Z" stroke="#FFAE0B" stroke-width="60" stroke-linejoin="round" mask="url(#path-1-outside-1_906_223250)"/>
<path d="M898.859 299.2C901.793 307.467 901.259 314.8 897.259 321.2C893.259 327.6 886.859 330.8 878.059 330.8H876.459C867.659 330.8 860.593 328.267 855.259 323.2C850.193 317.867 845.926 310.133 842.459 300L764.859 86.4H787.259L709.659 300C705.926 310.133 701.526 317.867 696.459 323.2C691.659 328.267 684.726 330.8 675.659 330.8H674.059C665.526 330.8 659.126 327.6 654.859 321.2C650.859 314.8 650.326 307.467 653.259 299.2L741.259 57.6C747.126 42.1333 758.593 34.4 775.659 34.4H776.459C793.526 34.4 804.993 42.1333 810.859 57.6L898.859 299.2ZM842.059 202.8V254.8H710.059V202.8H842.059Z" stroke="#FFAE0B" stroke-width="60" stroke-linejoin="round" mask="url(#path-1-outside-1_906_223250)"/>
<path d="M1112.88 60.8C1112.88 52.2667 1115.15 45.7333 1119.68 41.2C1124.22 36.6667 1130.75 34.4 1139.28 34.4H1140.08C1148.62 34.4 1155.15 36.6667 1159.68 41.2C1164.22 45.7333 1166.48 52.2667 1166.48 60.8V302.8C1166.48 311.867 1164.35 318.8 1160.08 323.6C1156.08 328.4 1150.35 330.8 1142.88 330.8H1140.88C1133.15 330.8 1126.62 329.333 1121.28 326.4C1115.95 323.467 1111.28 318.8 1107.28 312.4L992.884 132V304.4C992.884 312.933 990.618 319.467 986.084 324C981.551 328.533 975.018 330.8 966.484 330.8H965.684C957.151 330.8 950.618 328.533 946.084 324C941.551 319.467 939.284 312.933 939.284 304.4V62.4C939.284 53.3333 941.284 46.4 945.284 41.6C949.551 36.8 955.551 34.4 963.284 34.4H964.884C972.618 34.4 979.151 35.8667 984.484 38.8C989.818 41.7333 994.484 46.4 998.484 52.8L1112.88 233.2V60.8Z" stroke="#FFAE0B" stroke-width="60" stroke-linejoin="round" mask="url(#path-1-outside-1_906_223250)"/>
<path d="M1269.97 330.8C1256.11 330.8 1245.44 327.2 1237.97 320C1230.77 312.533 1227.18 301.867 1227.18 288V77.2C1227.18 63.3333 1230.77 52.8 1237.97 45.6C1245.44 38.1333 1256.11 34.4 1269.97 34.4H1280.78V330.8H1269.97ZM1275.57 278.8H1326.78C1347.04 278.8 1363.84 274.8 1377.18 266.8C1390.78 258.8 1400.78 247.6 1407.18 233.2C1413.84 218.8 1417.18 202 1417.18 182.8C1417.18 163.067 1413.97 146 1407.57 131.6C1401.17 117.2 1391.17 106.133 1377.57 98.4C1364.24 90.4 1347.31 86.4 1326.78 86.4H1275.57V34.4H1326.78C1356.91 34.4 1382.77 41.2 1404.38 54.8C1426.24 68.4 1442.77 86.5333 1453.97 109.2C1465.17 131.867 1470.78 156.4 1470.78 182.8C1470.78 208.667 1465.17 232.933 1453.97 255.6C1442.77 278.267 1426.24 296.533 1404.38 310.4C1382.77 324 1356.91 330.8 1326.78 330.8H1275.57V278.8Z" stroke="#FFAE0B" stroke-width="60" stroke-linejoin="round" mask="url(#path-1-outside-1_906_223250)"/>
<path d="M1658.97 284.4C1678.17 284.4 1695.11 280.133 1709.77 271.6C1724.71 263.067 1736.31 251.2 1744.57 236C1752.84 220.533 1756.97 202.933 1756.97 183.2C1756.97 163.467 1752.84 145.867 1744.57 130.4C1736.31 114.933 1724.71 102.8 1709.77 94C1694.84 85.2 1677.91 80.8 1658.97 80.8C1640.04 80.8 1623.11 85.2 1608.17 94C1593.24 102.8 1581.64 114.933 1573.37 130.4C1565.11 145.867 1560.97 163.467 1560.97 183.2C1560.97 202.933 1565.11 220.533 1573.37 236C1581.64 251.2 1593.11 263.067 1607.77 271.6C1622.71 280.133 1639.77 284.4 1658.97 284.4ZM1658.97 335.2C1631.24 335.2 1605.64 328.4 1582.17 314.8C1558.97 301.2 1540.44 282.8 1526.57 259.6C1512.97 236.4 1506.17 210.933 1506.17 183.2C1506.17 155.467 1512.97 129.867 1526.57 106.4C1540.44 82.9333 1559.11 64.4 1582.57 50.8C1606.04 36.9333 1631.51 30 1658.97 30C1686.44 30 1711.91 36.9333 1735.37 50.8C1758.84 64.4 1777.37 82.9333 1790.97 106.4C1804.84 129.867 1811.77 155.467 1811.77 183.2C1811.77 210.933 1804.84 236.4 1790.97 259.6C1777.37 282.8 1758.84 301.2 1735.37 314.8C1712.17 328.4 1686.71 335.2 1658.97 335.2Z" stroke="#FFAE0B" stroke-width="60" stroke-linejoin="round" mask="url(#path-1-outside-1_906_223250)"/>
<path d="M1913.2 304.4C1913.2 312.933 1910.93 319.467 1906.4 324C1901.86 328.533 1895.33 330.8 1886.8 330.8H1886C1877.46 330.8 1870.93 328.533 1866.4 324C1861.86 319.467 1859.6 312.933 1859.6 304.4V77.2C1859.6 63.3333 1863.2 52.8 1870.4 45.6C1877.86 38.1333 1888.53 34.4 1902.4 34.4H1913.2V304.4ZM1904 163.2H1958.8C1967.86 163.2 1975.6 161.467 1982 158C1988.4 154.533 1993.2 149.867 1996.4 144C1999.6 138.133 2001.2 131.6 2001.2 124.4C2001.2 117.2 1999.6 110.8 1996.4 105.2C1993.2 99.3333 1988.4 94.8 1982 91.6C1975.6 88.1333 1967.86 86.4 1958.8 86.4H1904V34.4H1958.8C1976.93 34.4 1993.33 38.8 2008 47.6C2022.66 56.1333 2034.13 67.3333 2042.4 81.2C2050.66 95.0667 2054.8 109.467 2054.8 124.4C2054.8 139.067 2050.66 153.467 2042.4 167.6C2034.13 181.467 2022.66 192.933 2008 202C1993.33 210.8 1976.93 215.2 1958.8 215.2H1904V163.2ZM1989.2 187.6L2052 297.2C2057.33 306.8 2058.13 314.8 2054.4 321.2C2050.93 327.6 2044 330.8 2033.6 330.8H2032.4C2024.4 330.8 2017.46 328.8 2011.6 324.8C2006 320.533 2000.93 314 1996.4 305.2L1935.6 187.6H1989.2Z" stroke="#FFAE0B" stroke-width="60" stroke-linejoin="round" mask="url(#path-1-outside-1_906_223250)"/>
<path d="M2339.88 299.2C2342.81 307.467 2342.27 314.8 2338.27 321.2C2334.27 327.6 2327.87 330.8 2319.07 330.8H2317.48C2308.68 330.8 2301.61 328.267 2296.27 323.2C2291.21 317.867 2286.94 310.133 2283.48 300L2205.88 86.4H2228.27L2150.68 300C2146.94 310.133 2142.54 317.867 2137.48 323.2C2132.68 328.267 2125.74 330.8 2116.68 330.8H2115.07C2106.54 330.8 2100.14 327.6 2095.88 321.2C2091.88 314.8 2091.34 307.467 2094.27 299.2L2182.27 57.6C2188.14 42.1333 2199.61 34.4 2216.68 34.4H2217.48C2234.54 34.4 2246.01 42.1333 2251.88 57.6L2339.88 299.2ZM2283.07 202.8V254.8H2151.07V202.8H2283.07Z" stroke="#FFAE0B" stroke-width="60" stroke-linejoin="round" mask="url(#path-1-outside-1_906_223250)"/>
</g>
<g opacity="0.1">
<mask id="path-2-outside-2_906_223250" maskUnits="userSpaceOnUse" x="3418" y="1263" width="2372" height="367" fill="black">
<rect fill="white" x="3418" y="1263" width="2372" height="367"/>
<path d="M3722.4 1562.6C3727.47 1569.27 3730 1575.53 3730 1581.4C3730.27 1587 3728.27 1591.4 3724 1594.6C3719.73 1598.07 3714 1599.8 3706.8 1599.8H3706C3698 1599.8 3691.33 1598.07 3686 1594.6C3680.93 1591.4 3675.6 1585.53 3670 1577L3628.4 1515C3625.2 1510.2 3623.87 1505.53 3624.4 1501C3624.93 1496.47 3626.93 1492.73 3630.4 1489.8C3633.87 1486.87 3638.13 1485.4 3643.2 1485.4H3644C3651.2 1485.4 3657.33 1486.73 3662.4 1489.4C3667.47 1492.07 3672.27 1496.33 3676.8 1502.2L3722.4 1562.6ZM3602.4 1547.8C3621.6 1547.8 3638.67 1543.53 3653.6 1535C3668.8 1526.2 3680.67 1514.2 3689.2 1499C3697.73 1483.53 3702 1466.07 3702 1446.6C3702 1426.87 3697.73 1409.27 3689.2 1393.8C3680.67 1378.07 3668.8 1365.8 3653.6 1357C3638.67 1348.2 3621.6 1343.8 3602.4 1343.8C3583.2 1343.8 3566 1348.2 3550.8 1357C3535.87 1365.8 3524.13 1378.07 3515.6 1393.8C3507.07 1409.27 3502.8 1426.87 3502.8 1446.6C3502.8 1466.07 3507.07 1483.53 3515.6 1499C3524.13 1514.2 3535.87 1526.2 3550.8 1535C3566 1543.53 3583.2 1547.8 3602.4 1547.8ZM3602.4 1598.6C3574.67 1598.6 3548.93 1591.8 3525.2 1578.2C3501.73 1564.6 3482.93 1546.2 3468.8 1523C3454.93 1499.8 3448 1474.33 3448 1446.6C3448 1418.87 3454.93 1393.27 3468.8 1369.8C3482.93 1346.07 3501.73 1327.4 3525.2 1313.8C3548.93 1299.93 3574.67 1293 3602.4 1293C3630.13 1293 3655.73 1299.93 3679.2 1313.8C3702.93 1327.4 3721.73 1346.07 3735.6 1369.8C3749.73 1393.27 3756.8 1418.87 3756.8 1446.6C3756.8 1474.33 3749.87 1499.8 3736 1523C3722.4 1546.2 3703.73 1564.6 3680 1578.2C3656.53 1591.8 3630.67 1598.6 3602.4 1598.6Z"/>
<path d="M3804.94 1323.8C3804.94 1315.27 3807.21 1308.73 3811.74 1304.2C3816.27 1299.67 3822.81 1297.4 3831.34 1297.4H3832.14C3840.67 1297.4 3847.21 1299.67 3851.74 1304.2C3856.27 1308.73 3858.54 1315.27 3858.54 1323.8V1479.8C3858.54 1493.67 3860.94 1505.53 3865.74 1515.4C3870.81 1525.27 3877.74 1532.87 3886.54 1538.2C3895.61 1543.53 3906.01 1546.2 3917.74 1546.2C3929.47 1546.2 3939.87 1543.67 3948.94 1538.6C3958.01 1533.27 3964.94 1525.67 3969.74 1515.8C3974.81 1505.67 3977.34 1493.67 3977.34 1479.8V1323.8C3977.34 1315.27 3979.61 1308.73 3984.14 1304.2C3988.67 1299.67 3995.21 1297.4 4003.74 1297.4H4004.54C4013.07 1297.4 4019.61 1299.67 4024.14 1304.2C4028.67 1308.73 4030.94 1315.27 4030.94 1323.8V1479.8C4030.94 1501.4 4025.74 1521.27 4015.34 1539.4C4005.21 1557.53 3991.47 1571.93 3974.14 1582.6C3956.81 1593 3938.01 1598.2 3917.74 1598.2C3897.47 1598.2 3878.67 1593 3861.34 1582.6C3844.01 1571.93 3830.27 1557.53 3820.14 1539.4C3810.01 1521.27 3804.94 1501.4 3804.94 1479.8V1323.8Z"/>
<path d="M4316.86 1562.2C4319.79 1570.47 4319.26 1577.8 4315.26 1584.2C4311.26 1590.6 4304.86 1593.8 4296.06 1593.8H4294.46C4285.66 1593.8 4278.59 1591.27 4273.26 1586.2C4268.19 1580.87 4263.93 1573.13 4260.46 1563L4182.86 1349.4H4205.26L4127.66 1563C4123.93 1573.13 4119.53 1580.87 4114.46 1586.2C4109.66 1591.27 4102.73 1593.8 4093.66 1593.8H4092.06C4083.53 1593.8 4077.13 1590.6 4072.86 1584.2C4068.86 1577.8 4068.33 1570.47 4071.26 1562.2L4159.26 1320.6C4165.13 1305.13 4176.59 1297.4 4193.66 1297.4H4194.46C4211.53 1297.4 4222.99 1305.13 4228.86 1320.6L4316.86 1562.2ZM4260.06 1465.8V1517.8H4128.06V1465.8H4260.06Z"/>
<path d="M4530.88 1323.8C4530.88 1315.27 4533.15 1308.73 4537.68 1304.2C4542.22 1299.67 4548.75 1297.4 4557.28 1297.4H4558.08C4566.62 1297.4 4573.15 1299.67 4577.68 1304.2C4582.22 1308.73 4584.48 1315.27 4584.48 1323.8V1565.8C4584.48 1574.87 4582.35 1581.8 4578.08 1586.6C4574.08 1591.4 4568.35 1593.8 4560.88 1593.8H4558.88C4551.15 1593.8 4544.62 1592.33 4539.28 1589.4C4533.95 1586.47 4529.28 1581.8 4525.28 1575.4L4410.88 1395V1567.4C4410.88 1575.93 4408.62 1582.47 4404.08 1587C4399.55 1591.53 4393.02 1593.8 4384.48 1593.8H4383.68C4375.15 1593.8 4368.62 1591.53 4364.08 1587C4359.55 1582.47 4357.28 1575.93 4357.28 1567.4V1325.4C4357.28 1316.33 4359.28 1309.4 4363.28 1304.6C4367.55 1299.8 4373.55 1297.4 4381.28 1297.4H4382.88C4390.62 1297.4 4397.15 1298.87 4402.48 1301.8C4407.82 1304.73 4412.48 1309.4 4416.48 1315.8L4530.88 1496.2V1323.8Z"/>
<path d="M4687.97 1593.8C4674.11 1593.8 4663.44 1590.2 4655.97 1583C4648.77 1575.53 4645.18 1564.87 4645.18 1551V1340.2C4645.18 1326.33 4648.77 1315.8 4655.97 1308.6C4663.44 1301.13 4674.11 1297.4 4687.97 1297.4H4698.78V1593.8H4687.97ZM4693.57 1541.8H4744.78C4765.04 1541.8 4781.84 1537.8 4795.18 1529.8C4808.78 1521.8 4818.78 1510.6 4825.18 1496.2C4831.84 1481.8 4835.18 1465 4835.18 1445.8C4835.18 1426.07 4831.97 1409 4825.57 1394.6C4819.17 1380.2 4809.17 1369.13 4795.57 1361.4C4782.24 1353.4 4765.31 1349.4 4744.78 1349.4H4693.57V1297.4H4744.78C4774.91 1297.4 4800.77 1304.2 4822.38 1317.8C4844.24 1331.4 4860.77 1349.53 4871.97 1372.2C4883.17 1394.87 4888.78 1419.4 4888.78 1445.8C4888.78 1471.67 4883.17 1495.93 4871.97 1518.6C4860.77 1541.27 4844.24 1559.53 4822.38 1573.4C4800.77 1587 4774.91 1593.8 4744.78 1593.8H4693.57V1541.8Z"/>
<path d="M5076.97 1547.4C5096.17 1547.4 5113.11 1543.13 5127.77 1534.6C5142.71 1526.07 5154.31 1514.2 5162.57 1499C5170.84 1483.53 5174.97 1465.93 5174.97 1446.2C5174.97 1426.47 5170.84 1408.87 5162.57 1393.4C5154.31 1377.93 5142.71 1365.8 5127.77 1357C5112.84 1348.2 5095.91 1343.8 5076.97 1343.8C5058.04 1343.8 5041.11 1348.2 5026.17 1357C5011.24 1365.8 4999.64 1377.93 4991.37 1393.4C4983.11 1408.87 4978.97 1426.47 4978.97 1446.2C4978.97 1465.93 4983.11 1483.53 4991.37 1499C4999.64 1514.2 5011.11 1526.07 5025.77 1534.6C5040.71 1543.13 5057.77 1547.4 5076.97 1547.4ZM5076.97 1598.2C5049.24 1598.2 5023.64 1591.4 5000.17 1577.8C4976.97 1564.2 4958.44 1545.8 4944.57 1522.6C4930.97 1499.4 4924.17 1473.93 4924.17 1446.2C4924.17 1418.47 4930.97 1392.87 4944.57 1369.4C4958.44 1345.93 4977.11 1327.4 5000.57 1313.8C5024.04 1299.93 5049.51 1293 5076.97 1293C5104.44 1293 5129.91 1299.93 5153.37 1313.8C5176.84 1327.4 5195.37 1345.93 5208.97 1369.4C5222.84 1392.87 5229.77 1418.47 5229.77 1446.2C5229.77 1473.93 5222.84 1499.4 5208.97 1522.6C5195.37 1545.8 5176.84 1564.2 5153.37 1577.8C5130.17 1591.4 5104.71 1598.2 5076.97 1598.2Z"/>
<path d="M5331.2 1567.4C5331.2 1575.93 5328.93 1582.47 5324.4 1587C5319.86 1591.53 5313.33 1593.8 5304.8 1593.8H5304C5295.46 1593.8 5288.93 1591.53 5284.4 1587C5279.86 1582.47 5277.6 1575.93 5277.6 1567.4V1340.2C5277.6 1326.33 5281.2 1315.8 5288.4 1308.6C5295.86 1301.13 5306.53 1297.4 5320.4 1297.4H5331.2V1567.4ZM5322 1426.2H5376.8C5385.86 1426.2 5393.6 1424.47 5400 1421C5406.4 1417.53 5411.2 1412.87 5414.4 1407C5417.6 1401.13 5419.2 1394.6 5419.2 1387.4C5419.2 1380.2 5417.6 1373.8 5414.4 1368.2C5411.2 1362.33 5406.4 1357.8 5400 1354.6C5393.6 1351.13 5385.86 1349.4 5376.8 1349.4H5322V1297.4H5376.8C5394.93 1297.4 5411.33 1301.8 5426 1310.6C5440.66 1319.13 5452.13 1330.33 5460.4 1344.2C5468.66 1358.07 5472.8 1372.47 5472.8 1387.4C5472.8 1402.07 5468.66 1416.47 5460.4 1430.6C5452.13 1444.47 5440.66 1455.93 5426 1465C5411.33 1473.8 5394.93 1478.2 5376.8 1478.2H5322V1426.2ZM5407.2 1450.6L5470 1560.2C5475.33 1569.8 5476.13 1577.8 5472.4 1584.2C5468.93 1590.6 5462 1593.8 5451.6 1593.8H5450.4C5442.4 1593.8 5435.46 1591.8 5429.6 1587.8C5424 1583.53 5418.93 1577 5414.4 1568.2L5353.6 1450.6H5407.2Z"/>
<path d="M5757.88 1562.2C5760.81 1570.47 5760.27 1577.8 5756.27 1584.2C5752.27 1590.6 5745.87 1593.8 5737.07 1593.8H5735.48C5726.68 1593.8 5719.61 1591.27 5714.27 1586.2C5709.21 1580.87 5704.94 1573.13 5701.48 1563L5623.88 1349.4H5646.27L5568.68 1563C5564.94 1573.13 5560.54 1580.87 5555.48 1586.2C5550.68 1591.27 5543.74 1593.8 5534.68 1593.8H5533.07C5524.54 1593.8 5518.14 1590.6 5513.88 1584.2C5509.88 1577.8 5509.34 1570.47 5512.27 1562.2L5600.27 1320.6C5606.14 1305.13 5617.61 1297.4 5634.68 1297.4H5635.48C5652.54 1297.4 5664.01 1305.13 5669.88 1320.6L5757.88 1562.2ZM5701.07 1465.8V1517.8H5569.07V1465.8H5701.07Z"/>
</mask>
<path d="M3722.4 1562.6C3727.47 1569.27 3730 1575.53 3730 1581.4C3730.27 1587 3728.27 1591.4 3724 1594.6C3719.73 1598.07 3714 1599.8 3706.8 1599.8H3706C3698 1599.8 3691.33 1598.07 3686 1594.6C3680.93 1591.4 3675.6 1585.53 3670 1577L3628.4 1515C3625.2 1510.2 3623.87 1505.53 3624.4 1501C3624.93 1496.47 3626.93 1492.73 3630.4 1489.8C3633.87 1486.87 3638.13 1485.4 3643.2 1485.4H3644C3651.2 1485.4 3657.33 1486.73 3662.4 1489.4C3667.47 1492.07 3672.27 1496.33 3676.8 1502.2L3722.4 1562.6ZM3602.4 1547.8C3621.6 1547.8 3638.67 1543.53 3653.6 1535C3668.8 1526.2 3680.67 1514.2 3689.2 1499C3697.73 1483.53 3702 1466.07 3702 1446.6C3702 1426.87 3697.73 1409.27 3689.2 1393.8C3680.67 1378.07 3668.8 1365.8 3653.6 1357C3638.67 1348.2 3621.6 1343.8 3602.4 1343.8C3583.2 1343.8 3566 1348.2 3550.8 1357C3535.87 1365.8 3524.13 1378.07 3515.6 1393.8C3507.07 1409.27 3502.8 1426.87 3502.8 1446.6C3502.8 1466.07 3507.07 1483.53 3515.6 1499C3524.13 1514.2 3535.87 1526.2 3550.8 1535C3566 1543.53 3583.2 1547.8 3602.4 1547.8ZM3602.4 1598.6C3574.67 1598.6 3548.93 1591.8 3525.2 1578.2C3501.73 1564.6 3482.93 1546.2 3468.8 1523C3454.93 1499.8 3448 1474.33 3448 1446.6C3448 1418.87 3454.93 1393.27 3468.8 1369.8C3482.93 1346.07 3501.73 1327.4 3525.2 1313.8C3548.93 1299.93 3574.67 1293 3602.4 1293C3630.13 1293 3655.73 1299.93 3679.2 1313.8C3702.93 1327.4 3721.73 1346.07 3735.6 1369.8C3749.73 1393.27 3756.8 1418.87 3756.8 1446.6C3756.8 1474.33 3749.87 1499.8 3736 1523C3722.4 1546.2 3703.73 1564.6 3680 1578.2C3656.53 1591.8 3630.67 1598.6 3602.4 1598.6Z" fill="white"/>
<path d="M3804.94 1323.8C3804.94 1315.27 3807.21 1308.73 3811.74 1304.2C3816.27 1299.67 3822.81 1297.4 3831.34 1297.4H3832.14C3840.67 1297.4 3847.21 1299.67 3851.74 1304.2C3856.27 1308.73 3858.54 1315.27 3858.54 1323.8V1479.8C3858.54 1493.67 3860.94 1505.53 3865.74 1515.4C3870.81 1525.27 3877.74 1532.87 3886.54 1538.2C3895.61 1543.53 3906.01 1546.2 3917.74 1546.2C3929.47 1546.2 3939.87 1543.67 3948.94 1538.6C3958.01 1533.27 3964.94 1525.67 3969.74 1515.8C3974.81 1505.67 3977.34 1493.67 3977.34 1479.8V1323.8C3977.34 1315.27 3979.61 1308.73 3984.14 1304.2C3988.67 1299.67 3995.21 1297.4 4003.74 1297.4H4004.54C4013.07 1297.4 4019.61 1299.67 4024.14 1304.2C4028.67 1308.73 4030.94 1315.27 4030.94 1323.8V1479.8C4030.94 1501.4 4025.74 1521.27 4015.34 1539.4C4005.21 1557.53 3991.47 1571.93 3974.14 1582.6C3956.81 1593 3938.01 1598.2 3917.74 1598.2C3897.47 1598.2 3878.67 1593 3861.34 1582.6C3844.01 1571.93 3830.27 1557.53 3820.14 1539.4C3810.01 1521.27 3804.94 1501.4 3804.94 1479.8V1323.8Z" fill="white"/>
<path d="M4316.86 1562.2C4319.79 1570.47 4319.26 1577.8 4315.26 1584.2C4311.26 1590.6 4304.86 1593.8 4296.06 1593.8H4294.46C4285.66 1593.8 4278.59 1591.27 4273.26 1586.2C4268.19 1580.87 4263.93 1573.13 4260.46 1563L4182.86 1349.4H4205.26L4127.66 1563C4123.93 1573.13 4119.53 1580.87 4114.46 1586.2C4109.66 1591.27 4102.73 1593.8 4093.66 1593.8H4092.06C4083.53 1593.8 4077.13 1590.6 4072.86 1584.2C4068.86 1577.8 4068.33 1570.47 4071.26 1562.2L4159.26 1320.6C4165.13 1305.13 4176.59 1297.4 4193.66 1297.4H4194.46C4211.53 1297.4 4222.99 1305.13 4228.86 1320.6L4316.86 1562.2ZM4260.06 1465.8V1517.8H4128.06V1465.8H4260.06Z" fill="white"/>
<path d="M4530.88 1323.8C4530.88 1315.27 4533.15 1308.73 4537.68 1304.2C4542.22 1299.67 4548.75 1297.4 4557.28 1297.4H4558.08C4566.62 1297.4 4573.15 1299.67 4577.68 1304.2C4582.22 1308.73 4584.48 1315.27 4584.48 1323.8V1565.8C4584.48 1574.87 4582.35 1581.8 4578.08 1586.6C4574.08 1591.4 4568.35 1593.8 4560.88 1593.8H4558.88C4551.15 1593.8 4544.62 1592.33 4539.28 1589.4C4533.95 1586.47 4529.28 1581.8 4525.28 1575.4L4410.88 1395V1567.4C4410.88 1575.93 4408.62 1582.47 4404.08 1587C4399.55 1591.53 4393.02 1593.8 4384.48 1593.8H4383.68C4375.15 1593.8 4368.62 1591.53 4364.08 1587C4359.55 1582.47 4357.28 1575.93 4357.28 1567.4V1325.4C4357.28 1316.33 4359.28 1309.4 4363.28 1304.6C4367.55 1299.8 4373.55 1297.4 4381.28 1297.4H4382.88C4390.62 1297.4 4397.15 1298.87 4402.48 1301.8C4407.82 1304.73 4412.48 1309.4 4416.48 1315.8L4530.88 1496.2V1323.8Z" fill="white"/>
<path d="M4687.97 1593.8C4674.11 1593.8 4663.44 1590.2 4655.97 1583C4648.77 1575.53 4645.18 1564.87 4645.18 1551V1340.2C4645.18 1326.33 4648.77 1315.8 4655.97 1308.6C4663.44 1301.13 4674.11 1297.4 4687.97 1297.4H4698.78V1593.8H4687.97ZM4693.57 1541.8H4744.78C4765.04 1541.8 4781.84 1537.8 4795.18 1529.8C4808.78 1521.8 4818.78 1510.6 4825.18 1496.2C4831.84 1481.8 4835.18 1465 4835.18 1445.8C4835.18 1426.07 4831.97 1409 4825.57 1394.6C4819.17 1380.2 4809.17 1369.13 4795.57 1361.4C4782.24 1353.4 4765.31 1349.4 4744.78 1349.4H4693.57V1297.4H4744.78C4774.91 1297.4 4800.77 1304.2 4822.38 1317.8C4844.24 1331.4 4860.77 1349.53 4871.97 1372.2C4883.17 1394.87 4888.78 1419.4 4888.78 1445.8C4888.78 1471.67 4883.17 1495.93 4871.97 1518.6C4860.77 1541.27 4844.24 1559.53 4822.38 1573.4C4800.77 1587 4774.91 1593.8 4744.78 1593.8H4693.57V1541.8Z" fill="white"/>
<path d="M5076.97 1547.4C5096.17 1547.4 5113.11 1543.13 5127.77 1534.6C5142.71 1526.07 5154.31 1514.2 5162.57 1499C5170.84 1483.53 5174.97 1465.93 5174.97 1446.2C5174.97 1426.47 5170.84 1408.87 5162.57 1393.4C5154.31 1377.93 5142.71 1365.8 5127.77 1357C5112.84 1348.2 5095.91 1343.8 5076.97 1343.8C5058.04 1343.8 5041.11 1348.2 5026.17 1357C5011.24 1365.8 4999.64 1377.93 4991.37 1393.4C4983.11 1408.87 4978.97 1426.47 4978.97 1446.2C4978.97 1465.93 4983.11 1483.53 4991.37 1499C4999.64 1514.2 5011.11 1526.07 5025.77 1534.6C5040.71 1543.13 5057.77 1547.4 5076.97 1547.4ZM5076.97 1598.2C5049.24 1598.2 5023.64 1591.4 5000.17 1577.8C4976.97 1564.2 4958.44 1545.8 4944.57 1522.6C4930.97 1499.4 4924.17 1473.93 4924.17 1446.2C4924.17 1418.47 4930.97 1392.87 4944.57 1369.4C4958.44 1345.93 4977.11 1327.4 5000.57 1313.8C5024.04 1299.93 5049.51 1293 5076.97 1293C5104.44 1293 5129.91 1299.93 5153.37 1313.8C5176.84 1327.4 5195.37 1345.93 5208.97 1369.4C5222.84 1392.87 5229.77 1418.47 5229.77 1446.2C5229.77 1473.93 5222.84 1499.4 5208.97 1522.6C5195.37 1545.8 5176.84 1564.2 5153.37 1577.8C5130.17 1591.4 5104.71 1598.2 5076.97 1598.2Z" fill="white"/>
<path d="M5331.2 1567.4C5331.2 1575.93 5328.93 1582.47 5324.4 1587C5319.86 1591.53 5313.33 1593.8 5304.8 1593.8H5304C5295.46 1593.8 5288.93 1591.53 5284.4 1587C5279.86 1582.47 5277.6 1575.93 5277.6 1567.4V1340.2C5277.6 1326.33 5281.2 1315.8 5288.4 1308.6C5295.86 1301.13 5306.53 1297.4 5320.4 1297.4H5331.2V1567.4ZM5322 1426.2H5376.8C5385.86 1426.2 5393.6 1424.47 5400 1421C5406.4 1417.53 5411.2 1412.87 5414.4 1407C5417.6 1401.13 5419.2 1394.6 5419.2 1387.4C5419.2 1380.2 5417.6 1373.8 5414.4 1368.2C5411.2 1362.33 5406.4 1357.8 5400 1354.6C5393.6 1351.13 5385.86 1349.4 5376.8 1349.4H5322V1297.4H5376.8C5394.93 1297.4 5411.33 1301.8 5426 1310.6C5440.66 1319.13 5452.13 1330.33 5460.4 1344.2C5468.66 1358.07 5472.8 1372.47 5472.8 1387.4C5472.8 1402.07 5468.66 1416.47 5460.4 1430.6C5452.13 1444.47 5440.66 1455.93 5426 1465C5411.33 1473.8 5394.93 1478.2 5376.8 1478.2H5322V1426.2ZM5407.2 1450.6L5470 1560.2C5475.33 1569.8 5476.13 1577.8 5472.4 1584.2C5468.93 1590.6 5462 1593.8 5451.6 1593.8H5450.4C5442.4 1593.8 5435.46 1591.8 5429.6 1587.8C5424 1583.53 5418.93 1577 5414.4 1568.2L5353.6 1450.6H5407.2Z" fill="white"/>
<path d="M5757.88 1562.2C5760.81 1570.47 5760.27 1577.8 5756.27 1584.2C5752.27 1590.6 5745.87 1593.8 5737.07 1593.8H5735.48C5726.68 1593.8 5719.61 1591.27 5714.27 1586.2C5709.21 1580.87 5704.94 1573.13 5701.48 1563L5623.88 1349.4H5646.27L5568.68 1563C5564.94 1573.13 5560.54 1580.87 5555.48 1586.2C5550.68 1591.27 5543.74 1593.8 5534.68 1593.8H5533.07C5524.54 1593.8 5518.14 1590.6 5513.88 1584.2C5509.88 1577.8 5509.34 1570.47 5512.27 1562.2L5600.27 1320.6C5606.14 1305.13 5617.61 1297.4 5634.68 1297.4H5635.48C5652.54 1297.4 5664.01 1305.13 5669.88 1320.6L5757.88 1562.2ZM5701.07 1465.8V1517.8H5569.07V1465.8H5701.07Z" fill="white"/>
<path d="M3722.4 1562.6C3727.47 1569.27 3730 1575.53 3730 1581.4C3730.27 1587 3728.27 1591.4 3724 1594.6C3719.73 1598.07 3714 1599.8 3706.8 1599.8H3706C3698 1599.8 3691.33 1598.07 3686 1594.6C3680.93 1591.4 3675.6 1585.53 3670 1577L3628.4 1515C3625.2 1510.2 3623.87 1505.53 3624.4 1501C3624.93 1496.47 3626.93 1492.73 3630.4 1489.8C3633.87 1486.87 3638.13 1485.4 3643.2 1485.4H3644C3651.2 1485.4 3657.33 1486.73 3662.4 1489.4C3667.47 1492.07 3672.27 1496.33 3676.8 1502.2L3722.4 1562.6ZM3602.4 1547.8C3621.6 1547.8 3638.67 1543.53 3653.6 1535C3668.8 1526.2 3680.67 1514.2 3689.2 1499C3697.73 1483.53 3702 1466.07 3702 1446.6C3702 1426.87 3697.73 1409.27 3689.2 1393.8C3680.67 1378.07 3668.8 1365.8 3653.6 1357C3638.67 1348.2 3621.6 1343.8 3602.4 1343.8C3583.2 1343.8 3566 1348.2 3550.8 1357C3535.87 1365.8 3524.13 1378.07 3515.6 1393.8C3507.07 1409.27 3502.8 1426.87 3502.8 1446.6C3502.8 1466.07 3507.07 1483.53 3515.6 1499C3524.13 1514.2 3535.87 1526.2 3550.8 1535C3566 1543.53 3583.2 1547.8 3602.4 1547.8ZM3602.4 1598.6C3574.67 1598.6 3548.93 1591.8 3525.2 1578.2C3501.73 1564.6 3482.93 1546.2 3468.8 1523C3454.93 1499.8 3448 1474.33 3448 1446.6C3448 1418.87 3454.93 1393.27 3468.8 1369.8C3482.93 1346.07 3501.73 1327.4 3525.2 1313.8C3548.93 1299.93 3574.67 1293 3602.4 1293C3630.13 1293 3655.73 1299.93 3679.2 1313.8C3702.93 1327.4 3721.73 1346.07 3735.6 1369.8C3749.73 1393.27 3756.8 1418.87 3756.8 1446.6C3756.8 1474.33 3749.87 1499.8 3736 1523C3722.4 1546.2 3703.73 1564.6 3680 1578.2C3656.53 1591.8 3630.67 1598.6 3602.4 1598.6Z" stroke="#FFAE0B" stroke-width="60" stroke-linejoin="round" mask="url(#path-2-outside-2_906_223250)"/>
<path d="M3804.94 1323.8C3804.94 1315.27 3807.21 1308.73 3811.74 1304.2C3816.27 1299.67 3822.81 1297.4 3831.34 1297.4H3832.14C3840.67 1297.4 3847.21 1299.67 3851.74 1304.2C3856.27 1308.73 3858.54 1315.27 3858.54 1323.8V1479.8C3858.54 1493.67 3860.94 1505.53 3865.74 1515.4C3870.81 1525.27 3877.74 1532.87 3886.54 1538.2C3895.61 1543.53 3906.01 1546.2 3917.74 1546.2C3929.47 1546.2 3939.87 1543.67 3948.94 1538.6C3958.01 1533.27 3964.94 1525.67 3969.74 1515.8C3974.81 1505.67 3977.34 1493.67 3977.34 1479.8V1323.8C3977.34 1315.27 3979.61 1308.73 3984.14 1304.2C3988.67 1299.67 3995.21 1297.4 4003.74 1297.4H4004.54C4013.07 1297.4 4019.61 1299.67 4024.14 1304.2C4028.67 1308.73 4030.94 1315.27 4030.94 1323.8V1479.8C4030.94 1501.4 4025.74 1521.27 4015.34 1539.4C4005.21 1557.53 3991.47 1571.93 3974.14 1582.6C3956.81 1593 3938.01 1598.2 3917.74 1598.2C3897.47 1598.2 3878.67 1593 3861.34 1582.6C3844.01 1571.93 3830.27 1557.53 3820.14 1539.4C3810.01 1521.27 3804.94 1501.4 3804.94 1479.8V1323.8Z" stroke="#FFAE0B" stroke-width="60" stroke-linejoin="round" mask="url(#path-2-outside-2_906_223250)"/>
<path d="M4316.86 1562.2C4319.79 1570.47 4319.26 1577.8 4315.26 1584.2C4311.26 1590.6 4304.86 1593.8 4296.06 1593.8H4294.46C4285.66 1593.8 4278.59 1591.27 4273.26 1586.2C4268.19 1580.87 4263.93 1573.13 4260.46 1563L4182.86 1349.4H4205.26L4127.66 1563C4123.93 1573.13 4119.53 1580.87 4114.46 1586.2C4109.66 1591.27 4102.73 1593.8 4093.66 1593.8H4092.06C4083.53 1593.8 4077.13 1590.6 4072.86 1584.2C4068.86 1577.8 4068.33 1570.47 4071.26 1562.2L4159.26 1320.6C4165.13 1305.13 4176.59 1297.4 4193.66 1297.4H4194.46C4211.53 1297.4 4222.99 1305.13 4228.86 1320.6L4316.86 1562.2ZM4260.06 1465.8V1517.8H4128.06V1465.8H4260.06Z" stroke="#FFAE0B" stroke-width="60" stroke-linejoin="round" mask="url(#path-2-outside-2_906_223250)"/>
<path d="M4530.88 1323.8C4530.88 1315.27 4533.15 1308.73 4537.68 1304.2C4542.22 1299.67 4548.75 1297.4 4557.28 1297.4H4558.08C4566.62 1297.4 4573.15 1299.67 4577.68 1304.2C4582.22 1308.73 4584.48 1315.27 4584.48 1323.8V1565.8C4584.48 1574.87 4582.35 1581.8 4578.08 1586.6C4574.08 1591.4 4568.35 1593.8 4560.88 1593.8H4558.88C4551.15 1593.8 4544.62 1592.33 4539.28 1589.4C4533.95 1586.47 4529.28 1581.8 4525.28 1575.4L4410.88 1395V1567.4C4410.88 1575.93 4408.62 1582.47 4404.08 1587C4399.55 1591.53 4393.02 1593.8 4384.48 1593.8H4383.68C4375.15 1593.8 4368.62 1591.53 4364.08 1587C4359.55 1582.47 4357.28 1575.93 4357.28 1567.4V1325.4C4357.28 1316.33 4359.28 1309.4 4363.28 1304.6C4367.55 1299.8 4373.55 1297.4 4381.28 1297.4H4382.88C4390.62 1297.4 4397.15 1298.87 4402.48 1301.8C4407.82 1304.73 4412.48 1309.4 4416.48 1315.8L4530.88 1496.2V1323.8Z" stroke="#FFAE0B" stroke-width="60" stroke-linejoin="round" mask="url(#path-2-outside-2_906_223250)"/>
<path d="M4687.97 1593.8C4674.11 1593.8 4663.44 1590.2 4655.97 1583C4648.77 1575.53 4645.18 1564.87 4645.18 1551V1340.2C4645.18 1326.33 4648.77 1315.8 4655.97 1308.6C4663.44 1301.13 4674.11 1297.4 4687.97 1297.4H4698.78V1593.8H4687.97ZM4693.57 1541.8H4744.78C4765.04 1541.8 4781.84 1537.8 4795.18 1529.8C4808.78 1521.8 4818.78 1510.6 4825.18 1496.2C4831.84 1481.8 4835.18 1465 4835.18 1445.8C4835.18 1426.07 4831.97 1409 4825.57 1394.6C4819.17 1380.2 4809.17 1369.13 4795.57 1361.4C4782.24 1353.4 4765.31 1349.4 4744.78 1349.4H4693.57V1297.4H4744.78C4774.91 1297.4 4800.77 1304.2 4822.38 1317.8C4844.24 1331.4 4860.77 1349.53 4871.97 1372.2C4883.17 1394.87 4888.78 1419.4 4888.78 1445.8C4888.78 1471.67 4883.17 1495.93 4871.97 1518.6C4860.77 1541.27 4844.24 1559.53 4822.38 1573.4C4800.77 1587 4774.91 1593.8 4744.78 1593.8H4693.57V1541.8Z" stroke="#FFAE0B" stroke-width="60" stroke-linejoin="round" mask="url(#path-2-outside-2_906_223250)"/>
<path d="M5076.97 1547.4C5096.17 1547.4 5113.11 1543.13 5127.77 1534.6C5142.71 1526.07 5154.31 1514.2 5162.57 1499C5170.84 1483.53 5174.97 1465.93 5174.97 1446.2C5174.97 1426.47 5170.84 1408.87 5162.57 1393.4C5154.31 1377.93 5142.71 1365.8 5127.77 1357C5112.84 1348.2 5095.91 1343.8 5076.97 1343.8C5058.04 1343.8 5041.11 1348.2 5026.17 1357C5011.24 1365.8 4999.64 1377.93 4991.37 1393.4C4983.11 1408.87 4978.97 1426.47 4978.97 1446.2C4978.97 1465.93 4983.11 1483.53 4991.37 1499C4999.64 1514.2 5011.11 1526.07 5025.77 1534.6C5040.71 1543.13 5057.77 1547.4 5076.97 1547.4ZM5076.97 1598.2C5049.24 1598.2 5023.64 1591.4 5000.17 1577.8C4976.97 1564.2 4958.44 1545.8 4944.57 1522.6C4930.97 1499.4 4924.17 1473.93 4924.17 1446.2C4924.17 1418.47 4930.97 1392.87 4944.57 1369.4C4958.44 1345.93 4977.11 1327.4 5000.57 1313.8C5024.04 1299.93 5049.51 1293 5076.97 1293C5104.44 1293 5129.91 1299.93 5153.37 1313.8C5176.84 1327.4 5195.37 1345.93 5208.97 1369.4C5222.84 1392.87 5229.77 1418.47 5229.77 1446.2C5229.77 1473.93 5222.84 1499.4 5208.97 1522.6C5195.37 1545.8 5176.84 1564.2 5153.37 1577.8C5130.17 1591.4 5104.71 1598.2 5076.97 1598.2Z" stroke="#FFAE0B" stroke-width="60" stroke-linejoin="round" mask="url(#path-2-outside-2_906_223250)"/>
<path d="M5331.2 1567.4C5331.2 1575.93 5328.93 1582.47 5324.4 1587C5319.86 1591.53 5313.33 1593.8 5304.8 1593.8H5304C5295.46 1593.8 5288.93 1591.53 5284.4 1587C5279.86 1582.47 5277.6 1575.93 5277.6 1567.4V1340.2C5277.6 1326.33 5281.2 1315.8 5288.4 1308.6C5295.86 1301.13 5306.53 1297.4 5320.4 1297.4H5331.2V1567.4ZM5322 1426.2H5376.8C5385.86 1426.2 5393.6 1424.47 5400 1421C5406.4 1417.53 5411.2 1412.87 5414.4 1407C5417.6 1401.13 5419.2 1394.6 5419.2 1387.4C5419.2 1380.2 5417.6 1373.8 5414.4 1368.2C5411.2 1362.33 5406.4 1357.8 5400 1354.6C5393.6 1351.13 5385.86 1349.4 5376.8 1349.4H5322V1297.4H5376.8C5394.93 1297.4 5411.33 1301.8 5426 1310.6C5440.66 1319.13 5452.13 1330.33 5460.4 1344.2C5468.66 1358.07 5472.8 1372.47 5472.8 1387.4C5472.8 1402.07 5468.66 1416.47 5460.4 1430.6C5452.13 1444.47 5440.66 1455.93 5426 1465C5411.33 1473.8 5394.93 1478.2 5376.8 1478.2H5322V1426.2ZM5407.2 1450.6L5470 1560.2C5475.33 1569.8 5476.13 1577.8 5472.4 1584.2C5468.93 1590.6 5462 1593.8 5451.6 1593.8H5450.4C5442.4 1593.8 5435.46 1591.8 5429.6 1587.8C5424 1583.53 5418.93 1577 5414.4 1568.2L5353.6 1450.6H5407.2Z" stroke="#FFAE0B" stroke-width="60" stroke-linejoin="round" mask="url(#path-2-outside-2_906_223250)"/>
<path d="M5757.88 1562.2C5760.81 1570.47 5760.27 1577.8 5756.27 1584.2C5752.27 1590.6 5745.87 1593.8 5737.07 1593.8H5735.48C5726.68 1593.8 5719.61 1591.27 5714.27 1586.2C5709.21 1580.87 5704.94 1573.13 5701.48 1563L5623.88 1349.4H5646.27L5568.68 1563C5564.94 1573.13 5560.54 1580.87 5555.48 1586.2C5550.68 1591.27 5543.74 1593.8 5534.68 1593.8H5533.07C5524.54 1593.8 5518.14 1590.6 5513.88 1584.2C5509.88 1577.8 5509.34 1570.47 5512.27 1562.2L5600.27 1320.6C5606.14 1305.13 5617.61 1297.4 5634.68 1297.4H5635.48C5652.54 1297.4 5664.01 1305.13 5669.88 1320.6L5757.88 1562.2ZM5701.07 1465.8V1517.8H5569.07V1465.8H5701.07Z" stroke="#FFAE0B" stroke-width="60" stroke-linejoin="round" mask="url(#path-2-outside-2_906_223250)"/>
</g>
<path d="M0 189.338L5760 0V1410.66L0 1600V189.338Z" fill="#FFFCE9"/>
<path d="M2880 -2078.79L5758 799.214L2880 3677.21L2.00001 799.214L2880 -2078.79Z" fill="url(#paint1_linear_906_223250)" fill-opacity="0.1"/>
<path d="M2880 -1071.43L4750.7 799.266L2880 2669.97L1009.3 799.266L2880 -1071.43Z" fill="url(#paint2_linear_906_223250)" fill-opacity="0.1"/>
</g>
<defs>
<linearGradient id="paint0_linear_906_223250" x1="108.23" y1="35.2201" x2="5677.84" y2="1851.88" gradientUnits="userSpaceOnUse">
<stop stop-color="#FFEB7A"/>
<stop offset="1" stop-color="#FFA987"/>
</linearGradient>
<linearGradient id="paint1_linear_906_223250" x1="3291.71" y1="1480.75" x2="3291.71" y2="-1644.26" gradientUnits="userSpaceOnUse">
<stop stop-color="#FFE856"/>
<stop offset="1" stop-color="#FFA200"/>
</linearGradient>
<linearGradient id="paint2_linear_906_223250" x1="3147.61" y1="1242.26" x2="3147.61" y2="-788.989" gradientUnits="userSpaceOnUse">
<stop stop-color="#FFE856"/>
<stop offset="1" stop-color="#FFA200"/>
</linearGradient>
<clipPath id="clip0_906_223250">
<rect width="5760" height="1600" fill="white"/>
</clipPath>
</defs>
</svg>
