<svg width="160" height="160" viewBox="0 0 160 160" fill="none" xmlns="http://www.w3.org/2000/svg">
<g clip-path="url(#clip0_901_201317)">
<path d="M80 0C124.267 0 160 35.7333 160 80C160 124.267 124.267 160 80 160C35.7333 160 0 124.267 0 80C0 35.7333 35.7333 0 80 0ZM68 102.4C65.8667 104.533 65.8667 107.733 68 109.867C69.0667 110.933 70.4 111.467 71.7333 111.467C73.0667 111.467 74.4 110.933 75.4667 109.867L98.6667 86.9333C102.133 84 103.467 82.4 103.467 80C103.467 77.3333 102.133 75.7333 98.6667 73.0667L75.7333 50.1333C73.6 48 70.4 48 68.2667 50.1333C66.1333 52.2667 66.1333 55.4667 68.2667 57.6L90.6667 80L68 102.4Z" fill="#FFDC75"/>
</g>
<defs>
<clipPath id="clip0_901_201317">
<rect width="160" height="160" fill="white" transform="matrix(-1 0 0 1 160 0)"/>
</clipPath>
</defs>
</svg>
