<svg width="160" height="160" viewBox="0 0 160 160" fill="none" xmlns="http://www.w3.org/2000/svg">
<g clip-path="url(#clip0_901_201338)">
<path d="M80 0C35.7333 0 0 35.7333 0 80C0 124.267 35.7333 160 80 160C124.267 160 160 124.267 160 80C160 35.7333 124.267 0 80 0ZM92 102.4C94.1333 104.533 94.1333 107.733 92 109.867C90.9333 110.933 89.6 111.467 88.2667 111.467C86.9333 111.467 85.6 110.933 84.5333 109.867L61.3333 86.9333C57.8667 84 56.5333 82.4 56.5333 80C56.5333 77.3333 57.8667 75.7333 61.3333 73.0667L84.2667 50.1333C86.4 48 89.6 48 91.7333 50.1333C93.8667 52.2667 93.8667 55.4667 91.7333 57.6L69.3333 80L92 102.4Z" fill="#FFDC75"/>
</g>
<defs>
<clipPath id="clip0_901_201338">
<rect width="160" height="160" fill="white"/>
</clipPath>
</defs>
</svg>
