<svg preserveAspectRatio="none" width="100%" height="100%" overflow="visible" style="display: block;" viewBox="0 0 1267.15 1267.15" fill="none" xmlns="http://www.w3.org/2000/svg">
<g id="Group 6">
<path id="Polygon 2" d="M633.575 650.647L666.761 162.662H600.388L633.575 650.647Z" fill="var(--fill-0, #FCF1D6)"/>
<path id="Polygon 3" d="M633.575 616.5L666.761 1104.48H600.388L633.575 616.5Z" fill="var(--fill-0, #FCF1D6)"/>
<path id="Polygon 4" d="M625.036 648.36L897.769 242.346L840.288 209.159L625.036 648.36Z" fill="var(--fill-0, #FCF1D6)"/>
<path id="Polygon 5" d="M642.109 618.787L426.858 1057.99L369.376 1024.8L642.109 618.787Z" fill="var(--fill-0, #FCF1D6)"/>
<path id="Polygon 6" d="M618.785 642.11L1057.99 426.858L1024.8 369.377L618.785 642.11Z" fill="var(--fill-0, #FCF1D6)"/>
<path id="Polygon 7" d="M648.358 625.036L242.344 897.769L209.157 840.288L648.358 625.036Z" fill="var(--fill-0, #FCF1D6)"/>
<path id="Polygon 8" d="M616.5 633.572L1104.48 666.759L1104.48 600.386L616.5 633.572Z" fill="var(--fill-0, #FCF1D6)"/>
<path id="Polygon 9" d="M650.647 633.573L162.662 666.759L162.662 600.386L650.647 633.573Z" fill="var(--fill-0, #FCF1D6)"/>
<path id="Polygon 10" d="M618.787 625.036L1024.8 897.769L1057.99 840.288L618.787 625.036Z" fill="var(--fill-0, #FCF1D6)"/>
<path id="Polygon 11" d="M648.358 642.109L209.158 426.857L242.344 369.376L648.358 642.109Z" fill="var(--fill-0, #FCF1D6)"/>
<path id="Polygon 12" d="M625.034 618.786L840.286 1057.99L897.767 1024.8L625.034 618.786Z" fill="var(--fill-0, #FCF1D6)"/>
<path id="Polygon 13" d="M642.108 648.359L369.375 242.344L426.856 209.158L642.108 648.359Z" fill="var(--fill-0, #FCF1D6)"/>
</g>
</svg>
