<svg preserveAspectRatio="none" width="100%" height="100%" overflow="visible" style="display: block;" viewBox="0 0 277.349 456.318" fill="none" xmlns="http://www.w3.org/2000/svg">
<g id="Group 29">
<path id="Vector" d="M128.839 0.018398L159.272 0L159.264 9.64372C171.381 9.71176 184.094 9.88521 196.186 9.66924C196.196 14.0629 196.12 18.9573 196.284 23.33C201.957 23.3637 207.972 23.288 213.614 23.4355C213.624 26.1301 213.601 28.8908 213.647 31.5789C216.525 31.555 219.403 31.558 222.28 31.5875C222.621 35.5345 222.182 41.8337 222.296 46.0792L230.579 46.1187C230.577 50.0287 230.456 54.9214 230.674 58.7443C233.719 58.7966 236.766 58.8198 239.81 58.8145L239.824 81.326L248.945 81.3558C248.876 90.7687 248.864 100.182 248.913 109.595C245.992 109.645 242.738 109.769 239.847 109.657C239.833 115.699 239.687 122.279 239.842 128.277L248.89 128.333L248.862 145.795L239.829 145.73L239.606 161.691C236.68 161.704 233.712 161.689 230.791 161.733L230.758 180.302L225.9 180.305C225.809 183.418 225.786 186.534 225.83 189.648L230.842 189.675C230.911 186.568 230.935 183.459 230.907 180.35C234.717 180.406 238.528 180.44 242.341 180.45C244.524 180.453 247.77 180.349 249.872 180.597C250.313 181.116 250.213 181.931 250.232 182.715C250.469 184.135 250.346 188.044 250.318 189.655C253.418 189.644 256.634 189.591 259.725 189.626L259.818 198.971L268.881 198.99C268.816 204.919 268.575 211.711 268.73 217.545L277.348 217.527C277.332 226.562 277.26 235.597 277.127 244.631C274.348 244.67 271.352 244.661 268.598 244.847C268.663 245.82 268.912 249.177 268.456 249.95L268.315 271.438C265.428 271.468 262.409 271.454 259.532 271.547L259.484 280.86C256.386 280.899 253.149 280.99 250.065 280.89L250.046 290.003C246.461 290.166 242.908 290.005 239.334 290.057C234.009 290.133 229.061 289.192 223.726 289.274L223.678 297.19L229.892 297.23C229.885 298.958 229.639 311.737 230.085 312.406C233.013 312.29 235.946 312.299 238.874 312.434C238.807 318.952 238.588 326.432 238.839 332.878C241.793 332.89 244.747 332.918 247.701 332.964L247.434 359.627C244.517 359.667 241.308 359.644 238.417 359.806C238.301 365.542 238.219 371.277 238.17 377.013C240.623 376.973 243.196 376.971 245.634 376.883C245.529 383.059 245.476 389.239 245.476 395.42C240.207 395.459 234.938 395.471 229.671 395.45C229.629 400.963 229.465 406.947 229.557 412.417L221.251 412.436C221.116 415.409 221.058 418.385 221.079 421.361C218.067 421.407 215.058 421.435 212.046 421.44C212.012 424.422 211.995 427.407 211.992 430.39L203.128 430.497C203.121 431.684 203.273 438.653 202.774 439.159C199.289 439.538 193.81 439.236 190.131 439.331C188.669 439.368 182.95 439.417 181.754 439.285C181.698 442.172 181.723 445.146 181.711 448.042C169.556 448.168 157.113 448.001 144.933 447.956L144.846 456.259C136.782 456.412 128.543 456.21 120.433 456.291C120.35 453.258 120.429 450.37 120.274 447.306L101.721 447.294L101.704 439.032C96.4215 438.767 90.2798 438.922 84.8988 438.892C84.8501 435.905 84.851 432.915 84.9016 429.928C82.1108 429.802 79.0523 429.863 76.2399 429.86C76.2519 426.985 76.2459 424.111 76.2215 421.235L67.0366 421.224L67.061 412.248C64.2411 412.25 61.4211 412.234 58.6015 412.199C58.6607 406.459 58.6758 400.719 58.646 394.979C55.6695 394.967 52.6926 394.972 49.7161 394.99C49.662 383.71 49.7258 371.214 50.0932 359.988C52.6153 360.115 56.1908 359.96 58.7875 359.925C58.7341 353.832 58.758 347.736 58.8594 341.641C61.1138 341.429 64.8755 341.55 67.2479 341.559C67.2607 339.571 67.2056 336.813 67.4548 334.906L67.5242 332.672C70.4671 332.72 73.907 332.769 76.8306 332.648C76.7665 329.712 76.7684 326.778 76.8362 323.844C81.7058 323.837 87.1165 323.944 91.9425 323.763C92.1513 320.567 92.1731 317.424 92.2163 314.227C100.073 314.243 108.241 314.155 116.072 314.318C116.117 317.298 116.126 320.281 116.1 323.264L136.437 323.143C136.475 326.948 136.423 331.499 136.647 335.239L145.465 335.317C145.412 349.367 145.605 363.895 145.357 377.895L136.458 377.995L136.297 386.558L120.265 386.583L120.224 377.993C117.451 377.942 114.678 377.942 111.905 377.995C111.885 372.181 111.999 365.939 111.861 360.162C109.091 360.053 106.694 360.076 103.917 360.141C103.908 362.914 103.926 365.688 103.971 368.464C101.189 368.511 98.4063 368.59 95.6253 368.699C95.5788 374.527 95.5637 380.355 95.5798 386.184C97.1749 386.079 102.031 385.952 103.529 386.202L103.535 395.199L120.331 395.367C120.36 398.194 120.352 401.021 120.306 403.848C131.135 403.862 142.422 403.966 153.233 403.79C153.127 402.863 152.948 399.023 153.351 398.27L153.503 394.574C156.767 394.472 160.36 394.514 163.649 394.491C163.589 393.641 163.44 391.041 163.811 390.372L163.915 377.798C166.821 377.679 169.803 377.705 172.717 377.698L172.799 343.453C169.95 343.385 166.958 343.427 164.098 343.422L164.157 333.949L155.513 333.963L155.588 324.639C152.761 324.578 149.934 324.557 147.107 324.578C147.151 321.812 147.162 319.047 147.139 316.281L137.953 316.311C138.013 313.823 138.076 310.919 137.881 308.468C137.322 308.106 124.344 308.394 122.335 308.218C122.359 305.244 122.341 302.268 122.281 299.293C121.029 299.564 115.005 299.372 113.281 299.348C110.483 299.323 107.685 299.353 104.888 299.444C104.741 296.584 104.778 293.283 104.744 290.391L104.567 290.087L103.561 289.857C101.091 289.599 97.7062 289.676 95.1501 289.671L95.0902 280.309L95.1072 280.072C91.9978 279.912 88.5584 279.975 85.422 279.97L85.4701 269.944C82.5295 269.844 79.4768 269.861 76.5267 269.837C76.3051 261.53 76.5032 252.345 76.5086 243.971L67.504 243.969C67.3814 238.303 67.5426 232.326 67.4964 226.635C67.4783 224.432 67.3707 218.489 67.6452 216.549C68.3252 216.204 69.3197 216.287 70.1251 216.274C70.6657 215.965 75.5727 216.095 76.5531 216.102C76.5234 210.836 76.2782 203.306 76.6356 198.243L85.5649 198.208C85.3853 195.212 85.4917 191.885 85.6909 188.892L94.5638 188.906C94.5143 186.108 94.6246 183.149 94.6848 180.339L111.38 180.359C111.368 179.395 111.242 177.45 111.561 176.654L111.678 171.3C114.61 171.471 117.55 171.461 120.481 171.271L120.856 171.122C121.056 169.319 120.947 164.113 120.961 162.059C123.398 162.079 128.481 161.953 130.61 162.271C130.768 159.927 130.691 156.758 130.699 154.35C124.026 154.234 117.351 154.188 110.677 154.213C110.703 151.142 110.662 148.07 110.555 145.001C105.945 144.754 101.163 144.954 96.5442 144.869C84.6933 144.65 72.3261 145.149 60.5284 144.815L60.5231 153.291C56.1176 153.257 48.8875 153.482 44.8522 153.189C44.9235 156.152 44.7438 159.001 44.9177 162.032C42.0029 162.129 38.6107 162.008 35.6622 161.972C35.6503 165.296 35.6719 168.62 35.7274 171.944C32.6313 172.083 29.5323 172.151 26.4329 172.15C26.4844 168.761 26.458 165.289 26.4689 161.893C23.5761 161.774 20.4103 161.914 17.4952 161.987C17.5192 159.181 17.5217 156.375 17.5024 153.57L9.10703 153.676C9.0585 150.687 9.03829 147.698 9.04665 144.709C6.17411 144.572 3.00151 144.611 0.105857 144.587C0.0155937 138.608 -0.0854928 132.402 0.121437 126.438L9.15928 126.381L9.20154 117.669C17.2818 117.555 25.5193 117.621 33.6212 117.57C33.5239 114.599 33.5992 111.56 33.6375 108.583C39.9838 108.391 47.3744 108.547 53.7938 108.546C53.7699 105.843 53.7836 103.139 53.8352 100.436L62.4036 100.369C62.3297 94.4569 62.3188 88.544 62.3713 82.6318C65.2264 82.6429 68.0816 82.5828 70.9339 82.4508C70.7723 73.6555 70.818 63.8238 70.9223 55.0369C73.8815 55.0025 76.8411 55.0136 79.8002 55.071C79.7645 54.162 79.8551 53.7632 80.0086 52.8902C80.1386 50.6717 80.147 48.0983 80.2108 45.849C83.1953 45.7605 86.1807 45.7168 89.1661 45.718C89.0604 39.8936 89.044 32.9567 89.2502 27.1685C91.2503 26.9086 96.3294 27.0273 98.4052 27.1211L98.45 18.4698C104.643 18.7531 112.962 18.4915 119.306 18.4526L119.301 9.46642C121.641 9.2187 126.116 9.38243 128.594 9.41467C128.606 7.82045 128.595 6.40502 128.78 4.81264L128.839 0.018398Z" fill="var(--fill-0, #FEACCB)"/>
<path id="Vector_2" d="M70.1249 216.275C71.4704 216.339 75.8645 216.229 76.7376 216.491C79.2142 216.743 83.1559 216.605 85.7649 216.622C85.816 219.453 85.8157 222.285 85.7637 225.116C88.5592 225.137 94.8384 225.35 97.3178 225.128L103.851 225.197C105.98 225.081 108.96 225.181 111.153 225.189L111.158 220.515C112.393 220.847 116.927 221.22 118.274 220.848C118.801 220.702 118.797 220.338 118.997 219.812C119.234 221.074 119.494 222.333 119.777 223.586L119.828 224.943C119.732 234.484 119.701 244.027 119.738 253.57L123.374 253.681C123.419 256.508 123.441 259.368 123.522 262.19C126.183 262.209 128.842 262.276 131.5 262.395C131.536 268.265 131.608 274.137 131.717 280.007C134.443 280.012 137.785 279.933 140.455 280.152C140.491 283.195 140.485 286.24 140.437 289.283C142.834 289.539 145.515 289.492 147.949 289.504C148.116 292.375 148.134 295.688 148.078 298.589C150.882 298.777 153.694 298.819 156.502 298.719L156.46 307.604L164.657 307.644L164.454 315.605C167.028 315.633 170.147 315.589 172.661 315.837L172.465 324.221C174.929 324.23 179.947 324.049 182.228 324.205C182.305 330.219 182.126 336.096 182.153 342.057C185.534 342.075 189.239 341.982 192.573 342.242L192.663 377.991C191.041 378.072 189.545 378.142 187.915 378.133C187.886 380.776 187.795 383.694 187.845 386.326L181.521 386.395L181.522 395.262C179.429 395.264 176.999 395.323 174.938 395.211C173.992 394.461 173.816 394.21 172.651 394.458C169.94 394.579 166.553 394.493 163.789 394.5C163.84 393.155 163.813 391.727 163.81 390.372L163.914 377.798C166.82 377.68 169.803 377.705 172.717 377.698L172.799 343.453C169.95 343.385 166.958 343.427 164.098 343.423L164.157 333.949L155.513 333.963L155.588 324.639C152.761 324.579 149.934 324.558 147.107 324.579C147.151 321.812 147.162 319.047 147.138 316.281L137.953 316.311C138.012 313.823 138.076 310.919 137.881 308.469C137.322 308.106 124.343 308.394 122.335 308.218C122.359 305.244 122.341 302.269 122.281 299.293C121.029 299.565 115.005 299.372 113.281 299.349C110.483 299.323 107.685 299.353 104.888 299.444C104.74 296.584 104.778 293.283 104.743 290.391L104.567 290.087L103.561 289.857C101.091 289.599 97.706 289.676 95.15 289.671L95.0901 280.309L95.107 280.073C91.9976 279.912 88.5582 279.975 85.4219 279.97L85.47 269.944C82.5294 269.844 79.4766 269.861 76.5265 269.837C76.305 261.53 76.5031 252.345 76.5084 243.971L67.5039 243.969C67.3813 238.303 67.5424 232.326 67.4962 226.635C67.4781 224.432 67.3706 218.489 67.6451 216.549C68.325 216.204 69.3196 216.287 70.1249 216.275Z" fill="var(--fill-0, #FEDBB6)"/>
<path id="Vector_3" d="M137.882 308.469L137.931 308.348C138.988 307.611 145.214 308.15 147.298 307.865C147.288 310.562 147.23 313.405 147.277 316.09L156.076 316.16C156.052 318.845 156.067 321.628 155.991 324.304C158.728 324.321 161.542 324.302 164.272 324.369C164.284 327.515 164.126 330.908 164.175 333.977C167.069 334.01 170.056 334.003 172.941 334.084C172.923 337.199 172.819 340.228 172.779 343.318C175.634 343.325 178.638 343.283 181.48 343.355L181.287 377.786C178.425 377.93 175.652 377.926 172.791 377.928L172.652 394.458C169.941 394.579 166.554 394.493 163.79 394.5C163.84 393.155 163.813 391.726 163.811 390.372L163.915 377.798C166.821 377.679 169.804 377.705 172.718 377.698L172.8 343.453C169.951 343.385 166.959 343.427 164.098 343.422L164.157 333.949L155.514 333.963L155.588 324.639C152.762 324.578 149.934 324.557 147.107 324.578C147.152 321.812 147.162 319.047 147.139 316.281L137.954 316.311C138.013 313.823 138.076 310.919 137.882 308.469Z" fill="var(--fill-0, #191B1F)"/>
<path id="Vector_4" d="M70.1249 216.275C71.4704 216.339 75.8645 216.229 76.7376 216.491L76.4726 243.82C79.4541 243.771 82.4374 243.692 85.417 243.802L85.7163 243.985C85.4158 249.976 85.7472 256.157 85.5749 262.174C85.541 263.366 85.5201 264.755 85.6074 265.937C85.518 267.363 85.4948 268.462 85.519 269.889L94.9605 269.984C94.9721 271.726 94.8395 278.872 95.107 280.073C91.9976 279.912 88.5582 279.975 85.4219 279.97L85.47 269.944C82.5294 269.844 79.4766 269.861 76.5265 269.837C76.305 261.53 76.5031 252.345 76.5084 243.971L67.5039 243.969C67.3813 238.303 67.5424 232.326 67.4962 226.635C67.4781 224.432 67.3706 218.489 67.6451 216.549C68.325 216.204 69.3196 216.287 70.1249 216.275Z" fill="var(--fill-0, #191B1F)"/>
<path id="Vector_5" d="M85.7173 243.985C86.1342 245.316 85.8938 252.032 85.9019 253.872C88.5239 253.465 91.3254 253.716 93.9439 253.651C99.3404 253.516 106.133 254.018 111.44 253.64C111.422 256.039 111.514 259.826 111.365 262.086L100.987 262.065C98.9461 262.174 97.035 262.153 94.9935 262.139C95.0014 264.66 95.0697 267.492 94.9615 269.984L85.5199 269.889C85.4958 268.463 85.519 267.364 85.6084 265.937C85.5211 264.755 85.542 263.366 85.5759 262.174C85.7482 256.158 85.4168 249.976 85.7173 243.985Z" fill="var(--fill-0, #E7AE80)"/>
<path id="Vector_6" d="M85.963 261.719C90.942 262.206 96.2679 261.612 100.987 262.065C98.9461 262.174 97.035 262.153 94.9935 262.139C95.0014 264.659 95.0697 267.491 94.9615 269.984L85.5199 269.888C85.4958 268.462 85.519 267.363 85.6084 265.937C85.8539 265.094 85.9173 262.666 85.963 261.719Z" fill="var(--fill-0, #FBCBAA)"/>
<path id="Vector_7" d="M95.0904 280.31C95.9231 279.418 103.043 279.908 104.513 279.98C110.154 280.461 115.796 279.968 121.161 280.491L120.841 285.532C118.366 285.855 115.189 285.887 112.654 285.899C112.569 286.891 112.415 289.432 112.234 290.285C111.129 290.273 105.383 290.12 104.744 290.391L104.567 290.087L103.561 289.857C101.092 289.599 97.7063 289.676 95.1503 289.671L95.0904 280.31Z" fill="var(--fill-0, #FBCBAA)"/>
<path id="Vector_8" d="M95.0904 280.31C95.9231 279.418 103.043 279.908 104.513 279.98C104.512 281.176 104.724 289.077 104.18 289.732L103.561 289.857C101.092 289.599 97.7063 289.676 95.1503 289.671L95.0904 280.31Z" fill="var(--fill-0, #191B1F)"/>
<path id="Vector_9" d="M137.392 299.319C138.966 299.356 140.828 299.456 142.37 299.284C142.267 302.067 142.253 304.854 142.327 307.639C143.278 307.665 146.546 307.698 147.297 307.865C145.213 308.151 138.987 307.612 137.93 308.348L137.881 308.469C137.322 308.106 124.344 308.394 122.335 308.218C122.359 305.244 122.341 302.269 122.281 299.293C125.273 299.207 128.265 299.186 131.258 299.228C133.225 299.251 135.448 299.228 137.392 299.319Z" fill="var(--fill-0, #191B1F)"/>
<path id="Vector_10" d="M137.392 299.319C138.966 299.356 140.828 299.456 142.37 299.284C142.267 302.067 142.253 304.854 142.327 307.64C143.278 307.665 146.546 307.698 147.298 307.865C145.213 308.151 138.987 307.612 137.93 308.348L137.882 308.469C137.322 308.107 124.344 308.395 122.335 308.218C124.196 307.905 134.873 308.081 137.406 308.088C137.265 305.505 137.383 301.972 137.392 299.319Z" fill="var(--fill-0, #FBCBAA)"/>
<path id="Vector_11" d="M112.234 290.284L113.724 290.233C116.472 290.419 119.502 290.396 122.277 290.426C122.262 293.111 122.138 296.677 122.281 299.293C121.029 299.565 115.005 299.372 113.282 299.348C110.484 299.323 107.685 299.353 104.888 299.444C104.741 296.584 104.779 293.283 104.744 290.391C105.383 290.119 111.129 290.273 112.234 290.284Z" fill="var(--fill-0, #191B1F)"/>
<path id="Vector_12" d="M85.417 243.801C88.5069 243.525 91.1786 243.465 94.2894 243.513C94.2924 246.817 94.2348 250.122 94.1164 253.423C97.4752 253.477 109.077 253.019 111.439 253.639C106.132 254.018 99.3394 253.516 93.9429 253.651C91.3244 253.716 88.5229 253.465 85.9009 253.872C85.8928 252.032 86.1331 245.316 85.7163 243.985L85.417 243.801Z" fill="var(--fill-0, #FBCBAA)"/>
<path id="Vector_13" d="M113.725 290.233C117.737 289.808 126.197 290.226 130.648 290.205C130.66 291.725 130.56 297.878 130.872 298.951L131.259 299.228C128.266 299.186 125.274 299.207 122.282 299.293C122.138 296.677 122.263 293.111 122.277 290.426C119.503 290.396 116.472 290.419 113.725 290.233Z" fill="var(--fill-0, #FBCBAA)"/>
<path id="Vector_14" d="M111.438 253.64C114.042 253.661 116.927 253.749 119.499 253.677C119.433 256.378 119.301 259.345 119.329 262.026C116.732 262.053 113.946 262.132 111.364 262.086C111.513 259.826 111.421 256.039 111.438 253.64Z" fill="var(--fill-0, #FBCBAA)"/>
<path id="Vector_15" d="M111.159 220.515C112.393 220.847 116.927 221.22 118.274 220.848C118.801 220.702 118.797 220.338 118.997 219.812C119.234 221.075 119.494 222.333 119.777 223.586L119.829 224.943C117.758 225.441 105.93 225.668 103.851 225.197C105.98 225.081 108.961 225.181 111.153 225.189L111.159 220.515Z" fill="var(--fill-0, #FBCBAA)"/>
<path id="Vector_16" d="M250.233 182.715C250.47 184.135 250.346 188.044 250.319 189.655C253.419 189.644 256.635 189.591 259.726 189.626L259.819 198.971L268.882 198.99C268.817 204.919 268.576 211.711 268.731 217.545L277.349 217.527C277.333 226.562 277.261 235.597 277.128 244.631C274.349 244.67 271.353 244.661 268.599 244.847C268.664 245.82 268.912 249.177 268.457 249.95L268.316 271.438C265.429 271.468 262.41 271.454 259.533 271.547L259.484 280.86C256.386 280.899 253.149 280.99 250.065 280.89C243.266 280.846 236.406 281.02 229.66 280.249C227.366 279.986 225.025 279.984 222.715 279.956C222.246 277.965 223.005 273.484 222.517 271.354C222 270.952 221.136 270.999 220.441 270.952C219.173 271.089 215.272 270.978 213.81 270.973C213.509 269.294 213.746 256.601 213.83 254.311L214.397 253.795C215.576 250.87 215.339 230.091 215.202 225.634C216.129 226.408 220.694 226.101 222.285 226.085C222.501 224.141 222.373 219.734 222.478 217.356C223.49 217.355 227.257 217.484 227.923 217.083L230.998 216.921C231.003 214.223 231.04 211.525 231.105 208.827C230.991 208.59 230.903 208.541 230.715 208.338C228.831 208.096 226.465 208.264 224.452 208.188C223.702 208.232 222.952 208.255 222.199 208.257C222.132 205.365 222.204 202.269 222.222 199.362C225.035 199.304 227.847 199.284 230.659 199.299C230.817 198.555 230.884 190.992 230.898 189.795C237.314 189.73 243.749 189.875 250.168 189.731C250.119 187.848 250.007 184.504 250.233 182.715Z" fill="var(--fill-0, #FEACCB)"/>
<path id="Vector_17" d="M240.507 216.907L250.291 216.857C250.279 219.993 250.228 223.23 250.261 226.358L240.517 226.339C240.505 229.483 240.452 232.763 240.486 235.895C237.249 235.948 234.01 235.955 230.773 235.913C230.689 238.766 230.631 241.618 230.601 244.471L240.408 244.675C240.463 246.267 240.524 253.447 239.585 254.3C234.818 253.661 227.868 253.914 222.868 253.781C222.873 255.937 222.861 258.109 222.891 260.26L231.4 260.146C231.407 262.653 231.439 265.157 231.495 267.664C234.381 267.606 237.27 267.585 240.159 267.601C240.082 271.641 240.038 275.683 240.024 279.725C237.598 279.643 233.815 279.673 231.428 279.957C231.4 277.037 231.39 274.117 231.402 271.199L222.91 271.136C222.903 272.595 222.945 278.886 222.715 279.957C222.246 277.966 223.005 273.485 222.517 271.355C222 270.953 221.136 270.999 220.441 270.953C219.173 271.09 215.272 270.979 213.81 270.974C213.509 269.294 213.746 256.602 213.83 254.311L214.397 253.795C215.576 250.871 215.339 230.092 215.202 225.635C216.129 226.409 220.694 226.101 222.285 226.085C228.297 226.276 234.34 226.183 240.359 226.153C240.408 223.094 240.491 219.961 240.507 216.907Z" fill="var(--fill-0, #FB6FA0)"/>
<path id="Vector_18" d="M215.446 235.817C220.229 235.662 225.905 235.861 230.772 235.913C230.689 238.765 230.631 241.618 230.6 244.47C226.639 244.131 219.477 244.368 215.423 244.542L215.446 235.817Z" fill="var(--fill-0, #FC85B0)"/>
<path id="Vector_19" d="M214.219 262.713C217.268 262.551 219.801 262.263 222.897 262.23C222.915 263.624 223.168 269.924 222.63 270.732L220.44 270.953C219.172 271.09 215.271 270.979 213.808 270.974C214.004 268.323 213.964 265.248 214.219 262.713Z" fill="var(--fill-0, #FE94BA)"/>
<path id="Vector_20" d="M259.819 198.972L268.882 198.991C268.817 204.919 268.576 211.711 268.731 217.545L277.349 217.528C277.333 226.563 277.261 235.597 277.128 244.631C274.349 244.671 271.353 244.662 268.599 244.847C267.949 242.85 268.805 221.682 268.692 217.65C265.787 217.62 262.786 217.718 259.874 217.776C259.558 212.6 259.835 204.395 259.819 198.972Z" fill="var(--fill-0, #191B1F)"/>
<path id="Vector_21" d="M259.756 244.944C262.642 244.944 265.577 245.009 268.468 245.044C268.452 246.68 268.45 248.315 268.457 249.95L268.315 271.438C265.429 271.468 262.41 271.454 259.533 271.547L259.484 280.86C256.386 280.899 253.149 280.99 250.065 280.89C249.956 277.677 249.998 274.669 250.044 271.461C253.207 271.447 256.368 271.459 259.528 271.496C259.463 263.057 259.505 253.342 259.756 244.944Z" fill="var(--fill-0, #191B1F)"/>
<path id="Vector_22" d="M240.407 244.675C243.563 244.838 246.724 244.937 249.882 244.972C249.807 248.02 249.622 252.071 249.791 255.054C247.044 255.112 241.861 255.465 239.585 254.299C240.523 253.446 240.463 246.266 240.407 244.675Z" fill="var(--fill-0, #FC85B0)"/>
<path id="Vector_23" d="M250.318 189.656C253.418 189.645 256.634 189.591 259.725 189.627L259.818 198.972L250.267 198.921C250.253 195.833 250.269 192.744 250.318 189.656Z" fill="var(--fill-0, #191B1F)"/>
<path id="Vector_24" d="M230.781 199.51C233.737 199.489 236.693 199.446 239.649 199.38C239.696 202.319 239.784 205.343 239.698 208.274C238.439 208.267 232.021 208.087 231.252 208.45L231.104 208.828C230.99 208.59 230.902 208.541 230.713 208.338C228.83 208.096 226.464 208.264 224.451 208.188C225.986 207.828 229.269 207.969 230.932 207.993C230.92 205.183 230.943 202.311 230.781 199.51Z" fill="var(--fill-0, #FC85B0)"/>
<path id="Vector_25" d="M148.24 154.086C148.24 152.169 147.996 147.416 148.911 146.018C150.217 144.953 155.195 145.31 157.131 145.301C157.074 147.926 156.984 151.24 157.235 153.806L156.874 172.031C153.895 172.185 150.912 172.248 147.929 172.219C147.933 174.761 147.839 178.115 147.976 180.599C145.329 180.629 142.566 180.72 139.935 180.71C139.939 183.465 139.737 186.508 139.794 189.144L131.389 189.095C131.44 195.276 131.444 201.458 131.403 207.64C128.558 207.63 125.536 207.671 122.707 207.577C122.735 209.282 122.761 211.143 122.846 212.834C123.025 216.405 122.84 217.204 120.011 219.341C119.839 220.937 119.784 221.98 119.777 223.586C119.494 222.333 119.234 221.075 118.997 219.812C118.797 220.338 118.801 220.702 118.274 220.848C116.927 221.22 112.393 220.847 111.159 220.515L111.153 225.189C108.96 225.181 105.98 225.081 103.851 225.197L97.3179 225.128C94.8385 225.351 88.5593 225.137 85.7639 225.116C85.8159 222.285 85.8161 219.454 85.765 216.623C83.1561 216.606 79.2144 216.743 76.7378 216.492C75.8646 216.229 71.4706 216.339 70.1251 216.275C70.6657 215.966 75.5727 216.096 76.5531 216.102C76.5234 210.837 76.2782 203.306 76.6356 198.243L85.5649 198.209C85.3854 195.212 85.4917 191.886 85.691 188.893L94.5638 188.906C94.5143 186.109 94.6246 183.149 94.6848 180.34L111.38 180.359C111.368 179.396 111.242 177.451 111.561 176.654L111.678 171.301C114.61 171.472 117.55 171.462 120.481 171.271L120.856 171.123C121.056 169.32 120.947 164.114 120.961 162.059C123.398 162.08 128.481 161.954 130.61 162.272C132.556 162.583 137.446 162.43 139.446 162.293C139.371 159.696 139.442 156.796 139.539 154.2C142.439 154.181 145.34 154.142 148.24 154.086Z" fill="var(--fill-0, #FEDBB6)"/>
<path id="Vector_26" d="M94.6848 180.339L111.38 180.359L111.351 189.361L94.688 189.296L94.6379 198.276L86.1333 198.284C85.6234 199.597 85.8628 214.217 86.3799 215.608C89.0841 215.669 91.5691 215.474 94.2245 215.514L94.2768 213.365C94.3313 214.13 94.3251 215.518 94.6999 216.101C94.7075 217.696 94.6142 223.477 94.8889 224.726C95.8789 225.161 96.3417 224.979 97.3179 225.128C94.8385 225.35 88.5593 225.137 85.7639 225.116C85.8159 222.285 85.8161 219.453 85.765 216.622C83.1561 216.605 79.2144 216.743 76.7378 216.491C75.8646 216.229 71.4706 216.339 70.1251 216.275C70.6657 215.965 75.5727 216.095 76.5531 216.102C76.5234 210.836 76.2782 203.306 76.6356 198.243L85.5649 198.208C85.3854 195.212 85.4917 191.885 85.691 188.892L94.5638 188.906C94.5143 186.108 94.6246 183.149 94.6848 180.339Z" fill="var(--fill-0, #191B1F)"/>
<path id="Vector_27" d="M85.6703 216.271C85.6633 211.583 85.4141 202.847 85.7288 198.36L86.1333 198.285C85.6234 199.597 85.8628 214.218 86.3799 215.609C89.0841 215.67 91.5691 215.474 94.2245 215.515L94.2768 213.366C94.3313 214.131 94.3251 215.519 94.6999 216.101C94.7075 217.697 94.6142 223.477 94.8889 224.726C95.8789 225.162 96.3417 224.979 97.3179 225.129C94.8385 225.351 88.5593 225.137 85.7639 225.116C85.8159 222.285 85.8161 219.454 85.765 216.623C83.1561 216.606 79.2144 216.743 76.7378 216.492C75.8646 216.229 71.4706 216.34 70.1251 216.275C70.6657 215.966 75.5727 216.096 76.5531 216.102C76.5234 210.837 76.2782 203.306 76.6356 198.243C76.8553 199.536 76.7621 203.468 76.7556 204.914C76.7289 208.695 76.7364 212.477 76.7782 216.258C79.6435 216.191 82.7836 216.264 85.6703 216.271Z" fill="var(--fill-0, #FBCBAA)"/>
<path id="Vector_28" d="M120.482 171.271L120.856 171.122L121.198 171.44C121.256 177.587 120.896 183.315 120.84 189.358C117.677 189.377 114.515 189.378 111.352 189.362L111.381 180.359C111.368 179.395 111.242 177.451 111.561 176.654L111.678 171.3C114.611 171.471 117.551 171.462 120.482 171.271Z" fill="var(--fill-0, #FBCBAA)"/>
<path id="Vector_29" d="M120.48 171.271C121.337 171.901 120.93 178.813 120.905 180.317L111.545 180.332L111.56 176.655L111.677 171.301C114.609 171.472 117.549 171.462 120.48 171.271Z" fill="var(--fill-0, #191B1F)"/>
<path id="Vector_30" d="M94.7001 216.101L97.4032 216.122C101.299 216.472 107.074 216.33 111.104 216.329L111.159 220.515L111.154 225.19C108.961 225.181 105.98 225.081 103.851 225.197L97.3182 225.128C96.3419 224.979 95.8791 225.162 94.8892 224.726C94.6144 223.477 94.7078 217.697 94.7001 216.101Z" fill="var(--fill-0, #E7AE80)"/>
<path id="Vector_31" d="M120.961 162.059C123.399 162.079 128.482 161.953 130.611 162.271C130.397 165.295 130.507 168.281 130.412 171.291C127.915 171.314 123.545 171.217 121.198 171.44L120.856 171.122C121.057 169.32 120.948 164.114 120.961 162.059Z" fill="var(--fill-0, #191B1F)"/>
<path id="Vector_32" d="M97.4025 216.121C104.383 215.826 112.359 216.465 119.068 216.107C119.062 217.242 119.095 218.712 118.997 219.811C118.797 220.338 118.801 220.702 118.273 220.848C116.927 221.22 112.393 220.846 111.158 220.515L111.104 216.329C107.073 216.329 101.298 216.472 97.4025 216.121Z" fill="var(--fill-0, #FBCBAA)"/>
<path id="Vector_33" d="M113.28 195.274C114.075 195.183 114.7 195.01 115.398 195.335C116.156 196.796 116.186 205.39 115.189 206.842C113.568 207.623 109.472 207.348 107.48 207.319L107.328 207.317C106.421 207.298 105.593 207.419 104.865 206.945C103.42 204.339 105.19 199.693 106.859 197.467C108.344 195.486 110.986 195.547 113.28 195.274Z" fill="var(--fill-0, #FBCBAA)"/>
<path id="Vector_34" d="M58.8593 341.641C61.338 341.848 64.819 341.731 67.3757 341.736L67.2919 351.376C67.2956 353.634 67.1895 357.321 67.3664 359.465L67.62 360.118C67.6869 362.583 67.5833 365.756 67.4582 368.234C66.9145 368.608 66.4315 368.601 65.769 368.687L67.5929 368.708C67.7308 370.641 67.5552 381.487 67.307 383.215C67.3075 384.103 67.2708 385.301 67.3156 386.158C67.3544 387.75 67.4194 393.357 67.2585 394.814C67.2013 397.941 67.1988 401.067 67.251 404.194L67.1187 412.146C70.0019 412.148 73.4085 412.062 76.2486 412.178C77.0367 412.471 83.9462 412.355 85.3604 412.464C85.4835 415.319 85.4523 418.176 85.2668 421.024C88.1721 420.994 90.7927 421.075 93.6859 421.194C94.5391 421.194 95.5994 421.224 96.433 421.161C98.2887 421.163 100.569 421.11 102.392 421.198L111.229 421.208L111.179 430.077C112.4 430.072 113.733 430.04 114.944 430.077C115.788 430.418 119.457 430.267 120.547 430.253C120.523 433.076 120.515 435.9 120.523 438.723L127.544 438.948C130.332 438.772 133.652 438.874 136.485 438.897L136.545 439.071C137.307 438.637 143.085 438.806 144.427 438.82C144.465 435.984 144.458 433.148 144.406 430.311C144.354 429.266 144.431 427.977 144.466 426.911C146.038 426.855 151.999 426.576 153.276 426.838L153.458 427.215C153.267 431.108 153.337 435.185 153.101 439.016C159.528 439.097 165.957 439.12 172.385 439.088C174.069 439.085 180.522 438.992 181.754 439.285C181.698 442.172 181.723 445.146 181.711 448.043C169.556 448.168 157.113 448.001 144.933 447.957L144.846 456.259C136.782 456.412 128.543 456.21 120.433 456.292C120.35 453.258 120.429 450.37 120.274 447.306L101.721 447.295L101.704 439.032C96.4214 438.767 90.2797 438.923 84.8987 438.892C84.85 435.905 84.8509 432.915 84.9015 429.928C82.1107 429.803 79.0522 429.863 76.2398 429.861C76.2518 426.985 76.2458 424.111 76.2214 421.235L67.0365 421.224L67.0608 412.248C64.241 412.25 61.4209 412.234 58.6013 412.199C58.6606 406.459 58.6757 400.719 58.6459 394.979C55.6693 394.967 52.6925 394.972 49.716 394.99C49.6619 383.71 49.7257 371.215 50.0931 359.988C52.6152 360.115 56.1907 359.96 58.7874 359.925C58.7339 353.832 58.7579 347.736 58.8593 341.641Z" fill="var(--fill-0, #191B1F)"/>
<path id="Vector_35" d="M96.434 421.161C98.2897 421.164 100.57 421.11 102.393 421.198L111.23 421.208L111.18 430.077C112.401 430.072 113.734 430.04 114.945 430.077C115.789 430.418 119.458 430.267 120.548 430.253C120.524 433.076 120.516 435.901 120.524 438.723L127.545 438.948L127.488 439.183C125.083 438.985 122.8 439.229 120.43 439.106C118.969 438.674 104.372 438.876 101.887 438.888L101.91 430.123C99.3992 430.195 96.1772 430.047 93.6142 430.003L93.5601 429.77C93.4537 427.371 93.5661 423.547 93.6869 421.194C94.5401 421.194 95.6004 421.224 96.434 421.161Z" fill="var(--fill-0, #FB6FA0)"/>
<path id="Vector_36" d="M96.434 421.161C98.2897 421.164 100.57 421.11 102.393 421.198C100.807 422.787 99.4849 427.206 99.2135 429.406C99.1187 430.174 94.4312 429.812 93.5601 429.77C93.4537 427.371 93.5661 423.547 93.6869 421.194C94.5401 421.194 95.6004 421.224 96.434 421.161Z" fill="var(--fill-0, #FC85B0)"/>
<path id="Vector_37" d="M144.467 426.911C146.038 426.855 151.999 426.576 153.276 426.839L153.458 427.215C153.267 431.108 153.337 435.185 153.101 439.016C150.88 438.849 146.943 438.946 144.581 438.904C144.334 440.719 144.534 445.506 144.589 447.502L133.411 447.448C132.334 447.441 128.463 447.453 127.585 447.272H127.436C127.391 444.575 127.408 441.878 127.487 439.183L127.544 438.948C130.332 438.772 133.652 438.874 136.485 438.897L136.546 439.072C137.307 438.637 143.085 438.807 144.427 438.821C144.465 435.984 144.458 433.148 144.406 430.312C144.355 429.266 144.431 427.977 144.467 426.911Z" fill="var(--fill-0, #FE5792)"/>
<path id="Vector_38" d="M127.544 438.949C130.332 438.772 133.652 438.874 136.485 438.898L136.546 439.072C136.682 441.776 136.65 444.547 136.651 447.26C134.345 447.226 129.719 447.04 127.585 447.272H127.436C127.391 444.575 127.408 441.878 127.487 439.183L127.544 438.949Z" fill="var(--fill-0, #FC85B0)"/>
<path id="Vector_39" d="M76.249 412.178C77.0372 412.471 83.9466 412.355 85.3608 412.464C85.4839 415.319 85.4528 418.176 85.2672 421.024C88.1725 420.994 90.7931 421.075 93.6863 421.194C93.5656 423.547 93.4532 427.37 93.5595 429.77L93.6136 430.002C90.7959 430.028 87.9779 430.007 85.1609 429.94C85.2744 427.133 85.2154 423.914 85.2305 421.075C82.22 421.026 79.2089 421.022 76.1981 421.059C76.1278 418.188 76.2188 415.068 76.249 412.178Z" fill="var(--fill-0, #FE5792)"/>
<path id="Vector_40" d="M58.8347 378.252C60.8564 377.715 65.2057 377.892 67.3528 377.938C67.2829 379.711 67.1733 381.448 67.3063 383.216C67.3068 384.103 67.2701 385.302 67.3149 386.159C67.3537 387.75 67.4187 393.358 67.2578 394.815C64.9523 394.629 61.1089 394.759 58.6922 394.766C58.7089 389.836 58.6037 383.669 58.8742 378.818L58.8347 378.252Z" fill="var(--fill-0, #FE5792)"/>
<path id="Vector_41" d="M58.8356 378.252C60.8573 377.715 65.2065 377.892 67.3536 377.938C67.2837 379.711 67.1741 381.448 67.3072 383.216C67.3076 384.103 67.2709 385.302 67.3158 386.159C65.1338 386.124 60.9999 386.015 58.9614 386.405C58.9775 383.948 59.0527 381.246 58.8751 378.818L58.8356 378.252Z" fill="var(--fill-0, #FB6FA0)"/>
<path id="Vector_42" d="M58.9046 368.569L65.7692 368.688L67.593 368.709C67.731 370.641 67.5554 381.487 67.3072 383.216C67.1741 381.448 67.2837 379.71 67.3536 377.938C65.2065 377.891 60.8573 377.715 58.8356 378.252L58.9046 368.569Z" fill="var(--fill-0, #FE94BA)"/>
<path id="Vector_43" d="M67.3666 359.465L67.6202 360.118C67.6871 362.583 67.5835 365.756 67.4583 368.235C66.9147 368.609 66.4317 368.602 65.7692 368.688L58.9045 368.569L58.8952 360.127C60.4195 360.132 65.9168 360.255 67.1051 359.967L67.3666 359.465Z" fill="var(--fill-0, #FB6FA0)"/>
<path id="Vector_44" d="M120.43 439.106C122.8 439.229 125.083 438.985 127.488 439.183C127.409 441.877 127.392 444.574 127.437 447.271C125.115 447.334 122.639 447.285 120.304 447.28C120.27 444.649 120.381 441.754 120.43 439.106Z" fill="var(--fill-0, #FE5792)"/>
<path id="Vector_45" d="M157.605 108.538C159.426 108.512 164.162 108.231 165.983 108.767C166.264 108.85 166.29 109.359 166.384 109.748C166.797 112.94 166.318 121.172 166.195 124.711C166.336 126.339 166.363 134.927 165.937 136.136C165.569 141.312 165.827 147.91 165.758 153.236C164.168 153.323 157.956 152.927 157.234 153.805C156.984 151.24 157.074 147.926 157.131 145.301C155.195 145.31 150.217 144.953 148.911 146.018C147.996 147.416 148.24 152.168 148.24 154.085C145.339 154.142 142.439 154.181 139.538 154.2C139.442 156.796 139.37 159.696 139.446 162.293C137.446 162.43 132.555 162.583 130.61 162.272C130.768 159.927 130.691 156.758 130.699 154.351C124.025 154.234 117.351 154.189 110.676 154.213C110.702 151.142 110.662 148.071 110.554 145.001C105.945 144.754 101.163 144.954 96.5438 144.869C84.6929 144.651 72.3257 145.15 60.528 144.815C60.3659 141.872 60.482 138.736 60.3722 135.741L61.1815 135.745C67.1688 135.808 73.1561 135.831 79.1436 135.814C80.1719 135.814 86.1617 135.877 86.9076 135.751C89.3345 135.38 100.019 135.597 102.803 135.607C103.08 133.046 102.85 129.462 102.752 126.798C105.36 126.816 108.133 126.785 110.717 127.002C110.703 129.517 110.79 133.237 110.55 135.653L124.601 135.663C126.243 135.661 130.749 135.575 132.182 135.836C132.268 133.036 132.235 130.028 132.257 127.211C133.054 127.063 138.235 127.074 139.36 127.061C139.514 124.127 139.622 121.19 139.686 118.252C140.771 118.329 149.115 118.227 148.975 118.168C151.402 118.325 155.005 118.233 157.523 118.251C157.436 115.189 157.566 111.634 157.605 108.538Z" fill="var(--fill-0, #191B1F)"/>
<path id="Vector_46" d="M157.45 135.895C159.287 135.99 164.54 135.925 165.937 136.136C165.568 141.312 165.827 147.91 165.758 153.236C164.168 153.322 157.956 152.927 157.234 153.805C156.984 151.24 157.074 147.926 157.131 145.301C155.195 145.31 150.217 144.953 148.911 146.018C147.996 147.416 148.24 152.168 148.239 154.085C145.339 154.142 142.439 154.181 139.538 154.2C139.748 151.992 139.661 147.445 139.692 145.06C142.507 144.986 145.507 145.033 148.337 145.029C148.314 142.02 148.343 139.01 148.424 136.001C151.438 135.946 154.432 136.018 157.45 135.895Z" fill="var(--fill-0, #FBCBAA)"/>
<path id="Vector_47" d="M166.385 109.748C166.798 112.94 166.319 121.172 166.196 124.711C166.337 126.339 166.364 134.927 165.938 136.136C164.541 135.925 159.288 135.99 157.452 135.895C157.409 133.822 157.445 131.662 157.454 129.581C157.446 125.929 157.465 122.278 157.512 118.627L166.221 118.565C166.238 115.839 166.169 112.412 166.385 109.748Z" fill="var(--fill-0, #FC85B0)"/>
<path id="Vector_48" d="M157.454 129.581C158.025 127.205 157.166 127.493 159.896 127.391C161.097 127.346 164.989 127.679 165.845 127.089C166.133 126.185 166.134 125.64 166.196 124.712C166.337 126.34 166.364 134.928 165.938 136.136C164.541 135.925 159.288 135.99 157.452 135.896C157.409 133.822 157.445 131.662 157.454 129.581Z" fill="var(--fill-0, #FE94BA)"/>
<path id="Vector_49" d="M139.686 118.252C140.771 118.33 149.116 118.228 148.976 118.168C148.307 118.95 148.55 125.875 148.555 127.405C145.152 127.371 141.748 127.355 138.345 127.359C137.052 127.359 133.336 127.422 132.258 127.212C133.055 127.063 138.236 127.074 139.361 127.062C139.514 124.127 139.623 121.19 139.686 118.252Z" fill="var(--fill-0, #FC85B0)"/>
<path id="Vector_50" d="M102.753 126.798C105.361 126.816 108.134 126.784 110.718 127.002C110.703 129.517 110.791 133.237 110.551 135.652L124.602 135.663C126.244 135.661 130.75 135.575 132.183 135.836C130.846 136.022 127.783 135.938 126.335 135.937L115.22 135.924L97.5382 135.879C94.2609 135.872 90.1218 135.968 86.9084 135.75C89.3353 135.379 100.019 135.597 102.804 135.606C103.081 133.046 102.851 129.462 102.753 126.798Z" fill="var(--fill-0, #FB6FA0)"/>
<path id="Vector_51" d="M92.2159 314.228C100.072 314.244 108.241 314.156 116.071 314.318C116.117 317.298 116.126 320.281 116.1 323.264L136.436 323.143C136.474 326.948 136.422 331.499 136.646 335.239L145.465 335.318C145.412 349.367 145.604 363.895 145.357 377.896L136.458 377.996L136.297 386.558L120.265 386.584L120.223 377.993C117.451 377.942 114.677 377.942 111.905 377.996C111.884 372.181 111.998 365.939 111.86 360.162C109.091 360.053 106.693 360.076 103.917 360.141C103.908 362.915 103.926 365.689 103.971 368.464C101.188 368.511 98.4059 368.59 95.6249 368.699C95.5784 374.527 95.5633 380.356 95.5793 386.184C94.0576 386.405 88.9374 386.27 87.1447 386.261C87.1528 377.478 87.2167 368.694 87.3363 359.914C89.9963 360.027 93.2216 359.939 95.9237 359.934C96.044 356.845 96.1151 353.755 96.1367 350.663C102.041 351.037 111.935 350.752 118.14 350.77C118.135 353.79 118.147 356.812 118.174 359.835C121.185 359.735 124.198 359.725 127.209 359.804L127.162 369.045L120.46 369.127C120.292 372.04 120.231 374.96 120.277 377.877C122.689 377.859 125.142 377.782 127.557 377.729C130.447 377.591 133.518 377.654 136.424 377.668C136.431 375.768 136.383 370.262 136.699 368.606C137.276 367.196 136.95 344.84 136.936 341.748C136.272 341.376 129.938 341.678 128.688 341.711C127.765 341.32 122.352 341.488 120.976 341.497C120.997 338.447 120.974 335.395 120.906 332.342C119.266 332.358 117.881 332.347 116.234 332.263L116.205 332.08C115.844 330.874 116.02 324.83 116.041 323.276L105.088 323.348C103.891 323.338 102.695 323.357 101.499 323.403C99.081 323.292 96.7079 323.341 94.2894 323.371C94.1651 326.6 94.1496 329.831 94.2427 333.06C90.6953 333.02 87.1477 333 83.6003 333C82.1083 332.995 78.3248 333.041 76.9788 332.802C76.7787 335.604 76.837 338.932 76.8202 341.78L67.4189 341.771C67.4437 339.655 67.5473 336.981 67.4544 334.907L67.5238 332.672C70.4667 332.721 73.9066 332.77 76.8302 332.649C76.7661 329.713 76.768 326.779 76.8358 323.845C81.7054 323.838 87.1161 323.945 91.9421 323.763C92.1509 320.567 92.1727 317.424 92.2159 314.228Z" fill="var(--fill-0, #191B1F)"/>
<path id="Vector_52" d="M116.205 332.08C121.335 332.114 126.797 332.038 131.901 332.163C131.971 334.305 131.992 335.824 131.861 337.957L136.899 338.064L136.936 341.748C136.272 341.376 129.938 341.678 128.688 341.711C127.765 341.32 122.352 341.488 120.976 341.497C120.997 338.447 120.974 335.394 120.906 332.342C119.266 332.358 117.881 332.347 116.234 332.263L116.205 332.08Z" fill="var(--fill-0, #FB6FA0)"/>
<path id="Vector_53" d="M231.032 109.529C233.737 109.532 237.197 109.455 239.847 109.657C239.833 115.7 239.686 122.279 239.842 128.278L248.889 128.333L248.861 145.795L239.828 145.731L239.605 161.692C236.679 161.704 233.712 161.689 230.79 161.733L230.758 180.303L225.9 180.306C225.809 183.419 225.786 186.534 225.83 189.649L230.841 189.676C230.911 186.568 230.934 183.459 230.906 180.351C234.717 180.407 238.528 180.44 242.341 180.451C244.524 180.454 247.77 180.35 249.872 180.597C250.313 181.117 250.213 181.931 250.232 182.715C250.006 184.504 250.118 187.849 250.167 189.732C243.748 189.876 237.313 189.731 230.897 189.795C230.883 190.993 230.816 198.556 230.658 199.3C227.846 199.284 225.033 199.305 222.221 199.363C222.203 202.27 222.131 205.365 222.198 208.258C221.265 208.809 205.642 208.426 203.551 208.36C203.585 205.847 203.76 201.685 203.513 199.306C203.297 199.015 203.334 198.822 203.283 198.422C203.43 197.586 203.373 194.367 203.409 193.391C203.569 189.072 203.364 184.176 203.788 179.917C207.326 180.243 210.491 180.054 214.034 179.825C214.018 181.06 213.918 182.775 214.2 183.933L214.201 180.104L221.68 180.085L221.768 171.134C221.713 168.034 221.755 164.807 221.75 161.696L221.664 161.499C221.966 159.038 221.808 155.644 221.755 153.086L221.738 152.936L221.432 152.937C221.606 150.852 221.492 147.258 221.485 145.061C219.711 144.993 213.45 145.118 212.341 144.804C213.989 144.542 219.781 144.754 221.741 144.803C221.806 141.96 221.847 139.116 221.866 136.273C224.418 136.441 227.85 136.216 230.474 136.115C230.516 134.575 230.474 129.462 231.166 128.446L231.062 128.356C230.841 122.537 230.969 115.343 231.032 109.529Z" fill="var(--fill-0, #191B1F)"/>
<path id="Vector_54" d="M231.167 128.445C234.1 128.47 237.035 128.468 239.968 128.439C239.982 133.913 240.133 140.097 239.889 145.503L234.664 145.405L230.57 145.415L230.561 153.486C229.107 153.288 222.745 152.784 221.755 153.086L221.739 152.936L221.433 152.937C221.607 150.851 221.493 147.258 221.486 145.061C219.712 144.992 213.451 145.117 212.342 144.804C213.99 144.542 219.781 144.754 221.741 144.802C221.806 141.959 221.848 139.116 221.867 136.272C224.419 136.44 227.851 136.216 230.475 136.114C230.517 134.575 230.475 129.461 231.167 128.445Z" fill="var(--fill-0, #FC85B0)"/>
<path id="Vector_55" d="M221.73 144.97C223.177 145.05 234.07 145.098 234.664 145.405L230.57 145.415L230.561 153.486C229.107 153.288 222.745 152.784 221.755 153.086L221.739 152.936L221.73 144.97Z" fill="var(--fill-0, #FE5792)"/>
<path id="Vector_56" d="M203.788 179.916C207.326 180.243 210.491 180.054 214.034 179.825C214.018 181.06 213.918 182.775 214.2 183.933C214.212 184.829 214.43 189.271 214.227 189.667L213.244 189.934C212.839 190.937 212.845 197.271 212.823 198.817C211.392 198.805 204.297 198.44 203.57 199.205C203.543 199.233 203.532 199.272 203.513 199.306C203.297 199.014 203.334 198.821 203.283 198.422C203.43 197.586 203.373 194.367 203.409 193.391C203.569 189.071 203.364 184.176 203.788 179.916Z" fill="var(--fill-0, #FB6FA0)"/>
<path id="Vector_57" d="M221.755 153.086C222.745 152.784 229.107 153.288 230.561 153.486L230.642 161.582C229.175 161.554 222.759 161.374 221.751 161.696L221.665 161.499C221.967 159.038 221.809 155.644 221.755 153.086Z" fill="var(--fill-0, #FD4182)"/>
<path id="Vector_58" d="M230.084 312.407C233.012 312.291 235.945 312.3 238.873 312.435C238.806 318.953 238.588 326.433 238.838 332.879C241.792 332.891 244.746 332.919 247.7 332.965L247.433 359.628C244.516 359.668 241.307 359.645 238.416 359.807C238.3 365.543 238.218 371.278 238.17 377.014C240.622 376.974 243.195 376.972 245.633 376.883C245.529 383.06 245.475 389.239 245.475 395.421C240.206 395.46 234.937 395.472 229.67 395.451C229.629 400.963 229.464 406.947 229.557 412.418L221.25 412.437C221.116 415.41 221.057 418.386 221.078 421.362C218.066 421.408 215.057 421.436 212.045 421.441C212.012 424.423 211.994 427.408 211.992 430.391L203.128 430.498C203.121 431.685 203.272 438.654 202.773 439.16C195.724 439.13 188.675 439.146 181.627 439.204C181.568 436.182 181.637 433.297 181.711 430.279C182.967 430.314 184.1 430.296 185.357 430.261C186.695 429.922 191.442 430.038 193.129 430.052C193.381 427.782 193.36 423.836 193.422 421.443C196.414 421.327 199.408 421.264 202.402 421.252C202.982 420.358 202.999 413.459 202.908 412.172C202.936 411.382 203.041 410.571 203.125 409.784C203.161 407.707 203.179 405.842 203.384 403.772C205.832 403.983 209.361 403.839 211.926 403.825C214.446 403.6 218.429 403.728 221.046 403.746L221.074 397.632C221.104 396.733 221.099 396.236 221.311 395.34C222.328 394.956 228.168 395.058 229.657 395.065L229.684 386.384L237.747 386.424C237.742 383.455 237.879 380.34 237.968 377.364C235.348 377.555 232.315 377.52 229.659 377.539C229.631 374.516 229.67 371.448 229.682 368.423C229.763 365.475 229.817 362.527 229.845 359.58L238.186 359.496C238.283 351.057 238.156 341.502 238.578 333.172L229.993 333.077L229.9 332.863C229.529 328.284 229.849 317.817 229.875 312.939L230.084 312.407Z" fill="var(--fill-0, #191B1F)"/>
<path id="Vector_59" d="M203.384 403.771C205.833 403.982 209.361 403.838 211.927 403.825C211.86 406.398 211.694 409.585 211.894 412.094L211.968 412.296C212.153 415.13 212.016 418.338 211.993 421.221C209.668 421.2 205.059 421.054 202.9 421.321L202.403 421.252C202.983 420.357 203 413.458 202.908 412.171C202.937 411.381 203.042 410.57 203.126 409.783C203.162 407.706 203.18 405.841 203.384 403.771Z" fill="var(--fill-0, #FB6FA0)"/>
<path id="Vector_60" d="M203.384 403.771C205.833 403.982 209.362 403.838 211.927 403.825C211.86 406.398 211.694 409.585 211.894 412.094C209.606 412.115 205.569 412.266 203.426 412.029C203.066 411.516 203.143 410.468 203.126 409.783C203.162 407.706 203.18 405.841 203.384 403.771Z" fill="var(--fill-0, #FC85B0)"/>
<path id="Vector_61" d="M202.403 421.252L202.9 421.322C203 424.302 203.042 427.285 203.025 430.27C197.87 430.291 190.334 430.544 185.358 430.261C186.695 429.922 191.442 430.038 193.129 430.052C193.381 427.782 193.361 423.835 193.422 421.443C196.414 421.327 199.408 421.264 202.403 421.252Z" fill="var(--fill-0, #FE5792)"/>
<path id="Vector_62" d="M221.046 403.746C221.034 406.504 220.99 409.335 221.074 412.083C219.228 412.069 213.535 411.967 211.968 412.297L211.893 412.095C211.694 409.586 211.86 406.399 211.926 403.825C214.446 403.6 218.429 403.728 221.046 403.746Z" fill="var(--fill-0, #FB6FA0)"/>
<path id="Vector_63" d="M128.84 0.018398L159.273 0L159.265 9.64371C171.381 9.71175 184.094 9.88521 196.187 9.66924C196.197 14.0629 196.12 18.9573 196.285 23.33C201.958 23.3637 207.973 23.288 213.615 23.4355C213.624 26.1301 213.601 28.8908 213.648 31.5789C216.526 31.555 219.403 31.558 222.28 31.5875C222.622 35.5345 222.183 41.8337 222.297 46.0792L230.58 46.1187C230.578 50.0287 230.457 54.9214 230.675 58.7443C233.72 58.7966 236.766 58.8198 239.811 58.8145L239.825 81.326C236.771 81.3358 233.634 81.3077 230.589 81.4173C230.215 80.1991 230.352 76.8245 230.362 75.4047C230.726 72.5152 230.529 63.3113 230.396 60.2594C227.647 60.1716 224.77 60.199 221.992 60.1458L222.006 54.7114L222.113 46.2655C219.508 46.0722 216.357 46.2086 213.702 46.2567L213.646 39.9163C211.022 40.0144 208 39.9572 205.344 39.9723C204.561 39.904 204.244 39.9437 203.586 39.5639C203.427 37.8847 203.624 34.032 203.678 32.1676C201.466 32.1913 198.713 32.2902 196.562 32.0932C196.177 32.0101 196 31.8746 195.648 31.6869C195.846 30.8911 196.05 27.9286 196.134 26.9313C193.446 27.1016 190.752 27.1883 188.058 27.1913C188.145 24.3526 188.084 21.44 188.058 18.5945C178.372 18.5562 168.685 18.5847 158.999 18.6802C158.412 19.6855 158.557 26.1004 158.561 27.697C155.419 27.7242 151.847 27.6731 148.74 27.8317C148.932 26.5055 148.862 23.0894 148.858 21.6387L148.835 9.53637C142.148 9.48429 135.461 9.5019 128.774 9.58912C128.839 8.03661 128.794 6.37447 128.78 4.81263L128.84 0.018398Z" fill="var(--fill-0, #191B1F)"/>
<path id="Vector_64" d="M148.834 9.53719C152.209 9.54653 155.821 9.49106 159.171 9.69592C159.198 11.7599 159.343 16.899 158.999 18.681C158.411 19.6863 158.556 26.1012 158.56 27.6978C155.418 27.725 151.846 27.6739 148.739 27.8325C148.932 26.5064 148.861 23.0902 148.858 21.6395L148.834 9.53719Z" fill="var(--fill-0, #FD4182)"/>
<path id="Vector_65" d="M196.562 32.0939C201.84 31.7429 208.195 31.9334 213.583 31.814L213.646 39.917C211.022 40.015 208.001 39.9579 205.344 39.973C204.561 39.9047 204.245 39.9444 203.586 39.5646C203.427 37.8853 203.624 34.0327 203.678 32.1682C201.467 32.1919 198.713 32.2909 196.562 32.0939Z" fill="var(--fill-0, #FD4182)"/>
<path id="Vector_66" d="M204.042 254.095C206.426 254.067 211.731 253.93 213.829 254.311C213.746 256.602 213.508 269.294 213.809 270.974C215.272 270.978 219.173 271.09 220.441 270.953C221.135 270.999 221.999 270.953 222.517 271.355C223.004 273.485 222.245 277.966 222.714 279.957C225.025 279.985 227.365 279.987 229.66 280.249C236.406 281.021 243.266 280.846 250.065 280.891L250.046 290.004C246.461 290.166 242.908 290.006 239.334 290.057C234.009 290.134 229.061 289.193 223.727 289.274L223.678 297.191L229.892 297.23C229.885 298.959 229.639 311.737 230.085 312.406L229.876 312.938C227.082 312.971 224.289 312.983 221.495 312.98L221.511 307.633L221.2 307.115C220.397 306.548 214.144 306.543 212.623 306.429C210.142 306.478 207.638 306.33 205.158 306.211L205.196 304.29C205.418 303.314 205.263 298.726 205.237 297.435C207.749 297.946 211.307 298.025 213.832 297.646L213.617 297.289L213.643 271.092C210.437 270.934 207.103 271.055 203.885 271.12C204.103 269.633 204.027 266.17 204.023 264.562C204.006 261.073 204.013 257.584 204.042 254.095Z" fill="var(--fill-0, #191B1F)"/>
<path id="Vector_67" d="M205.237 297.435C207.75 297.946 211.308 298.025 213.832 297.646L221.512 297.648C221.56 300.977 221.56 304.306 221.512 307.633L221.2 307.114C220.397 306.548 214.144 306.543 212.624 306.429C210.143 306.478 207.639 306.329 205.158 306.211L205.196 304.29C205.419 303.314 205.263 298.726 205.237 297.435Z" fill="var(--fill-0, #FC85B0)"/>
<path id="Vector_68" d="M193.368 198.404C196.47 198.339 200.172 198.324 203.284 198.422C203.335 198.822 203.298 199.015 203.513 199.306C203.761 201.685 203.586 205.846 203.552 208.36C205.643 208.426 221.265 208.809 222.199 208.257C222.951 208.256 223.701 208.233 224.451 208.189C226.465 208.264 228.831 208.096 230.714 208.338C230.903 208.541 230.991 208.59 231.105 208.828C231.039 211.525 231.002 214.224 230.998 216.922L227.923 217.084C227.257 217.484 223.49 217.356 222.478 217.356C222.373 219.735 222.501 224.142 222.285 226.085C220.694 226.101 216.129 226.409 215.202 225.635L215.209 224.568C214.912 222.584 215.026 219.18 215.026 217.037C211.235 216.995 207.443 216.997 203.652 217.041L203.503 236.106C201.884 236.12 194.422 236.371 193.342 236.127C193.377 232.633 193.339 229.137 193.229 225.643C191.481 225.605 184.202 225.926 183.146 225.455C183.03 219.873 183.091 214.117 183.073 208.518C184.343 208.253 191.682 208.428 193.348 208.452C193.464 205.006 193.425 201.846 193.368 198.404Z" fill="var(--fill-0, #FB6FA0)"/>
<path id="Vector_69" d="M183.073 208.518C186.075 208.843 190.092 208.569 193.224 208.699C192.859 213.669 192.862 220.356 193.067 225.376C190.66 225.371 185.35 225.223 183.146 225.454C183.03 219.872 183.091 214.117 183.073 208.518Z" fill="var(--fill-0, #FD4182)"/>
<path id="Vector_70" d="M215.288 217.057C219.454 217.161 223.817 216.903 227.923 217.084C227.256 217.485 223.49 217.356 222.477 217.357C222.373 219.735 222.501 224.142 222.285 226.086C220.694 226.102 216.129 226.409 215.202 225.635L215.209 224.569C215.376 222.7 215.279 219.058 215.288 217.057Z" fill="var(--fill-0, #FEACCB)"/>
<path id="Vector_71" d="M9.20154 117.669C17.2818 117.555 25.5193 117.621 33.6212 117.571C33.6481 120.497 33.6519 123.423 33.6326 126.349C25.5024 126.433 17.3717 126.46 9.24102 126.433L9.16439 144.551C11.7255 144.436 15.089 144.314 17.655 144.493C17.681 147.436 17.6796 150.379 17.6506 153.322C20.6885 153.341 23.7266 153.34 26.7645 153.318C29.918 153.24 32.3888 153.444 35.6566 153.194C38.4479 153.171 42.1297 153.035 44.8522 153.19C44.9235 156.153 44.7438 159.001 44.9177 162.033C42.0029 162.13 38.6107 162.008 35.6622 161.972C35.6503 165.296 35.6719 168.621 35.7274 171.945C32.6313 172.083 29.5323 172.152 26.4329 172.15C26.4844 168.761 26.458 165.289 26.4689 161.894C23.5761 161.774 20.4103 161.915 17.4952 161.987C17.5192 159.182 17.5217 156.376 17.5024 153.57L9.10703 153.676C9.0585 150.688 9.03829 147.699 9.04665 144.71C6.17411 144.573 3.00151 144.611 0.105857 144.588C0.0155937 138.608 -0.0854928 132.403 0.121437 126.439L9.15928 126.381L9.20154 117.669Z" fill="var(--fill-0, #191B1F)"/>
<path id="Vector_72" d="M26.7637 153.319C29.9172 153.24 32.388 153.444 35.6558 153.194C35.6036 156.089 35.5585 158.824 35.6463 161.725C32.8111 161.578 29.5199 161.514 26.6826 161.706L26.7637 153.319Z" fill="var(--fill-0, #FC85B0)"/>
<path id="Vector_73" d="M203.652 217.041C207.443 216.996 211.235 216.995 215.026 217.036C215.026 219.18 214.912 222.583 215.209 224.568L215.202 225.634C215.339 230.091 215.576 250.87 214.396 253.795L213.829 254.311C211.732 253.93 206.426 254.067 204.043 254.094C204.013 257.584 204.007 261.073 204.023 264.562C204.027 266.169 204.103 269.633 203.886 271.12C203.712 269.582 203.818 266.416 203.831 264.776L203.908 253.674C200.993 253.881 197.305 253.563 194.51 253.918C191.027 254.009 187.18 253.932 183.669 253.937C183.527 248.057 183.577 241.976 183.552 236.082C186.815 236.033 190.079 236.05 193.342 236.126C194.422 236.37 201.883 236.119 203.503 236.105L203.652 217.041Z" fill="var(--fill-0, #FD4182)"/>
<path id="Vector_74" d="M229.901 332.862L229.994 333.076L238.579 333.171C238.157 341.501 238.284 351.056 238.187 359.495L229.846 359.579C229.818 362.527 229.764 365.475 229.683 368.423C228.394 368.729 222.935 368.62 221.305 368.618C221.251 362.754 221.249 356.891 221.293 351.028C220.13 350.81 214.15 351.021 212.564 351.054C212.429 348.331 212.331 344.998 212.382 342.305L212.377 341.52C212.351 338.663 212.369 335.806 212.431 332.948C214.14 333.167 228.03 333.243 229.606 332.99L229.901 332.862Z" fill="var(--fill-0, #FB6FA0)"/>
<path id="Vector_75" d="M229.901 332.862L229.994 333.076C229.469 334.337 229.627 340.34 229.632 342.003C227.314 342.003 213.895 342.226 212.638 341.785L212.377 341.52C212.351 338.663 212.369 335.806 212.431 332.948C214.14 333.167 228.03 333.243 229.606 332.99L229.901 332.862Z" fill="var(--fill-0, #FE5792)"/>
<path id="Vector_76" d="M212.381 342.306C215.373 341.918 225.983 342.224 229.624 342.252C229.619 345.107 229.527 348.489 229.659 351.303C227.174 351.249 223.691 351.272 221.292 351.028C220.129 350.81 214.149 351.021 212.563 351.054C212.429 348.331 212.33 344.998 212.381 342.306Z" fill="var(--fill-0, #FE94BA)"/>
<path id="Vector_77" d="M70.9227 55.037C73.8819 55.0026 76.8415 55.0138 79.8007 55.0712L79.7726 74.2548C79.7779 76.5183 79.6681 80.5659 79.8327 82.7098C79.8875 85.1765 79.6939 88.3551 79.8453 90.6864C76.9456 90.7377 74.4341 90.7401 71.5402 90.6204C71.5344 92.2567 71.6124 95.9679 71.419 97.4368C71.4078 98.4115 71.3635 99.4591 71.461 100.422C68.5534 100.498 65.6449 100.518 62.7366 100.482L62.8318 104.52L62.9175 108.444C59.877 108.525 56.8356 108.559 53.7943 108.546C53.7704 105.843 53.7841 103.139 53.8356 100.437L62.404 100.369C62.3302 94.4571 62.3193 88.5442 62.3717 82.6319C65.2269 82.6431 68.082 82.5829 70.9343 82.451C70.7727 73.6557 70.8185 63.8239 70.9227 55.037Z" fill="var(--fill-0, #191B1F)"/>
<path id="Vector_78" d="M71.2653 82.6791C74.0578 82.7472 77.0265 82.7033 79.833 82.71C79.8879 85.1768 79.6942 88.3553 79.8456 90.6867C76.9459 90.738 74.4344 90.7403 71.5405 90.6207C71.5347 92.257 71.6127 95.9682 71.4193 97.437C71.1132 93.1514 71.3554 87.2157 71.2653 82.6791Z" fill="var(--fill-0, #FB6FA0)"/>
<path id="Vector_79" d="M194.509 253.918C197.304 253.562 200.992 253.881 203.907 253.674L203.83 264.775C203.817 266.416 203.711 269.582 203.885 271.12C207.102 271.055 210.437 270.934 213.642 271.092L213.616 297.288L213.831 297.646C211.307 298.024 207.749 297.945 205.236 297.434C205.262 298.726 205.417 303.314 205.195 304.289C204.919 303.509 204.992 297.042 205 295.736C204.717 295.039 204.932 291.457 204.98 290.477C203.086 290.379 201.439 290.556 199.526 290.224C201.071 290.126 203.455 290.198 205.058 290.203C205.012 286.73 204.994 283.257 205.006 279.784L194.543 279.738C194.517 271.14 194.613 262.499 194.509 253.918Z" fill="var(--fill-0, #FE5792)"/>
<path id="Vector_80" d="M205.156 290.668L205.433 290.722C206.937 291.003 209.364 290.926 210.396 291.305C210.755 292.805 208.604 296.027 209.476 297.349C211.375 298.118 213.012 296.594 213.617 297.289L213.832 297.646C211.308 298.025 207.75 297.946 205.237 297.435C205.263 298.727 205.419 303.314 205.196 304.29C204.92 303.51 204.993 297.042 205.001 295.737C205.277 294.678 205.178 291.86 205.156 290.668Z" fill="var(--fill-0, #FB6FA0)"/>
<path id="Vector_81" d="M172.383 421.433C175.677 421.354 178.973 421.344 182.268 421.403L182.864 421.41C185.928 421.605 190.304 421.521 193.423 421.442C193.362 423.835 193.383 427.781 193.131 430.051C191.443 430.037 186.696 429.921 185.359 430.26C184.102 430.295 182.968 430.314 181.712 430.279C181.638 433.296 181.57 436.181 181.628 439.204C188.677 439.145 195.726 439.129 202.775 439.159C199.289 439.538 193.811 439.236 190.132 439.331C188.67 439.368 182.951 439.417 181.755 439.285C180.523 438.992 174.07 439.085 172.386 439.087C165.957 439.12 159.529 439.097 153.102 439.015C153.338 435.185 153.268 431.108 153.459 427.215C153.642 428.66 153.657 429.375 153.636 430.838L172.412 430.699C172.593 429.154 172.402 423.291 172.383 421.433Z" fill="var(--fill-0, #FB6FA0)"/>
<path id="Vector_82" d="M103.535 395.2L120.33 395.367C120.36 398.194 120.352 401.021 120.306 403.848C131.135 403.862 142.422 403.966 153.233 403.79C153.561 405.516 153.362 410.178 153.445 412.232C152.851 412.652 139.41 412.385 137.858 412.378L120.177 412.348L120.096 412.227C120.224 409.563 120.175 406.61 120.184 403.92C114.908 403.72 109.049 403.829 103.73 403.82C103.354 403.105 103.534 396.473 103.535 395.2Z" fill="var(--fill-0, #191B1F)"/>
<path id="Vector_83" d="M203.975 152.988C206.927 152.972 209.998 153.001 212.939 152.93C212.766 155.577 212.838 159.135 212.626 161.505L221.664 161.499L221.75 161.696C221.755 164.807 221.713 168.034 221.769 171.134L221.681 180.085L214.201 180.104L214.201 183.933C213.919 182.775 214.018 181.06 214.034 179.825C210.491 180.054 207.326 180.243 203.788 179.916L203.807 179.661C204.081 178.731 204.018 174.58 204.039 173.313C204.048 173.271 204.057 173.23 204.066 173.189C205.001 161.038 203.301 165.208 196.054 164.117C197.896 163.81 200.799 164.374 203.128 163.985C203.869 163.177 203.935 154.468 203.975 152.988Z" fill="var(--fill-0, #FD4182)"/>
<path id="Vector_84" d="M212.626 161.505L221.664 161.499L221.75 161.696C221.755 164.807 221.713 168.033 221.768 171.134C220.192 170.763 214.372 170.85 212.463 170.833C212.536 167.906 212.384 164.365 212.626 161.505Z" fill="var(--fill-0, #FC85B0)"/>
<path id="Vector_85" d="M89.0681 118.053C96.3423 118.006 103.617 118.011 110.891 118.067C110.799 121.045 110.741 124.024 110.717 127.003C108.134 126.785 105.36 126.816 102.753 126.798C102.851 129.463 103.081 133.046 102.804 135.607C100.019 135.598 89.3351 135.38 86.9082 135.751C86.1623 135.877 80.1725 135.815 79.1442 135.814C73.1567 135.831 67.1694 135.808 61.1821 135.745C62.6571 135.324 77.4221 135.523 80.2674 135.5L80.2595 127.225L89.1491 127.312C89.059 124.293 89.0843 121.089 89.0681 118.053Z" fill="var(--fill-0, #FC85B0)"/>
<path id="Vector_86" d="M229.66 377.538C232.317 377.52 235.35 377.555 237.969 377.364C237.881 380.34 237.744 383.455 237.748 386.424L229.686 386.384L229.658 395.065C228.169 395.058 222.329 394.956 221.312 395.339C221.101 396.236 221.105 396.733 221.075 397.632C221.052 396.724 221.07 396.255 220.824 395.36C219.97 395.112 213.589 395.263 212.425 395.274C212.346 390.717 212.674 383.195 212.313 378.983C212.432 378.091 212.272 378.177 212.776 377.671C216.691 377.304 225.397 377.545 229.66 377.538Z" fill="var(--fill-0, #FF5F98)"/>
<path id="Vector_87" d="M89.2505 27.1689C92.1978 27.3027 95.4409 27.2379 98.412 27.2361C98.343 30.4014 98.2162 33.7244 98.3281 36.8757C98.3363 39.254 98.2111 43.5234 98.3864 45.7463C98.4394 47.1368 98.4349 48.3287 98.4029 49.7214C98.1184 51.308 98.1793 53.3531 98.1702 54.998C95.2679 55.1648 92.0475 55.0366 89.3146 55.2317C86.5305 55.1871 83.377 55.0682 80.6277 55.231L80.2394 55.0932C79.8512 54.5789 79.9919 53.594 80.0088 52.8906C80.1389 50.6721 80.1473 48.0988 80.2111 45.8494C83.1956 45.7609 86.181 45.7172 89.1664 45.7184C89.0607 39.894 89.0442 32.9571 89.2505 27.1689Z" fill="var(--fill-0, #191B1F)"/>
<path id="Vector_88" d="M89.2846 45.831C92.2491 45.8807 95.408 45.7857 98.3864 45.7464C98.4393 47.137 98.4349 48.3289 98.4029 49.7215C98.1184 51.3081 98.1793 53.3533 98.1702 54.9982C95.2679 55.165 92.0475 55.0367 89.3145 55.2319C89.1327 52.3209 89.2372 48.7842 89.2846 45.831Z" fill="var(--fill-0, #FB6FA0)"/>
<path id="Vector_89" d="M193.074 179.349C195.095 179.408 202.126 179.418 203.807 179.661L203.789 179.916C203.365 184.176 203.57 189.071 203.41 193.391C203.374 194.367 203.431 197.586 203.284 198.422C200.172 198.324 196.47 198.339 193.368 198.404L183.487 198.387C183.769 196.485 183.609 190.924 183.584 188.762C185.823 188.958 190.709 188.627 193.109 188.519C192.939 185.468 193.004 182.402 193.074 179.349Z" fill="var(--fill-0, #FD4182)"/>
<path id="Vector_90" d="M94.2894 323.371C96.708 323.34 99.081 323.292 101.499 323.403C99.5601 323.649 97.361 323.619 95.3906 323.649C96.1873 328.121 95.5636 337.016 95.7326 342.008L92.029 342.031C87.0063 341.82 82.3155 342.296 76.8117 342.003C76.9053 344.96 76.9422 347.918 76.922 350.877C75.4939 350.863 68.2937 350.619 67.4823 351.116L67.2917 351.376L67.3755 341.736C64.8188 341.731 61.3378 341.848 58.8591 341.641C61.1135 341.429 64.8752 341.55 67.2475 341.56C67.2603 339.571 67.2053 336.814 67.4544 334.907C67.5473 336.981 67.4438 339.655 67.4189 341.771L76.8203 341.78C76.837 338.932 76.7787 335.603 76.9789 332.802C78.3248 333.041 82.1084 332.995 83.6004 332.999C87.1478 332.999 90.6954 333.02 94.2427 333.06C94.1496 329.831 94.1652 326.6 94.2894 323.371Z" fill="var(--fill-0, #FB6FA0)"/>
<path id="Vector_91" d="M119.302 9.46728C121.962 9.68947 125.848 9.57365 128.599 9.57183C128.593 12.5145 128.544 15.5675 128.614 18.5009C126.467 18.7649 121.769 18.6243 119.364 18.6375C119.211 21.3459 119.271 24.3304 119.273 27.0639C115.48 27.2184 111.544 27.167 107.737 27.1694L98.4058 27.122L98.4506 18.4707C104.644 18.754 112.962 18.4923 119.307 18.4535L119.302 9.46728Z" fill="var(--fill-0, #191B1F)"/>
<path id="Vector_92" d="M128.595 9.41521C128.607 7.821 128.596 6.40556 128.78 4.81318C128.794 6.37501 128.839 8.03715 128.775 9.58967C135.461 9.50244 142.148 9.48483 148.835 9.53691L148.859 21.6392C148.862 23.0899 148.932 26.5061 148.74 27.8323C148.483 26.0152 148.59 20.3374 148.582 18.2689C141.947 18.4746 135.309 18.5985 128.671 18.6404C128.453 21.0682 128.026 24.6781 128.113 27.0183C125.166 27.0027 122.22 27.0178 119.273 27.0636C119.271 24.3301 119.211 21.3456 119.365 18.6371C121.769 18.624 126.467 18.7646 128.614 18.5006C128.544 15.5672 128.593 12.5142 128.599 9.57153C125.848 9.57334 121.962 9.68916 119.302 9.46697C121.641 9.21925 126.117 9.38297 128.595 9.41521Z" fill="var(--fill-0, #FC85B0)"/>
<path id="Vector_93" d="M239.825 81.326L248.946 81.3557C248.877 90.7687 248.865 100.182 248.914 109.595C245.992 109.645 242.739 109.769 239.848 109.657C239.718 103.613 239.822 97.2157 239.815 91.146L239.825 81.326Z" fill="var(--fill-0, #191B1F)"/>
<path id="Vector_94" d="M168.566 162.71C173.554 162.9 179.231 162.826 184.281 162.872C184.241 167.805 184.159 172.738 184.033 177.669C183.896 178.593 184.092 179.197 182.981 179.242C178.461 179.021 173.222 179.134 168.644 179.134C168.509 173.81 168.59 168.074 168.566 162.71Z" fill="var(--fill-0, #FD4182)"/>
<path id="Vector_95" d="M221.483 127.546C223.912 127.519 229.404 127.072 231.062 128.356L231.167 128.446C230.475 129.462 230.517 134.575 230.475 136.114C227.851 136.216 224.418 136.441 221.866 136.272C221.848 139.116 221.806 141.96 221.741 144.803C219.781 144.754 213.989 144.542 212.342 144.804C212.689 142.224 212.326 130.833 212.273 127.6L221.483 127.546Z" fill="var(--fill-0, #FD4182)"/>
<path id="Vector_96" d="M212.622 306.429C214.143 306.543 220.396 306.548 221.199 307.114L221.51 307.632L221.494 312.98C224.288 312.982 227.081 312.971 229.875 312.938C229.849 317.816 229.529 328.284 229.9 332.862L229.605 332.99C229.51 329.603 229.68 326.281 229.519 322.85C223.654 323.115 219.297 322.953 213.479 322.85C213.387 320.899 213.805 313.993 212.915 312.808L212.622 306.429Z" fill="var(--fill-0, #FC85B0)"/>
<path id="Vector_97" d="M205.343 39.9724C208 39.9573 211.021 40.0144 213.645 39.9164L213.702 46.2567C216.356 46.2087 219.507 46.0723 222.113 46.2656L222.006 54.7115C215.831 54.5742 209.653 54.5691 203.477 54.6959L203.43 40.0384L205.343 39.9724Z" fill="var(--fill-0, #FB6FA0)"/>
<path id="Vector_98" d="M203.486 127.138C200.568 126.925 193.802 127.374 191.811 126.109C191.355 125.326 191.408 125.669 191.528 124.831C192.684 124.085 192.573 123.615 193.49 122.707C197.343 118.896 205.92 118.531 211.023 118.469C211.081 121.554 211.148 124.318 211.388 127.405C214.726 127.26 218.205 127.309 221.556 127.308L221.484 127.546L212.274 127.6C212.326 130.833 212.689 142.224 212.342 144.804C212.061 143.453 212.127 137.694 212.12 136.062C209.456 136.188 206.537 136.02 203.851 135.919L203.486 127.138Z" fill="var(--fill-0, #FE94BA)"/>
<path id="Vector_99" d="M53.7942 108.547L53.8165 117.5C47.1858 117.406 40.2642 117.513 33.6216 117.571C33.5243 114.6 33.5996 111.561 33.6379 108.584C39.9842 108.391 47.3748 108.548 53.7942 108.547Z" fill="var(--fill-0, #191B1F)"/>
<path id="Vector_100" d="M76.8116 342.003C82.3155 342.296 87.0063 341.82 92.0289 342.031C90.4185 342.31 88.6443 342.289 86.9991 342.324C87.0174 345.042 86.9663 348.118 87.0829 350.808C83.7522 350.877 80.245 350.986 76.9252 350.884C76.8801 353.848 76.7917 356.812 76.6598 359.777C73.6449 359.844 70.6311 359.958 67.6197 360.118L67.3661 359.465C67.1892 357.321 67.2953 353.635 67.2916 351.377L67.4822 351.116C68.2936 350.619 75.4938 350.863 76.9219 350.877C76.9421 347.918 76.9052 344.961 76.8116 342.003Z" fill="var(--fill-0, #FE94BA)"/>
<path id="Vector_101" d="M221.688 109.695C223.581 109.642 229.5 109.871 231.033 109.528C230.97 115.343 230.842 122.537 231.063 128.356C229.405 127.072 223.913 127.519 221.484 127.546L221.556 127.308C221.735 121.626 221.605 115.464 221.688 109.695Z" fill="var(--fill-0, #FB6FA0)"/>
<path id="Vector_102" d="M67.3165 386.159C68.8076 386.152 75.8917 385.943 76.72 386.461L76.7994 386.786C77.059 390.865 76.7836 399.432 76.5017 403.776C75.0773 403.737 68.7287 403.472 67.8913 403.948L67.252 404.194C67.1997 401.067 67.2023 397.941 67.2594 394.814C67.4203 393.357 67.3553 387.75 67.3165 386.159Z" fill="var(--fill-0, #FE94BA)"/>
<path id="Vector_103" d="M67.3151 386.159C68.8062 386.152 75.8902 385.943 76.7186 386.461L76.798 386.786C76.5063 388.811 76.6238 392.812 76.5936 395.014C73.3883 395.023 70.471 395.002 67.258 394.814C67.4189 393.357 67.3539 387.75 67.3151 386.159Z" fill="var(--fill-0, #FB6FA0)"/>
<path id="Vector_104" d="M194.588 290.183L199.527 290.225C201.44 290.557 203.087 290.38 204.981 290.478C204.934 291.458 204.718 295.04 205.001 295.737C204.993 297.043 204.92 303.51 205.196 304.29L205.158 306.211C201.697 306.107 198.118 306.181 194.647 306.207C194.56 300.866 194.54 295.523 194.588 290.183Z" fill="var(--fill-0, #FD4182)"/>
<path id="Vector_105" d="M212.102 403.588C212.042 402.603 212.118 396.752 212.166 395.583C212.336 391.437 211.708 382.767 212.313 378.983C212.673 383.195 212.346 390.716 212.425 395.274C213.588 395.262 219.97 395.111 220.824 395.36C221.07 396.254 221.052 396.724 221.075 397.632L221.047 403.746C218.43 403.727 214.447 403.6 211.927 403.825C209.362 403.839 205.833 403.983 203.385 403.772C203.18 405.841 203.162 407.707 203.126 409.783C203.042 410.571 202.938 411.382 202.909 412.171C199.972 412.329 196.762 412.223 193.8 412.183C193.918 409.533 193.859 406.343 193.881 403.651C195.298 403.298 209.602 403.562 212.102 403.588Z" fill="var(--fill-0, #FE94BA)"/>
<path id="Vector_106" d="M193.881 403.651C196.613 403.937 200.458 403.66 203.385 403.772C203.18 405.841 203.162 407.707 203.126 409.784C203.042 410.571 202.938 411.382 202.909 412.172C199.972 412.33 196.762 412.223 193.8 412.183C193.918 409.533 193.859 406.343 193.881 403.651Z" fill="var(--fill-0, #FE5792)"/>
<path id="Vector_107" d="M120.177 412.348L137.858 412.378C137.887 415.145 137.838 417.912 137.709 420.676C131.922 421.024 125.784 420.964 119.994 420.818C119.972 418.511 119.863 414.536 120.177 412.348Z" fill="var(--fill-0, #FBCBAA)"/>
<path id="Vector_108" d="M67.8904 403.948C73.6327 403.965 79.3618 404.106 85.0958 404.081C85.1122 405.328 85.1336 411.726 85.3605 412.464C83.9463 412.355 77.0368 412.471 76.2487 412.179C73.4086 412.062 70.002 412.148 67.1188 412.146L67.2511 404.194L67.8904 403.948Z" fill="var(--fill-0, #FB6FA0)"/>
<path id="Vector_109" d="M194.866 169.149C194.775 167.301 194.624 154.634 194.928 153.072L195.364 152.894C197.822 153.138 201.435 153.045 203.975 152.988C203.934 154.469 203.869 163.177 203.128 163.985C200.799 164.375 197.895 163.811 196.054 164.117C203.301 165.208 205 161.039 204.066 173.189C204.057 173.23 204.048 173.272 204.039 173.313C203.9 172.652 203.947 169.993 203.946 169.171L194.866 169.149Z" fill="var(--fill-0, #FE5792)"/>
<path id="Vector_110" d="M103.73 403.821C109.049 403.83 114.908 403.721 120.184 403.921C120.176 406.611 120.224 409.563 120.096 412.227C118.816 412.687 105.657 412.186 103.311 412.142C103.333 410.232 103.071 405.21 103.73 403.821Z" fill="var(--fill-0, #FBCBAA)"/>
<path id="Vector_111" d="M45.5672 144.622C50.0908 144.886 56.4819 144.434 60.5288 144.815L60.5235 153.291C56.118 153.257 48.8879 153.482 44.8526 153.189C44.8178 151.645 44.5937 146.164 45.054 144.849L45.5672 144.622Z" fill="var(--fill-0, #191B1F)"/>
<path id="Vector_112" d="M221.992 60.1462C224.769 60.1994 227.646 60.172 230.396 60.2598C230.528 63.3117 230.726 72.5156 230.361 75.4052C230.336 74.476 230.319 74.0776 230.154 73.1426C229.335 72.8478 223.22 73.1194 221.913 73.1644C222.02 68.8572 221.623 64.4291 221.992 60.1462Z" fill="var(--fill-0, #FB6FA0)"/>
<path id="Vector_113" d="M105.088 323.348L116.042 323.276C116.021 324.83 115.845 330.874 116.206 332.08L116.234 332.263C114.624 332.63 112.05 332.219 109.994 332.465C108.956 332.068 106.284 332.17 105.096 332.217C105.073 329.262 105.07 326.305 105.088 323.348Z" fill="var(--fill-0, #FC85B0)"/>
<path id="Vector_114" d="M89.2495 27.1693C91.2496 26.9094 96.3287 27.0281 98.4045 27.1219L107.736 27.1693L107.762 37.1698C104.686 37.0599 101.388 36.8815 98.3271 36.8761C98.2152 33.7248 98.342 30.4017 98.411 27.2365C95.4399 27.2383 92.1968 27.3031 89.2495 27.1693Z" fill="var(--fill-0, #FB6FA0)"/>
<path id="Vector_115" d="M153.502 394.575C156.766 394.472 160.36 394.514 163.648 394.491C163.711 396.449 163.498 399.372 163.615 400.979C163.593 401.841 163.588 402.438 163.443 403.302C162.944 403.746 163.231 403.611 162.533 403.681C159.476 403.697 156.42 403.734 153.364 403.792C153.335 401.973 153.354 400.096 153.35 398.27L153.502 394.575Z" fill="var(--fill-0, #191B1F)"/>
<path id="Vector_116" d="M184.034 177.67C184.075 178.054 184.081 178.89 184.316 178.999C186.353 179.945 190.78 179.12 193.074 179.35C193.004 182.402 192.939 185.468 193.109 188.519C190.71 188.627 185.823 188.958 183.585 188.763C183.609 190.924 183.77 196.485 183.487 198.388C183.264 197.004 183.445 195.005 183.382 193.561C183.19 189.208 183.706 183.773 183.446 179.575L182.982 179.243C184.093 179.198 183.897 178.593 184.034 177.67Z" fill="var(--fill-0, #FB6FA0)"/>
<path id="Vector_117" d="M212.916 312.808C213.807 313.993 213.388 320.899 213.48 322.85C219.298 322.952 223.655 323.115 229.521 322.85C229.681 326.281 229.511 329.603 229.607 332.99C228.03 333.243 214.14 333.166 212.431 332.948C214.387 332.713 219.338 332.855 221.493 332.862L221.465 323.15C218.787 323.208 216.001 323.175 213.314 323.18C213.07 320.968 212.765 314.899 212.916 312.808Z" fill="var(--fill-0, #FE94BA)"/>
<path id="Vector_118" d="M153.232 403.79C153.127 402.864 152.947 399.024 153.35 398.271C153.354 400.097 153.334 401.974 153.364 403.793C156.42 403.735 159.476 403.697 162.533 403.681L163.288 403.962C163.765 405.414 163.168 410.634 163.197 412.62C161.591 412.632 154.277 412.92 153.445 412.232C153.361 410.179 153.561 405.516 153.232 403.79Z" fill="var(--fill-0, #FBCBAA)"/>
<path id="Vector_119" d="M230.588 81.4173C233.633 81.3077 236.77 81.3358 239.824 81.326L239.814 91.146C239.129 90.4056 232.081 90.8024 230.537 90.8458C230.421 87.5035 230.642 84.4123 230.588 81.4173Z" fill="var(--fill-0, #FC85B0)"/>
<path id="Vector_120" d="M193.799 412.183C196.761 412.223 199.971 412.33 202.908 412.172C202.999 413.459 202.983 420.358 202.403 421.252C199.408 421.264 196.414 421.327 193.422 421.443C190.302 421.522 185.927 421.605 182.863 421.41C184.885 421.104 191.186 421.211 193.512 421.234C193.537 418.82 193.533 414.497 193.799 412.183Z" fill="var(--fill-0, #FC85B0)"/>
<path id="Vector_121" d="M172.538 412.778C175.625 412.831 179.201 412.861 182.252 412.682C182.245 414.153 181.937 420.509 182.266 421.403C178.971 421.345 175.676 421.354 172.382 421.433C172.4 423.291 172.592 429.155 172.41 430.699C171.849 427.863 172.459 416.515 172.538 412.778Z" fill="var(--fill-0, #FC85B0)"/>
<path id="Vector_122" d="M163.649 394.491C163.589 393.641 163.44 391.042 163.811 390.373C163.813 391.727 163.84 393.156 163.789 394.501C166.554 394.494 169.94 394.58 172.652 394.459C173.817 394.21 173.992 394.461 174.939 395.212C174.17 395.144 173.467 394.937 172.892 395.246C172.442 396.701 172.245 402.192 172.249 403.881C169.41 403.876 166.572 403.846 163.734 403.786C163.705 402.929 163.696 401.811 163.616 400.98C163.499 399.372 163.712 396.45 163.649 394.491Z" fill="var(--fill-0, #FBCBAA)"/>
<path id="Vector_123" d="M195.364 152.893C198.869 152.555 204.447 152.694 208.105 152.702C212.076 152.712 217.57 152.588 221.432 152.936L221.738 152.935L221.755 153.086C221.808 155.643 221.966 159.038 221.664 161.499L212.626 161.505C212.837 159.134 212.765 155.576 212.938 152.929C209.998 153.001 206.926 152.972 203.975 152.987C201.434 153.045 197.822 153.138 195.364 152.893Z" fill="var(--fill-0, #FB6FA0)"/>
<path id="Vector_124" d="M98.4027 49.7217C98.7408 53.045 98.0576 59.6978 98.1951 63.9196C96.1968 64.0129 91.1149 64.3593 89.345 64.2404C89.221 61.3025 89.4404 58.2531 89.3143 55.2321C92.0473 55.0369 95.2677 55.1652 98.17 54.9984C98.179 53.3535 98.1182 51.3083 98.4027 49.7217Z" fill="var(--fill-0, #FE94BA)"/>
<path id="Vector_125" d="M67.8907 403.948C68.7281 403.472 75.0767 403.737 76.5011 403.776C79.47 403.802 82.4392 403.804 85.4084 403.785C85.4755 406.327 85.6821 409.955 85.576 412.415C88.3313 412.327 91.0884 412.304 93.8446 412.35L93.5681 421.033C94.4674 421.047 95.5619 421.022 96.4334 421.161C95.5997 421.224 94.5394 421.194 93.6862 421.194C90.793 421.075 88.1725 420.994 85.2672 421.024C85.4527 418.176 85.4838 415.319 85.3607 412.464C85.1339 411.725 85.1125 405.328 85.096 404.08C79.3621 404.106 73.633 403.964 67.8907 403.948Z" fill="var(--fill-0, #FC85B0)"/>
<path id="Vector_126" d="M17.6417 135.672L26.7194 135.67C26.7326 138.611 26.7163 141.597 26.7602 144.533C23.9297 144.542 20.4334 144.645 17.6552 144.493C17.6282 141.592 17.5546 138.562 17.6417 135.672Z" fill="var(--fill-0, #191B1F)"/>
<path id="Vector_127" d="M128.688 341.711C129.938 341.678 136.272 341.376 136.936 341.748C136.951 344.84 137.277 367.196 136.699 368.606C136.483 363.307 136.737 356.15 136.738 350.675C134.572 350.856 130.887 350.719 128.591 350.68C128.844 348.498 128.556 344.431 128.565 341.929L128.688 341.711Z" fill="var(--fill-0, #FC85B0)"/>
<path id="Vector_128" d="M67.6194 360.118C70.6308 359.958 73.6445 359.844 76.6594 359.776C76.6369 362.738 76.6453 365.702 76.6845 368.666L67.5922 368.708L65.7684 368.687C66.4309 368.601 66.9139 368.608 67.4575 368.234C67.5827 365.756 67.6863 362.583 67.6194 360.118Z" fill="var(--fill-0, #FB6FA0)"/>
<path id="Vector_129" d="M127.382 369.15C130.088 369.166 134.235 369.338 136.699 368.606C136.384 370.263 136.431 375.768 136.424 377.668C133.518 377.654 130.447 377.592 127.557 377.729C127.385 375.206 127.423 371.756 127.382 369.15Z" fill="var(--fill-0, #FC85B0)"/>
<path id="Vector_130" d="M95.5653 386.31C98.1137 386.312 101.018 386.38 103.529 386.203L103.534 395.2C100.891 395.168 98.1815 395.254 95.5333 395.309C95.6282 392.429 95.5623 389.216 95.5653 386.31Z" fill="var(--fill-0, #191B1F)"/>
<path id="Vector_131" d="M116.234 332.263C117.882 332.347 119.266 332.358 120.907 332.342C120.974 335.394 120.998 338.447 120.976 341.497C122.352 341.488 127.765 341.32 128.688 341.711L128.565 341.929C127.568 341.506 116.957 341.701 115.055 341.722C114.916 339.232 114.978 337.608 115.102 335.095C113.425 335.009 111.524 335.446 110.318 334.746C109.788 333.826 109.984 333.694 109.993 332.465C112.049 332.219 114.624 332.63 116.234 332.263Z" fill="var(--fill-0, #FC85B0)"/>
<path id="Vector_132" d="M195.647 31.6874C195.999 31.8751 196.176 32.0106 196.561 32.0937C198.712 32.2907 201.465 32.1918 203.676 32.1681C203.623 34.0325 203.426 37.8852 203.585 39.5644C204.243 39.9442 204.56 39.9045 205.343 39.9728L203.429 40.0388C200.636 39.8269 197.6 39.8669 194.781 39.8506C194.755 37.9481 194.413 32.9704 195.647 31.6874Z" fill="var(--fill-0, #FB6FA0)"/>
<path id="Vector_133" d="M136.468 430.398C139.036 430.433 141.822 430.344 144.406 430.312C144.458 433.148 144.465 435.985 144.427 438.821C143.085 438.807 137.307 438.637 136.545 439.072L136.484 438.898C136.569 436.064 136.564 433.229 136.468 430.398Z" fill="var(--fill-0, #FB6FA0)"/>
<path id="Vector_134" d="M114.945 430.077C118.73 429.875 123.788 430.089 127.628 430.198C127.587 431.81 127.354 437.66 127.545 438.949L120.524 438.723C120.516 435.901 120.524 433.076 120.548 430.254C119.458 430.268 115.789 430.419 114.945 430.077Z" fill="var(--fill-0, #FB6FA0)"/>
<path id="Vector_135" d="M53.867 136.908C55.1865 136.888 59.3936 136.639 60.3724 135.742C60.4822 138.736 60.3661 141.872 60.5282 144.816C56.4813 144.435 50.0902 144.886 45.5666 144.623C47.4731 144.347 51.4452 144.464 53.5298 144.472C53.7233 141.967 53.7839 139.422 53.867 136.908Z" fill="var(--fill-0, #FE94BA)"/>
<path id="Vector_136" d="M80.6282 55.2309C83.3775 55.068 86.531 55.1869 89.3151 55.2315C89.4412 58.2526 89.2217 61.302 89.3457 64.2398C87.9663 64.2108 86.5544 64.3021 85.1734 64.3683L84.823 55.4162C83.3921 55.4195 82.0448 55.4666 80.6282 55.2309Z" fill="var(--fill-0, #FB6FA0)"/>
<path id="Vector_137" d="M71.4612 100.422C71.5855 101.849 71.4164 103.181 71.4584 104.594L62.832 104.52L62.7367 100.482C65.6451 100.518 68.5536 100.498 71.4612 100.422Z" fill="var(--fill-0, #FC85B0)"/>
<path id="Vector_138" d="M104.774 65.138L125.864 65.1031C125.878 68.011 125.991 71.6939 125.895 74.5453C128.699 74.5463 131.552 74.5179 134.351 74.5574L134.324 99.453L125.996 99.5624L126.023 108.203C119.275 108.242 112.237 108.087 105.544 108.2C105.536 105.417 105.59 102.326 105.438 99.5708C102.347 99.5813 99.0165 99.5722 95.9303 99.6739C95.8637 91.4682 95.6812 82.6439 95.8518 74.4768C97.4344 74.4684 103.172 74.3456 104.437 74.7491L104.608 74.6452L104.774 65.138Z" fill="var(--fill-0, #191B1F)"/>
<path id="Vector_139" d="M104.609 74.6453C108.52 74.6025 112.431 74.609 116.341 74.6643C116.398 79.0731 116.171 84.5346 116.371 88.732L116.273 90.7407C115.321 90.4524 106.126 90.5907 104.325 90.5953C104.232 87.2219 103.973 77.7093 104.438 74.7491L104.609 74.6453Z" fill="var(--fill-0, #FEFEFD)"/>
<path id="Vector_140" d="M116.626 83.4749C119.607 83.3069 123.333 83.1657 126.329 83.2616C126.321 85.7351 126.281 88.2732 126.306 90.7402L116.507 90.7498C116.345 93.3399 116.231 97.0011 116.52 99.5741C113.429 99.5165 108.461 99.3385 105.517 99.6623C105.562 96.2531 105.417 94.507 105.01 91.1087C105.949 90.5683 115.274 91.2831 116.272 90.7409L116.37 88.7323C116.769 88.0869 116.613 84.5297 116.626 83.4749Z" fill="var(--fill-0, #080809)"/>
<path id="Vector_141" d="M185.257 55.818C191.223 55.7892 197.25 55.7155 203.211 55.7641L203.274 73.2331C205.857 73.2255 208.507 73.1867 211.084 73.2438L210.988 90.6404L203.309 90.7024C203.301 96.701 203.109 103.58 203.262 109.468C197.262 109.545 191.262 109.539 185.263 109.45L185.298 100.364L185.296 95.6299C185.399 94.6059 185.58 93.6068 185.322 92.6198L185.376 92.489C185.725 91.6646 185.648 91.508 185.467 90.5997C185.258 88.3866 185.304 84.2687 185.491 82.0595L185.431 81.9129C185.321 80.2348 185.595 75.4223 185.156 74.1001L184.601 73.8239C181.858 73.8589 179.115 73.845 176.373 73.7823L176.368 64.1561C179.226 64.1524 182.237 64.0987 185.082 64.1572C185.144 61.3892 185.231 58.583 185.257 55.818Z" fill="var(--fill-0, #191B1F)"/>
<path id="Vector_142" d="M194.407 73.5953C194.374 72.6703 194.218 71.0463 194.523 70.2607C194.554 71.3262 194.589 72.3699 194.58 73.4367C196.624 73.4545 201.25 73.3976 203.14 73.6432C203.196 79.0158 203.01 85.4116 203.198 90.6425C200.624 90.5893 196.96 90.6314 194.48 90.4383C192.479 90.1161 187.551 90.4739 185.466 90.5993C185.257 88.3862 185.303 84.2683 185.491 82.0591L185.43 81.9125C185.32 80.2344 185.594 75.4219 185.155 74.0996L184.6 73.8234L185.221 73.6978C187.822 73.5259 191.803 73.5507 194.407 73.5953Z" fill="var(--fill-0, #FEACCB)"/>
<path id="Vector_143" d="M194.407 73.5953C194.374 72.6703 194.218 71.0463 194.523 70.2607C194.554 71.3262 194.589 72.3699 194.58 73.4367C196.624 73.4545 201.25 73.3976 203.14 73.6432C200.838 73.8639 196.845 73.7767 194.481 73.6478L194.497 82.1276C191.729 82.1813 188.187 82.3253 185.491 82.0591L185.43 81.9125C185.32 80.2344 185.594 75.4219 185.155 74.0996L184.6 73.8234L185.221 73.6978C187.822 73.5259 191.803 73.5507 194.407 73.5953Z" fill="var(--fill-0, #FC85B0)"/>
<path id="Vector_144" d="M185.467 90.599C187.552 90.4736 192.481 90.1159 194.481 90.438L194.448 100.417C191.545 100.378 188.145 100.464 185.298 100.364L185.296 95.6292C185.399 94.6052 185.581 93.6061 185.323 92.6191L185.377 92.4883C185.725 91.6639 185.649 91.5073 185.467 90.599Z" fill="var(--fill-0, #FE94BA)"/>
<path id="Vector_145" d="M185.208 64.3595C188.332 64.3815 191.457 64.3314 194.579 64.2092C194.61 66.2262 194.591 68.244 194.524 70.2603C194.219 71.0459 194.375 72.6699 194.408 73.5949C191.804 73.5503 187.823 73.5255 185.221 73.6974L185.208 64.3595Z" fill="var(--fill-0, #FEACCB)"/>
<path id="Vector_146" d="M158.668 198.932C163.561 199.092 168.892 199.034 173.807 199.03L173.723 215.653L158.625 215.675C158.478 210.386 158.57 204.204 158.668 198.932Z" fill="var(--fill-0, #FD4182)"/>
<path id="Vector_147" d="M157.076 262.437C159.438 262.43 161.799 262.439 164.161 262.465L164.097 278.307C161.528 278.191 158.43 278.284 155.821 278.3L148.399 278.342C148.316 273.053 148.305 267.761 148.365 262.472L157.076 262.437Z" fill="var(--fill-0, #FD4182)"/>
<path id="Vector_148" d="M133.965 227.357C138.557 227.292 143.314 227.385 147.918 227.424C147.742 232.76 147.744 238.8 147.819 244.129C143.327 243.999 138.438 244.141 133.931 244.194C133.847 240.166 133.625 230.969 133.965 227.357Z" fill="var(--fill-0, #FD4182)"/>
<path id="Vector_149" d="M148.15 42.3583C152.74 42.3151 157.33 42.3167 161.92 42.3632C161.814 46.4911 161.876 51.0623 161.914 55.2081C157.606 55.0306 152.521 55.1365 148.153 55.1175C148.021 51.0427 148.13 46.4725 148.15 42.3583Z" fill="var(--fill-0, #FD4182)"/>
<path id="Vector_150" d="M185.43 81.9126L185.491 82.0592C185.303 84.2684 185.257 88.3863 185.466 90.5994C185.647 91.5077 185.724 91.6643 185.375 92.4887L185.322 92.6195C185.58 93.6065 185.398 94.6056 185.295 95.6296L185.297 100.364C182.23 100.412 179.162 100.429 176.094 100.415C176.033 98.8513 176.075 97.1607 176.085 95.5866C176.098 95.4424 176.013 94.3215 175.999 94.1094L175.923 92.6211C175.454 91.2977 175.515 83.9624 175.507 82.1435C177.323 82.0906 184.309 82.2543 185.43 81.9126Z" fill="var(--fill-0, #FC85B0)"/>
<path id="Vector_151" d="M176.085 95.5869C179.155 95.5753 182.225 95.5894 185.295 95.6299L185.297 100.364C182.23 100.413 179.162 100.43 176.095 100.415C176.033 98.8516 176.076 97.1609 176.085 95.5869Z" fill="var(--fill-0, #191B1F)"/>
<path id="Vector_152" d="M185.11 92.7358L185.323 92.6191C185.581 93.6062 185.399 94.6053 185.296 95.6293C182.226 95.5888 179.156 95.5747 176.086 95.5863C176.1 95.442 176.014 94.3212 176 94.1091L175.925 92.6208C178.751 92.8833 182.252 92.8356 185.11 92.7358Z" fill="var(--fill-0, #FB6FA0)"/>
<path id="Vector_153" d="M175.925 92.6209C178.751 92.8834 182.252 92.8358 185.11 92.7359L185.238 93.5608L184.982 93.8893C182.411 93.926 178.466 93.8626 176 94.1093L175.925 92.6209Z" fill="var(--fill-0, #AC254E)"/>
<path id="Vector_154" d="M176.717 31.9441C179.82 32.0378 183.487 31.9544 186.629 31.9527C186.571 35.4739 186.657 39.062 186.608 42.6168C183.327 42.6136 180.047 42.6563 176.767 42.7451C176.661 39.314 176.737 35.4179 176.717 31.9441Z" fill="var(--fill-0, #FD4182)"/>
<path id="Vector_155" d="M186.055 134.615C188.645 134.81 192.414 134.746 195.16 134.83C195.28 138.336 195.196 142.147 195.183 145.676C192.286 145.62 189.11 145.705 186.192 145.723L186.055 134.615Z" fill="var(--fill-0, #FD4182)"/>
<path id="Vector_156" d="M123.909 35.6515C127.122 35.6162 130.334 35.6366 133.546 35.713C133.502 39.0089 133.487 42.305 133.5 45.601L123.906 45.5978C123.85 42.2827 123.851 38.9666 123.909 35.6515Z" fill="var(--fill-0, #FD4182)"/>
<path id="Vector_157" d="M175.634 280.454L185.111 280.435L185.049 290.431L175.708 290.399L175.634 280.454Z" fill="var(--fill-0, #FD4182)"/>
<path id="Vector_158" d="M173.453 233.659L173.548 233.673C174.099 234.352 173.796 241.815 173.77 243.318L165.248 243.374L164.845 243.277C164.38 242.387 164.568 235.135 164.578 233.655C167.536 233.711 170.495 233.713 173.453 233.659Z" fill="var(--fill-0, #FD4182)"/>
<path id="Vector_159" d="M202.512 324.491C204.72 324.453 207.583 324.335 209.736 324.453C209.661 327.12 209.467 330.484 209.509 333.093C207.996 333.48 203.678 333.093 201.891 333.099C200.12 333.106 196.015 334.145 194.738 333.569L194.603 333.088C195.309 331.204 199.084 329.011 201.128 329.208C201.556 329.464 201.795 329.68 202.286 329.652C202.506 328.918 202.334 325.817 202.512 324.491Z" fill="var(--fill-0, #FD4182)"/>
<path id="Vector_160" d="M209.509 333.093C207.996 333.481 203.678 333.093 201.891 333.1C200.12 333.106 196.015 334.145 194.738 333.569L194.603 333.088C195.309 331.204 199.084 329.011 201.128 329.209C201.556 329.464 201.795 329.68 202.286 329.652C202.506 328.918 202.334 325.817 202.512 324.491C202.81 326.53 202.628 330.705 202.563 332.897C204.346 332.918 207.878 332.867 209.509 333.093Z" fill="var(--fill-0, #FE94BA)"/>
<path id="Vector_161" d="M200.885 359.888C204.077 359.888 207.267 359.855 210.458 359.793L210.412 368.927L200.859 368.945C200.787 365.988 200.862 362.857 200.885 359.888Z" fill="var(--fill-0, #FD4182)"/>
<path id="Vector_162" d="M144.436 90.8719L154.307 90.8385C154.264 93.7515 154.249 96.665 154.262 99.5782C151.02 99.7583 147.696 99.7427 144.444 99.7671C144.35 96.9572 144.432 93.7148 144.436 90.8719Z" fill="var(--fill-0, #FE5792)"/>
<path id="Vector_163" d="M175.104 254.211C177.966 254.15 180.828 254.108 183.69 254.085L183.593 264.211C180.913 264.144 177.91 264.239 175.207 264.267C175.021 261.117 175.105 257.405 175.104 254.211Z" fill="var(--fill-0, #FD4182)"/>
<path id="Vector_164" d="M180.184 311.533C183.141 311.473 186.261 311.526 189.232 311.528L189.149 320.962L180.18 321.104L180.184 311.533Z" fill="var(--fill-0, #FD4182)"/>
<path id="Vector_165" d="M212.478 100.665L221.766 100.671L221.706 109.652L212.502 109.705C212.399 106.847 212.477 103.556 212.478 100.665Z" fill="var(--fill-0, #FD4182)"/>
<path id="Vector_166" d="M187.906 386.547L193.55 386.654C193.624 388.953 193.549 397.009 192.677 398.775L192.046 398.982C189.698 399.042 187.662 398.979 185.311 398.886C187.725 394.666 186.963 391.258 187.906 386.547Z" fill="var(--fill-0, #FC85B0)"/>
<path id="Vector_167" d="M76.5338 371.903L76.8508 372.323C76.9307 373.503 77.1111 375.408 76.7451 376.512L76.1402 376.732C74.4666 374.865 75.1925 373.601 76.5338 371.903Z" fill="var(--fill-0, #FC85B0)"/>
</g>
</svg>
