<svg width="156" height="90" viewBox="0 0 156 90" fill="none" xmlns="http://www.w3.org/2000/svg">
<path d="M67.1277 0.00361026C69.2076 0.0829892 71.5924 0.0131607 73.696 0.000274778C76.2059 -0.00218882 78.7159 0.011913 81.2256 0.0426039L81.24 3.97377L88.7345 3.98605C88.7361 5.24615 88.7225 6.55424 88.7641 7.80891C91.2401 7.80555 93.7154 7.82507 96.1906 7.86763C96.1946 9.14917 96.1826 10.4638 96.205 11.7423C97.4671 11.7523 98.7555 11.7496 100.015 11.7788C100.02 12.6845 100.051 13.7419 100.014 14.6359L100.038 15.6676L103.72 15.7022C103.723 16.9754 103.703 18.331 103.735 19.5971C105.042 19.6218 106.35 19.6398 107.658 19.6512C107.659 20.7821 107.634 22.2133 107.708 23.326L111.605 23.3505C111.603 24.6416 111.579 26.0078 111.608 27.2928L115.747 27.3076C115.744 28.656 115.728 30.0214 115.742 31.3681C114.425 31.3856 113.012 31.3749 111.705 31.4225C111.682 32.5166 111.64 33.6123 111.705 34.7046C113.407 34.7849 115.274 34.7535 116.986 34.7547L125.355 34.7559C126.05 34.7648 128.594 34.8312 129.198 34.7381C129.122 35.2682 129.123 38.0666 129.194 38.6425C129.266 39.98 129.181 41.5825 129.195 42.9462C127.909 43.153 126.655 42.8688 125.396 42.9865L125.467 51.8368C125.448 52.5358 125.545 55.6595 125.328 56.0576C125.513 56.3385 125.444 58.8526 125.461 59.4099C126.683 59.4185 127.967 59.4309 129.187 59.3614C129.181 60.0719 129.146 61.1417 129.233 61.8183C129.215 62.1983 129.147 62.7245 129.303 63.0517C129.549 63.2294 129.506 63.1732 129.867 63.1744C130.825 63.257 132.107 63.234 133.094 63.2427C133.099 63.9683 133.073 65.1743 133.117 65.8625L133.112 66.9487C134.404 66.9408 135.73 66.9189 137.02 66.9497C137.133 67.2995 137.048 70.2435 137.076 70.8488C135.744 70.8362 134.412 70.8384 133.08 70.8552L133.076 67.0459C131.8 67.0651 130.525 67.07 129.249 67.0606C129.223 65.8185 129.243 64.5152 129.243 63.2684C128.049 63.3042 126.629 63.2586 125.418 63.251L125.393 60.0513L115.896 60.0517C115.506 60.098 115.533 60.0272 115.346 60.2575C115.226 60.6973 115.362 61.0196 115.305 61.5246C115.313 62.4203 115.361 63.683 115.322 64.5512L115.307 64.6008C112.712 64.5479 110.034 64.5861 107.439 64.6075L107.304 64.4405C106.046 64.4157 104.788 64.4133 103.53 64.4332L103.491 64.417C102.224 64.4684 100.964 64.4533 99.6966 64.4477C99.5974 65.3901 99.6238 67.4631 99.6774 68.4372L99.659 68.6714C99.6566 69.829 99.7006 71.3326 99.6502 72.4594C98.8443 72.3886 96.6604 72.3916 95.8585 72.4515L95.8097 72.5322C95.8025 73.2082 95.7377 76.0646 95.8337 76.6089C96.0602 76.7379 96.2931 76.7329 96.5523 76.7509C95.2407 76.7954 93.3473 76.7679 92.0356 76.7226L91.9508 76.6507C90.4807 76.5223 86.4849 76.6372 84.9284 76.7622L84.9084 76.8225C80.6045 76.8374 76.1637 76.7578 71.8814 76.8274C71.8637 78.1728 71.8234 79.5989 71.8536 80.9371C70.4413 80.9211 68.9517 80.8827 67.5467 80.9259C66.1589 81.0235 64.7948 80.9507 63.4555 81.0283C63.1506 81.0907 59.8662 80.9851 59.2459 80.9851C59.2942 79.7109 59.2702 78.4341 59.1739 77.1621C58.6754 77.3022 57.1621 77.2469 56.5615 77.2547C53.8653 77.2899 51.2128 77.1439 48.5245 77.0386L42.8107 76.8691L42.2602 76.8235C41.2157 76.7392 28.9625 76.7511 28.7907 76.8756L28.7387 77.1395L28.7121 76.6592C28.7096 75.3683 28.7665 73.8986 28.7075 72.634C27.1697 72.5935 25.4925 72.6254 23.9437 72.6239C23.8919 71.5002 24.0174 69.9428 24.0765 68.7766C23.4579 68.7808 22.9057 68.7828 22.2882 68.7473C21.4799 68.7011 20.4776 68.7557 19.5826 68.7128C18.2726 68.6651 16.8335 68.6852 15.5193 68.6809L11.603 68.6726C10.3301 68.695 8.9779 68.6654 7.69914 68.6587C7.77525 67.5635 7.72787 65.8162 7.73035 64.691C6.51858 64.6358 5.13716 64.6546 3.91229 64.6451L3.91259 60.514C2.6225 60.4697 1.29396 60.484 0 60.4842L0.0346037 56.3221L3.76375 56.2992L3.88848 56.2638C4.01729 55.3531 3.84218 53.7174 3.97129 52.6394C3.30943 52.5447 0.830633 52.5822 0.014781 52.5725C0.000600203 49.885 0.00272103 47.1975 0.0211513 44.5101L3.91093 44.479L3.91557 36.1786C4.99759 36.1721 6.67776 36.1165 7.70995 36.2027C7.76781 35.6865 7.72515 34.5816 7.72579 34.0007L7.7342 29.5648L11.623 29.5604C11.5784 28.1816 11.6073 26.6422 11.6028 25.2508C12.2716 25.2509 15.3189 25.3307 15.6543 25.1044C15.5605 24.3939 15.6168 22.0866 15.6209 21.2484L19.7042 21.2409C19.6943 19.8695 19.6948 18.498 19.7056 17.1267L23.7117 17.0979C23.7534 15.7775 23.7156 14.336 23.704 13.0064C26.9157 12.9905 30.0976 13.0265 33.3177 12.9816L33.3402 12.9263C33.4296 12.2053 33.3756 9.68508 33.384 8.79059L58.0134 8.79603L58.0412 7.84083C59.1807 7.89746 60.6446 7.85059 61.8421 7.87578C61.8344 6.57912 61.8368 5.2824 61.8496 3.98575C63.6078 3.97834 65.3661 3.98091 67.1242 3.99349C67.125 2.67496 67.1085 1.31869 67.1277 0.00361026Z" fill="#FBBB1F"/>
<path d="M58.4345 48.9084C59.9227 48.9276 61.1749 48.8439 62.6022 48.4431C62.5456 49.259 62.6662 51.1521 62.6475 52.1212C63.4411 52.1105 64.9827 52.0511 65.7273 52.138C64.751 52.2115 63.6291 52.2 62.6401 52.2118C62.6531 53.5129 62.5925 55.1275 62.6478 56.372L62.5836 56.3678L58.5637 56.4345C58.5332 56.2966 58.5347 56.1536 58.5285 56.011C58.4938 54.3739 58.5002 53.0322 58.408 51.367C58.445 50.6246 58.4275 49.6679 58.4345 48.9084Z" fill="#FDCD42"/>
<path d="M58.6041 52.8773C59.6843 52.5952 61.1126 52.6764 62.547 52.3567C62.5651 53.5535 62.5002 55.2518 62.5833 56.3678L58.5634 56.4345C58.5328 56.2966 58.5343 56.1537 58.5282 56.011C58.6608 55.3939 58.6124 53.623 58.6041 52.8773Z" fill="#FEE058"/>
<path d="M69.7845 32.4552C71.0257 32.3971 72.2683 32.3752 73.5108 32.3893C73.4214 33.5893 73.4434 35.2117 73.456 36.4252C74.5712 36.4832 75.8831 36.447 77.0042 36.4316C77.025 37.6366 77.0754 38.7177 77.0578 39.9367C77.9901 39.8572 79.8291 39.9386 80.9311 39.9049C80.8567 38.8948 80.8983 37.3561 80.8943 36.3023C81.7546 36.3724 83.9089 36.2845 84.8372 36.2445C84.8276 37.4535 84.8941 38.6439 84.8772 39.8728C87.4013 39.8424 89.9077 39.9242 92.455 39.8908C92.4102 41.1802 92.4414 42.6478 92.4278 43.9608C94.4053 43.686 97.8913 43.7334 99.8847 43.8095C99.8815 42.6715 99.9135 40.9414 99.7871 39.8541C101.264 39.7935 102.412 39.7872 103.872 39.8611C103.832 41.2225 103.808 42.5842 103.798 43.9461C105.21 43.9075 106.201 43.8726 107.619 44.0056C107.666 44.833 107.641 45.6902 107.631 46.521C107.663 46.8749 107.643 47.612 107.72 47.8413L107.856 47.9085C108.456 47.9929 110.857 47.8906 111.577 47.8723C111.621 49.2105 111.576 50.5966 111.542 51.9351L115.316 51.813C115.302 50.6149 115.419 49.0287 115.332 47.8757C116.268 47.8569 117.192 47.8465 118.127 47.7753C119.252 47.2642 121.508 47.3503 122.791 47.4104C123.659 47.4049 124.527 47.4067 125.395 47.4155C125.397 48.7949 125.353 50.4586 125.413 51.8149L125.467 51.8368C125.448 52.5358 125.545 55.6595 125.328 56.0576C125.513 56.3385 125.444 58.8526 125.461 59.4099C126.683 59.4185 127.967 59.4309 129.187 59.3614C129.181 60.0719 129.146 61.1417 129.233 61.8183C129.215 62.1983 129.147 62.7245 129.303 63.0517C129.549 63.2294 129.506 63.1732 129.867 63.1744C130.825 63.257 132.107 63.234 133.094 63.2427C133.099 63.9683 133.073 65.1743 133.117 65.8625L133.112 66.9487C134.404 66.9408 135.73 66.9189 137.02 66.9497C137.133 67.2995 137.048 70.2435 137.076 70.8488C135.744 70.8362 134.412 70.8384 133.08 70.8552L133.076 67.0459C131.8 67.0651 130.525 67.07 129.249 67.0606C129.223 65.8185 129.243 64.5152 129.243 63.2684C128.049 63.3042 126.629 63.2586 125.418 63.251L125.393 60.0513L115.896 60.0517C115.506 60.098 115.533 60.0272 115.346 60.2575C115.226 60.6973 115.362 61.0196 115.305 61.5246C115.313 62.4203 115.361 63.683 115.322 64.5512L115.307 64.6008C112.712 64.5479 110.034 64.5861 107.439 64.6075L107.304 64.4405C106.046 64.4157 104.788 64.4133 103.53 64.4332L103.491 64.417C102.224 64.4684 100.964 64.4533 99.6966 64.4477C99.5974 65.3901 99.6238 67.4631 99.6774 68.4372L99.659 68.6714C99.6566 69.829 99.7006 71.3326 99.6502 72.4594C98.8443 72.3886 96.6604 72.3916 95.8585 72.4515L95.8097 72.5322C95.8025 73.2082 95.7377 76.0646 95.8337 76.6089C96.0602 76.7379 96.2931 76.7329 96.5523 76.7509C95.2407 76.7954 93.3473 76.7679 92.0356 76.7226L91.9508 76.6507C90.4807 76.5223 86.4849 76.6372 84.9284 76.7622L84.9084 76.8225C80.6045 76.8374 76.1637 76.7578 71.8814 76.8274C71.8637 78.1728 71.8234 79.5989 71.8536 80.9371C70.4413 80.9211 68.9517 80.8827 67.5467 80.9259C66.1589 81.0235 64.7948 80.9507 63.4555 81.0283C63.1506 81.0907 59.8662 80.9851 59.2459 80.9851C59.2942 79.7109 59.2702 78.4341 59.1739 77.1621C58.9455 77.1404 57.8814 77.1738 57.6082 77.1756C56.5547 77.1864 55.5011 77.1771 54.448 77.1477C54.4625 75.8243 54.2627 74.0053 54.3288 72.8231C54.4 71.7349 54.3436 70.0074 54.3422 68.872C54.2717 67.6054 54.356 66.2587 54.2696 64.9232C54.3077 63.5035 54.3331 62.0835 54.346 60.6633C55.0306 60.6817 57.1795 60.7479 57.815 60.6532C58.1007 60.5911 58.3722 60.6128 58.6645 60.6205C58.6578 59.4244 58.6804 57.7708 58.5649 56.6036L58.5634 56.4345L62.5833 56.3678L62.6474 56.372C62.5921 55.1275 62.6527 53.5129 62.6397 52.2118C63.6287 52.2001 64.7506 52.2115 65.7268 52.138C64.9823 52.0511 63.4407 52.1106 62.6471 52.1212C62.6658 51.1522 62.5452 49.259 62.6018 48.4432C63.3726 48.2133 65.1485 48.1835 65.9398 48.354C65.8644 46.7005 66.0766 44.7684 66.1017 43.1088C66.1343 40.9592 66.0853 38.7644 66.0622 36.6114L62.3443 36.6148C62.3631 35.3229 62.2807 33.8135 62.241 32.5072C63.491 32.4661 64.7418 32.4511 65.9924 32.462C65.9327 33.5517 66.0622 35.4108 66.1124 36.5254L69.7656 36.4912C69.7367 37.6314 69.7684 38.8236 69.7825 39.9686L73.4567 39.9557C73.3577 38.9694 73.4236 37.4433 73.4387 36.4236C72.2838 36.3991 70.9571 36.4582 69.7885 36.4869C69.8125 35.12 69.8508 33.8224 69.7845 32.4552Z" fill="#FEE058"/>
<path d="M88.5444 60.4012C90.1377 60.5504 92.7674 60.3255 94.424 60.3262C97.4178 60.3277 100.494 60.3985 103.477 60.2718C103.534 61.3969 103.495 62.7849 103.488 63.928L103.454 64.3361L103.491 64.417C102.224 64.4684 100.965 64.4533 99.697 64.4477C99.5977 65.39 99.6241 67.4631 99.6777 68.4372L99.6593 68.6714C99.6569 69.829 99.7009 71.3326 99.6505 72.4594C98.8447 72.3886 96.6607 72.3916 95.8588 72.4515L95.81 72.5322C95.8028 73.2082 95.738 76.0646 95.834 76.6089C96.0605 76.7379 96.2934 76.7329 96.5527 76.7509C95.241 76.7954 93.3476 76.7679 92.036 76.7226L91.9511 76.6507C90.481 76.5223 86.4853 76.6372 84.9288 76.7622L84.9087 76.8225C80.6049 76.8373 76.164 76.7578 71.8818 76.8274C71.8641 78.1728 71.8238 79.5989 71.8539 80.9371C70.4417 80.9211 68.9521 80.8827 67.547 80.9259C66.1592 81.0235 64.7951 80.9507 63.4559 81.0283C63.1509 81.0906 59.8666 80.9851 59.2462 80.9851C59.2946 79.7109 59.2705 78.4341 59.1743 77.1621C58.9459 77.1403 57.8814 77.1738 57.6082 77.1756C56.5547 77.1864 55.5011 77.1771 54.448 77.1477C54.4625 75.8243 54.2627 74.0053 54.3288 72.8231C54.4 71.7349 54.3436 70.0074 54.3422 68.872L61.4253 68.8435C62.0773 68.8715 62.6095 68.8717 63.2623 68.8544C63.2557 70.1397 63.2336 71.4598 63.2501 72.742C64.2225 72.4835 67.6534 72.6147 68.7952 72.617C71.2972 72.622 73.8549 72.7237 76.365 72.6116C76.3999 71.5014 76.3677 69.9696 76.3034 68.8631C77.8392 68.9551 79.286 68.9474 80.8242 68.9471L80.7361 64.8329C83.3746 64.8628 85.8755 64.7093 88.5804 64.796C88.578 63.3605 88.5996 61.8277 88.5444 60.4012Z" fill="#FDF2C8"/>
<path d="M92.0065 72.6284C92.7571 72.5561 95.0802 72.4485 95.81 72.5322C95.8028 73.2082 95.738 76.0646 95.834 76.6089C96.0605 76.7379 96.2934 76.7329 96.5527 76.7509C95.241 76.7954 93.3476 76.7679 92.036 76.7226L91.9511 76.6507C90.481 76.5223 86.4853 76.6372 84.9288 76.7622C84.8263 76.0105 84.8809 73.5085 84.8905 72.6355C86.8776 72.6134 88.9535 72.6559 90.9493 72.6599L92.0065 72.6284Z" fill="#272A2D"/>
<path d="M92.0061 72.6284C92.7568 72.5561 95.0802 72.4485 95.81 72.5322C95.8028 73.2082 95.738 76.0646 95.834 76.6089C96.0605 76.7379 96.2934 76.7329 96.5527 76.7509C95.241 76.7954 93.3476 76.7679 92.036 76.7226L91.9511 76.6507C92.1024 76.3443 92.0309 73.2578 92.0261 72.6698C91.6748 72.6738 91.3019 72.6634 90.949 72.6599L92.0061 72.6284Z" fill="#E8A00A"/>
<path d="M54.3422 68.872L61.4253 68.8435C62.0773 68.8715 62.6095 68.8717 63.2623 68.8544C63.2557 70.1397 63.2336 71.4598 63.2501 72.742C61.2273 72.8446 59.2948 72.8478 57.2717 72.8342C56.3812 72.8283 55.1973 72.784 54.3288 72.8231C54.4 71.7349 54.3436 70.0074 54.3422 68.872Z" fill="#CE8802"/>
<path d="M95.8547 68.4629C97.1055 68.4294 98.4261 68.3956 99.6777 68.4372L99.6593 68.6714C99.6569 69.829 99.7009 71.3326 99.6505 72.4594C98.8447 72.3886 96.6607 72.3916 95.8588 72.4515L95.81 72.5322C95.0802 72.4485 92.7571 72.5561 92.0065 72.6284C91.9105 71.3841 91.9494 69.6749 91.9638 68.421L95.2089 68.4388L95.8547 68.4629Z" fill="#FDCD42"/>
<path d="M95.8547 68.4629C97.1055 68.4294 98.4258 68.3956 99.6774 68.4372L99.659 68.6714C99.6566 69.829 99.7006 71.3326 99.6502 72.4594C98.8443 72.3886 96.6604 72.3916 95.8585 72.4515C95.7217 71.9054 95.8339 69.2389 95.8547 68.4629Z" fill="#CE8802"/>
<path d="M67.583 76.7388C73.3527 76.8133 79.1604 76.6927 84.9288 76.7622L84.9087 76.8225C80.6049 76.8373 76.164 76.7578 71.8818 76.8274C71.8641 78.1728 71.8238 79.5989 71.8539 80.9371C70.4417 80.9211 68.9521 80.8827 67.547 80.9259C67.5277 79.6525 67.4763 77.9902 67.583 76.7388Z" fill="#FBBB1F"/>
<path d="M95.855 64.4207C97.3467 64.4654 98.8192 64.3852 100.311 64.3868C101.361 64.388 102.405 64.3972 103.454 64.3361L103.491 64.417C102.224 64.4684 100.965 64.4533 99.697 64.4477C99.5977 65.39 99.6241 67.4631 99.6777 68.4372C98.4261 68.3956 97.1059 68.4294 95.855 68.4629L95.2092 68.4388C95.4485 68.4052 95.5493 68.4027 95.7678 68.2845C95.8822 67.3572 95.8534 65.4229 95.855 64.4207Z" fill="#FEE058"/>
<path d="M62.6474 56.372C65.7419 56.3583 68.7247 56.2671 71.8231 56.3773C71.7854 57.7805 71.7907 59.1846 71.839 60.5874C70.4478 60.6182 69.0561 60.6249 67.6646 60.6075C67.6621 61.7443 67.5831 63.5177 67.6393 64.5876L67.5778 64.764C67.5345 66.0006 67.5044 67.3627 67.5249 68.5995C66.1846 68.6279 64.7403 68.6849 63.4075 68.6741L63.2623 68.8544C62.6095 68.8717 62.0773 68.8715 61.4253 68.8435L54.3422 68.872C54.2717 67.6054 54.356 66.2587 54.2696 64.9232C54.3077 63.5035 54.3331 62.0835 54.346 60.6633C55.0306 60.6817 57.1795 60.7479 57.815 60.6532C58.1007 60.5911 58.3722 60.6128 58.6645 60.6205C58.6578 59.4244 58.6804 57.7708 58.5649 56.6036L58.5634 56.4345L62.5833 56.3678L62.6474 56.372Z" fill="#FEE058"/>
<path d="M54.2696 64.9232C55.4397 64.7422 57.4299 64.7809 58.6445 64.7786C58.6418 65.6673 58.585 67.935 58.7929 68.7213C59.4065 68.7227 60.9028 68.6898 61.4253 68.8435L54.3422 68.872C54.2717 67.6054 54.356 66.2587 54.2696 64.9232Z" fill="#FDCD42"/>
<path d="M54.346 60.6633C55.0306 60.6817 57.1795 60.7479 57.815 60.6532C58.0922 60.6598 58.3856 60.6327 58.6161 60.7625C58.7279 61.4619 58.6549 63.932 58.6445 64.7786C57.4299 64.7809 55.4397 64.7422 54.2696 64.9232C54.3077 63.5035 54.3331 62.0835 54.346 60.6633Z" fill="#FBBB1F"/>
<path d="M58.5637 56.4345L62.5836 56.3678C62.6566 57.7731 62.6224 59.199 62.6226 60.6091C61.3588 60.6234 59.9128 60.67 58.6645 60.6205C58.6578 59.4244 58.6804 57.7708 58.5649 56.6036L58.5637 56.4345Z" fill="#E8A00A"/>
<path d="M63.4678 64.5257C64.3802 64.5255 66.6327 64.4936 67.4864 64.6272L67.5782 64.764C67.5349 66.0006 67.5048 67.3627 67.5253 68.5995C66.185 68.6279 64.7406 68.6849 63.4079 68.6741C63.5249 68.1247 63.473 65.282 63.4678 64.5257Z" fill="#CE8802"/>
<path d="M121.799 56.0536L125.329 56.0575C125.513 56.3384 125.444 58.8526 125.461 59.4098C126.684 59.4184 127.967 59.4308 129.188 59.3614C129.181 60.0718 129.146 61.1416 129.234 61.8182C129.216 62.1983 129.147 62.7244 129.303 63.0516C129.55 63.2294 129.506 63.1731 129.867 63.1743C130.825 63.2569 132.107 63.2339 133.094 63.2427C133.1 63.9682 133.073 65.1743 133.117 65.8624L133.112 66.9486C134.405 66.9407 135.731 66.9188 137.02 66.9496C137.134 67.2994 137.048 70.2434 137.077 70.8488C135.745 70.8361 134.413 70.8383 133.08 70.8552L133.076 67.0458C131.801 67.0651 130.525 67.0699 129.25 67.0605C129.224 65.8185 129.243 64.5151 129.243 63.2683C128.049 63.3042 126.629 63.2585 125.419 63.2509L125.394 60.0512L115.896 60.0517C115.072 59.9947 112.316 60.0906 111.71 59.9802C111.775 59.1496 111.773 56.9511 111.744 56.1274C112.665 56.1307 113.631 56.1054 114.556 56.094C116.39 56.1022 118.223 56.0966 120.058 56.0774L121.799 56.0536Z" fill="#272A2D"/>
<path d="M65.7273 52.138C67.7537 52.1496 69.8088 52.0962 71.8272 52.1281C71.8455 53.5302 71.8533 54.9323 71.8505 56.3346C73.1022 56.3311 74.3702 56.3377 75.6203 56.3172C75.6165 57.7327 75.5924 59.1967 75.6096 60.6077C74.3508 60.6337 73.0917 60.6376 71.8328 60.6192C71.8271 61.9326 71.835 63.2784 71.7878 64.5882C70.4051 64.5697 69.022 64.5695 67.6393 64.5876C67.5831 63.5177 67.6621 61.7443 67.6646 60.6075C69.0561 60.6249 70.4478 60.6182 71.839 60.5874C71.7907 59.1846 71.7854 57.7805 71.8231 56.3773C68.7247 56.2671 65.7423 56.3583 62.6478 56.372C62.5925 55.1275 62.6531 53.5129 62.6401 52.2118C63.6291 52.2 64.751 52.2115 65.7273 52.138Z" fill="#CE8802"/>
<path d="M111.71 59.9802C112.316 60.0906 115.072 59.9947 115.896 60.0517C115.506 60.098 115.533 60.0272 115.346 60.2575C115.226 60.6973 115.362 61.0196 115.305 61.5246C115.313 62.4203 115.361 63.683 115.322 64.5512L115.307 64.6008C112.712 64.5479 110.034 64.5861 107.439 64.6075L107.304 64.4405L107.328 60.153C108.381 60.1239 110.727 60.055 111.709 60.1526L111.71 59.9802Z" fill="#272A2D"/>
<path d="M111.71 59.9802C112.316 60.0906 115.072 59.9947 115.896 60.0517C115.506 60.098 115.533 60.0272 115.346 60.2575C115.226 60.6973 115.362 61.0196 115.305 61.5246C115.252 61.1761 115.252 60.5783 115.24 60.2078C114.491 60.2657 112.476 60.245 111.709 60.1526L111.71 59.9802Z" fill="#939396"/>
<path d="M103.568 60.2433C104.758 60.2323 106.161 60.2485 107.328 60.153L107.304 64.4405C106.046 64.4157 104.788 64.4133 103.53 64.4332L103.491 64.417L103.454 64.3361L103.488 63.928C103.643 63.3752 103.576 60.9193 103.568 60.2433Z" fill="#FBBB1F"/>
<path d="M122.791 47.4104C123.659 47.4049 124.527 47.4067 125.395 47.4155C125.397 48.7949 125.353 50.4586 125.413 51.8149C124.279 51.7844 123.087 51.7991 121.948 51.7976C121.694 51.5266 121.787 48.1519 121.796 47.5048C122.144 47.4868 122.445 47.4521 122.791 47.4104Z" fill="#FEE058"/>
<path d="M107.631 46.521C107.663 46.8749 107.643 47.612 107.72 47.8413L107.856 47.9085L107.706 47.9647C107.544 48.2463 107.628 51.3213 107.634 51.8941C106.299 51.97 105.2 51.9461 103.882 51.8765C103.837 50.5501 103.834 49.2225 103.874 47.896C105.096 47.8124 106.322 47.7826 107.547 47.807C107.563 47.3584 107.575 46.9694 107.631 46.521Z" fill="#FBBB1F"/>
<path d="M121.947 51.7975C123.087 51.799 124.279 51.7844 125.413 51.8149L125.467 51.8368C125.448 52.5358 125.545 55.6595 125.328 56.0576L121.798 56.0536C121.779 54.726 121.806 53.331 121.81 51.9977L121.855 51.8576L121.947 51.7975Z" fill="#FBBB1F"/>
<path d="M118.127 47.7752C119.252 47.264 121.508 47.3502 122.791 47.4103C122.446 47.4519 122.144 47.4868 121.796 47.5048C121.787 48.1519 121.694 51.5266 121.948 51.7976L121.855 51.8575C121.52 51.7328 119.018 51.8095 118.475 51.8059C118.499 50.696 118.571 49.2566 118.463 48.1461C118.44 47.9168 118.302 47.8797 118.127 47.7752Z" fill="#FDCD42"/>
<path d="M118.54 51.9052C119.22 51.9204 121.292 51.795 121.81 51.9977C121.806 53.331 121.78 54.726 121.799 56.0536L120.058 56.0774C119.664 56.0843 118.752 56.1497 118.467 55.9829L118.459 55.7683C118.586 55.1772 118.543 52.5963 118.54 51.9052Z" fill="#FEE058"/>
<path d="M115.393 51.888L118.439 51.8227C118.52 52.9603 118.436 54.5552 118.459 55.7683L118.467 55.9829C118.752 56.1497 119.664 56.0843 120.058 56.0774C118.223 56.0966 116.39 56.1022 114.556 56.094C114.755 56.0702 114.953 56.0422 115.151 56.01C115.4 55.7013 115.389 52.5098 115.393 51.888Z" fill="#FBBB1F"/>
<path d="M96.3862 47.7641C97.5898 47.7242 98.6966 47.7708 99.8962 47.8242C99.861 48.4924 99.9722 51.3948 99.7553 51.7613L99.492 51.8087C98.3012 51.8189 97.1104 51.8203 95.9196 51.8129C95.9692 51.1115 95.9196 48.2703 96.1317 47.837L96.3862 47.7641Z" fill="#FBBB1F"/>
<path d="M80.9921 43.9782C82.1245 44.05 83.7267 43.9681 84.8999 43.9373C84.9039 45.1989 84.8342 46.6527 84.9023 47.8838L81.0466 47.8745C81.0009 46.5763 80.9825 45.2772 80.9921 43.9782Z" fill="#FBBB1F"/>
<path d="M88.8029 43.9761C90.0817 44.019 91.1317 44.0066 92.4113 43.9763C92.3553 44.9678 92.3049 46.9356 92.4209 47.8762L88.69 47.9048C88.6468 46.4622 88.7012 45.401 88.8029 43.9761Z" fill="#FBBB1F"/>
<path d="M67.1277 0.00361026C69.2076 0.0829892 71.5924 0.0131607 73.696 0.000274778C76.2059 -0.00218882 78.7159 0.011913 81.2256 0.0426039L81.24 3.97377L88.7345 3.98605C88.7361 5.24615 88.7225 6.55424 88.7641 7.80891C91.2401 7.80555 93.7154 7.82507 96.1906 7.86763C96.1946 9.14917 96.1826 10.4638 96.205 11.7423C97.4671 11.7523 98.7555 11.7496 100.015 11.7788C100.02 12.6845 100.051 13.7419 100.014 14.6359C99.8527 14.8689 99.9144 15.418 99.924 15.7476C99.0733 15.7407 98.2226 15.7446 97.3727 15.759C97.135 15.8817 93.1161 15.8329 92.5167 15.8359L92.5007 19.7415C91.8636 19.7321 89.3524 19.7574 88.7458 19.8235C88.7738 21.0856 88.781 22.348 88.7674 23.6104C86.2353 23.6237 83.6193 23.5887 81.0984 23.6526C81.0664 22.3963 81.0688 21.1392 81.1064 19.883C80.5902 19.8766 79.9692 19.903 79.4658 19.8668C78.1734 19.7739 76.9994 20.0962 75.7324 20.183C73.9864 20.2887 72.2366 20.3205 70.4878 20.2783C70.3726 20.0546 70.4054 17.9134 70.4067 17.5056C65.1718 17.3259 59.8972 17.5863 54.7684 17.3277C49.2935 17.331 43.4663 17.2571 38.0358 17.3817C38.0729 18.7581 38.0361 20.1454 38.0219 21.5234L28.7663 21.5725C28.5812 21.933 28.6074 24.75 28.6086 25.3112C27.3566 25.2809 26.1952 25.4027 24.9844 25.3803C23.2296 25.3477 21.5112 25.2503 19.7451 25.2356C18.4966 25.253 17.006 25.3144 15.7779 25.2859L15.6543 25.1044C15.5605 24.3939 15.6168 22.0866 15.6209 21.2484L19.7042 21.2409C19.6943 19.8695 19.6948 18.498 19.7056 17.1267L23.7117 17.0979C23.7534 15.7775 23.7156 14.336 23.704 13.0064C26.9157 12.9905 30.0976 13.0265 33.3177 12.9816L33.3402 12.9263C33.4296 12.2053 33.3756 9.68508 33.384 8.79059L58.0134 8.79603L58.0412 7.84083C59.1807 7.89746 60.6446 7.85059 61.8421 7.87578C61.8344 6.57912 61.8368 5.2824 61.8496 3.98575C63.6078 3.97834 65.3661 3.98091 67.1242 3.99349C67.125 2.67496 67.1085 1.31869 67.1277 0.00361026Z" fill="#E8A00A"/>
<path d="M67.1282 0.00361026C69.2081 0.0829892 71.5929 0.0131607 73.6965 0.000274778C76.2064 -0.00218882 78.7164 0.011913 81.226 0.0426039L81.2405 3.97377L88.735 3.98605C88.7366 5.24615 88.723 6.55424 88.7646 7.80892C91.2406 7.80556 93.7159 7.82507 96.1911 7.86763C96.1951 9.14917 96.1831 10.4638 96.2055 11.7423C97.4676 11.7523 98.756 11.7496 100.016 11.7788C100.02 12.6845 100.052 13.7419 100.014 14.6359C99.8532 14.8689 99.9148 15.418 99.9244 15.7476C99.0737 15.7407 98.223 15.7446 97.3731 15.759C97.1354 15.8817 93.1165 15.8329 92.5171 15.8359L92.2842 15.8229C91.6624 15.7695 90.3995 15.8152 89.7345 15.82L84.9201 15.8575C84.9217 14.5483 84.9121 13.2391 84.8905 11.9302C83.6829 11.8686 82.3104 11.8964 81.0868 11.8979C78.6972 11.8461 76.4111 12.1223 74.032 12.1866C74.0129 11.2479 73.9221 9.07399 74.0247 8.22301C74.2073 8.06783 74.4241 8.09591 74.7053 8.06335L73.9317 8.03264L73.9456 4.05765C71.7057 4.08703 69.4168 4.03907 67.1542 4.06231L67.1247 3.99349C67.1255 2.67496 67.109 1.31869 67.1282 0.00361026Z" fill="#272A2D"/>
<path d="M77.4478 4.03302C78.5185 4.05532 80.1511 4.10874 81.181 4.02837L81.2154 7.94833C82.2702 8.02024 83.7307 7.98337 84.8183 7.98361C84.8327 9.27188 84.8337 10.6484 84.8905 11.9302C83.6829 11.8686 82.3104 11.8964 81.0868 11.8979C78.6972 11.8461 76.4111 12.1223 74.032 12.1866C74.0129 11.2479 73.9221 9.07399 74.0247 8.22301C74.2073 8.06783 74.4241 8.09591 74.7053 8.06335L77.4678 8.02064C77.4446 6.69158 77.4382 5.36225 77.4478 4.03302Z" fill="#FEE058"/>
<path d="M89.5097 11.8287C90.4588 11.8044 91.5552 11.8336 92.4739 11.7896C92.5459 13.0446 92.5003 14.556 92.5171 15.8359L92.2842 15.8229C91.6624 15.7695 90.3995 15.8152 89.7345 15.82L84.9201 15.8575C84.9217 14.5483 84.9121 13.2391 84.8905 11.9302C86.3686 11.9108 88.0564 11.9319 89.5097 11.8287Z" fill="#FEE058"/>
<path d="M81.2154 7.94833C81.7348 7.88179 82.247 7.90185 82.7688 7.89641C84.7526 7.87586 86.7445 7.92337 88.7276 7.88841C88.722 8.89529 88.6644 10.7535 88.7596 11.6907C88.9212 11.8478 89.26 11.8231 89.5097 11.8287C88.0564 11.9319 86.3686 11.9108 84.8905 11.9302C84.8337 10.6484 84.8327 9.27188 84.8183 7.98361C83.7307 7.98337 82.2702 8.02024 81.2154 7.94833Z" fill="#FBBB1F"/>
<path d="M92.4739 11.7896C93.7135 11.7521 94.9529 11.7536 96.1926 11.794C96.1838 13.0956 96.1541 14.4629 96.1742 15.7593L97.3731 15.759C97.1354 15.8817 93.1165 15.8329 92.5171 15.8359C92.5003 14.556 92.5459 13.0446 92.4739 11.7896Z" fill="#FBBB1F"/>
<path d="M67.1247 3.99349L75.855 3.97885C77.3589 3.97385 79.7653 3.91149 81.181 4.02837C80.1511 4.10874 78.5185 4.05532 77.4478 4.03302C77.4382 5.36225 77.4446 6.69158 77.4678 8.02064L74.7053 8.06335L73.9317 8.03264L73.9456 4.05765C71.7057 4.08703 69.4168 4.03907 67.1542 4.06231L67.1247 3.99349Z" fill="#E8A00A"/>
<path d="M73.9312 8.03259L74.7048 8.0633C74.4237 8.09586 74.2068 8.06778 74.0243 8.22295C73.9217 9.07393 74.0124 11.2479 74.0316 12.1865C76.4106 12.1222 78.6967 11.846 81.0864 11.8979C82.31 11.8963 83.6824 11.8686 84.89 11.9301C84.9117 13.2391 84.9213 14.5482 84.9197 15.8575L89.7341 15.8199C90.3991 15.8151 91.6619 15.7695 92.2838 15.8228L92.5167 15.8359L92.5007 19.7415C91.8636 19.7321 89.3524 19.7574 88.7458 19.8235C88.7738 21.0856 88.781 22.348 88.7674 23.6104C86.2353 23.6237 83.6193 23.5887 81.0984 23.6526C81.0664 22.3963 81.0688 21.1392 81.1064 19.883C80.5902 19.8766 79.9692 19.903 79.4658 19.8668C78.1734 19.7739 76.9994 20.0962 75.7324 20.183C73.9864 20.2887 72.2366 20.3205 70.4878 20.2783C70.5562 19.1353 70.474 17.4577 70.4375 16.3054C67.6169 16.275 64.6584 16.1824 61.8431 16.3841C61.9408 15.3993 61.9064 13.9598 61.9197 12.9336C61.0366 12.9567 59.4734 13.0109 58.6203 12.9235C59.2574 12.8384 61.1888 12.8464 61.9199 12.8328L61.9171 11.7587C61.9625 11.8757 62.035 12.1377 62.1162 12.1453C64.1008 12.3336 67.2161 12.0644 69.1309 12.1152L69.1095 12.0605H70.4519L70.4644 8.11361L71.2941 8.12497C72.0403 8.04082 73.1556 8.04914 73.9312 8.03259Z" fill="#CE8802"/>
<path d="M81.0864 11.8979C82.31 11.8963 83.6824 11.8686 84.89 11.9301C84.9117 13.2391 84.9213 14.5482 84.9197 15.8575L89.7341 15.8199C90.3991 15.8151 91.6619 15.7695 92.2838 15.8228L92.5167 15.8359L92.5007 19.7415C91.8636 19.7321 89.3524 19.7574 88.7458 19.8235L88.5345 19.766C87.8166 19.6772 86.0432 19.7203 85.315 19.7314C83.9353 19.7576 82.5549 19.7605 81.1752 19.7402C81.1496 18.7978 81.1592 17.8153 81.1544 16.8695C81.14 16.5306 81.1824 16.1052 80.9975 15.8783L81.0976 15.7835C81.248 15.3199 81.1088 12.5078 81.0864 11.8979Z" fill="#FBBB1F"/>
<path d="M81.0864 11.8979C82.31 11.8963 83.6824 11.8686 84.89 11.9301C84.9117 13.2391 84.9213 14.5482 84.9197 15.8575L81.2048 15.9121C81.1952 16.1652 81.1888 16.6375 81.1544 16.8695C81.14 16.5306 81.1824 16.1052 80.9975 15.8783L81.0976 15.7835C81.248 15.3199 81.1088 12.5078 81.0864 11.8979Z" fill="#E8A00A"/>
<path d="M92.2842 15.8229L92.5171 15.8359L92.5007 19.7415C91.8636 19.7321 89.3524 19.7574 88.7458 19.8235L88.5345 19.766L88.6851 19.7387C88.9204 19.5022 88.7444 16.6316 88.7924 15.8861C89.8223 15.8976 91.2863 15.9285 92.2842 15.8229Z" fill="#E8A00A"/>
<path d="M73.9317 8.03264L74.7053 8.06335C74.4241 8.09591 74.2073 8.06783 74.0247 8.22301C73.9221 9.07399 74.0129 11.2479 74.032 12.1866C76.4111 12.1223 78.6972 11.8461 81.0868 11.8979C81.1092 12.5078 81.248 15.3199 81.0976 15.7835L80.9975 15.8783C79.0401 15.8856 77.4325 16.0511 75.5034 16.2028C73.9758 16.3231 72.0898 16.2144 70.528 16.2094L70.4957 14.9732C70.3936 14.2401 70.431 12.9237 70.426 12.137L69.1309 12.1152L69.1095 12.0605H70.4519L70.4644 8.11361L71.2941 8.12497C72.0403 8.04082 73.156 8.0492 73.9317 8.03264Z" fill="#FBBB1F"/>
<path d="M70.4644 8.11361L71.2941 8.12497C72.1476 8.16928 73.0689 8.13262 73.9285 8.1151C73.929 9.47632 73.9392 10.8375 73.9591 12.1985C72.9485 12.1797 71.4846 12.1072 70.5091 12.1474C70.5095 12.9073 70.5471 14.2603 70.4957 14.9732C70.3936 14.2401 70.431 12.9237 70.426 12.137L69.1309 12.1152L69.1095 12.0605H70.4519L70.4644 8.11361Z" fill="#E8A00A"/>
<path d="M61.8501 3.98574C63.6083 3.97833 65.3666 3.98091 67.1247 3.99349L67.1542 4.06231C69.4168 4.03907 71.7057 4.08703 73.9456 4.05765L73.9317 8.03264C73.156 8.0492 72.0408 8.04087 71.2945 8.12502L70.4648 8.11366L70.4523 12.0605H69.1099L69.1314 12.1152C67.2165 12.0644 64.1012 12.3337 62.1166 12.1454C62.0355 12.1377 61.9629 11.8758 61.9176 11.7587L61.9203 12.8329C61.1892 12.8465 59.2579 12.8384 58.6207 12.9235C58.211 12.8778 56.7024 12.9026 56.2251 12.9002L50.5659 12.9019C44.8541 12.8977 39.0441 12.8438 33.3407 12.9263C33.4301 12.2053 33.3761 9.68508 33.3845 8.79059L58.0139 8.79603L58.0416 7.84082C59.1812 7.89745 60.6451 7.85058 61.8426 7.87578C61.8348 6.57911 61.8373 5.28239 61.8501 3.98574Z" fill="#272A2D"/>
<path d="M67.1542 4.06231C69.4168 4.03907 71.7057 4.08703 73.9456 4.05765L73.9317 8.03264C73.156 8.0492 72.0408 8.04087 71.2945 8.12502L70.4648 8.11366L70.4523 12.0605H69.1099C68.1714 11.9917 66.7144 12.0579 65.7562 12.0832C65.8138 10.9494 65.6496 8.79856 65.796 7.93814L67.1383 7.96006C67.1508 6.66075 67.1562 5.36161 67.1542 4.06231Z" fill="#FEE058"/>
<path d="M61.9017 7.97077C63.2029 7.97021 64.4825 7.92566 65.796 7.93814C65.6496 8.79856 65.8138 10.9494 65.7562 12.0832C66.7144 12.0579 68.1714 11.9917 69.1099 12.0605L69.1314 12.1152C67.2165 12.0644 64.1012 12.3337 62.1166 12.1454C62.0355 12.1377 61.9629 11.8758 61.9176 11.7587C61.9387 10.5205 61.9101 9.21408 61.9017 7.97077Z" fill="#FBBB1F"/>
<path d="M23.704 13.0064C26.9157 12.9905 30.0976 13.0265 33.3177 12.9816C33.4155 13.5156 33.3543 16.4245 33.3505 17.1175C30.1385 17.101 26.9265 17.1094 23.7146 17.1426L23.6705 21.294L19.7434 21.2834C19.713 22.6006 19.7136 23.9184 19.7451 25.2356C18.4966 25.253 17.006 25.3144 15.7779 25.2859L15.6543 25.1044C15.5605 24.3939 15.6168 22.0866 15.6209 21.2484L19.7042 21.2409C19.6943 19.8695 19.6948 18.498 19.7056 17.1267L23.7117 17.0979C23.7534 15.7775 23.7156 14.336 23.704 13.0064Z" fill="#272A2D"/>
<path d="M37.7674 37.2371C37.7998 38.4993 37.7555 39.7593 37.7784 41.0178C38.9189 41.0532 41.0938 41.0653 42.2173 40.9215C42.1805 42.1536 42.1065 43.7554 42.2395 44.9609C43.7087 45.0543 45.4823 44.9804 46.744 45.0757C47.9153 45.0251 48.9207 45.0357 50.0946 45.0622C50.6931 45.0629 53.9869 44.9894 54.2665 45.1447L54.2643 50.4326C54.2643 51.167 54.3062 52.2969 54.2664 52.996L54.257 53.0856C54.1662 53.9953 54.3166 55.8244 54.1917 56.522C53.9106 56.5639 53.6876 56.5989 53.4094 56.6629C53.7111 56.6653 54.0272 56.6342 54.2819 56.7723C54.3929 57.7267 54.2955 59.5404 54.346 60.6633C54.3331 62.0835 54.3077 63.5035 54.2696 64.9232C54.356 66.2587 54.2717 67.6054 54.3422 68.872C54.3436 70.0074 54.4 71.7349 54.3288 72.8231C54.2627 74.0053 54.4625 75.8243 54.448 77.1477C55.5011 77.1771 56.5547 77.1864 57.6082 77.1756C57.8814 77.1738 58.9459 77.1403 59.1743 77.1621C58.6757 77.3022 57.1625 77.2468 56.5619 77.2547C53.8657 77.2899 51.2132 77.1438 48.5248 77.0385L42.811 76.869L42.2605 76.8235C41.216 76.7391 28.9628 76.751 28.791 76.8755L28.739 77.1395L28.7124 76.6592C28.7099 75.3683 28.7668 73.8985 28.7078 72.6339C27.17 72.5934 25.4929 72.6254 23.944 72.6238C23.8922 71.5002 24.0177 69.9428 24.0769 68.7765C23.4582 68.7807 22.906 68.7827 22.2885 68.7472C21.4802 68.701 20.478 68.7557 19.5829 68.7127C18.273 68.665 16.8338 68.6851 15.5196 68.6809L15.5379 65.8356C15.5794 65.5398 15.5769 65.0101 15.5849 64.695C16.7366 64.7493 18.3916 64.8208 19.523 64.7772L20.1026 64.7363C20.7133 64.3892 27.4318 64.9651 28.6375 64.7615C28.8352 64.5117 28.7777 64.4704 28.8172 64.0963C28.8323 63.0676 28.8281 62.0388 28.8045 61.0103C28.8714 60.5873 28.8161 57.5762 28.8123 56.9563C29.8407 56.989 32.4188 57.0956 33.363 56.943C33.2791 56.3401 33.3689 53.7032 33.3679 52.8671C34.8293 52.8599 36.2906 52.841 37.7516 52.8104C37.7556 49.6963 37.7468 46.5706 37.7356 43.4602C37.7303 41.9696 37.5636 38.5413 37.7674 37.2371Z" fill="#FEE058"/>
<path d="M37.7516 52.8104C38.2579 52.801 38.8 52.7808 39.3035 52.7925L41.7857 52.7848C43.209 52.7835 44.7126 52.7597 46.1286 52.8061C46.1731 55.5463 46.1835 58.287 46.1595 61.0274C45.1694 61.0608 42.9674 61.192 42.0707 61.1182C42.0639 62.3855 42.0301 63.7837 42.0758 65.0399C40.8035 65.078 29.215 65.1623 28.9372 64.9516C28.829 64.6361 28.8338 64.4277 28.8172 64.0963C28.8323 63.0676 28.8281 62.0388 28.8045 61.0103C28.8714 60.5873 28.8161 57.5762 28.8123 56.9563C29.8407 56.989 32.4188 57.0956 33.363 56.943C33.2791 56.3401 33.3689 53.7032 33.3679 52.8671C34.8293 52.8599 36.2906 52.841 37.7516 52.8104Z" fill="#FEAAA1"/>
<path d="M37.7516 52.8104C38.2579 52.801 38.8 52.7808 39.3035 52.7925L41.7857 52.7848C41.8761 54.4125 41.8029 55.443 41.801 57.0395C41.2567 57.0217 38.0805 56.8568 37.7581 57.0744C37.341 56.965 34.0237 57.0021 33.3666 57.0045L33.363 56.943C33.2791 56.3401 33.3689 53.7032 33.3679 52.8671C34.8293 52.8599 36.2906 52.841 37.7516 52.8104Z" fill="#FEAAA1"/>
<path d="M39.3035 52.7925L41.7857 52.7848C41.8761 54.4125 41.8029 55.443 41.801 57.0395C41.2567 57.0217 38.0805 56.8568 37.7581 57.0744C37.341 56.965 34.0237 57.0021 33.3666 57.0045L33.363 56.943C34.7261 56.8684 36.4007 56.9196 37.7683 56.9581C37.7026 55.4467 37.7088 54.3434 37.7631 52.8426C38.2639 52.8423 38.8004 52.8117 39.3035 52.7925Z" fill="#FE826B"/>
<path d="M33.3666 57.0045C34.0237 57.0021 37.341 56.965 37.7581 57.0744C37.795 58.3743 37.7259 59.775 37.7446 61.1058C36.4479 61.027 34.7024 61.0778 33.3727 61.0789C33.2905 59.6077 33.3153 58.4671 33.3666 57.0045Z" fill="#FB643C"/>
<path d="M46.4987 64.8603C47.3075 64.8812 49.6897 64.7638 50.3446 64.926L50.3915 64.9231C51.6042 64.8989 53.1119 64.9808 54.2701 64.9231C54.3564 66.2586 54.2722 67.6053 54.3427 68.8718C54.3441 70.0073 54.4004 71.7348 54.3293 72.823C54.2632 74.0052 54.4629 75.8241 54.4485 77.1476C55.5016 77.177 56.5552 77.1863 57.6087 77.1755C57.8819 77.1737 58.9459 77.1403 59.1743 77.1621C58.6757 77.3022 57.1625 77.2468 56.5619 77.2547C53.8657 77.2899 51.2132 77.1438 48.5248 77.0385L42.811 76.869C42.6131 76.7944 42.603 76.7931 42.4515 76.6503C42.2198 76.0579 42.3009 73.4745 42.283 72.6527L42.2341 71.1104L42.2535 68.7715C43.6559 68.7556 45.0582 68.7527 46.4606 68.7627C46.4453 67.4981 46.4856 66.1329 46.4987 64.8603Z" fill="#FDECAC"/>
<path d="M46.4987 64.8603C47.3075 64.8812 49.6897 64.7638 50.3446 64.926L50.4145 68.7699C49.1138 68.7618 47.813 68.7657 46.5124 68.7817C46.5285 70.0513 46.57 71.4225 46.5443 72.684L42.283 72.6527L42.2341 71.1104L42.2535 68.7715C43.6559 68.7556 45.0582 68.7527 46.4606 68.7627C46.4453 67.4981 46.4856 66.1329 46.4987 64.8603Z" fill="#CE8802"/>
<path d="M24.0769 68.7765L38.2925 68.7066C39.5907 68.6904 40.8868 68.8031 42.1779 68.7446C42.1678 69.4855 42.1334 70.3604 42.1546 71.0911L42.1809 72.6658L33.4349 72.6921C31.8588 72.6851 30.2819 72.7165 28.7078 72.6339C27.17 72.5934 25.4929 72.6254 23.944 72.6238C23.8922 71.5002 24.0177 69.9428 24.0769 68.7765Z" fill="#FDF2C8"/>
<path d="M15.5849 64.695C16.7366 64.7493 18.3916 64.8208 19.523 64.7772L20.1026 64.7363C21.1928 64.8314 22.9413 64.7053 24.1419 64.7496C24.0778 65.9691 23.9777 67.4909 24.0746 68.6768C23.6088 68.6897 22.717 68.6907 22.2885 68.7472C21.4802 68.701 20.478 68.7557 19.5829 68.7127C18.273 68.665 16.8338 68.6851 15.5196 68.6809L15.5379 65.8356C15.5794 65.5398 15.5769 65.0101 15.5849 64.695Z" fill="#FDF2C8"/>
<path d="M53.4094 56.6629C53.7111 56.6653 54.0272 56.6342 54.2819 56.7723C54.3929 57.7267 54.2955 59.5404 54.346 60.6633C54.3331 62.0835 54.3077 63.5035 54.2696 64.9232C53.1115 64.9809 51.6037 64.899 50.391 64.9232C50.3407 62.1739 50.3257 59.424 50.3462 56.6744C51.3671 56.6807 52.3884 56.6769 53.4094 56.6629Z" fill="#CE8802"/>
<path d="M46.744 45.0757C47.9153 45.0251 48.9207 45.0357 50.0946 45.0622C50.2162 46.2063 50.183 47.8485 50.2678 49.1032C49.1153 49.0734 47.2429 48.9861 46.1539 49.0729C46.1017 48.3662 46.0853 45.9549 46.1914 45.26C46.3489 45.0953 46.4755 45.1243 46.744 45.0757Z" fill="#FDECAC"/>
<path d="M19.7292 32.9928C22.0559 32.9545 24.4106 33.0056 26.7419 33.0036C28.9245 33.0018 31.14 32.9365 33.3154 33.0215C33.3118 34.3196 33.3269 35.6177 33.3603 36.9154C33.983 36.8915 37.3769 36.8205 37.7375 37.0301L37.7674 37.2371C37.5636 38.5413 37.7303 41.9696 37.7356 43.4602C37.7468 46.5706 37.7556 49.6963 37.7516 52.8104C36.2906 52.841 34.8293 52.8599 33.3679 52.8671C33.3689 53.7032 33.2791 56.3401 33.363 56.943C32.4188 57.0956 29.8407 56.989 28.8123 56.9563C28.8161 57.5762 28.8714 60.5873 28.8045 61.0103C28.8281 62.0388 28.8323 63.0676 28.8172 64.0963C28.7777 64.4704 28.8352 64.5117 28.6375 64.7615C27.4318 64.9651 20.7133 64.3892 20.1026 64.7363L19.523 64.7772C19.4487 63.7946 19.5926 61.6183 19.6406 60.5591C18.8746 60.5612 17.9931 60.5839 17.239 60.524C17.7432 60.3943 18.9544 60.4206 19.5185 60.4171C19.6104 58.7878 19.06 54.9412 19.3979 53.4596C18.0099 53.5084 16.6208 53.5255 15.232 53.5109C15.2116 51.3455 15.085 48.7532 15.2199 46.6245C15.4281 43.3386 15.4583 40.2784 15.4276 36.9905C16.8583 37.0039 18.3371 36.9351 19.7909 36.9435L19.7292 32.9928Z" fill="white"/>
<path d="M19.3979 53.4596C19.4691 53.7447 19.442 56.5731 19.4536 57.1547C20.8591 57.1658 22.2647 57.1643 23.6703 57.15C23.6909 58.3195 23.7949 59.8896 23.7662 60.9976L28.8045 61.0103C28.8281 62.0388 28.8323 63.0676 28.8172 64.0963C28.7777 64.4704 28.8352 64.5117 28.6375 64.7615C27.4318 64.9651 20.7133 64.3892 20.1026 64.7363L19.523 64.7772C19.4487 63.7946 19.5926 61.6183 19.6406 60.5591C18.8746 60.5612 17.9931 60.5839 17.239 60.524C17.7432 60.3943 18.9544 60.4206 19.5185 60.4171C19.6104 58.7878 19.06 54.9412 19.3979 53.4596Z" fill="#FDCD42"/>
<path d="M23.8308 36.9353L28.729 36.9197C28.726 38.2818 28.7339 39.6439 28.7529 41.0059C30.2732 40.9943 31.7934 40.9956 33.3137 41.0097L33.294 52.796L29.0679 52.7998L28.8685 52.8168C28.6603 53.1301 28.7521 56.2554 28.7512 56.8684C27.1419 56.8376 25.496 56.8459 23.8836 56.8368C23.8448 55.5467 23.8788 54.1398 23.8876 52.8407C22.5706 52.7985 21.1634 52.8348 19.8304 52.8204C19.9402 48.9136 19.7943 44.9339 19.8734 41.0112C21.1969 40.9981 22.5205 40.9957 23.844 41.004C23.7971 39.6645 23.8223 38.2793 23.8308 36.9353Z" fill="#272A2D"/>
<path d="M23.844 41.004C25.441 41.0074 27.1738 41.0466 28.7591 41.0105C28.7368 42.4752 28.7264 43.9401 28.728 45.405C27.1308 45.4031 25.448 45.4279 23.8577 45.3874C23.8557 43.9905 23.8934 42.383 23.844 41.004Z" fill="white"/>
<path d="M99.924 15.7476C99.9144 15.418 99.8527 14.8689 100.014 14.6359L100.038 15.6676L103.72 15.7022C103.723 16.9754 103.703 18.331 103.735 19.5971C105.042 19.6218 106.35 19.6398 107.658 19.6512C107.659 20.7821 107.634 22.2133 107.708 23.326L111.605 23.3505C111.603 24.6416 111.579 26.0078 111.608 27.2928L115.747 27.3076C115.744 28.656 115.728 30.0214 115.742 31.3681C114.425 31.3856 113.012 31.3749 111.705 31.4225C111.682 32.5166 111.64 33.6123 111.705 34.7046C113.407 34.7849 115.274 34.7535 116.986 34.7547L125.355 34.7559C125.378 35.3064 125.337 36.5742 125.389 37.006C125.344 37.3485 125.344 38.2388 125.334 38.6238C120.773 38.541 116.152 38.6734 111.583 38.5871L111.574 35.5925L107.771 35.556C107.645 35.1317 107.718 32.0679 107.727 31.447C107.428 31.3578 104.278 31.3955 103.707 31.3903C103.637 30.1513 103.675 28.5782 103.675 27.3268L103.734 27.3018C103.729 26.6015 103.511 23.8228 103.823 23.4047L103.747 23.3882C103.426 23.4755 99.9744 23.5958 99.7951 23.5028C99.7759 22.3222 99.8487 20.9792 99.8896 19.7857L97.5728 19.7974C96.3067 19.591 93.5938 19.9795 92.5007 19.7415L92.5167 15.8359C93.1161 15.8329 97.135 15.8817 97.3727 15.759C98.2226 15.7446 99.0733 15.7407 99.924 15.7476Z" fill="#272A2D"/>
<path d="M99.924 15.7476C99.9768 17.0536 99.9168 18.3671 99.94 19.67C101.188 19.6646 102.457 19.6463 103.703 19.6561C103.708 20.8666 103.691 22.1887 103.747 23.3882C103.426 23.4755 99.9744 23.5958 99.7951 23.5028C99.7759 22.3222 99.8487 20.9792 99.8896 19.7857L97.5728 19.7974C96.3067 19.591 93.5938 19.9795 92.5007 19.7415L92.5167 15.8359C93.1161 15.8329 97.135 15.8817 97.3727 15.759C98.2226 15.7446 99.0733 15.7407 99.924 15.7476Z" fill="#FEE058"/>
<path d="M103.823 23.4047C105.066 23.4031 106.428 23.4262 107.661 23.3751C107.66 23.9216 107.675 24.5796 107.653 25.1167C107.714 25.7799 107.701 26.686 107.709 27.3695C107.652 27.9449 107.68 30.8092 107.861 31.305L107.996 31.4111L107.727 31.447C107.428 31.3578 104.278 31.3955 103.707 31.3903C103.637 30.1513 103.675 28.5782 103.675 27.3268L103.734 27.3018C103.729 26.6015 103.511 23.8228 103.823 23.4047Z" fill="#FBBB1F"/>
<path d="M103.823 23.4047C105.066 23.4031 106.428 23.4262 107.661 23.3751C107.66 23.9216 107.675 24.5796 107.653 25.1167C107.568 25.6977 107.629 26.7402 107.669 27.3443C106.298 27.3717 105.108 27.3931 103.734 27.3018C103.729 26.6015 103.511 23.8228 103.823 23.4047Z" fill="#FEE058"/>
<path d="M107.709 27.3695L111.568 27.3438C111.598 28.6005 111.546 30.2163 111.618 31.3989C110.411 31.4124 109.203 31.4165 107.996 31.4111L107.861 31.305C107.68 30.8092 107.652 27.9449 107.709 27.3695Z" fill="#FBBB1F"/>
<path d="M38.0358 17.3817C43.4663 17.2571 49.2935 17.331 54.7684 17.3277C54.7971 18.7574 54.7474 20.1654 54.7679 21.569C53.5366 21.4491 51.5576 21.5336 50.2849 21.5467C48.363 21.5538 46.441 21.5417 44.5193 21.5103C43.6038 21.5004 42.4185 21.5353 41.5323 21.4893C41.5327 22.7363 41.4784 24.2816 41.5215 25.4971C38.7992 25.455 36.0913 25.4895 33.3697 25.4619C33.2952 26.4034 33.159 28.6595 33.275 29.558L27.0586 29.5773C26.3397 29.584 24.7238 29.5683 24.0839 29.6451C24.1311 28.4025 24.1202 26.6628 24.2274 25.4857C25.7452 25.5048 27.2633 25.4981 28.781 25.4654C28.7843 24.8428 28.8334 22.0072 28.7663 21.5725L38.0219 21.5234C38.0361 20.1454 38.0729 18.7581 38.0358 17.3817Z" fill="#FEE058"/>
<path d="M51.2168 32.9928C52.2493 32.9972 53.314 33.0144 54.3438 33.0018L54.3206 36.8613C55.628 36.8769 57.0274 36.9552 58.3158 36.9341C58.4108 40.428 58.309 43.8171 58.3597 47.3041C58.3725 48.1929 58.2676 50.6218 58.4075 51.3669C58.4997 53.0322 58.4934 54.3739 58.5282 56.011C58.5343 56.1537 58.5328 56.2966 58.5634 56.4345L58.5649 56.6036C58.6804 57.7708 58.6578 59.4244 58.6645 60.6205C58.3722 60.6128 58.1007 60.5911 57.815 60.6532C57.1795 60.7479 55.0306 60.6817 54.346 60.6633C54.2955 59.5404 54.3929 57.7267 54.2819 56.7723C54.0272 56.6342 53.7111 56.6653 53.4094 56.6629C53.6876 56.5989 53.9106 56.5639 54.1917 56.522C54.3166 55.8244 54.1662 53.9953 54.257 53.0856L54.2664 52.996C54.3062 52.2969 54.2643 51.167 54.2643 50.4326L54.2665 45.1447C54.2807 44.7788 54.2759 44.3391 54.2632 43.9701C54.1836 41.6544 54.4288 39.2278 54.2693 36.9269C52.9853 36.884 51.5487 36.914 50.2533 36.9136C50.3035 35.769 50.2494 34.1779 50.2458 33.0101L51.2168 32.9928Z" fill="#CE8802"/>
<path d="M54.2664 52.996C54.3537 54.1024 54.3019 55.4967 54.315 56.6349C55.7318 56.6509 57.1486 56.6405 58.5649 56.6036C58.6804 57.7708 58.6578 59.4244 58.6645 60.6205C58.3722 60.6128 58.1007 60.5911 57.815 60.6532C57.1795 60.7479 55.0306 60.6817 54.346 60.6633C54.2955 59.5404 54.3929 57.7267 54.2819 56.7723C54.0272 56.6342 53.7111 56.6653 53.4094 56.6629C53.6876 56.5989 53.9106 56.5639 54.1917 56.522C54.3166 55.8244 54.1662 53.9953 54.257 53.0856L54.2664 52.996Z" fill="#FEE058"/>
<path d="M3.76375 56.2992C3.85459 56.359 3.88934 56.3528 3.893 56.4227C3.96025 57.7066 3.92874 59.1811 3.92638 60.461C5.16004 60.4592 6.56748 60.426 7.78701 60.473L7.78621 60.5973C7.95419 60.3937 12.9679 60.3916 13.5671 60.5269C14.7792 60.5837 16.0233 60.5442 17.2385 60.524C17.9925 60.5839 18.8741 60.5611 19.6401 60.5591C19.592 61.6183 19.4483 63.7947 19.5227 64.7773C18.3912 64.8208 16.7363 64.7493 15.5846 64.695C15.5766 65.0102 15.5791 65.5398 15.5376 65.8356L15.5193 68.6809L11.603 68.6726C10.3301 68.695 8.9779 68.6654 7.69914 68.6587C7.77525 67.5635 7.72787 65.8162 7.73035 64.691C6.51858 64.6358 5.13716 64.6546 3.91229 64.6451L3.91259 60.514C2.6225 60.4697 1.29396 60.484 0 60.4842L0.0346037 56.3221L3.76375 56.2992Z" fill="#272A2D"/>
<path d="M13.5671 60.5269C14.7792 60.5837 16.0238 60.5442 17.239 60.524C17.9931 60.5839 18.8746 60.5612 19.6406 60.5591C19.5926 61.6183 19.4487 63.7946 19.523 64.7772C18.3916 64.8208 16.7366 64.7493 15.5849 64.695C15.5769 65.0101 15.5794 65.5398 15.5379 65.8356L15.5196 68.6809L11.603 68.6726L11.6051 64.6868C11.6488 63.299 11.6351 61.91 11.5638 60.5235C12.2315 60.5405 12.8993 60.5417 13.5671 60.5269Z" fill="#FEE058"/>
<path d="M11.6051 64.6868L15.5175 64.6834C15.5231 65.0515 15.5192 65.4728 15.5379 65.8356L15.5196 68.6809L11.603 68.6726L11.6051 64.6868Z" fill="#FBBB1F"/>
<path d="M7.78621 60.5973C7.95419 60.3937 12.9679 60.3916 13.5671 60.5269C12.8993 60.5417 12.2315 60.5405 11.5638 60.5235C11.6351 61.91 11.6488 63.299 11.6051 64.6868C10.4055 64.6058 8.9823 64.6454 7.76965 64.6526C7.79022 63.3009 7.79566 61.9491 7.78621 60.5973Z" fill="#FDCD42"/>
<path d="M125.355 34.7559C126.051 34.7648 128.595 34.8312 129.198 34.7381C129.122 35.2682 129.124 38.0666 129.194 38.6424C129.266 39.98 129.181 41.5824 129.195 42.9461C127.909 43.153 126.656 42.8688 125.396 42.9864C125.063 42.8334 113.057 42.9285 111.586 42.9153C111.608 41.7923 111.633 40.7769 111.578 39.6547C110.297 39.6366 108.991 39.6828 107.709 39.715C107.734 38.3447 107.721 36.9366 107.725 35.5632L107.772 35.5561L111.575 35.5925L111.584 38.5871C116.152 38.6734 120.774 38.541 125.335 38.6238C125.344 38.2388 125.344 37.3486 125.39 37.006C125.338 36.5742 125.379 35.3064 125.355 34.7559Z" fill="#E8A00A"/>
<path d="M125.355 34.7559C126.05 34.7648 128.594 34.8312 129.198 34.7381C129.122 35.2682 129.123 38.0666 129.194 38.6425C127.909 38.5522 126.752 38.7021 125.469 38.6699C125.384 38.3872 125.461 37.5566 125.401 37.0878L125.389 37.006C125.337 36.5742 125.378 35.3064 125.355 34.7559Z" fill="#E8A00A"/>
<path d="M103.747 23.3882L103.823 23.4047C103.511 23.8228 103.729 26.6015 103.734 27.3018L103.675 27.3268C103.675 28.5782 103.637 30.1513 103.707 31.3903C104.278 31.3955 107.428 31.3578 107.727 31.447C107.718 32.0679 107.645 35.1317 107.771 35.556L107.724 35.5632C107.318 35.401 104.385 35.4885 103.691 35.4937C103.608 34.0741 103.774 33.0715 103.606 31.4319C102.779 31.4912 100.581 31.5608 99.7887 31.3673C99.0245 31.0976 97.0334 31.209 96.1803 31.2498C96.1555 30.0451 96.1107 28.7772 96.1387 27.5791C93.9003 27.7323 91.0706 27.6017 88.8002 27.5621C88.7802 26.2402 88.7794 24.918 88.7978 23.596C90.9393 23.6124 93.0072 23.4901 95.1376 23.4956C95.5001 23.5385 95.8258 23.59 96.1915 23.5602C97.0014 23.5147 99.0941 23.3614 99.7951 23.5028C99.9744 23.5958 103.426 23.4755 103.747 23.3882Z" fill="#CE8802"/>
<path d="M103.747 23.3882L103.823 23.4047C103.511 23.8228 103.729 26.6015 103.734 27.3018L103.675 27.3268C102.386 27.1437 96.7829 27.5972 96.1971 27.1824C96.2763 26.3829 96.2035 24.4334 96.1915 23.5602C97.0014 23.5147 99.0941 23.3614 99.7951 23.5028C99.9744 23.5958 103.426 23.4755 103.747 23.3882Z" fill="#FBBB1F"/>
<path d="M15.6543 25.1044L15.7779 25.2859C15.5211 25.6472 15.6152 28.851 15.6163 29.5355L11.6741 29.5605L11.6823 36.2139C10.3264 36.2556 9.10987 36.2342 7.76926 36.2423L7.70995 36.2027C7.76781 35.6865 7.72515 34.5816 7.72579 34.0007L7.7342 29.5648L11.623 29.5604C11.5784 28.1816 11.6073 26.6422 11.6028 25.2508C12.2716 25.2509 15.3189 25.3307 15.6543 25.1044Z" fill="#272A2D"/>
<path d="M3.91557 36.1786C4.99759 36.1721 6.67776 36.1165 7.70995 36.2027L7.76926 36.2423C7.8196 38.9798 7.75965 41.7674 7.7879 44.519C6.54588 44.5135 5.139 44.5369 3.91093 44.479L3.91557 36.1786Z" fill="#272A2D"/>
<path d="M0.0211513 44.5101L3.91093 44.479L3.91841 48.4854C3.91585 49.0878 3.83747 52.2941 4.02651 52.5957L3.97129 52.6394C3.30943 52.5447 0.830633 52.5822 0.014781 52.5725C0.000600203 49.885 0.00272103 47.1975 0.0211513 44.5101Z" fill="#272A2D"/>
<path d="M5.3997 52.5711C6.10898 52.5629 6.9872 52.5287 7.67783 52.6004C7.71448 52.6384 7.77818 52.6968 7.80115 52.7385C7.78243 53.57 7.72625 55.4379 7.81364 56.2232L8.00426 56.4936L7.85717 56.58C7.67167 57.4558 7.82566 59.4993 7.78701 60.473C6.56748 60.426 5.16004 60.4592 3.92638 60.461C3.92874 59.1811 3.96025 57.7066 3.893 56.4227C3.88934 56.3528 3.85459 56.359 3.76375 56.2992L3.88848 56.2638C4.01729 55.3531 3.84218 53.7174 3.97129 52.6394L4.02651 52.5957C4.48413 52.5814 4.94186 52.5732 5.3997 52.5711Z" fill="#FEE058"/>
<path d="M5.3997 52.5711C6.10898 52.5629 6.9872 52.5287 7.67783 52.6004C7.71448 52.6384 7.77818 52.6968 7.80115 52.7385C7.78243 53.57 7.72625 55.4379 7.81364 56.2232C7.76994 56.2574 7.72619 56.2915 7.68242 56.3257C7.01267 56.3041 4.60528 56.363 4.05622 56.2908C4.00002 56.2836 3.94408 56.2747 3.88848 56.2638C4.01729 55.3531 3.84218 53.7174 3.97129 52.6394L4.02651 52.5957C4.48413 52.5814 4.94186 52.5732 5.3997 52.5711Z" fill="#272A2D"/>
<path d="M46.2411 28.666C47.5749 28.6974 48.909 28.7099 50.2431 28.7037C50.2021 30.0753 50.2574 31.5536 50.2867 32.9345L51.2168 32.9928L50.2458 33.0101C49.0302 33.0705 47.4608 33.0073 46.2405 32.9672L46.2411 28.666Z" fill="#E8A00A"/>
<path d="M99.7887 31.3673C100.581 31.5608 102.779 31.4912 103.606 31.4319C103.774 33.0715 103.608 34.0741 103.691 35.4937C103.159 35.5819 100.48 35.4756 99.8129 35.4498C99.7905 34.089 99.7823 32.7282 99.7887 31.3673Z" fill="#E8A00A"/>
<path d="M3.91841 48.4854C5.10739 48.5278 6.59737 48.6197 7.76392 48.5977C7.73471 49.9173 7.77009 51.2381 7.7949 52.558C6.98782 52.5437 6.20693 52.5209 5.3997 52.5711C4.94186 52.5732 4.48413 52.5814 4.02651 52.5957C3.83747 52.2941 3.91585 49.0878 3.91841 48.4854Z" fill="#FEE058"/>
<path d="M46.5443 37.0058C47.779 36.9255 49.0162 36.8948 50.2533 36.9136C50.2077 38.3101 50.3434 39.5478 50.1938 41.0163C49.0088 41.0182 47.7705 40.9992 46.5915 41.0739C46.5472 39.7029 46.5692 38.3723 46.5443 37.0058Z" fill="#FEE058"/>
<path d="M7.80115 52.7385C7.87902 52.6332 7.85618 52.6169 7.94589 52.6114C9.12509 52.5391 10.4404 52.5833 11.6204 52.6064C11.6018 53.6074 11.5049 55.7247 11.575 56.6149C10.7025 56.5924 8.79357 56.595 8.00426 56.4936L7.81364 56.2232C7.72625 55.4379 7.78243 53.57 7.80115 52.7385Z" fill="#FDECAC"/>
<path d="M97.5731 19.7974L99.8899 19.7857C99.8491 20.9792 99.7763 22.3222 99.7955 23.5028C99.0945 23.3614 97.0017 23.5147 96.1919 23.5602C95.8261 23.5899 95.5004 23.5384 95.1379 23.4956C95.4452 23.4652 95.9014 23.4881 96.2215 23.4944C96.1743 22.5 96.2567 20.8434 96.2799 19.8179C96.704 19.825 97.1474 19.8075 97.5731 19.7974Z" fill="#E8A00A"/>
<path d="M78.8857 23.7653L81.02 23.6937C81.0144 25.0602 80.94 26.3543 80.904 27.7144L79.233 27.7552C78.5255 27.7734 77.7805 27.7659 77.0699 27.7703C77.0899 26.4492 77.0835 25.1278 77.0507 23.807C77.6204 23.8177 78.3079 23.7815 78.8857 23.7653Z" fill="#FEE058"/>
<path d="M84.8383 27.455C86.0995 27.5726 87.488 27.5706 88.7532 27.5741C88.738 28.8849 88.7388 30.1958 88.7548 31.5065C87.4688 31.4903 86.1835 31.4944 84.8975 31.5189L84.8383 27.455Z" fill="#FEE058"/>
<path d="M111.575 43.8738C112.806 43.8507 114.124 43.8171 115.338 43.9682C115.466 45.0521 115.366 46.7067 115.321 47.8254C114.199 47.7576 112.746 47.8069 111.595 47.8185C111.524 46.5867 111.565 45.1262 111.575 43.8738Z" fill="#FEE058"/>
<path d="M95.9331 31.5246L96.0147 31.5267C96.2036 31.7708 96.1756 34.9483 96.21 35.5831C95.0024 35.5654 93.7948 35.5671 92.5872 35.5885C92.4191 35.3853 92.4495 32.2262 92.4327 31.6977C93.6163 31.6728 94.7535 31.6415 95.9331 31.5246Z" fill="#FEE058"/>
<path d="M59.1613 21.5788C60.4092 21.5978 61.7254 21.5735 62.9768 21.5614C62.9841 22.0793 63.0751 25.0803 62.8953 25.3569C61.7972 25.3276 60.2626 25.3994 59.1235 25.4077C59.2463 24.1993 59.1989 22.8017 59.1613 21.5788Z" fill="#FEE058"/>
<path d="M66.5428 21.5094L70.4116 21.4509C70.3771 22.7235 70.3529 23.9964 70.339 25.2694C69.1694 25.226 67.7231 25.3034 66.5309 25.3402C66.6132 24.3095 66.5732 22.5651 66.5428 21.5094Z" fill="#FEE058"/>
<path d="M136.317 22.8036C140.189 22.8339 144.137 22.7658 147.996 22.8332C148.006 24.1138 147.99 25.4979 148.035 26.7699L151.837 26.7774L151.833 38.5688C150.576 38.5775 149.283 38.5717 148.029 38.6076C147.936 43.7175 147.928 49.6678 148.028 54.7758C149.318 54.7666 150.608 54.7642 151.898 54.7688L151.908 58.7656L151.865 63.0219C151.877 64.7242 151.88 66.4265 151.874 68.1289C151.871 68.8724 151.814 70.0731 151.88 70.7768C150.9 70.9068 148.654 70.8195 147.575 70.8413C144.137 70.9106 140.49 70.7237 137.076 70.8488C137.048 70.2435 137.133 67.2995 137.02 66.9497C135.73 66.9189 134.404 66.9408 133.112 66.9487L133.117 65.8625C133.073 65.1743 133.099 63.9683 133.094 63.2427C132.107 63.234 130.825 63.257 129.867 63.1744C130.531 63.0824 132.366 63.1492 133.098 63.1605C133.147 62.2257 133.055 61.2145 133.086 60.2521C133.201 59.9137 133.175 59.5934 133.234 59.2145L133.481 59.1637L133.471 59.0945C133.343 59.0741 133.217 59.0526 133.09 59.03L133.054 55.014C131.77 55.0235 130.487 55.0104 129.204 54.9748C129.059 54.2059 129.225 50.7951 129.212 49.803C129.179 47.556 129.163 45.1953 129.195 42.9462C129.181 41.5825 129.266 39.98 129.194 38.6425C129.123 38.0666 129.122 35.2682 129.198 34.7381C128.594 34.8312 126.05 34.7648 125.355 34.7559L125.362 30.761C126.654 30.7598 127.945 30.7508 129.236 30.7341C129.248 29.4303 129.23 28.0997 129.227 26.7936L136.317 26.7864V22.8036Z" fill="#FEE058"/>
<path d="M136.317 22.8036C140.189 22.8339 144.137 22.7658 147.996 22.8332C148.006 24.1138 147.99 25.4979 148.035 26.7699L151.837 26.7774L151.833 38.5688C150.576 38.5775 149.283 38.5717 148.029 38.6076C147.936 43.7175 147.928 49.6678 148.028 54.7758C146.948 54.8413 145.249 54.7793 144.123 54.7735L144.085 51.0982C144.132 47.5309 144.092 43.9937 144.1 40.4286C143.977 40.2246 144.038 38.9535 144.045 38.6129C142.137 38.4749 139.263 38.5907 137.337 38.6888C136.202 38.609 134.977 38.7421 133.798 38.6762L133.09 38.6902C131.877 38.6517 130.53 38.7147 129.256 38.683C129.234 37.6475 129.175 35.7491 129.278 34.7701L129.198 34.7381C128.594 34.8312 126.05 34.7648 125.355 34.7559L125.362 30.761C126.654 30.7598 127.945 30.7508 129.236 30.7341C129.248 29.4303 129.23 28.0997 129.227 26.7936L136.317 26.7864V22.8036Z" fill="#FEE058"/>
<path d="M136.317 22.8036C140.189 22.8339 144.137 22.7658 147.996 22.8332C148.006 24.1138 147.99 25.4979 148.035 26.7699L151.837 26.7774L151.833 38.5688C150.576 38.5775 149.283 38.5717 148.029 38.6076C147.936 43.7175 147.928 49.6678 148.028 54.7758C146.948 54.8413 145.249 54.7793 144.123 54.7735L144.085 51.0982C144.132 47.5309 144.092 43.9937 144.1 40.4286C144.118 39.8295 144.115 39.2074 144.119 38.6063C145.186 38.5506 146.257 38.6135 147.333 38.5425C147.578 38.5615 147.68 38.5811 147.924 38.5123C148.088 38.3019 148.031 28.0624 148.036 26.7861C147.274 26.7858 146.511 26.8016 145.749 26.8336C145.287 26.7559 143.218 26.7772 142.639 26.7774L136.317 26.7864V22.8036Z" fill="#272A2D"/>
<path d="M136.317 26.7864C136.318 28.1117 136.308 29.4372 136.285 30.7624C135.461 30.7505 134.637 30.7537 133.812 30.7719C133.568 30.7949 133.233 30.7922 133.049 30.923C132.967 31.425 133 34.1835 133.06 34.7538C131.856 34.7608 130.467 34.8035 129.278 34.7701L129.198 34.7381C128.594 34.8312 126.05 34.7648 125.355 34.7559L125.362 30.761C126.654 30.7598 127.945 30.7508 129.236 30.7341C129.248 29.4303 129.23 28.0997 129.227 26.7936L136.317 26.7864Z" fill="#272A2D"/>
<path d="M129.228 30.7736C130.706 30.7622 132.348 30.7216 133.812 30.7719C133.568 30.7949 133.233 30.7922 133.049 30.923C132.967 31.425 133 34.1835 133.06 34.7538C131.856 34.7608 130.467 34.8035 129.278 34.7701L129.198 34.7381C129.273 33.5978 129.197 32.0064 129.228 30.7736Z" fill="#E8A00A"/>
<path d="M137.294 34.837C139.555 34.773 141.817 34.7325 144.079 34.7155C144.07 35.9839 144.082 37.2525 144.115 38.5205C145.011 38.5019 146.476 38.4616 147.333 38.5425C146.257 38.6135 145.186 38.5506 144.119 38.6063C144.115 39.2074 144.118 39.8295 144.1 40.4286C143.977 40.2246 144.038 38.9535 144.045 38.6129C142.137 38.4749 139.263 38.5907 137.337 38.6888C136.202 38.609 134.977 38.7421 133.798 38.6762C134.514 38.5667 136.543 38.6071 137.326 38.607C137.337 37.3502 137.326 36.0933 137.294 34.837Z" fill="#FBBB1F"/>
<path d="M136.317 26.7864L142.639 26.7774C143.218 26.7772 145.287 26.7559 145.749 26.8336C144.261 26.9374 141.753 26.8486 140.148 26.871C140.128 28.1504 140.126 29.4301 140.14 30.7096C139.167 30.7318 137.177 30.827 136.285 30.7624C136.308 29.4372 136.318 28.1117 136.317 26.7864Z" fill="#FBBB1F"/>
<path d="M129.198 34.7381L129.278 34.7701C129.175 35.7491 129.234 37.6475 129.256 38.683C130.53 38.7147 131.877 38.6517 133.09 38.6902L133.798 38.6762C134.977 38.7421 136.202 38.609 137.337 38.6888C139.263 38.5907 142.137 38.4749 144.045 38.6129C144.038 38.9535 143.977 40.2246 144.1 40.4286C144.092 43.9937 144.132 47.5309 144.085 51.0982C141.834 51.1713 139.583 51.1901 137.331 51.1547C137.335 49.7765 137.332 48.3982 137.32 47.0199C136.095 47.0071 134.871 47.0029 133.645 47.0073C133.36 47.0446 133.276 47.0074 133.079 47.165C133.011 48.4429 133.148 49.8319 133.04 51.066C133.778 51.067 135.184 51.0318 135.846 51.0971C134.239 51.2628 130.961 51.1596 129.254 51.1518C129.253 51.8599 129.292 54.3554 129.204 54.9748C129.059 54.2059 129.225 50.7951 129.212 49.803C129.179 47.556 129.164 45.1953 129.195 42.9461C129.181 41.5824 129.266 39.98 129.194 38.6424C129.124 38.0666 129.122 35.2682 129.198 34.7381Z" fill="#FEE058"/>
<path d="M129.198 34.7381L129.278 34.7701C129.175 35.7491 129.234 37.6475 129.256 38.683C130.53 38.7147 131.877 38.6517 133.09 38.6902L133.798 38.6762C134.977 38.7421 136.202 38.609 137.337 38.6888C137.333 40.0555 137.225 41.5692 137.239 42.8591C136.722 43.0402 130.427 42.9093 129.26 42.9391C129.253 44.3082 129.231 45.7101 129.246 47.0764C130.669 47.0512 132.244 46.9729 133.645 47.0073C133.36 47.0446 133.276 47.0074 133.079 47.165C133.011 48.4429 133.148 49.8319 133.04 51.066C133.778 51.067 135.184 51.0318 135.846 51.0971C134.239 51.2628 130.961 51.1596 129.254 51.1518C129.253 51.8599 129.292 54.3554 129.204 54.9748C129.059 54.2059 129.225 50.7951 129.212 49.803C129.179 47.556 129.164 45.1953 129.195 42.9461C129.181 41.5824 129.266 39.98 129.194 38.6424C129.124 38.0666 129.122 35.2682 129.198 34.7381Z" fill="#FBBB1F"/>
<path d="M133.798 38.6762C134.977 38.7421 136.202 38.609 137.337 38.6888C137.333 40.0555 137.225 41.5691 137.238 42.8591C136.844 42.7678 133.724 42.8379 133.097 42.8476C132.939 41.4846 133.032 40.062 133.09 38.6902L133.798 38.6762Z" fill="#E8A00A"/>
<path d="M133.09 59.03C135.364 59.1228 138.267 59.1645 140.565 59.0863C140.594 60.4141 140.612 61.7422 140.622 63.0703C141.78 63.0723 142.94 63.0826 144.099 63.1012C144.04 64.333 144.055 65.6124 144.054 66.8498C145.313 66.858 146.572 66.8549 147.831 66.8405C147.967 67.1206 147.941 70.1044 147.988 70.7309C149.015 70.785 151.06 70.6478 151.88 70.7768C150.9 70.9068 148.654 70.8195 147.575 70.8413C144.137 70.9106 140.49 70.7237 137.076 70.8488C137.048 70.2435 137.133 67.2995 137.02 66.9497C135.73 66.9189 134.404 66.9408 133.112 66.9487L133.117 65.8625C133.073 65.1743 133.099 63.9683 133.094 63.2427C132.107 63.234 130.825 63.257 129.867 63.1744C130.531 63.0824 132.366 63.1492 133.098 63.1605C133.147 62.2257 133.055 61.2145 133.086 60.2521C133.201 59.9137 133.175 59.5934 133.234 59.2145L133.481 59.1637L133.471 59.0945C133.343 59.0741 133.217 59.0526 133.09 59.03Z" fill="#E8A00A"/>
<path d="M133.186 63.2423C134.507 63.1099 135.684 63.0875 137.004 63.0875C137.054 63.6709 137.212 66.4867 137.02 66.9496C135.731 66.9188 134.405 66.9407 133.112 66.9486L133.117 65.8624C133.264 65.6062 133.192 63.6771 133.186 63.2423Z" fill="#FBBB1F"/>
<path d="M133.645 47.0073C134.871 47.0029 136.095 47.0071 137.32 47.0199C137.332 48.3982 137.335 49.7765 137.331 51.1547C139.583 51.1901 141.835 51.1714 144.085 51.0983L144.123 54.7736C145.249 54.7794 146.948 54.8414 148.029 54.7758L148.021 54.86C144.429 54.8338 140.839 54.9229 137.271 54.8817C137.275 53.6194 137.333 52.3506 137.339 51.0733L135.846 51.0971C135.184 51.0318 133.778 51.067 133.04 51.066C133.148 49.8319 133.011 48.4429 133.079 47.165C133.276 47.0074 133.36 47.0446 133.645 47.0073Z" fill="#FBBB1F"/>
<path d="M151.797 66.8836C151.792 66.397 151.722 63.2951 151.865 63.0219C151.877 64.7242 151.88 66.4265 151.874 68.1289C151.871 68.8724 151.814 70.0731 151.88 70.7768C151.06 70.6478 149.015 70.785 147.988 70.7309C147.941 70.1044 147.967 67.1206 147.831 66.8405C148.243 66.9016 151.184 66.8772 151.797 66.8836Z" fill="#FBBB1F"/>
<path d="M148.029 54.7758C149.319 54.7667 150.608 54.7642 151.898 54.7688L151.908 58.7656C150.681 58.7316 149.291 58.7699 148.041 58.7608C148.017 57.4607 148.01 56.1604 148.021 54.86L148.029 54.7758Z" fill="#272A2D"/>
<path d="M28.7387 77.1395L28.7907 76.8756C28.9625 76.7511 41.2157 76.7392 42.2602 76.8235L42.8107 76.8691L48.5245 77.0386C51.2128 77.1439 53.8653 77.2899 56.5615 77.2547C57.1621 77.2469 58.6754 77.3022 59.1739 77.1621C59.2702 78.4341 59.2942 79.7109 59.2459 80.9851C59.8662 80.9851 63.1506 81.0907 63.4555 81.0283C64.7948 80.9507 66.1589 81.0235 67.5467 80.9259C68.9517 80.8827 70.4413 80.9211 71.8536 80.9371C71.8234 79.5989 71.8637 78.1728 71.8814 76.8274C76.1637 76.7578 80.6045 76.8374 84.9084 76.8225L84.9108 80.9682L71.8847 80.9978C71.8788 82.3432 71.8943 83.7565 71.8583 85.0971C70.4281 85.0675 68.9975 85.0643 67.5672 85.0859L67.5514 89.15C63.4892 89.1204 59.4269 89.1196 55.3647 89.1492C55.3585 87.8423 55.3836 86.3729 55.3299 85.0787L42.2065 85.0811L42.2439 81.0682C40.5182 80.9682 38.7137 81.0002 36.9795 80.9986C34.2291 80.9946 31.4787 81.0042 28.7283 81.0282C28.73 79.83 28.7834 78.3051 28.7387 77.1395Z" fill="#272A2D"/>
<path d="M42.2605 76.8235L42.811 76.869L48.5248 77.0385C51.2132 77.1438 53.8657 77.2899 56.5619 77.2547C57.1625 77.2468 58.6757 77.3022 59.1743 77.1621C59.2705 78.4341 59.2946 79.7109 59.2462 80.9851C59.8666 80.9851 63.1509 81.0906 63.4559 81.0283C63.4572 82.368 63.4346 83.7078 63.3878 85.0468C60.8461 84.9556 57.9478 85.0604 55.3506 85.046C55.3199 83.711 55.3025 82.3752 55.2985 81.0394C50.9472 80.9882 46.5954 80.9907 42.2442 81.045C42.2635 79.6381 42.2689 78.2307 42.2605 76.8235Z" fill="#FDCD42"/>
<path d="M107.304 64.4404L107.44 64.6075C110.034 64.586 112.713 64.5478 115.307 64.6007L115.322 64.5511C115.991 64.6582 118.634 64.6122 119.409 64.6111C119.409 65.8566 119.368 67.4564 119.453 68.6711L115.514 68.6897C115.483 69.9955 115.473 71.3017 115.484 72.6078C114.336 72.6109 112.855 72.6596 111.736 72.6121C109.095 72.5015 106.264 72.6588 103.599 72.5986C103.15 72.3738 100.472 72.7546 99.6505 72.4594C99.7009 71.3326 99.6569 69.829 99.6593 68.6714L99.6777 68.4372C99.6241 67.4631 99.5977 65.39 99.697 64.4477C100.965 64.4533 102.224 64.4684 103.491 64.417L103.53 64.4332C104.788 64.4132 106.046 64.4156 107.304 64.4404Z" fill="#FDCD42"/>
<path d="M115.322 64.5511C115.991 64.6582 118.634 64.6122 119.409 64.6111C119.409 65.8566 119.368 67.4564 119.453 68.6711L115.514 68.6897C115.483 69.9955 115.473 71.3017 115.484 72.6078C114.336 72.6109 112.855 72.6596 111.736 72.6121C111.844 71.718 111.798 69.6057 111.804 68.606C111.48 68.3801 108.056 68.4026 107.406 68.3963C107.341 67.2925 107.411 65.8597 107.397 64.7047L107.44 64.6075C110.034 64.586 112.713 64.5478 115.307 64.6007L115.322 64.5511Z" fill="#FEE058"/>
<path d="M115.322 64.5511C115.991 64.6582 118.634 64.6122 119.409 64.6111C119.409 65.8566 119.368 67.4564 119.453 68.6711L115.514 68.6897C115.483 69.9955 115.473 71.3017 115.484 72.6078C114.336 72.6109 112.855 72.6596 111.736 72.6121C111.844 71.718 111.798 69.6057 111.804 68.606C112.423 68.732 114.759 68.6438 115.423 68.6135C115.367 67.6617 115.47 65.3693 115.307 64.6007L115.322 64.5511Z" fill="#272A2D"/>
<path d="M103.491 64.417L103.53 64.4332C103.457 65.6105 103.511 67.1813 103.535 68.3773C102.611 68.4933 100.432 68.3939 99.7667 68.5254L99.6593 68.6714L99.6777 68.4372C99.6241 67.4631 99.5977 65.39 99.697 64.4477C100.965 64.4533 102.224 64.4684 103.491 64.417Z" fill="#E8A00A"/>
<path d="M107.304 64.4405L107.439 64.6075L107.397 64.7047C107.256 65.1292 107.317 67.7682 107.322 68.3512C106.144 68.3432 104.701 68.318 103.535 68.3773C103.511 67.1814 103.456 65.6106 103.53 64.4332C104.788 64.4133 106.046 64.4157 107.304 64.4405Z" fill="#CE8802"/>
<path d="M95.8588 72.4515C96.6607 72.3916 98.8447 72.3886 99.6505 72.4594C100.472 72.7546 103.15 72.3738 103.599 72.5986C106.264 72.6588 109.095 72.5015 111.736 72.6121C111.67 74.0265 111.664 75.4036 111.655 76.8198C108.99 76.896 106.301 76.7425 103.633 76.839L103.643 80.9683L92.0233 80.9755C92.0273 79.5661 92.0159 78.1293 92.036 76.7226C93.3476 76.7679 95.241 76.7954 96.5527 76.7509C96.2934 76.7329 96.0605 76.7379 95.834 76.6089C95.738 76.0646 95.8028 73.2082 95.81 72.5322L95.8588 72.4515Z" fill="#272A2D"/>
<path d="M95.8588 72.4515C96.6607 72.3916 98.8447 72.3886 99.6505 72.4594C100.472 72.7546 103.15 72.3738 103.599 72.5986C103.566 73.9805 103.55 75.3629 103.553 76.7452C101.336 76.7379 98.7126 76.8289 96.5527 76.7509C96.2934 76.7329 96.0605 76.7379 95.834 76.6089C95.738 76.0646 95.8028 73.2082 95.81 72.5322L95.8588 72.4515Z" fill="#FEE058"/>
<path d="M151.908 58.7656C153.145 58.7715 154.498 58.7512 155.725 58.7945C155.746 61.4255 155.75 64.0567 155.737 66.6878C155.739 67.9595 155.705 69.5276 155.773 70.7807C154.531 70.8098 153.144 70.7963 151.921 70.8639C151.903 72.054 151.914 73.4706 151.846 74.6481L137.089 74.6565L137.076 70.8488C140.49 70.7237 144.137 70.9106 147.575 70.8413C148.654 70.8195 150.9 70.9068 151.88 70.7768C151.814 70.0731 151.871 68.8724 151.874 68.1289C151.88 66.4265 151.877 64.7242 151.865 63.0219L151.908 58.7656Z" fill="#272A2D"/>
<path d="M125.396 42.9865C126.655 42.8688 127.909 43.153 129.195 42.9462C129.163 45.1953 129.179 47.556 129.212 49.803C129.225 50.7951 129.059 54.2059 129.204 54.9748C130.487 55.0104 131.77 55.0235 133.054 55.014L133.09 59.03C133.217 59.0526 133.343 59.0741 133.471 59.0945L133.481 59.1637L133.234 59.2145C133.175 59.5934 133.201 59.9137 133.086 60.2521C133.055 61.2145 133.147 62.2257 133.098 63.1605C132.366 63.1492 130.531 63.0824 129.867 63.1744C129.506 63.1732 129.549 63.2294 129.303 63.0517C129.147 62.7245 129.215 62.1983 129.233 61.8183C129.146 61.1417 129.181 60.0719 129.187 59.3614C127.967 59.4309 126.683 59.4185 125.461 59.4099C125.444 58.8526 125.513 56.3385 125.328 56.0576C125.545 55.6595 125.448 52.5358 125.467 51.8368L125.396 42.9865Z" fill="#CE8802"/>
<path d="M129.27 59.1895C130.195 59.0502 132.061 59.0665 133 59.0937C133.058 59.4279 133.068 59.9035 133.086 60.2521C133.055 61.2145 133.147 62.2257 133.098 63.1605C132.366 63.1492 130.532 63.0824 129.867 63.1743C129.506 63.1731 129.55 63.2294 129.303 63.0516C129.147 62.7244 129.216 62.1983 129.234 61.8182C129.301 61.336 129.269 59.7518 129.27 59.1895Z" fill="#FBBB1F"/>
<path d="M11.6035 68.6726L15.5196 68.6809C16.8338 68.6851 18.273 68.665 19.5829 68.7127C20.478 68.7557 21.4802 68.701 22.2885 68.7472C22.906 68.7827 23.4582 68.7807 24.0769 68.7765C24.0177 69.9428 23.8922 71.5002 23.944 72.6238C22.4908 72.605 21.0377 72.6015 19.5844 72.6134C19.579 73.1621 19.5963 74.084 19.5438 74.6026C19.4961 74.1305 19.5292 73.1175 19.5317 72.6062C17.3761 72.5758 13.8148 72.7336 11.801 72.5537L11.6894 72.5339C11.4809 72.2329 11.5798 69.2513 11.6035 68.6726Z" fill="#272A2D"/>
<path d="M19.5829 68.7127C20.478 68.7557 21.4802 68.701 22.2885 68.7472C22.906 68.7827 23.4582 68.7807 24.0769 68.7765C24.0177 69.9428 23.8922 71.5002 23.944 72.6238C22.4908 72.605 21.0377 72.6015 19.5844 72.6134C19.579 73.1621 19.5963 74.084 19.5438 74.6026C19.4961 74.1305 19.5292 73.1175 19.5317 72.6062C17.3761 72.5758 13.8148 72.7336 11.801 72.5537C14.0338 72.4403 17.2327 72.5447 19.5496 72.553C19.5383 71.2729 19.5495 69.9926 19.5829 68.7127Z" fill="#FEE058"/>
<path d="M23.944 72.6238C25.4929 72.6254 27.17 72.5934 28.7078 72.6339C28.7668 73.8985 28.7099 75.3683 28.7124 76.6592C25.7084 76.6997 22.5641 76.6425 19.5454 76.6426L19.5435 74.6026C19.596 74.0839 19.5786 73.1621 19.584 72.6134C21.0373 72.6015 22.4908 72.605 23.944 72.6238Z" fill="#272A2D"/>
</svg>
