<svg preserveAspectRatio="none" width="100%" height="100%" overflow="visible" style="display: block;" viewBox="0 0 18 18" fill="none" xmlns="http://www.w3.org/2000/svg">
<g id="&#195;&#164;&#194;&#189;&#194;&#153;&#195;&#169;&#194;&#162;&#194;&#157;">
<path id="Vector" d="M10.1114 17.8764C9.94082 17.9201 9.68657 17.9302 9.50612 17.9506C6.47649 18.2923 3.58993 16.8326 1.82121 14.452C0.274551 12.3703 -0.270116 9.89671 0.12302 7.35515C0.469881 5.03508 1.74364 2.94437 3.66481 1.54178C5.61812 0.136672 7.79868 -0.227146 10.1679 0.125953C10.4558 0.14614 10.7442 0.206776 11.0273 0.262735C12.8636 0.619775 14.5256 1.56539 15.7507 2.95005C18.135 5.63378 18.6318 9.62197 17.2025 12.8391C16.6884 13.996 15.9143 15.1006 14.9327 15.9204C13.5833 17.0638 11.8922 17.7501 10.1114 17.8764Z" fill="var(--fill-0, #FDCE45)"/>
<path id="Vector_2" d="M10.1679 0.125953C10.4558 0.14614 10.7442 0.206776 11.0272 0.262735C12.8636 0.619775 14.5256 1.56539 15.7507 2.95005C18.135 5.63378 18.6318 9.62197 17.2025 12.8391C16.6884 13.996 15.9143 15.1006 14.9327 15.9204C13.5833 17.0638 11.8922 17.7501 10.1114 17.8764C10.1863 17.8077 11.0191 17.5787 11.2329 17.5024C12.5135 17.0458 13.9821 15.9839 14.7799 14.9067C14.9468 14.699 15.0846 14.5145 15.2438 14.3017C15.4153 14.033 15.5801 13.7599 15.7379 13.4832C15.8415 13.2993 15.9356 13.0922 16.0272 12.9009C16.1364 12.618 16.247 12.3635 16.3539 12.0716C16.4249 11.8732 16.4884 11.6723 16.5444 11.4691C16.6203 11.1852 16.6772 10.946 16.7252 10.6578C16.7669 10.4688 16.7976 10.2124 16.8267 10.0157C16.8699 9.6854 16.8557 9.43397 16.888 9.14554L16.8886 8.81535C16.8811 8.77943 16.8699 8.42255 16.8648 8.35196C16.8482 8.11216 16.8228 7.89234 16.7928 7.65334C16.7562 7.4365 16.7336 7.24781 16.6867 7.02909C16.6282 6.72915 16.5539 6.44545 16.4739 6.15069C16.4026 5.9663 16.3362 5.74345 16.2745 5.55344C16.1606 5.33603 15.9947 4.91918 15.8928 4.68373C15.8024 4.50378 15.6733 4.29509 15.5733 4.10086C15.5189 4.03808 15.3956 3.83792 15.3453 3.76113C15.2345 3.59225 15.1201 3.42565 15.0024 3.26143C14.8461 3.08456 14.6875 2.8883 14.5357 2.70609C13.4404 1.59333 12.2858 0.796496 10.7656 0.339358C10.6398 0.301522 10.2299 0.210488 10.1679 0.125953Z" fill="var(--fill-0, #F4AA1B)"/>
<path id="Vector_3" d="M16.8267 10.0157C17.109 10.0295 17.3516 10.037 17.6366 10.0152C17.6252 10.2448 17.5874 10.4249 17.5442 10.6498C17.2352 10.6265 16.9984 10.6694 16.7252 10.6578C16.7669 10.4688 16.7976 10.2124 16.8267 10.0157Z" fill="var(--fill-0, #E19A23)"/>
<path id="Vector_4" d="M16.6867 7.02909C16.9591 7.01359 17.2321 7.00999 17.505 7.01833L17.627 7.6298C17.3545 7.61966 17.0666 7.63951 16.7928 7.65334C16.7562 7.4365 16.7336 7.24781 16.6867 7.02909Z" fill="var(--fill-0, #E19A23)"/>
<path id="Vector_5" d="M16.5444 11.4691C16.8191 11.4736 17.0941 11.4734 17.369 11.4689C17.3007 11.6715 17.2373 11.8757 17.1792 12.0811C16.9738 12.0802 16.5188 12.1076 16.3539 12.0716C16.4249 11.8732 16.4884 11.6723 16.5444 11.4691Z" fill="var(--fill-0, #E19A23)"/>
<path id="Vector_6" d="M15.2438 14.3017C15.4309 14.3305 15.8495 14.3248 16.0495 14.3244C15.9079 14.5295 15.7788 14.7461 15.5911 14.9094C15.4035 14.9183 14.9429 14.9484 14.7799 14.9067C14.9468 14.699 15.0846 14.5145 15.2438 14.3017Z" fill="var(--fill-0, #E19A23)"/>
<path id="Vector_7" d="M16.0272 12.9009C16.2367 12.9191 16.6478 12.9089 16.8563 12.8867C16.7595 13.1028 16.6714 13.3071 16.5539 13.5139C16.3653 13.5067 15.8777 13.5215 15.7379 13.4832C15.8415 13.2993 15.9356 13.0922 16.0272 12.9009Z" fill="var(--fill-0, #E19A23)"/>
<path id="Vector_8" d="M16.2745 5.55344C16.5389 5.52885 16.824 5.53302 17.0902 5.53706C17.1363 5.67329 17.2674 5.97837 17.2128 6.1027C17.1251 6.18107 16.641 6.14366 16.4739 6.15069C16.4026 5.9663 16.3362 5.74345 16.2745 5.55344Z" fill="var(--fill-0, #E19A23)"/>
<path id="Vector_9" d="M16.89 8.54513C17.163 8.52559 17.4244 8.54232 17.6935 8.53424C17.692 8.73694 17.692 8.93959 17.6933 9.14224C17.4228 9.13798 17.1547 9.14905 16.8881 9.14554L16.8886 8.81535C16.8917 8.72091 16.8929 8.64039 16.89 8.54513Z" fill="var(--fill-0, #E19A23)"/>
<path id="Vector_10" d="M15.5733 4.10086C16.373 4.08525 16.3376 3.94455 16.6551 4.6746L15.8928 4.68373C15.8024 4.50378 15.6733 4.29509 15.5733 4.10086Z" fill="var(--fill-0, #E19A23)"/>
<path id="Vector_11" d="M14.5357 2.70609C14.757 2.69772 15.0353 2.67015 15.2465 2.70585C15.4988 2.91257 15.5542 2.96739 15.6973 3.24919C15.3693 3.29195 15.245 3.24261 15.0024 3.26143C14.8461 3.08456 14.6875 2.8883 14.5357 2.70609Z" fill="var(--fill-0, #E19A23)"/>
<path id="Vector_12" d="M7.91118 1.80201C11.9043 1.47669 14.8869 4.83265 15.1045 8.53051C15.3202 12.1936 12.7448 15.8624 8.84884 16.1639C8.46967 16.1751 8.00095 16.1904 7.6257 16.1403C4.27086 15.6803 1.87272 12.7619 1.61118 9.54369C1.3072 5.8032 3.92863 2.08849 7.91118 1.80201Z" fill="var(--fill-0, #F6F1E5)"/>
<path id="Vector_13" d="M8.09824 2.82475C9.45828 2.74731 10.8181 3.21455 11.8658 4.07948C15.524 7.09929 14.5388 13.4535 9.87687 14.9271C9.44627 15.0633 9.13743 15.0997 8.68986 15.1423C7.28073 15.2146 5.91768 14.7109 4.85559 13.8127C3.5521 12.6985 2.75915 11.1202 2.65384 9.43024C2.41816 6.17444 4.62172 3.05703 8.09824 2.82475Z" fill="var(--fill-0, #FDCE45)"/>
<path id="Vector_14" d="M8.04087 4.90162C8.53799 4.87879 8.70133 5.48311 8.84637 5.83744C8.99608 6.20947 9.15057 6.57961 9.30996 6.94787C9.69642 6.98571 10.0891 7.0016 10.4785 7.03721C10.7904 7.0657 11.308 7.03506 11.5542 7.24368C11.7866 7.44037 11.8534 7.83101 11.684 8.08955C11.5306 8.32346 11.3078 8.52032 11.107 8.72113C10.8419 8.98288 10.5803 9.24796 10.3224 9.51634C10.5178 10.102 10.6427 10.8893 10.7554 11.4943C10.8156 11.8174 10.262 12.3135 9.89604 12.1552C9.35487 11.9207 8.79853 11.5734 8.29395 11.2793L8.09672 11.1722C7.63785 11.4151 7.15433 11.7688 6.68403 12.0135C6.49287 12.1033 6.3693 12.1934 6.14673 12.1334C5.22504 11.8842 5.71325 10.8893 5.7695 10.2524C5.78538 10.0723 5.85787 9.67952 5.90809 9.52248C5.55619 9.18926 5.22562 8.81675 4.87561 8.48292C4.57609 8.1972 4.36371 7.78741 4.66515 7.41262C4.73454 7.32688 4.828 7.26282 4.93407 7.22832C5.08671 7.17884 5.41768 7.1417 5.58598 7.12365C6.0052 7.07883 6.42442 7.03791 6.84405 6.99195C7.08772 6.47464 7.29202 5.87819 7.52463 5.35092C7.64788 5.07148 7.7639 5.00435 8.04087 4.90162Z" fill="var(--fill-0, #F4AA1B)"/>
</g>
</svg>
