<svg preserveAspectRatio="none" width="100%" height="100%" overflow="visible" style="display: block;" viewBox="0 0 50 36" fill="none" xmlns="http://www.w3.org/2000/svg">
<g id="no1">
<g id="Vector">
<path fill-rule="evenodd" clip-rule="evenodd" d="M19.0633 3.04597C21.5145 3.29439 32.5033 2.601 33.7098 3.39265C34.0365 3.60461 34.2637 3.94258 34.3377 4.3282C34.4916 5.16674 33.9847 5.95047 33.5682 6.61043C34.9221 6.44945 35.958 6.39512 37.2411 6.99422C38.3867 7.51867 39.2746 8.48957 39.702 9.6866C40.4952 11.8808 39.6389 14.0853 37.9237 15.5372C36.3722 16.8504 34.5595 17.4217 32.6981 18.0968C31.0299 20.3318 30.1823 20.9627 27.5331 21.7354C25.9838 22.1346 24.0973 21.7638 22.6014 21.8282C19.805 20.9207 18.9252 20.3874 17.245 18.0059C13.9557 17.2286 9.78892 15.0862 10.0077 11.088C10.069 9.82088 10.633 8.6322 11.5711 7.79109C13.0067 6.50174 14.5976 6.45631 16.4042 6.55965C14.3622 3.71309 16.6156 2.79779 19.0633 3.04597ZM33.7489 8.90047C33.6733 10.816 33.7257 12.7249 33.6131 14.6368C34.7179 14.3694 35.2205 14.2748 36.2176 13.6905C38.7634 11.2386 36.9438 8.84449 33.7489 8.90047ZM16.1278 8.87898C15.8049 8.82687 15.7684 8.82278 15.4452 8.85262C14.483 9.03355 13.6704 9.25966 13.0633 10.1378C12.6972 10.6701 12.5557 11.3286 12.6698 11.9669C12.8065 12.7409 13.2408 13.3374 13.8807 13.7598C14.0064 13.8423 14.1342 13.9231 14.2626 14.0011C14.9321 14.3003 15.6416 14.4974 16.368 14.587C16.349 13.7788 16.3521 9.14784 16.1278 8.87898Z" fill="var(--fill-0, #D3D1CD)"/>
<path d="M24.4523 7.85447C26.1367 7.75817 28.0683 8.38705 27.7686 10.519C27.5365 12.1697 26.174 13.3632 24.9367 14.3218C25.3209 14.2737 25.7055 14.2301 26.0906 14.1911C26.7078 14.1318 27.3423 14.0786 27.8414 14.4939C28.6093 15.7989 27.0102 16.0146 26.1657 15.9037C25.7531 15.8496 25.0351 15.8991 24.5901 15.8957L24.4926 15.8967C23.7464 15.9028 23.1459 16.0086 22.6096 15.4734C21.8343 13.7882 26.8566 11.6277 25.5893 9.83986C24.9426 8.92746 23.2507 10.8235 22.6222 9.99919C22.4315 9.74914 22.3877 9.36854 22.4384 9.08111C22.9098 8.29359 23.6289 8.08475 24.4523 7.85447Z" fill="#F5F2E8"/>
<path d="M18.3403 6.58534C18.9217 6.50862 19.2757 6.54874 19.8637 6.58945C19.885 7.84291 19.9774 12.6044 19.7346 13.5229C19.2559 13.586 18.9526 13.6247 18.5536 13.3607C18.009 12.642 18.2765 7.70502 18.3403 6.58534Z" fill="#F5F2E8"/>
<path d="M22.6014 21.8282C24.0973 21.7638 25.9838 22.1346 27.5331 21.7354C27.8049 22.788 28.1273 23.2794 28.9262 23.9936C30.3394 24.0556 31.1843 23.9646 31.2291 25.7551C33.3186 26.3985 32.7934 28.1747 32.7189 30.0369C32.7756 30.0671 32.8317 30.0987 32.8891 30.1276C33.2358 30.3024 33.5117 30.4559 33.7613 30.7685C33.9101 30.9549 34.0201 31.1939 33.9747 31.4365C33.8973 31.85 33.7102 32.5087 33.3212 32.7203C32.649 33.0863 17.6838 33.0909 16.7895 32.7473C16.4966 32.6347 16.2038 32.4236 16.0764 32.1242C15.9398 31.8029 16.0077 31.4482 16.1307 31.1345C16.3794 30.4999 16.6981 30.3312 17.2802 30.0756C17.1481 28.4055 16.703 26.3471 18.6605 25.7846C18.8204 24.037 19.5821 24.067 21.0137 23.9991C21.8509 23.2132 22.1112 22.8698 22.6014 21.8282Z" fill="#55453D"/>
<path d="M22.6014 21.8282C24.0973 21.7638 25.9828 22.1352 27.5321 21.736C27.8039 22.7886 28.1262 23.2794 28.9252 23.9936C30.3384 24.0556 31.1832 23.9646 31.228 25.7551C27.2981 25.7274 22.5143 25.6335 18.6594 25.7846C18.8193 24.037 19.5811 24.067 21.0126 23.9991C21.8498 23.2132 22.1112 22.8698 22.6014 21.8282Z" fill="var(--fill-0, #D3D1CD)"/>
<path d="M22.6014 21.8282C24.0973 21.7638 25.9828 22.1352 27.5321 21.736C27.8039 22.7886 28.1262 23.2794 28.9252 23.9936C27.9664 24.1213 21.8966 24.1728 21.0126 23.9991C21.8498 23.2132 22.1112 22.8698 22.6014 21.8282Z" fill="#BEBAB6"/>
<path d="M20.2026 27.7267C21.4343 27.6555 29.141 27.5673 29.8451 27.879C30.2445 28.4042 30.1162 29.6187 29.7121 30.0993C28.4634 30.1707 21.0116 30.2748 20.225 30.0013C19.6982 29.4258 19.8045 28.3453 20.2026 27.7267Z" fill="var(--fill-0, #D3D1CD)"/>
</g>
</g>
</svg>
