<svg preserveAspectRatio="none" width="100%" height="100%" overflow="visible" style="display: block;" viewBox="0 0 50 36" fill="none" xmlns="http://www.w3.org/2000/svg">
<g id="no1">
<g id="Vector">
<path d="M22.5274 23.6106C22.6547 23.6205 22.7778 23.6296 22.8971 23.638C23.0506 23.6488 23.1981 23.6584 23.3406 23.6668C24.8582 23.7566 25.8068 23.7154 27.5359 23.636C27.9707 24.7078 28.1069 25.1286 29.1592 25.7192C30.7649 25.9034 31.2133 25.7188 31.1458 27.4964C33.3442 27.5518 32.8508 30.168 32.8228 31.723C33.2056 31.9211 33.7345 32.0833 33.872 32.5538C34.0905 33.0307 33.8244 34.343 33.1308 34.3777C28.3251 34.6152 23.4792 34.4239 18.6614 34.477C17.6017 34.4888 16.317 34.6606 16.0572 33.3356C15.8105 32.0781 17.1157 31.8769 17.1718 31.6954C17.6454 30.1611 16.2218 27.7967 18.8211 27.4823C18.7273 25.492 19.6424 26.0942 20.9254 25.6894C21.9383 24.9865 22.1097 24.7402 22.5274 23.6106Z" fill="#55453D"/>
<path d="M22.5274 23.6106C22.6547 23.6205 22.7778 23.6296 22.8971 23.638C23.0506 23.6488 23.1981 23.6584 23.3406 23.6668C24.8582 23.7566 25.8068 23.7154 27.5359 23.636C27.9707 24.7078 28.1069 25.1286 29.1592 25.7192C30.7649 25.9034 31.2133 25.7188 31.1458 27.4964L18.8211 27.4823C18.7273 25.492 19.6424 26.0942 20.9254 25.6894C21.9383 24.9865 22.1097 24.7402 22.5274 23.6106Z" fill="#F4B813"/>
<path d="M22.5274 23.6106C22.6547 23.6205 22.7778 23.6296 22.8971 23.638C23.0506 23.6488 23.1981 23.6584 23.3406 23.6668C24.8588 23.7567 25.8084 23.7159 27.5371 23.6365C27.9719 24.7083 28.1069 25.1286 29.1592 25.7192C28.4143 25.8602 21.5029 25.9034 20.9254 25.6894C21.9383 24.9865 22.1097 24.7402 22.5274 23.6106Z" fill="#F1AD6C"/>
<path d="M20.7639 29.2871C21.986 29.241 29.051 29.0765 29.7131 29.4404C29.8967 29.5413 30.0221 29.7812 30.0823 29.9725C30.2159 30.3966 30.2099 31.0839 29.9572 31.4696C29.8002 31.7093 29.6128 31.7145 29.357 31.7668C26.6201 31.77 23.1113 31.8538 20.3218 31.6757C19.7178 31.6371 19.8529 30.0972 20.0485 29.6004C20.3351 29.3547 20.3781 29.3647 20.7639 29.2871Z" fill="#F5C964"/>
<path fill-rule="evenodd" clip-rule="evenodd" d="M22.5292 23.6112C22.6558 23.621 22.7783 23.6297 22.8971 23.638C23.0506 23.6488 23.1981 23.6584 23.3406 23.6668C24.8588 23.7567 25.8084 23.7159 27.5371 23.6365L27.5359 23.636C25.8068 23.7154 24.8582 23.7566 23.3406 23.6668C23.1981 23.6584 23.0506 23.6488 22.8971 23.638C22.7778 23.6296 22.6547 23.6205 22.5274 23.6106L22.5292 23.6112Z" fill="var(--fill-0, #F5F2E8)"/>
<path fill-rule="evenodd" clip-rule="evenodd" d="M33.6035 5.41193C32.6851 5.03221 19.4597 5.11171 17.6738 5.20197C17.2746 5.22218 16.7678 5.23943 16.3984 5.4051C16.0222 5.57407 15.7468 6.06222 15.6259 6.4344C15.3429 7.30587 15.9254 7.79115 16.2519 8.49787C16.2718 8.54096 16.2912 8.58547 16.3105 8.62873C14.3766 8.62796 12.8805 8.53758 11.3808 10.0174C10.4798 10.9234 9.98216 12.1515 10.0009 13.4256C10.0096 14.8373 10.5907 16.1875 11.6122 17.1678C13.0909 18.5835 15.1251 19.307 17.0615 19.8367L17.1054 19.8846C17.4834 20.3003 17.7696 20.7756 18.1474 21.1922C19.4176 22.5922 20.7089 23.015 22.4086 23.5716L22.5274 23.6106C22.6547 23.6205 22.7778 23.6296 22.8971 23.638C23.0506 23.6488 23.1981 23.6584 23.3406 23.6668C24.8582 23.7566 25.8068 23.7154 27.5359 23.636L27.5371 23.6365C27.9682 23.3737 29.3549 22.9324 29.954 22.6571C31.4345 21.9766 31.7868 20.8312 32.8652 19.9197C34.8982 19.2173 36.9924 18.5675 38.5497 16.9656C40.4673 15.0043 40.536 11.6892 38.4394 9.82795C36.9205 8.48002 35.5464 8.59236 33.6581 8.69123C33.7043 8.42752 33.9175 8.17432 34.0478 7.94123C34.3087 7.47384 34.551 6.82202 34.373 6.29475C34.2537 5.94219 33.9544 5.55758 33.6035 5.41193ZM23.4814 11.7606C23.938 11.0778 24.3453 10.0142 24.954 9.5467C25.8375 9.91702 26.1167 10.8516 26.54 11.7244C27.329 11.9888 28.9775 12.131 29.1503 12.9793C28.9567 13.6726 28.1103 14.4038 27.579 14.9403C28.1939 17.7994 27.7044 18.2072 25.1845 16.8699C24.7158 16.846 23.6686 17.5419 22.871 17.6932C21.9307 17.4543 22.4379 15.7085 22.5693 14.952C22.0513 14.4101 20.9819 13.4885 21.0371 12.7498C21.4269 12.2207 22.7729 11.9841 23.4814 11.7606ZM33.6054 16.6102C33.63 15.8479 33.6294 11.3299 33.8242 10.9617L34.0839 10.8992C38.6341 11.2059 38.6138 15.646 33.6054 16.6102ZM16.3525 16.5145C11.9507 16.1381 11.0704 11.6248 15.4687 10.9071C15.742 10.9232 16.0383 10.9004 16.2343 11.0682C16.4122 12.1212 16.2567 15.147 16.3525 16.5145Z" fill="url(#paint0_linear_0_21)"/>
<path d="M37.3521 1.5C37.8206 1.69641 38.1273 2.60783 38.356 3.11066C38.8541 3.31732 39.5054 3.42481 39.7586 3.872C39.5289 4.37648 38.5625 4.77104 38.1854 5.25713C37.941 5.57225 37.7385 6.01412 37.563 6.37269L37.431 6.3785C37.1749 6.17502 36.7818 5.26448 36.6124 4.91539C36.0354 4.62455 35.4654 4.32007 34.9028 4.00243C35.4727 3.58842 35.9121 3.3627 36.5283 3.03461C36.8107 2.54126 37.0844 2.00467 37.3521 1.5Z" fill="white"/>
<path d="M12.5198 22.0273C12.8807 22.2661 13.0739 22.7949 13.2797 23.2076C13.6534 23.4352 14.332 23.751 14.7439 23.9572C13.464 24.5519 13.2766 24.6875 12.6218 25.916C11.9813 25.5542 12.5215 24.833 10.4819 24.0164C11.5973 23.3259 11.8932 23.1921 12.5198 22.0273Z" fill="white"/>
<path d="M24.954 9.5467C24.3453 10.0142 23.938 11.0778 23.4814 11.7606C22.7729 11.9841 21.4269 12.2207 21.0371 12.7498C20.9819 13.4885 22.0513 14.4101 22.5693 14.952C22.4379 15.7085 21.9307 17.4543 22.871 17.6932C23.6686 17.5419 24.7158 16.846 25.1845 16.8699C27.7044 18.2072 28.1939 17.7994 27.579 14.9403C28.1103 14.4038 28.9567 13.6726 29.1503 12.9793C28.9775 12.131 27.329 11.9888 26.54 11.7244C26.1167 10.8516 25.8375 9.91702 24.954 9.5467Z" fill="white"/>
</g>
</g>
<defs>
<linearGradient id="paint0_linear_0_21" x1="25.0002" y1="1.5" x2="25.0002" y2="34.5" gradientUnits="userSpaceOnUse">
<stop stop-color="#FFC400"/>
<stop offset="1" stop-color="#FFD54A"/>
</linearGradient>
</defs>
</svg>
