<svg preserveAspectRatio="none" width="100%" height="100%" overflow="visible" style="display: block;" viewBox="0 0 50 36" fill="none" xmlns="http://www.w3.org/2000/svg">
<g id="no1">
<g id="Vector">
<path d="M23.2327 8.64111C23.2628 8.63928 23.2926 8.63746 23.322 8.63566C24.6848 8.5524 25.4639 8.5048 26.7642 8.98731C27.9176 10.2866 27.5445 10.775 27.2026 11.2228C26.9483 11.5558 26.7111 11.8663 27.1317 12.4712C28.2478 14.0752 27.1133 15.278 25.4629 15.4726C24.6717 15.566 23.2366 15.569 22.6073 15.064C22.7906 13.8579 23.5468 13.9506 24.3094 14.0441C24.9144 14.1182 25.5234 14.1929 25.8537 13.62C25.8699 12.8029 25.2085 12.6789 24.6159 12.5677C24.1052 12.472 23.6455 12.3858 23.7147 11.8736C24.0531 11.3825 24.4663 11.3571 24.8346 11.3344C25.2474 11.3091 25.6037 11.2872 25.7354 10.6175C25.4857 9.83412 24.9085 9.90439 24.2784 9.98109C23.7632 10.0438 23.2127 10.1108 22.777 9.71912C22.5288 9.13053 22.6665 8.88754 23.2327 8.64111Z" fill="#F5F2E8"/>
<path d="M18.9158 6.4521C19.2105 6.4751 19.4413 6.50901 19.7341 6.55462C20.0347 7.04137 19.8932 11.9242 19.8573 12.8145C19.8379 13.2906 19.7254 13.411 19.3666 13.6414C18.6171 13.6119 18.3388 13.4868 18.3175 12.6423C18.308 12.2708 18.2933 11.8917 18.2784 11.5084C18.2177 9.93969 18.1541 8.2991 18.43 6.80831C18.4697 6.59281 18.629 6.54332 18.801 6.48992C18.839 6.47811 18.8777 6.46612 18.9158 6.4521Z" fill="var(--fill-0, #F1AD6C)"/>
<path d="M22.4282 22.0457L22.5248 21.9285C23.1735 21.887 24.0493 22.0192 24.7348 22.0232C25.6831 22.0288 26.5638 21.9562 27.5092 21.8855C27.8981 22.8191 28.1008 23.3686 28.9367 23.9821C30.2961 24.2428 31.4025 23.8413 31.0389 25.7807C33.3214 26.0026 32.8385 28.4733 32.8172 30.1758C33.0684 30.2993 33.688 30.5767 33.782 30.8044C34.2155 31.8062 33.7296 32.9677 32.5234 32.9796C27.9321 33.0249 23.334 32.9787 18.7408 32.9884C17.5792 32.9909 15.4643 33.0984 16.0888 31.2435C16.3225 30.5488 16.6493 30.4108 17.2456 30.1102C17.1399 28.2892 16.6764 26.046 18.9658 25.8006C18.8872 25.3189 18.8484 25.0026 19.022 24.5458C19.501 23.9564 20.2699 24.2876 20.9884 23.9735C21.8708 23.3026 22.0432 23.0692 22.4282 22.0457Z" fill="#55453D"/>
<path d="M22.4282 22.0457L22.5248 21.9285C23.1735 21.887 24.0493 22.0192 24.7348 22.0232C25.6831 22.0288 26.5638 21.9562 27.5092 21.8855C27.8981 22.8191 28.1008 23.3686 28.9367 23.9821C30.2961 24.2428 31.4025 23.8413 31.0389 25.7807C30.459 25.8529 27.5677 25.8129 26.8172 25.8055C24.2389 25.7806 21.5285 25.868 18.9658 25.8006C18.8872 25.3189 18.8484 25.0026 19.022 24.5458C19.501 23.9564 20.2699 24.2876 20.9884 23.9735C21.8708 23.3026 22.0432 23.0692 22.4282 22.0457Z" fill="#D98949"/>
<path d="M22.4282 22.0457L22.5248 21.9285C23.1735 21.887 24.0493 22.0192 24.7348 22.0232C25.6831 22.0288 26.5638 21.9562 27.5092 21.8855C27.8981 22.8191 28.1008 23.3686 28.9367 23.9821C27.905 24.1222 21.579 24.2773 20.9884 23.9735C21.8708 23.3026 22.0432 23.0692 22.4282 22.0457Z" fill="#CB7B37"/>
<path d="M20.2226 27.785C21.328 27.6959 29.0552 27.6087 29.8357 27.9C30.2992 28.3794 30.1751 29.6272 29.7834 30.1154C28.7265 30.2702 20.8801 30.3083 20.1538 30.028C19.7252 29.5215 19.8309 28.2713 20.2226 27.785Z" fill="var(--fill-0, #F1AD6C)"/>
<path fill-rule="evenodd" clip-rule="evenodd" d="M23.322 8.63566C24.6848 8.5524 25.4639 8.5048 26.7642 8.98731C27.9176 10.2866 27.5445 10.775 27.2026 11.2228C26.9483 11.5558 26.7111 11.8663 27.1317 12.4712C28.2478 14.0752 27.1133 15.278 25.4629 15.4726C24.6717 15.566 23.2366 15.569 22.6073 15.064C22.7906 13.8579 23.5468 13.9506 24.3094 14.0441C24.9144 14.1182 25.5234 14.1929 25.8537 13.62C25.8699 12.8029 25.2085 12.6789 24.6159 12.5677C24.1052 12.472 23.6455 12.3858 23.7147 11.8736C24.0531 11.3825 24.4663 11.3571 24.8346 11.3344C25.2474 11.3091 25.6037 11.2872 25.7354 10.6175C25.4857 9.83412 24.9085 9.90439 24.2784 9.98109C23.7632 10.0438 23.2127 10.1108 22.777 9.71912C22.5288 9.13053 22.6665 8.88754 23.2327 8.64111C23.2628 8.63928 23.2926 8.63746 23.322 8.63566ZM18.9158 6.4521C19.2105 6.4751 19.4413 6.50901 19.7341 6.55462C20.0347 7.04137 19.8932 11.9242 19.8573 12.8145C19.8379 13.2906 19.7254 13.411 19.3666 13.6414C18.6171 13.6119 18.3388 13.4868 18.3175 12.6423C18.308 12.2708 18.2933 11.8917 18.2784 11.5084C18.2177 9.93969 18.1541 8.2991 18.43 6.80831C18.4697 6.59281 18.629 6.54332 18.801 6.48992C18.839 6.47811 18.8777 6.46612 18.9158 6.4521Z" fill="var(--fill-0, #F1AD6C)"/>
<path fill-rule="evenodd" clip-rule="evenodd" d="M33.9096 6.10328C35.8728 2.30002 31.4494 3.06127 29.2319 3.06421L19.1928 3.07007C18.1855 3.06314 16.78 2.84486 16.0053 3.62183C15.0619 4.56988 15.5168 5.51063 16.3041 6.36304L16.3666 6.42847L16.2993 6.55054L16.0395 6.57203C13.0134 6.33047 10.2527 7.67506 10.0151 11.0418C9.90745 12.4669 10.3792 13.8748 11.3207 14.9392C12.7829 16.6185 14.9838 17.355 17.0161 17.9988C17.4087 18.1406 17.9151 19.2571 18.395 19.7117C19.4558 20.7167 20.9272 21.3485 22.2924 21.8425C22.338 21.9102 22.3826 21.978 22.4282 22.0457L22.5248 21.9285C23.1735 21.887 24.0493 22.0192 24.7348 22.0232C25.6831 22.0288 26.5638 21.9562 27.5092 21.8855C27.7267 21.7655 28.2249 21.6273 28.4506 21.5496C30.3772 20.8888 31.7361 19.8478 32.7358 18.0603C32.7599 18.0409 32.7839 18.0211 32.8081 18.0017C43.2335 15.5525 41.1655 5.78403 33.9594 6.58472L33.8051 6.55054L33.7397 6.43726L33.9096 6.10328ZM13.3823 9.70093C14.2054 8.94358 15.0979 8.8599 16.1411 8.90796C16.3136 9.47672 16.3151 13.7005 16.3393 14.6218C14.6434 14.4209 12.6019 13.5532 12.5922 11.4988C12.5913 10.8133 12.8791 10.1595 13.3823 9.70093ZM33.7534 9.02906C33.9666 8.8287 34.0521 8.88479 34.4125 8.8357C35.2872 9.02983 36.4695 9.30248 36.9184 10.1472C38.355 12.8471 35.8043 14.4389 33.6479 14.6169C33.8156 12.9752 33.5468 10.5281 33.7534 9.02906ZM25.4629 15.4726C27.1133 15.278 28.2478 14.0752 27.1317 12.4712C26.7111 11.8663 26.9483 11.5558 27.2026 11.2228C27.5445 10.775 27.9176 10.2866 26.7642 8.98731C25.4639 8.5048 24.6848 8.5524 23.322 8.63566L23.2327 8.64111C22.6665 8.88754 22.5288 9.13053 22.777 9.71912C23.2127 10.1108 23.7632 10.0438 24.2784 9.98109C24.9085 9.90439 25.4857 9.83412 25.7354 10.6175C25.6037 11.2872 25.2474 11.3091 24.8346 11.3344C24.4663 11.3571 24.0531 11.3825 23.7147 11.8736C23.6455 12.3858 24.1052 12.472 24.6159 12.5677C25.2085 12.6789 25.8699 12.8029 25.8537 13.62C25.5234 14.1929 24.9144 14.1182 24.3094 14.0441C23.5468 13.9506 22.7906 13.8579 22.6073 15.064C23.2366 15.569 24.6717 15.566 25.4629 15.4726ZM19.7341 6.55462C19.4413 6.50901 19.2105 6.4751 18.9158 6.4521C18.8777 6.46612 18.839 6.47811 18.801 6.48992C18.629 6.54332 18.4697 6.59281 18.43 6.80831C18.1541 8.2991 18.2177 9.93969 18.2784 11.5084C18.2933 11.8917 18.308 12.2708 18.3175 12.6423C18.3388 13.4868 18.6171 13.6119 19.3666 13.6414C19.7254 13.411 19.8379 13.2906 19.8573 12.8145C19.8932 11.9242 20.0347 7.04137 19.7341 6.55462Z" fill="#D98949"/>
</g>
</g>
</svg>
