<svg width="1254" height="1254" viewBox="0 0 1254 1254" fill="none" xmlns="http://www.w3.org/2000/svg">
<path d="M1025.85 103L1041.68 103.04C1041.69 108.649 1041.59 114.573 1041.81 120.153C1052.67 120.051 1063.53 120.042 1074.4 120.125C1074.51 125.35 1074.63 130.252 1074.44 135.489L1089.73 135.518C1089.88 140.605 1089.95 145.695 1089.91 150.785L1104.84 150.774C1105.04 156.057 1105.29 161.361 1105.23 166.645L1119.66 166.743L1119.78 183.723C1124.19 183.753 1128.79 183.71 1133.17 183.85C1133.44 194.868 1133.4 205.89 1133.05 216.906C1138 216.893 1143.21 216.793 1148.13 216.906L1148.41 729.037L1148.43 926.107C1148.41 957.212 1149.16 991.912 1148.26 1022.67L1148.14 1045.51L1132.97 1045.39C1132.9 1047.78 1132.92 1051.95 1132.48 1054.15L1132.24 1055.85L1132.26 1059.85C1132.28 1064.21 1132.19 1068.57 1132 1072.92L1120.08 1073.01C1120.06 1076.88 1120.22 1081.14 1119.59 1084.92L1118.98 1086.46C1118.6 1090.31 1118.45 1093.25 1118.36 1097.11C1114.28 1097.12 1108.52 1096.95 1104.68 1097.63C1104.51 1102.21 1104.56 1106.39 1104.65 1110.98L1089.54 1110.99L1089.55 1125.06L1074.42 1125.02C1074.44 1128.9 1074.56 1133.38 1074.4 1137.19L1036.8 1137.18L1036.75 1151.59L217.535 1151.75L217.388 1137.27L179.898 1137.2C179.779 1133.15 179.622 1129.09 179.65 1125.03L164.776 1125.11C164.783 1120.86 164.626 1115.41 164.812 1111.27C161.033 1110.7 153.585 1110.96 149.494 1110.99L149.623 1098.4L149.526 1097.2C146.691 1096.65 138.769 1096.91 135.474 1096.94C135.539 1093.39 135.477 1089.85 135.29 1086.3C134.802 1083.48 134.829 1076.15 134.767 1072.93L122.504 1072.82C122.583 1067.15 122.334 1061.67 122.111 1056.02L121.908 1055.08C121.172 1052.93 121.441 1047.9 121.455 1045.4L106.543 1045.51L106.332 1022.65C105.672 1016.12 106.195 1000.31 106.229 993.112L106.259 940.08L106.362 756.964L106.474 362.701C106.545 314.274 105.868 265.243 106.405 216.927L121.855 216.917L121.957 183.897L134.849 183.83L134.886 166.776L149.447 166.55L149.438 150.789L164.652 150.733L164.629 135.541L179.982 135.514C179.901 130.411 179.919 125.262 179.901 120.154C190.879 120.096 201.858 120.113 212.836 120.208C212.594 114.691 212.739 108.622 212.759 103.059L1025.85 103Z" fill="#1D232A"/>
<path d="M216.287 139.946C254.067 140.704 292.979 140.26 330.834 140.297L555.092 140.256L1040.89 140.025C1040.72 144.494 1040.77 147.731 1040.97 152.209C1051.68 152.573 1062.39 152.681 1073.1 152.534C1073.28 157.833 1073.24 162.674 1073.15 167.97L1088.1 168.09L1088.16 183.914L1102.26 183.895C1102.19 178.943 1101.9 172.762 1102.61 167.965C1103.17 172.392 1102.93 179.805 1102.91 184.472C1106.04 184.45 1113.98 184.154 1116.56 184.893L1116.79 185.556C1117.24 195.844 1116.89 207.544 1116.81 217.936L1131.61 217.918C1130.85 269.406 1130.69 320.901 1131.1 372.392L1131.12 629.194L1131.1 870.491C1131.1 910.94 1130.17 955.467 1131.18 995.561C1124.64 995.603 1109.71 996.161 1103.98 995.444C1104.07 1006.51 1104.92 1015.74 1102.12 1026.51L1088.75 1026.38C1088.71 1029.3 1089.02 1037.9 1087.62 1039.75C1086.27 1043.34 1086.38 1043.48 1081.84 1043.52C1078.23 1043.56 1076.11 1041.54 1073.44 1044.72C1073.17 1046.96 1073.21 1047.35 1073.35 1049.65C1073.27 1052.14 1073.37 1053.49 1072.67 1055.85C1071.94 1058.6 1072.16 1066.39 1072.17 1069.67L1057.14 1069.32V1078.56L1024.37 1078.52L1024.37 1095.44C1015.63 1094.92 1001.3 1095.36 992.179 1095.34L922.719 1095.37L738.005 1095.45L457.945 1095.49C382.211 1095.34 304.826 1094.67 229.173 1095.54L229.158 1078.72C218.078 1078.53 206.995 1078.58 195.918 1078.88C195.767 1075.96 195.76 1072.6 195.69 1069.65C191.028 1069.77 186.075 1069.53 181.389 1069.38C181.349 1065.2 181.681 1060.65 180.892 1056.64L179.49 1055.8C175.449 1055.63 170.758 1056.15 167.29 1054.7C165.611 1052.84 166.196 1052.95 166.112 1049.63L165.769 1039.36L151.5 1039.34C151.594 1033.99 151.576 1028.65 151.446 1023.31C135.72 1023.54 138.711 1022.24 138.579 1007.49L138.632 1006.99C139.798 1006.36 139.288 1006.8 140.108 1005.61C140.2 997.912 143.545 993.32 143.502 986.756L143.494 979.69C142.712 943.521 143.442 904.456 143.436 867.956L143.443 645.965L142.901 217.232L151.295 216.998C151.258 213.703 151.105 205.825 151.609 202.888C153.019 194.675 154.027 192.947 153.789 184.338L167.542 183.899C167.383 178.741 167.452 173.948 167.548 168.783C171.993 168.827 177.2 168.279 181.695 167.916C181.871 163.276 181.826 158.273 181.873 153.602C186.432 153.696 213.262 152.634 215.786 150.896C216.665 147.674 216.336 143.393 216.287 139.946Z" fill="#E4E7ED"/>
<path d="M1116.08 196.532C1116.12 192.768 1116.02 189.243 1116.79 185.557C1117.24 195.844 1116.89 207.544 1116.81 217.937L1131.61 217.918C1130.85 269.406 1130.69 320.901 1131.1 372.393L1131.12 629.195L1131.1 870.492C1131.1 910.941 1130.17 955.467 1131.18 995.561C1124.64 995.604 1109.71 996.161 1103.98 995.445C1108.18 995.09 1109.72 995.2 1113.88 995.524C1114.96 994.159 1113.98 988.079 1113.93 985.862C1113.85 982.666 1113.73 979.537 1113.75 976.316L1113.83 857.492L1113.84 468.593L1113.86 305.428C1113.72 280.811 1113.77 256.193 1114.03 231.576L1103.74 231.014C1104.02 218.508 1102.33 211.104 1103.27 196.84C1107.35 196.578 1111.95 196.6 1116.08 196.532Z" fill="#D2E4F8"/>
<path d="M166.112 1049.63C168.752 1049.63 176.04 1049 177.455 1049.87C179.702 1052.47 178.369 1053.09 179.49 1055.8C175.449 1055.63 170.758 1056.15 167.29 1054.7C165.611 1052.84 166.196 1052.95 166.112 1049.63Z" fill="#D2E4F8"/>
<path d="M143.495 979.69C145.24 990.479 142.195 995.414 142.68 1005.91C142.714 1006.64 142.658 1006.52 142.33 1007.28L138.58 1007.49L138.632 1006.99C139.798 1006.36 139.288 1006.8 140.109 1005.61C140.2 997.912 143.545 993.32 143.502 986.756L143.495 979.69Z" fill="#EEEFF2"/>
<path d="M228.324 162.997C233.99 162.202 248.068 162.591 254.364 162.617L303.103 162.787L482.03 162.781L837.039 162.787L955.569 162.745C977.955 162.735 1001.46 162.267 1023.69 162.978L1024.66 163.034C1025.18 163.669 1025.71 164.304 1026.25 164.938C1029.73 165.607 1034.78 166.282 1038.05 167.01C1038.13 170.562 1037.57 176.134 1039.63 178.473L1039.85 180.744C1043.66 180.501 1047.46 180.211 1051.28 180.154C1051.35 184.401 1051.34 188.943 1051.71 193.146L1055.55 193.133C1057.95 196.692 1058.91 196.08 1063.21 196.205C1063.31 199.075 1063.54 202.495 1063.44 205.316L1071.69 205.07C1071.58 208.1 1071.08 213.633 1072.35 216.172L1074.29 217.046C1078.34 216.845 1081.35 216.872 1085.39 216.993C1085.45 219.974 1085.27 228.137 1086.52 230.285C1087.56 234.41 1087.36 252.647 1087.37 258.026L1087.31 311.26L1087.18 512.25L1087 848.277L1087.02 947.22C1087.01 957.739 1087.7 981.515 1086.82 991.146C1085.56 992.604 1085.38 992.206 1083.03 992.72C1079.92 992.512 1075.91 992.016 1072.94 992.591C1072.73 993.002 1072.45 993.381 1072.35 993.834L1072.24 1007.5C1068.14 1007.5 1060.7 1007.27 1056.93 1007.92C1061.2 1008.47 1067.85 1008.27 1072.32 1008.15C1072.32 1013.15 1072.37 1018.21 1072.13 1023.19C1067.46 1023.34 1062.53 1023.56 1057.88 1023.56C1057.73 1028.61 1057.44 1034.14 1057.53 1039.16C1051.82 1039.74 1047.97 1039.86 1042.2 1039.89L1042.3 1055.65L1025.22 1055.87C1025.29 1050.91 1025.56 1044.8 1024.99 1039.97C1024.47 1044.26 1025.19 1053.78 1023.95 1056.22L1024.83 1057.09C1025.32 1063.02 1025.04 1070.43 1024.55 1076.36C970.313 1077.47 913.479 1076.53 858.99 1076.54L539.199 1076.56L335.454 1076.53L269.612 1076.54C256.685 1076.55 241.837 1076.94 229.117 1076.21C228.763 1069.62 228.719 1062.96 228.613 1056.36C228.141 1051.16 228.712 1045.48 228.13 1039.95C227.429 1043.96 227.772 1051.47 227.851 1055.8C223.034 1055.81 217.7 1055.38 212.85 1055.1L212.611 1039.94L196.85 1039.53C196.842 1034.18 196.695 1028.72 196.607 1023.37L196.242 1023.05L181.282 1022.87L181.078 1008.22C185.911 1008.27 190.743 1008.26 195.575 1008.21L195.554 1007.65C191.912 1007.62 184.126 1007.88 181.067 1007.12L180.453 1005.76C180.086 1006.74 180.36 1006.21 179.5 1007.26C175.525 1007.86 170.201 1007.55 166.062 1007.45C166.17 1003.17 166.496 996.835 166.084 992.769C164.135 989.34 165.304 880.044 165.294 867.375L165.327 422.607L165.409 286.316C165.454 275.02 165.422 263.725 165.315 252.429C165.277 246.46 165.002 235.709 165.735 230.067C166.21 226.162 166.16 221.182 166.227 217.161C170.197 217.053 174.214 217.026 178.188 216.97L180.093 216.122C181.405 213.713 180.866 208.294 180.752 205.358L189.203 205.179C189.182 202.612 188.972 200.297 189.676 197.853C191.205 195.963 195.029 195.364 197.661 193.737L198.591 193.152C199.773 192.907 201.869 192.776 203.143 192.653L203.451 179.9C207.493 180.078 211.379 180.87 214.186 178.418C215.565 175.686 214.203 170.405 216.648 166.895C219.658 162.578 223.607 164.355 228.324 162.997Z" fill="#6888B0"/>
<path d="M1023.83 183.212C1023.82 185.595 1023.58 193.232 1024.5 195.01L1038.98 194.883C1038.93 199.183 1038.3 205.582 1040.29 208.789C1040.33 209.047 1040.37 209.305 1040.4 209.563C1040.24 212.069 1040.04 214.573 1039.81 217.073C1043.83 217.096 1051.34 216.923 1055.03 217.535L1055.9 217.701C1057.14 222.161 1055.74 227.715 1056.74 231.623C1057.27 236.099 1057.14 240.46 1057.13 244.964C1059.19 244.982 1069.24 245.237 1070.96 244.999L1070.79 990.969L1055.69 990.993C1055.66 996.259 1055.58 1001.6 1055.61 1006.86L1039.79 1006.94L1039.79 1022.83L1023.93 1022.82L1023.96 1039.54L228.716 1039.57C228.775 1034.15 228.963 1028.2 228.745 1022.83L213.278 1022.83L213.182 1006.95C210.007 1006.97 199.217 1007.37 196.881 1006.36C197.374 1002.05 197.112 995.628 197.061 991.14L189.097 990.969C188.91 987.258 187.838 982.715 190.723 980.014C192.445 979.659 192.015 979.947 193.389 979.065C194.016 972.948 193.777 965.068 193.8 958.786L193.849 924.472L193.846 819.854L193.755 463.393L193.641 273.423C193.639 269.151 193.384 255.885 193.854 252.105C195.035 242.593 197.962 242.753 196.324 231.588L196.553 231.307C196.793 227.165 196.667 221.788 196.689 217.552C201.507 216.909 208.179 217.023 213.172 216.962C215.039 217.108 214.98 217.15 216.785 216.72C218.387 214.7 217.871 210.594 217.839 207.785L229.113 207.746L229.261 194.871L229.517 194.571C234.925 194.906 245.832 194.423 251.892 194.413L303.172 194.374L463.952 194.371L829.704 194.396C894.026 194.402 959.194 193.831 1023.46 194.532C1023.35 190.135 1023.23 187.573 1023.83 183.212Z" fill="#D2E4F8"/>
<path d="M1024.5 195.01L1038.98 194.883C1038.93 199.182 1038.3 205.582 1040.29 208.789C1040.33 209.047 1040.37 209.305 1040.4 209.563L1038.94 209.95C1038.12 209.021 1038.36 209.337 1037.73 208.471L1037.35 207.932C1033.75 207.272 1028.76 207.655 1024.98 207.788C1024.97 203.19 1024.98 199.568 1024.5 195.01Z" fill="white"/>
<path d="M1055.03 217.535L1055.9 217.701C1055.89 222.221 1055.85 226.741 1055.77 231.259C1053.2 231.253 1046.8 231.548 1044.9 230.619C1044.63 220.058 1042.91 226.001 1039.99 217.733C1044.98 217.81 1050.08 218.004 1055.03 217.535Z" fill="#E4E7ED"/>
<path d="M196.689 217.552C201.459 217.88 210.131 216.886 213.013 219.043C213.508 220.785 213.539 219.912 212.646 221.726C209.857 222.265 208.153 222.003 205.364 221.816C205.462 224.815 205.475 228.676 205.771 231.592C203.077 231.656 199.028 231.959 196.553 231.307C196.793 227.165 196.667 221.788 196.689 217.552Z" fill="#EEEFF2"/>
<path d="M228.613 1056.36L727.602 1056.28L926.117 1056.31L986.974 1056.34C999.153 1056.36 1011.83 1056.68 1023.95 1056.22L1024.83 1057.09C1025.32 1063.02 1025.04 1070.43 1024.55 1076.36C970.313 1077.47 913.479 1076.53 858.99 1076.54L539.199 1076.56L335.454 1076.53L269.612 1076.54C256.685 1076.55 241.837 1076.94 229.117 1076.21C228.763 1069.62 228.719 1062.96 228.613 1056.36Z" fill="white"/>
<path d="M863.779 178.95C916.339 179.825 969.242 178.562 1021.83 178.98C1022.74 178.988 1023.02 179.189 1023.72 179.683C1023.97 181.414 1023.99 181.477 1023.83 183.212C1023.23 187.573 1023.35 190.135 1023.46 194.532C959.194 193.831 894.026 194.403 829.704 194.396L463.952 194.371L303.172 194.374L251.892 194.413C245.831 194.423 234.925 194.906 229.517 194.571C229.753 189.92 229.497 183.699 229.439 178.938C263.463 179.621 299.535 179.015 333.692 179.014L534.74 179.012L750.968 179.015C788.183 179.018 826.716 179.571 863.779 178.95Z" fill="#E4E7ED"/>
<path d="M181.102 231.574L196.324 231.588C197.962 242.753 195.035 242.593 193.854 252.105C193.384 255.885 193.639 269.151 193.641 273.423L193.755 463.393L193.846 819.854L193.849 924.472L193.8 958.786C193.777 965.068 194.016 972.948 193.389 979.065C192.015 979.947 192.445 979.659 190.724 980.014C187.838 982.715 188.91 987.258 189.097 990.969L181.172 990.981C181.488 981.411 180.967 969.973 180.954 960.139L180.955 888.861L180.966 665.351L181.022 372.194C181.019 326.187 182.044 277.236 181.102 231.574Z" fill="#E4E7ED"/>
<path d="M1056.93 1007.92C1061.2 1008.47 1067.85 1008.27 1072.32 1008.15C1072.32 1013.15 1072.37 1018.21 1072.13 1023.19C1067.46 1023.34 1062.53 1023.56 1057.88 1023.56C1057.73 1028.61 1057.44 1034.14 1057.53 1039.16C1051.82 1039.74 1047.97 1039.86 1042.2 1039.89L1042.3 1055.65L1025.22 1055.87C1025.29 1050.91 1025.56 1044.8 1024.99 1039.97C1030.35 1039.99 1035.89 1039.81 1041.26 1039.7C1041.63 1034.26 1041.61 1028.99 1041.64 1023.56L1056.93 1023.41V1007.92Z" fill="white"/>
<path d="M1024.66 163.034C1025.18 163.669 1025.71 164.303 1026.25 164.938C1029.73 165.607 1034.78 166.282 1038.05 167.01C1038.13 170.562 1037.57 176.134 1039.63 178.473L1039.85 180.744C1043.66 180.5 1047.46 180.21 1051.28 180.154C1051.35 184.401 1051.34 188.942 1051.71 193.146C1048.05 193.255 1042.54 193.9 1039.41 193.848L1038.98 194.883L1024.5 195.01C1023.58 193.232 1023.82 185.595 1023.83 183.212C1023.99 181.477 1023.97 181.413 1023.72 179.683C1023.02 179.188 1022.74 178.987 1021.83 178.98C969.242 178.561 916.339 179.824 863.778 178.95C867.128 178.29 877.206 178.419 881.168 178.413L913.24 178.433L1023.81 178.332C1023.93 173.038 1023.85 168.276 1023.69 162.978L1024.66 163.034Z" fill="#7293BC"/>
<path d="M1024.66 163.034C1025.18 163.669 1025.71 164.303 1026.25 164.938C1029.73 165.607 1034.78 166.282 1038.05 167.01C1038.13 170.562 1037.57 176.134 1039.63 178.473C1035.54 178.173 1028.78 178.418 1024.48 178.439C1024.51 173.303 1024.57 168.169 1024.66 163.034Z" fill="#D2E4F8"/>
<path d="M1039.85 180.745C1043.66 180.501 1047.46 180.211 1051.28 180.154C1051.35 184.401 1051.34 188.943 1051.71 193.146C1048.05 193.255 1042.54 193.901 1039.41 193.848C1040 191.457 1039.85 183.548 1039.85 180.745Z" fill="#D2E4F8"/>
<path d="M196.607 1023.37C201.365 1023.52 207.382 1024.06 211.915 1023.92C211.853 1030.17 212.42 1034.12 212.611 1039.94L196.85 1039.53C196.841 1034.18 196.694 1028.72 196.607 1023.37Z" fill="white"/>
<path d="M214.485 194.913L229.261 194.871L229.113 207.745L217.839 207.785C217.871 210.594 218.387 214.699 216.785 216.72C214.98 217.15 215.039 217.108 213.172 216.962C213.191 213.167 213.827 211.452 210.497 209.379L213.173 208.576C215.54 205.905 214.612 198.824 214.485 194.913Z" fill="#EEEFF2"/>
<path d="M212.611 1039.94L228.13 1039.95C227.429 1043.96 227.772 1051.47 227.85 1055.8C223.034 1055.81 217.7 1055.38 212.85 1055.1L212.611 1039.94Z" fill="white"/>
<path d="M195.576 1008.21C196.331 1013.27 195.756 1018.14 196.242 1023.05L181.282 1022.87L181.079 1008.22C185.911 1008.27 190.743 1008.26 195.576 1008.21Z" fill="white"/>
<path d="M166.084 992.769L180.255 992.548C180.307 996.871 180.283 1001.46 180.453 1005.76C180.086 1006.74 180.359 1006.21 179.5 1007.26C175.525 1007.86 170.201 1007.55 166.062 1007.45C166.17 1003.17 166.496 996.834 166.084 992.769Z" fill="#EEEFF2"/>
<path d="M1056.74 231.623L1071.07 231.679L1070.96 244.999C1069.24 245.237 1059.19 244.982 1057.13 244.964C1057.14 240.46 1057.27 236.098 1056.74 231.623Z" fill="#E4E7ED"/>
<path d="M214.186 178.417C215.565 175.686 214.203 170.404 216.648 166.895C219.658 162.578 223.606 164.355 228.324 162.997C228.283 168.318 228.303 173.199 228.508 178.512C224.367 178.468 218.162 178.201 214.186 178.417Z" fill="#D2E4F8"/>
<path d="M166.227 217.161C170.197 217.053 174.214 217.026 178.188 216.97L178.317 230.205L165.735 230.067C166.21 226.162 166.16 221.182 166.227 217.161Z" fill="#ACB0BA"/>
<path d="M1074.3 217.045C1078.34 216.845 1081.35 216.872 1085.39 216.993C1085.45 219.974 1085.27 228.137 1086.52 230.285C1082.81 230.004 1078.09 230.178 1074.28 230.219C1074.4 225.726 1074.57 221.539 1074.3 217.045Z" fill="#D2E4F8"/>
<path d="M203.451 179.899C207.493 180.078 211.38 180.87 214.186 178.417C212.973 182.789 213.338 188.355 213.381 193.001L203.144 192.653L203.451 179.899Z" fill="#D2E4F8"/>
<path d="M1055.31 205.558C1058.8 205.149 1059.94 205.103 1063.44 205.316L1071.69 205.07C1071.58 208.1 1071.08 213.632 1072.35 216.172L1074.29 217.045C1070.73 216.886 1066.78 216.946 1063.18 216.933L1063.26 206.02C1060.04 206.061 1058.51 206.189 1055.31 205.558Z" fill="#ACB0BA"/>
<path d="M189.203 205.179L189.697 205.461C189.102 209.123 189.363 213.191 189.432 216.942C185.704 216.944 181.909 216.912 178.188 216.969L180.093 216.121C181.405 213.712 180.866 208.294 180.752 205.358L189.203 205.179Z" fill="#ACB0BA"/>
<path d="M189.203 205.179C189.181 202.612 188.971 200.297 189.676 197.853C191.205 195.963 195.028 195.365 197.661 193.737L198.591 193.152L198.494 205.786C195.741 205.69 192.389 205.669 189.697 205.462L189.203 205.179Z" fill="#D2E4F8"/>
<path d="M1055.55 193.133C1057.95 196.692 1058.91 196.079 1063.21 196.204C1063.31 199.075 1063.54 202.495 1063.44 205.316C1059.94 205.103 1058.8 205.149 1055.31 205.558C1052.62 202.77 1053.27 196.11 1055.55 193.133Z" fill="#D2E4F8"/>
<path d="M1072.35 993.834C1072.45 993.381 1072.73 993.001 1072.94 992.591C1075.91 992.016 1079.92 992.512 1083.03 992.72L1086.03 992.995C1088.03 996.13 1086.88 1003.16 1087.02 1007.48L1072.76 1007.39C1072.81 1002.82 1073 998.359 1072.35 993.834Z" fill="white"/>
<path d="M213.274 120.702L571.278 120.879L1025.1 120.797L1041.1 120.76L1040.91 136.808L1073.35 136.83L1073.36 152.081L1088.16 152.112C1087.97 157.625 1088.05 162.383 1088.2 167.899L1102.61 167.965C1101.9 172.762 1102.19 178.943 1102.26 183.895L1088.16 183.914L1088.1 168.09L1073.15 167.97C1073.24 162.674 1073.28 157.833 1073.1 152.534C1062.39 152.681 1051.68 152.573 1040.97 152.209C1040.77 147.731 1040.72 144.494 1040.89 140.025L555.092 140.256L330.834 140.297C292.979 140.26 254.067 140.704 216.287 139.946C216.336 143.393 216.665 147.674 215.786 150.896C213.262 152.634 186.432 153.696 181.873 153.602C181.826 158.273 181.87 163.276 181.695 167.916C177.2 168.279 171.993 168.827 167.548 168.783C167.452 173.948 167.383 178.741 167.542 183.899L153.789 184.338C154.027 192.947 153.019 194.675 151.609 202.888C151.105 205.825 151.258 213.703 151.295 216.998L142.901 217.232L143.443 645.965L143.436 867.956C143.442 904.456 142.712 943.521 143.494 979.69L143.502 986.756C143.544 993.32 140.2 997.912 140.108 1005.61C139.288 1006.8 139.798 1006.36 138.632 1006.99C138.341 1004.45 138.403 998.641 138.364 995.836L123.848 995.922C124.756 934.869 123.919 871.379 123.921 810.185L123.929 437.386L123.915 287.538L124.036 252.161C124.057 246.977 124.385 234.066 123.334 229.518L123.203 217.855L137.908 217.727C137.959 206.626 137.9 195.525 137.73 184.425C142.121 184.314 146.512 184.224 150.904 184.158C151.084 178.921 150.977 173.147 150.988 167.866L165.781 167.827L165.715 152.099L180.888 151.996L180.845 136.779L213.308 136.787L213.274 120.702Z" fill="white"/>
<path d="M123.334 229.519C124.385 234.066 124.057 246.977 124.036 252.161L123.916 287.538L123.929 437.386L123.922 810.185C123.919 871.379 124.756 934.869 123.849 995.922L138.365 995.836C138.403 998.641 138.341 1004.45 138.632 1006.99L138.58 1007.49C138.711 1022.24 135.721 1023.54 151.447 1023.31C151.577 1028.65 151.594 1034 151.5 1039.34L165.77 1039.37L166.113 1049.63C166.197 1052.95 165.612 1052.84 167.291 1054.7C170.758 1056.15 175.449 1055.63 179.49 1055.8L180.892 1056.64C181.682 1060.65 181.35 1065.2 181.39 1069.38C186.075 1069.53 191.028 1069.77 195.691 1069.65C195.76 1072.6 195.768 1075.96 195.918 1078.88C206.996 1078.58 218.078 1078.53 229.158 1078.72L229.173 1095.54C304.826 1094.67 382.212 1095.34 457.946 1095.49L738.005 1095.45L922.719 1095.37L992.179 1095.34C1001.3 1095.36 1015.63 1094.92 1024.37 1095.44L1024.37 1078.52L1057.14 1078.56V1069.33L1072.17 1069.67C1072.16 1066.39 1071.94 1058.6 1072.67 1055.85C1073.37 1053.49 1073.27 1052.14 1073.35 1049.65C1073.21 1047.35 1073.17 1046.96 1073.44 1044.72C1076.11 1041.54 1078.23 1043.56 1081.84 1043.52C1086.38 1043.48 1086.27 1043.34 1087.62 1039.75C1089.02 1037.9 1088.71 1029.3 1088.75 1026.38L1102.12 1026.51C1104.92 1015.74 1104.07 1006.51 1103.98 995.444C1109.71 996.161 1124.64 995.604 1131.18 995.561C1131.69 1004.1 1131.12 1011.91 1131.09 1020.37L1116.71 1020.41L1116.43 1054.12C1111.93 1054.15 1107.29 1054.24 1102.8 1054.2L1102.65 1070.31C1097.66 1070.32 1092.53 1070.39 1087.55 1070.31L1087.48 1085.28L1072.64 1085.32L1072.59 1099.17L1035.58 1099.03L1035.54 1115.33L437.184 1115.58L285.059 1115.55C263.676 1115.55 238.875 1114.83 217.93 1115.41L218.052 1099.12L181.286 1098.94C181.148 1094.47 180.939 1089.81 180.943 1085.36L166.043 1085.29L165.868 1070.38L151.341 1070.29L151.182 1054.48L137.847 1054.36C137.781 1043.04 137.784 1031.72 137.858 1020.41C128.345 1020.51 122.735 1023.8 123.022 1012.63C123.737 978.532 123.24 942.951 123.268 908.699L123.316 712.688L123.334 229.519Z" fill="#ACB0BA"/>
<path d="M1088.75 1026.38L1102.12 1026.51C1102.34 1031.22 1102.45 1034.7 1102.24 1039.39C1099.17 1039.41 1090.39 1039.3 1087.62 1039.75C1089.02 1037.9 1088.71 1029.3 1088.75 1026.38Z" fill="#D2E4F8"/>
<path d="M1073.35 1049.65C1073.21 1047.35 1073.17 1046.96 1073.44 1044.72C1076.11 1041.54 1078.23 1043.56 1081.84 1043.52C1086.38 1043.48 1086.27 1043.34 1087.62 1039.75L1087.54 1044.77C1086.88 1048.75 1086.97 1050.04 1081.94 1049.98C1079 1049.95 1076.33 1049.58 1073.35 1049.65Z" fill="#D2E4F8"/>
<path d="M1087.54 1044.77C1087.59 1049.45 1086.93 1050.91 1086.66 1055.13L1072.67 1055.85C1073.37 1053.49 1073.27 1052.14 1073.35 1049.65C1076.33 1049.58 1079 1049.95 1081.94 1049.98C1086.97 1050.04 1086.88 1048.75 1087.54 1044.77Z" fill="#D2E4F8"/>
<path d="M1104.68 1097.63C1104.51 1102.21 1104.56 1106.39 1104.65 1110.98L1089.54 1110.99L1089.55 1125.06L1074.42 1125.02C1074.44 1128.9 1074.56 1133.38 1074.4 1137.19L1036.8 1137.18L1036.75 1151.59L217.535 1151.75L217.388 1137.27L179.898 1137.2C179.779 1133.15 179.622 1129.09 179.651 1125.03L164.776 1125.11C164.783 1120.86 164.627 1115.41 164.813 1111.27C168.931 1112.06 175.358 1111.29 179.646 1110.91C179.764 1113.68 179.321 1113.64 180.619 1115.6C186.065 1116.49 210.606 1115.94 217.494 1115.9C217.505 1121.75 217.46 1127.68 217.544 1133.53L1036.55 1133.6L1036.7 1115.9C1041.92 1115.93 1070.51 1116.43 1073.8 1115.49C1074.78 1113.9 1074.58 1112.66 1074.61 1110.77L1074.49 1103.02C1079.57 1103.09 1084.34 1103.22 1089.41 1102.83C1091.07 1094.74 1099.58 1103.26 1104.68 1097.63Z" fill="#D2E4F8"/>
<path d="M1089.41 1102.83C1089.55 1105.64 1089.67 1108.11 1089.63 1110.93L1074.61 1110.77L1074.49 1103.02C1079.57 1103.09 1084.34 1103.22 1089.41 1102.83Z" fill="#9095A0"/>
<path d="M1148.26 1022.67L1148.14 1045.51L1132.97 1045.39C1132.9 1047.78 1132.92 1051.95 1132.48 1054.15C1131.9 1045.62 1132.48 1031.73 1132.61 1022.78L1148.26 1022.67Z" fill="#D2E4F8"/>
<path d="M106.332 1022.65C109.883 1022.67 115.222 1022.9 118.518 1022.29C120.557 1022.78 120.729 1022.43 121.771 1023.72C122.105 1031.18 122.352 1047.64 121.908 1055.08C121.172 1052.93 121.441 1047.9 121.455 1045.4L106.543 1045.51L106.332 1022.65Z" fill="#D2E4F8"/>
<path d="M1104.75 1072.83C1109.89 1072.9 1114.53 1072.81 1119.67 1072.63C1119.36 1077.18 1119.43 1080.34 1119.59 1084.92L1118.98 1086.46C1118.6 1090.31 1118.45 1093.25 1118.36 1097.11C1114.28 1097.12 1108.52 1096.95 1104.68 1097.63L1104.76 1087.11C1104.62 1082.6 1104.75 1077.4 1104.75 1072.83Z" fill="#ACB0BA"/>
<path d="M1104.76 1087.11C1107.69 1085.97 1115.44 1086.41 1118.98 1086.46C1118.6 1090.31 1118.45 1093.25 1118.36 1097.11C1114.28 1097.12 1108.52 1096.95 1104.68 1097.63L1104.76 1087.11Z" fill="#D2E4F8"/>
<path d="M134.865 1072.56C139.323 1073.1 144.853 1072.93 149.436 1072.91C149.424 1076.62 149.195 1083.43 149.502 1086.9L149.61 1087.88L149.526 1097.2C146.691 1096.65 138.769 1096.91 135.474 1096.94C135.539 1093.39 135.477 1089.85 135.29 1086.3C134.802 1083.48 134.829 1076.15 134.767 1072.93L134.865 1072.56Z" fill="#9095A0"/>
<path d="M135.29 1086.3C138.671 1086.29 146.713 1086 149.502 1086.9L149.61 1087.88L149.526 1097.2C146.691 1096.65 138.769 1096.91 135.474 1096.94C135.539 1093.4 135.477 1089.85 135.29 1086.3Z" fill="#D2E4F8"/>
<path d="M149.61 1087.88C152.728 1088.69 160.798 1088.37 164.393 1088.35L164.336 1100.11L164.882 1103.13C164.864 1105.74 164.918 1108.7 164.812 1111.27C161.033 1110.7 153.584 1110.96 149.494 1110.99L149.623 1098.4L149.526 1097.2L149.61 1087.88Z" fill="#9095A0"/>
<path d="M149.623 1098.4C152.553 1100.87 160.042 1100.12 164.336 1100.11L164.882 1103.13C164.864 1105.74 164.918 1108.7 164.812 1111.27C161.033 1110.7 153.584 1110.96 149.494 1110.99L149.623 1098.4Z" fill="#D2E4F8"/>
<path d="M1025.85 103L1041.68 103.04C1041.69 108.649 1041.59 114.573 1041.81 120.153L1041.1 120.761L1025.1 120.797C1026.3 117.428 1026 106.696 1025.85 103Z" fill="#464E5C"/>
<path d="M1132.24 1055.85L1132.26 1059.85C1132.28 1064.21 1132.19 1068.57 1132 1072.92L1120.08 1073C1120.06 1076.88 1120.22 1081.14 1119.59 1084.92C1119.43 1080.34 1119.36 1077.18 1119.67 1072.63C1119.24 1068.08 1119.51 1060.75 1119.54 1056C1124.01 1056.07 1127.78 1056.11 1132.24 1055.85Z" fill="#D2E4F8"/>
<path d="M1120.32 1065.35C1124.42 1064.58 1128.34 1065.44 1131.18 1063.7C1131.96 1063.24 1132.05 1061.03 1132.26 1059.85C1132.28 1064.21 1132.19 1068.57 1132 1072.92L1120.08 1073.01C1120.07 1076.88 1120.22 1081.14 1119.59 1084.92C1119.43 1080.34 1119.36 1077.18 1119.67 1072.63C1120.24 1071 1120.24 1067.24 1120.32 1065.35Z" fill="#EEEFF2"/>
<path d="M122.111 1056.02C126.051 1056.49 130.731 1056.25 134.768 1056.17C134.776 1061.05 134.576 1067.83 134.865 1072.56L134.767 1072.93L122.504 1072.82C122.583 1067.15 122.334 1061.67 122.111 1056.02Z" fill="#D2E4F8"/>
<path d="M1104.76 1087.11L1104.68 1097.63C1099.58 1103.26 1091.07 1094.74 1089.41 1102.83L1089.7 1088.32C1093.37 1088.38 1102.08 1089.09 1104.76 1087.11Z" fill="#9095A0"/>
<path d="M164.882 1103.13L179.733 1103.02C179.711 1105.46 179.777 1108.53 179.646 1110.91C175.358 1111.29 168.931 1112.06 164.812 1111.27C164.918 1108.7 164.865 1105.74 164.882 1103.13Z" fill="#9095A0"/>
<path d="M574.209 241.758C574.107 237.469 573.338 227.807 575.29 224.459C580.977 222.105 653.179 223.261 664.574 223.446L664.616 241.749L681.038 241.829C681.314 246.978 681.167 253.086 681.173 258.309L695.324 258.336C695.758 263.263 695.666 268.081 695.654 273.019L711.17 273.196L711.194 287.918L746.292 287.893C750.547 287.893 761.042 287.677 764.679 288.302L766.124 288.87L766.332 289.962C766.933 294.887 766.78 300.383 766.773 305.387C770.374 305.361 779.399 304.942 782.338 305.977C785.332 309.459 780.801 312.289 787.151 312.361C795.441 312.455 803.916 312.336 812.194 312.294L861.228 312.188C865.783 312.184 880.576 311.809 883.828 312.933L884.593 313.884C885.016 319.53 884.905 324.94 884.862 330.588C904.909 330.583 901.989 330.007 902.215 348.984C906.912 348.903 914.969 348.1 918.619 350.422C919.623 359.041 918.509 368.291 919.243 376.871L919.366 356.117C923.97 355.964 927.92 355.956 932.53 356.064V369.836C930.204 369.829 926.028 369.69 923.885 370.042L923.511 370.725L922.856 370.704L922.727 370.238L922.029 370.598C925.458 371.394 929.64 370.841 933.204 370.55C933.516 378.759 934.447 388.068 934.477 396.04C934.637 436.005 934.49 476.07 934.471 516.035L934.288 710.712L934.471 869.415C934.502 897.569 935.096 926.898 934.03 954.942C929.15 954.74 923.027 954.372 918.166 954.733C918.037 960.33 917.217 967.72 917.357 972.754C913.726 972.735 903.342 972.043 901.205 973.978L900.991 990.4C897.617 990.345 888.206 989.8 885.781 991.025C880.987 992.194 846.018 991.955 839.436 991.943L744.969 991.968L523.534 991.925C478.78 991.937 434.026 991.949 389.272 991.986C378.039 991.992 367.357 991.025 356.187 990.688C355.969 985.036 356.07 978.699 356.034 972.992C349.671 973.446 345.353 973.378 339.001 973.17L338.85 955.248L322.518 955.089C322.462 948.519 322.608 941.569 321.6 935.109C320.999 931.699 321.14 922.055 321.146 918.222L321.204 887.882L321.237 777.324L321 357.217C320.944 345.837 329.46 348.868 338.2 348.945C338.485 335.351 333.868 330.376 350.448 330.529L356.004 330.121C355.97 325.516 355.114 316.557 357.56 313.196C363.582 311.056 430.856 312.151 442.131 312.366C447.3 312.398 451.005 312.85 455.864 311.169C458.76 307.867 455.541 310.694 456.628 306.715C460.821 303.514 466.246 306.789 471.842 304.993C473.564 303.238 473.02 303.669 473.447 300.662C472.628 297.781 472.444 291.982 474.1 289.377C478.607 287.478 531.997 288.382 540.77 288.397L541.453 288.274C541.696 278.667 541.045 268.399 541.13 258.52C546.177 258.169 552.222 258.266 557.352 258.22C557.199 253.676 556.367 246.944 558.37 243.242C561.548 240.749 569.69 241.674 574.209 241.758Z" fill="#F1EDE2"/>
<path d="M766.332 289.962C766.933 294.887 766.78 300.383 766.773 305.386C770.374 305.361 779.399 304.942 782.338 305.977C785.332 309.459 780.801 312.289 787.151 312.361C795.441 312.454 803.916 312.336 812.194 312.293L861.228 312.187C865.783 312.184 880.576 311.809 883.828 312.933L884.593 313.884C885.016 319.529 884.905 324.94 884.862 330.588C904.909 330.582 901.989 330.007 902.215 348.984C906.912 348.903 914.969 348.1 918.619 350.422C919.623 359.04 918.509 368.29 919.243 376.871L919.366 356.117C923.97 355.963 927.92 355.956 932.53 356.064V369.835C930.204 369.829 926.028 369.69 923.885 370.042L923.511 370.724L922.856 370.704L922.727 370.237L922.029 370.598C925.458 371.394 929.64 370.841 933.204 370.55C933.516 378.759 934.447 388.068 934.477 396.039C934.637 436.005 934.49 476.069 934.471 516.035L934.288 710.711L934.471 869.415C934.502 897.568 935.096 926.898 934.03 954.941C929.15 954.739 923.027 954.372 918.166 954.733C918.037 960.33 917.217 967.72 917.357 972.753C913.726 972.735 903.342 972.043 901.205 973.978L900.991 990.4C897.617 990.345 888.206 989.8 885.781 991.024C880.987 992.194 846.018 991.955 839.436 991.943L744.969 991.967L523.534 991.925C478.78 991.937 434.026 991.949 389.272 991.986C378.039 991.992 367.357 991.024 356.187 990.688C355.969 985.036 356.07 978.699 356.034 972.992C349.671 973.445 345.353 973.378 339.001 973.17L338.85 955.247L322.518 955.088C322.462 948.518 322.608 941.569 321.6 935.109C320.999 931.698 321.14 922.054 321.146 918.221L321.204 887.882L321.237 777.324L321 357.216C320.944 345.837 329.46 348.867 338.2 348.945C338.485 335.351 333.868 330.376 350.448 330.528L356.004 330.121C355.97 325.516 355.114 316.557 357.56 313.195C363.582 311.056 430.856 312.151 442.131 312.366C446.367 312.844 452.894 312.31 455.811 315.127C457.247 318.44 456.517 325.879 456.4 329.776C452.893 329.483 449.194 329.16 445.719 329.903L456.343 330.018L456.381 338.457C456.793 349.802 456.287 362.124 456.326 373.652L455.75 373.458C455.401 379.295 455.53 385.204 455.571 391.056C445.305 391.167 430.205 391.756 420.278 391.107L420.298 409.04C416.38 409.028 407.987 408.776 404.426 409.182C405.371 513.315 405.421 617.451 404.574 721.586L404.727 823.798C404.937 846.11 405.988 878.838 404.408 900.648C399.208 900.771 392.798 901.089 387.7 900.765C392.341 902.283 399.621 900.544 403.814 901.775L404.35 901.818C407.334 901.071 430.02 901.291 434.453 901.291L507.315 901.267L835.364 901.089C835.278 895.217 835.253 889.345 835.296 883.467L852.018 883.565L852.055 408.639C852.018 402.851 852.037 397.063 852.104 391.276C848.492 391.268 844.879 391.299 841.272 391.367L835.456 391.212L835.419 373.281L835.131 373.022C825.279 372.502 811.772 372.874 801.65 372.841C795.619 372.957 789.416 372.883 783.367 372.886L783.263 391.6L782.093 391.317C778.921 390.694 769.774 391.01 766.339 391.158L766.326 372.815L766.302 352.514L766.277 321.147C766.29 318.086 766.792 307.808 765.622 305.994C766.204 304.138 765.922 293.53 766.332 289.962Z" fill="#8D663C"/>
<path d="M884.863 330.588C904.909 330.582 901.989 330.007 902.215 348.984C906.912 348.903 914.97 348.1 918.619 350.422C919.623 359.04 918.509 368.29 919.243 376.871L919.366 356.117C923.97 355.964 927.92 355.956 932.53 356.064V369.835C930.204 369.829 926.028 369.69 923.885 370.042L923.511 370.724L922.856 370.704L922.727 370.238L922.029 370.598C925.458 371.394 929.64 370.841 933.204 370.55C933.516 378.759 934.447 388.068 934.477 396.039C934.637 436.005 934.49 476.07 934.471 516.035L934.288 710.711L934.471 869.415C934.502 897.568 935.096 926.898 934.031 954.941C929.15 954.739 923.027 954.372 918.166 954.733C918.037 960.33 917.217 967.72 917.357 972.753C913.727 972.735 903.342 972.043 901.205 973.978L900.991 990.4C897.617 990.345 888.206 989.8 885.781 991.025C880.987 992.194 846.018 991.955 839.436 991.943L744.969 991.968L523.534 991.925C478.78 991.937 434.026 991.949 389.272 991.986C378.039 991.992 367.357 991.025 356.187 990.688C355.969 985.036 356.07 978.699 356.034 972.992C349.671 973.445 345.353 973.378 339.001 973.17L338.85 955.248L322.518 955.088C322.462 948.518 322.608 941.569 321.6 935.109C327.098 935.831 332.637 936.186 338.18 936.186C337.638 956.65 336.675 954.892 356.083 955.119C361.229 954.905 366.788 954.525 371.827 955.499C378.583 956.362 393.522 955.97 400.727 955.946L451.251 955.86L632.464 955.897L805.587 955.915H848.357C851.59 955.915 865.979 956.062 868.398 955.535C873.265 954.366 879.333 954.752 884.409 954.905L884.318 936.193C883.913 932.696 884.422 923.059 884.538 919.109C890.012 918.466 895.308 918.736 900.813 918.864C901.836 875.14 901.199 826.964 901.07 783.172L901.15 627.616L901.003 467.518C901.033 436.096 901.664 402.765 900.905 371.514L901.591 369.342L901.578 354.362C896.11 354.386 890.649 354.459 885.181 354.581C884.103 352.998 884.409 345.156 884.373 342.667C884.367 339.812 884.146 332.95 884.863 330.588Z" fill="#A5B2C0"/>
<path d="M884.862 330.588C904.909 330.582 901.989 330.007 902.215 348.984C906.911 348.903 914.969 348.1 918.619 350.422C917.817 367.19 918.478 387.951 918.49 405.078L918.441 501.047L918.423 800.518L918.49 890.276L918.539 917.94C918.649 936.958 921.307 936.321 902.105 936.15C902.527 956.717 903.862 954.672 884.526 955.07L884.617 972.08C876.235 972.582 867.216 973.751 858.95 973.886C844.995 974.125 830.918 973.966 816.952 973.96L732.533 973.917L439.441 974.002C415.051 974.002 390.094 974.903 365.895 972.564C362.641 972.251 359.348 972.361 356.079 972.417L356.083 955.119C361.229 954.905 366.788 954.525 371.827 955.499C378.583 956.362 393.522 955.97 400.727 955.946L451.251 955.86L632.464 955.897L805.587 955.915H848.357C851.59 955.915 865.979 956.062 868.398 955.535C873.265 954.366 879.333 954.752 884.409 954.905L884.317 936.193C883.913 932.696 884.422 923.059 884.538 919.109C890.012 918.466 895.308 918.736 900.813 918.864C901.835 875.14 901.199 826.964 901.07 783.172L901.15 627.616L901.003 467.518C901.033 436.096 901.664 402.765 900.905 371.514L901.591 369.342L901.578 354.362C896.11 354.386 890.649 354.459 885.181 354.581C884.103 352.998 884.409 345.156 884.373 342.667C884.366 339.812 884.146 332.95 884.862 330.588Z" fill="#16150C"/>
<path d="M900.905 371.514L901.59 369.342L901.633 746.88C901.627 809.158 900.703 873.572 901.639 935.654C898.076 935.568 887.018 934.913 884.317 936.193C883.913 932.696 884.421 923.059 884.538 919.109C890.012 918.466 895.308 918.736 900.813 918.864C901.835 875.14 901.199 826.964 901.07 783.172L901.15 627.616L901.003 467.518C901.033 436.097 901.664 402.765 900.905 371.514Z" fill="#65492A"/>
<path d="M885.689 974.198C890.061 974.241 897.292 974.712 901.205 973.978L900.99 990.4C897.617 990.344 888.206 989.799 885.781 991.024C885.885 985.581 885.726 979.678 885.689 974.198Z" fill="#B6B9C3"/>
<path d="M835.296 883.467L852.018 883.565C852.037 888.714 851.908 894.623 852.086 899.711L852.453 899.65L852.876 901.364C857.835 901.426 863.456 901.169 868.465 901.052L868.618 918.913C858.521 917.615 851.002 919.574 841.897 918.993L835.933 919.158C835.713 924.785 835.382 930.602 835.486 936.217C831.286 936.284 825.726 936.229 821.691 936.737L462.894 936.743C457.089 936.125 447.259 936.419 441.215 936.431L404.062 936.468C403.882 931.116 404.233 924.455 404.376 919.011C404.124 913.843 404.337 907.102 404.35 901.818C407.334 901.071 430.02 901.291 434.453 901.291L507.315 901.267L835.364 901.089C835.278 895.217 835.253 889.345 835.296 883.467Z" fill="#533C22"/>
<path d="M835.296 883.467L852.018 883.565C852.037 888.714 851.908 894.623 852.086 899.711L851.559 900.899C848.369 901.689 839.221 901.34 835.529 901.303V918.98L404.376 919.011C404.124 913.843 404.337 907.102 404.35 901.818C407.334 901.071 430.02 901.291 434.453 901.291L507.315 901.267L835.364 901.089C835.278 895.217 835.253 889.345 835.296 883.467Z" fill="#E5E4E4"/>
<path d="M852.876 901.365C857.835 901.426 863.456 901.169 868.465 901.053L868.618 918.914C858.521 917.616 851.002 919.575 841.897 918.993C845.393 918.234 848.247 918.314 851.804 918.234C851.957 913.654 851.884 905.339 852.876 901.365Z" fill="#65492A"/>
<path d="M350.448 330.528L356.071 330.766C356.082 336.251 355.873 343.611 356.185 348.945L355.894 351.429L338.707 351.362C337.975 355.182 338.254 363.991 338.26 368.249L338.272 396.811L338.296 505.019L338.319 919.146L338.322 935.795C341.8 935.648 354.205 934.496 356.143 936.676C356.039 942.824 356.019 948.971 356.083 955.119C336.675 954.892 337.638 956.65 338.18 936.186C332.637 936.186 327.098 935.831 321.6 935.109C320.999 931.698 321.14 922.054 321.146 918.221L321.204 887.882L321.237 777.324L321 357.216C320.944 345.837 329.46 348.867 338.2 348.945C338.485 335.351 333.868 330.376 350.448 330.528Z" fill="#16150C"/>
<path d="M404.314 372.927C411.022 372.904 452.613 372.245 455.749 373.458C455.4 379.295 455.53 385.204 455.571 391.056C445.305 391.167 430.205 391.756 420.277 391.107L420.298 409.04C416.38 409.028 407.987 408.776 404.426 409.182C405.371 513.315 405.421 617.451 404.574 721.586L404.727 823.798C404.937 846.11 405.988 878.838 404.408 900.648C399.207 900.771 392.798 901.089 387.7 900.765L387.329 900.844L387.376 391.238L404.145 391.237C404.724 386.723 404.393 377.771 404.314 372.927Z" fill="white"/>
<path d="M338.707 351.362L355.894 351.43C355.96 356.323 356.14 361.598 355.824 366.443C356.619 386.065 356.036 409.101 356.036 429.037L356.047 545.784L356.025 919.042C349.698 918.883 344.684 918.791 338.319 919.146L338.296 505.02L338.272 396.811L338.26 368.25C338.254 363.992 337.975 355.182 338.707 351.362Z" fill="#B78D5A"/>
<path d="M338.708 351.362L355.894 351.43C355.96 356.323 356.14 361.598 355.825 366.443C355.673 368.218 355.738 369.472 354.864 371.016C351.24 373.225 343.378 371.698 338.9 371.453C338.8 364.441 339.053 358.607 338.708 351.362Z" fill="#BF9663"/>
<path d="M387.437 372.914L403.758 372.918C403.743 378.838 403.559 385.398 404.145 391.237L387.376 391.239L387.329 900.844C383.499 901.744 375.563 901.42 371.293 901.365L370.687 900.532C371.692 887.196 370.917 863.677 371.008 849.515L371.037 728.04L370.953 391.142L387.235 391.133L387.437 372.914Z" fill="#533C22"/>
<path d="M852.661 391.237L868.581 391.155L868.465 901.053C863.456 901.169 857.835 901.426 852.876 901.365L852.453 899.65C853.525 845.97 852.557 789.289 852.6 735.277L852.661 391.237Z" fill="#533C22"/>
<path d="M766.333 289.962C766.933 294.887 766.78 300.383 766.773 305.386C770.374 305.361 779.399 304.942 782.338 305.977C785.332 309.459 780.801 312.289 787.151 312.361C795.441 312.454 803.916 312.336 812.194 312.293L861.228 312.187C865.783 312.184 880.576 311.809 883.828 312.933L884.593 313.884C885.016 319.529 884.905 324.94 884.863 330.588C884.146 332.95 884.367 339.811 884.373 342.667C884.232 344.53 884.281 347.316 883.289 348.702C864.938 349.578 844.603 348.545 826.057 348.959C822.236 349.044 800.958 349.096 798.687 348.627L798.723 349.088L783.355 348.965L783.33 355.184L783.367 372.886L783.263 391.6L782.093 391.317C778.922 390.694 769.774 391.01 766.339 391.158L766.326 372.815L766.302 352.514L766.277 321.147C766.29 318.086 766.792 307.808 765.622 305.994C766.204 304.138 765.922 293.53 766.333 289.962Z" fill="#1A1811"/>
<path d="M884.593 313.884C885.016 319.529 884.905 324.94 884.863 330.587C884.146 332.95 884.367 339.811 884.373 342.666C884.232 344.53 884.281 347.316 883.289 348.702C864.938 349.577 844.603 348.545 826.057 348.958C822.236 349.044 800.958 349.096 798.687 348.627L798.987 330.043C827.465 329.861 855.949 329.888 884.428 330.125C884.36 324.711 884.416 319.295 884.593 313.884Z" fill="#B78D5A"/>
<path d="M783.336 329.941L798.987 330.043L798.687 348.627L798.723 349.088L783.355 348.964L783.336 329.941Z" fill="#7C5934"/>
<path d="M356.004 330.12C355.97 325.516 355.114 316.556 357.56 313.195C363.582 311.055 430.856 312.15 442.131 312.366C446.367 312.843 452.894 312.309 455.811 315.127C457.247 318.44 456.517 325.879 456.4 329.775C452.892 329.483 449.194 329.16 445.719 329.902L440.301 330.034C412.202 329.843 384.102 329.872 356.004 330.12Z" fill="#16150C"/>
<path d="M350.448 330.528L356.005 330.121C384.103 329.872 412.202 329.844 440.301 330.035L440.655 348.997C419.029 349.651 394.061 348.868 372.017 348.981L356.185 348.945C355.873 343.611 356.082 336.252 356.071 330.767L350.448 330.528Z" fill="#B78D5A"/>
<path d="M356.071 330.767C360.556 330.828 366.802 330.731 371.137 331.148C371.644 336.531 372.377 343.69 372.017 348.981L356.184 348.945C355.873 343.611 356.082 336.252 356.071 330.767Z" fill="#BF9663"/>
<path d="M445.719 329.902L456.343 330.018L456.381 338.457C456.793 349.802 456.287 362.124 456.326 373.651L455.75 373.458C452.613 372.245 411.022 372.904 404.314 372.927C403.645 367.262 404.064 360.529 404.31 354.759C411.767 353.015 433.391 355.761 440.293 354.286C441.396 352.856 441.084 351.059 441.082 349.126L440.655 348.997L440.301 330.035L445.719 329.902Z" fill="#65492A"/>
<path d="M445.719 329.902L456.343 330.018L456.381 338.457C456.098 341.919 455.884 344.901 455.801 348.385C450.596 348.845 446.315 349.02 441.082 349.126L440.655 348.997L440.301 330.035L445.719 329.902Z" fill="#9D7547"/>
<path d="M441.082 349.126C446.315 349.021 450.596 348.845 455.801 348.386L455.615 354.802C443.34 355.162 431.06 355.275 418.78 355.141C415.622 355.117 407.088 355.229 404.31 354.76C411.767 353.015 433.391 355.762 440.293 354.286C441.396 352.856 441.084 351.059 441.082 349.126Z" fill="#7C5934"/>
<path d="M783.355 348.965L798.723 349.088C798.932 351.688 798.54 352.302 799.801 354.118C805.655 354.945 834.004 353.692 836.117 355.006C836.111 359.723 836.331 368.816 835.131 373.022C825.279 372.502 811.772 372.874 801.65 372.841C795.619 372.957 789.416 372.883 783.367 372.886L783.33 355.184L783.355 348.965Z" fill="#533C22"/>
<path d="M783.355 348.965L798.723 349.088C798.932 351.688 798.54 352.302 799.801 354.118C805.655 354.945 834.004 353.692 836.117 355.006C818.538 355.864 799.936 353.918 783.33 355.184L783.355 348.965Z" fill="#65492A"/>
<path d="M387.329 900.844L387.7 900.765C392.341 902.283 399.621 900.544 403.815 901.775C403.486 907.01 403.687 913.39 403.717 918.711C393.274 919.544 382.189 918.295 370.999 918.705C371.277 913.005 371.245 907.09 371.293 901.365C375.563 901.42 383.499 901.744 387.329 900.844Z" fill="#65492A"/>
<path d="M370.687 900.532L371.293 901.365C371.245 907.09 371.277 913.005 370.999 918.705C382.189 918.295 393.274 919.544 403.717 918.712C403.687 913.391 403.486 907.01 403.815 901.775L404.35 901.818C404.337 907.102 404.124 913.844 404.376 919.012C404.233 924.455 403.882 931.117 404.063 936.468L441.215 936.432C447.259 936.419 457.089 936.126 462.894 936.744C457.07 937.411 446.487 936.921 440.193 937.026C422.765 937.326 405.328 936.683 387.926 936.413L387.794 919.189C382.088 919.134 376.228 919.238 370.508 919.263C370.492 913.042 370.399 906.741 370.687 900.532Z" fill="#7C5934"/>
<path d="M835.419 373.281C839.35 372.397 847.842 372.683 852.208 372.725C852.361 378.626 852.655 385.47 852.104 391.277C848.491 391.269 844.879 391.299 841.272 391.367L835.455 391.212L835.419 373.281Z" fill="#533C22"/>
<path d="M841.897 918.993C851.002 919.575 858.521 917.615 868.618 918.913C864.375 919.581 856.917 919.403 852.373 919.336L852.025 936.437C844.193 936.707 828.947 937.515 821.691 936.737C825.726 936.229 831.286 936.284 835.486 936.217C835.382 930.602 835.713 924.785 835.933 919.158L841.897 918.993Z" fill="#7C5934"/>
<path d="M884.317 936.192L884.409 954.904C879.333 954.751 873.265 954.366 868.398 955.535C868.581 949.877 868.104 942.903 868.128 936.909C872.555 937.141 880.191 937.699 884.317 936.192Z" fill="#65492A"/>
<path d="M885.181 354.581C890.649 354.459 896.11 354.386 901.578 354.361L901.591 369.341L900.905 371.513C896.312 371.93 890.483 371.666 885.138 372.107C885.303 366.707 885.524 359.87 885.181 354.581Z" fill="#9D7547"/>
<path d="M356.185 348.944L372.017 348.981C371.441 354.787 371.866 360.836 371.777 366.69C366.588 366.628 360.976 366.673 355.824 366.443C356.14 361.598 355.96 356.323 355.894 351.429L356.185 348.944Z" fill="#9D7547"/>
<path d="M356.143 936.676C359.113 937.944 368.18 937.472 371.818 937.399C371.891 943.412 372.037 949.498 371.827 955.499C366.788 954.525 361.229 954.905 356.083 955.119C356.019 948.971 356.039 942.824 356.143 936.676Z" fill="#65492A"/>
<path d="M574.209 241.758C574.107 237.469 573.338 227.807 575.29 224.459C580.977 222.105 653.179 223.261 664.574 223.446L664.616 241.749L681.038 241.829C681.314 246.978 681.167 253.086 681.173 258.309L695.323 258.336C695.758 263.263 695.666 268.081 695.654 273.019L711.17 273.196L711.194 287.918L746.292 287.893C750.547 287.893 761.042 287.677 764.679 288.302L766.124 288.87L766.332 289.962C765.922 293.531 766.204 304.138 765.622 305.995C766.792 307.808 766.29 318.086 766.277 321.147L766.302 352.515L766.326 372.815L766.339 391.158C760.62 391.349 753.052 392.049 747.59 391.942C743.077 391.572 732.87 391.806 728.021 391.794C718.414 392.34 704.294 391.934 694.374 391.934L630.303 391.926C578.357 391.92 524.97 392.725 473.165 391.197C469.49 390.836 460.539 390.892 456.923 391.301L456.429 391.354C456.191 385.849 456.344 379.243 456.326 373.652C456.287 362.125 456.793 349.802 456.381 338.457L456.343 330.019L445.719 329.903C449.194 329.161 452.892 329.483 456.4 329.776C456.517 325.879 457.247 318.441 455.811 315.127C452.894 312.31 446.367 312.844 442.131 312.366C447.3 312.398 451.005 312.85 455.864 311.169C458.76 307.867 455.541 310.694 456.628 306.715C460.821 303.514 466.246 306.789 471.842 304.993C473.564 303.238 473.02 303.669 473.447 300.662C472.628 297.781 472.444 291.982 474.1 289.377C478.607 287.478 531.997 288.382 540.77 288.397L541.453 288.274C541.696 278.667 541.045 268.399 541.13 258.52C546.177 258.169 552.222 258.266 557.352 258.22C557.199 253.676 556.366 246.944 558.37 243.242C561.548 240.749 569.69 241.674 574.209 241.758Z" fill="#A5B2C0"/>
<path d="M473.165 391.197C473.765 371.53 472.44 350.755 472.956 330.941C473.141 323.83 472.649 314.115 473.445 307.347C473.727 311.869 473.707 315.713 473.657 320.253L473.635 337.39L473.591 354.737L473.629 372.527C477.548 373.109 485.547 372.982 489.658 372.822C498.269 372.503 509.086 372.812 517.824 372.809L573.347 372.779L750.162 372.752C750.829 368.006 750.572 360.07 750.553 355.055C754.466 354.865 758.483 354.737 762.377 354.501C765.102 354.336 765.065 354.07 766.302 352.515L766.326 372.815L766.339 391.158C760.62 391.349 753.052 392.049 747.59 391.942C743.077 391.572 732.87 391.806 728.021 391.794C718.413 392.34 704.294 391.934 694.374 391.934L630.303 391.926C578.357 391.92 524.97 392.725 473.165 391.197Z" fill="#7C7D80"/>
<path d="M473.165 391.197C473.765 371.53 472.44 350.755 472.956 330.941C473.141 323.83 472.649 314.115 473.445 307.347C473.727 311.869 473.707 315.713 473.657 320.253L473.635 337.39L473.591 354.737L473.629 372.527C477.548 373.109 485.547 372.982 489.658 372.822L489.622 391.306L652.964 391.457L700.173 391.347C707.919 391.327 720.612 391.019 728.021 391.794C718.413 392.34 704.294 391.934 694.374 391.934L630.303 391.926C578.357 391.92 524.97 392.725 473.165 391.197Z" fill="#545962"/>
<path d="M766.326 372.814L766.339 391.158C760.62 391.348 753.052 392.049 747.59 391.942C748.919 391.499 748.527 391.656 749.702 390.85C750.547 387.449 750.131 376.987 750.07 372.833L766.326 372.814Z" fill="#545962"/>
<path d="M574.209 241.758C574.107 237.469 573.338 227.807 575.29 224.459C580.978 222.105 653.179 223.261 664.574 223.446L664.616 241.749L681.039 241.829C681.314 246.978 681.167 253.086 681.173 258.309L695.324 258.336C695.758 263.263 695.666 268.081 695.654 273.019L711.17 273.196L711.195 287.918L746.292 287.893C750.547 287.893 761.042 287.677 764.679 288.302L766.124 288.87L766.333 289.962C765.922 293.531 766.204 304.138 765.622 305.995C761.183 306.134 754.497 306.397 750.284 305.643L744.075 305.35C732.019 306.23 707.741 305.433 694.601 305.407C689.672 305.438 683.396 305.66 678.614 305.094C674.511 304.814 668.45 305.001 664.2 305.001C664.029 295.928 664.286 286.759 664.102 277.754C663.974 271.155 663.312 265.794 663.398 258.877L663.441 241.961L646.56 241.809L599.226 241.841C595.051 241.838 578.473 241.602 575.096 242.322L575.032 259.026L560.187 259.329L558.22 259.234C557.422 264.685 557.862 282.38 557.891 288.731C553.268 288.655 545.843 288.757 541.453 288.274C541.696 278.667 541.045 268.399 541.13 258.52C546.177 258.169 552.222 258.266 557.352 258.22C557.199 253.676 556.367 246.944 558.37 243.242C561.548 240.749 569.69 241.674 574.209 241.758Z" fill="#16150C"/>
<path d="M663.398 258.877C668.792 259.491 673.428 259.38 678.816 259.342C678.755 268.97 678.62 278.71 678.675 288.328C678.657 293.882 678.706 299.552 678.614 305.094C674.511 304.813 668.45 305.001 664.2 305.001C664.029 295.928 664.286 286.759 664.102 277.754C663.974 271.154 663.312 265.794 663.398 258.877Z" fill="#989798"/>
<path d="M678.675 288.328C683.996 288.451 689.837 288.708 695.122 288.566C695.011 293.669 695.042 299.729 694.675 304.75C700.357 304.735 742.324 304.197 744.075 305.35C732.019 306.229 707.741 305.433 694.601 305.407C689.672 305.437 683.396 305.659 678.614 305.094C678.706 299.552 678.657 293.882 678.675 288.328Z" fill="#2A2E34"/>
<path d="M695.654 273.019L711.17 273.196L711.195 287.918L746.292 287.893C750.547 287.893 761.042 287.677 764.679 288.302C742.783 289.053 717.618 288.425 695.477 288.398C695.397 283.16 695.501 278.259 695.654 273.019Z" fill="#A5B2C0"/>
<path d="M557.891 288.73C557.862 282.38 557.421 264.685 558.22 259.234C559.042 266.544 558.625 280.476 558.57 288.253L558.517 305.304L541.914 305.354C530.224 305.642 517.632 305.412 505.872 305.418C502.11 305.458 498.347 305.424 494.586 305.316L488.999 305.672C484.121 306.217 478.78 305.83 473.836 305.623L473.445 307.346C472.649 314.115 473.141 323.83 472.956 330.94C472.44 350.754 473.765 371.529 473.165 391.197C469.49 390.835 460.539 390.892 456.923 391.3L456.429 391.353C456.191 385.849 456.344 379.243 456.326 373.652C456.287 362.124 456.793 349.802 456.381 338.457L456.343 330.018L445.719 329.902C449.194 329.16 452.892 329.483 456.4 329.776C456.517 325.879 457.247 318.44 455.811 315.127C452.894 312.31 446.367 312.844 442.131 312.366C447.3 312.397 451.005 312.849 455.864 311.169C458.76 307.866 455.541 310.693 456.628 306.714C460.821 303.514 466.246 306.789 471.842 304.993C473.564 303.237 473.02 303.669 473.447 300.662C472.628 297.78 472.444 291.981 474.1 289.376C478.607 287.478 531.997 288.381 540.77 288.397L541.453 288.273C545.843 288.757 553.268 288.655 557.891 288.73Z" fill="#16150C"/>
<path d="M557.891 288.73C557.862 282.38 557.421 264.685 558.22 259.234C559.042 266.544 558.625 280.476 558.57 288.253L558.517 305.304L541.914 305.354C530.224 305.642 517.632 305.412 505.872 305.418C502.11 305.458 498.347 305.424 494.586 305.316C495.903 304.229 536.335 304.672 541.535 304.678C541.544 301.525 542.022 290.404 540.77 288.397L541.453 288.273C545.843 288.757 553.268 288.655 557.891 288.73Z" fill="#2A2E34"/>
<path d="M494.586 305.316C498.347 305.424 502.11 305.458 505.872 305.419C506.033 311.139 506.296 317.115 506.337 322.814L502.325 323.233L506.069 323.485C506.15 327.891 506.355 332.898 506.154 337.243C500.941 337.322 495.465 337.494 490.274 337.426C490.313 349.063 490.036 360.816 490.176 372.397C485.78 372.345 477.712 372.021 473.629 372.527L473.591 354.737L473.635 337.39L473.657 320.254C473.707 315.713 473.727 311.869 473.445 307.347L473.836 305.624C478.78 305.831 484.121 306.217 488.999 305.673L494.586 305.316Z" fill="#B6B9C3"/>
<path d="M494.586 305.316C498.347 305.424 502.11 305.458 505.872 305.419C506.033 311.139 506.296 317.115 506.337 322.814L502.325 323.233L489.565 323.002C489.614 327.289 489.854 333.192 489.619 337.356L473.635 337.39L473.657 320.254C473.707 315.713 473.727 311.869 473.445 307.347L473.836 305.624C478.78 305.831 484.121 306.217 488.999 305.673L494.586 305.316Z" fill="#E5E4E4"/>
<path d="M473.836 305.623C478.78 305.83 484.121 306.216 488.999 305.672L489.006 320.255L473.657 320.253C473.707 315.713 473.727 311.868 473.445 307.346L473.836 305.623Z" fill="#C7C5C1"/>
<path d="M473.635 337.39L489.619 337.355C489.557 343.171 489.578 348.988 489.681 354.804C484.754 354.872 478.391 355.139 473.591 354.736L473.635 337.39Z" fill="#D2DFEE"/>
<path d="M575.096 242.322C578.473 241.601 595.051 241.837 599.226 241.84L646.56 241.809C647.815 242.315 648.317 242.186 648.58 243.143C649.817 247.685 649.027 253.939 649.137 258.637C630.548 259.48 610.036 258.908 591.185 259.104L575.032 259.026L575.096 242.322Z" fill="#D2DFEE"/>
<path d="M575.096 242.322C579.625 243.033 586.28 242.668 591.024 242.628C591.079 247.896 591.292 253.9 591.185 259.104L575.032 259.026L575.096 242.322Z" fill="#E5E4E4"/>
<path d="M575.142 274.49C575.447 284.65 575.181 295.473 575.13 305.685L558.822 305.66C558.83 311.416 558.894 317.257 558.827 323.006C541.106 323.625 523.382 322.879 506.069 323.485L502.325 323.233L506.338 322.814C506.296 317.115 506.033 311.139 505.872 305.418C517.632 305.412 530.224 305.642 541.914 305.354L558.517 305.304L558.57 288.254L574.507 288.249C574.497 284.72 574.236 277.523 575.142 274.49Z" fill="#C7C5C1"/>
<path d="M505.872 305.418C517.632 305.412 530.224 305.642 541.914 305.354L542.505 322.696C531.043 322.694 517.662 323.081 506.338 322.814C506.296 317.115 506.033 311.138 505.872 305.418Z" fill="#E5E4E4"/>
<path d="M744.075 305.35L750.284 305.643L750.321 321.133L749.99 322.742C745.336 323.358 735.35 323.209 730.311 323.221C718.371 323.257 706.431 323.192 694.491 323.027C694.417 317.244 694.552 311.21 694.601 305.407C707.741 305.433 732.019 306.229 744.075 305.35Z" fill="#D2DFEE"/>
<path d="M750.284 305.643C754.497 306.396 761.183 306.134 765.622 305.995C766.792 307.808 766.29 318.086 766.277 321.147L766.302 352.514C765.065 354.07 765.102 354.335 762.377 354.501C758.483 354.737 754.466 354.864 750.553 355.055C750.572 360.07 750.829 368.006 750.162 372.752C748.306 361.336 752.145 334.622 749.99 322.742L750.321 321.133L750.284 305.643Z" fill="#888E9D"/>
<path d="M750.284 305.643C754.497 306.396 761.183 306.134 765.622 305.995C766.792 307.808 766.29 318.086 766.277 321.147C761.103 320.886 755.531 321.065 750.321 321.133L750.284 305.643Z" fill="#545962"/>
<path d="M558.22 259.234L560.187 259.328C564.067 260.227 571.189 259.892 575.432 259.783L575.519 273.771L575.142 274.49C574.236 277.523 574.497 284.72 574.507 288.249L558.57 288.253C558.625 280.476 559.042 266.544 558.22 259.234Z" fill="#E5E4E4"/>
<path d="M560.187 259.328L575.032 259.026L591.185 259.104C590.956 263.928 590.845 268.757 590.855 273.586L575.519 273.771L575.432 259.783C571.189 259.892 564.067 260.227 560.187 259.328Z" fill="#D2DFEE"/>
<path d="M628.729 273.503C630.56 272.443 634.314 273.581 636.665 273.45C645.36 272.966 643.963 283.276 644.074 288.631C644.576 295.009 644.343 304.319 644.263 310.904L644.41 323.597C640.479 323.559 633.946 323.3 630.303 323.877C621.565 323.722 612.822 323.728 604.083 323.895C600.19 323.539 595.832 323.4 591.89 323.195C592.009 319.2 591.791 315.178 591.644 311.18C590.896 306.781 591.235 293.527 591.265 288.542C591.131 284.448 591.255 279.71 591.264 275.563C595.204 275.433 600.38 275.452 604.107 274.575C606.05 273.071 624.002 273.84 628.729 273.503Z" fill="#2A2E34"/>
<path d="M628.729 273.503C630.56 272.443 634.314 273.581 636.665 273.45C645.359 272.966 643.963 283.276 644.074 288.631L630.548 288.775C630.603 285.656 631.056 276.577 630.07 274.001L628.729 273.503Z" fill="#989798"/>
<path d="M630.542 311.011L644.263 310.904L644.41 323.597C640.479 323.559 633.946 323.3 630.303 323.877C630.572 320.208 630.487 314.814 630.542 311.011Z" fill="#989798"/>
<path d="M591.264 275.563C595.204 275.433 600.38 275.452 604.107 274.575L604.104 288.445C600.301 288.47 594.934 288.332 591.265 288.541C591.131 284.448 591.255 279.709 591.264 275.563Z" fill="#989798"/>
<path d="M591.644 311.18L604.007 311.219C604.015 314.836 603.849 320.441 604.083 323.895C600.19 323.539 595.832 323.4 591.89 323.195C592.009 319.2 591.791 315.178 591.644 311.18Z" fill="#989798"/>
<path d="M607.605 290.838L627.345 290.876V305.648C620.781 305.553 614.144 305.59 607.574 305.577L607.605 290.838Z" fill="#A5B2C0"/>
<path d="M766.339 391.158C769.774 391.01 778.921 390.694 782.093 391.317L783.263 391.599L783.434 392.105L783.361 409.537C778.224 409.579 772.205 409.781 767.135 409.6C766.688 414.822 766.835 420.907 766.841 426.212C734.033 426.986 698.569 426.288 665.596 426.309L473.459 426.262C473.595 420.68 473.341 414.929 473.446 409.267L473.13 409.114C472.789 403.882 472.971 397.058 472.963 391.707C468.605 391.725 460.758 392.08 456.923 391.3C460.539 390.892 469.49 390.835 473.165 391.196C524.97 392.724 578.357 391.92 630.303 391.925L694.375 391.933C704.294 391.933 718.414 392.34 728.021 391.793C732.87 391.806 743.077 391.571 747.59 391.942C753.052 392.049 760.62 391.348 766.339 391.158Z" fill="#C7C5C1"/>
<path d="M766.339 391.158C769.774 391.01 778.921 390.694 782.093 391.317C778.107 391.935 770.925 391.684 766.651 391.667C766.688 396.945 766.969 404.273 766.706 409.387C752.121 409.766 735.705 409.455 720.998 409.454L632.997 409.441C580.707 409.464 525.542 410.409 473.446 409.267L473.13 409.114C472.789 403.882 472.971 397.058 472.963 391.707C468.605 391.725 460.758 392.08 456.923 391.3C460.539 390.892 469.49 390.835 473.165 391.196C524.97 392.724 578.357 391.92 630.303 391.925L694.375 391.933C704.294 391.933 718.414 392.34 728.021 391.793C732.87 391.806 743.077 391.571 747.59 391.942C753.052 392.049 760.62 391.348 766.339 391.158Z" fill="#2A2E34"/>
<path d="M801.65 372.841C811.772 372.874 825.279 372.503 835.131 373.022L835.419 373.282L835.456 391.212C824.997 391.75 810.29 391.306 799.421 391.263C799.428 386.109 799.666 378.294 798.95 373.41L801.65 372.841Z" fill="white"/>
<path d="M456.429 391.353L456.923 391.3C460.758 392.08 468.605 391.725 472.963 391.706C472.971 397.058 472.789 403.882 473.13 409.114C468.155 409.809 461.661 409.568 456.524 409.538C456.551 403.476 456.519 397.414 456.429 391.353Z" fill="#C7C5C1"/>
<path d="M783.367 372.886C789.416 372.883 795.619 372.957 801.65 372.841L798.95 373.41C798.552 379.312 798.852 385.634 798.803 391.587C794.609 391.713 787.371 391.692 783.434 392.105L783.263 391.599L783.367 372.886Z" fill="#E5E4E4"/>
<path d="M841.272 391.367C844.879 391.299 848.492 391.269 852.104 391.277C852.037 397.064 852.018 402.852 852.055 408.639C847.732 409.09 840.599 408.973 836.062 409.035C835.976 403.459 835.878 398.071 836.037 392.488C836.999 391.542 839.601 391.565 841.272 391.367Z" fill="white"/>
<path d="M510.318 469.552L559.366 469.58L559.39 484.469L574.888 484.565C575.172 489.379 575.106 494.962 575.164 499.838L589.423 500.087C589.748 521.508 589.438 543.676 589.394 565.159L574.863 565.149L574.744 581.034L559.344 581.112L559.337 596.367L589.416 596.431L589.554 611.53L605.555 611.646L605.702 626.96L621.743 626.966L621.731 684.608L557.559 684.59L446.787 684.566C446.678 665.37 446.672 646.174 446.768 626.978L463.127 626.893L463.218 611.524L479.314 611.548L479.557 596.353L510.272 596.369L510.323 581.101L494.848 581.095C494.771 575.841 494.823 570.469 494.815 565.204L479.596 565.171C479.077 544.317 479.386 520.853 479.554 499.911L494.526 499.801L494.799 484.505L510.287 484.447L510.318 469.552Z" fill="#3F6DB0"/>
<path d="M446.712 740.236C484.517 739.422 525.171 740.181 563.273 740.175L797.854 740.2C797.903 745.153 798.809 767.282 797.168 770.38L795.215 770.607L446.706 770.515C446.656 760.418 446.657 750.327 446.712 740.236Z" fill="#7C7D80"/>
<path d="M446.759 817.056L733.874 817.044L733.862 847.102C704.092 847.72 672.099 847.084 642.182 847.096L446.685 847.065L446.759 817.056Z" fill="#989798"/>
<path d="M724.824 500.122L757.093 499.946L757.142 547.367L804.32 547.393L804.326 581.074L757.111 581.048L757.056 626.893C746.524 627.126 735.442 626.973 724.867 626.991C724.622 611.794 724.757 596.242 724.733 581.014L678.099 581.062L678.093 547.359L724.751 547.429L724.824 500.122Z" fill="#3F6DB0"/>
</svg>
