<svg width="1254" height="1254" viewBox="0 0 1254 1254" fill="none" xmlns="http://www.w3.org/2000/svg">
<path d="M1025.85 103L1041.68 103.04C1041.69 108.649 1041.59 114.573 1041.81 120.153C1052.67 120.051 1063.53 120.042 1074.4 120.125C1074.51 125.35 1074.63 130.252 1074.44 135.489L1089.73 135.518C1089.88 140.605 1089.95 145.695 1089.91 150.785L1104.84 150.774C1105.04 156.057 1105.29 161.361 1105.23 166.645L1119.66 166.743L1119.78 183.723C1124.19 183.753 1128.79 183.71 1133.17 183.85C1133.44 194.868 1133.4 205.89 1133.05 216.906C1138 216.893 1143.21 216.793 1148.13 216.906L1148.41 729.037L1148.43 926.107C1148.41 957.212 1149.16 991.912 1148.26 1022.67L1148.14 1045.51L1132.97 1045.39C1132.9 1047.78 1132.92 1051.95 1132.48 1054.15L1132.24 1055.85L1132.26 1059.85C1132.28 1064.21 1132.19 1068.57 1132 1072.92L1120.08 1073.01C1120.06 1076.88 1120.22 1081.14 1119.59 1084.92L1118.98 1086.46C1118.6 1090.31 1118.45 1093.25 1118.36 1097.11C1114.28 1097.12 1108.52 1096.95 1104.68 1097.63C1104.51 1102.21 1104.56 1106.39 1104.65 1110.98L1089.54 1110.99L1089.55 1125.06L1074.42 1125.02C1074.44 1128.9 1074.56 1133.38 1074.4 1137.19L1036.8 1137.18L1036.75 1151.59L217.535 1151.75L217.388 1137.27L179.898 1137.2C179.779 1133.15 179.622 1129.09 179.65 1125.03L164.776 1125.11C164.783 1120.86 164.626 1115.41 164.812 1111.27C161.033 1110.7 153.585 1110.96 149.494 1110.99L149.623 1098.4L149.526 1097.2C146.691 1096.65 138.769 1096.91 135.474 1096.94C135.539 1093.39 135.477 1089.85 135.29 1086.3C134.802 1083.48 134.829 1076.15 134.767 1072.93L122.504 1072.82C122.583 1067.15 122.334 1061.67 122.111 1056.02L121.908 1055.08C121.172 1052.93 121.441 1047.9 121.455 1045.4L106.543 1045.51L106.332 1022.65C105.672 1016.12 106.195 1000.31 106.229 993.112L106.259 940.08L106.362 756.964L106.474 362.701C106.545 314.274 105.868 265.243 106.405 216.927L121.855 216.917L121.957 183.897L134.849 183.83L134.886 166.776L149.447 166.55L149.438 150.789L164.652 150.733L164.629 135.541L179.982 135.514C179.901 130.411 179.919 125.262 179.901 120.154C190.879 120.096 201.858 120.113 212.836 120.208C212.594 114.691 212.739 108.622 212.759 103.059L1025.85 103Z" fill="#1D232A"/>
<path d="M216.287 139.946C254.067 140.704 292.979 140.26 330.834 140.297L555.092 140.256L1040.89 140.025C1040.72 144.494 1040.77 147.731 1040.97 152.209C1051.68 152.573 1062.39 152.681 1073.1 152.534C1073.28 157.833 1073.24 162.674 1073.15 167.97L1088.1 168.09L1088.16 183.914L1102.26 183.895C1102.19 178.943 1101.9 172.762 1102.61 167.965C1103.17 172.392 1102.93 179.805 1102.91 184.472C1106.04 184.45 1113.98 184.154 1116.56 184.893L1116.79 185.556C1117.24 195.844 1116.89 207.544 1116.81 217.936L1131.61 217.918C1130.85 269.406 1130.69 320.901 1131.1 372.392L1131.12 629.194L1131.1 870.491C1131.1 910.94 1130.17 955.467 1131.18 995.561C1124.64 995.603 1109.71 996.161 1103.98 995.444C1104.07 1006.51 1104.92 1015.74 1102.12 1026.51L1088.75 1026.38C1088.71 1029.3 1089.02 1037.9 1087.62 1039.75C1086.27 1043.34 1086.38 1043.48 1081.84 1043.52C1078.23 1043.56 1076.11 1041.54 1073.44 1044.72C1073.17 1046.96 1073.21 1047.35 1073.35 1049.65C1073.27 1052.14 1073.37 1053.49 1072.67 1055.85C1071.94 1058.6 1072.16 1066.39 1072.17 1069.67L1057.14 1069.32V1078.56L1024.37 1078.52L1024.37 1095.44C1015.63 1094.92 1001.3 1095.36 992.179 1095.34L922.719 1095.37L738.005 1095.45L457.945 1095.49C382.211 1095.34 304.826 1094.67 229.173 1095.54L229.158 1078.72C218.078 1078.53 206.995 1078.58 195.918 1078.88C195.767 1075.96 195.76 1072.6 195.69 1069.65C191.028 1069.77 186.075 1069.53 181.389 1069.38C181.349 1065.2 181.681 1060.65 180.892 1056.64L179.49 1055.8C175.449 1055.63 170.758 1056.15 167.29 1054.7C165.611 1052.84 166.196 1052.95 166.112 1049.63L165.769 1039.36L151.5 1039.34C151.594 1033.99 151.576 1028.65 151.446 1023.31C135.72 1023.54 138.711 1022.24 138.579 1007.49L138.632 1006.99C139.798 1006.36 139.288 1006.8 140.108 1005.61C140.2 997.912 143.545 993.32 143.502 986.756L143.494 979.69C142.712 943.521 143.442 904.456 143.436 867.956L143.443 645.965L142.901 217.232L151.295 216.998C151.258 213.703 151.105 205.825 151.609 202.888C153.019 194.675 154.027 192.947 153.789 184.338L167.542 183.899C167.383 178.741 167.452 173.948 167.548 168.783C171.993 168.827 177.2 168.279 181.695 167.916C181.871 163.276 181.826 158.273 181.873 153.602C186.432 153.696 213.262 152.634 215.786 150.896C216.665 147.674 216.336 143.393 216.287 139.946Z" fill="#E4E7ED"/>
<path d="M1116.08 196.532C1116.12 192.768 1116.02 189.243 1116.79 185.557C1117.24 195.844 1116.89 207.544 1116.81 217.937L1131.61 217.918C1130.85 269.406 1130.69 320.901 1131.1 372.393L1131.12 629.195L1131.1 870.492C1131.1 910.941 1130.17 955.467 1131.18 995.561C1124.64 995.604 1109.71 996.161 1103.98 995.445C1108.18 995.09 1109.72 995.2 1113.88 995.524C1114.96 994.159 1113.98 988.079 1113.93 985.862C1113.85 982.666 1113.73 979.537 1113.75 976.316L1113.83 857.492L1113.84 468.593L1113.86 305.428C1113.72 280.811 1113.77 256.193 1114.03 231.576L1103.74 231.014C1104.02 218.508 1102.33 211.104 1103.27 196.84C1107.35 196.578 1111.95 196.6 1116.08 196.532Z" fill="#D2E4F8"/>
<path d="M166.112 1049.63C168.752 1049.63 176.04 1049 177.455 1049.87C179.702 1052.47 178.369 1053.09 179.49 1055.8C175.449 1055.63 170.758 1056.15 167.29 1054.7C165.611 1052.84 166.196 1052.95 166.112 1049.63Z" fill="#D2E4F8"/>
<path d="M143.495 979.69C145.24 990.479 142.195 995.414 142.68 1005.91C142.714 1006.64 142.658 1006.52 142.33 1007.28L138.58 1007.49L138.632 1006.99C139.798 1006.36 139.288 1006.8 140.109 1005.61C140.2 997.912 143.545 993.32 143.502 986.756L143.495 979.69Z" fill="#EEEFF2"/>
<path d="M228.324 162.997C233.99 162.202 248.068 162.591 254.364 162.617L303.103 162.787L482.03 162.781L837.039 162.787L955.569 162.745C977.955 162.735 1001.46 162.267 1023.69 162.978L1024.66 163.034C1025.18 163.669 1025.71 164.304 1026.25 164.938C1029.73 165.607 1034.78 166.282 1038.05 167.01C1038.13 170.562 1037.57 176.134 1039.63 178.473L1039.85 180.744C1043.66 180.501 1047.46 180.211 1051.28 180.154C1051.35 184.401 1051.34 188.943 1051.71 193.146L1055.55 193.133C1057.95 196.692 1058.91 196.08 1063.21 196.205C1063.31 199.075 1063.54 202.495 1063.44 205.316L1071.69 205.07C1071.58 208.1 1071.08 213.633 1072.35 216.172L1074.29 217.046C1078.34 216.845 1081.35 216.872 1085.39 216.993C1085.45 219.974 1085.27 228.137 1086.52 230.285C1087.56 234.41 1087.36 252.647 1087.37 258.026L1087.31 311.26L1087.18 512.25L1087 848.277L1087.02 947.22C1087.01 957.739 1087.7 981.515 1086.82 991.146C1085.56 992.604 1085.38 992.206 1083.03 992.72C1079.92 992.512 1075.91 992.016 1072.94 992.591C1072.73 993.002 1072.45 993.381 1072.35 993.834L1072.24 1007.5C1068.14 1007.5 1060.7 1007.27 1056.93 1007.92C1061.2 1008.47 1067.85 1008.27 1072.32 1008.15C1072.32 1013.15 1072.37 1018.21 1072.13 1023.19C1067.46 1023.34 1062.53 1023.56 1057.88 1023.56C1057.73 1028.61 1057.44 1034.14 1057.53 1039.16C1051.82 1039.74 1047.97 1039.86 1042.2 1039.89L1042.3 1055.65L1025.22 1055.87C1025.29 1050.91 1025.56 1044.8 1024.99 1039.97C1024.47 1044.26 1025.19 1053.78 1023.95 1056.22L1024.83 1057.09C1025.32 1063.02 1025.04 1070.43 1024.55 1076.36C970.313 1077.47 913.479 1076.53 858.99 1076.54L539.199 1076.56L335.454 1076.53L269.612 1076.54C256.685 1076.55 241.837 1076.94 229.117 1076.21C228.763 1069.62 228.719 1062.96 228.613 1056.36C228.141 1051.16 228.712 1045.48 228.13 1039.95C227.429 1043.96 227.772 1051.47 227.851 1055.8C223.034 1055.81 217.7 1055.38 212.85 1055.1L212.611 1039.94L196.85 1039.53C196.842 1034.18 196.695 1028.72 196.607 1023.37L196.242 1023.05L181.282 1022.87L181.078 1008.22C185.911 1008.27 190.743 1008.26 195.575 1008.21L195.554 1007.65C191.912 1007.62 184.126 1007.88 181.067 1007.12L180.453 1005.76C180.086 1006.74 180.36 1006.21 179.5 1007.26C175.525 1007.86 170.201 1007.55 166.062 1007.45C166.17 1003.17 166.496 996.835 166.084 992.769C164.135 989.34 165.304 880.044 165.294 867.375L165.327 422.607L165.409 286.316C165.454 275.02 165.422 263.725 165.315 252.429C165.277 246.46 165.002 235.709 165.735 230.067C166.21 226.162 166.16 221.182 166.227 217.161C170.197 217.053 174.214 217.026 178.188 216.97L180.093 216.122C181.405 213.713 180.866 208.294 180.752 205.358L189.203 205.179C189.182 202.612 188.972 200.297 189.676 197.853C191.205 195.963 195.029 195.364 197.661 193.737L198.591 193.152C199.773 192.907 201.869 192.776 203.143 192.653L203.451 179.9C207.493 180.078 211.379 180.87 214.186 178.418C215.565 175.686 214.203 170.405 216.648 166.895C219.658 162.578 223.607 164.355 228.324 162.997Z" fill="#6888B0"/>
<path d="M1023.83 183.212C1023.82 185.595 1023.58 193.232 1024.5 195.01L1038.98 194.883C1038.93 199.183 1038.3 205.582 1040.29 208.789C1040.33 209.047 1040.37 209.305 1040.4 209.563C1040.24 212.069 1040.04 214.573 1039.81 217.073C1043.83 217.096 1051.34 216.923 1055.03 217.535L1055.9 217.701C1057.14 222.161 1055.74 227.715 1056.74 231.623C1057.27 236.099 1057.14 240.46 1057.13 244.964C1059.19 244.982 1069.24 245.237 1070.96 244.999L1070.79 990.969L1055.69 990.993C1055.66 996.259 1055.58 1001.6 1055.61 1006.86L1039.79 1006.94L1039.79 1022.83L1023.93 1022.82L1023.96 1039.54L228.716 1039.57C228.775 1034.15 228.963 1028.2 228.745 1022.83L213.278 1022.83L213.182 1006.95C210.007 1006.97 199.217 1007.37 196.881 1006.36C197.374 1002.05 197.112 995.628 197.061 991.14L189.097 990.969C188.91 987.258 187.838 982.715 190.723 980.014C192.445 979.659 192.015 979.947 193.389 979.065C194.016 972.948 193.777 965.068 193.8 958.786L193.849 924.472L193.846 819.854L193.755 463.393L193.641 273.423C193.639 269.151 193.384 255.885 193.854 252.105C195.035 242.593 197.962 242.753 196.324 231.588L196.553 231.307C196.793 227.165 196.667 221.788 196.689 217.552C201.507 216.909 208.179 217.023 213.172 216.962C215.039 217.108 214.98 217.15 216.785 216.72C218.387 214.7 217.871 210.594 217.839 207.785L229.113 207.746L229.261 194.871L229.517 194.571C234.925 194.906 245.832 194.423 251.892 194.413L303.172 194.374L463.952 194.371L829.704 194.396C894.026 194.402 959.194 193.831 1023.46 194.532C1023.35 190.135 1023.23 187.573 1023.83 183.212Z" fill="#D2E4F8"/>
<path d="M1024.5 195.01L1038.98 194.883C1038.93 199.182 1038.3 205.582 1040.29 208.789C1040.33 209.047 1040.37 209.305 1040.4 209.563L1038.94 209.95C1038.12 209.021 1038.36 209.337 1037.73 208.471L1037.35 207.932C1033.75 207.272 1028.76 207.655 1024.98 207.788C1024.97 203.19 1024.98 199.568 1024.5 195.01Z" fill="white"/>
<path d="M1055.03 217.535L1055.9 217.701C1055.89 222.221 1055.85 226.741 1055.77 231.259C1053.2 231.253 1046.8 231.548 1044.9 230.619C1044.63 220.058 1042.91 226.001 1039.99 217.733C1044.98 217.81 1050.08 218.004 1055.03 217.535Z" fill="#E4E7ED"/>
<path d="M196.689 217.552C201.459 217.88 210.131 216.886 213.013 219.043C213.508 220.785 213.539 219.912 212.646 221.726C209.857 222.265 208.153 222.003 205.364 221.816C205.462 224.815 205.475 228.676 205.771 231.592C203.077 231.656 199.028 231.959 196.553 231.307C196.793 227.165 196.667 221.788 196.689 217.552Z" fill="#EEEFF2"/>
<path d="M228.613 1056.36L727.602 1056.28L926.117 1056.31L986.974 1056.34C999.153 1056.36 1011.83 1056.68 1023.95 1056.22L1024.83 1057.09C1025.32 1063.02 1025.04 1070.43 1024.55 1076.36C970.313 1077.47 913.479 1076.53 858.99 1076.54L539.199 1076.56L335.454 1076.53L269.612 1076.54C256.685 1076.55 241.837 1076.94 229.117 1076.21C228.763 1069.62 228.719 1062.96 228.613 1056.36Z" fill="white"/>
<path d="M863.779 178.95C916.339 179.825 969.242 178.562 1021.83 178.98C1022.74 178.988 1023.02 179.189 1023.72 179.683C1023.97 181.414 1023.99 181.477 1023.83 183.212C1023.23 187.573 1023.35 190.135 1023.46 194.532C959.194 193.831 894.026 194.403 829.704 194.396L463.952 194.371L303.172 194.374L251.892 194.413C245.831 194.423 234.925 194.906 229.517 194.571C229.753 189.92 229.497 183.699 229.439 178.938C263.463 179.621 299.535 179.015 333.692 179.014L534.74 179.012L750.968 179.015C788.183 179.018 826.716 179.571 863.779 178.95Z" fill="#E4E7ED"/>
<path d="M181.102 231.574L196.324 231.588C197.962 242.753 195.035 242.593 193.854 252.105C193.384 255.885 193.639 269.151 193.641 273.423L193.755 463.393L193.846 819.854L193.849 924.472L193.8 958.786C193.777 965.068 194.016 972.948 193.389 979.065C192.015 979.947 192.445 979.659 190.724 980.014C187.838 982.715 188.91 987.258 189.097 990.969L181.172 990.981C181.488 981.411 180.967 969.973 180.954 960.139L180.955 888.861L180.966 665.351L181.022 372.194C181.019 326.187 182.044 277.236 181.102 231.574Z" fill="#E4E7ED"/>
<path d="M1056.93 1007.92C1061.2 1008.47 1067.85 1008.27 1072.32 1008.15C1072.32 1013.15 1072.37 1018.21 1072.13 1023.19C1067.46 1023.34 1062.53 1023.56 1057.88 1023.56C1057.73 1028.61 1057.44 1034.14 1057.53 1039.16C1051.82 1039.74 1047.97 1039.86 1042.2 1039.89L1042.3 1055.65L1025.22 1055.87C1025.29 1050.91 1025.56 1044.8 1024.99 1039.97C1030.35 1039.99 1035.89 1039.81 1041.26 1039.7C1041.63 1034.26 1041.61 1028.99 1041.64 1023.56L1056.93 1023.41V1007.92Z" fill="white"/>
<path d="M1024.66 163.034C1025.18 163.669 1025.71 164.303 1026.25 164.938C1029.73 165.607 1034.78 166.282 1038.05 167.01C1038.13 170.562 1037.57 176.134 1039.63 178.473L1039.85 180.744C1043.66 180.5 1047.46 180.21 1051.28 180.154C1051.35 184.401 1051.34 188.942 1051.71 193.146C1048.05 193.255 1042.54 193.9 1039.41 193.848L1038.98 194.883L1024.5 195.01C1023.58 193.232 1023.82 185.595 1023.83 183.212C1023.99 181.477 1023.97 181.413 1023.72 179.683C1023.02 179.188 1022.74 178.987 1021.83 178.98C969.242 178.561 916.339 179.824 863.778 178.95C867.128 178.29 877.206 178.419 881.168 178.413L913.24 178.433L1023.81 178.332C1023.93 173.038 1023.85 168.276 1023.69 162.978L1024.66 163.034Z" fill="#7293BC"/>
<path d="M1024.66 163.034C1025.18 163.669 1025.71 164.303 1026.25 164.938C1029.73 165.607 1034.78 166.282 1038.05 167.01C1038.13 170.562 1037.57 176.134 1039.63 178.473C1035.54 178.173 1028.78 178.418 1024.48 178.439C1024.51 173.303 1024.57 168.169 1024.66 163.034Z" fill="#D2E4F8"/>
<path d="M1039.85 180.745C1043.66 180.501 1047.46 180.211 1051.28 180.154C1051.35 184.401 1051.34 188.943 1051.71 193.146C1048.05 193.255 1042.54 193.901 1039.41 193.848C1040 191.457 1039.85 183.548 1039.85 180.745Z" fill="#D2E4F8"/>
<path d="M196.607 1023.37C201.365 1023.52 207.382 1024.06 211.915 1023.92C211.853 1030.17 212.42 1034.12 212.611 1039.94L196.85 1039.53C196.841 1034.18 196.694 1028.72 196.607 1023.37Z" fill="white"/>
<path d="M214.485 194.913L229.261 194.871L229.113 207.745L217.839 207.785C217.871 210.594 218.387 214.699 216.785 216.72C214.98 217.15 215.039 217.108 213.172 216.962C213.191 213.167 213.827 211.452 210.497 209.379L213.173 208.576C215.54 205.905 214.612 198.824 214.485 194.913Z" fill="#EEEFF2"/>
<path d="M212.611 1039.94L228.13 1039.95C227.429 1043.96 227.772 1051.47 227.85 1055.8C223.034 1055.81 217.7 1055.38 212.85 1055.1L212.611 1039.94Z" fill="white"/>
<path d="M195.576 1008.21C196.331 1013.27 195.756 1018.14 196.242 1023.05L181.282 1022.87L181.079 1008.22C185.911 1008.27 190.743 1008.26 195.576 1008.21Z" fill="white"/>
<path d="M166.084 992.769L180.255 992.548C180.307 996.871 180.283 1001.46 180.453 1005.76C180.086 1006.74 180.359 1006.21 179.5 1007.26C175.525 1007.86 170.201 1007.55 166.062 1007.45C166.17 1003.17 166.496 996.834 166.084 992.769Z" fill="#EEEFF2"/>
<path d="M1056.74 231.623L1071.07 231.679L1070.96 244.999C1069.24 245.237 1059.19 244.982 1057.13 244.964C1057.14 240.46 1057.27 236.098 1056.74 231.623Z" fill="#E4E7ED"/>
<path d="M214.186 178.417C215.565 175.686 214.203 170.404 216.648 166.895C219.658 162.578 223.606 164.355 228.324 162.997C228.283 168.318 228.303 173.199 228.508 178.512C224.367 178.468 218.162 178.201 214.186 178.417Z" fill="#D2E4F8"/>
<path d="M166.227 217.161C170.197 217.053 174.214 217.026 178.188 216.97L178.317 230.205L165.735 230.067C166.21 226.162 166.16 221.182 166.227 217.161Z" fill="#ACB0BA"/>
<path d="M1074.3 217.045C1078.34 216.845 1081.35 216.872 1085.39 216.993C1085.45 219.974 1085.27 228.137 1086.52 230.285C1082.81 230.004 1078.09 230.178 1074.28 230.219C1074.4 225.726 1074.57 221.539 1074.3 217.045Z" fill="#D2E4F8"/>
<path d="M203.451 179.899C207.493 180.078 211.38 180.87 214.186 178.417C212.973 182.789 213.338 188.355 213.381 193.001L203.144 192.653L203.451 179.899Z" fill="#D2E4F8"/>
<path d="M1055.31 205.558C1058.8 205.149 1059.94 205.103 1063.44 205.316L1071.69 205.07C1071.58 208.1 1071.08 213.632 1072.35 216.172L1074.29 217.045C1070.73 216.886 1066.78 216.946 1063.18 216.933L1063.26 206.02C1060.04 206.061 1058.51 206.189 1055.31 205.558Z" fill="#ACB0BA"/>
<path d="M189.203 205.179L189.697 205.461C189.102 209.123 189.363 213.191 189.432 216.942C185.704 216.944 181.909 216.912 178.188 216.969L180.093 216.121C181.405 213.712 180.866 208.294 180.752 205.358L189.203 205.179Z" fill="#ACB0BA"/>
<path d="M189.203 205.179C189.181 202.612 188.971 200.297 189.676 197.853C191.205 195.963 195.028 195.365 197.661 193.737L198.591 193.152L198.494 205.786C195.741 205.69 192.389 205.669 189.697 205.462L189.203 205.179Z" fill="#D2E4F8"/>
<path d="M1055.55 193.133C1057.95 196.692 1058.91 196.079 1063.21 196.204C1063.31 199.075 1063.54 202.495 1063.44 205.316C1059.94 205.103 1058.8 205.149 1055.31 205.558C1052.62 202.77 1053.27 196.11 1055.55 193.133Z" fill="#D2E4F8"/>
<path d="M1072.35 993.834C1072.45 993.381 1072.73 993.001 1072.94 992.591C1075.91 992.016 1079.92 992.512 1083.03 992.72L1086.03 992.995C1088.03 996.13 1086.88 1003.16 1087.02 1007.48L1072.76 1007.39C1072.81 1002.82 1073 998.359 1072.35 993.834Z" fill="white"/>
<path d="M213.274 120.702L571.278 120.879L1025.1 120.797L1041.1 120.76L1040.91 136.808L1073.35 136.83L1073.36 152.081L1088.16 152.112C1087.97 157.625 1088.05 162.383 1088.2 167.899L1102.61 167.965C1101.9 172.762 1102.19 178.943 1102.26 183.895L1088.16 183.914L1088.1 168.09L1073.15 167.97C1073.24 162.674 1073.28 157.833 1073.1 152.534C1062.39 152.681 1051.68 152.573 1040.97 152.209C1040.77 147.731 1040.72 144.494 1040.89 140.025L555.092 140.256L330.834 140.297C292.979 140.26 254.067 140.704 216.287 139.946C216.336 143.393 216.665 147.674 215.786 150.896C213.262 152.634 186.432 153.696 181.873 153.602C181.826 158.273 181.87 163.276 181.695 167.916C177.2 168.279 171.993 168.827 167.548 168.783C167.452 173.948 167.383 178.741 167.542 183.899L153.789 184.338C154.027 192.947 153.019 194.675 151.609 202.888C151.105 205.825 151.258 213.703 151.295 216.998L142.901 217.232L143.443 645.965L143.436 867.956C143.442 904.456 142.712 943.521 143.494 979.69L143.502 986.756C143.544 993.32 140.2 997.912 140.108 1005.61C139.288 1006.8 139.798 1006.36 138.632 1006.99C138.341 1004.45 138.403 998.641 138.364 995.836L123.848 995.922C124.756 934.869 123.919 871.379 123.921 810.185L123.929 437.386L123.915 287.538L124.036 252.161C124.057 246.977 124.385 234.066 123.334 229.518L123.203 217.855L137.908 217.727C137.959 206.626 137.9 195.525 137.73 184.425C142.121 184.314 146.512 184.224 150.904 184.158C151.084 178.921 150.977 173.147 150.988 167.866L165.781 167.827L165.715 152.099L180.888 151.996L180.845 136.779L213.308 136.787L213.274 120.702Z" fill="white"/>
<path d="M123.334 229.519C124.385 234.066 124.057 246.977 124.036 252.161L123.916 287.538L123.929 437.386L123.922 810.185C123.919 871.379 124.756 934.869 123.849 995.922L138.365 995.836C138.403 998.641 138.341 1004.45 138.632 1006.99L138.58 1007.49C138.711 1022.24 135.721 1023.54 151.447 1023.31C151.577 1028.65 151.594 1034 151.5 1039.34L165.77 1039.37L166.113 1049.63C166.197 1052.95 165.612 1052.84 167.291 1054.7C170.758 1056.15 175.449 1055.63 179.49 1055.8L180.892 1056.64C181.682 1060.65 181.35 1065.2 181.39 1069.38C186.075 1069.53 191.028 1069.77 195.691 1069.65C195.76 1072.6 195.768 1075.96 195.918 1078.88C206.996 1078.58 218.078 1078.53 229.158 1078.72L229.173 1095.54C304.826 1094.67 382.212 1095.34 457.946 1095.49L738.005 1095.45L922.719 1095.37L992.179 1095.34C1001.3 1095.36 1015.63 1094.92 1024.37 1095.44L1024.37 1078.52L1057.14 1078.56V1069.33L1072.17 1069.67C1072.16 1066.39 1071.94 1058.6 1072.67 1055.85C1073.37 1053.49 1073.27 1052.14 1073.35 1049.65C1073.21 1047.35 1073.17 1046.96 1073.44 1044.72C1076.11 1041.54 1078.23 1043.56 1081.84 1043.52C1086.38 1043.48 1086.27 1043.34 1087.62 1039.75C1089.02 1037.9 1088.71 1029.3 1088.75 1026.38L1102.12 1026.51C1104.92 1015.74 1104.07 1006.51 1103.98 995.444C1109.71 996.161 1124.64 995.604 1131.18 995.561C1131.69 1004.1 1131.12 1011.91 1131.09 1020.37L1116.71 1020.41L1116.43 1054.12C1111.93 1054.15 1107.29 1054.24 1102.8 1054.2L1102.65 1070.31C1097.66 1070.32 1092.53 1070.39 1087.55 1070.31L1087.48 1085.28L1072.64 1085.32L1072.59 1099.17L1035.58 1099.03L1035.54 1115.33L437.184 1115.58L285.059 1115.55C263.676 1115.55 238.875 1114.83 217.93 1115.41L218.052 1099.12L181.286 1098.94C181.148 1094.47 180.939 1089.81 180.943 1085.36L166.043 1085.29L165.868 1070.38L151.341 1070.29L151.182 1054.48L137.847 1054.36C137.781 1043.04 137.784 1031.72 137.858 1020.41C128.345 1020.51 122.735 1023.8 123.022 1012.63C123.737 978.532 123.24 942.951 123.268 908.699L123.316 712.688L123.334 229.519Z" fill="#ACB0BA"/>
<path d="M1088.75 1026.38L1102.12 1026.51C1102.34 1031.22 1102.45 1034.7 1102.24 1039.39C1099.17 1039.41 1090.39 1039.3 1087.62 1039.75C1089.02 1037.9 1088.71 1029.3 1088.75 1026.38Z" fill="#D2E4F8"/>
<path d="M1073.35 1049.65C1073.21 1047.35 1073.17 1046.96 1073.44 1044.72C1076.11 1041.54 1078.23 1043.56 1081.84 1043.52C1086.38 1043.48 1086.27 1043.34 1087.62 1039.75L1087.54 1044.77C1086.88 1048.75 1086.97 1050.04 1081.94 1049.98C1079 1049.95 1076.33 1049.58 1073.35 1049.65Z" fill="#D2E4F8"/>
<path d="M1087.54 1044.77C1087.59 1049.45 1086.93 1050.91 1086.66 1055.13L1072.67 1055.85C1073.37 1053.49 1073.27 1052.14 1073.35 1049.65C1076.33 1049.58 1079 1049.95 1081.94 1049.98C1086.97 1050.04 1086.88 1048.75 1087.54 1044.77Z" fill="#D2E4F8"/>
<path d="M1104.68 1097.63C1104.51 1102.21 1104.56 1106.39 1104.65 1110.98L1089.54 1110.99L1089.55 1125.06L1074.42 1125.02C1074.44 1128.9 1074.56 1133.38 1074.4 1137.19L1036.8 1137.18L1036.75 1151.59L217.535 1151.75L217.388 1137.27L179.898 1137.2C179.779 1133.15 179.622 1129.09 179.651 1125.03L164.776 1125.11C164.783 1120.86 164.627 1115.41 164.813 1111.27C168.931 1112.06 175.358 1111.29 179.646 1110.91C179.764 1113.68 179.321 1113.64 180.619 1115.6C186.065 1116.49 210.606 1115.94 217.494 1115.9C217.505 1121.75 217.46 1127.68 217.544 1133.53L1036.55 1133.6L1036.7 1115.9C1041.92 1115.93 1070.51 1116.43 1073.8 1115.49C1074.78 1113.9 1074.58 1112.66 1074.61 1110.77L1074.49 1103.02C1079.57 1103.09 1084.34 1103.22 1089.41 1102.83C1091.07 1094.74 1099.58 1103.26 1104.68 1097.63Z" fill="#D2E4F8"/>
<path d="M1089.41 1102.83C1089.55 1105.64 1089.67 1108.11 1089.63 1110.93L1074.61 1110.77L1074.49 1103.02C1079.57 1103.09 1084.34 1103.22 1089.41 1102.83Z" fill="#9095A0"/>
<path d="M1148.26 1022.67L1148.14 1045.51L1132.97 1045.39C1132.9 1047.78 1132.92 1051.95 1132.48 1054.15C1131.9 1045.62 1132.48 1031.73 1132.61 1022.78L1148.26 1022.67Z" fill="#D2E4F8"/>
<path d="M106.332 1022.65C109.883 1022.67 115.222 1022.9 118.518 1022.29C120.557 1022.78 120.729 1022.43 121.771 1023.72C122.105 1031.18 122.352 1047.64 121.908 1055.08C121.172 1052.93 121.441 1047.9 121.455 1045.4L106.543 1045.51L106.332 1022.65Z" fill="#D2E4F8"/>
<path d="M1104.75 1072.83C1109.89 1072.9 1114.53 1072.81 1119.67 1072.63C1119.36 1077.18 1119.43 1080.34 1119.59 1084.92L1118.98 1086.46C1118.6 1090.31 1118.45 1093.25 1118.36 1097.11C1114.28 1097.12 1108.52 1096.95 1104.68 1097.63L1104.76 1087.11C1104.62 1082.6 1104.75 1077.4 1104.75 1072.83Z" fill="#ACB0BA"/>
<path d="M1104.76 1087.11C1107.69 1085.97 1115.44 1086.41 1118.98 1086.46C1118.6 1090.31 1118.45 1093.25 1118.36 1097.11C1114.28 1097.12 1108.52 1096.95 1104.68 1097.63L1104.76 1087.11Z" fill="#D2E4F8"/>
<path d="M134.865 1072.56C139.323 1073.1 144.853 1072.93 149.436 1072.91C149.424 1076.62 149.195 1083.43 149.502 1086.9L149.61 1087.88L149.526 1097.2C146.691 1096.65 138.769 1096.91 135.474 1096.94C135.539 1093.39 135.477 1089.85 135.29 1086.3C134.802 1083.48 134.829 1076.15 134.767 1072.93L134.865 1072.56Z" fill="#9095A0"/>
<path d="M135.29 1086.3C138.671 1086.29 146.713 1086 149.502 1086.9L149.61 1087.88L149.526 1097.2C146.691 1096.65 138.769 1096.91 135.474 1096.94C135.539 1093.4 135.477 1089.85 135.29 1086.3Z" fill="#D2E4F8"/>
<path d="M149.61 1087.88C152.728 1088.69 160.798 1088.37 164.393 1088.35L164.336 1100.11L164.882 1103.13C164.864 1105.74 164.918 1108.7 164.812 1111.27C161.033 1110.7 153.584 1110.96 149.494 1110.99L149.623 1098.4L149.526 1097.2L149.61 1087.88Z" fill="#9095A0"/>
<path d="M149.623 1098.4C152.553 1100.87 160.042 1100.12 164.336 1100.11L164.882 1103.13C164.864 1105.74 164.918 1108.7 164.812 1111.27C161.033 1110.7 153.584 1110.96 149.494 1110.99L149.623 1098.4Z" fill="#D2E4F8"/>
<path d="M1025.85 103L1041.68 103.04C1041.69 108.649 1041.59 114.573 1041.81 120.153L1041.1 120.761L1025.1 120.797C1026.3 117.428 1026 106.696 1025.85 103Z" fill="#464E5C"/>
<path d="M1132.24 1055.85L1132.26 1059.85C1132.28 1064.21 1132.19 1068.57 1132 1072.92L1120.08 1073C1120.06 1076.88 1120.22 1081.14 1119.59 1084.92C1119.43 1080.34 1119.36 1077.18 1119.67 1072.63C1119.24 1068.08 1119.51 1060.75 1119.54 1056C1124.01 1056.07 1127.78 1056.11 1132.24 1055.85Z" fill="#D2E4F8"/>
<path d="M1120.32 1065.35C1124.42 1064.58 1128.34 1065.44 1131.18 1063.7C1131.96 1063.24 1132.05 1061.03 1132.26 1059.85C1132.28 1064.21 1132.19 1068.57 1132 1072.92L1120.08 1073.01C1120.07 1076.88 1120.22 1081.14 1119.59 1084.92C1119.43 1080.34 1119.36 1077.18 1119.67 1072.63C1120.24 1071 1120.24 1067.24 1120.32 1065.35Z" fill="#EEEFF2"/>
<path d="M122.111 1056.02C126.051 1056.49 130.731 1056.25 134.768 1056.17C134.776 1061.05 134.576 1067.83 134.865 1072.56L134.767 1072.93L122.504 1072.82C122.583 1067.15 122.334 1061.67 122.111 1056.02Z" fill="#D2E4F8"/>
<path d="M1104.76 1087.11L1104.68 1097.63C1099.58 1103.26 1091.07 1094.74 1089.41 1102.83L1089.7 1088.32C1093.37 1088.38 1102.08 1089.09 1104.76 1087.11Z" fill="#9095A0"/>
<path d="M164.882 1103.13L179.733 1103.02C179.711 1105.46 179.777 1108.53 179.646 1110.91C175.358 1111.29 168.931 1112.06 164.812 1111.27C164.918 1108.7 164.865 1105.74 164.882 1103.13Z" fill="#9095A0"/>
<path d="M345.995 336.503C347.5 335.818 348.862 335.201 351.106 335.208C409.897 335.364 468.941 334.356 527.639 335.749C528.005 335.758 529.149 336.46 529.519 336.633C530.163 341.068 529.944 346.791 529.912 351.376C534.924 351.252 541.297 350.197 544.91 353.263C547.797 359.087 545.751 363.125 546.959 368.394C552.459 367.941 557.986 367.916 563.49 368.319C564.045 377.604 563.909 387.072 563.913 396.385L742.03 396.368C753.78 396.359 833.731 395.341 839.071 397.372C841.578 400.927 840.8 409.662 840.731 414.292C845.328 414.234 851.911 413.924 856.265 414.709L858.001 416.46C858.932 420.102 858.577 432.783 858.584 437.339L874.466 437.532L874.529 458.462C880.674 458.062 903.98 457.413 908.778 459.55C910.799 463.661 910.014 471.519 909.875 476.27C916.202 476.038 924.882 473.844 927.077 480.764C928 488.531 927.5 505.785 927.493 514.299C932.924 514.278 938.493 514.187 943.903 514.255L944 885.603C938.576 886.61 932.417 886.388 926.834 886.388C926.938 891.548 927.938 899.201 924.896 902.951C920.396 905.513 914.806 904.374 909.299 904.617L909.257 919.896H556.592C488.109 919.889 418.573 919.25 350.206 920C350.315 915.729 350.856 908.791 349.754 904.909C348.3 903.916 348.901 904.124 347.238 903.756C327.478 907.555 331.823 902.374 330.518 887.457L328.285 885.749C319.538 881.311 330.218 874.852 319.269 872.137C316.387 872.22 315.464 872.463 312.869 871.436C311.119 869.22 311.258 869.276 311.24 865.776C311.154 848.893 311.234 831.913 311.247 815.038L311.286 712.611L311.278 385.554C311.143 380.4 310.254 374.187 312.587 369.864C316.535 366.485 322.1 367.739 327.69 367.995C328.018 371.342 330.306 371.346 330.859 377.719C331.133 375.022 330.656 375.112 332.143 373.51C335.999 373.131 343.038 374.103 347.927 374.194C348.303 368.71 347.557 358.963 348.532 354.349L349.934 353.606C344.127 347.148 346.695 346.386 345.995 336.503Z" fill="#5D86C6"/>
<path d="M345.995 336.503C347.5 335.818 348.862 335.201 351.106 335.208C409.897 335.364 468.941 334.356 527.639 335.749C528.005 335.758 529.149 336.46 529.519 336.633C530.163 341.068 529.944 346.791 529.912 351.376C534.924 351.252 541.297 350.197 544.91 353.263C547.797 359.087 545.751 363.125 546.959 368.394C552.459 367.941 557.985 367.916 563.49 368.319C564.044 377.604 563.909 387.072 563.913 396.385L742.03 396.368C753.78 396.359 833.731 395.341 839.071 397.372C841.578 400.927 840.8 409.662 840.73 414.292C845.328 414.234 851.911 413.924 856.265 414.709L858.001 416.46C858.932 420.102 858.577 432.783 858.584 437.339L874.466 437.532L874.529 458.462C880.674 458.062 903.98 457.413 908.778 459.55C910.799 463.661 910.014 471.519 909.875 476.27C916.202 476.038 924.882 473.844 927.076 480.764C926.708 486.072 926.722 490.489 926.771 495.825C922.896 496.14 910.848 496.332 908.667 496.919L908.598 493.141L908.056 493.2C905.118 492.734 895.035 493.076 891.556 493.122C891.653 488.237 891.903 483.53 891.292 478.68C890.91 485.374 890.91 490.848 891.542 497.577C813.8 498.629 734.051 497.811 656.212 497.784L382.204 497.727L382.146 514.238C377.686 514.161 369.478 512.994 365.589 515.21C364.46 515.853 364.707 518.907 364.733 520.178C364.302 525.685 364.337 531.097 364.305 536.614C360.111 536.841 352.613 538.397 349.216 536.268C347.631 535.275 347.995 531.808 348.029 530.027C347.999 522.454 348.569 513.081 348.047 505.794L348.04 493.157L365.368 493.334L365.349 476.589L372.263 476.547C370.375 475.335 368.432 475.767 365.862 475.747C365.891 470.827 366.156 463.775 365.401 459.118C364.625 463.628 364.951 471.378 365.053 476.196C359.663 476.186 352.883 475.986 347.632 476.471C345.253 476.073 334.52 476.115 331.521 476.068C331.386 470.291 331.447 464.257 331.417 458.456C331.123 441.499 331.923 421.07 330.911 404.508C331.273 399.343 331.009 390.961 331.012 385.556C331.032 382.98 330.924 380.302 330.859 377.719C331.133 375.022 330.656 375.112 332.143 373.51C335.999 373.131 343.038 374.103 347.927 374.194C348.303 368.71 347.557 358.963 348.532 354.349L349.934 353.606C344.127 347.148 346.695 346.386 345.995 336.503Z" fill="#7CA1DB"/>
<path d="M345.995 336.503C347.5 335.818 348.862 335.201 351.106 335.208C409.897 335.364 468.941 334.356 527.639 335.749C528.005 335.758 529.149 336.46 529.519 336.633L529.434 337.444C528.939 342.522 529.672 346.484 528.804 351.114C527.768 351.69 527.873 351.725 526.75 352.035C526.487 353.45 526.416 354.815 526.407 356.254C524.119 357.316 513.095 357.55 510.728 356.605C510.361 362.785 510.565 369.226 510.648 375.435C516.709 375.616 522.773 375.631 528.835 375.481C528.794 382.317 528.657 389.376 528.839 396.192C532.554 396.233 540.755 396.54 544.016 395.938L544.858 396.384L545.398 397.356C548.693 399.747 555.218 398.941 559.437 398.523L560.904 399.254C561.81 404.549 560.658 410.969 562.276 414.976L562.991 418.315C567.122 418.418 576.008 418.964 579.457 417.756C579.594 415.977 579.242 416.745 580.23 415.322C584.586 414.399 594.603 414.909 599.359 414.981C599.359 418.715 599.629 434.633 599.102 436.952L598.609 437.286C600.456 439.995 599.671 454.076 599.622 458.275C547.64 458.822 495.656 458.933 443.674 458.606L394.207 458.717C386.676 458.739 374.369 459.2 367.257 458.513L365.401 459.118C364.625 463.628 364.951 471.378 365.053 476.196C359.663 476.186 352.883 475.986 347.632 476.471C345.253 476.073 334.52 476.115 331.521 476.068C331.386 470.291 331.447 464.257 331.417 458.456C331.123 441.499 331.923 421.07 330.911 404.508C331.273 399.343 331.009 390.961 331.012 385.556C331.032 382.98 330.924 380.302 330.859 377.719C331.133 375.022 330.656 375.112 332.143 373.51C335.999 373.131 343.038 374.103 347.927 374.194C348.303 368.71 347.557 358.963 348.532 354.349L349.934 353.606C344.127 347.148 346.695 346.386 345.995 336.503Z" fill="#4E75B4"/>
<path d="M345.995 336.503C347.5 335.818 348.862 335.201 351.107 335.208C409.897 335.364 468.941 334.356 527.64 335.749C528.005 335.758 529.149 336.46 529.519 336.633L529.434 337.444C528.939 342.522 529.672 346.484 528.804 351.114C527.768 351.69 527.873 351.725 526.75 352.035C526.487 353.45 526.417 354.815 526.408 356.254C524.12 357.316 513.095 357.55 510.728 356.605C510.361 362.785 510.566 369.226 510.648 375.435C462.561 375.331 412.642 376.088 364.723 375.289L364.876 394.785C364.569 395.397 364.004 395.845 363.479 396.379C359.29 396.952 352.62 396.492 348.185 396.316C348.406 389.253 348.073 381.32 347.927 374.194C348.303 368.71 347.557 358.963 348.532 354.349L349.934 353.606C344.127 347.148 346.695 346.386 345.995 336.503Z" fill="#7CA1DB"/>
<path d="M345.995 336.503C347.5 335.818 348.862 335.201 351.107 335.208C409.897 335.364 468.941 334.356 527.64 335.749C528.005 335.758 529.149 336.46 529.519 336.633L529.434 337.444C528.939 342.522 529.672 346.484 528.804 351.114C527.768 351.69 527.873 351.725 526.75 352.035C526.487 353.45 526.417 354.815 526.408 356.254C524.12 357.316 513.095 357.55 510.728 356.605L510.511 354.83C508.932 353.247 487.264 353.838 483.346 353.84L396.209 353.885C382.675 353.891 363.095 354.484 349.934 353.606C344.127 347.148 346.695 346.386 345.995 336.503Z" fill="#111A26"/>
<path d="M330.859 377.719C331.133 375.022 330.656 375.112 332.143 373.511C335.999 373.131 343.038 374.103 347.927 374.195C348.072 381.32 348.406 389.253 348.185 396.316C352.62 396.493 359.29 396.952 363.479 396.379C364.004 395.845 364.569 395.397 364.876 394.786L364.742 396.086C364.874 409.902 364.247 423.498 364.378 437.174C361.149 437.27 351.117 437.345 348.61 438.112L347.935 439.093C348.013 445.421 347.956 451.751 347.763 458.077C342.457 458.234 336.681 458.516 331.417 458.457C331.123 441.499 331.923 421.07 330.911 404.508C331.273 399.343 331.009 390.961 331.012 385.556C331.032 382.98 330.924 380.302 330.859 377.719Z" fill="#5D86C6"/>
<path d="M364.742 396.086C364.874 409.902 364.247 423.498 364.378 437.174C361.149 437.271 351.117 437.345 348.61 438.112L347.935 439.093C347.739 438.584 348.206 416.773 348.238 414.795L364.191 414.636C364.085 409.343 363.811 401.047 364.742 396.086Z" fill="#5780BF"/>
<path d="M579.458 417.757C579.594 415.978 579.242 416.746 580.23 415.323C584.586 414.4 594.603 414.909 599.359 414.982C599.359 418.715 599.63 434.634 599.102 436.952L598.609 437.287C600.456 439.995 599.671 454.076 599.623 458.275C547.64 458.823 495.657 458.933 443.674 458.606L394.207 458.717C386.676 458.739 374.369 459.201 367.257 458.514C371.166 457.723 384.882 457.877 389.521 457.882L427.79 457.931L580.728 457.95C580.82 451.226 580.778 444.419 580.792 437.687C575.547 437.307 568.238 437.458 562.838 437.41C562.765 430.879 562.706 424.862 562.991 418.316C567.122 418.418 576.008 418.964 579.458 417.757Z" fill="#355991"/>
<path d="M579.458 417.757C579.594 415.978 579.242 416.746 580.23 415.323C584.586 414.4 594.603 414.909 599.359 414.982C599.359 418.715 599.63 434.634 599.102 436.952L598.609 437.287C595.132 437.599 589.196 437.485 585.553 437.516L585.547 425.029C585.704 422.786 585.912 421.724 585.376 419.505C583.246 417.957 583.043 418.47 579.887 418.255L579.458 417.757Z" fill="#DAD5CA"/>
<path d="M579.887 418.255C583.043 418.47 583.246 417.957 585.376 419.505C585.912 421.724 585.703 422.786 585.547 425.029C584.697 430.927 586.158 431.898 582.903 437.837L581.123 437.789C578.77 432.634 579.486 423.869 579.887 418.255Z" fill="#2F3C53"/>
<path d="M545.398 397.356C548.693 399.748 555.218 398.941 559.437 398.523L560.904 399.254C561.81 404.549 560.658 410.97 562.276 414.976L545.601 414.97L545.398 397.356Z" fill="#355991"/>
<path d="M529.519 336.634C530.163 341.069 529.944 346.792 529.912 351.376C534.924 351.252 541.297 350.197 544.91 353.264C547.797 359.087 545.751 363.126 546.959 368.394C552.459 367.941 557.986 367.917 563.49 368.32C564.044 377.605 563.909 387.072 563.913 396.385L742.03 396.369C753.78 396.359 833.731 395.341 839.071 397.372C841.578 400.928 840.8 409.662 840.73 414.293C845.328 414.234 851.911 413.925 856.265 414.709C852.029 416.779 848.314 415.798 843.675 416.398C840.89 416.757 841.175 417.926 838.272 418.306L838.237 424.983L838.223 458.464C834.3 458.126 827.731 458.286 823.599 458.263L615.629 458.226L599.622 458.275C599.671 454.076 600.456 439.995 598.609 437.287L599.102 436.952C599.629 434.634 599.359 418.715 599.359 414.982C594.603 414.909 584.586 414.4 580.23 415.323C579.242 416.746 579.594 415.978 579.457 417.757C576.008 418.964 567.122 418.418 562.991 418.316L562.276 414.976C560.658 410.97 561.81 404.549 560.904 399.254L559.437 398.523C555.218 398.942 548.693 399.748 545.398 397.356L544.858 396.384L544.016 395.939C540.755 396.54 532.554 396.234 528.839 396.192C528.657 389.376 528.794 382.317 528.835 375.481C522.773 375.631 516.709 375.616 510.648 375.436C510.565 369.227 510.361 362.785 510.728 356.605C513.095 357.55 524.119 357.316 526.407 356.254C526.417 354.816 526.487 353.45 526.75 352.036C527.873 351.725 527.768 351.691 528.804 351.115C529.672 346.484 528.939 342.522 529.434 337.444L529.519 336.634Z" fill="#EEE9DE"/>
<path d="M529.519 336.634C530.163 341.069 529.944 346.792 529.912 351.376C534.924 351.252 541.297 350.197 544.91 353.264C547.797 359.087 545.751 363.126 546.959 368.394C552.459 367.941 557.986 367.917 563.49 368.32C564.044 377.605 563.909 387.072 563.913 396.385L742.03 396.369C753.78 396.359 833.731 395.341 839.071 397.372C841.578 400.928 840.8 409.662 840.73 414.293C845.328 414.234 851.911 413.925 856.265 414.709C852.029 416.779 848.314 415.798 843.675 416.398C840.89 416.757 841.175 417.926 838.272 418.306C833.244 418.422 828.668 418.609 823.647 418.198C823.3 416.533 823.356 416.637 822.349 415.273C818.508 414.674 804.87 414.942 800.217 414.94L756.544 414.934L599.359 414.982C594.603 414.909 584.586 414.4 580.23 415.323C579.242 416.746 579.594 415.978 579.457 417.757C576.008 418.964 567.122 418.418 562.991 418.316L562.276 414.976C560.658 410.97 561.81 404.549 560.904 399.254L559.437 398.523C555.218 398.942 548.693 399.748 545.398 397.356L544.858 396.384L544.016 395.939C540.755 396.54 532.554 396.234 528.839 396.192C528.657 389.376 528.794 382.317 528.835 375.481C522.773 375.631 516.709 375.616 510.648 375.436C510.565 369.227 510.361 362.785 510.728 356.605C513.095 357.55 524.119 357.316 526.407 356.254C526.417 354.816 526.487 353.45 526.75 352.036C527.873 351.725 527.768 351.691 528.804 351.115C529.672 346.484 528.939 342.522 529.434 337.444L529.519 336.634Z" fill="#252934"/>
<path d="M526.75 352.036L528.83 352.916C531.21 360.58 514.342 373.905 543.946 372.511L544.016 395.939C540.755 396.54 532.554 396.234 528.839 396.192C528.657 389.376 528.794 382.317 528.835 375.481C522.773 375.631 516.709 375.616 510.648 375.436C510.565 369.227 510.361 362.785 510.728 356.605C513.095 357.55 524.119 357.316 526.407 356.254C526.417 354.816 526.487 353.45 526.75 352.036Z" fill="#5780BF"/>
<path d="M544.35 384.177C551.248 384.429 556.209 384.703 563.091 385.575C563.245 389.085 563.901 393.746 562.23 396.678L559.437 398.524C555.218 398.942 548.693 399.748 545.398 397.356L544.858 396.385C544.776 392.131 544.677 388.429 544.35 384.177Z" fill="#111A26"/>
<path d="M599.359 414.981L756.544 414.934L800.217 414.94C804.87 414.942 818.509 414.674 822.349 415.272C823.356 416.637 823.3 416.533 823.647 418.197C821.578 423.496 822.279 431.553 822.432 437.338L671.899 437.295L627.185 437.256C622.22 437.24 609.574 436.79 605.442 437.246C603.539 437.319 601.06 437.079 599.102 436.952C599.63 434.633 599.359 418.715 599.359 414.981Z" fill="white"/>
<path d="M598.609 437.287L599.102 436.952C601.06 437.079 603.539 437.319 605.442 437.246C609.053 437.639 611.796 437.862 615.463 437.996C615.588 444.738 615.643 451.482 615.629 458.226L599.622 458.275C599.671 454.076 600.456 439.995 598.609 437.287Z" fill="#DAD5CA"/>
<path d="M837.446 437.638C837.453 433.265 837.189 429.2 838.237 424.982L838.223 458.463C834.3 458.125 827.73 458.286 823.599 458.263C823.099 451.731 822.946 444.685 822.682 438.102C825.078 437.378 834.369 437.632 837.446 437.638Z" fill="#DAD5CA"/>
<path d="M856.265 414.709L858.001 416.46C858.932 420.103 858.578 432.783 858.585 437.339L874.466 437.533L874.529 458.462C880.675 458.062 903.98 457.413 908.778 459.551C910.799 463.661 910.014 471.52 909.876 476.27C916.202 476.039 924.882 473.844 927.077 480.764C926.709 486.072 926.723 490.489 926.771 495.826C922.896 496.141 910.848 496.332 908.667 496.919L908.598 493.141L908.056 493.2C905.119 492.734 895.035 493.077 891.556 493.122C891.654 488.237 891.904 483.53 891.292 478.68L891.202 476.944C874.612 475.912 851.105 476.585 833.988 476.591L726.385 476.638L380.991 476.548L372.263 476.547C370.375 475.335 368.432 475.767 365.862 475.747C365.891 470.827 366.156 463.776 365.401 459.118L367.257 458.514C374.369 459.201 386.676 458.74 394.207 458.717L443.674 458.606C495.657 458.933 547.64 458.823 599.623 458.275L615.629 458.226L823.599 458.263C827.731 458.286 834.3 458.126 838.224 458.464L838.238 424.983L838.272 418.306C841.175 417.926 840.89 416.757 843.675 416.398C848.314 415.798 852.029 416.779 856.265 414.709Z" fill="#252934"/>
<path d="M874.529 458.462C880.674 458.062 903.98 457.413 908.778 459.55C910.799 463.661 910.014 471.52 909.875 476.27C916.202 476.039 924.882 473.844 927.077 480.764C926.709 486.072 926.722 490.489 926.771 495.825C922.896 496.141 910.848 496.332 908.667 496.919L908.598 493.141L908.056 493.2C905.119 492.734 895.035 493.077 891.556 493.122C891.653 488.237 891.903 483.53 891.292 478.68L891.202 476.943C874.612 475.912 851.105 476.585 833.988 476.591L726.385 476.638L380.991 476.548C382.38 475.329 455.651 475.825 463.867 475.827L621.421 475.851L791.724 475.873C824.981 475.752 858.237 475.809 891.487 476.043L891.119 459.007C886.66 459.015 878.598 459.303 874.529 458.462Z" fill="#2F3C53"/>
<path d="M891.202 476.943C894.022 480.296 904.167 478.704 908.639 478.271C908.646 482.632 908.848 488.939 908.598 493.141L908.056 493.2C905.119 492.734 895.035 493.076 891.556 493.121C891.654 488.237 891.904 483.529 891.292 478.68L891.202 476.943Z" fill="#355991"/>
<path d="M856.265 414.709L858.001 416.46C857.251 421.222 857.835 453.309 858.203 459.293C853.119 459.094 842.862 459.037 838.224 458.464L838.238 424.983L838.272 418.306C841.175 417.926 840.89 416.757 843.675 416.398C848.314 415.798 852.029 416.779 856.265 414.709Z" fill="#111A26"/>
<path d="M858.584 437.339L874.466 437.532L874.529 458.462C871.029 458.061 862.425 458.312 858.557 458.321L858.584 437.339Z" fill="#ADB6C7"/>
<path d="M927.076 480.764C928 488.531 927.5 505.785 927.493 514.299C932.924 514.278 938.493 514.187 943.903 514.255L944 885.603C938.576 886.61 932.417 886.388 926.833 886.388C926.938 891.548 927.938 899.201 924.896 902.951C920.396 905.513 914.806 904.374 909.299 904.618L909.257 919.896H556.592C488.109 919.889 418.573 919.25 350.206 920C350.315 915.729 350.856 908.791 349.754 904.909C348.3 903.916 348.901 904.124 347.238 903.756C327.477 907.555 331.823 902.374 330.518 887.457C333.852 887.374 343.415 886.631 345.651 888.145L346.399 887.409L345.953 885.152C347.222 881.769 348.702 875.047 348.772 871.443C346.229 866.588 338.141 867.47 333.304 868.144C333.019 868.179 330.907 871.519 328.833 872.207C327.397 869.957 333.549 861.505 331.773 854.595L348.316 854.699C348.376 849.116 348.126 843.324 347.964 837.726C352.87 837.837 360.203 838.233 364.867 837.65L365.084 854.435L873.869 854.505L873.924 837.74C877.174 837.025 887.431 837.261 891.264 837.247L891.41 514.576L907.743 514.268L908.056 493.2L908.598 493.141L908.667 496.919C910.848 496.332 922.896 496.141 926.771 495.825C926.722 490.489 926.708 486.072 927.076 480.764Z" fill="#355991"/>
<path d="M927.077 480.764C928 488.531 927.5 505.785 927.493 514.299C932.924 514.278 938.493 514.187 943.903 514.255L944 885.603C938.576 886.61 932.417 886.388 926.833 886.388C926.938 891.548 927.938 899.201 924.896 902.951C920.396 905.513 914.806 904.374 909.299 904.618L909.257 919.896H556.592C488.109 919.889 418.573 919.25 350.206 920C350.315 915.729 350.856 908.791 349.754 904.909C348.3 903.916 348.901 904.124 347.238 903.756C327.478 907.555 331.823 902.374 330.518 887.457C333.852 887.374 343.415 886.631 345.651 888.145L346.399 887.409C348.936 886.089 349.043 885.422 350.358 882.888C352.749 881.138 447.077 881.957 459.488 881.957L750.523 881.978H841.092C852.279 881.971 877.91 881.221 888.327 882.263C890.348 883.888 890.695 884.7 892.063 886.846L894.139 887.7C897.764 888.207 904.792 888.082 908.327 887.443C910.688 885.346 910.007 886.582 910.764 883.804C911.16 881.256 911.167 875.394 911.25 872.589C916.063 872.595 919.188 872.54 923.979 872.075C924.827 871.977 924.931 871.825 925.75 871.457C927.785 867.158 926.799 831.566 926.792 824.351L926.785 738.695L926.771 495.825C926.722 490.489 926.708 486.072 927.077 480.764Z" fill="#ADB6C7"/>
<path d="M346.399 887.408C348.936 886.089 349.042 885.422 350.358 882.887C352.749 881.137 447.077 881.957 459.487 881.957L750.523 881.978H841.091C852.279 881.971 877.91 881.221 888.327 882.262C890.348 883.887 890.695 884.7 892.063 886.846L894.139 887.7C894.216 891.374 894.667 895.589 893.445 898.909C892.042 900.249 891.188 901.131 888.869 901.166C875.202 901.346 860.862 901.166 847.223 901.166L754.94 901.187L450.347 901.201C436.197 901.201 354.351 899.728 347.24 902.333C343.976 898.596 345.273 892.853 345.651 888.145L346.399 887.408Z" fill="#111A26"/>
<path d="M908.667 496.919C910.848 496.332 922.896 496.141 926.771 495.825L926.785 738.695L926.792 824.351C926.799 831.566 927.785 867.158 925.75 871.457C924.931 871.825 924.827 871.978 923.979 872.075C907.709 872.387 907.216 869.7 907.98 854.31C908.917 843.268 908.355 824.782 908.327 813.288L908.389 747.015C908.48 664.137 907.535 579.674 908.667 496.919Z" fill="#252934"/>
<path d="M908.327 887.443C905.077 887.249 896.542 888.047 894.535 886.818L894.188 883.853C883.161 872.887 897.876 862.06 906.431 868.894C906.938 870.484 907.188 871.13 907.883 872.644L909.896 873.033C910.973 875.082 910.667 880.88 910.764 883.804C910.007 886.582 910.688 885.346 908.327 887.443Z" fill="#111A26"/>
<path d="M311.278 385.554C311.143 380.401 310.254 374.187 312.587 369.865C316.535 366.485 322.1 367.739 327.69 367.995C328.018 371.342 330.306 371.346 330.859 377.719C330.924 380.302 331.032 382.98 331.012 385.556C331.009 390.961 331.273 399.343 330.912 404.508C331.923 421.07 331.123 441.499 331.417 458.457C331.447 464.258 331.386 470.291 331.521 476.068C334.52 476.115 345.253 476.073 347.632 476.471C352.883 475.986 359.663 476.187 365.053 476.196C364.951 471.378 364.625 463.628 365.401 459.118C366.156 463.776 365.891 470.827 365.862 475.747C368.432 475.767 370.375 475.335 372.263 476.547L365.349 476.589L365.368 493.334L348.04 493.157L348.047 505.794C347.856 508.57 347.711 511.35 347.61 514.131L331.354 514.316C331.304 520.894 331.544 534.031 330.909 540.054C331.001 548.995 331.04 557.937 331.028 566.879L330.971 698.624C332.088 704.124 331.647 727.952 331.646 734.75L331.671 819.156L331.683 837.865C337.319 837.761 361.125 836.171 364.867 837.65C360.203 838.233 352.87 837.837 347.964 837.726C348.126 843.324 348.376 849.116 348.316 854.699L331.773 854.595C333.549 861.505 327.397 869.957 328.833 872.207C330.907 871.519 333.019 868.179 333.305 868.144C338.141 867.47 346.229 866.589 348.772 871.443C348.702 875.047 347.222 881.77 345.953 885.152L346.399 887.409L345.651 888.145C343.415 886.631 333.852 887.374 330.518 887.457L328.285 885.749C319.538 881.311 330.218 874.853 319.269 872.137C316.387 872.221 315.464 872.464 312.869 871.436C311.119 869.221 311.258 869.276 311.24 865.776C311.154 848.893 311.234 831.914 311.247 815.038L311.286 712.611L311.278 385.554Z" fill="#111A26"/>
<path d="M330.912 404.508C331.923 421.07 331.123 441.499 331.417 458.456C331.447 464.257 331.386 470.291 331.521 476.068C334.52 476.115 345.253 476.073 347.632 476.471C352.884 475.985 359.663 476.186 365.053 476.196C364.952 471.378 364.625 463.628 365.401 459.117C366.156 463.775 365.891 470.827 365.862 475.746C368.432 475.767 370.375 475.335 372.263 476.546L365.349 476.589L365.368 493.334L348.04 493.157L348.048 505.793C347.857 508.57 347.711 511.349 347.61 514.13L331.354 514.315C331.304 520.893 331.544 534.03 330.91 540.054C330.258 534.871 330.85 526.828 330.455 521.24C330.15 514.95 329.224 508.698 328.676 502.426C328.204 499.72 330.694 497.235 330.723 494.698C330.973 472.696 330.405 450.623 330.558 428.612C330.614 420.627 330.27 412.411 330.912 404.508Z" fill="#2F3C53"/>
<path d="M331.521 476.068C334.52 476.115 345.253 476.073 347.632 476.471C346.977 481.904 346.831 487.387 347.195 492.849C342.358 493.267 336.395 493.293 331.456 493.438C331.588 487.731 331.513 481.795 331.521 476.068Z" fill="#355991"/>
<path d="M330.971 698.624C332.088 704.124 331.647 727.951 331.646 734.75L331.671 819.156L331.683 837.865C337.319 837.761 361.125 836.17 364.867 837.65C360.204 838.233 352.87 837.837 347.964 837.726C348.126 843.323 348.376 849.115 348.316 854.699L331.773 854.595C330.755 850.24 330.824 812.017 330.882 805.482C331.197 770.078 330.312 733.944 330.971 698.624Z" fill="#4E75B4"/>
<path d="M311.278 385.554C311.143 380.401 310.254 374.187 312.587 369.865C316.535 366.485 322.1 367.739 327.69 367.995C328.018 371.342 330.306 371.346 330.859 377.719C330.924 380.302 331.032 382.98 331.012 385.556C324.769 384.749 317.535 385.115 311.278 385.554Z" fill="#252934"/>
<path d="M319.269 872.137L327.926 872.269C327.948 875.158 327.847 883.339 328.285 885.749C319.538 881.311 330.218 874.853 319.269 872.137Z" fill="#EEF4FB"/>
<path d="M348.047 505.794C348.569 513.081 347.999 522.454 348.029 530.027C347.994 531.809 347.631 535.276 349.216 536.269C352.612 538.398 360.111 536.842 364.305 536.614C364.337 531.097 364.302 525.685 364.733 520.178C365.489 532.378 363.986 547.816 364.202 560.929L348.794 560.97C347.58 564.211 348.139 615.164 348.126 621.726L347.933 818.927L331.671 819.156L331.646 734.751C331.647 727.952 332.088 704.125 330.971 698.624L331.028 566.879C331.04 557.937 331.001 548.995 330.909 540.054C331.544 534.031 331.304 520.894 331.354 514.316L347.61 514.131C347.71 511.35 347.856 508.57 348.047 505.794Z" fill="#7CA1DB"/>
<path d="M348.047 505.794C348.569 513.081 347.999 522.454 348.029 530.027C347.29 536.764 348.087 544.774 348.049 551.676C347.672 554.894 347.386 557.422 347.269 560.677C344.651 560.782 333.918 560.73 332.5 561.788C332.25 563.006 331.743 566.025 331.028 566.879C331.04 557.937 331.001 548.995 330.909 540.054C331.544 534.031 331.304 520.894 331.354 514.316L347.61 514.131C347.71 511.35 347.856 508.57 348.047 505.794Z" fill="#5D86C6"/>
<path d="M345.995 336.503C346.695 346.386 344.127 347.148 349.934 353.606L348.532 354.349C347.557 358.963 348.303 368.71 347.927 374.195C343.038 374.103 335.999 373.131 332.143 373.51C330.656 375.112 331.133 375.022 330.859 377.719C330.306 371.346 328.018 371.342 327.69 367.995C328.573 362.414 326.83 358.931 329.748 353.308C333.316 350.083 340.306 351.085 345.447 351.172C345.43 346.294 345.228 341.305 345.995 336.503Z" fill="#2F3C53"/>
</svg>
