<svg width="1254" height="1254" viewBox="0 0 1254 1254" fill="none" xmlns="http://www.w3.org/2000/svg">
<path d="M1025.85 103L1041.68 103.04C1041.69 108.649 1041.59 114.573 1041.81 120.153C1052.67 120.051 1063.53 120.042 1074.4 120.125C1074.51 125.35 1074.63 130.252 1074.44 135.489L1089.73 135.518C1089.88 140.605 1089.95 145.695 1089.91 150.785L1104.84 150.774C1105.04 156.057 1105.29 161.361 1105.23 166.645L1119.66 166.743L1119.78 183.723C1124.19 183.753 1128.79 183.71 1133.17 183.85C1133.44 194.868 1133.4 205.89 1133.05 216.906C1138 216.893 1143.21 216.793 1148.13 216.906L1148.41 729.037L1148.43 926.107C1148.41 957.212 1149.16 991.912 1148.26 1022.67L1148.14 1045.51L1132.97 1045.39C1132.9 1047.78 1132.92 1051.95 1132.48 1054.15L1132.24 1055.85L1132.26 1059.85C1132.28 1064.21 1132.19 1068.57 1132 1072.92L1120.08 1073.01C1120.06 1076.88 1120.22 1081.14 1119.59 1084.92L1118.98 1086.46C1118.6 1090.31 1118.45 1093.25 1118.36 1097.11C1114.28 1097.12 1108.52 1096.95 1104.68 1097.63C1104.51 1102.21 1104.56 1106.39 1104.65 1110.98L1089.54 1110.99L1089.55 1125.06L1074.42 1125.02C1074.44 1128.9 1074.56 1133.38 1074.4 1137.19L1036.8 1137.18L1036.75 1151.59L217.535 1151.75L217.388 1137.27L179.898 1137.2C179.779 1133.15 179.622 1129.09 179.65 1125.03L164.776 1125.11C164.783 1120.86 164.626 1115.41 164.812 1111.27C161.033 1110.7 153.585 1110.96 149.494 1110.99L149.623 1098.4L149.526 1097.2C146.691 1096.65 138.769 1096.91 135.474 1096.94C135.539 1093.39 135.477 1089.85 135.29 1086.3C134.802 1083.48 134.829 1076.15 134.767 1072.93L122.504 1072.82C122.583 1067.15 122.334 1061.67 122.111 1056.02L121.908 1055.08C121.172 1052.93 121.441 1047.9 121.455 1045.4L106.543 1045.51L106.332 1022.65C105.672 1016.12 106.195 1000.31 106.229 993.112L106.259 940.08L106.362 756.964L106.474 362.701C106.545 314.274 105.868 265.243 106.405 216.927L121.855 216.917L121.957 183.897L134.849 183.83L134.886 166.776L149.447 166.55L149.438 150.789L164.652 150.733L164.629 135.541L179.982 135.514C179.901 130.411 179.919 125.262 179.901 120.154C190.879 120.096 201.858 120.113 212.836 120.208C212.594 114.691 212.739 108.622 212.759 103.059L1025.85 103Z" fill="#1D232A"/>
<path d="M216.287 139.946C254.067 140.704 292.979 140.26 330.834 140.297L555.092 140.256L1040.89 140.025C1040.72 144.494 1040.77 147.731 1040.97 152.209C1051.68 152.573 1062.39 152.681 1073.1 152.534C1073.28 157.833 1073.24 162.674 1073.15 167.97L1088.1 168.09L1088.16 183.914L1102.26 183.895C1102.19 178.943 1101.9 172.762 1102.61 167.965C1103.17 172.392 1102.93 179.805 1102.91 184.472C1106.04 184.45 1113.98 184.154 1116.56 184.893L1116.79 185.556C1117.24 195.844 1116.89 207.544 1116.81 217.936L1131.61 217.918C1130.85 269.406 1130.69 320.901 1131.1 372.392L1131.12 629.194L1131.1 870.491C1131.1 910.94 1130.17 955.467 1131.18 995.561C1124.64 995.603 1109.71 996.161 1103.98 995.444C1104.07 1006.51 1104.92 1015.74 1102.12 1026.51L1088.75 1026.38C1088.71 1029.3 1089.02 1037.9 1087.62 1039.75C1086.27 1043.34 1086.38 1043.48 1081.84 1043.52C1078.23 1043.56 1076.11 1041.54 1073.44 1044.72C1073.17 1046.96 1073.21 1047.35 1073.35 1049.65C1073.27 1052.14 1073.37 1053.49 1072.67 1055.85C1071.94 1058.6 1072.16 1066.39 1072.17 1069.67L1057.14 1069.32V1078.56L1024.37 1078.52L1024.37 1095.44C1015.63 1094.92 1001.3 1095.36 992.179 1095.34L922.719 1095.37L738.005 1095.45L457.945 1095.49C382.211 1095.34 304.826 1094.67 229.173 1095.54L229.158 1078.72C218.078 1078.53 206.995 1078.58 195.918 1078.88C195.767 1075.96 195.76 1072.6 195.69 1069.65C191.028 1069.77 186.075 1069.53 181.389 1069.38C181.349 1065.2 181.681 1060.65 180.892 1056.64L179.49 1055.8C175.449 1055.63 170.758 1056.15 167.29 1054.7C165.611 1052.84 166.196 1052.95 166.112 1049.63L165.769 1039.36L151.5 1039.34C151.594 1033.99 151.576 1028.65 151.446 1023.31C135.72 1023.54 138.711 1022.24 138.579 1007.49L138.632 1006.99C139.798 1006.36 139.288 1006.8 140.108 1005.61C140.2 997.912 143.545 993.32 143.502 986.756L143.494 979.69C142.712 943.521 143.442 904.456 143.436 867.956L143.443 645.965L142.901 217.232L151.295 216.998C151.258 213.703 151.105 205.825 151.609 202.888C153.019 194.675 154.027 192.947 153.789 184.338L167.542 183.899C167.383 178.741 167.452 173.948 167.548 168.783C171.993 168.827 177.2 168.279 181.695 167.916C181.871 163.276 181.826 158.273 181.873 153.602C186.432 153.696 213.262 152.634 215.786 150.896C216.665 147.674 216.336 143.393 216.287 139.946Z" fill="#E4E7ED"/>
<path d="M1116.08 196.532C1116.12 192.768 1116.02 189.243 1116.79 185.557C1117.24 195.844 1116.89 207.544 1116.81 217.937L1131.61 217.918C1130.85 269.406 1130.69 320.901 1131.1 372.393L1131.12 629.195L1131.1 870.492C1131.1 910.941 1130.17 955.467 1131.18 995.561C1124.64 995.604 1109.71 996.161 1103.98 995.445C1108.18 995.09 1109.72 995.2 1113.88 995.524C1114.96 994.159 1113.98 988.079 1113.93 985.862C1113.85 982.666 1113.73 979.537 1113.75 976.316L1113.83 857.492L1113.84 468.593L1113.86 305.428C1113.72 280.811 1113.77 256.193 1114.03 231.576L1103.74 231.014C1104.02 218.508 1102.33 211.104 1103.27 196.84C1107.35 196.578 1111.95 196.6 1116.08 196.532Z" fill="#D2E4F8"/>
<path d="M166.112 1049.63C168.752 1049.63 176.04 1049 177.455 1049.87C179.702 1052.47 178.369 1053.09 179.49 1055.8C175.449 1055.63 170.758 1056.15 167.29 1054.7C165.611 1052.84 166.196 1052.95 166.112 1049.63Z" fill="#D2E4F8"/>
<path d="M143.495 979.69C145.24 990.479 142.195 995.414 142.68 1005.91C142.714 1006.64 142.658 1006.52 142.33 1007.28L138.58 1007.49L138.632 1006.99C139.798 1006.36 139.288 1006.8 140.109 1005.61C140.2 997.912 143.545 993.32 143.502 986.756L143.495 979.69Z" fill="#EEEFF2"/>
<path d="M228.324 162.997C233.99 162.202 248.068 162.591 254.364 162.617L303.103 162.787L482.03 162.781L837.039 162.787L955.569 162.745C977.955 162.735 1001.46 162.267 1023.69 162.978L1024.66 163.034C1025.18 163.669 1025.71 164.304 1026.25 164.938C1029.73 165.607 1034.78 166.282 1038.05 167.01C1038.13 170.562 1037.57 176.134 1039.63 178.473L1039.85 180.744C1043.66 180.501 1047.46 180.211 1051.28 180.154C1051.35 184.401 1051.34 188.943 1051.71 193.146L1055.55 193.133C1057.95 196.692 1058.91 196.08 1063.21 196.205C1063.31 199.075 1063.54 202.495 1063.44 205.316L1071.69 205.07C1071.58 208.1 1071.08 213.633 1072.35 216.172L1074.29 217.046C1078.34 216.845 1081.35 216.872 1085.39 216.993C1085.45 219.974 1085.27 228.137 1086.52 230.285C1087.56 234.41 1087.36 252.647 1087.37 258.026L1087.31 311.26L1087.18 512.25L1087 848.277L1087.02 947.22C1087.01 957.739 1087.7 981.515 1086.82 991.146C1085.56 992.604 1085.38 992.206 1083.03 992.72C1079.92 992.512 1075.91 992.016 1072.94 992.591C1072.73 993.002 1072.45 993.381 1072.35 993.834L1072.24 1007.5C1068.14 1007.5 1060.7 1007.27 1056.93 1007.92C1061.2 1008.47 1067.85 1008.27 1072.32 1008.15C1072.32 1013.15 1072.37 1018.21 1072.13 1023.19C1067.46 1023.34 1062.53 1023.56 1057.88 1023.56C1057.73 1028.61 1057.44 1034.14 1057.53 1039.16C1051.82 1039.74 1047.97 1039.86 1042.2 1039.89L1042.3 1055.65L1025.22 1055.87C1025.29 1050.91 1025.56 1044.8 1024.99 1039.97C1024.47 1044.26 1025.19 1053.78 1023.95 1056.22L1024.83 1057.09C1025.32 1063.02 1025.04 1070.43 1024.55 1076.36C970.313 1077.47 913.479 1076.53 858.99 1076.54L539.199 1076.56L335.454 1076.53L269.612 1076.54C256.685 1076.55 241.837 1076.94 229.117 1076.21C228.763 1069.62 228.719 1062.96 228.613 1056.36C228.141 1051.16 228.712 1045.48 228.13 1039.95C227.429 1043.96 227.772 1051.47 227.851 1055.8C223.034 1055.81 217.7 1055.38 212.85 1055.1L212.611 1039.94L196.85 1039.53C196.842 1034.18 196.695 1028.72 196.607 1023.37L196.242 1023.05L181.282 1022.87L181.078 1008.22C185.911 1008.27 190.743 1008.26 195.575 1008.21L195.554 1007.65C191.912 1007.62 184.126 1007.88 181.067 1007.12L180.453 1005.76C180.086 1006.74 180.36 1006.21 179.5 1007.26C175.525 1007.86 170.201 1007.55 166.062 1007.45C166.17 1003.17 166.496 996.835 166.084 992.769C164.135 989.34 165.304 880.044 165.294 867.375L165.327 422.607L165.409 286.316C165.454 275.02 165.422 263.725 165.315 252.429C165.277 246.46 165.002 235.709 165.735 230.067C166.21 226.162 166.16 221.182 166.227 217.161C170.197 217.053 174.214 217.026 178.188 216.97L180.093 216.122C181.405 213.713 180.866 208.294 180.752 205.358L189.203 205.179C189.182 202.612 188.972 200.297 189.676 197.853C191.205 195.963 195.029 195.364 197.661 193.737L198.591 193.152C199.773 192.907 201.869 192.776 203.143 192.653L203.451 179.9C207.493 180.078 211.379 180.87 214.186 178.418C215.565 175.686 214.203 170.405 216.648 166.895C219.658 162.578 223.607 164.355 228.324 162.997Z" fill="#6888B0"/>
<path d="M1023.83 183.212C1023.82 185.595 1023.58 193.232 1024.5 195.01L1038.98 194.883C1038.93 199.183 1038.3 205.582 1040.29 208.789C1040.33 209.047 1040.37 209.305 1040.4 209.563C1040.24 212.069 1040.04 214.573 1039.81 217.073C1043.83 217.096 1051.34 216.923 1055.03 217.535L1055.9 217.701C1057.14 222.161 1055.74 227.715 1056.74 231.623C1057.27 236.099 1057.14 240.46 1057.13 244.964C1059.19 244.982 1069.24 245.237 1070.96 244.999L1070.79 990.969L1055.69 990.993C1055.66 996.259 1055.58 1001.6 1055.61 1006.86L1039.79 1006.94L1039.79 1022.83L1023.93 1022.82L1023.96 1039.54L228.716 1039.57C228.775 1034.15 228.963 1028.2 228.745 1022.83L213.278 1022.83L213.182 1006.95C210.007 1006.97 199.217 1007.37 196.881 1006.36C197.374 1002.05 197.112 995.628 197.061 991.14L189.097 990.969C188.91 987.258 187.838 982.715 190.723 980.014C192.445 979.659 192.015 979.947 193.389 979.065C194.016 972.948 193.777 965.068 193.8 958.786L193.849 924.472L193.846 819.854L193.755 463.393L193.641 273.423C193.639 269.151 193.384 255.885 193.854 252.105C195.035 242.593 197.962 242.753 196.324 231.588L196.553 231.307C196.793 227.165 196.667 221.788 196.689 217.552C201.507 216.909 208.179 217.023 213.172 216.962C215.039 217.108 214.98 217.15 216.785 216.72C218.387 214.7 217.871 210.594 217.839 207.785L229.113 207.746L229.261 194.871L229.517 194.571C234.925 194.906 245.832 194.423 251.892 194.413L303.172 194.374L463.952 194.371L829.704 194.396C894.026 194.402 959.194 193.831 1023.46 194.532C1023.35 190.135 1023.23 187.573 1023.83 183.212Z" fill="#D2E4F8"/>
<path d="M1024.5 195.01L1038.98 194.883C1038.93 199.182 1038.3 205.582 1040.29 208.789C1040.33 209.047 1040.37 209.305 1040.4 209.563L1038.94 209.95C1038.12 209.021 1038.36 209.337 1037.73 208.471L1037.35 207.932C1033.75 207.272 1028.76 207.655 1024.98 207.788C1024.97 203.19 1024.98 199.568 1024.5 195.01Z" fill="white"/>
<path d="M1055.03 217.535L1055.9 217.701C1055.89 222.221 1055.85 226.741 1055.77 231.259C1053.2 231.253 1046.8 231.548 1044.9 230.619C1044.63 220.058 1042.91 226.001 1039.99 217.733C1044.98 217.81 1050.08 218.004 1055.03 217.535Z" fill="#E4E7ED"/>
<path d="M196.689 217.552C201.459 217.88 210.131 216.886 213.013 219.043C213.508 220.785 213.539 219.912 212.646 221.726C209.857 222.265 208.153 222.003 205.364 221.816C205.462 224.815 205.475 228.676 205.771 231.592C203.077 231.656 199.028 231.959 196.553 231.307C196.793 227.165 196.667 221.788 196.689 217.552Z" fill="#EEEFF2"/>
<path d="M228.613 1056.36L727.602 1056.28L926.117 1056.31L986.974 1056.34C999.153 1056.36 1011.83 1056.68 1023.95 1056.22L1024.83 1057.09C1025.32 1063.02 1025.04 1070.43 1024.55 1076.36C970.313 1077.47 913.479 1076.53 858.99 1076.54L539.199 1076.56L335.454 1076.53L269.612 1076.54C256.685 1076.55 241.837 1076.94 229.117 1076.21C228.763 1069.62 228.719 1062.96 228.613 1056.36Z" fill="white"/>
<path d="M863.779 178.95C916.339 179.825 969.242 178.562 1021.83 178.98C1022.74 178.988 1023.02 179.189 1023.72 179.683C1023.97 181.414 1023.99 181.477 1023.83 183.212C1023.23 187.573 1023.35 190.135 1023.46 194.532C959.194 193.831 894.026 194.403 829.704 194.396L463.952 194.371L303.172 194.374L251.892 194.413C245.831 194.423 234.925 194.906 229.517 194.571C229.753 189.92 229.497 183.699 229.439 178.938C263.463 179.621 299.535 179.015 333.692 179.014L534.74 179.012L750.968 179.015C788.183 179.018 826.716 179.571 863.779 178.95Z" fill="#E4E7ED"/>
<path d="M181.102 231.574L196.324 231.588C197.962 242.753 195.035 242.593 193.854 252.105C193.384 255.885 193.639 269.151 193.641 273.423L193.755 463.393L193.846 819.854L193.849 924.472L193.8 958.786C193.777 965.068 194.016 972.948 193.389 979.065C192.015 979.947 192.445 979.659 190.724 980.014C187.838 982.715 188.91 987.258 189.097 990.969L181.172 990.981C181.488 981.411 180.967 969.973 180.954 960.139L180.955 888.861L180.966 665.351L181.022 372.194C181.019 326.187 182.044 277.236 181.102 231.574Z" fill="#E4E7ED"/>
<path d="M1056.93 1007.92C1061.2 1008.47 1067.85 1008.27 1072.32 1008.15C1072.32 1013.15 1072.37 1018.21 1072.13 1023.19C1067.46 1023.34 1062.53 1023.56 1057.88 1023.56C1057.73 1028.61 1057.44 1034.14 1057.53 1039.16C1051.82 1039.74 1047.97 1039.86 1042.2 1039.89L1042.3 1055.65L1025.22 1055.87C1025.29 1050.91 1025.56 1044.8 1024.99 1039.97C1030.35 1039.99 1035.89 1039.81 1041.26 1039.7C1041.63 1034.26 1041.61 1028.99 1041.64 1023.56L1056.93 1023.41V1007.92Z" fill="white"/>
<path d="M1024.66 163.034C1025.18 163.669 1025.71 164.303 1026.25 164.938C1029.73 165.607 1034.78 166.282 1038.05 167.01C1038.13 170.562 1037.57 176.134 1039.63 178.473L1039.85 180.744C1043.66 180.5 1047.46 180.21 1051.28 180.154C1051.35 184.401 1051.34 188.942 1051.71 193.146C1048.05 193.255 1042.54 193.9 1039.41 193.848L1038.98 194.883L1024.5 195.01C1023.58 193.232 1023.82 185.595 1023.83 183.212C1023.99 181.477 1023.97 181.413 1023.72 179.683C1023.02 179.188 1022.74 178.987 1021.83 178.98C969.242 178.561 916.339 179.824 863.778 178.95C867.128 178.29 877.206 178.419 881.168 178.413L913.24 178.433L1023.81 178.332C1023.93 173.038 1023.85 168.276 1023.69 162.978L1024.66 163.034Z" fill="#7293BC"/>
<path d="M1024.66 163.034C1025.18 163.669 1025.71 164.303 1026.25 164.938C1029.73 165.607 1034.78 166.282 1038.05 167.01C1038.13 170.562 1037.57 176.134 1039.63 178.473C1035.54 178.173 1028.78 178.418 1024.48 178.439C1024.51 173.303 1024.57 168.169 1024.66 163.034Z" fill="#D2E4F8"/>
<path d="M1039.85 180.745C1043.66 180.501 1047.46 180.211 1051.28 180.154C1051.35 184.401 1051.34 188.943 1051.71 193.146C1048.05 193.255 1042.54 193.901 1039.41 193.848C1040 191.457 1039.85 183.548 1039.85 180.745Z" fill="#D2E4F8"/>
<path d="M196.607 1023.37C201.365 1023.52 207.382 1024.06 211.915 1023.92C211.853 1030.17 212.42 1034.12 212.611 1039.94L196.85 1039.53C196.841 1034.18 196.694 1028.72 196.607 1023.37Z" fill="white"/>
<path d="M214.485 194.913L229.261 194.871L229.113 207.745L217.839 207.785C217.871 210.594 218.387 214.699 216.785 216.72C214.98 217.15 215.039 217.108 213.172 216.962C213.191 213.167 213.827 211.452 210.497 209.379L213.173 208.576C215.54 205.905 214.612 198.824 214.485 194.913Z" fill="#EEEFF2"/>
<path d="M212.611 1039.94L228.13 1039.95C227.429 1043.96 227.772 1051.47 227.85 1055.8C223.034 1055.81 217.7 1055.38 212.85 1055.1L212.611 1039.94Z" fill="white"/>
<path d="M195.576 1008.21C196.331 1013.27 195.756 1018.14 196.242 1023.05L181.282 1022.87L181.079 1008.22C185.911 1008.27 190.743 1008.26 195.576 1008.21Z" fill="white"/>
<path d="M166.084 992.769L180.255 992.548C180.307 996.871 180.283 1001.46 180.453 1005.76C180.086 1006.74 180.359 1006.21 179.5 1007.26C175.525 1007.86 170.201 1007.55 166.062 1007.45C166.17 1003.17 166.496 996.834 166.084 992.769Z" fill="#EEEFF2"/>
<path d="M1056.74 231.623L1071.07 231.679L1070.96 244.999C1069.24 245.237 1059.19 244.982 1057.13 244.964C1057.14 240.46 1057.27 236.098 1056.74 231.623Z" fill="#E4E7ED"/>
<path d="M214.186 178.417C215.565 175.686 214.203 170.404 216.648 166.895C219.658 162.578 223.606 164.355 228.324 162.997C228.283 168.318 228.303 173.199 228.508 178.512C224.367 178.468 218.162 178.201 214.186 178.417Z" fill="#D2E4F8"/>
<path d="M166.227 217.161C170.197 217.053 174.214 217.026 178.188 216.97L178.317 230.205L165.735 230.067C166.21 226.162 166.16 221.182 166.227 217.161Z" fill="#ACB0BA"/>
<path d="M1074.3 217.045C1078.34 216.845 1081.35 216.872 1085.39 216.993C1085.45 219.974 1085.27 228.137 1086.52 230.285C1082.81 230.004 1078.09 230.178 1074.28 230.219C1074.4 225.726 1074.57 221.539 1074.3 217.045Z" fill="#D2E4F8"/>
<path d="M203.451 179.899C207.493 180.078 211.38 180.87 214.186 178.417C212.973 182.789 213.338 188.355 213.381 193.001L203.144 192.653L203.451 179.899Z" fill="#D2E4F8"/>
<path d="M1055.31 205.558C1058.8 205.149 1059.94 205.103 1063.44 205.316L1071.69 205.07C1071.58 208.1 1071.08 213.632 1072.35 216.172L1074.29 217.045C1070.73 216.886 1066.78 216.946 1063.18 216.933L1063.26 206.02C1060.04 206.061 1058.51 206.189 1055.31 205.558Z" fill="#ACB0BA"/>
<path d="M189.203 205.179L189.697 205.461C189.102 209.123 189.363 213.191 189.432 216.942C185.704 216.944 181.909 216.912 178.188 216.969L180.093 216.121C181.405 213.712 180.866 208.294 180.752 205.358L189.203 205.179Z" fill="#ACB0BA"/>
<path d="M189.203 205.179C189.181 202.612 188.971 200.297 189.676 197.853C191.205 195.963 195.028 195.365 197.661 193.737L198.591 193.152L198.494 205.786C195.741 205.69 192.389 205.669 189.697 205.462L189.203 205.179Z" fill="#D2E4F8"/>
<path d="M1055.55 193.133C1057.95 196.692 1058.91 196.079 1063.21 196.204C1063.31 199.075 1063.54 202.495 1063.44 205.316C1059.94 205.103 1058.8 205.149 1055.31 205.558C1052.62 202.77 1053.27 196.11 1055.55 193.133Z" fill="#D2E4F8"/>
<path d="M1072.35 993.834C1072.45 993.381 1072.73 993.001 1072.94 992.591C1075.91 992.016 1079.92 992.512 1083.03 992.72L1086.03 992.995C1088.03 996.13 1086.88 1003.16 1087.02 1007.48L1072.76 1007.39C1072.81 1002.82 1073 998.359 1072.35 993.834Z" fill="white"/>
<path d="M213.274 120.702L571.278 120.879L1025.1 120.797L1041.1 120.76L1040.91 136.808L1073.35 136.83L1073.36 152.081L1088.16 152.112C1087.97 157.625 1088.05 162.383 1088.2 167.899L1102.61 167.965C1101.9 172.762 1102.19 178.943 1102.26 183.895L1088.16 183.914L1088.1 168.09L1073.15 167.97C1073.24 162.674 1073.28 157.833 1073.1 152.534C1062.39 152.681 1051.68 152.573 1040.97 152.209C1040.77 147.731 1040.72 144.494 1040.89 140.025L555.092 140.256L330.834 140.297C292.979 140.26 254.067 140.704 216.287 139.946C216.336 143.393 216.665 147.674 215.786 150.896C213.262 152.634 186.432 153.696 181.873 153.602C181.826 158.273 181.87 163.276 181.695 167.916C177.2 168.279 171.993 168.827 167.548 168.783C167.452 173.948 167.383 178.741 167.542 183.899L153.789 184.338C154.027 192.947 153.019 194.675 151.609 202.888C151.105 205.825 151.258 213.703 151.295 216.998L142.901 217.232L143.443 645.965L143.436 867.956C143.442 904.456 142.712 943.521 143.494 979.69L143.502 986.756C143.544 993.32 140.2 997.912 140.108 1005.61C139.288 1006.8 139.798 1006.36 138.632 1006.99C138.341 1004.45 138.403 998.641 138.364 995.836L123.848 995.922C124.756 934.869 123.919 871.379 123.921 810.185L123.929 437.386L123.915 287.538L124.036 252.161C124.057 246.977 124.385 234.066 123.334 229.518L123.203 217.855L137.908 217.727C137.959 206.626 137.9 195.525 137.73 184.425C142.121 184.314 146.512 184.224 150.904 184.158C151.084 178.921 150.977 173.147 150.988 167.866L165.781 167.827L165.715 152.099L180.888 151.996L180.845 136.779L213.308 136.787L213.274 120.702Z" fill="white"/>
<path d="M123.334 229.519C124.385 234.066 124.057 246.977 124.036 252.161L123.916 287.538L123.929 437.386L123.922 810.185C123.919 871.379 124.756 934.869 123.849 995.922L138.365 995.836C138.403 998.641 138.341 1004.45 138.632 1006.99L138.58 1007.49C138.711 1022.24 135.721 1023.54 151.447 1023.31C151.577 1028.65 151.594 1034 151.5 1039.34L165.77 1039.37L166.113 1049.63C166.197 1052.95 165.612 1052.84 167.291 1054.7C170.758 1056.15 175.449 1055.63 179.49 1055.8L180.892 1056.64C181.682 1060.65 181.35 1065.2 181.39 1069.38C186.075 1069.53 191.028 1069.77 195.691 1069.65C195.76 1072.6 195.768 1075.96 195.918 1078.88C206.996 1078.58 218.078 1078.53 229.158 1078.72L229.173 1095.54C304.826 1094.67 382.212 1095.34 457.946 1095.49L738.005 1095.45L922.719 1095.37L992.179 1095.34C1001.3 1095.36 1015.63 1094.92 1024.37 1095.44L1024.37 1078.52L1057.14 1078.56V1069.33L1072.17 1069.67C1072.16 1066.39 1071.94 1058.6 1072.67 1055.85C1073.37 1053.49 1073.27 1052.14 1073.35 1049.65C1073.21 1047.35 1073.17 1046.96 1073.44 1044.72C1076.11 1041.54 1078.23 1043.56 1081.84 1043.52C1086.38 1043.48 1086.27 1043.34 1087.62 1039.75C1089.02 1037.9 1088.71 1029.3 1088.75 1026.38L1102.12 1026.51C1104.92 1015.74 1104.07 1006.51 1103.98 995.444C1109.71 996.161 1124.64 995.604 1131.18 995.561C1131.69 1004.1 1131.12 1011.91 1131.09 1020.37L1116.71 1020.41L1116.43 1054.12C1111.93 1054.15 1107.29 1054.24 1102.8 1054.2L1102.65 1070.31C1097.66 1070.32 1092.53 1070.39 1087.55 1070.31L1087.48 1085.28L1072.64 1085.32L1072.59 1099.17L1035.58 1099.03L1035.54 1115.33L437.184 1115.58L285.059 1115.55C263.676 1115.55 238.875 1114.83 217.93 1115.41L218.052 1099.12L181.286 1098.94C181.148 1094.47 180.939 1089.81 180.943 1085.36L166.043 1085.29L165.868 1070.38L151.341 1070.29L151.182 1054.48L137.847 1054.36C137.781 1043.04 137.784 1031.72 137.858 1020.41C128.345 1020.51 122.735 1023.8 123.022 1012.63C123.737 978.532 123.24 942.951 123.268 908.699L123.316 712.688L123.334 229.519Z" fill="#ACB0BA"/>
<path d="M1088.75 1026.38L1102.12 1026.51C1102.34 1031.22 1102.45 1034.7 1102.24 1039.39C1099.17 1039.41 1090.39 1039.3 1087.62 1039.75C1089.02 1037.9 1088.71 1029.3 1088.75 1026.38Z" fill="#D2E4F8"/>
<path d="M1073.35 1049.65C1073.21 1047.35 1073.17 1046.96 1073.44 1044.72C1076.11 1041.54 1078.23 1043.56 1081.84 1043.52C1086.38 1043.48 1086.27 1043.34 1087.62 1039.75L1087.54 1044.77C1086.88 1048.75 1086.97 1050.04 1081.94 1049.98C1079 1049.95 1076.33 1049.58 1073.35 1049.65Z" fill="#D2E4F8"/>
<path d="M1087.54 1044.77C1087.59 1049.45 1086.93 1050.91 1086.66 1055.13L1072.67 1055.85C1073.37 1053.49 1073.27 1052.14 1073.35 1049.65C1076.33 1049.58 1079 1049.95 1081.94 1049.98C1086.97 1050.04 1086.88 1048.75 1087.54 1044.77Z" fill="#D2E4F8"/>
<path d="M1104.68 1097.63C1104.51 1102.21 1104.56 1106.39 1104.65 1110.98L1089.54 1110.99L1089.55 1125.06L1074.42 1125.02C1074.44 1128.9 1074.56 1133.38 1074.4 1137.19L1036.8 1137.18L1036.75 1151.59L217.535 1151.75L217.388 1137.27L179.898 1137.2C179.779 1133.15 179.622 1129.09 179.651 1125.03L164.776 1125.11C164.783 1120.86 164.627 1115.41 164.813 1111.27C168.931 1112.06 175.358 1111.29 179.646 1110.91C179.764 1113.68 179.321 1113.64 180.619 1115.6C186.065 1116.49 210.606 1115.94 217.494 1115.9C217.505 1121.75 217.46 1127.68 217.544 1133.53L1036.55 1133.6L1036.7 1115.9C1041.92 1115.93 1070.51 1116.43 1073.8 1115.49C1074.78 1113.9 1074.58 1112.66 1074.61 1110.77L1074.49 1103.02C1079.57 1103.09 1084.34 1103.22 1089.41 1102.83C1091.07 1094.74 1099.58 1103.26 1104.68 1097.63Z" fill="#D2E4F8"/>
<path d="M1089.41 1102.83C1089.55 1105.64 1089.67 1108.11 1089.63 1110.93L1074.61 1110.77L1074.49 1103.02C1079.57 1103.09 1084.34 1103.22 1089.41 1102.83Z" fill="#9095A0"/>
<path d="M1148.26 1022.67L1148.14 1045.51L1132.97 1045.39C1132.9 1047.78 1132.92 1051.95 1132.48 1054.15C1131.9 1045.62 1132.48 1031.73 1132.61 1022.78L1148.26 1022.67Z" fill="#D2E4F8"/>
<path d="M106.332 1022.65C109.883 1022.67 115.222 1022.9 118.518 1022.29C120.557 1022.78 120.729 1022.43 121.771 1023.72C122.105 1031.18 122.352 1047.64 121.908 1055.08C121.172 1052.93 121.441 1047.9 121.455 1045.4L106.543 1045.51L106.332 1022.65Z" fill="#D2E4F8"/>
<path d="M1104.75 1072.83C1109.89 1072.9 1114.53 1072.81 1119.67 1072.63C1119.36 1077.18 1119.43 1080.34 1119.59 1084.92L1118.98 1086.46C1118.6 1090.31 1118.45 1093.25 1118.36 1097.11C1114.28 1097.12 1108.52 1096.95 1104.68 1097.63L1104.76 1087.11C1104.62 1082.6 1104.75 1077.4 1104.75 1072.83Z" fill="#ACB0BA"/>
<path d="M1104.76 1087.11C1107.69 1085.97 1115.44 1086.41 1118.98 1086.46C1118.6 1090.31 1118.45 1093.25 1118.36 1097.11C1114.28 1097.12 1108.52 1096.95 1104.68 1097.63L1104.76 1087.11Z" fill="#D2E4F8"/>
<path d="M134.865 1072.56C139.323 1073.1 144.853 1072.93 149.436 1072.91C149.424 1076.62 149.195 1083.43 149.502 1086.9L149.61 1087.88L149.526 1097.2C146.691 1096.65 138.769 1096.91 135.474 1096.94C135.539 1093.39 135.477 1089.85 135.29 1086.3C134.802 1083.48 134.829 1076.15 134.767 1072.93L134.865 1072.56Z" fill="#9095A0"/>
<path d="M135.29 1086.3C138.671 1086.29 146.713 1086 149.502 1086.9L149.61 1087.88L149.526 1097.2C146.691 1096.65 138.769 1096.91 135.474 1096.94C135.539 1093.4 135.477 1089.85 135.29 1086.3Z" fill="#D2E4F8"/>
<path d="M149.61 1087.88C152.728 1088.69 160.798 1088.37 164.393 1088.35L164.336 1100.11L164.882 1103.13C164.864 1105.74 164.918 1108.7 164.812 1111.27C161.033 1110.7 153.584 1110.96 149.494 1110.99L149.623 1098.4L149.526 1097.2L149.61 1087.88Z" fill="#9095A0"/>
<path d="M149.623 1098.4C152.553 1100.87 160.042 1100.12 164.336 1100.11L164.882 1103.13C164.864 1105.74 164.918 1108.7 164.812 1111.27C161.033 1110.7 153.584 1110.96 149.494 1110.99L149.623 1098.4Z" fill="#D2E4F8"/>
<path d="M1025.85 103L1041.68 103.04C1041.69 108.649 1041.59 114.573 1041.81 120.153L1041.1 120.761L1025.1 120.797C1026.3 117.428 1026 106.696 1025.85 103Z" fill="#464E5C"/>
<path d="M1132.24 1055.85L1132.26 1059.85C1132.28 1064.21 1132.19 1068.57 1132 1072.92L1120.08 1073C1120.06 1076.88 1120.22 1081.14 1119.59 1084.92C1119.43 1080.34 1119.36 1077.18 1119.67 1072.63C1119.24 1068.08 1119.51 1060.75 1119.54 1056C1124.01 1056.07 1127.78 1056.11 1132.24 1055.85Z" fill="#D2E4F8"/>
<path d="M1120.32 1065.35C1124.42 1064.58 1128.34 1065.44 1131.18 1063.7C1131.96 1063.24 1132.05 1061.03 1132.26 1059.85C1132.28 1064.21 1132.19 1068.57 1132 1072.92L1120.08 1073.01C1120.07 1076.88 1120.22 1081.14 1119.59 1084.92C1119.43 1080.34 1119.36 1077.18 1119.67 1072.63C1120.24 1071 1120.24 1067.24 1120.32 1065.35Z" fill="#EEEFF2"/>
<path d="M122.111 1056.02C126.051 1056.49 130.731 1056.25 134.768 1056.17C134.776 1061.05 134.576 1067.83 134.865 1072.56L134.767 1072.93L122.504 1072.82C122.583 1067.15 122.334 1061.67 122.111 1056.02Z" fill="#D2E4F8"/>
<path d="M1104.76 1087.11L1104.68 1097.63C1099.58 1103.26 1091.07 1094.74 1089.41 1102.83L1089.7 1088.32C1093.37 1088.38 1102.08 1089.09 1104.76 1087.11Z" fill="#9095A0"/>
<path d="M164.882 1103.13L179.733 1103.02C179.711 1105.46 179.777 1108.53 179.646 1110.91C175.358 1111.29 168.931 1112.06 164.812 1111.27C164.918 1108.7 164.865 1105.74 164.882 1103.13Z" fill="#9095A0"/>
<path d="M365.024 325.324C375.805 324.693 390.997 325.178 402.212 325.182L472.583 325.212L688.148 325.22L828.108 325.227L867.137 325.209C873.064 325.184 884.379 324.825 889.896 325.545C890.471 330.476 890.239 337.545 890.22 342.663C894.721 342.65 902.589 342.405 906.747 343.184L906.789 360.415C912.19 360.484 918.007 360.443 923.364 360.645C924.595 390.796 923.622 426.577 923.573 457.122L923.56 621.946L923.554 711.606C923.56 719.97 924.24 746.446 923.26 753.739C918.907 754.425 911.424 754.155 906.802 754.137C906.771 758.141 906.851 762.666 906.685 766.622C906.679 769.701 907.2 769.31 905.638 770.877C900.593 772.31 895.523 771.245 890.049 771.336C890.116 775.506 890.49 785.095 889.706 788.769C829.455 788.652 767.839 788.218 707.674 788.946L707.411 840.172C727.39 840.019 753.376 839.425 773.258 840.233C773.264 846.136 773.356 852.191 773.276 858.082L773.809 860.304L774.568 860.727C777.734 859.631 791.162 858.461 792.062 863.641C792.711 867.358 792.086 872.097 792.344 876.102C793.611 876.628 794.848 876.806 795.013 877.81C796.679 888.078 795.993 904.776 795.962 915.191C791.192 915.173 785.994 915.044 781.267 915.222L781.255 929.954L585.27 929.997C550.235 929.985 513.518 930.56 478.629 929.874C478.219 924.823 478.132 920.31 478.562 915.24L468.534 914.475C464.696 908.97 464.593 908.854 464.032 902.192C461.196 897.477 462.166 863.751 465.38 860.408C469.125 859.735 475.088 860.023 479.094 860.078C479.712 862.08 479.594 863.011 481.593 863.445C483.523 861.204 482.201 845.872 482.849 841.017C486.095 839.406 539.645 840.037 547.387 840.037L547.548 788.83L364.871 788.818L364.855 771.367L348.207 771.342L348.213 754.253C342.775 754.027 336.679 754.645 331.293 753.831C330.714 739.356 331.172 721.789 331.173 707.142L331.184 618.86L331.211 360.531C336.692 360.544 342.173 360.483 347.653 360.35L348.4 359.693C347.958 354.833 348.162 348.182 348.175 343.171C350.201 342.372 362.008 342.662 364.873 342.671C364.833 336.888 364.883 331.105 365.024 325.324Z" fill="#131617"/>
<path d="M348.4 359.692L348.465 360.44C353.502 360.471 359.966 360.318 364.882 360.594C364.839 366.032 364.93 372.112 364.704 377.493L364.815 378.075L364.826 613.564C364.824 650.082 364.105 688.889 364.849 725.113C364.902 728.457 365.931 740.115 363.259 741.658C365.787 743.023 377.522 742.638 381.103 742.625L860.181 742.631C866.224 743.274 883.987 743.091 889.7 741.823C889.816 745.895 889.871 750.108 890.159 754.155C889.529 758.086 889.553 767.222 890.049 771.336C890.116 775.506 890.49 785.095 889.706 788.769C829.455 788.652 767.839 788.218 707.674 788.946L707.411 840.172C727.39 840.018 753.376 839.425 773.258 840.233C773.264 846.135 773.356 852.191 773.276 858.081L773.809 860.304L774.568 860.727C777.734 859.631 791.162 858.461 792.062 863.641C792.711 867.358 792.086 872.097 792.344 876.102C793.611 876.628 794.848 876.806 795.013 877.81C796.679 888.078 795.993 904.776 795.962 915.191C791.192 915.173 785.994 915.044 781.267 915.222L781.255 929.954L585.27 929.997C550.235 929.984 513.518 930.56 478.629 929.874C478.219 924.823 478.132 920.31 478.562 915.24L468.534 914.475C464.696 908.97 464.593 908.854 464.032 902.192C461.196 897.477 462.166 863.751 465.38 860.408C469.125 859.735 475.088 860.022 479.094 860.078C479.712 862.08 479.594 863.01 481.593 863.445C483.523 861.204 482.201 845.872 482.849 841.016C486.095 839.406 539.645 840.037 547.387 840.037L547.548 788.83L364.871 788.818L364.855 771.367L348.207 771.342L348.213 754.253C342.775 754.026 336.679 754.645 331.293 753.83C330.714 739.356 331.172 721.789 331.173 707.142L331.184 618.86L331.211 360.531C336.692 360.543 342.173 360.483 347.653 360.35L348.4 359.692Z" fill="#131617"/>
<path d="M348.4 359.692L348.465 360.44C353.502 360.471 359.966 360.318 364.882 360.594C364.839 366.032 364.93 372.112 364.704 377.493L364.815 378.075L364.826 613.564C364.824 650.082 364.105 688.889 364.849 725.113C364.902 728.457 365.931 740.115 363.259 741.658C365.787 743.023 377.522 742.638 381.103 742.625L860.181 742.631C866.224 743.274 883.987 743.091 889.7 741.823C889.816 745.895 889.871 750.108 890.159 754.155C889.529 758.086 889.553 767.222 890.049 771.336C890.116 775.506 890.49 785.095 889.706 788.769C889.228 784.293 889.455 776.051 889.449 771.287L364.913 771.312L364.793 754.235C359.301 754.173 353.713 754.241 348.213 754.253C342.775 754.026 336.679 754.645 331.293 753.83C330.714 739.356 331.172 721.789 331.173 707.142L331.184 618.86L331.211 360.531C336.692 360.543 342.173 360.483 347.653 360.35L348.4 359.692Z" fill="#404548"/>
<path d="M331.211 360.531C336.692 360.544 342.173 360.483 347.653 360.35C348.442 376.825 347.834 397.821 347.832 414.556L347.823 516.619L347.772 684.726C347.753 707.497 348.24 730.918 347.912 753.586C343.163 753.616 335.835 753.445 331.293 753.831C330.714 739.356 331.172 721.789 331.173 707.142L331.184 618.86L331.211 360.531Z" fill="#131617"/>
<path d="M364.704 377.493L364.815 378.075L364.826 613.564C364.824 650.081 364.105 688.889 364.849 725.113C359.363 725.113 353.895 725.052 348.417 725.377L348.472 377.673C352.588 377.766 361.11 378.264 364.704 377.493Z" fill="#626667"/>
<path d="M348.465 360.44C353.502 360.471 359.966 360.317 364.882 360.594C364.839 366.032 364.93 372.112 364.704 377.493C361.11 378.264 352.588 377.766 348.472 377.673C348.279 371.933 348.399 366.184 348.465 360.44Z" fill="#626667"/>
<path d="M348.417 725.377C353.895 725.052 359.363 725.113 364.849 725.113C364.902 728.457 365.931 740.115 363.259 741.658C359.04 741.168 352.889 741.34 348.498 741.327L348.417 725.377Z" fill="#626667"/>
<path d="M464.033 902.192C461.196 897.477 462.166 863.752 465.38 860.408C469.125 859.735 475.088 860.023 479.094 860.078C479.957 865.393 479.754 870.677 479.724 876.053C485.03 876.028 490.753 876.12 496.019 875.973L496.373 876.071C496.087 882.978 496.179 889.885 496.206 896.798L667.225 896.657L724.721 896.743C735.044 896.724 747.817 897.018 757.981 896.302C759.261 893.24 758.306 880.039 758.275 875.734C763.878 876.028 769.645 876.065 775.273 876.169C775.401 871.675 775.824 864.872 774.568 860.727C777.734 859.631 791.162 858.461 792.062 863.641C792.711 867.358 792.086 872.097 792.344 876.102C793.611 876.628 794.848 876.806 795.013 877.81C796.679 888.079 795.993 904.776 795.962 915.191C791.193 915.173 785.994 915.044 781.267 915.222L781.255 929.954L585.27 929.997C550.235 929.985 513.518 930.56 478.629 929.874C478.219 924.823 478.132 920.31 478.562 915.24L468.534 914.475C464.696 908.97 464.593 908.854 464.033 902.192Z" fill="#131617"/>
<path d="M792.343 876.102C793.611 876.628 794.848 876.806 795.013 877.81C796.678 888.078 795.993 904.776 795.962 915.191C791.192 915.173 785.994 915.044 781.267 915.222L781.254 929.954L585.27 929.997C550.235 929.984 513.517 930.56 478.629 929.874C478.219 924.823 478.132 920.31 478.562 915.24L468.534 914.475C464.695 908.97 464.593 908.854 464.032 902.192C469.119 902.333 474.457 902.271 479.566 902.296C479.4 906.551 478.491 911.585 481.04 914.677C488.601 915.338 505.942 914.836 514.061 914.83L580.995 914.787C645.458 914.781 711.329 915.565 775.658 914.738L775.676 902.216C780.807 902.376 787.524 903.331 791.498 900.416C794.021 896.516 792.435 882.353 792.343 876.102Z" fill="#B5C3D4"/>
<path d="M758.275 875.734C763.877 876.028 769.645 876.065 775.272 876.169L775.107 897.244L582.45 897.385L516.33 897.428C506.901 897.44 491.806 897.942 482.738 897.354C486.711 896.626 492.057 896.803 496.206 896.797L667.225 896.656L724.72 896.742C735.044 896.724 747.817 897.018 757.981 896.301C759.261 893.24 758.305 880.038 758.275 875.734Z" fill="#23282B"/>
<path d="M479.724 876.053C485.031 876.028 490.753 876.12 496.019 875.973L496.373 876.071C496.087 882.978 496.179 889.885 496.206 896.798C492.057 896.804 486.711 896.626 482.739 897.355C481.77 897.447 481.484 897.306 480.499 897.14C478.942 894.214 479.742 880.069 479.724 876.053Z" fill="#4B5152"/>
<path d="M773.276 858.081L773.809 860.304L774.568 860.727C775.823 864.872 775.401 871.675 775.272 876.169C769.645 876.065 763.877 876.028 758.275 875.734C758.305 880.039 759.26 893.24 757.981 896.302C747.816 897.018 735.044 896.724 724.72 896.742L667.225 896.657L496.206 896.798C496.179 889.885 496.086 882.978 496.372 876.071C519.661 875.208 549.698 876.034 573.435 876.016L758.556 875.875L758.777 858.357C749.635 858.461 740.493 858.437 731.352 858.284L731.554 857.8C745.465 857.763 759.371 857.855 773.276 858.081Z" fill="#404548"/>
<path d="M564.501 822.825C570.046 822.752 576.03 822.341 581.415 822.39C581.506 834.11 581.42 845.823 581.157 857.543C612.135 857.408 643.113 857.463 674.089 857.72L690.775 857.628C704.368 857.861 717.961 857.922 731.554 857.8L731.352 858.284C740.494 858.437 749.635 858.461 758.777 858.357L758.557 875.875L573.436 876.016C549.698 876.034 519.661 875.208 496.373 876.071L496.019 875.973C496.483 870.26 496.054 863.8 495.832 858.02C516.214 856.667 542.625 858.712 564.151 857.763C564.929 848.432 564.452 832.61 564.501 822.825Z" fill="#626667"/>
<path d="M564.501 822.825C570.046 822.752 576.03 822.341 581.415 822.39C581.506 834.11 581.42 845.823 581.157 857.543C612.135 857.408 643.113 857.463 674.089 857.72L690.774 857.628C704.368 857.861 717.961 857.922 731.554 857.8L731.352 858.284C726.411 858.724 716.234 858.412 710.993 858.412L672.258 858.308C636.224 858.443 600.185 858.265 564.15 857.763C564.929 848.432 564.452 832.61 564.501 822.825Z" fill="#4B5152"/>
<path d="M564.458 814.333C572.441 815.465 591.047 814.89 600.046 814.877C624.658 814.639 649.272 814.62 673.887 814.816C674.157 829.114 674.224 843.417 674.089 857.72C643.113 857.463 612.135 857.408 581.157 857.543C581.42 845.823 581.506 834.11 581.415 822.39C576.03 822.341 570.046 822.752 564.501 822.825L564.458 814.333Z" fill="#404548"/>
<path d="M564.616 789.148C605.513 788.284 649.352 788.946 690.438 789.044C690.205 810.505 690.119 836.399 690.774 857.628L674.089 857.72C674.224 843.416 674.156 829.113 673.887 814.816C649.272 814.62 624.658 814.638 600.045 814.877C591.046 814.889 572.44 815.465 564.458 814.332C564.422 805.937 564.475 797.543 564.616 789.148Z" fill="#23282B"/>
<path d="M482.849 841.017C483.094 846.729 483.077 852.369 483.091 858.082L495.832 858.02C496.053 863.8 496.483 870.26 496.018 875.973C490.753 876.12 485.03 876.028 479.724 876.053C479.753 870.677 479.956 865.392 479.094 860.078C479.712 862.08 479.593 863.011 481.593 863.445C483.523 861.204 482.201 845.872 482.849 841.017Z" fill="#626667"/>
<path d="M889.425 360.346C889.419 355.806 889.26 347.412 889.921 343.203C894.244 343.233 902.749 343.545 906.747 343.184L906.79 360.415C912.19 360.484 918.007 360.443 923.365 360.645C924.596 390.796 923.622 426.577 923.573 457.122L923.561 621.946L923.555 711.606C923.561 719.97 924.24 746.446 923.261 753.739C918.907 754.424 911.425 754.155 906.802 754.137C906.771 758.141 906.851 762.666 906.686 766.622C906.68 769.701 907.2 769.31 905.639 770.877C900.593 772.31 895.523 771.244 890.049 771.336C889.553 767.222 889.529 758.086 890.16 754.155C889.872 750.108 889.817 745.895 889.7 741.823C883.988 743.091 866.225 743.274 860.181 742.631L381.104 742.625C377.522 742.638 365.787 743.023 363.26 741.658C365.931 740.115 364.903 728.457 364.849 725.113C368.313 725.346 378.31 725.83 381.299 725.003C419.107 723.889 461.706 724.875 499.832 724.881H726.472L829.664 724.905C835.83 724.899 869.476 724.513 873.358 725.199C874.215 719.744 873.768 697.076 873.756 690.641L873.768 620.82L873.762 378.114C876.738 375.835 884.404 378.434 888.953 377.846C890.643 373.908 887.765 364.336 889.07 361.691C881.355 359.554 859.061 362.309 848.866 360.553C860.616 359.937 877.326 360.379 889.425 360.346Z" fill="#626667"/>
<path d="M906.789 360.415C912.19 360.484 918.006 360.443 923.364 360.644C924.595 390.795 923.621 426.577 923.572 457.122L923.56 621.946L923.554 711.606C923.56 719.97 924.24 746.446 923.26 753.738C918.907 754.424 911.424 754.155 906.801 754.136C906.771 758.141 906.85 762.666 906.685 766.621C906.679 769.701 907.199 769.309 905.638 770.877C900.593 772.309 895.523 771.244 890.049 771.336C889.553 767.221 889.528 758.086 890.159 754.155C889.871 750.107 889.816 745.895 889.7 741.823C892.608 740.5 902.185 740.635 905.901 740.543L906.03 378.151L906.783 374.526C906.532 370.189 906.734 364.842 906.789 360.415Z" fill="#131617"/>
<path d="M906.783 374.526C906.354 410.888 906.397 447.704 906.648 484.089C907.267 573.785 905.669 663.809 906.691 753.463C911.155 753.451 919.084 753.212 923.26 753.738C918.907 754.424 911.424 754.155 906.801 754.136C906.771 758.141 906.85 762.666 906.685 766.621C906.679 769.701 907.199 769.309 905.638 770.877C900.593 772.31 895.523 771.244 890.049 771.336C889.553 767.221 889.528 758.086 890.159 754.155C889.871 750.107 889.816 745.895 889.7 741.823C892.608 740.5 902.185 740.635 905.901 740.543L906.03 378.151L906.783 374.526Z" fill="#23282B"/>
<path d="M890.159 754.155L906.299 754.057C906.269 758.239 906.079 762.495 906.685 766.622C906.679 769.701 907.199 769.31 905.638 770.877C900.593 772.31 895.523 771.245 890.049 771.336C889.553 767.222 889.528 758.086 890.159 754.155Z" fill="#131617"/>
<path d="M890.221 378.081L906.03 378.151L905.902 740.543C902.185 740.635 892.609 740.501 889.7 741.823C891.647 621.193 889.627 498.89 890.221 378.081Z" fill="#404548"/>
<path d="M889.424 360.346C889.418 355.806 889.259 347.412 889.92 343.203C894.243 343.233 902.748 343.545 906.746 343.184L906.789 360.415C906.734 364.843 906.532 370.19 906.783 374.526L906.03 378.151L890.22 378.081C889.626 498.89 891.647 621.193 889.7 741.823C883.987 743.091 866.224 743.274 860.181 742.631C863.818 742.344 869.812 742.521 873.633 742.521L873.615 725.315L889.473 724.746L889.608 463.318C889.577 443.655 889.62 423.959 889.651 404.296C889.663 397.409 887.906 385.337 889.179 379.185C884.869 378.96 877.791 378.835 873.762 378.114C876.737 375.835 884.403 378.434 888.953 377.846C890.643 373.908 887.765 364.336 889.069 361.691C881.354 359.554 859.06 362.309 848.865 360.553C860.615 359.937 877.325 360.379 889.424 360.346Z" fill="#4B5152"/>
<path d="M906.789 360.415C906.734 364.842 906.532 370.189 906.783 374.526L906.03 378.151L890.22 378.08C890.288 372.558 890.055 366.533 889.957 360.972C894.237 361.027 896.472 360.985 900.721 360.524L906.789 360.415Z" fill="#626667"/>
<path d="M889.92 343.203C894.243 343.233 902.748 343.545 906.747 343.184L906.789 360.415L900.721 360.524C897.397 360.389 893.453 360.471 890.073 360.464C890.141 355.241 890.435 348.262 889.92 343.203Z" fill="#131617"/>
<path d="M381.299 725.003C419.107 723.888 461.706 724.874 499.832 724.88H726.472L829.664 724.905C835.83 724.899 869.476 724.513 873.358 725.199C867.363 726.215 837.906 725.548 830.215 725.536L735.24 725.542L381.412 725.536L381.104 742.625C377.522 742.637 365.787 743.023 363.26 741.658C365.931 740.115 364.903 728.456 364.849 725.113C368.313 725.346 378.31 725.829 381.299 725.003Z" fill="#4B5152"/>
<path d="M365.024 325.324C375.806 324.693 390.997 325.178 402.213 325.182L472.584 325.212L688.148 325.22L828.109 325.227L867.137 325.209C873.064 325.184 884.379 324.825 889.896 325.545C890.472 330.476 890.239 337.545 890.221 342.663C894.721 342.65 902.589 342.405 906.747 343.184C902.748 343.545 894.244 343.233 889.921 343.203C889.259 347.412 889.419 355.806 889.425 360.346C877.326 360.379 860.616 359.937 848.866 360.553C833.742 359.911 814.038 360.498 798.608 360.5L699.561 360.479L381.432 360.469C375.917 360.64 370.399 360.682 364.882 360.594C359.966 360.318 353.503 360.471 348.465 360.44L348.4 359.693C347.958 354.833 348.163 348.182 348.176 343.171C350.202 342.372 362.008 342.662 364.873 342.671C364.833 336.888 364.883 331.105 365.024 325.324Z" fill="#626667"/>
<path d="M365.024 325.324C375.805 324.693 390.997 325.178 402.212 325.182L472.583 325.212L688.147 325.22L828.108 325.227L867.136 325.209C873.063 325.184 884.379 324.825 889.896 325.545C889.387 331.162 889.559 337.07 889.589 342.73L531.409 342.776H419.763L384.327 342.847C379.255 342.855 369.562 343.106 364.873 342.671C364.833 336.888 364.883 331.105 365.024 325.324Z" fill="#131617"/>
<path d="M348.176 343.171C353.939 343.385 359.117 343.378 364.861 343.313L364.882 360.594C359.966 360.318 353.503 360.471 348.465 360.44L348.4 359.693C347.958 354.833 348.163 348.182 348.176 343.171Z" fill="#131617"/>
<path d="M364.882 360.594C370.398 360.682 375.916 360.64 381.431 360.469L699.561 360.478L798.607 360.5C814.037 360.497 833.741 359.911 848.865 360.553C859.06 362.309 881.354 359.554 889.069 361.691C887.765 364.335 890.643 373.908 888.953 377.846C884.403 378.434 876.737 375.835 873.761 378.114L873.768 620.819L873.755 690.64C873.768 697.076 874.215 719.743 873.357 725.199C872.629 719.357 873.1 698.698 873.106 692.049L873.112 623.03L873.051 378.243L381.439 378.217C380.452 393.409 381.14 417.052 381.137 432.605L381.134 536.098L381.116 661.629C381.128 681.346 380.46 705.666 381.298 725.003C378.31 725.829 368.312 725.346 364.849 725.113C364.105 688.889 364.824 650.081 364.826 613.563L364.815 378.075L364.704 377.493C364.93 372.111 364.839 366.031 364.882 360.594Z" fill="#404548"/>
<path d="M364.882 360.594C370.399 360.682 375.917 360.64 381.432 360.469C381.183 366.496 381.425 372.349 381.605 378.368L364.816 378.075L364.704 377.493C364.93 372.112 364.839 366.032 364.882 360.594Z" fill="#626667"/>
<path d="M397.7 395.367L856.427 395.414L856.348 707.559C803.249 708.263 748.753 707.638 695.563 707.626L397.785 707.614C398.205 691.008 397.913 673.435 397.916 656.762L397.903 566.937C397.839 510.022 398.516 452.187 397.7 395.367Z" fill="#23282B"/>
<path d="M721.249 456.513L736.226 456.593L736.201 487.276C741.222 487.206 746.243 487.185 751.264 487.212L751.191 577.187L736.195 577.167C736.226 584.094 736.581 597.4 735.834 603.853L721.224 603.902L721.261 577.113L705.898 577.187L705.996 487.18L721.194 487.18L721.249 456.513Z" fill="#4AC033"/>
<path d="M797.72 413.022L812.544 413.081L812.66 442.471L827.38 442.501L827.435 520.922L812.489 520.922L812.464 550.815L797.769 550.714L797.793 520.905L781.91 520.966L781.947 442.365L797.702 442.529L797.72 413.022Z" fill="#4AC033"/>
<path d="M644.056 487.204H659.174C659.063 498.474 659.039 509.744 659.1 521.015L674.236 520.964L674.212 593.202L659.015 593.164L658.886 623.312L644.093 623.226L644.117 593.263L628.552 593.23C628.332 573.606 628.301 553.981 628.46 534.357L628.375 521.057C632.208 521.054 640.266 521.359 643.64 520.56L644.38 519.223C643.56 511.123 644.044 495.924 644.056 487.204Z" fill="#EC4234"/>
<path d="M644.38 519.223C645.856 522.639 644.111 530.986 643.86 535.281C640.547 535.289 630.646 535.733 628.46 534.358L628.375 521.057C632.208 521.054 640.266 521.36 643.639 520.56L644.38 519.223Z" fill="#EC5446"/>
<path d="M567.814 516.959L582.33 517.144L582.37 550.596L597.506 550.907L597.476 623.305L582.432 623.428L582.343 640.113C582.451 643.15 582.233 646.854 582.14 649.947C577.447 650.014 572.662 650.185 567.961 650.302L567.492 636.127L567.764 623.189L552.281 623.33C552.258 599.163 552.035 574.688 552.324 550.543C557.325 550.566 562.615 550.5 567.587 550.755L567.814 516.959Z" fill="#4AC033"/>
<path d="M567.492 636.127C567.804 637.37 567.889 638.858 568.735 639.47C571.545 641.485 578.865 640.523 582.343 640.113C582.451 643.15 582.233 646.855 582.14 649.947C577.447 650.014 572.661 650.185 567.961 650.302L567.492 636.127Z" fill="#2C7B29"/>
<path d="M500.407 562.114L514.443 562.102C514.324 570.796 514.398 579.655 514.384 588.363L527.465 588.279C527.072 606.259 527.471 625.669 527.374 643.824L514.365 643.836L514.388 671.751L500.42 671.543C500.468 662.291 500.438 653.039 500.329 643.787C495.894 643.836 491.369 643.775 486.925 643.763L486.934 588.387L500.245 588.226C500.399 579.523 500.453 570.819 500.407 562.114Z" fill="#EC4234"/>
<path d="M433.736 577.133L447.495 577.171L447.54 604.072L460.685 603.952C461.058 622.724 460.813 642.164 460.808 660.987C456.413 660.962 451.877 660.791 447.471 660.68C447.529 668.359 447.514 676.037 447.428 683.715L433.918 683.752C433.443 676.362 433.715 668.291 433.798 660.846L420.616 660.785L420.622 603.838L433.764 604.024C433.561 595.243 433.723 585.952 433.736 577.133Z" fill="#4AC033"/>
</svg>
