<svg width="1254" height="1254" viewBox="0 0 1254 1254" fill="none" xmlns="http://www.w3.org/2000/svg">
<path d="M1025.71 116.83L1041.54 116.869C1041.55 122.478 1041.45 128.402 1041.66 133.983C1052.53 133.881 1063.39 133.872 1074.26 133.955C1074.37 139.179 1074.48 144.082 1074.29 149.318L1089.59 149.348C1089.74 154.435 1089.8 159.525 1089.77 164.614L1104.7 164.604C1104.9 169.887 1105.15 175.191 1105.09 180.475L1119.52 180.572L1119.64 197.552C1124.04 197.583 1128.65 197.54 1133.03 197.68C1133.3 208.697 1133.26 219.72 1132.91 230.736C1137.86 230.723 1143.07 230.622 1147.99 230.736L1148.27 742.866L1148.29 939.937C1148.27 971.042 1149.02 1005.74 1148.12 1036.5L1148 1059.34L1132.82 1059.22C1132.76 1061.61 1132.78 1065.78 1132.33 1067.98L1132.1 1069.68L1132.11 1073.68C1132.14 1078.04 1132.05 1082.4 1131.86 1086.75L1119.94 1086.83C1119.92 1090.71 1120.08 1094.97 1119.45 1098.75L1118.84 1100.29C1118.45 1104.14 1118.31 1107.08 1118.22 1110.94C1114.14 1110.95 1108.38 1110.78 1104.54 1111.46C1104.36 1116.04 1104.42 1120.22 1104.51 1124.81L1089.4 1124.82L1089.41 1138.89L1074.28 1138.85C1074.3 1142.73 1074.42 1147.21 1074.26 1151.02L1036.66 1151.01L1036.61 1165.42L217.394 1165.58L217.247 1151.1L179.757 1151.03C179.638 1146.98 179.48 1142.92 179.509 1138.86L164.635 1138.94C164.642 1134.69 164.485 1129.24 164.671 1125.1C160.892 1124.53 153.443 1124.79 149.353 1124.82L149.482 1112.23L149.385 1111.03C146.55 1110.48 138.628 1110.74 135.333 1110.77C135.398 1107.22 135.336 1103.68 135.149 1100.13C134.661 1097.31 134.688 1089.98 134.626 1086.76L122.363 1086.65C122.442 1080.98 122.193 1075.5 121.97 1069.85L121.767 1068.91C121.031 1066.76 121.3 1061.73 121.314 1059.23L106.402 1059.34L106.191 1036.48C105.531 1029.95 106.053 1014.14 106.088 1006.94L106.118 953.91L106.221 770.794L106.333 376.53C106.404 328.104 105.727 279.073 106.263 230.756L121.714 230.746L121.815 197.727L134.708 197.66L134.745 180.605L149.305 180.379L149.297 164.619L164.511 164.563L164.488 149.371L179.84 149.344C179.76 144.241 179.778 139.091 179.76 133.984C190.738 133.925 201.717 133.943 212.695 134.037C212.453 128.521 212.598 122.451 212.618 116.888L1025.71 116.83Z" fill="#1D232A"/>
<path d="M216.146 153.776C253.926 154.534 292.838 154.09 330.693 154.127L554.951 154.086L1040.75 153.854C1040.57 158.324 1040.63 161.561 1040.83 166.039C1051.54 166.402 1062.24 166.511 1072.96 166.364C1073.14 171.663 1073.09 176.504 1073.01 181.8L1087.96 181.92L1088.02 197.744L1102.12 197.725C1102.05 192.773 1101.76 186.591 1102.47 181.795C1103.03 186.222 1102.79 193.635 1102.77 198.302C1105.9 198.28 1113.84 197.984 1116.42 198.723L1116.65 199.386C1117.09 209.673 1116.75 221.373 1116.67 231.766L1131.47 231.748C1130.71 283.236 1130.55 334.731 1130.96 386.222L1130.98 643.024L1130.96 884.321C1130.96 924.77 1130.03 969.297 1131.04 1009.39C1124.5 1009.43 1109.57 1009.99 1103.84 1009.27C1103.93 1020.34 1104.78 1029.57 1101.98 1040.34L1088.61 1040.21C1088.57 1043.13 1088.88 1051.73 1087.48 1053.58C1086.12 1057.17 1086.24 1057.31 1081.7 1057.35C1078.08 1057.39 1075.97 1055.37 1073.3 1058.55C1073.03 1060.79 1073.07 1061.18 1073.21 1063.48C1073.13 1065.97 1073.23 1067.32 1072.52 1069.68C1071.8 1072.43 1072.02 1080.22 1072.03 1083.5L1057 1083.15V1092.39L1024.23 1092.35L1024.23 1109.27C1015.49 1108.75 1001.15 1109.19 992.038 1109.17L922.578 1109.2L737.864 1109.28L457.804 1109.32C382.07 1109.17 304.684 1108.5 229.032 1109.37L229.016 1092.55C217.937 1092.36 206.854 1092.41 195.777 1092.71C195.626 1089.79 195.619 1086.43 195.549 1083.48C190.886 1083.6 185.933 1083.36 181.248 1083.21C181.208 1079.03 181.54 1074.48 180.751 1070.47L179.349 1069.63C175.308 1069.46 170.617 1069.98 167.149 1068.53C165.47 1066.67 166.055 1066.78 165.971 1063.46L165.628 1053.19L151.358 1053.17C151.453 1047.82 151.435 1042.48 151.305 1037.14C135.579 1037.37 138.57 1036.07 138.438 1021.32L138.491 1020.82C139.657 1020.19 139.147 1020.63 139.967 1019.44C140.059 1011.74 143.403 1007.15 143.361 1000.59L143.353 993.52C142.571 957.351 143.301 918.286 143.295 881.786L143.302 659.795L142.76 231.062L151.154 230.828C151.117 227.533 150.964 219.655 151.468 216.718C152.878 208.505 153.886 206.777 153.648 198.168L167.401 197.729C167.242 192.571 167.311 187.777 167.407 182.613C171.852 182.657 177.059 182.109 181.554 181.746C181.729 177.106 181.685 172.103 181.732 167.432C186.29 167.525 213.121 166.464 215.645 164.726C216.524 161.503 216.195 157.223 216.146 153.776Z" fill="#E4E7ED"/>
<path d="M1115.94 210.362C1115.98 206.597 1115.88 203.073 1116.65 199.386C1117.09 209.673 1116.75 221.373 1116.67 231.766L1131.47 231.748C1130.71 283.236 1130.55 334.73 1130.96 386.222L1130.98 643.024L1130.96 884.321C1130.96 924.77 1130.03 969.297 1131.04 1009.39C1124.5 1009.43 1109.57 1009.99 1103.84 1009.27C1108.04 1008.92 1109.58 1009.03 1113.74 1009.35C1114.82 1007.99 1113.84 1001.91 1113.79 999.692C1113.71 996.495 1113.59 993.366 1113.6 990.146L1113.68 871.322L1113.7 482.423L1113.71 319.258C1113.57 294.64 1113.63 270.022 1113.89 245.406L1103.6 244.843C1103.88 232.337 1102.19 224.934 1103.13 210.67C1107.21 210.407 1111.81 210.43 1115.94 210.362Z" fill="#D2E4F8"/>
<path d="M165.971 1063.46C168.611 1063.46 175.899 1062.83 177.314 1063.7C179.561 1066.3 178.228 1066.92 179.349 1069.63C175.308 1069.46 170.617 1069.98 167.149 1068.53C165.47 1066.67 166.055 1066.78 165.971 1063.46Z" fill="#D2E4F8"/>
<path d="M143.353 993.52C145.099 1004.31 142.054 1009.24 142.539 1019.74C142.573 1020.47 142.517 1020.35 142.189 1021.11L138.438 1021.32L138.491 1020.82C139.657 1020.19 139.147 1020.63 139.967 1019.44C140.059 1011.74 143.404 1007.15 143.361 1000.59L143.353 993.52Z" fill="#EEEFF2"/>
<path d="M228.183 176.826C233.849 176.031 247.926 176.42 254.223 176.446L302.962 176.616L481.889 176.61L836.898 176.617L955.428 176.575C977.814 176.565 1001.32 176.096 1023.55 176.807L1024.51 176.864C1025.04 177.498 1025.57 178.133 1026.11 178.767C1029.59 179.436 1034.64 180.112 1037.91 180.84C1037.99 184.391 1037.43 189.964 1039.49 192.302L1039.71 194.574C1043.52 194.33 1047.32 194.04 1051.14 193.984C1051.21 198.231 1051.2 202.772 1051.57 206.975L1055.41 206.963C1057.81 210.521 1058.77 209.909 1063.07 210.034C1063.17 212.904 1063.4 216.325 1063.3 219.146L1071.55 218.899C1071.44 221.93 1070.94 227.462 1072.21 230.002L1074.15 230.875C1078.2 230.674 1081.21 230.702 1085.25 230.822C1085.31 233.804 1085.13 241.966 1086.38 244.114C1087.42 248.239 1087.22 266.476 1087.23 271.855L1087.17 325.09L1087.04 526.079L1086.86 862.107L1086.88 961.049C1086.87 971.568 1087.56 995.344 1086.68 1004.98C1085.42 1006.43 1085.24 1006.03 1082.89 1006.55C1079.77 1006.34 1075.77 1005.85 1072.8 1006.42C1072.59 1006.83 1072.3 1007.21 1072.21 1007.66L1072.1 1021.33C1068 1021.33 1060.55 1021.1 1056.79 1021.75C1061.06 1022.3 1067.71 1022.1 1072.18 1021.98C1072.18 1026.98 1072.23 1032.04 1071.99 1037.02C1067.32 1037.16 1062.39 1037.39 1057.74 1037.38C1057.58 1042.44 1057.3 1047.97 1057.39 1052.99C1051.68 1053.57 1047.83 1053.69 1042.06 1053.72L1042.15 1069.48L1025.08 1069.7C1025.15 1064.74 1025.42 1058.63 1024.85 1053.8C1024.32 1058.09 1025.05 1067.61 1023.81 1070.05L1024.69 1070.92C1025.18 1076.85 1024.9 1084.26 1024.4 1090.19C970.172 1091.3 913.338 1090.36 858.849 1090.37L539.058 1090.39L335.313 1090.36L269.471 1090.37C256.543 1090.38 241.696 1090.77 228.976 1090.04C228.622 1083.45 228.578 1076.79 228.472 1070.19C228 1064.99 228.571 1059.31 227.989 1053.78C227.288 1057.79 227.631 1065.3 227.709 1069.63C222.893 1069.64 217.559 1069.21 212.709 1068.93L212.47 1053.77L196.709 1053.36C196.7 1048.01 196.553 1042.55 196.466 1037.2L196.101 1036.88L181.141 1036.7L180.937 1022.05C185.77 1022.1 190.602 1022.09 195.434 1022.03L195.413 1021.48C191.771 1021.45 183.985 1021.71 180.926 1020.94L180.312 1019.59C179.945 1020.56 180.218 1020.04 179.359 1021.09C175.384 1021.69 170.06 1021.38 165.921 1021.28C166.029 1017 166.355 1010.66 165.943 1006.6C163.994 1003.17 165.163 893.873 165.153 881.204L165.186 436.436L165.268 300.146C165.312 288.85 165.281 277.554 165.174 266.259C165.136 260.289 164.861 249.539 165.594 243.896C166.069 239.991 166.018 235.011 166.086 230.991C170.055 230.882 174.073 230.855 178.047 230.799L179.952 229.951C181.264 227.542 180.725 222.123 180.611 219.187L189.062 219.008C189.041 216.442 188.83 214.127 189.535 211.682C191.064 209.793 194.887 209.194 197.52 207.566L198.45 206.982C199.632 206.736 201.728 206.606 203.002 206.483L203.31 193.729C207.352 193.908 211.238 194.699 214.045 192.247C215.424 189.516 214.062 184.234 216.507 180.725C219.517 176.407 223.465 178.184 228.183 176.826Z" fill="#6888B0"/>
<path d="M1023.69 197.042C1023.68 199.425 1023.44 207.062 1024.36 208.84L1038.84 208.713C1038.79 213.012 1038.16 219.412 1040.15 222.619C1040.19 222.876 1040.23 223.135 1040.26 223.393C1040.1 225.899 1039.9 228.403 1039.67 230.903C1043.69 230.926 1051.2 230.753 1054.88 231.365L1055.76 231.531C1057 235.99 1055.6 241.545 1056.6 245.453C1057.13 249.928 1057 254.29 1056.98 258.794C1059.05 258.811 1069.1 259.067 1070.82 258.829L1070.65 1004.8L1055.55 1004.82C1055.52 1010.09 1055.44 1015.43 1055.47 1020.69L1039.65 1020.77L1039.64 1036.66L1023.79 1036.65L1023.82 1053.37L228.575 1053.4C228.633 1047.98 228.821 1042.03 228.603 1036.66L213.137 1036.66L213.041 1020.78C209.866 1020.8 199.076 1021.2 196.74 1020.19C197.233 1015.88 196.971 1009.46 196.92 1004.97L188.956 1004.8C188.769 1001.09 187.697 996.544 190.582 993.844C192.304 993.489 191.874 993.777 193.248 992.895C193.875 986.778 193.636 978.898 193.659 972.615L193.708 938.302L193.705 833.684L193.614 477.222L193.499 287.252C193.498 282.981 193.243 269.715 193.712 265.934C194.894 256.423 197.82 256.583 196.183 245.418L196.412 245.136C196.652 240.995 196.525 235.617 196.548 231.381C201.366 230.738 208.038 230.852 213.031 230.792C214.898 230.938 214.839 230.98 216.644 230.55C218.246 228.529 217.73 224.424 217.698 221.615L228.972 221.575L229.12 208.701L229.376 208.4C234.784 208.735 245.69 208.253 251.751 208.242L303.031 208.204L463.81 208.2L829.563 208.225C893.885 208.232 959.053 207.661 1023.32 208.362C1023.21 203.965 1023.09 201.402 1023.69 197.042Z" fill="#D2E4F8"/>
<path d="M1024.35 208.84L1038.84 208.713C1038.79 213.012 1038.16 219.412 1040.15 222.619C1040.19 222.876 1040.23 223.135 1040.26 223.393L1038.8 223.78C1037.98 222.851 1038.22 223.167 1037.59 222.301L1037.21 221.762C1033.61 221.102 1028.62 221.485 1024.84 221.618C1024.83 217.02 1024.84 213.398 1024.35 208.84Z" fill="white"/>
<path d="M1054.88 231.365L1055.76 231.531C1055.75 236.05 1055.71 240.57 1055.63 245.089C1053.06 245.082 1046.66 245.377 1044.76 244.448C1044.49 233.888 1042.77 239.83 1039.85 231.563C1044.84 231.64 1049.94 231.834 1054.88 231.365Z" fill="#E4E7ED"/>
<path d="M196.548 231.381C201.318 231.71 209.99 230.716 212.871 232.872C213.367 234.615 213.398 233.742 212.505 235.555C209.716 236.094 208.012 235.833 205.223 235.646C205.321 238.645 205.334 242.505 205.63 245.422C202.936 245.485 198.887 245.789 196.412 245.136C196.652 240.995 196.525 235.617 196.548 231.381Z" fill="#EEEFF2"/>
<path d="M565.632 275.401L686.547 275.5C686.681 280.162 686.853 284.778 686.736 289.444L699.38 289.567L699.448 303.656C703.795 303.492 709.018 303.15 713.261 303.458C713.317 311.894 713.482 320.478 713.17 328.895C715.888 329.103 718.686 329.357 721.411 329.482L721.448 366.069L721.491 373.676C726.169 373.677 731.784 373.533 736.376 373.854C736.48 377.86 736.535 381.867 736.547 385.875C746.13 386.055 755.719 386.059 765.307 385.889L765.436 374.664L780.97 374.705C780.982 369.954 780.891 364.765 781.246 360.07L795.61 360.053L795.91 345.25C806.166 345.072 818.97 344.871 829.256 345.268L829.348 360.033L844.417 360.087L844.503 374.725L859.884 374.73C860.055 380.02 860.135 385.312 860.129 390.604C865.125 390.622 870.605 390.522 875.553 390.679L875.626 406.962C880.659 406.823 885.337 406.655 890.383 406.892L890.487 421.798C895.41 421.791 900.498 421.713 905.403 421.852C905.58 436.984 905.605 452.117 905.476 467.25C905.439 475.48 905.537 484.163 905.072 492.333C900.339 492.371 895.416 492.336 890.701 492.493C890.713 496.855 890.885 502.421 890.677 506.689C885.937 506.737 880.996 506.711 876.281 506.869C876.275 509.829 876.453 518.937 875.749 521.191C875.626 527.661 875.559 534.134 875.541 540.606C898.82 540.603 922.455 540.386 945.711 540.668C945.766 544.388 945.864 548.178 945.876 551.891C949.801 551.928 954.461 551.86 958.318 552.159L958.336 565.401C962.359 565.402 967.362 565.273 971.287 565.548L971.403 639.822C971.427 654.976 971.721 671.472 971.127 686.534C971.158 694.415 971.293 702.638 971.115 710.482L958.312 710.39L958.269 722.844L945.931 723.144L945.545 732.298L898.704 732.249C892.967 732.249 880.8 731.894 875.461 732.451C875.583 739.872 875.583 747.293 875.455 754.714C875.534 759.815 875.583 764.915 875.602 770.016C880.317 770.004 885.699 769.863 890.358 770.071L890.616 783.646C895.287 783.652 900.302 783.572 904.937 783.732C905.029 798.611 905.017 813.49 904.907 828.369C904.637 836.782 904.484 845.195 904.466 853.614C900.027 853.62 894.791 853.485 890.426 853.645C890.456 858.953 890.566 864.452 890.426 869.742C885.821 869.662 880.255 869.424 875.749 869.736C875.694 874.518 875.706 879.453 875.577 884.217L859.945 884.248C859.945 889.201 860 894.265 859.933 899.206C854.9 899.335 849.86 899.396 844.821 899.39L844.846 913.032C840.223 913.112 835.38 913.277 830.775 913.234L830.604 922.774H795.818L795.714 913.007L781.423 912.952V899.402C776.874 899.518 770.616 900.412 767.218 897.792C764.787 893.861 765.779 887.897 765.546 882.913L736.168 882.943L735.972 898.582C731.41 898.588 726.383 898.496 721.877 898.729L721.791 900.357C721.95 910.074 721.387 920.165 721.638 929.558C718.362 929.73 716.801 929.252 714.4 930.844C713.574 932.962 713.598 934.059 713.396 936.287L713.206 937.867C713.335 945.637 713.133 953.628 713.023 961.422C708.694 961.527 704.163 961.459 699.815 961.465L699.68 974.52L687.802 974.605L687.734 983.931L565.751 983.943L565.705 974.33L553.432 974.36L553.457 961.422L540.871 961.435C540.672 954.044 540.81 945.992 540.795 938.547L540.345 934.824C539.852 934.175 539.399 931.419 539.135 930.366C537.059 929.019 534.798 929.54 531.897 929.527C532.125 923.753 531.277 918.573 531.42 912.879C531.619 908.636 531.773 904.386 531.882 900.137C531.679 899.763 531.145 899.249 530.832 898.906C526.814 898.404 521.762 898.698 517.622 898.802L517.53 882.882L487.606 883.035L487.371 899.218C482.508 899.304 477.571 899.439 472.714 899.451L472.634 912.928L457.985 913.038L457.801 922.731L424.398 922.737L424.268 912.983C419.465 913.014 414.402 913.13 409.624 913.05C409.61 908.74 409.726 903.676 409.512 899.433C404.591 899.329 399.687 900.351 395.436 898.453C392.514 895.287 393.451 888.766 393.54 884.174C388.287 884.229 383.033 884.211 377.782 884.119L377.769 869.656L363.103 869.442C363.065 864.152 363.086 858.861 363.165 853.577L349.548 853.583L348.865 828.491C347.937 824.817 348.518 789.573 348.623 783.64L362.961 783.774L363.071 770.077C367.501 769.881 373.133 770.071 377.65 770.096C377.719 764.413 376.329 760.354 378.406 755.504C380.538 753.918 380.348 754.463 383.631 754.378C382.286 753.931 380.937 753.496 379.585 753.073C378.034 750.924 378.527 750.6 378.26 747.465L378.252 732.947L378.005 732.176L307.919 732.255L307.8 722.997L295.989 723.156C295.827 719.127 295.918 714.547 295.91 710.475L282.999 710.641L282.929 686.387C282.811 681.244 282.871 675.972 282.899 670.81C283.089 635.805 282.56 600.735 282.967 565.732C286.993 565.529 291.701 565.57 295.784 565.503C295.737 560.907 295.845 556.701 296.017 552.105C299.771 551.927 303.802 551.923 307.582 551.851L307.994 540.688C330.466 540.124 355.039 540.584 377.726 540.568L377.847 521.715C377.523 517.241 377.657 511.511 377.639 506.936L363.192 506.882L363.057 492.555C358.491 492.492 353.926 492.382 349.363 492.226C349.049 484.353 349.111 476.036 348.94 468.095C347.879 463.864 348.452 428.264 348.591 421.866C353.241 421.722 358.329 421.795 363.019 421.764L363.073 406.928C367.901 407.022 372.86 406.984 377.701 407.006C377.703 401.53 377.733 396.054 377.791 390.578L393.394 390.631C393.387 385.339 393.451 380.048 393.585 374.757L409.381 374.673L409.547 360.053L424.385 360.016L424.551 345.302C435.066 344.857 446.875 345.067 457.406 345.24L457.527 360.023L472.688 360.082L472.787 374.64L487.423 374.713L487.441 386.225C497.277 386.245 507.114 386.145 516.947 385.925C516.878 381.864 517.015 377.871 517.126 373.813C520.692 373.426 527.669 373.582 531.487 373.558L531.561 366.243C532.265 354.819 531.553 341.49 532.085 329.453C535.026 329.316 537.967 329.16 540.907 328.986C540.374 322.282 540.432 310.177 540.873 303.396C544.936 303.347 548.999 303.336 553.062 303.361C553.155 298.953 553.143 293.844 553.455 289.507L565.54 289.397L565.632 275.401Z" fill="#1D232A"/>
<path d="M890.591 828.454C895.618 828.565 899.886 828.565 904.906 828.369C904.637 836.782 904.484 845.195 904.466 853.614C900.026 853.62 894.791 853.485 890.425 853.645C890.456 858.953 890.566 864.452 890.425 869.742C885.821 869.662 880.255 869.424 875.749 869.736C875.693 874.518 875.706 879.453 875.577 884.217L859.945 884.248C859.945 889.201 860 894.265 859.933 899.206C854.9 899.335 849.86 899.396 844.821 899.39L844.846 913.032C840.223 913.112 835.379 913.277 830.775 913.234L830.603 922.774H795.818L795.714 913.008L781.423 912.952V899.402C776.874 899.518 770.616 900.412 767.218 897.792C764.787 893.861 765.779 887.897 765.546 882.913L736.168 882.943L735.972 898.582C731.41 898.588 726.383 898.496 721.876 898.729L721.729 898.3C721.803 893.004 721.399 885.944 721.282 880.439C721.258 879.906 721.246 879.368 721.233 878.829C721.08 871.163 729.738 873.802 736.014 873.704C736.419 869.46 736.357 863.888 736.425 859.517C746.075 859.578 755.725 859.541 765.374 859.406C765.325 863.386 764.952 870.458 765.956 873.967C765.705 879.668 765.809 880.947 766.544 886.697C769.483 886.715 778.833 887.187 781.239 888.111C783.052 889.709 792.683 889.109 795.782 889.085C795.696 894.081 795.812 898.269 796.051 903.266C806.925 903.694 818.455 903.4 829.385 903.29L829.495 889.017L844.386 889.03C844.521 884.064 844.46 878.829 844.49 873.838C849.634 873.881 854.777 873.838 859.92 873.704C860.251 869.105 860.067 863.135 860.061 858.427H875.326C875.7 854.159 875.491 847.705 875.479 843.266C880.5 843.333 885.527 843.339 890.548 843.284C890.75 838.588 890.603 833.206 890.591 828.454Z" fill="#87A6CB"/>
<path d="M712.729 938.247L713.207 937.867C713.335 945.637 713.133 953.628 713.023 961.423C708.694 961.527 704.163 961.459 699.815 961.465L699.681 974.52L687.802 974.605L687.735 983.931L565.751 983.943L565.705 974.33L553.432 974.361L553.457 961.423L540.872 961.435C540.672 954.044 540.81 945.993 540.795 938.547C544.94 938.62 549.085 938.639 553.23 938.602C553.203 942.484 553.023 947.738 553.403 951.485L565.708 951.473C565.674 955.165 565.73 959.286 565.586 962.935L565.877 963.768C567.622 964.882 586.791 964.435 590.915 964.435L687.098 964.386L687.012 951.497C690.343 951.564 696.723 952.036 699.466 950.719L699.57 938.59C703.501 938.608 708.988 938.78 712.729 938.247Z" fill="#87A6CB"/>
<path d="M712.729 938.247C712.221 942.355 712.453 946.721 712.533 950.878C709.398 950.603 701.732 949.452 699.466 950.719L699.57 938.59C703.501 938.608 708.988 938.779 712.729 938.247Z" fill="#6888B0"/>
<path d="M553.403 951.485L565.708 951.473C565.673 955.165 565.73 959.286 565.586 962.935C565.097 960.798 565.664 961.325 564.404 960.388C561.31 960.308 557.213 961.282 553.574 961.41L553.403 951.485Z" fill="#6888B0"/>
<path d="M958.361 686.675C962.794 686.767 966.694 686.694 971.127 686.534C971.158 694.415 971.293 702.638 971.115 710.482L958.312 710.39L958.269 722.844L945.931 723.144L945.545 732.298L898.704 732.249C892.967 732.249 880.8 731.894 875.461 732.451L875.547 710.72C897.259 710.365 924.482 711.688 945.643 710.341C945.833 706.998 945.766 702.828 945.784 699.43C949.936 699.411 954.087 699.356 958.238 699.252C958.361 695.156 958.324 690.802 958.361 686.675Z" fill="#87A6CB"/>
<path d="M282.93 686.387C286.908 687.098 291.442 686.896 295.517 686.883L295.721 699.356L307.709 699.368L307.803 710.28C330.185 711.039 355.155 710.629 377.704 710.555C377.681 716.396 377.397 726.585 378.005 732.176L307.919 732.255L307.8 722.997L295.99 723.156C295.827 719.127 295.919 714.547 295.911 710.475L282.999 710.641L282.93 686.387Z" fill="#87A6CB"/>
<path d="M487.579 873.557C487.654 876.79 487.743 879.796 487.606 883.035L487.371 899.218C482.508 899.304 477.571 899.439 472.714 899.451L472.634 912.928L457.985 913.038L457.801 922.731L424.398 922.737L424.268 912.983C419.465 913.014 414.402 913.13 409.624 913.05C409.61 908.74 409.726 903.676 409.512 899.433C409.653 896.187 410.881 891.693 409.708 889.017L424.383 889.048C424.372 893.848 424.39 898.649 424.435 903.449C435.086 903.67 446.567 903.419 457.283 903.388C457.4 898.704 457.309 893.665 457.316 888.95L472.478 888.987C472.813 884.474 472.626 878.51 472.61 873.881C477.746 873.869 482.453 873.82 487.579 873.557Z" fill="#87A6CB"/>
<path d="M348.865 828.491L362.649 828.516C362.678 832.735 362.55 839.543 363.437 843.407L377.71 843.37C377.687 848.024 377.498 853.828 377.92 858.372C383.037 858.476 388.154 858.525 393.272 858.506C393.265 862.927 393.062 869.522 393.454 873.765L408.906 873.79C408.866 879.606 409.118 883.207 409.708 889.018C410.881 891.693 409.653 896.188 409.512 899.433C404.591 899.329 399.687 900.351 395.435 898.453C392.513 895.288 393.451 888.767 393.54 884.174C388.287 884.229 383.033 884.211 377.781 884.119L377.768 869.657L363.103 869.442C363.065 864.152 363.085 858.862 363.164 853.577L349.548 853.584L348.865 828.491Z" fill="#ACB0BA"/>
<path d="M487.491 859.382C497.311 859.523 507.132 859.559 516.953 859.486C516.935 864.066 516.775 869.344 517.281 873.832L531.987 873.771C531.991 875.926 532.061 878.388 531.931 880.519C531.782 885.252 531.408 894.522 532.318 898.98L531.881 900.137C531.679 899.763 531.145 899.249 530.832 898.906C526.814 898.404 521.762 898.698 517.622 898.802L517.53 882.882L487.606 883.035C487.743 879.796 487.654 876.79 487.579 873.557L487.491 859.382Z" fill="#ACB0BA"/>
<path d="M890.548 468.04C894.075 468.233 902.831 469.265 905.476 467.25C905.439 475.48 905.537 484.163 905.072 492.333C900.339 492.371 895.416 492.336 890.701 492.493C890.713 496.855 890.885 502.421 890.677 506.69C885.937 506.737 880.996 506.711 876.281 506.87C876.275 509.829 876.453 518.937 875.749 521.191C872.124 520.73 865.897 520.792 862.045 520.724L862.002 500.92C878.988 501.349 875.804 500.181 875.565 483.685C880.488 483.746 885.405 483.751 890.328 483.701C890.677 478.964 890.536 472.884 890.548 468.04Z" fill="#87A6CB"/>
<path d="M348.94 468.095C353.89 468.396 357.673 468.185 362.653 467.939C362.534 472.586 361.608 478.918 364.322 482.325C368.069 484.558 372.693 483.74 377.242 483.571C376.916 499.183 374.311 501.058 390.634 501.233L390.556 520.491C387.433 520.488 380.113 519.967 377.847 521.715C377.523 517.241 377.658 511.511 377.64 506.936L363.192 506.882L363.057 492.555C358.491 492.492 353.926 492.382 349.363 492.226C349.049 484.353 349.111 476.036 348.94 468.095Z" fill="#ACB0BA"/>
<path d="M532.085 329.453C535.027 329.316 537.967 329.16 540.908 328.986C541.95 336.118 541.38 357.874 541.315 366.135L531.562 366.243C532.265 354.819 531.554 341.49 532.085 329.453Z" fill="#6888B0"/>
<path d="M713.17 328.895C715.888 329.103 718.687 329.357 721.411 329.482L721.448 366.069L712.068 366.094C712 357.779 712.147 336.849 713.17 328.895Z" fill="#6888B0"/>
<path d="M721.282 880.439C721.399 885.944 721.803 893.003 721.729 898.3L721.876 898.729L721.791 900.357C720.982 904.294 721.129 909.217 721.093 913.32C718.784 913.154 714.731 912.64 712.661 913.203L712.673 912.762C711.535 908.519 712.08 886.599 712.141 880.776L721.282 880.439Z" fill="#7293BC"/>
<path d="M712.98 899.139C715.65 899.059 718.227 899.151 720.897 899.212L721.73 898.3L721.877 898.728L721.791 900.357C720.983 904.294 721.13 909.217 721.093 913.32C718.785 913.154 714.731 912.64 712.662 913.203L712.674 912.762C712.974 909.248 712.882 902.874 712.98 899.139Z" fill="#6888B0"/>
<path d="M862.119 733.045C865.872 733.057 872.106 733.376 875.461 732.451C875.584 739.872 875.584 747.293 875.455 754.715C872.228 754.402 865.517 754.586 862.033 754.586L862.119 733.045Z" fill="#ACB0BA"/>
<path d="M378.252 732.947L390.653 733.137C390.632 739.444 390.832 748.493 390.403 754.543C387.989 754.58 386.042 754.512 383.631 754.378C382.286 753.931 380.938 753.496 379.585 753.073C378.035 750.924 378.527 750.6 378.26 747.465L378.252 732.947Z" fill="#ACB0BA"/>
<path d="M378.26 747.465C383.576 748.567 389.29 748.463 390.403 754.543C387.989 754.58 386.042 754.512 383.631 754.378C382.286 753.931 380.937 753.496 379.585 753.074C378.034 750.924 378.527 750.6 378.26 747.465Z" fill="#E4E7ED"/>
<path d="M765.956 873.967C770.91 873.906 775.992 873.777 780.933 873.789C780.921 878.565 781.025 883.341 781.24 888.111C778.833 887.187 769.483 886.715 766.544 886.697C765.809 880.947 765.705 879.667 765.956 873.967Z" fill="#6888B0"/>
<path d="M531.931 880.519L541.368 881.021V899.157C537.848 898.924 535.875 898.863 532.318 898.979C531.408 894.522 531.782 885.252 531.931 880.519Z" fill="#7293BC"/>
<path d="M531.42 912.879C534.964 912.983 537.878 912.995 541.426 912.879C541.332 916.375 540.84 931.591 540.345 934.824C539.852 934.175 539.399 931.419 539.135 930.366C537.059 929.019 534.798 929.54 531.897 929.527C532.125 923.753 531.276 918.573 531.42 912.879Z" fill="#E4E7ED"/>
<path d="M721.093 913.32C721.13 909.217 720.983 904.294 721.791 900.357C721.95 910.074 721.387 920.165 721.638 929.558C718.362 929.729 716.801 929.252 714.4 930.844C713.574 932.962 713.598 934.058 713.396 936.287C713.451 928.499 712.6 921.163 712.661 913.203C714.731 912.64 718.784 913.154 721.093 913.32Z" fill="#ACB0BA"/>
<path d="M532.318 898.979C535.875 898.863 537.848 898.924 541.369 899.157L541.426 912.879C537.878 912.995 534.964 912.983 531.42 912.879C531.619 908.636 531.773 904.386 531.882 900.137L532.318 898.979Z" fill="#87A6CB"/>
<path d="M568.423 292.733L648.057 292.728L671.692 292.757C675.06 292.74 681.281 291.696 683.822 293.604L683.896 295.417L683.871 306.411C688.004 306.348 694.672 306.024 698.536 306.651L697.764 310L696.289 310.48C696.142 323.69 696.142 336.902 696.301 350.112C696.325 359.194 696.038 370.092 696.417 379.041C702.338 378.949 708.516 378.757 714.413 378.906L714.492 391.275L734.803 391.392C734.772 394.828 734.472 402.374 735.397 405.278C744.985 405.739 757.458 405.36 767.261 405.342L767.242 391.32L782.391 391.336L782.409 376.491L797.27 376.33L797.319 361.912L827.64 361.977C827.579 367.074 827.542 371.448 827.848 376.525L843.205 376.585C843.242 381.437 843.187 386.647 843.358 391.465L858.562 391.546C858.598 396.476 858.604 401.405 858.568 406.335L859.198 407.786L873.765 407.797L873.722 422.909L873.857 423.905C878.296 424.546 883.813 424.136 888.405 424.238L888.387 442.147L888.369 465.093C883.544 464.974 878.719 465.011 873.894 465.204L874.255 482.925C869.332 482.79 862.633 481.39 859.511 484.154C858.733 485.943 859.002 487.242 859.119 489.204L859.015 499.603L846.744 499.749C846.946 507.111 847.234 514.446 847.044 521.81L859.119 522.016C859.174 527.519 859.456 534.765 859.082 540.131C861.495 540.97 863.24 540.822 865.805 540.871L865.94 557.259L917.576 557.326C922.547 557.323 938.339 556.96 942.551 557.543C943.292 559.955 942.986 561.534 942.845 564.108C942.992 566.827 942.527 566.785 943.899 568.48C945.497 568.673 946.244 568.738 947.854 568.742C950.12 568.595 952.93 568.057 954.742 569.167C955.777 570.753 955.373 572.371 955.238 574.359C954.595 585.864 954.504 598.173 954.73 609.734C955.14 630.551 953.965 652.043 954.798 672.782C954.981 676.187 955.14 679.291 955.147 682.708L943.005 682.622C943.053 685.849 943.58 689.872 942.294 692.553C940.721 693.472 940.335 693.282 938.504 693.258C914.33 693.098 890.157 693.074 865.977 693.196L865.799 709.435L859.009 709.569L858.88 732.396L846.965 732.641L846.879 755.394L859.278 755.486C859.284 758.799 859.425 763.03 859.094 766.257C859.266 769.073 858.782 768.847 860.252 770.469C864.819 772.08 868.977 771.02 874.016 771.235L873.943 786.946C877.323 786.928 885.454 786.683 888.411 787.228L888.399 805.04L888.246 826.336L874.047 826.471C873.998 831.608 873.863 836.966 873.979 842.084H858.941L858.978 857.178L843.462 857.245C843.358 862.278 843.211 867.311 843.37 872.344L827.799 872.32C827.818 876.949 827.726 882.178 827.977 886.752C817.745 886.672 807.508 886.697 797.276 886.825L797.282 872.283C792.206 872.228 787.136 872.13 782.06 872.295L781.815 857.276L767.047 857.294C767.126 852.5 767.298 847.442 767.212 842.672C756.411 842.55 745.604 842.531 734.796 842.611L734.772 857.129C728.061 857.153 721.215 857.245 714.523 857.19L713.984 863.497L696.656 863.435C696.46 883.078 695.291 916.485 697.519 934.94L684.116 935.13L684.128 947.878C645.951 947.817 606.185 947.199 568.158 947.927L568.253 935.057L556.27 935.002C556.64 932.203 557.073 927.795 557.749 925.211C558.368 913.828 557.861 897.4 557.712 885.717C556.886 881.621 557.199 868.42 557.243 863.68C551.684 863.448 544.953 864.709 541.104 862.909C539.442 860.76 539.994 860.551 539.766 857.233L518.562 857.165L518.349 842.55C507.534 842.452 496.718 842.464 485.904 842.586C485.599 847.148 485.708 852.567 485.686 857.208L471.261 857.227C471.092 862.052 471.228 867.354 471.255 872.222L455.635 872.271L456.055 886.801C445.91 886.587 435.763 886.562 425.617 886.728L425.636 872.406C420.371 872.265 415.078 872.4 409.81 872.479C410.036 867.238 409.92 862.462 409.802 857.233L393.95 857.269L393.925 842.629C389.012 842.237 383.779 842.366 378.822 842.384C378.998 836.917 378.92 832.116 378.785 826.648C375.14 826.342 368.896 826.507 365.052 826.501C364.968 820.256 365.517 811.683 365.617 805.071C365.707 799.229 365.53 793.039 365.46 787.167L379.082 787.155L379.058 771.051C383.413 771.179 389.841 771.584 393.98 770.959C394.002 766.048 392.527 758.842 395.224 755.651L398.298 755.492C400.449 755.272 403.203 755.235 405.411 755.143C405.334 747.575 405.31 740.013 405.337 732.445C402.087 732.439 396.967 733.008 394.534 731.741C393.15 729.457 393.669 729.261 393.661 726.089L393.718 709.649L382.408 709.459C382.561 703.997 382.553 698.523 382.382 693.062C358.566 693.386 334.366 693.117 310.479 693.245L310.482 682.61L299.21 682.683C300.168 656.862 298.649 628.788 299.308 602.792C299.538 593.68 299.022 584.171 299.549 575.052L299.444 574.331C299.215 571.662 298.809 570.879 300.05 569.057C302.674 567.857 307.511 568.576 310.876 568.666L310.984 557.232C317.677 556.862 328.816 557.293 335.95 557.301L387.683 557.322C387.812 551.734 386.552 546.414 388.318 541.81C390.37 540.103 390.422 540.695 393.824 540.552L393.928 522.088L405.354 522.05L405.389 507.024L405.38 499.617L393.666 499.696L393.489 489.48L393.148 482.6C388.422 482.463 383.524 482.474 378.782 482.419L378.597 465.337L365.648 464.932L365.585 442.474L365.557 424.175L379.313 424.292C379.734 419.5 379.519 412.758 379.502 407.807L394.35 407.844L394.331 407.182C394.642 402.638 394.477 396.197 394.5 391.505C399.681 391.522 405.393 391.679 410.506 391.201C410.641 386.378 410.615 381.356 410.661 376.514C415.385 376.551 421.429 376.772 426.019 376.273L426.146 361.879L455.92 362.058C455.911 364.935 455.695 373.914 456.053 376.313C461.012 376.507 465.973 376.592 470.935 376.567L470.904 390.507C473.401 391.965 482.652 391.415 485.989 391.363C485.94 395.854 485.779 400.87 485.917 405.313C495.023 405.334 506.777 405.01 515.661 405.449C516.599 405.344 516.771 405.237 517.678 404.958C519.145 401.932 518.522 394.979 518.401 391.382C524.299 391.385 534.019 391.671 539.591 390.968L539.703 379.038C545.364 378.873 551.43 378.996 557.123 379.011C557.171 372.874 556.952 362.095 557.729 356.342C557.811 341.948 558.157 326.111 557.276 311.86C556.575 309.99 556.155 308.749 557.215 307.081C560.278 305.768 564.997 306.406 568.67 306.479C568.813 302.153 568.551 297.12 568.423 292.733Z" fill="#ACB0BA"/>
<path d="M878.933 805.107C881.964 805.291 885.338 805.113 888.399 805.04L888.246 826.336L874.047 826.47C873.998 831.608 873.863 836.965 873.979 842.084H858.941L858.978 857.178L843.462 857.245C843.358 862.278 843.211 867.311 843.37 872.344L827.799 872.32C827.818 876.949 827.726 882.178 827.977 886.752C817.745 886.672 807.508 886.697 797.276 886.825L797.282 872.283C792.206 872.228 787.136 872.13 782.06 872.295L781.815 857.275L767.047 857.294C767.126 852.5 767.298 847.442 767.212 842.672C756.411 842.55 745.604 842.531 734.797 842.611L734.772 857.129C728.061 857.153 721.216 857.245 714.523 857.19L713.984 863.496L696.656 863.435C696.46 883.078 695.291 916.485 697.519 934.94L684.116 935.13L684.128 947.878C645.951 947.817 606.185 947.199 568.158 947.927L568.253 935.057L556.271 935.001C556.64 932.203 557.073 927.795 557.749 925.211C561.525 925.217 567.595 925.039 571.183 925.352C571.538 927.972 570.91 927.127 572.5 928.401C582.507 927.703 598.911 928.211 609.262 928.217L679.365 928.15C679.701 905.133 679.083 879.465 680.32 856.853C684.832 857.122 690.496 856.945 695.095 856.92L695.223 843.229L712.631 843.67L713.207 837.467C720.199 837.363 727.192 837.339 734.19 837.382L734.147 824.86C744.704 824.48 756.735 824.744 767.402 824.725L767.445 837.78C784.026 837.235 783.922 836.867 783.346 853.583C788.385 853.455 793.676 853.559 798.733 853.577C798.593 858.586 798.721 863.509 798.825 868.511C805.083 868.23 820.066 868.095 825.95 868.75L826.03 853.351C830.83 852.836 836.433 853.02 841.319 853.044L841.387 838.429C847.957 837.529 850.424 837.137 857.166 837.094L857.3 821.872C862.26 821.731 867.483 821.762 872.473 821.713L872.32 805.223L878.933 805.107Z" fill="#515A68"/>
<path d="M568.423 292.733L648.057 292.728L671.692 292.757C675.06 292.74 681.281 291.696 683.822 293.604L683.896 295.417L683.871 306.411C688.004 306.348 694.672 306.024 698.536 306.651L697.764 310L696.289 310.48C692.731 310.145 683.173 310.18 679.689 310.545L679.254 310.427L573.703 310.374L573.769 391.101C566.588 390.841 566.194 390.232 560.098 393.454L557.378 393.309C555.959 395.135 556.545 402.633 556.627 405.351C553.041 405.319 543.251 404.955 540.285 405.732C539.826 407.251 539.865 407.322 539.808 408.926C537.266 410.674 524.742 409.793 520.631 409.862C520.344 411.021 520.2 412.643 520.045 413.866C519.677 407.466 517.038 410.83 514.817 406.461L515.661 405.449C516.599 405.344 516.771 405.237 517.678 404.958C519.145 401.932 518.522 394.979 518.401 391.382C524.299 391.385 534.019 391.671 539.591 390.968L539.703 379.038C545.364 378.873 551.43 378.996 557.123 379.011C557.171 372.874 556.952 362.095 557.729 356.342C557.811 341.948 558.157 326.111 557.276 311.86C556.575 309.99 556.155 308.749 557.215 307.081C560.278 305.768 564.997 306.406 568.67 306.479C568.813 302.153 568.551 297.12 568.423 292.733Z" fill="#E4E7ED"/>
<path d="M557.276 311.86C561.234 310.975 566.866 310.87 571.045 310.657C571.202 319.229 572.019 327.472 571.908 336.063C571.718 350.808 571.531 365.55 571.313 380.293C567.436 380.141 560.875 379.626 557.265 379.738C558.348 376.208 557.834 360.666 557.729 356.342C557.811 341.948 558.157 326.11 557.276 311.86Z" fill="#D2E4F8"/>
<path d="M557.729 356.342C557.834 360.666 558.348 376.209 557.264 379.738C557.123 383.264 556.944 386.806 556.97 390.334C553.479 390.322 542.284 390.004 539.591 390.968L539.702 379.038C545.364 378.873 551.43 378.996 557.123 379.01C557.171 372.874 556.952 362.095 557.729 356.342Z" fill="#717986"/>
<path d="M679.254 310.427C680.209 306.533 678.44 302.722 680.754 299.711L682.554 299.513C683.84 298.325 683.528 297.616 683.895 295.417L683.871 306.411C688.004 306.348 694.672 306.024 698.535 306.651L697.764 310L696.288 310.48C692.731 310.145 683.173 310.18 679.689 310.545L679.254 310.427Z" fill="#ACB0BA"/>
<path d="M698.536 306.651L697.764 310C695.627 309.746 691.194 310.377 690.178 308.146C692.829 306.552 695.346 306.825 698.536 306.651Z" fill="#D2E4F8"/>
<path d="M378.785 826.648C378.701 823.017 378.464 821.205 379.385 817.659L379.939 821.725C381.762 822.282 391.049 821.786 394.374 822.074L394.304 837.81C399.644 837.755 405.048 837.621 410.376 837.896C410.339 842.072 410.036 849.842 410.831 853.626C415.733 853.498 420.825 853.289 425.713 853.289C425.765 856.161 425.722 862.89 426.077 865.431C426.016 867.36 425.797 867.728 426.826 869.338C431.277 868.193 448.94 868.358 454.362 868.291C454.34 863.362 454.476 858.427 454.767 853.504C459.418 853.179 464.601 853.1 469.3 852.928C469.508 848.005 469.491 842.709 469.568 837.755L483.929 837.535L484.011 824.787C495.508 824.719 507.005 824.78 518.501 824.97L518.558 837.578C523.018 837.455 537.42 836.182 540.118 839.115C539.972 840.743 539.868 840.713 540.415 842.219C543.796 844.393 552.712 843.737 557.12 843.676L557.176 857.159L557.243 863.68C551.684 863.448 544.952 864.709 541.103 862.909C539.442 860.76 539.994 860.551 539.765 857.233L518.561 857.165L518.349 842.55C507.534 842.452 496.718 842.464 485.903 842.586C485.599 847.148 485.708 852.567 485.686 857.208L471.26 857.227C471.091 862.052 471.228 867.354 471.255 872.222L455.635 872.271L456.054 886.801C445.91 886.587 435.762 886.562 425.617 886.727L425.636 872.406C420.37 872.265 415.078 872.399 409.809 872.479C410.036 867.238 409.92 862.462 409.801 857.233L393.949 857.269L393.924 842.629C389.012 842.237 383.778 842.366 378.822 842.384C378.998 836.916 378.92 832.116 378.785 826.648Z" fill="#515A68"/>
<path d="M393.824 540.552L404.013 540.672C404.039 543.709 403.953 547.705 404.171 550.658L403.964 557.011C400.483 556.952 396.603 556.788 393.157 556.947C393.151 562.764 393.187 568.579 393.263 574.395C367.319 574.216 341.498 574.737 315.475 574.476C315.562 581.859 314.977 588.603 315 595.911L315.248 672.188C310.665 672.206 304.185 672.029 299.808 672.647C300.184 652.086 299.674 631.164 299.947 610.549C300.025 604.639 300.395 579.803 299.549 575.051L299.444 574.331C299.215 571.662 298.808 570.879 300.05 569.057C302.674 567.857 307.51 568.576 310.876 568.666L310.983 557.231C317.677 556.862 328.816 557.293 335.95 557.301L387.683 557.321C387.812 551.734 386.552 546.414 388.318 541.81C390.369 540.103 390.422 540.695 393.824 540.552Z" fill="#D2E4F8"/>
<path d="M310.983 557.231C313.975 557.756 313.65 557.19 315.167 558.98C316.424 564.461 315.451 568.756 315.454 574.434C310.118 574.299 304.781 574.265 299.444 574.331C299.215 571.662 298.808 570.879 300.05 569.057C302.674 567.857 307.51 568.576 310.876 568.666L310.983 557.231Z" fill="#EEEFF2"/>
<path d="M954.798 672.782C954.981 676.187 955.141 679.291 955.147 682.708L943.005 682.622C943.054 685.849 943.58 689.872 942.294 692.553C940.721 693.472 940.335 693.282 938.504 693.258C914.33 693.098 890.157 693.074 865.977 693.196L865.799 709.435L859.009 709.569L858.88 732.396L846.965 732.641C846.493 726.8 842.636 728.3 841.913 724.375C844.54 721.834 841.674 711.743 843.468 708.786C845.483 708.62 844.883 708.853 846.646 708.082C847.565 702.791 846.42 696.276 847.087 690.49C848.287 686.167 848.067 678.152 848.091 673.388C851.649 673.425 854.563 673.345 858.109 673.156C861.813 672.415 880.641 672.703 885.417 672.715C902.819 672.654 920.227 672.696 937.629 672.849L937.88 672.96C944.113 672.096 949.152 673.554 954.798 672.782Z" fill="#58606D"/>
<path d="M954.797 672.782C954.981 676.186 955.14 679.291 955.146 682.707L943.004 682.622C943.053 685.849 943.58 689.871 942.294 692.553C940.72 693.472 940.334 693.282 938.504 693.257C938.589 688.977 937.377 675.274 937.879 672.96C944.112 672.096 949.152 673.554 954.797 672.782Z" fill="#515A68"/>
<path d="M848.091 673.388C851.649 673.425 854.563 673.345 858.108 673.156C857.998 678.954 858.004 684.753 858.133 690.551C854.906 690.502 850.197 690.306 847.087 690.49C848.287 686.167 848.067 678.152 848.091 673.388Z" fill="#9095A0"/>
<path d="M937.965 574.423C938.308 570.93 937.537 568.875 938.651 565.487C940.347 563.697 939.594 564.236 942.845 564.108C942.992 566.827 942.527 566.785 943.898 568.48C945.497 568.673 946.244 568.738 947.854 568.742C950.119 568.595 952.93 568.057 954.742 569.167C955.777 570.753 955.373 572.371 955.238 574.359C954.595 585.864 954.503 598.173 954.73 609.734C955.14 630.551 953.965 652.043 954.797 672.782C949.152 673.554 944.113 672.096 937.879 672.96L937.628 672.849C938.228 669.959 937.977 649.123 937.977 644.873L938.063 574.773L937.965 574.423Z" fill="#606976"/>
<path d="M937.965 574.423C938.308 570.93 937.536 568.875 938.651 565.487C940.347 563.697 939.594 564.236 942.845 564.108C942.992 566.827 942.527 566.785 943.898 568.48C945.496 568.673 946.243 568.738 947.854 568.742L947.945 574.418C945.557 574.409 940.102 574.193 938.063 574.773L937.965 574.423Z" fill="#9095A0"/>
<path d="M947.854 568.742C950.119 568.595 952.93 568.057 954.742 569.167C955.777 570.753 955.373 572.371 955.238 574.359L947.945 574.418L947.854 568.742Z" fill="#ACB0BA"/>
<path d="M888.387 442.147L888.368 465.093C883.543 464.974 878.718 465.011 873.893 465.204L874.255 482.925C869.332 482.79 862.633 481.39 859.51 484.153C858.733 485.943 859.002 487.241 859.118 489.204L859.014 499.603L846.744 499.749C846.946 507.111 847.234 514.446 847.044 521.81L859.118 522.015C859.173 527.519 859.455 534.765 859.082 540.131L849.248 540.536C846.842 540.672 846.413 540.678 844.031 540.406C842.421 538.725 843.211 523.708 843.266 520.425C843.468 516.772 843.198 510.794 843.143 506.969C839.316 506.874 835.281 506.609 831.436 506.417L831.424 488.565L843.382 488.535C843.529 483.322 843.511 477.901 843.566 472.667L857.232 472.747L857.3 459.252L872.246 459.547C872.699 454.548 872.522 447.336 872.54 442.164C877.818 442.229 883.102 442.224 888.387 442.147Z" fill="#515A68"/>
<path d="M846.719 488.495C850.797 488.655 855.028 488.963 859.119 489.204L859.015 499.603L846.744 499.749C846.53 496.62 846.701 491.759 846.719 488.495Z" fill="#464E5C"/>
<path d="M299.549 575.052C300.395 579.804 300.025 604.639 299.947 610.549C299.674 631.164 300.184 652.086 299.808 672.647C305.669 673.419 317.424 672.678 323.868 672.788C345.139 673.168 366.921 672.427 388.159 672.923C388.106 676.664 387.242 687.906 389.187 690.465L391.754 690.876C387.678 693.306 387.178 693.104 382.382 693.062C358.566 693.386 334.366 693.117 310.479 693.245L310.482 682.61L299.21 682.683C300.168 656.862 298.649 628.788 299.308 602.792C299.538 593.68 299.022 584.171 299.549 575.052Z" fill="#606976"/>
<path d="M797.318 361.912L827.64 361.977C827.579 367.074 827.542 371.448 827.848 376.525C827.897 380.148 828.24 388.419 827.334 391.451L826.085 390.606C825.417 387.176 825.515 382.653 825.448 379.078L800.16 379.052C800.019 394.45 800.062 394.968 785.079 394.956C785.372 410.474 784.264 409.765 769.159 409.743L769.036 421.624C757.598 421.506 746.16 421.515 734.723 421.655C734.71 419.212 734.551 412.336 734.9 410.32C735.665 408.762 735.421 407.072 735.396 405.278C744.985 405.739 757.457 405.36 767.26 405.342L767.242 391.32L782.39 391.336L782.409 376.491L797.269 376.33L797.318 361.912Z" fill="#E4E7ED"/>
<path d="M679.689 310.545C683.173 310.18 692.731 310.145 696.288 310.48C696.141 323.69 696.141 336.902 696.3 350.112C696.325 359.194 696.037 370.092 696.417 379.041C702.338 378.949 708.516 378.757 714.412 378.906L714.492 391.275C710.677 391.323 699.962 391.75 696.686 390.792L696.111 389.36C696.337 386.182 697.121 382.171 695.259 379.761L692.865 379.743C688.996 379.484 683.883 379.648 679.909 379.669C678.88 357.203 680.521 333.198 679.689 310.545Z" fill="#606976"/>
<path d="M865.94 557.259L917.575 557.326C922.547 557.323 938.338 556.96 942.551 557.543C943.292 559.954 942.986 561.534 942.845 564.108C939.594 564.236 940.347 563.697 938.651 565.487C937.536 568.875 938.308 570.93 937.965 574.423C928.823 574.105 918.126 574.456 908.825 574.48L859.076 574.312C861.372 567.602 860.9 564.22 860.955 557.236L865.94 557.259Z" fill="#E4E7ED"/>
<path d="M365.584 442.474C369.109 442.525 375.77 442.439 379.029 442.807C378.911 447.692 377.876 454.813 380.711 458.254C384.595 460.467 389.062 459.775 393.67 459.673L393.748 472.587C397.934 472.643 402.33 472.63 406.495 472.772C406.472 475.63 406.003 486.831 407.068 488.707C411.479 488.595 415.651 488.487 420.062 488.591L419.906 506.285C417.625 506.469 414.735 506.614 412.524 506.926C410.41 506.794 408.25 506.915 406.125 506.968L405.389 507.024L405.379 499.617L393.665 499.696L393.488 489.48L393.148 482.6C388.422 482.463 383.524 482.474 378.781 482.419L378.597 465.337L365.648 464.932L365.584 442.474Z" fill="#515A68"/>
<path d="M393.488 489.479C397.742 489.334 401.063 489.235 405.287 488.67L405.379 499.617L393.665 499.696L393.488 489.479Z" fill="#464E5C"/>
<path d="M406.041 755.315C407.604 755.259 408.779 755.149 410.342 755.308L411.587 755.406L411.485 771.461C405.788 771.957 402.657 773.041 396.843 772.857C397.059 788.452 397.604 789.395 381.594 788.354C381.81 792.481 380.835 819.031 379.939 821.725L379.384 817.659C378.464 821.205 378.701 823.017 378.785 826.648C375.14 826.342 368.896 826.507 365.052 826.501C364.968 820.256 365.516 811.683 365.617 805.07C365.707 799.229 365.529 793.039 365.459 787.167L379.081 787.154L379.058 771.051C383.412 771.179 389.84 771.583 393.979 770.959C394.001 766.048 392.527 758.841 395.224 755.651L398.298 755.492C401.48 755.682 402.863 755.896 406.041 755.315Z" fill="#E4E7ED"/>
<path d="M365.617 805.07L379.546 805.211C379.567 808.101 379.771 815.161 379.384 817.659C378.464 821.205 378.701 823.017 378.785 826.648C375.14 826.342 368.896 826.507 365.052 826.501C364.968 820.255 365.516 811.683 365.617 805.07Z" fill="#464E5C"/>
<path d="M406.04 755.315C407.604 755.259 408.779 755.149 410.342 755.308C409.441 755.461 407.647 755.547 407.369 756.147C405.876 759.399 406.99 766.477 406.847 770.475C403.658 770.347 396.574 769.691 393.979 770.959C394.001 766.048 392.527 758.841 395.224 755.651L398.298 755.492C401.48 755.682 402.863 755.896 406.04 755.315Z" fill="#ACB0BA"/>
<path d="M557.176 857.159C559.946 857.171 563.015 857.227 565.747 856.939C571.57 856.314 571.356 859.719 571.488 864.14L571.366 871.273C571.873 884.254 571.658 897.051 571.541 910.044C571.515 912.891 571.672 923.006 571.182 925.352C567.595 925.039 561.525 925.217 557.748 925.211C558.368 913.828 557.86 897.4 557.712 885.717C556.886 881.621 557.199 868.42 557.243 863.68L557.176 857.159Z" fill="#D2E4F8"/>
<path d="M557.176 857.159C559.946 857.171 563.015 857.227 565.747 856.939C571.57 856.314 571.356 859.719 571.488 864.14L571.366 871.273C566.853 871.408 562.342 871.616 557.835 871.891C557.83 875.994 557.985 881.756 557.712 885.717C556.886 881.621 557.199 868.42 557.243 863.68L557.176 857.159Z" fill="#606976"/>
<path d="M557.79 863.986L571.489 864.139L571.366 871.273C566.854 871.407 562.343 871.616 557.835 871.891L557.79 863.986Z" fill="#ACB0BA"/>
<path d="M457.458 394.848C456.795 393.601 456.853 393.671 456.739 392.25C458.328 390.663 468.537 390.406 470.904 390.507C473.4 391.965 482.652 391.415 485.988 391.363C485.94 395.854 485.778 400.87 485.917 405.313C495.023 405.334 506.777 405.01 515.66 405.449L514.817 406.461C517.038 410.83 519.677 407.466 520.044 413.866C520.2 412.643 520.344 411.021 520.63 409.862C521.347 413.662 521.026 417.563 520.92 421.46L484.837 421.411L485.054 409.748C468.967 408.771 470.161 412.248 470.253 394.861L457.458 394.848Z" fill="#D2E4F8"/>
<path d="M410.661 376.514C415.385 376.551 421.429 376.772 426.019 376.273L425.944 380.288L427.312 377.882C428.847 378.103 428.113 377.842 429.377 379.09C429.773 393.626 428.869 395.111 414.155 394.839C414.345 409.287 412.955 409.95 398.552 409.757C398.655 413.505 399.224 418.533 397.565 421.742C396.837 422.046 396.032 422.417 395.293 422.656L394.068 421.479C393.315 417.315 394.005 412.174 394.35 407.844L394.33 407.182C394.642 402.638 394.477 396.197 394.5 391.505C399.681 391.522 405.393 391.679 410.506 391.201C410.641 386.378 410.615 381.356 410.661 376.514Z" fill="#EEEFF2"/>
<path d="M410.506 391.201C409.255 404.964 411.64 410.26 394.331 407.182C394.642 402.638 394.477 396.197 394.5 391.505C399.681 391.522 405.393 391.679 410.506 391.201Z" fill="#E4E7ED"/>
<path d="M410.661 376.514C415.385 376.551 421.429 376.772 426.019 376.273L425.944 380.288C425.769 384.181 425.559 387.945 425.646 391.844C420.762 391.765 415.301 391.82 410.506 391.201C410.641 386.378 410.615 381.356 410.661 376.514Z" fill="#D2E4F8"/>
<path d="M831.485 724.32C835.141 724.209 838.264 724.265 841.913 724.375C842.635 728.3 846.493 726.799 846.964 732.641L846.879 755.394L859.278 755.486C859.284 758.798 859.425 763.03 859.094 766.256L858.464 767.224L858.451 769.667C857.27 770.083 846.156 770.622 843.199 770.965C843.248 766.189 843.456 760.574 842.923 755.915L841.888 755.657L840.645 757.164C837.094 757.5 835.214 757.647 832.361 755.523C830.04 751.867 831.375 729.855 831.485 724.32Z" fill="#515A68"/>
<path d="M682.567 388.753C685.53 388.785 694.776 388.043 696.111 389.36L696.686 390.792C699.962 391.75 710.677 391.323 714.492 391.275L734.802 391.392C734.772 394.827 734.472 402.374 735.396 405.278C735.421 407.072 735.666 408.762 734.9 410.32C728.177 409.78 720.983 409.809 714.204 409.707C714.137 408.125 714.094 407.923 713.714 406.379C710.971 404.427 700.648 405.308 696.68 405.338L696.521 393.261C691.678 393.52 685.977 393.253 681.066 393.144C681.324 391.245 681.238 390.083 682.567 388.753Z" fill="#D2E4F8"/>
<path d="M714.205 409.707C714.462 408.171 714.682 407.412 715.129 405.911C721.797 405.856 728.716 405.515 735.396 405.278C735.421 407.072 735.666 408.762 734.9 410.32C728.177 409.78 720.983 409.809 714.205 409.707Z" fill="#EEEFF2"/>
<path d="M391.754 690.876C408.088 689.394 400.576 696.711 402.731 708.008C404.341 708.682 404.826 708.559 406.567 708.602C408.038 711.357 407.117 720.328 407.481 724.363C406.723 735.384 405.504 743.907 406.041 755.315C402.863 755.896 401.48 755.682 398.298 755.492C400.449 755.272 403.203 755.235 405.411 755.143C405.334 747.575 405.31 740.013 405.337 732.445C402.086 732.439 396.967 733.008 394.534 731.741C393.15 729.457 393.668 729.261 393.661 726.089L393.717 709.649L382.408 709.459C382.561 703.997 382.553 698.523 382.382 693.062C387.178 693.105 387.678 693.307 391.754 690.876Z" fill="#515A68"/>
<path d="M393.66 726.089C398.549 727.13 403.296 724.026 405.686 727.259C405.813 729.598 405.712 730.1 405.337 732.445C402.086 732.439 396.967 733.008 394.534 731.741C393.15 729.457 393.668 729.261 393.66 726.089Z" fill="#464E5C"/>
<path d="M379.502 407.807L394.35 407.844C394.005 412.174 393.315 417.315 394.068 421.479L395.293 422.656L394.351 423.096L394.145 425.486C392.196 426.717 384.352 426.247 381.643 426.205C381.663 430.352 382.616 439.8 380.688 442.433L379.029 442.807C375.77 442.439 369.109 442.525 365.585 442.474L365.557 424.175L379.313 424.292C379.734 419.5 379.519 412.758 379.502 407.807Z" fill="#E4E7ED"/>
<path d="M827.848 376.524L843.205 376.585C843.242 381.437 843.187 386.646 843.358 391.465L858.562 391.546C858.598 396.476 858.604 401.405 858.568 406.334C853.749 406.167 847.932 404.665 844.087 407.024L843.04 409.166C843.284 406.952 843.493 407.956 842.427 406.038C841.417 402.868 841.631 398.439 841.576 394.99C837.81 394.891 833.598 395.604 829.967 394.795C828.105 394.38 828.063 393.209 827.334 391.451C828.24 388.418 827.897 380.147 827.848 376.524Z" fill="#D2E4F8"/>
<path d="M827.334 391.451C832.888 391.206 837.725 391.167 843.291 391.24C843.309 394.334 843.817 404.089 842.427 406.038C841.417 402.868 841.631 398.439 841.576 394.99C837.81 394.891 833.598 395.605 829.967 394.795C828.105 394.381 828.063 393.209 827.334 391.451Z" fill="#EEEFF2"/>
<path d="M407.481 724.363L419.991 724.442L419.941 755.364L411.587 755.406L410.342 755.308C408.779 755.149 407.604 755.259 406.04 755.315C405.504 743.907 406.723 735.384 407.481 724.363Z" fill="#606976"/>
<path d="M426.146 361.879L455.92 362.058C455.911 364.935 455.695 373.914 456.053 376.313C450.83 375.563 444.556 375.032 439.32 375.443C434.279 375.839 431.131 376.616 426.019 376.273L426.146 361.879Z" fill="#D2E4F8"/>
<path d="M859.094 766.256C859.266 769.073 858.782 768.846 860.251 770.469C864.819 772.079 868.977 771.02 874.016 771.234L873.943 786.946C877.323 786.928 885.454 786.683 888.411 787.228C879.361 788.697 871.953 785.838 862.639 787.35L861.513 787.54C860.258 787.473 859.511 787.35 858.261 787.148C856.198 784.632 857.147 775.251 857.153 771.283C852.983 771.363 847.16 771.687 843.199 770.965C846.156 770.622 857.27 770.083 858.451 769.667L858.464 767.224L859.094 766.256Z" fill="#606976"/>
<path d="M862.639 787.35C871.952 785.838 879.361 788.697 888.411 787.228L888.399 805.04C885.337 805.113 881.964 805.291 878.933 805.107L872.32 805.223C871.867 800.864 871.891 792.763 871.75 788.146C869.834 788.508 863.484 787.944 861.513 787.54L862.639 787.35Z" fill="#9095A0"/>
<path d="M862.639 787.35L873.404 787.461L873.269 801.243C877.524 802.033 881.664 803.129 885.858 804.189C883.648 804.446 881.088 804.666 878.933 805.107L872.32 805.223C871.867 800.864 871.891 792.763 871.75 788.146C869.834 788.508 863.484 787.944 861.513 787.54L862.639 787.35Z" fill="#D2E4F8"/>
<path d="M873.857 423.905C878.296 424.546 883.813 424.136 888.405 424.238L888.387 442.147C883.103 442.224 877.818 442.229 872.54 442.164C872.167 438.12 873.422 429.399 871.842 425.968L870.232 425.372C873.018 424.944 871.904 425.529 873.857 423.905Z" fill="#D2E4F8"/>
<path d="M849.248 540.536L859.082 540.131C861.494 540.97 863.239 540.822 865.805 540.871L865.939 557.259L860.955 557.236L849.413 557.183L849.248 540.536Z" fill="#717986"/>
<path d="M406.124 506.968C406.1 511.276 406.154 515.821 405.871 520.096L406.029 520.926C407.146 527.054 407.072 533.786 407.174 540.034C409.213 540.857 409.41 540.848 411.489 541.198C409.243 541.365 408.073 541.415 405.901 541.928C403.883 544.395 405.846 546.511 404.171 550.658C403.953 547.705 404.039 543.709 404.013 540.672L393.824 540.552L393.928 522.088L405.354 522.05L405.389 507.024L406.124 506.968Z" fill="#ACB0BA"/>
<path d="M859.198 407.786L873.765 407.797L873.722 422.909L873.857 423.905C871.904 425.529 873.018 424.944 870.232 425.372C866.503 425.573 862.609 425.751 859.027 424.655C859.039 423.624 858.721 422.902 858.439 421.847C859.504 418.841 859.21 411.274 859.198 407.786Z" fill="#D2E4F8"/>
<path d="M859.027 424.655C861.005 420.866 871.132 420.847 873.722 422.909L873.857 423.905C871.904 425.529 873.018 424.944 870.232 425.372C866.503 425.573 862.609 425.751 859.027 424.655Z" fill="#E4E7ED"/>
<path d="M456.053 376.313C461.012 376.507 465.973 376.592 470.935 376.567L470.904 390.506C468.537 390.406 458.328 390.663 456.74 392.25C456.853 393.671 456.795 393.601 457.458 394.848C455.99 394.057 455.801 391.945 455.195 389.934C455.901 388.334 456.015 378.609 456.053 376.313Z" fill="#D2E4F8"/>
<path d="M406.125 506.968C408.251 506.915 410.41 506.794 412.524 506.926C415.961 507.008 417.581 506.471 419.789 508.474C420.484 510.652 419.473 515.78 419.304 518.771L418.647 517.803C418.544 519.122 418.61 519.014 417.88 520.198C414.954 520.379 408.764 520.551 405.871 520.097C406.154 515.821 406.1 511.276 406.125 506.968Z" fill="#D2E4F8"/>
<path d="M831.437 506.417C835.282 506.609 839.317 506.874 843.144 506.969C843.199 510.794 843.468 516.772 843.266 520.425C839.519 520.347 835.478 520.438 831.706 520.45L831.437 506.417Z" fill="#9095A0"/>
<path d="M571.488 864.139C571.92 861.059 572.197 858.145 572.486 855.053C573.425 864.709 574.803 921.616 572.499 928.401C570.91 927.127 571.538 927.972 571.182 925.351C571.672 923.006 571.515 912.891 571.541 910.044C571.658 897.051 571.873 884.254 571.366 871.273L571.488 864.139Z" fill="#EEEFF2"/>
<path d="M692.865 379.743L695.26 379.761C697.121 382.171 696.337 386.182 696.111 389.36C694.776 388.043 685.53 388.785 682.567 388.753C683.014 385.064 682.848 383.436 681.373 380.046C685.083 380.437 689.222 380.546 692.865 379.743Z" fill="#ACB0BA"/>
<path d="M405.871 520.096C408.764 520.551 414.954 520.379 417.88 520.198C418.61 519.014 418.544 519.122 418.647 517.803L419.304 518.771L419.283 521.107C417.237 523.086 414.418 522.317 411.601 522.153C411.553 528.481 411.452 534.877 411.489 541.198C409.41 540.848 409.214 540.857 407.175 540.034C407.072 533.786 407.147 527.054 406.029 520.926L405.871 520.096Z" fill="#E4E7ED"/>
<path d="M426.019 376.273C431.131 376.616 434.279 375.839 439.32 375.443C444.556 375.032 450.83 375.563 456.053 376.313C456.015 378.609 455.901 388.334 455.195 389.934C454.736 387.669 454.817 381.678 454.791 379.041C446.32 378.977 437.848 378.993 429.377 379.09C428.113 377.842 428.847 378.103 427.312 377.882L425.944 380.288L426.019 376.273Z" fill="#E4E7ED"/>
<path d="M843.04 409.167L844.087 407.024C847.932 404.666 853.749 406.168 858.568 406.335L859.198 407.786C859.211 411.274 859.504 418.841 858.439 421.847C857.582 421.705 858.121 421.845 856.896 421.183C856.198 418.289 856.357 413.074 856.333 409.874C852.108 409.772 847.173 409.787 843.04 409.167Z" fill="#E4E7ED"/>
<path d="M410.831 853.626C411.012 850.02 410.746 842.782 411.379 840.002C411.724 839.978 412.503 839.886 412.801 839.941C413.994 843.425 414.426 848.146 413.47 851.893C413.164 853.093 412.005 853.204 410.831 853.626Z" fill="#D2E4F8"/>
<path d="M426.077 865.431C426.237 863.258 426.275 859.712 427.018 857.857C430.119 859.927 429.643 864.397 429.098 867.519C428.102 868.695 428.195 868.658 426.826 869.338C425.797 867.728 426.016 867.36 426.077 865.431Z" fill="#ACB0BA"/>
<path d="M681.066 393.144C680.815 389.786 679.585 382.248 681.372 380.046C682.848 383.436 683.013 385.064 682.566 388.753C681.238 390.083 681.323 391.245 681.066 393.144Z" fill="#D2E4F8"/>
<path d="M582.824 488.628C611.507 488.363 643.024 488 671.582 488.632L671.496 504.569C675.764 504.529 695.566 503.983 698.615 505.352C701.732 507.178 708.657 506.172 712.49 505.878C712.527 510.103 712.729 515.509 712.557 519.638C713.77 521.066 714.088 521.027 715.888 521.52C717.56 523.607 717.015 524.593 716.923 527.918C722.605 528.052 723.799 527.899 727.993 523.897C728.312 523.589 728.63 523.277 728.943 522.962C729.371 528.096 727.491 534.431 732.084 536.591C732.243 541.792 732.316 546.995 732.304 552.198C736.829 552.175 741.483 552.092 745.995 552.238C746.001 558.3 746.497 568.466 746.259 574.01C746.301 577.147 745.793 577.989 747.318 580.331C750.747 582.024 755.204 580.853 759.809 581.035L759.674 609.247C759.662 612.697 759.497 621.979 759.95 625.047C760.984 630.055 760.329 642.859 760.58 648.731C760.887 655.944 761.872 665.245 761.456 672.09C760.397 673.309 760.231 673.198 758.676 673.78C759.35 678.311 758.621 688.114 758.639 693.282C754.09 693.343 750.618 693.447 746.105 693.894C746.185 689.314 746.51 682.701 745.885 678.323C745.756 683.699 745.542 689.057 745.854 694.427C746.92 696.84 746.418 706.979 746.363 710.267L733.149 710.567C733.492 726.996 734.398 727.418 717.688 728.092C717.713 732.978 718.515 737.509 715.607 741.17C712.147 743.16 704.31 742.089 699.423 742.334L699.319 755.143C689.902 755.076 680.485 755.198 671.074 755.523C671.08 760.746 671.147 766.11 671.049 771.32C641.922 771.504 612.801 771.535 583.678 771.424L583.507 755.192C578.719 755.29 558.807 756.049 555.742 754.635L555.42 753.037C555.205 749.871 555.259 745.438 555.197 742.175C551.516 742.058 541.41 743.013 538.925 741.446L538.619 739.731C538.537 736.382 538.998 728.392 538.171 725.704C537.886 727.357 538.246 726.696 536.961 727.663C533.342 727.761 525.357 728.312 522.952 726.102C522.828 720.885 522.781 717.137 523.163 711.963L522.874 710.959C520.34 708.975 512.288 709.416 508.638 709.361C508.687 705.13 508.926 699.717 508.074 695.676C505.351 692.315 506.38 677.154 507.288 672.843L493.507 672.531C493.45 668.869 493.227 666.788 492.773 663.193C492.265 658.662 492.327 635.768 492.523 630.619C492.982 618.489 491.125 591.74 493.872 581.277L506.55 581.23C506.514 571.597 506.783 561.69 506.934 552.037C511.238 551.787 516.005 551.856 520.357 551.832C520.479 546.631 519.541 541.974 520.845 537.164C522.423 535.376 522.006 535.96 525.291 535.738L525.281 522.352C529.501 522.347 532.684 522.112 536.894 521.744L538.461 519.766C542.374 518.596 549.215 519.095 553.471 519.216C553.502 515.859 553.364 507.94 554.043 505.074C557.485 505.19 567.338 505.517 570.504 504.818C572.536 504.51 573.766 504.638 575.814 504.676C578.006 504.782 579.447 505.066 581.458 504.212C584.096 501.073 582.703 494.064 582.824 488.628Z" fill="#D2E4F8"/>
<path d="M554.043 505.074C557.485 505.19 567.338 505.517 570.504 504.818L570.35 522.249C565.646 522.333 560.941 522.35 556.236 522.298C556.049 527.739 556.013 533.183 556.126 538.625C553.053 538.546 540.879 537.705 539.366 539.826C539.885 545.1 539.586 550.81 540.388 555.673C542.615 555.637 546.723 555.326 548.615 556.07L549.006 556.62C545.456 556.856 543.002 556.807 539.464 556.706L539.421 575.9C539.453 578.471 539.414 581.432 539.539 583.963C535.451 584.414 528.511 584.424 524.346 584.145C523.617 589.146 523.958 602.431 524.028 608.022L524.072 672.696L539.334 672.911C539.373 684.71 540.759 697.709 540.598 708.339L557.442 708.486C557.488 713.115 557.615 717.995 557.524 722.599C565.589 722.642 576.391 722.434 584.339 722.979L584.376 738.348H668.612L668.649 722.758L696.203 722.569L696.141 708.449C702.118 708.314 708.094 708.253 714.07 708.271C714.162 696.68 714.106 684.208 714.462 672.629L729.23 672.562L729.157 614.368C729.543 605.935 729.402 592.556 729.059 584.182L729.886 583.726C735.09 584.448 740.803 583.639 745.205 584.215C746.112 582.883 745.793 576.92 746.259 574.01C746.301 577.147 745.793 577.989 747.318 580.331C750.747 582.024 755.204 580.853 759.809 581.035L759.674 609.247C759.662 612.697 759.497 621.979 759.95 625.047C760.984 630.055 760.329 642.859 760.58 648.731C760.887 655.944 761.872 665.245 761.456 672.09C760.397 673.309 760.231 673.198 758.676 673.78C759.35 678.311 758.621 688.114 758.639 693.282C754.09 693.343 750.618 693.447 746.105 693.894C746.185 689.314 746.51 682.701 745.885 678.323C745.756 683.699 745.542 689.057 745.854 694.427C746.92 696.84 746.418 706.979 746.363 710.267L733.149 710.567C733.492 726.996 734.398 727.418 717.688 728.092C717.713 732.978 718.515 737.509 715.607 741.17C712.147 743.16 704.31 742.089 699.423 742.334L699.319 755.143C689.902 755.076 680.485 755.198 671.074 755.523C671.08 760.746 671.147 766.11 671.049 771.32C641.922 771.504 612.801 771.535 583.678 771.424L583.507 755.192C578.719 755.29 558.807 756.049 555.742 754.635L555.42 753.037C555.205 749.871 555.259 745.438 555.197 742.175C551.516 742.058 541.41 743.013 538.925 741.446L538.619 739.731C538.537 736.382 538.998 728.392 538.171 725.704C537.886 727.357 538.246 726.696 536.961 727.663C533.342 727.761 525.357 728.312 522.952 726.102C522.828 720.885 522.781 717.137 523.163 711.963L522.874 710.959C520.34 708.975 512.288 709.416 508.638 709.361C508.687 705.13 508.926 699.717 508.074 695.676C505.351 692.315 506.38 677.154 507.288 672.843L493.507 672.531C493.45 668.869 493.227 666.788 492.773 663.193C492.265 658.662 492.327 635.768 492.523 630.619C492.982 618.489 491.125 591.741 493.872 581.277L506.55 581.23C506.514 571.597 506.783 561.69 506.934 552.037C511.238 551.787 516.005 551.856 520.357 551.832C520.479 546.631 519.541 541.974 520.845 537.164C522.423 535.376 522.006 535.96 525.291 535.739L525.281 522.352C529.501 522.347 532.684 522.112 536.894 521.744L538.461 519.766C542.374 518.596 549.215 519.095 553.471 519.216C553.502 515.859 553.364 507.94 554.043 505.074Z" fill="#1D232A"/>
<path d="M554.043 505.074C557.485 505.19 567.338 505.517 570.504 504.818L570.35 522.249C565.646 522.333 560.941 522.35 556.236 522.298C556.049 527.739 556.013 533.183 556.126 538.625C553.053 538.546 540.879 537.705 539.366 539.826C538.569 544.024 538.87 551.386 538.865 555.928C532.946 555.673 529.016 556.09 523.17 556.643C523.3 561.37 523.236 580.851 523.869 583.789C518.622 584.195 513.432 584.136 508.173 584.149L508.193 660.016L508.139 666.481C507.868 668.6 507.585 670.725 507.288 672.843L493.507 672.531C493.45 668.869 493.227 666.788 492.773 663.193C492.265 658.662 492.327 635.768 492.523 630.619C492.982 618.489 491.125 591.741 493.872 581.277L506.55 581.23C506.514 571.597 506.783 561.69 506.934 552.037C511.238 551.787 516.005 551.856 520.357 551.832C520.479 546.631 519.541 541.974 520.845 537.164C522.423 535.376 522.006 535.96 525.291 535.739L525.281 522.352C529.501 522.347 532.684 522.112 536.894 521.744L538.461 519.766C542.374 518.596 549.215 519.095 553.471 519.216C553.502 515.859 553.364 507.94 554.043 505.074Z" fill="#515A68"/>
<path d="M492.773 663.193C497.227 662.054 503.433 658.228 508.193 660.015L508.139 666.481C507.868 668.6 507.585 670.725 507.288 672.843L493.507 672.531C493.45 668.869 493.227 666.788 492.773 663.193Z" fill="#606976"/>
<path d="M525.281 522.352C529.501 522.347 532.684 522.112 536.894 521.744C536.49 526.676 536.615 530.844 536.71 535.801L525.291 535.738L525.281 522.352Z" fill="#9095A0"/>
<path d="M745.854 694.427C746.92 696.839 746.418 706.979 746.363 710.267L733.149 710.567C733.492 726.995 734.398 727.418 717.688 728.092C717.713 732.978 718.515 737.509 715.607 741.17C712.147 743.16 704.31 742.089 699.423 742.334L699.319 755.143C689.902 755.076 680.485 755.198 671.074 755.523C671.08 760.746 671.147 766.109 671.049 771.32C641.922 771.504 612.801 771.535 583.678 771.424L583.507 755.192C578.719 755.29 558.807 756.049 555.742 754.635L555.42 753.037L556.477 752.951C560.885 754.929 577.864 752.418 583.494 754.084C586.17 756.233 660.187 754.959 669.261 754.953L669.286 739.309C675.188 739.352 692.431 739.787 697.642 738.874C697.415 734.717 697.58 729.059 697.574 724.785C703.116 724.724 708.296 724.675 713.849 724.889L714.841 723.965C715.417 720.211 715.215 714.37 715.196 710.39L729.953 710.359C730.694 708.492 730.449 697.262 730.443 694.586C735.329 694.727 740.919 694.507 745.854 694.427Z" fill="#E4E7ED"/>
<path d="M697.574 724.785C703.115 724.724 708.295 724.675 713.849 724.889C714.504 728.477 714.363 735.457 714.253 739.333C709.722 739.376 701.56 738.623 697.641 738.874C697.415 734.717 697.58 729.059 697.574 724.785Z" fill="#D2E4F8"/>
<path d="M745.205 584.215C746.112 582.883 745.793 576.92 746.259 574.01C746.301 577.147 745.793 577.989 747.318 580.331C750.747 582.024 755.204 580.853 759.809 581.035L759.674 609.247C759.662 612.697 759.497 621.979 759.95 625.047C760.985 630.055 760.329 642.859 760.58 648.731C760.887 655.944 761.872 665.245 761.456 672.09C760.397 673.309 760.231 673.198 758.676 673.78C759.35 678.311 758.621 688.114 758.639 693.282C754.09 693.343 750.618 693.447 746.106 693.894C746.185 689.314 746.51 682.701 745.885 678.323L745.512 673.572L744.948 672.874C745.199 668.698 745.046 663.059 745.052 658.766C745.34 635.113 744.134 607.4 745.205 584.215Z" fill="#666E7B"/>
<path d="M745.512 673.572C745.83 672.788 745.585 673.278 746.442 672.206C749.773 671.625 755.192 671.827 758.744 671.845L758.162 673.088L758.676 673.78C759.35 678.311 758.621 688.114 758.639 693.282C754.09 693.343 750.618 693.447 746.106 693.894C746.185 689.314 746.51 682.701 745.885 678.323L745.512 673.572Z" fill="#E4E7ED"/>
<path d="M745.052 658.766C749.381 659.023 755.621 659.354 759.784 658.65C759.797 661.846 760.286 669.592 758.743 671.845C755.192 671.827 749.773 671.625 746.442 672.206C745.585 673.278 745.83 672.788 745.512 673.572L744.948 672.874C745.199 668.698 745.046 663.059 745.052 658.766Z" fill="#9095A0"/>
<path d="M759.95 625.047C760.984 630.056 760.329 642.859 760.58 648.731C760.886 655.944 761.872 665.245 761.456 672.09C760.397 673.309 760.231 673.199 758.676 673.78L758.162 673.088L758.743 671.845C760.286 669.592 759.796 661.846 759.784 658.65C760.176 647.984 759.925 635.823 759.95 625.047Z" fill="#EEEFF2"/>
<path d="M507.288 672.843C507.585 670.725 507.868 668.6 508.139 666.481C508.158 669.739 507.633 669.788 509.071 672.121C513.251 674.252 518.279 672.892 523.538 672.892C523.433 679.052 522.89 691.941 523.99 697.611L523.406 697.403C523.303 700.66 523.901 710.145 523.163 711.963L522.874 710.959C520.34 708.975 512.288 709.416 508.639 709.361C508.688 705.13 508.926 699.717 508.074 695.676C505.351 692.315 506.38 677.154 507.288 672.843Z" fill="#515A68"/>
<path d="M508.074 695.676C512.424 696.588 522.171 695.603 523.406 697.403C523.303 700.66 523.901 710.145 523.163 711.963L522.874 710.959C520.34 708.975 512.288 709.416 508.638 709.361C508.687 705.13 508.926 699.717 508.074 695.676Z" fill="#717986"/>
<path d="M583.587 739.474L583.494 754.084C577.864 752.418 560.885 754.929 556.477 752.951C556.982 748.157 556.905 744.471 556.855 739.627C563.298 739.854 577.398 740.142 583.587 739.474Z" fill="#ACB0BA"/>
<path d="M744.948 672.874L745.511 673.572L745.885 678.323C745.756 683.7 745.542 689.057 745.854 694.427C740.919 694.507 735.329 694.727 730.443 694.586C730.449 697.262 730.694 708.492 729.953 710.359C729.279 704.126 730.406 680.981 730.424 672.99C735.157 673.094 740.184 672.941 744.948 672.874Z" fill="#606976"/>
<path d="M537.98 725.085L539.328 724.601C544.98 724.797 550.636 724.889 556.291 724.877C556.272 729.457 556.129 734.674 556.308 739.205C561.909 739.18 578.886 738.776 583.587 739.474C577.398 740.142 563.297 739.854 556.855 739.627C556.905 744.471 556.982 748.157 556.477 752.951L555.42 753.037C555.205 749.871 555.259 745.438 555.197 742.174C551.515 742.058 541.41 743.013 538.925 741.446L538.619 739.731C538.537 736.382 538.998 728.391 538.171 725.703L537.98 725.085Z" fill="#717986"/>
<path d="M538.619 739.731C544.697 739.609 550.776 739.578 556.855 739.627C556.905 744.471 556.982 748.157 556.477 752.951L555.42 753.037C555.205 749.871 555.259 745.438 555.197 742.174C551.516 742.058 541.41 743.013 538.925 741.446L538.619 739.731Z" fill="#D2E4F8"/>
<path d="M523.99 697.611C524.042 701.805 524.136 706.061 524.134 710.249L539.34 710.439L539.329 724.601L537.981 725.085L538.171 725.704C537.886 727.357 538.246 726.696 536.961 727.663C533.343 727.761 525.358 728.312 522.952 726.102C522.828 720.885 522.782 717.137 523.163 711.963C523.901 710.145 523.303 700.66 523.406 697.403L523.99 697.611Z" fill="#606976"/>
<path d="M537.981 725.085L538.171 725.703C537.886 727.357 538.246 726.695 536.961 727.663C533.342 727.761 525.357 728.312 522.952 726.101C526.463 725.195 534.047 725.207 537.981 725.085Z" fill="#D2E4F8"/>
<path d="M582.824 488.628C611.507 488.363 643.024 488 671.582 488.632L671.496 504.569C675.764 504.529 695.566 503.983 698.615 505.352C701.732 507.178 708.657 506.172 712.49 505.878C712.527 510.103 712.729 515.509 712.557 519.638C713.77 521.066 714.088 521.027 715.888 521.52C717.56 523.607 717.015 524.593 716.923 527.918C722.605 528.052 723.799 527.899 727.993 523.897C728.312 523.589 728.63 523.277 728.943 522.962C729.371 528.096 727.491 534.431 732.084 536.591C732.243 541.792 732.316 546.995 732.304 552.198C736.829 552.175 741.483 552.092 745.995 552.238C746.001 558.3 746.497 568.466 746.259 574.01C745.793 576.92 746.112 582.883 745.205 584.215C740.803 583.639 735.09 584.448 729.886 583.726L729.059 584.182C723.909 584.263 719.636 584.346 714.523 583.963C712.423 583.545 701.432 583.932 698.805 583.989C699.093 574.923 695.848 572.547 696.135 563.241C687.092 562.995 678.042 562.873 668.998 562.876L668.839 545.534L584.303 545.563L584.395 563.025L572.134 562.654C568.957 564.425 570.005 567.926 570.133 571.436C566.267 571.534 561.35 571.528 557.598 571.974L555.437 571.883C550.854 571.539 545.51 570.805 541.158 571.964C539.465 573.482 539.991 573.141 539.421 575.9L539.464 556.706C543.002 556.807 545.456 556.856 549.006 556.62L548.615 556.07C546.723 555.326 542.615 555.637 540.388 555.673C539.586 550.81 539.885 545.1 539.366 539.826C540.879 537.705 553.053 538.546 556.126 538.625C556.013 533.183 556.049 527.739 556.236 522.298C560.941 522.35 565.646 522.333 570.35 522.249L570.504 504.818C572.536 504.51 573.766 504.638 575.814 504.676C578.006 504.782 579.447 505.066 581.458 504.212C584.096 501.073 582.703 494.064 582.824 488.628Z" fill="#1D232A"/>
<path d="M584.341 522.837L668.692 522.791C668.227 546.263 674.46 540.416 696.784 540.461C696.754 545.919 696.65 551.421 696.944 556.867C702.595 556.9 708.596 557.043 714.211 556.761C714.278 565.743 714.229 575.01 714.523 583.963C712.423 583.545 701.432 583.932 698.805 583.989C699.093 574.923 695.848 572.546 696.135 563.241C687.092 562.995 678.042 562.873 668.998 562.876L668.839 545.534L584.303 545.563L584.395 563.025L572.135 562.654C568.957 564.425 570.006 567.926 570.133 571.436C566.267 571.534 561.35 571.528 557.598 571.974L555.438 571.883C550.854 571.539 545.51 570.805 541.158 571.964C539.465 573.482 539.991 573.141 539.421 575.899L539.464 556.706C543.002 556.807 545.456 556.856 549.006 556.62C551.268 556.796 553.436 557.271 555.325 556.169C558.302 552.401 556.673 545.92 556.786 540.248C565.781 540.571 575.116 540.262 584.142 540.091C584.395 534.132 584.394 528.777 584.341 522.837Z" fill="#87A6CB"/>
<path d="M557.798 563.15C562.708 563.167 567.225 562.922 572.134 562.654C568.957 564.425 570.005 567.926 570.133 571.436C566.267 571.534 561.35 571.528 557.598 571.974L557.798 563.15Z" fill="#ACB0BA"/>
<path d="M582.824 488.628C611.507 488.363 643.024 488 671.582 488.632L671.496 504.569C675.764 504.529 695.566 503.983 698.615 505.352C701.732 507.178 708.657 506.172 712.49 505.878C712.527 510.103 712.729 515.509 712.557 519.638C709.612 518.674 708.755 518.945 705.553 519.174L706.63 519.53C709.557 520.474 711.602 520.708 715.037 521.906C716.182 524.245 716.054 536.292 714.884 539.01C713.396 538.547 712.392 538.221 710.929 537.637L707.506 538.317L697.495 538.623L697.44 522.251C688.028 522.035 678.617 522.045 669.206 522.281L669.237 506.281C660.156 505.674 647.953 505.931 638.732 505.898L583.702 505.894C582.508 505.51 578.136 505.196 575.814 504.676C578.007 504.782 579.447 505.066 581.458 504.212C584.096 501.073 582.703 494.064 582.824 488.628Z" fill="#515A68"/>
<path d="M698.615 505.352C701.732 507.178 708.657 506.172 712.49 505.878C712.527 510.103 712.729 515.509 712.557 519.638C709.612 518.674 708.755 518.945 705.553 519.174C704.193 518.963 700.348 519.099 698.774 519.112C698.768 514.525 698.713 509.938 698.615 505.352Z" fill="#9095A0"/>
<path d="M705.553 519.174C708.755 518.945 709.612 518.674 712.557 519.638C713.77 521.066 714.088 521.027 715.888 521.52C717.56 523.607 717.015 524.593 716.923 527.918C722.605 528.052 723.799 527.898 727.994 523.896C728.312 523.588 728.63 523.277 728.943 522.961C729.371 528.096 727.492 534.431 732.084 536.591C732.243 541.792 732.317 546.995 732.304 552.198C736.829 552.175 741.483 552.092 745.995 552.238C746.002 558.3 746.498 568.465 746.259 574.01C745.793 576.92 746.112 582.883 745.206 584.215C740.803 583.639 735.09 584.448 729.886 583.726C730.712 577.024 730.045 564.544 730.278 556.859C723.934 556.033 721.215 555.992 714.78 556.045C714.743 553.245 714.878 549.921 715.031 547.138C715.399 540.241 714.186 538.962 707.506 538.317L710.929 537.637C712.392 538.221 713.396 538.547 714.884 539.01C716.054 536.292 716.182 524.245 715.037 521.906C711.602 520.708 709.557 520.474 706.63 519.529L705.553 519.174Z" fill="#464E5C"/>
<path d="M728.942 522.961C729.371 528.096 727.491 534.431 732.084 536.591C726.763 535.565 722.213 536.054 716.831 536.299L716.923 527.918C722.605 528.052 723.799 527.898 727.993 523.896C728.312 523.588 728.63 523.277 728.942 522.961Z" fill="#9095A0"/>
<path d="M570.505 504.818C572.536 504.51 573.766 504.638 575.814 504.676C578.136 505.196 582.508 505.51 583.702 505.893C583.518 511.218 583.45 516.546 583.496 521.874C579.213 521.945 574.59 521.934 570.35 522.249L570.505 504.818Z" fill="#464E5C"/>
<path d="M539.539 583.963L540.045 584.286C540.193 592.508 539.232 600.35 539.429 607.904L524.028 608.022C523.958 602.431 523.617 589.145 524.346 584.145C528.511 584.424 535.451 584.414 539.539 583.963Z" fill="#87A6CB"/>
<path d="M714.523 583.963C719.636 584.346 723.91 584.263 729.059 584.182C729.402 592.556 729.543 605.935 729.157 614.368L728.618 608.029L715.16 608.046C715.197 604.021 715.233 601.297 714.811 597.285C714.48 593.817 714.572 587.639 714.523 583.963Z" fill="#87A6CB"/>
<path d="M714.811 597.285C719.697 597.519 723.052 597.249 727.62 595.513L728.226 597.511L727.865 595.578C728.949 597.517 728.428 605.357 728.618 608.029L715.16 608.046C715.196 604.021 715.233 601.297 714.811 597.285Z" fill="#ACB0BA"/>
<path d="M539.421 575.899C539.991 573.141 539.465 573.482 541.158 571.964C545.51 570.804 550.854 571.539 555.438 571.883L555.487 584.045C550.483 583.957 544.969 583.7 540.045 584.286L539.539 583.963C539.414 581.432 539.453 578.47 539.421 575.899Z" fill="#ACB0BA"/>
<path d="M471.233 441.78C477.313 441.916 488.003 441.072 493.142 441.813C493.287 446.806 493.336 451.801 493.289 456.797L506.999 456.744L507.018 473.368L493.438 473.364C493.437 478.364 493.516 483.619 493.336 488.595L482.609 488.75C482.452 494.453 482.402 500.16 482.459 505.865C478.184 505.951 473.747 505.976 469.49 506.135C469.275 511.17 469.376 516.529 469.384 521.593L455.497 521.725L455.808 506.355C451.389 506.424 445.351 506.703 441.125 506.134C441.39 495.216 441.534 484.295 441.554 473.373L457.361 473.31C456.898 467.553 456.962 462.555 456.997 456.804L470.783 456.701C471.786 454.058 471.295 445.141 471.233 441.78Z" fill="#E4E7ED"/>
<path d="M493.289 456.796L506.999 456.744L507.018 473.368L493.438 473.364L493.289 456.796Z" fill="#D2E4F8"/>
<path d="M441.125 506.134C449.92 505.205 458.671 506.04 467.489 506.449L469.49 506.135C469.275 511.17 469.376 516.529 469.384 521.593L455.497 521.725L455.808 506.354C451.389 506.424 445.351 506.703 441.125 506.134Z" fill="#D2E4F8"/>
<path d="M471.233 441.78C477.313 441.916 488.003 441.072 493.142 441.813C490.056 442.073 489.258 441.635 487.009 443.279C485.24 447.043 486.239 451.76 486.085 456.079C481.273 456.233 475.505 456.268 470.783 456.701C471.786 454.058 471.295 445.141 471.233 441.78Z" fill="#D2E4F8"/>
<path d="M469.511 488.555C473.439 489.059 478.719 489.437 482.609 488.75C482.452 494.453 482.402 500.16 482.459 505.865C478.183 505.951 473.747 505.976 469.489 506.135L467.488 506.45C468.615 505.86 468.366 505.96 469.325 505.069C469.974 501.175 469.571 492.77 469.511 488.555Z" fill="#D2E4F8"/>
<path d="M570.708 488.792L582.824 488.628C582.703 494.064 584.097 501.073 581.458 504.212C579.447 505.066 578.007 504.782 575.815 504.676C573.766 504.638 572.536 504.51 570.505 504.818C567.338 505.517 557.485 505.19 554.043 505.074C558.447 504.317 565.803 504.55 570.483 504.55C570.668 499.379 570.649 493.982 570.708 488.792Z" fill="#9095A0"/>
<path d="M228.472 1070.19L727.461 1070.11L925.976 1070.14L986.833 1070.17C999.012 1070.19 1011.69 1070.5 1023.81 1070.05L1024.69 1070.92C1025.18 1076.85 1024.9 1084.26 1024.4 1090.19C970.172 1091.3 913.338 1090.36 858.849 1090.37L539.058 1090.39L335.313 1090.36L269.471 1090.37C256.543 1090.38 241.696 1090.77 228.976 1090.04C228.622 1083.45 228.578 1076.79 228.472 1070.19Z" fill="white"/>
<path d="M863.637 192.78C916.198 193.654 969.101 192.391 1021.69 192.81C1022.6 192.817 1022.88 193.018 1023.58 193.513C1023.83 195.243 1023.85 195.307 1023.69 197.041C1023.09 201.402 1023.21 203.965 1023.32 208.362C959.053 207.661 893.885 208.232 829.563 208.225L463.81 208.2L303.031 208.204L251.751 208.242C245.69 208.253 234.784 208.735 229.375 208.4C229.612 203.75 229.356 197.528 229.298 192.767C263.322 193.451 299.394 192.845 333.551 192.843L534.599 192.841L750.826 192.844C788.042 192.848 826.575 193.401 863.637 192.78Z" fill="#E4E7ED"/>
<path d="M180.961 245.404L196.183 245.418C197.82 256.583 194.894 256.423 193.713 265.934C193.243 269.715 193.498 282.981 193.499 287.252L193.614 477.222L193.705 833.684L193.708 938.302L193.659 972.615C193.636 978.898 193.875 986.778 193.248 992.895C191.874 993.777 192.304 993.489 190.582 993.844C187.697 996.544 188.769 1001.09 188.956 1004.8L181.03 1004.81C181.347 995.24 180.826 983.802 180.812 973.969L180.814 902.69L180.825 679.181L180.881 386.024C180.877 340.017 181.903 291.066 180.961 245.404Z" fill="#E4E7ED"/>
<path d="M1056.79 1021.75C1061.06 1022.3 1067.71 1022.1 1072.18 1021.98C1072.18 1026.98 1072.23 1032.04 1071.99 1037.02C1067.32 1037.16 1062.39 1037.39 1057.74 1037.39C1057.58 1042.44 1057.3 1047.97 1057.39 1052.99C1051.68 1053.57 1047.83 1053.69 1042.06 1053.72L1042.15 1069.48L1025.08 1069.7C1025.15 1064.74 1025.42 1058.63 1024.85 1053.8C1030.21 1053.82 1035.74 1053.64 1041.12 1053.53C1041.49 1048.09 1041.47 1042.82 1041.5 1037.39L1056.79 1037.24V1021.75Z" fill="white"/>
<path d="M1024.51 176.863C1025.04 177.498 1025.57 178.133 1026.11 178.767C1029.59 179.436 1034.64 180.112 1037.91 180.84C1037.98 184.391 1037.43 189.964 1039.49 192.302L1039.71 194.574C1043.52 194.33 1047.32 194.04 1051.14 193.984C1051.21 198.23 1051.2 202.772 1051.57 206.975C1047.9 207.084 1042.4 207.73 1039.26 207.677L1038.84 208.713L1024.35 208.84C1023.44 207.062 1023.68 199.424 1023.69 197.041C1023.85 195.307 1023.83 195.243 1023.58 193.513C1022.88 193.018 1022.6 192.817 1021.69 192.81C969.101 192.391 916.197 193.654 863.637 192.78C866.987 192.12 877.065 192.248 881.027 192.243L913.099 192.263L1023.67 192.161C1023.79 186.868 1023.71 182.106 1023.55 176.807L1024.51 176.863Z" fill="#7293BC"/>
<path d="M1024.51 176.864C1025.04 177.498 1025.57 178.133 1026.11 178.767C1029.59 179.436 1034.64 180.112 1037.91 180.84C1037.98 184.391 1037.43 189.964 1039.49 192.302C1035.4 192.003 1028.64 192.248 1024.34 192.268C1024.37 187.132 1024.43 181.998 1024.51 176.864Z" fill="#D2E4F8"/>
<path d="M1039.71 194.574C1043.52 194.33 1047.32 194.04 1051.14 193.984C1051.21 198.231 1051.2 202.772 1051.57 206.976C1047.9 207.085 1042.4 207.73 1039.26 207.677C1039.86 205.287 1039.71 197.378 1039.71 194.574Z" fill="#D2E4F8"/>
<path d="M196.466 1037.2C201.223 1037.35 207.241 1037.89 211.773 1037.75C211.712 1044 212.279 1047.95 212.47 1053.77L196.709 1053.36C196.7 1048.01 196.553 1042.55 196.466 1037.2Z" fill="white"/>
<path d="M214.343 208.743L229.12 208.701L228.972 221.575L217.698 221.614C217.73 224.424 218.246 228.529 216.644 230.55C214.839 230.98 214.898 230.938 213.031 230.792C213.05 226.997 213.686 225.282 210.355 223.209L213.032 222.406C215.399 219.735 214.471 212.653 214.343 208.743Z" fill="#EEEFF2"/>
<path d="M212.47 1053.77L227.989 1053.78C227.288 1057.79 227.631 1065.3 227.709 1069.63C222.893 1069.64 217.559 1069.21 212.709 1068.93L212.47 1053.77Z" fill="white"/>
<path d="M195.434 1022.03C196.19 1027.1 195.615 1031.97 196.101 1036.88L181.141 1036.7L180.938 1022.05C185.77 1022.1 190.602 1022.09 195.434 1022.03Z" fill="white"/>
<path d="M165.943 1006.6L180.114 1006.38C180.166 1010.7 180.142 1015.29 180.312 1019.59C179.945 1020.57 180.218 1020.04 179.359 1021.09C175.383 1021.69 170.059 1021.38 165.921 1021.28C166.029 1017 166.355 1010.66 165.943 1006.6Z" fill="#EEEFF2"/>
<path d="M1056.6 245.453L1070.93 245.508L1070.82 258.828C1069.1 259.067 1059.05 258.811 1056.98 258.794C1057 254.289 1057.13 249.928 1056.6 245.453Z" fill="#E4E7ED"/>
<path d="M214.044 192.247C215.424 189.516 214.062 184.234 216.507 180.725C219.517 176.407 223.465 178.184 228.183 176.826C228.142 182.147 228.162 187.028 228.367 192.342C224.226 192.297 218.021 192.031 214.044 192.247Z" fill="#D2E4F8"/>
<path d="M166.086 230.991C170.056 230.882 174.073 230.855 178.047 230.799L178.176 244.035L165.594 243.896C166.069 239.991 166.019 235.011 166.086 230.991Z" fill="#ACB0BA"/>
<path d="M1074.15 230.875C1078.2 230.674 1081.21 230.702 1085.25 230.822C1085.31 233.804 1085.13 241.966 1086.38 244.114C1082.67 243.834 1077.95 244.007 1074.14 244.049C1074.26 239.556 1074.43 235.368 1074.15 230.875Z" fill="#D2E4F8"/>
<path d="M203.31 193.729C207.352 193.908 211.239 194.699 214.045 192.247C212.832 196.619 213.197 202.184 213.24 206.83L203.002 206.483L203.31 193.729Z" fill="#D2E4F8"/>
<path d="M1055.17 219.387C1058.66 218.978 1059.8 218.932 1063.3 219.146L1071.55 218.899C1071.44 221.93 1070.94 227.462 1072.21 230.002L1074.15 230.875C1070.59 230.716 1066.64 230.776 1063.04 230.763L1063.12 219.85C1059.9 219.891 1058.37 220.019 1055.17 219.387Z" fill="#ACB0BA"/>
<path d="M189.062 219.009L189.556 219.291C188.961 222.952 189.222 227.021 189.291 230.772C185.562 230.774 181.768 230.742 178.046 230.799L179.952 229.951C181.263 227.542 180.725 222.123 180.611 219.187L189.062 219.009Z" fill="#ACB0BA"/>
<path d="M189.062 219.009C189.04 216.442 188.83 214.127 189.535 211.682C191.063 209.793 194.887 209.194 197.52 207.566L198.45 206.982L198.353 219.615C195.6 219.519 192.248 219.498 189.556 219.291L189.062 219.009Z" fill="#D2E4F8"/>
<path d="M1055.41 206.963C1057.81 210.521 1058.77 209.909 1063.06 210.034C1063.17 212.904 1063.4 216.325 1063.3 219.146C1059.8 218.933 1058.66 218.979 1055.17 219.388C1052.48 216.6 1053.13 209.94 1055.41 206.963Z" fill="#D2E4F8"/>
<path d="M1072.21 1007.66C1072.3 1007.21 1072.59 1006.83 1072.8 1006.42C1075.77 1005.85 1079.77 1006.34 1082.89 1006.55L1085.89 1006.82C1087.89 1009.96 1086.74 1016.99 1086.88 1021.31L1072.62 1021.22C1072.67 1016.65 1072.86 1012.19 1072.21 1007.66Z" fill="white"/>
<path d="M213.133 134.532L571.137 134.709L1024.96 134.627L1040.96 134.59L1040.77 150.637L1073.2 150.659L1073.22 165.911L1088.02 165.942C1087.83 171.455 1087.91 176.213 1088.06 181.729L1102.47 181.795C1101.76 186.591 1102.05 192.773 1102.12 197.725L1088.02 197.744L1087.96 181.92L1073.01 181.8C1073.09 176.504 1073.14 171.663 1072.96 166.364C1062.24 166.511 1051.54 166.402 1040.83 166.039C1040.63 161.561 1040.57 158.324 1040.75 153.854L554.951 154.086L330.693 154.127C292.838 154.09 253.926 154.534 216.146 153.776C216.195 157.223 216.524 161.503 215.645 164.726C213.121 166.464 186.29 167.525 181.732 167.432C181.685 172.103 181.729 177.106 181.554 181.746C177.059 182.109 171.852 182.657 167.407 182.613C167.311 187.777 167.242 192.571 167.401 197.729L153.648 198.168C153.886 206.777 152.878 208.505 151.468 216.718C150.964 219.655 151.117 227.533 151.154 230.828L142.76 231.062L143.302 659.795L143.295 881.786C143.301 918.286 142.571 957.351 143.353 993.52L143.361 1000.59C143.403 1007.15 140.059 1011.74 139.967 1019.44C139.147 1020.63 139.657 1020.19 138.491 1020.82C138.199 1018.28 138.262 1012.47 138.223 1009.67L123.707 1009.75C124.615 948.699 123.778 885.209 123.78 824.015L123.788 451.215L123.774 301.368L123.895 265.991C123.916 260.807 124.244 247.896 123.192 243.348L123.062 231.685L137.767 231.557C137.818 220.456 137.759 209.355 137.589 198.255C141.98 198.144 146.371 198.054 150.763 197.988C150.943 192.751 150.836 186.976 150.847 181.695L165.64 181.657L165.574 165.929L180.747 165.826L180.704 150.609L213.167 150.617L213.133 134.532Z" fill="white"/>
<path d="M123.193 243.348C124.244 247.896 123.916 260.807 123.895 265.991L123.775 301.368L123.788 451.215L123.781 824.015C123.778 885.209 124.615 948.699 123.708 1009.75L138.224 1009.67C138.262 1012.47 138.2 1018.28 138.491 1020.82L138.439 1021.32C138.57 1036.07 135.58 1037.37 151.306 1037.14C151.435 1042.48 151.453 1047.82 151.359 1053.17L165.629 1053.19L165.972 1063.46C166.055 1066.78 165.471 1066.67 167.15 1068.53C170.617 1069.98 175.308 1069.46 179.349 1069.63L180.751 1070.47C181.541 1074.48 181.209 1079.03 181.249 1083.21C185.934 1083.36 190.887 1083.6 195.55 1083.48C195.619 1086.43 195.627 1089.79 195.777 1092.71C206.855 1092.41 217.937 1092.36 229.017 1092.55L229.032 1109.37C304.685 1108.5 382.07 1109.17 457.805 1109.32L737.864 1109.28L922.578 1109.2L992.038 1109.17C1001.16 1109.19 1015.49 1108.75 1024.23 1109.27L1024.23 1092.35L1057 1092.39V1083.15L1072.03 1083.5C1072.02 1080.22 1071.8 1072.43 1072.53 1069.68C1073.23 1067.32 1073.13 1065.97 1073.21 1063.48C1073.07 1061.18 1073.03 1060.79 1073.3 1058.55C1075.97 1055.37 1078.09 1057.39 1081.7 1057.35C1086.24 1057.31 1086.12 1057.17 1087.48 1053.58C1088.88 1051.73 1088.57 1043.13 1088.61 1040.21L1101.98 1040.34C1104.78 1029.57 1103.93 1020.34 1103.84 1009.27C1109.57 1009.99 1124.5 1009.43 1131.04 1009.39C1131.55 1017.93 1130.98 1025.74 1130.95 1034.2L1116.57 1034.24L1116.29 1067.95C1111.79 1067.98 1107.15 1068.07 1102.66 1068.02L1102.51 1084.14C1097.52 1084.15 1092.39 1084.22 1087.41 1084.14L1087.34 1099.11L1072.49 1099.15L1072.45 1113L1035.44 1112.86L1035.4 1129.16L437.042 1129.41L284.918 1129.38C263.535 1129.38 238.734 1128.66 217.788 1129.24L217.911 1112.95L181.144 1112.77C181.007 1108.3 180.798 1103.64 180.802 1099.18L165.902 1099.12L165.727 1084.21L151.2 1084.12L151.041 1068.31L137.706 1068.19C137.64 1056.87 137.643 1045.55 137.717 1034.24C128.204 1034.34 122.594 1037.63 122.881 1026.46C123.596 992.362 123.099 956.781 123.127 922.529L123.175 726.518L123.193 243.348Z" fill="#ACB0BA"/>
<path d="M1088.61 1040.21L1101.98 1040.34C1102.2 1045.05 1102.31 1048.53 1102.1 1053.22C1099.03 1053.24 1090.25 1053.13 1087.48 1053.58C1088.88 1051.73 1088.57 1043.13 1088.61 1040.21Z" fill="#D2E4F8"/>
<path d="M1073.21 1063.48C1073.07 1061.18 1073.03 1060.79 1073.3 1058.55C1075.97 1055.37 1078.09 1057.39 1081.7 1057.35C1086.24 1057.31 1086.12 1057.17 1087.48 1053.58L1087.4 1058.6C1086.74 1062.58 1086.83 1063.87 1081.8 1063.81C1078.86 1063.78 1076.19 1063.41 1073.21 1063.48Z" fill="#D2E4F8"/>
<path d="M1087.4 1058.6C1087.45 1063.28 1086.79 1064.74 1086.52 1068.96L1072.53 1069.68C1073.23 1067.32 1073.13 1065.97 1073.21 1063.48C1076.19 1063.41 1078.86 1063.78 1081.8 1063.81C1086.83 1063.87 1086.74 1062.58 1087.4 1058.6Z" fill="#D2E4F8"/>
<path d="M1104.54 1111.46C1104.37 1116.04 1104.42 1120.22 1104.51 1124.81L1089.4 1124.82L1089.41 1138.89L1074.28 1138.85C1074.3 1142.73 1074.42 1147.21 1074.26 1151.02L1036.66 1151.01L1036.61 1165.42L217.394 1165.58L217.247 1151.1L179.757 1151.03C179.638 1146.98 179.481 1142.92 179.51 1138.86L164.635 1138.94C164.642 1134.69 164.485 1129.24 164.672 1125.1C168.79 1125.89 175.217 1125.12 179.505 1124.74C179.623 1127.51 179.18 1127.47 180.478 1129.43C185.923 1130.32 210.465 1129.77 217.353 1129.73C217.364 1135.58 217.319 1141.51 217.403 1147.36L1036.41 1147.43L1036.56 1129.73C1041.78 1129.76 1070.37 1130.26 1073.66 1129.32C1074.64 1127.73 1074.44 1126.49 1074.47 1124.6L1074.35 1116.85C1079.43 1116.92 1084.2 1117.05 1089.27 1116.66C1090.93 1108.57 1099.44 1117.09 1104.54 1111.46Z" fill="#D2E4F8"/>
<path d="M1089.27 1116.66C1089.41 1119.47 1089.53 1121.94 1089.49 1124.76L1074.47 1124.6L1074.35 1116.85C1079.43 1116.92 1084.2 1117.05 1089.27 1116.66Z" fill="#9095A0"/>
<path d="M1148.12 1036.5L1148 1059.34L1132.82 1059.22C1132.76 1061.61 1132.78 1065.78 1132.34 1067.98C1131.76 1059.45 1132.34 1045.56 1132.47 1036.61L1148.12 1036.5Z" fill="#D2E4F8"/>
<path d="M106.191 1036.48C109.742 1036.5 115.081 1036.73 118.377 1036.12C120.416 1036.61 120.587 1036.26 121.63 1037.55C121.964 1045.01 122.211 1061.47 121.767 1068.91C121.031 1066.76 121.3 1061.73 121.314 1059.23L106.402 1059.34L106.191 1036.48Z" fill="#D2E4F8"/>
<path d="M1104.61 1086.66C1109.75 1086.73 1114.39 1086.64 1119.53 1086.46C1119.22 1091.01 1119.29 1094.17 1119.45 1098.75L1118.84 1100.29C1118.45 1104.14 1118.31 1107.08 1118.22 1110.94C1114.14 1110.95 1108.38 1110.78 1104.54 1111.46L1104.62 1100.94C1104.48 1096.43 1104.61 1091.22 1104.61 1086.66Z" fill="#ACB0BA"/>
<path d="M1104.62 1100.94C1107.55 1099.8 1115.29 1100.24 1118.84 1100.29C1118.45 1104.14 1118.31 1107.08 1118.22 1110.94C1114.14 1110.95 1108.38 1110.78 1104.54 1111.46L1104.62 1100.94Z" fill="#D2E4F8"/>
<path d="M134.724 1086.39C139.182 1086.93 144.712 1086.76 149.295 1086.74C149.283 1090.45 149.054 1097.26 149.361 1100.73L149.469 1101.71L149.385 1111.03C146.55 1110.48 138.628 1110.74 135.333 1110.77C135.397 1107.22 135.336 1103.68 135.149 1100.13C134.661 1097.31 134.688 1089.98 134.626 1086.76L134.724 1086.39Z" fill="#9095A0"/>
<path d="M135.149 1100.13C138.53 1100.12 146.572 1099.83 149.361 1100.73L149.469 1101.71L149.385 1111.03C146.55 1110.48 138.628 1110.74 135.333 1110.77C135.398 1107.22 135.336 1103.68 135.149 1100.13Z" fill="#D2E4F8"/>
<path d="M149.469 1101.71C152.587 1102.52 160.657 1102.2 164.252 1102.18L164.195 1113.94L164.741 1116.96C164.723 1119.57 164.777 1122.53 164.671 1125.1C160.892 1124.53 153.443 1124.79 149.353 1124.82L149.482 1112.23L149.385 1111.03L149.469 1101.71Z" fill="#9095A0"/>
<path d="M149.482 1112.23C152.412 1114.7 159.901 1113.95 164.195 1113.94L164.741 1116.96C164.723 1119.57 164.777 1122.53 164.671 1125.1C160.892 1124.53 153.443 1124.79 149.353 1124.82L149.482 1112.23Z" fill="#D2E4F8"/>
<path d="M1025.71 116.83L1041.54 116.869C1041.55 122.478 1041.45 128.402 1041.67 133.983L1040.96 134.59L1024.96 134.627C1026.16 131.257 1025.86 120.526 1025.71 116.83Z" fill="#464E5C"/>
<path d="M1132.1 1069.68L1132.11 1073.68C1132.14 1078.04 1132.05 1082.4 1131.86 1086.75L1119.94 1086.83C1119.92 1090.71 1120.08 1094.97 1119.45 1098.75C1119.29 1094.17 1119.22 1091.01 1119.53 1086.45C1119.1 1081.91 1119.37 1074.58 1119.4 1069.82C1123.87 1069.9 1127.64 1069.93 1132.1 1069.68Z" fill="#D2E4F8"/>
<path d="M1120.18 1079.18C1124.28 1078.41 1128.2 1079.27 1131.04 1077.53C1131.81 1077.07 1131.91 1074.86 1132.11 1073.68C1132.14 1078.04 1132.05 1082.4 1131.86 1086.75L1119.94 1086.83C1119.92 1090.71 1120.08 1094.97 1119.45 1098.75C1119.29 1094.17 1119.22 1091.01 1119.53 1086.46C1120.1 1084.83 1120.1 1081.07 1120.18 1079.18Z" fill="#EEEFF2"/>
<path d="M121.97 1069.85C125.91 1070.32 130.59 1070.08 134.627 1070C134.635 1074.88 134.435 1081.66 134.724 1086.39L134.626 1086.76L122.363 1086.65C122.442 1080.98 122.193 1075.5 121.97 1069.85Z" fill="#D2E4F8"/>
<path d="M1104.62 1100.94L1104.54 1111.46C1099.44 1117.09 1090.93 1108.57 1089.27 1116.66L1089.56 1102.15C1093.23 1102.21 1101.94 1102.92 1104.62 1100.94Z" fill="#9095A0"/>
<path d="M164.741 1116.96L179.592 1116.85C179.57 1119.29 179.635 1122.36 179.505 1124.74C175.216 1125.12 168.79 1125.89 164.671 1125.1C164.777 1122.53 164.723 1119.57 164.741 1116.96Z" fill="#9095A0"/>
</svg>
