<svg width="1254" height="1254" viewBox="0 0 1254 1254" fill="none" xmlns="http://www.w3.org/2000/svg">
<path d="M1025.85 103L1041.68 103.04C1041.69 108.649 1041.59 114.573 1041.81 120.153C1052.67 120.051 1063.53 120.042 1074.4 120.125C1074.51 125.35 1074.63 130.252 1074.44 135.489L1089.73 135.518C1089.88 140.605 1089.95 145.695 1089.91 150.785L1104.84 150.774C1105.04 156.057 1105.29 161.361 1105.23 166.645L1119.66 166.743L1119.78 183.723C1124.19 183.753 1128.79 183.71 1133.17 183.85C1133.44 194.868 1133.4 205.89 1133.05 216.906C1138 216.893 1143.21 216.793 1148.13 216.906L1148.41 729.037L1148.43 926.107C1148.41 957.212 1149.16 991.912 1148.26 1022.67L1148.14 1045.51L1132.97 1045.39C1132.9 1047.78 1132.92 1051.95 1132.48 1054.15L1132.24 1055.85L1132.26 1059.85C1132.28 1064.21 1132.19 1068.57 1132 1072.92L1120.08 1073.01C1120.06 1076.88 1120.22 1081.14 1119.59 1084.92L1118.98 1086.46C1118.6 1090.31 1118.45 1093.25 1118.36 1097.11C1114.28 1097.12 1108.52 1096.95 1104.68 1097.63C1104.51 1102.21 1104.56 1106.39 1104.65 1110.98L1089.54 1110.99L1089.55 1125.06L1074.42 1125.02C1074.44 1128.9 1074.56 1133.38 1074.4 1137.19L1036.8 1137.18L1036.75 1151.59L217.535 1151.75L217.388 1137.27L179.898 1137.2C179.779 1133.15 179.622 1129.09 179.65 1125.03L164.776 1125.11C164.783 1120.86 164.626 1115.41 164.812 1111.27C161.033 1110.7 153.585 1110.96 149.494 1110.99L149.623 1098.4L149.526 1097.2C146.691 1096.65 138.769 1096.91 135.474 1096.94C135.539 1093.39 135.477 1089.85 135.29 1086.3C134.802 1083.48 134.829 1076.15 134.767 1072.93L122.504 1072.82C122.583 1067.15 122.334 1061.67 122.111 1056.02L121.908 1055.08C121.172 1052.93 121.441 1047.9 121.455 1045.4L106.543 1045.51L106.332 1022.65C105.672 1016.12 106.195 1000.31 106.229 993.112L106.259 940.08L106.362 756.964L106.474 362.701C106.545 314.274 105.868 265.243 106.405 216.927L121.855 216.917L121.957 183.897L134.849 183.83L134.886 166.776L149.447 166.55L149.438 150.789L164.652 150.733L164.629 135.541L179.982 135.514C179.901 130.411 179.919 125.262 179.901 120.154C190.879 120.096 201.858 120.113 212.836 120.208C212.594 114.691 212.739 108.622 212.759 103.059L1025.85 103Z" fill="#1D232A"/>
<path d="M216.287 139.946C254.067 140.704 292.979 140.26 330.834 140.297L555.092 140.256L1040.89 140.025C1040.72 144.494 1040.77 147.731 1040.97 152.209C1051.68 152.573 1062.39 152.681 1073.1 152.534C1073.28 157.833 1073.24 162.674 1073.15 167.97L1088.1 168.09L1088.16 183.914L1102.26 183.895C1102.19 178.943 1101.9 172.762 1102.61 167.965C1103.17 172.392 1102.93 179.805 1102.91 184.472C1106.04 184.45 1113.98 184.154 1116.56 184.893L1116.79 185.556C1117.24 195.844 1116.89 207.544 1116.81 217.936L1131.61 217.918C1130.85 269.406 1130.69 320.901 1131.1 372.392L1131.12 629.194L1131.1 870.491C1131.1 910.94 1130.17 955.467 1131.18 995.561C1124.64 995.603 1109.71 996.161 1103.98 995.444C1104.07 1006.51 1104.92 1015.74 1102.12 1026.51L1088.75 1026.38C1088.71 1029.3 1089.02 1037.9 1087.62 1039.75C1086.27 1043.34 1086.38 1043.48 1081.84 1043.52C1078.23 1043.56 1076.11 1041.54 1073.44 1044.72C1073.17 1046.96 1073.21 1047.35 1073.35 1049.65C1073.27 1052.14 1073.37 1053.49 1072.67 1055.85C1071.94 1058.6 1072.16 1066.39 1072.17 1069.67L1057.14 1069.32V1078.56L1024.37 1078.52L1024.37 1095.44C1015.63 1094.92 1001.3 1095.36 992.179 1095.34L922.719 1095.37L738.005 1095.45L457.945 1095.49C382.211 1095.34 304.826 1094.67 229.173 1095.54L229.158 1078.72C218.078 1078.53 206.995 1078.58 195.918 1078.88C195.767 1075.96 195.76 1072.6 195.69 1069.65C191.028 1069.77 186.075 1069.53 181.389 1069.38C181.349 1065.2 181.681 1060.65 180.892 1056.64L179.49 1055.8C175.449 1055.63 170.758 1056.15 167.29 1054.7C165.611 1052.84 166.196 1052.95 166.112 1049.63L165.769 1039.36L151.5 1039.34C151.594 1033.99 151.576 1028.65 151.446 1023.31C135.72 1023.54 138.711 1022.24 138.579 1007.49L138.632 1006.99C139.798 1006.36 139.288 1006.8 140.108 1005.61C140.2 997.912 143.545 993.32 143.502 986.756L143.494 979.69C142.712 943.521 143.442 904.456 143.436 867.956L143.443 645.965L142.901 217.232L151.295 216.998C151.258 213.703 151.105 205.825 151.609 202.888C153.019 194.675 154.027 192.947 153.789 184.338L167.542 183.899C167.383 178.741 167.452 173.948 167.548 168.783C171.993 168.827 177.2 168.279 181.695 167.916C181.871 163.276 181.826 158.273 181.873 153.602C186.432 153.696 213.262 152.634 215.786 150.896C216.665 147.674 216.336 143.393 216.287 139.946Z" fill="#E4E7ED"/>
<path d="M1116.08 196.532C1116.12 192.768 1116.02 189.243 1116.79 185.557C1117.24 195.844 1116.89 207.544 1116.81 217.937L1131.61 217.918C1130.85 269.406 1130.69 320.901 1131.1 372.393L1131.12 629.195L1131.1 870.492C1131.1 910.941 1130.17 955.467 1131.18 995.561C1124.64 995.604 1109.71 996.161 1103.98 995.445C1108.18 995.09 1109.72 995.2 1113.88 995.524C1114.96 994.159 1113.98 988.079 1113.93 985.862C1113.85 982.666 1113.73 979.537 1113.75 976.316L1113.83 857.492L1113.84 468.593L1113.86 305.428C1113.72 280.811 1113.77 256.193 1114.03 231.576L1103.74 231.014C1104.02 218.508 1102.33 211.104 1103.27 196.84C1107.35 196.578 1111.95 196.6 1116.08 196.532Z" fill="#D2E4F8"/>
<path d="M166.112 1049.63C168.752 1049.63 176.04 1049 177.455 1049.87C179.702 1052.47 178.369 1053.09 179.49 1055.8C175.449 1055.63 170.758 1056.15 167.29 1054.7C165.611 1052.84 166.196 1052.95 166.112 1049.63Z" fill="#D2E4F8"/>
<path d="M143.495 979.69C145.24 990.479 142.195 995.414 142.68 1005.91C142.714 1006.64 142.658 1006.52 142.33 1007.28L138.58 1007.49L138.632 1006.99C139.798 1006.36 139.288 1006.8 140.109 1005.61C140.2 997.912 143.545 993.32 143.502 986.756L143.495 979.69Z" fill="#EEEFF2"/>
<path d="M228.324 162.997C233.99 162.202 248.068 162.591 254.364 162.617L303.103 162.787L482.03 162.781L837.039 162.787L955.569 162.745C977.955 162.735 1001.46 162.267 1023.69 162.978L1024.66 163.034C1025.18 163.669 1025.71 164.304 1026.25 164.938C1029.73 165.607 1034.78 166.282 1038.05 167.01C1038.13 170.562 1037.57 176.134 1039.63 178.473L1039.85 180.744C1043.66 180.501 1047.46 180.211 1051.28 180.154C1051.35 184.401 1051.34 188.943 1051.71 193.146L1055.55 193.133C1057.95 196.692 1058.91 196.08 1063.21 196.205C1063.31 199.075 1063.54 202.495 1063.44 205.316L1071.69 205.07C1071.58 208.1 1071.08 213.633 1072.35 216.172L1074.29 217.046C1078.34 216.845 1081.35 216.872 1085.39 216.993C1085.45 219.974 1085.27 228.137 1086.52 230.285C1087.56 234.41 1087.36 252.647 1087.37 258.026L1087.31 311.26L1087.18 512.25L1087 848.277L1087.02 947.22C1087.01 957.739 1087.7 981.515 1086.82 991.146C1085.56 992.604 1085.38 992.206 1083.03 992.72C1079.92 992.512 1075.91 992.016 1072.94 992.591C1072.73 993.002 1072.45 993.381 1072.35 993.834L1072.24 1007.5C1068.14 1007.5 1060.7 1007.27 1056.93 1007.92C1061.2 1008.47 1067.85 1008.27 1072.32 1008.15C1072.32 1013.15 1072.37 1018.21 1072.13 1023.19C1067.46 1023.34 1062.53 1023.56 1057.88 1023.56C1057.73 1028.61 1057.44 1034.14 1057.53 1039.16C1051.82 1039.74 1047.97 1039.86 1042.2 1039.89L1042.3 1055.65L1025.22 1055.87C1025.29 1050.91 1025.56 1044.8 1024.99 1039.97C1024.47 1044.26 1025.19 1053.78 1023.95 1056.22L1024.83 1057.09C1025.32 1063.02 1025.04 1070.43 1024.55 1076.36C970.313 1077.47 913.479 1076.53 858.99 1076.54L539.199 1076.56L335.454 1076.53L269.612 1076.54C256.685 1076.55 241.837 1076.94 229.117 1076.21C228.763 1069.62 228.719 1062.96 228.613 1056.36C228.141 1051.16 228.712 1045.48 228.13 1039.95C227.429 1043.96 227.772 1051.47 227.851 1055.8C223.034 1055.81 217.7 1055.38 212.85 1055.1L212.611 1039.94L196.85 1039.53C196.842 1034.18 196.695 1028.72 196.607 1023.37L196.242 1023.05L181.282 1022.87L181.078 1008.22C185.911 1008.27 190.743 1008.26 195.575 1008.21L195.554 1007.65C191.912 1007.62 184.126 1007.88 181.067 1007.12L180.453 1005.76C180.086 1006.74 180.36 1006.21 179.5 1007.26C175.525 1007.86 170.201 1007.55 166.062 1007.45C166.17 1003.17 166.496 996.835 166.084 992.769C164.135 989.34 165.304 880.044 165.294 867.375L165.327 422.607L165.409 286.316C165.454 275.02 165.422 263.725 165.315 252.429C165.277 246.46 165.002 235.709 165.735 230.067C166.21 226.162 166.16 221.182 166.227 217.161C170.197 217.053 174.214 217.026 178.188 216.97L180.093 216.122C181.405 213.713 180.866 208.294 180.752 205.358L189.203 205.179C189.182 202.612 188.972 200.297 189.676 197.853C191.205 195.963 195.029 195.364 197.661 193.737L198.591 193.152C199.773 192.907 201.869 192.776 203.143 192.653L203.451 179.9C207.493 180.078 211.379 180.87 214.186 178.418C215.565 175.686 214.203 170.405 216.648 166.895C219.658 162.578 223.607 164.355 228.324 162.997Z" fill="#6888B0"/>
<path d="M1023.83 183.212C1023.82 185.595 1023.58 193.232 1024.5 195.01L1038.98 194.883C1038.93 199.183 1038.3 205.582 1040.29 208.789C1040.33 209.047 1040.37 209.305 1040.4 209.563C1040.24 212.069 1040.04 214.573 1039.81 217.073C1043.83 217.096 1051.34 216.923 1055.03 217.535L1055.9 217.701C1057.14 222.161 1055.74 227.715 1056.74 231.623C1057.27 236.099 1057.14 240.46 1057.13 244.964C1059.19 244.982 1069.24 245.237 1070.96 244.999L1070.79 990.969L1055.69 990.993C1055.66 996.259 1055.58 1001.6 1055.61 1006.86L1039.79 1006.94L1039.79 1022.83L1023.93 1022.82L1023.96 1039.54L228.716 1039.57C228.775 1034.15 228.963 1028.2 228.745 1022.83L213.278 1022.83L213.182 1006.95C210.007 1006.97 199.217 1007.37 196.881 1006.36C197.374 1002.05 197.112 995.628 197.061 991.14L189.097 990.969C188.91 987.258 187.838 982.715 190.723 980.014C192.445 979.659 192.015 979.947 193.389 979.065C194.016 972.948 193.777 965.068 193.8 958.786L193.849 924.472L193.846 819.854L193.755 463.393L193.641 273.423C193.639 269.151 193.384 255.885 193.854 252.105C195.035 242.593 197.962 242.753 196.324 231.588L196.553 231.307C196.793 227.165 196.667 221.788 196.689 217.552C201.507 216.909 208.179 217.023 213.172 216.962C215.039 217.108 214.98 217.15 216.785 216.72C218.387 214.7 217.871 210.594 217.839 207.785L229.113 207.746L229.261 194.871L229.517 194.571C234.925 194.906 245.832 194.423 251.892 194.413L303.172 194.374L463.952 194.371L829.704 194.396C894.026 194.402 959.194 193.831 1023.46 194.532C1023.35 190.135 1023.23 187.573 1023.83 183.212Z" fill="#D2E4F8"/>
<path d="M1024.5 195.01L1038.98 194.883C1038.93 199.182 1038.3 205.582 1040.29 208.789C1040.33 209.047 1040.37 209.305 1040.4 209.563L1038.94 209.95C1038.12 209.021 1038.36 209.337 1037.73 208.471L1037.35 207.932C1033.75 207.272 1028.76 207.655 1024.98 207.788C1024.97 203.19 1024.98 199.568 1024.5 195.01Z" fill="white"/>
<path d="M1055.03 217.535L1055.9 217.701C1055.89 222.221 1055.85 226.741 1055.77 231.259C1053.2 231.253 1046.8 231.548 1044.9 230.619C1044.63 220.058 1042.91 226.001 1039.99 217.733C1044.98 217.81 1050.08 218.004 1055.03 217.535Z" fill="#E4E7ED"/>
<path d="M196.689 217.552C201.459 217.88 210.131 216.886 213.013 219.043C213.508 220.785 213.539 219.912 212.646 221.726C209.857 222.265 208.153 222.003 205.364 221.816C205.462 224.815 205.475 228.676 205.771 231.592C203.077 231.656 199.028 231.959 196.553 231.307C196.793 227.165 196.667 221.788 196.689 217.552Z" fill="#EEEFF2"/>
<path d="M228.613 1056.36L727.602 1056.28L926.117 1056.31L986.974 1056.34C999.153 1056.36 1011.83 1056.68 1023.95 1056.22L1024.83 1057.09C1025.32 1063.02 1025.04 1070.43 1024.55 1076.36C970.313 1077.47 913.479 1076.53 858.99 1076.54L539.199 1076.56L335.454 1076.53L269.612 1076.54C256.685 1076.55 241.837 1076.94 229.117 1076.21C228.763 1069.62 228.719 1062.96 228.613 1056.36Z" fill="white"/>
<path d="M863.779 178.95C916.339 179.825 969.242 178.562 1021.83 178.98C1022.74 178.988 1023.02 179.189 1023.72 179.683C1023.97 181.414 1023.99 181.477 1023.83 183.212C1023.23 187.573 1023.35 190.135 1023.46 194.532C959.194 193.831 894.026 194.403 829.704 194.396L463.952 194.371L303.172 194.374L251.892 194.413C245.831 194.423 234.925 194.906 229.517 194.571C229.753 189.92 229.497 183.699 229.439 178.938C263.463 179.621 299.535 179.015 333.692 179.014L534.74 179.012L750.968 179.015C788.183 179.018 826.716 179.571 863.779 178.95Z" fill="#E4E7ED"/>
<path d="M181.102 231.574L196.324 231.588C197.962 242.753 195.035 242.593 193.854 252.105C193.384 255.885 193.639 269.151 193.641 273.423L193.755 463.393L193.846 819.854L193.849 924.472L193.8 958.786C193.777 965.068 194.016 972.948 193.389 979.065C192.015 979.947 192.445 979.659 190.724 980.014C187.838 982.715 188.91 987.258 189.097 990.969L181.172 990.981C181.488 981.411 180.967 969.973 180.954 960.139L180.955 888.861L180.966 665.351L181.022 372.194C181.019 326.187 182.044 277.236 181.102 231.574Z" fill="#E4E7ED"/>
<path d="M1056.93 1007.92C1061.2 1008.47 1067.85 1008.27 1072.32 1008.15C1072.32 1013.15 1072.37 1018.21 1072.13 1023.19C1067.46 1023.34 1062.53 1023.56 1057.88 1023.56C1057.73 1028.61 1057.44 1034.14 1057.53 1039.16C1051.82 1039.74 1047.97 1039.86 1042.2 1039.89L1042.3 1055.65L1025.22 1055.87C1025.29 1050.91 1025.56 1044.8 1024.99 1039.97C1030.35 1039.99 1035.89 1039.81 1041.26 1039.7C1041.63 1034.26 1041.61 1028.99 1041.64 1023.56L1056.93 1023.41V1007.92Z" fill="white"/>
<path d="M1024.66 163.034C1025.18 163.669 1025.71 164.303 1026.25 164.938C1029.73 165.607 1034.78 166.282 1038.05 167.01C1038.13 170.562 1037.57 176.134 1039.63 178.473L1039.85 180.744C1043.66 180.5 1047.46 180.21 1051.28 180.154C1051.35 184.401 1051.34 188.942 1051.71 193.146C1048.05 193.255 1042.54 193.9 1039.41 193.848L1038.98 194.883L1024.5 195.01C1023.58 193.232 1023.82 185.595 1023.83 183.212C1023.99 181.477 1023.97 181.413 1023.72 179.683C1023.02 179.188 1022.74 178.987 1021.83 178.98C969.242 178.561 916.339 179.824 863.778 178.95C867.128 178.29 877.206 178.419 881.168 178.413L913.24 178.433L1023.81 178.332C1023.93 173.038 1023.85 168.276 1023.69 162.978L1024.66 163.034Z" fill="#7293BC"/>
<path d="M1024.66 163.034C1025.18 163.669 1025.71 164.303 1026.25 164.938C1029.73 165.607 1034.78 166.282 1038.05 167.01C1038.13 170.562 1037.57 176.134 1039.63 178.473C1035.54 178.173 1028.78 178.418 1024.48 178.439C1024.51 173.303 1024.57 168.169 1024.66 163.034Z" fill="#D2E4F8"/>
<path d="M1039.85 180.745C1043.66 180.501 1047.46 180.211 1051.28 180.154C1051.35 184.401 1051.34 188.943 1051.71 193.146C1048.05 193.255 1042.54 193.901 1039.41 193.848C1040 191.457 1039.85 183.548 1039.85 180.745Z" fill="#D2E4F8"/>
<path d="M196.607 1023.37C201.365 1023.52 207.382 1024.06 211.915 1023.92C211.853 1030.17 212.42 1034.12 212.611 1039.94L196.85 1039.53C196.841 1034.18 196.694 1028.72 196.607 1023.37Z" fill="white"/>
<path d="M214.485 194.913L229.261 194.871L229.113 207.745L217.839 207.785C217.871 210.594 218.387 214.699 216.785 216.72C214.98 217.15 215.039 217.108 213.172 216.962C213.191 213.167 213.827 211.452 210.497 209.379L213.173 208.576C215.54 205.905 214.612 198.824 214.485 194.913Z" fill="#EEEFF2"/>
<path d="M212.611 1039.94L228.13 1039.95C227.429 1043.96 227.772 1051.47 227.85 1055.8C223.034 1055.81 217.7 1055.38 212.85 1055.1L212.611 1039.94Z" fill="white"/>
<path d="M195.576 1008.21C196.331 1013.27 195.756 1018.14 196.242 1023.05L181.282 1022.87L181.079 1008.22C185.911 1008.27 190.743 1008.26 195.576 1008.21Z" fill="white"/>
<path d="M166.084 992.769L180.255 992.548C180.307 996.871 180.283 1001.46 180.453 1005.76C180.086 1006.74 180.359 1006.21 179.5 1007.26C175.525 1007.86 170.201 1007.55 166.062 1007.45C166.17 1003.17 166.496 996.834 166.084 992.769Z" fill="#EEEFF2"/>
<path d="M1056.74 231.623L1071.07 231.679L1070.96 244.999C1069.24 245.237 1059.19 244.982 1057.13 244.964C1057.14 240.46 1057.27 236.098 1056.74 231.623Z" fill="#E4E7ED"/>
<path d="M214.186 178.417C215.565 175.686 214.203 170.404 216.648 166.895C219.658 162.578 223.606 164.355 228.324 162.997C228.283 168.318 228.303 173.199 228.508 178.512C224.367 178.468 218.162 178.201 214.186 178.417Z" fill="#D2E4F8"/>
<path d="M166.227 217.161C170.197 217.053 174.214 217.026 178.188 216.97L178.317 230.205L165.735 230.067C166.21 226.162 166.16 221.182 166.227 217.161Z" fill="#ACB0BA"/>
<path d="M1074.3 217.045C1078.34 216.845 1081.35 216.872 1085.39 216.993C1085.45 219.974 1085.27 228.137 1086.52 230.285C1082.81 230.004 1078.09 230.178 1074.28 230.219C1074.4 225.726 1074.57 221.539 1074.3 217.045Z" fill="#D2E4F8"/>
<path d="M203.451 179.899C207.493 180.078 211.38 180.87 214.186 178.417C212.973 182.789 213.338 188.355 213.381 193.001L203.144 192.653L203.451 179.899Z" fill="#D2E4F8"/>
<path d="M1055.31 205.558C1058.8 205.149 1059.94 205.103 1063.44 205.316L1071.69 205.07C1071.58 208.1 1071.08 213.632 1072.35 216.172L1074.29 217.045C1070.73 216.886 1066.78 216.946 1063.18 216.933L1063.26 206.02C1060.04 206.061 1058.51 206.189 1055.31 205.558Z" fill="#ACB0BA"/>
<path d="M189.203 205.179L189.697 205.461C189.102 209.123 189.363 213.191 189.432 216.942C185.704 216.944 181.909 216.912 178.188 216.969L180.093 216.121C181.405 213.712 180.866 208.294 180.752 205.358L189.203 205.179Z" fill="#ACB0BA"/>
<path d="M189.203 205.179C189.181 202.612 188.971 200.297 189.676 197.853C191.205 195.963 195.028 195.365 197.661 193.737L198.591 193.152L198.494 205.786C195.741 205.69 192.389 205.669 189.697 205.462L189.203 205.179Z" fill="#D2E4F8"/>
<path d="M1055.55 193.133C1057.95 196.692 1058.91 196.079 1063.21 196.204C1063.31 199.075 1063.54 202.495 1063.44 205.316C1059.94 205.103 1058.8 205.149 1055.31 205.558C1052.62 202.77 1053.27 196.11 1055.55 193.133Z" fill="#D2E4F8"/>
<path d="M1072.35 993.834C1072.45 993.381 1072.73 993.001 1072.94 992.591C1075.91 992.016 1079.92 992.512 1083.03 992.72L1086.03 992.995C1088.03 996.13 1086.88 1003.16 1087.02 1007.48L1072.76 1007.39C1072.81 1002.82 1073 998.359 1072.35 993.834Z" fill="white"/>
<path d="M213.274 120.702L571.278 120.879L1025.1 120.797L1041.1 120.76L1040.91 136.808L1073.35 136.83L1073.36 152.081L1088.16 152.112C1087.97 157.625 1088.05 162.383 1088.2 167.899L1102.61 167.965C1101.9 172.762 1102.19 178.943 1102.26 183.895L1088.16 183.914L1088.1 168.09L1073.15 167.97C1073.24 162.674 1073.28 157.833 1073.1 152.534C1062.39 152.681 1051.68 152.573 1040.97 152.209C1040.77 147.731 1040.72 144.494 1040.89 140.025L555.092 140.256L330.834 140.297C292.979 140.26 254.067 140.704 216.287 139.946C216.336 143.393 216.665 147.674 215.786 150.896C213.262 152.634 186.432 153.696 181.873 153.602C181.826 158.273 181.87 163.276 181.695 167.916C177.2 168.279 171.993 168.827 167.548 168.783C167.452 173.948 167.383 178.741 167.542 183.899L153.789 184.338C154.027 192.947 153.019 194.675 151.609 202.888C151.105 205.825 151.258 213.703 151.295 216.998L142.901 217.232L143.443 645.965L143.436 867.956C143.442 904.456 142.712 943.521 143.494 979.69L143.502 986.756C143.544 993.32 140.2 997.912 140.108 1005.61C139.288 1006.8 139.798 1006.36 138.632 1006.99C138.341 1004.45 138.403 998.641 138.364 995.836L123.848 995.922C124.756 934.869 123.919 871.379 123.921 810.185L123.929 437.386L123.915 287.538L124.036 252.161C124.057 246.977 124.385 234.066 123.334 229.518L123.203 217.855L137.908 217.727C137.959 206.626 137.9 195.525 137.73 184.425C142.121 184.314 146.512 184.224 150.904 184.158C151.084 178.921 150.977 173.147 150.988 167.866L165.781 167.827L165.715 152.099L180.888 151.996L180.845 136.779L213.308 136.787L213.274 120.702Z" fill="white"/>
<path d="M123.334 229.519C124.385 234.066 124.057 246.977 124.036 252.161L123.916 287.538L123.929 437.386L123.922 810.185C123.919 871.379 124.756 934.869 123.849 995.922L138.365 995.836C138.403 998.641 138.341 1004.45 138.632 1006.99L138.58 1007.49C138.711 1022.24 135.721 1023.54 151.447 1023.31C151.577 1028.65 151.594 1034 151.5 1039.34L165.77 1039.37L166.113 1049.63C166.197 1052.95 165.612 1052.84 167.291 1054.7C170.758 1056.15 175.449 1055.63 179.49 1055.8L180.892 1056.64C181.682 1060.65 181.35 1065.2 181.39 1069.38C186.075 1069.53 191.028 1069.77 195.691 1069.65C195.76 1072.6 195.768 1075.96 195.918 1078.88C206.996 1078.58 218.078 1078.53 229.158 1078.72L229.173 1095.54C304.826 1094.67 382.212 1095.34 457.946 1095.49L738.005 1095.45L922.719 1095.37L992.179 1095.34C1001.3 1095.36 1015.63 1094.92 1024.37 1095.44L1024.37 1078.52L1057.14 1078.56V1069.33L1072.17 1069.67C1072.16 1066.39 1071.94 1058.6 1072.67 1055.85C1073.37 1053.49 1073.27 1052.14 1073.35 1049.65C1073.21 1047.35 1073.17 1046.96 1073.44 1044.72C1076.11 1041.54 1078.23 1043.56 1081.84 1043.52C1086.38 1043.48 1086.27 1043.34 1087.62 1039.75C1089.02 1037.9 1088.71 1029.3 1088.75 1026.38L1102.12 1026.51C1104.92 1015.74 1104.07 1006.51 1103.98 995.444C1109.71 996.161 1124.64 995.604 1131.18 995.561C1131.69 1004.1 1131.12 1011.91 1131.09 1020.37L1116.71 1020.41L1116.43 1054.12C1111.93 1054.15 1107.29 1054.24 1102.8 1054.2L1102.65 1070.31C1097.66 1070.32 1092.53 1070.39 1087.55 1070.31L1087.48 1085.28L1072.64 1085.32L1072.59 1099.17L1035.58 1099.03L1035.54 1115.33L437.184 1115.58L285.059 1115.55C263.676 1115.55 238.875 1114.83 217.93 1115.41L218.052 1099.12L181.286 1098.94C181.148 1094.47 180.939 1089.81 180.943 1085.36L166.043 1085.29L165.868 1070.38L151.341 1070.29L151.182 1054.48L137.847 1054.36C137.781 1043.04 137.784 1031.72 137.858 1020.41C128.345 1020.51 122.735 1023.8 123.022 1012.63C123.737 978.532 123.24 942.951 123.268 908.699L123.316 712.688L123.334 229.519Z" fill="#ACB0BA"/>
<path d="M1088.75 1026.38L1102.12 1026.51C1102.34 1031.22 1102.45 1034.7 1102.24 1039.39C1099.17 1039.41 1090.39 1039.3 1087.62 1039.75C1089.02 1037.9 1088.71 1029.3 1088.75 1026.38Z" fill="#D2E4F8"/>
<path d="M1073.35 1049.65C1073.21 1047.35 1073.17 1046.96 1073.44 1044.72C1076.11 1041.54 1078.23 1043.56 1081.84 1043.52C1086.38 1043.48 1086.27 1043.34 1087.62 1039.75L1087.54 1044.77C1086.88 1048.75 1086.97 1050.04 1081.94 1049.98C1079 1049.95 1076.33 1049.58 1073.35 1049.65Z" fill="#D2E4F8"/>
<path d="M1087.54 1044.77C1087.59 1049.45 1086.93 1050.91 1086.66 1055.13L1072.67 1055.85C1073.37 1053.49 1073.27 1052.14 1073.35 1049.65C1076.33 1049.58 1079 1049.95 1081.94 1049.98C1086.97 1050.04 1086.88 1048.75 1087.54 1044.77Z" fill="#D2E4F8"/>
<path d="M1104.68 1097.63C1104.51 1102.21 1104.56 1106.39 1104.65 1110.98L1089.54 1110.99L1089.55 1125.06L1074.42 1125.02C1074.44 1128.9 1074.56 1133.38 1074.4 1137.19L1036.8 1137.18L1036.75 1151.59L217.535 1151.75L217.388 1137.27L179.898 1137.2C179.779 1133.15 179.622 1129.09 179.651 1125.03L164.776 1125.11C164.783 1120.86 164.627 1115.41 164.813 1111.27C168.931 1112.06 175.358 1111.29 179.646 1110.91C179.764 1113.68 179.321 1113.64 180.619 1115.6C186.065 1116.49 210.606 1115.94 217.494 1115.9C217.505 1121.75 217.46 1127.68 217.544 1133.53L1036.55 1133.6L1036.7 1115.9C1041.92 1115.93 1070.51 1116.43 1073.8 1115.49C1074.78 1113.9 1074.58 1112.66 1074.61 1110.77L1074.49 1103.02C1079.57 1103.09 1084.34 1103.22 1089.41 1102.83C1091.07 1094.74 1099.58 1103.26 1104.68 1097.63Z" fill="#D2E4F8"/>
<path d="M1089.41 1102.83C1089.55 1105.64 1089.67 1108.11 1089.63 1110.93L1074.61 1110.77L1074.49 1103.02C1079.57 1103.09 1084.34 1103.22 1089.41 1102.83Z" fill="#9095A0"/>
<path d="M1148.26 1022.67L1148.14 1045.51L1132.97 1045.39C1132.9 1047.78 1132.92 1051.95 1132.48 1054.15C1131.9 1045.62 1132.48 1031.73 1132.61 1022.78L1148.26 1022.67Z" fill="#D2E4F8"/>
<path d="M106.332 1022.65C109.883 1022.67 115.222 1022.9 118.518 1022.29C120.557 1022.78 120.729 1022.43 121.771 1023.72C122.105 1031.18 122.352 1047.64 121.908 1055.08C121.172 1052.93 121.441 1047.9 121.455 1045.4L106.543 1045.51L106.332 1022.65Z" fill="#D2E4F8"/>
<path d="M1104.75 1072.83C1109.89 1072.9 1114.53 1072.81 1119.67 1072.63C1119.36 1077.18 1119.43 1080.34 1119.59 1084.92L1118.98 1086.46C1118.6 1090.31 1118.45 1093.25 1118.36 1097.11C1114.28 1097.12 1108.52 1096.95 1104.68 1097.63L1104.76 1087.11C1104.62 1082.6 1104.75 1077.4 1104.75 1072.83Z" fill="#ACB0BA"/>
<path d="M1104.76 1087.11C1107.69 1085.97 1115.44 1086.41 1118.98 1086.46C1118.6 1090.31 1118.45 1093.25 1118.36 1097.11C1114.28 1097.12 1108.52 1096.95 1104.68 1097.63L1104.76 1087.11Z" fill="#D2E4F8"/>
<path d="M134.865 1072.56C139.323 1073.1 144.853 1072.93 149.436 1072.91C149.424 1076.62 149.195 1083.43 149.502 1086.9L149.61 1087.88L149.526 1097.2C146.691 1096.65 138.769 1096.91 135.474 1096.94C135.539 1093.39 135.477 1089.85 135.29 1086.3C134.802 1083.48 134.829 1076.15 134.767 1072.93L134.865 1072.56Z" fill="#9095A0"/>
<path d="M135.29 1086.3C138.671 1086.29 146.713 1086 149.502 1086.9L149.61 1087.88L149.526 1097.2C146.691 1096.65 138.769 1096.91 135.474 1096.94C135.539 1093.4 135.477 1089.85 135.29 1086.3Z" fill="#D2E4F8"/>
<path d="M149.61 1087.88C152.728 1088.69 160.798 1088.37 164.393 1088.35L164.336 1100.11L164.882 1103.13C164.864 1105.74 164.918 1108.7 164.812 1111.27C161.033 1110.7 153.584 1110.96 149.494 1110.99L149.623 1098.4L149.526 1097.2L149.61 1087.88Z" fill="#9095A0"/>
<path d="M149.623 1098.4C152.553 1100.87 160.042 1100.12 164.336 1100.11L164.882 1103.13C164.864 1105.74 164.918 1108.7 164.812 1111.27C161.033 1110.7 153.584 1110.96 149.494 1110.99L149.623 1098.4Z" fill="#D2E4F8"/>
<path d="M1025.85 103L1041.68 103.04C1041.69 108.649 1041.59 114.573 1041.81 120.153L1041.1 120.761L1025.1 120.797C1026.3 117.428 1026 106.696 1025.85 103Z" fill="#464E5C"/>
<path d="M1132.24 1055.85L1132.26 1059.85C1132.28 1064.21 1132.19 1068.57 1132 1072.92L1120.08 1073C1120.06 1076.88 1120.22 1081.14 1119.59 1084.92C1119.43 1080.34 1119.36 1077.18 1119.67 1072.63C1119.24 1068.08 1119.51 1060.75 1119.54 1056C1124.01 1056.07 1127.78 1056.11 1132.24 1055.85Z" fill="#D2E4F8"/>
<path d="M1120.32 1065.35C1124.42 1064.58 1128.34 1065.44 1131.18 1063.7C1131.96 1063.24 1132.05 1061.03 1132.26 1059.85C1132.28 1064.21 1132.19 1068.57 1132 1072.92L1120.08 1073.01C1120.07 1076.88 1120.22 1081.14 1119.59 1084.92C1119.43 1080.34 1119.36 1077.18 1119.67 1072.63C1120.24 1071 1120.24 1067.24 1120.32 1065.35Z" fill="#EEEFF2"/>
<path d="M122.111 1056.02C126.051 1056.49 130.731 1056.25 134.768 1056.17C134.776 1061.05 134.576 1067.83 134.865 1072.56L134.767 1072.93L122.504 1072.82C122.583 1067.15 122.334 1061.67 122.111 1056.02Z" fill="#D2E4F8"/>
<path d="M1104.76 1087.11L1104.68 1097.63C1099.58 1103.26 1091.07 1094.74 1089.41 1102.83L1089.7 1088.32C1093.37 1088.38 1102.08 1089.09 1104.76 1087.11Z" fill="#9095A0"/>
<path d="M164.882 1103.13L179.733 1103.02C179.711 1105.46 179.777 1108.53 179.646 1110.91C175.358 1111.29 168.931 1112.06 164.812 1111.27C164.918 1108.7 164.865 1105.74 164.882 1103.13Z" fill="#9095A0"/>
<path d="M505.915 388.501C505.846 381.941 505.302 374.04 506.996 367.89C507.452 367.46 507.909 367.03 508.366 366.6C575.896 365.843 686.851 365.908 751.081 366.219L751.227 388.278L771.985 388.646L771.921 576.648L943.397 576.817L943.617 599.526L964.201 599.597L964.109 816.363L987.904 816.354C988.05 831.574 988.032 846.784 987.831 861.995C987.758 868.749 987.904 877.324 987.465 883.923C982.927 883.895 969.58 883.273 966.195 884.883C965.829 887.501 966.415 886.549 965.033 888.407C947.24 889.606 921.386 888.618 902.971 888.608L784.893 888.618L415.717 888.59C385.957 888.563 323.105 889.24 291.068 887.959C290.19 887.922 289.733 885.048 289.372 883.73C287.213 883.291 271.592 883.895 268.106 883.932C268.24 876.061 268.229 869.874 267.761 862.04C266.354 857.053 267.233 822.852 267.747 816.546C274.45 816.107 284.111 816.4 291.028 816.4C291.184 793.3 289.703 583.373 292.025 579.621C297.058 575.823 305.192 577.16 311.916 577.356L311.955 555.333C369.541 554.402 427.282 555.705 484.878 554.807C485.128 501.606 483.305 441.197 485.312 388.613C491.833 388.353 499.315 388.516 505.915 388.501Z" fill="#11141B"/>
<path d="M987.83 861.995C987.757 868.749 987.903 877.324 987.464 883.923C982.927 883.895 969.579 883.273 966.194 884.884C965.828 887.501 966.414 886.549 965.032 888.407C947.239 889.606 921.386 888.618 902.97 888.608L784.893 888.618L415.716 888.59C385.956 888.563 323.105 889.24 291.067 887.959C290.19 887.922 289.732 885.048 289.371 883.73C287.212 883.291 271.591 883.895 268.106 883.932C268.239 876.061 268.228 869.874 267.761 862.04L289.97 862.031L966.121 862.077L987.83 861.995Z" fill="#799CC8"/>
<path d="M987.831 861.995C987.758 868.749 987.904 877.324 987.465 883.923C982.927 883.895 969.58 883.273 966.195 884.884C965.921 877.699 966.122 869.353 966.122 862.077L987.831 861.995Z" fill="#C1CEE3"/>
<path d="M267.761 862.041L289.97 862.032C289.985 866.681 290.373 879.924 289.371 883.731C287.212 883.292 271.591 883.896 268.106 883.932C268.239 876.062 268.228 869.875 267.761 862.041Z" fill="#C1CEE3"/>
<path d="M546.316 388.91L730.15 388.952C734.944 388.888 745.967 388.451 750.121 389.271L750.743 390.45C751.145 408.793 750.523 428.346 750.496 446.868L750.487 570.571C750.596 658.804 751.822 751.256 750.23 839.206L730.47 839.307L525.592 839.371L506.538 839.307L506.767 810.716C506.624 804.283 506.606 797.84 506.711 791.406C506.425 783.947 506.656 774.887 506.638 767.3L506.615 435.825L506.619 414.393L506.534 388.932L527.038 388.955L546.316 388.91Z" fill="#EEBF30"/>
<path d="M730.15 388.952C734.943 388.888 745.967 388.451 750.12 389.271L750.743 390.45C751.145 408.793 750.523 428.346 750.496 446.868L750.486 570.571C750.596 658.804 751.822 751.256 750.23 839.206L730.47 839.307C730.671 829.423 729.098 821.058 729.793 810.689C730.808 797.41 730.287 777.742 730.305 764.161L730.323 678.517L730.259 427.224C729.71 423.392 730.15 418.428 730.323 414.466C731.055 407.911 730.406 395.858 730.15 388.952Z" fill="#C57727"/>
<path d="M730.15 388.952C734.943 388.888 745.967 388.451 750.12 389.271L750.742 390.45C749.544 396.635 749.91 407.713 749.91 414.326C743.561 414.29 736.883 414.145 730.57 414.259C730.561 417.216 730.744 424.702 730.259 427.224C729.71 423.392 730.15 418.428 730.323 414.466C731.055 407.911 730.406 395.858 730.15 388.952Z" fill="#E7AE1D"/>
<path d="M527.058 414.159L528.084 414.719L527.718 415.551C528.009 422.576 527.985 428.328 527.797 435.367L527.833 664.807C527.822 697.15 525.942 735.927 527.169 767.519C520.374 767.675 513.376 768.013 506.638 767.3L506.614 435.824L506.619 414.393C513.916 414.54 519.783 414.532 527.058 414.159Z" fill="#FEEA8C"/>
<path d="M527.058 414.159L528.084 414.719L527.718 415.551C526.884 421.119 527.149 429.609 527.169 435.486L506.614 435.824L506.619 414.393C513.916 414.54 519.783 414.532 527.058 414.159Z" fill="#FEF6C8"/>
<path d="M506.766 810.716C513.529 810.735 520.738 810.899 527.456 810.78L729.793 810.689C729.097 821.058 730.671 829.423 730.47 839.307L525.592 839.371L506.538 839.307L506.766 810.716Z" fill="#C88526"/>
<path d="M506.766 810.717C513.529 810.735 520.738 810.9 527.456 810.781C527.313 816.537 527.219 834.878 525.592 839.371L506.538 839.307L506.766 810.717Z" fill="#C57727"/>
<path d="M546.316 388.91L730.15 388.952C730.406 395.858 731.055 407.912 730.324 414.466C669.707 413.774 607.095 414.237 546.432 414.663L545.335 414.326C540.084 414.651 533.45 414.604 528.084 414.72L527.058 414.16C519.784 414.532 513.916 414.54 506.619 414.393L506.534 388.932L527.038 388.955L546.316 388.91Z" fill="#FEEA8C"/>
<path d="M506.534 388.932L527.038 388.955L546.316 388.91L546.662 406.803C550.656 407.371 557.649 407.977 560.218 411.042L559.673 411.791C553.833 411.258 551.232 406.966 547.483 409.626C548.27 411.341 547.759 410.68 548.844 411.73C553.431 412.986 555.233 412.942 559.952 413.186L545.964 413.765L545.379 413.663L545.335 414.326C540.084 414.651 533.45 414.604 528.084 414.72L527.058 414.16C519.784 414.532 513.916 414.54 506.619 414.393L506.534 388.932Z" fill="#FEF6C8"/>
<path d="M506.534 388.932L527.038 388.955C527.019 396.862 526.737 406.388 527.058 414.16C519.784 414.532 513.916 414.54 506.619 414.393L506.534 388.932Z" fill="#F8D047"/>
<path d="M545.379 413.662C540.415 413.577 532.162 413.669 527.603 412.876L526.445 411.412C529.594 404.889 540.423 403.228 545.588 408.27C545.949 410.676 545.98 411.327 545.964 413.765L545.379 413.662Z" fill="white"/>
<path d="M506.637 767.3C513.375 768.014 520.374 767.675 527.168 767.519C527.398 775.555 527.348 783.599 527.019 791.635C521.456 791.644 513.31 791.424 507.968 791.818L506.71 791.406C506.424 783.947 506.655 774.887 506.637 767.3Z" fill="#FCDE65"/>
<path d="M506.711 791.406L507.969 791.818C512.762 792.898 521.985 792.532 527.287 792.504C527.272 796.815 526.986 806.973 527.456 810.78C520.738 810.899 513.529 810.735 506.767 810.716C506.624 804.283 506.605 797.84 506.711 791.406Z" fill="#E7AE1D"/>
<path d="M545.334 414.326L546.431 414.663C546.007 420.546 545.446 426.593 545.432 432.475C537.056 432.649 535.991 432.734 527.797 435.368C527.984 428.329 528.008 422.577 527.717 415.552L528.083 414.72C533.45 414.605 540.083 414.651 545.334 414.326Z" fill="#F8D047"/>
<path d="M613.855 456.437L671.234 456.619L671.499 574.477C671.508 586.514 672.331 617.768 671.105 628.776C671.224 634.898 671.389 641.095 671.426 647.209L651.281 647.135L651.684 648.124C658.051 648.041 665.388 647.767 671.654 648.243L672.45 648.142C679.275 647.08 684.535 647.245 691.433 647.263C691.579 658.749 691.552 670.235 691.369 681.72C691.351 685.701 691.149 690.863 691.689 694.707C691.762 697.846 692.275 700.738 690.784 703.346C682.23 704.344 664.336 703.895 655.16 703.905L588.097 703.822L562.735 703.795C562.781 696.492 562.768 689.188 562.698 681.885C562.427 671.406 562.078 657.495 562.978 647.126C563.537 643.081 563.585 633.38 563.726 628.896C573.115 628.745 584.69 628.367 593.874 629.094C594.004 613.501 594.055 597.907 594.028 582.313L593.873 573.455C589.295 573.133 583.719 573.121 579.051 573.002L579.068 555.826C574.627 555.859 570.567 555.666 566.15 555.451C563.722 555.301 564.734 555.823 562.953 554.079C561.852 548.743 562.387 542.795 562.56 537.267L562.57 514.853L562.679 495.825L585.997 495.385C587.771 495.352 589.737 495.21 591.529 495.122C597.53 489.984 591.445 483.792 594.797 476.855C597.758 474.982 597.425 475.667 601.703 475.816C605.86 475.553 609.565 475.321 613.755 475.295L613.855 456.437Z" fill="#EEBF30"/>
<path d="M562.978 647.126C567.249 647.19 577.086 647.089 580.89 647.593L580.872 663.508L580.875 681.125L596.874 680.961C597.968 675.25 598.039 669.585 598.297 663.773C611.541 664.185 625.785 661.028 636.689 661.357C649.936 661.769 656.779 663.737 671.609 663.288C671.7 659.463 671.929 655.967 672.212 652.15L672.45 648.142C679.275 647.08 684.535 647.245 691.433 647.263C691.579 658.749 691.552 670.235 691.369 681.72C691.351 685.701 691.149 690.863 691.689 694.707C691.762 697.846 692.275 700.738 690.783 703.346C682.23 704.344 664.336 703.895 655.16 703.904L588.097 703.822L562.735 703.795C562.781 696.491 562.768 689.188 562.698 681.885C562.427 671.406 562.078 657.495 562.978 647.126Z" fill="#754208"/>
<path d="M672.213 652.151C672.424 661.833 672.433 671.516 672.241 681.199L596.875 680.961C597.969 675.25 598.04 669.585 598.298 663.774C611.542 664.185 625.786 661.028 636.69 661.357C649.937 661.769 656.78 663.737 671.61 663.289C671.701 659.463 671.93 655.967 672.213 652.151Z" fill="#E7AE1D"/>
<path d="M691.369 681.72C691.351 685.701 691.15 690.863 691.689 694.707C691.763 697.846 692.275 700.738 690.784 703.346C682.23 704.344 664.336 703.895 655.16 703.904L588.097 703.822L587.88 703.163L672.377 703.19L672.578 682.068L691.369 681.72Z" fill="#985D0C"/>
<path d="M562.698 681.885C568.691 682.306 574.637 682.901 580.629 682.544C580.629 688.978 579.198 698.843 583.118 702.962L587.88 703.163L588.097 703.822L562.735 703.795C562.781 696.491 562.768 689.188 562.698 681.885Z" fill="#985D0C"/>
<path d="M613.856 456.437L671.234 456.619L671.5 574.477C671.509 586.514 672.332 617.768 671.106 628.776C671.225 634.898 671.39 641.095 671.426 647.209L651.282 647.135C650.303 591.909 651.318 534.787 651.163 479.325L651.309 476.026C646.598 475.41 636.516 475.755 631.357 475.797C625.181 475.724 620.022 475.777 613.865 476.089C608.641 476.542 606.949 476.381 601.703 475.816C605.86 475.553 609.565 475.321 613.755 475.295L613.856 456.437Z" fill="#754208"/>
<path d="M613.856 456.437L671.234 456.619L671.5 574.477C671.509 586.514 672.332 617.768 671.106 628.776C670.045 624.565 670.585 587.878 670.612 581.057C670.822 546.095 670.713 511.133 670.292 476.175C663.961 476.296 657.631 476.247 651.309 476.026C646.598 475.41 636.516 475.755 631.357 475.797C625.181 475.724 620.022 475.777 613.865 476.089C608.641 476.542 606.949 476.381 601.703 475.816C605.86 475.553 609.565 475.321 613.755 475.295L613.856 456.437Z" fill="#985D0C"/>
<path d="M562.57 514.853C567.841 515.005 574.794 514.575 580.198 514.393L580.1 520.31C580.512 525.363 580.821 530.425 581.025 535.492L580.971 538.633C584.817 542.14 592.592 539.777 598.395 540.529C604.725 539.835 607.451 539.941 613.764 540.197L613.855 540.69L615.447 540.961C616.865 544.768 616.563 550.691 616.563 554.946L616.673 579.233L616.188 624.828C616.142 630.634 617.359 644.71 614.047 648.49L613.187 647.904C607.314 647.51 599.811 647.547 593.808 647.41L587.025 647.355L580.89 647.593C577.086 647.09 567.249 647.19 562.978 647.126C563.537 643.081 563.585 633.38 563.726 628.895C573.115 628.745 584.69 628.367 593.874 629.094C594.004 613.501 594.055 597.907 594.028 582.313L593.873 573.455C589.295 573.133 583.719 573.121 579.051 573.002L579.068 555.826C574.627 555.859 570.567 555.666 566.15 555.451C563.722 555.301 564.734 555.823 562.953 554.079C561.852 548.743 562.387 542.795 562.56 537.267L562.57 514.853Z" fill="#754208"/>
<path d="M562.57 514.853C567.841 515.005 574.794 514.575 580.198 514.393L580.1 520.31C580.512 525.363 580.821 530.425 581.025 535.492L580.971 538.633C584.817 542.14 592.592 539.777 598.395 540.529C593.765 541.751 585.774 541.328 580.709 541.283L580.503 554.209C583.942 554.324 588.203 554.268 591.47 555.072L593.265 556.163C594.233 560.985 593.904 568.288 593.873 573.455C589.295 573.133 583.719 573.121 579.051 573.002L579.068 555.826C574.627 555.859 570.567 555.666 566.15 555.451C563.722 555.301 564.734 555.823 562.953 554.079C561.852 548.743 562.387 542.795 562.56 537.267L562.57 514.853Z" fill="#8B4B14"/>
<path d="M562.57 514.853C567.841 515.005 574.794 514.575 580.198 514.393L580.1 520.31C579.364 527.17 579.713 531.133 580.126 538.018C575.346 538.108 566.839 538.658 562.561 537.267L562.57 514.853Z" fill="#754208"/>
<path d="M566.151 555.451C575.722 554.127 582.797 555.922 591.471 555.072L593.266 556.163C594.234 560.985 593.904 568.288 593.874 573.455C589.295 573.133 583.719 573.121 579.052 573.002L579.068 555.826C574.628 555.859 570.568 555.665 566.151 555.451Z" fill="#E7AE1D"/>
<path d="M563.726 628.896C573.115 628.746 584.691 628.368 593.875 629.094C588.77 629.808 585.82 629.689 580.751 629.598C580.76 635.046 579.931 641.095 581.757 646.074C583.826 647.428 584.47 647.163 587.025 647.355L580.89 647.593C577.087 647.09 567.249 647.191 562.978 647.126C563.537 643.081 563.585 633.38 563.726 628.896Z" fill="#C57727"/>
<path d="M594.028 582.313C596.455 586.851 594.243 639.045 593.809 647.41L587.025 647.355C584.47 647.163 583.826 647.428 581.757 646.073C579.931 641.095 580.76 635.045 580.751 629.597C585.82 629.689 588.77 629.808 593.875 629.094C594.005 613.501 594.056 597.907 594.028 582.313Z" fill="#8B4B14"/>
<path d="M613.856 540.69L615.448 540.961C616.866 544.768 616.564 550.691 616.564 554.946L616.674 579.232L616.189 624.828C616.143 630.634 617.36 644.71 614.048 648.489L613.188 647.904C615.127 642.376 613.883 552.398 613.856 540.69Z" fill="#FCDE65"/>
<path d="M585.997 495.385C587.772 495.352 589.737 495.21 591.529 495.122C597.531 489.984 591.446 483.792 594.798 476.855C597.759 474.982 597.425 475.667 601.703 475.816C606.949 476.381 608.641 476.542 613.865 476.089L613.883 495.566C608.404 495.875 602.923 496.024 597.44 496.011L597.411 513.787C592.635 513.765 585.015 513.535 580.516 513.91L580.198 514.393C574.794 514.575 567.842 515.006 562.57 514.854L562.68 495.825L585.997 495.385Z" fill="#8B4B14"/>
<path d="M562.68 495.824L585.997 495.384C583.861 495.917 581.699 495.945 580.732 497.382C578.359 500.907 579.614 509.72 580.516 513.91L580.198 514.393C574.794 514.575 567.842 515.005 562.57 514.853L562.68 495.824Z" fill="#985D0C"/>
<path d="M613.883 495.566L614.02 495.926L613.874 515.329C608.87 515.267 603.014 515.349 598.088 515.121C598.84 522.536 598.025 527.947 598.444 534.763L598.396 540.53C592.592 539.777 584.818 542.14 580.972 538.633L581.025 535.492C580.821 530.426 580.513 525.364 580.1 520.31L580.198 514.393L580.515 513.91C585.015 513.535 592.634 513.766 597.411 513.787L597.44 496.011C602.922 496.024 608.403 495.875 613.883 495.566Z" fill="#FEEA8C"/>
<path d="M583.594 524.896C587.748 524.622 592.041 524.751 595.68 522.983C598.217 519.764 597.446 519.894 598.087 515.121C598.84 522.536 598.025 527.947 598.444 534.763L598.396 540.529C592.592 539.777 584.818 542.14 580.972 538.633L581.025 535.492C583.435 532.134 583.222 529.032 583.594 524.896Z" fill="#F8D047"/>
<path d="M631.357 475.796C636.517 475.754 646.598 475.409 651.309 476.026L651.163 479.324C650.77 484.799 650.44 489.624 650.376 495.124L631.238 495.371C625.804 495.482 619.354 495.466 614.021 495.925L613.884 495.565L613.865 476.088C620.022 475.777 625.182 475.724 631.357 475.796Z" fill="#FEEA8C"/>
<path d="M613.865 476.089C620.022 475.778 625.182 475.725 631.357 475.797L631.238 495.372C625.804 495.483 619.354 495.466 614.021 495.926L613.884 495.566L613.865 476.089Z" fill="#FEF6C8"/>
<path d="M616.563 554.946C621.339 554.976 626.755 554.867 631.475 555.226C631.411 562.443 631.475 570.077 631.228 577.253C624.971 577.624 622.812 577.718 616.673 579.233L616.563 554.946Z" fill="#F8D047"/>
<path d="M593.809 647.41C599.811 647.547 607.314 647.511 613.188 647.904L614.048 648.49L613.114 650.586C608.495 651.446 603.498 650.842 598.747 650.558L598.282 663.472C593.026 663.435 585.964 663.188 580.872 663.508L580.89 647.593L587.025 647.355L593.809 647.41Z" fill="#FEEA8C"/>
<path d="M598.444 534.762C603.267 534.056 608.22 532.766 612.685 534.188C614.67 536.476 614.158 536.962 613.764 540.196C607.452 539.94 604.726 539.835 598.396 540.529L598.444 534.762Z" fill="#E7AE1D"/>
<path d="M651.684 648.124C658.051 648.041 665.388 647.767 671.655 648.243C671.143 650.055 671.655 649.323 670.054 650.421C665.452 650.924 656.213 651.913 652.041 650.192L651.684 648.124Z" fill="#FCDE65"/>
<path d="M671.106 628.776L691.717 628.637C692.046 646.467 693.638 677.794 691.69 694.707C691.15 690.863 691.351 685.702 691.369 681.721C691.552 670.235 691.58 658.749 691.433 647.264C684.535 647.245 679.275 647.081 672.451 648.142L671.655 648.243C665.388 647.767 658.051 648.042 651.684 648.124L651.281 647.136L671.426 647.209C671.389 641.095 671.225 634.898 671.106 628.776Z" fill="#C57727"/>
<path d="M312.106 793.712C310.677 739.643 312.752 684.677 311.903 630.521C311.649 614.288 311.006 594.241 312.173 578.251L485.068 578.419L484.966 599.563L484.914 810.708C484.947 820.207 484.925 829.707 484.849 839.216L331.421 839.335C332.292 830.174 332.314 819.997 332.538 810.726L312.884 810.882C312.904 807.266 313.381 796.302 312.106 793.712Z" fill="#BBBCC1"/>
<path d="M312.106 793.712C310.677 739.643 312.752 684.677 311.903 630.521C311.649 614.288 311.006 594.241 312.173 578.251L485.068 578.419L484.966 599.563C441.341 600.127 395.971 599.9 352.322 599.598C345.121 600.278 339.885 600.216 332.609 600.118C332.903 640.656 332.989 681.199 332.869 721.742C332.855 744.118 333.371 769.597 332.684 791.736C327.411 791.681 317.755 791.324 312.914 791.983C318.737 793.044 326.395 792.678 332.462 792.614L332.494 809.673C358.984 811.156 387.523 809.564 414.189 809.985C426.427 810.168 439.778 809.481 451.914 810.753L484.914 810.708C484.947 820.207 484.925 829.707 484.849 839.216L331.421 839.335C332.292 830.174 332.314 819.997 332.538 810.726L312.884 810.882C312.904 807.266 313.381 796.302 312.106 793.712Z" fill="#E8E8E9"/>
<path d="M484.913 810.707C484.946 820.207 484.924 829.707 484.848 839.215L331.42 839.334C332.291 830.173 332.313 819.996 332.537 810.725C357.436 811.073 382.339 811.165 407.24 810.991C419.63 810.982 440.031 811.622 451.913 810.753L484.913 810.707Z" fill="#818589"/>
<path d="M312.106 793.712C310.677 739.643 312.752 684.677 311.903 630.521C311.649 614.288 311.006 594.241 312.173 578.251C312.637 585.672 312.781 592.357 312.856 599.801L312.914 791.983C318.737 793.044 326.395 792.678 332.462 792.614L332.494 809.673C358.984 811.156 387.523 809.564 414.189 809.985C426.427 810.168 439.778 809.481 451.914 810.753C440.032 811.623 419.631 810.982 407.241 810.991C382.34 811.165 357.437 811.074 332.538 810.726L312.884 810.882C312.904 807.266 313.381 796.302 312.106 793.712Z" fill="#AAB0BE"/>
<path d="M772.104 600.16C783.238 598.847 940.333 599.266 942.831 600.381L943.013 601.222C943.37 618.782 942.757 636.886 942.693 654.53L942.584 760.473C942.584 778.456 942.181 799.487 942.986 817.306C949.975 817.242 957.559 817.315 964.485 816.995L964.43 839.317L943.142 839.253L923.043 839.335L790.758 839.353H771.738C772.104 830.22 771.876 820.198 771.848 811.001L772.049 792.495L771.857 791.534C772.964 744.85 771.976 694.597 771.921 647.639L771.985 624.162L772.104 600.16Z" fill="#C57727"/>
<path d="M943.012 601.222C943.369 618.781 942.756 636.886 942.692 654.53L942.582 760.472C942.582 778.456 942.18 799.487 942.985 817.306C949.974 817.242 957.558 817.315 964.484 816.995L964.429 839.316L943.14 839.252L923.042 839.334C922.849 829.222 922.529 820.664 921.212 810.607L921.807 810.222C923.773 806.214 922.849 639.539 922.795 623.884L942.143 623.838C942.152 616.903 941.869 607.877 943.012 601.222Z" fill="#754208"/>
<path d="M942.985 817.306C949.975 817.242 957.559 817.315 964.484 816.995L964.429 839.316L943.141 839.252L942.985 817.306Z" fill="#6D6F73"/>
<path d="M794.444 810.79C834.807 810.186 880.869 809.874 921.213 810.607C922.53 820.664 922.851 829.222 923.043 839.334L790.758 839.353H771.738C772.104 830.219 771.876 820.198 771.848 811L791.453 810.808L794.444 810.79Z" fill="#8B4B14"/>
<path d="M771.848 811L791.453 810.808C791.307 820.326 791.078 829.844 790.758 839.353H771.738C772.104 830.219 771.876 820.198 771.848 811Z" fill="#754208"/>
<path d="M796.849 600.216L922.932 600.484V623.726C914.397 623.802 903.556 624.215 895.212 623.875L791.214 623.799L771.984 624.162L772.103 600.16C779.038 600.661 784.024 600.527 791.013 600.302L796.849 600.216Z" fill="#F6B675"/>
<path d="M791.013 600.302L796.85 600.216C794.38 607.263 794.846 618.568 792.568 621.902L791.553 622.276C791.077 615.59 791.15 607.124 791.013 600.302Z" fill="#E49F60"/>
<path d="M791.205 646.97L791.159 739.725C791.068 754.698 791.471 770.906 790.208 785.695C790.025 787.809 789.778 786.821 790.839 788.569C789.028 792.751 776.275 791.305 771.856 791.534C772.963 744.85 771.975 694.597 771.92 647.639C777.556 647.144 785.396 647.144 791.205 646.97Z" fill="#C88526"/>
<path d="M771.985 624.162L791.214 623.8L791.205 646.97C785.396 647.144 777.556 647.144 771.92 647.638L771.985 624.162Z" fill="#E49F60"/>
<path d="M772.049 792.496L791.608 792.239C791.398 796.385 790.419 806.507 792.258 809.793L794.444 810.79L791.453 810.809L771.848 811.001L772.049 792.496Z" fill="#985D0C"/>
<path d="M312.106 793.712C313.38 796.302 312.904 807.266 312.883 810.881L332.538 810.725C332.314 819.996 332.292 830.173 331.421 839.334L311.642 839.261L290.814 839.307L290.852 817.077L311.855 817.232C312.362 811.714 311.885 800.356 312.106 793.712Z" fill="#6D6F73"/>
<path d="M290.852 817.077L311.855 817.233C311.794 824.069 311.969 832.571 311.642 839.261L290.814 839.307L290.852 817.077Z" fill="#818589"/>
</svg>
