<svg preserveAspectRatio="none" width="100%" height="100%" overflow="visible" style="display: block;" viewBox="0 0 150 150" fill="none" xmlns="http://www.w3.org/2000/svg">
<g id="&#229;&#190;&#133;&#229;&#136;&#174;&#229;&#188;&#128;">
<rect width="150" height="150" rx="75" fill="var(--fill-0, #D2D2D1)"/>
<g id="&#229;&#155;&#155;&#229;&#143;&#182;&#232;&#141;&#137;">
<path d="M97.0246 101.438C99.4018 104.141 100.661 107.648 100.546 111.245C100.431 114.844 98.95 118.263 96.4044 120.809C93.8589 123.355 90.439 124.835 86.841 124.951C83.2431 125.066 79.7364 123.806 77.0333 121.429L75.0314 119.427C74.4691 120.189 73.7954 120.863 73.0333 121.425C70.3291 123.803 66.8202 125.063 63.2208 124.948C59.6217 124.832 56.2017 123.35 53.6554 120.804C51.109 118.258 49.6272 114.837 49.5119 111.238C49.3966 107.638 50.6562 104.13 53.0343 101.426L75.0236 79.4369L97.0246 101.438Z" fill="var(--fill-0, white)" fill-opacity="0.3"/>
<path d="M111.277 49.473C114.876 49.5883 118.297 51.0691 120.844 53.6156C123.39 56.162 124.871 59.5827 124.986 63.182C125.102 66.7815 123.842 70.2903 121.464 72.9945L119.466 74.9926L121.468 76.9945C123.843 79.7012 125.103 83.2084 124.993 86.808C124.883 90.4077 123.411 93.8317 120.874 96.3881C118.341 98.9681 114.91 100.471 111.296 100.581C107.682 100.692 104.165 99.402 101.48 96.9818L79.4757 74.9847L101.465 52.9955C104.169 50.6171 107.677 49.3579 111.277 49.473Z" fill="var(--fill-0, white)" fill-opacity="0.3"/>
<path d="M38.7814 49.4193C42.395 49.3087 45.9121 50.5977 48.5978 53.0179L70.5949 75.015L48.6046 97.0043C45.9005 99.3826 42.3925 100.642 38.7931 100.527C35.1937 100.412 31.7732 98.9305 29.2267 96.3842C26.6802 93.8377 25.1985 90.4171 25.0831 86.8177C24.9679 83.2183 26.2272 79.7095 28.6056 77.0052L30.6036 75.0072L28.6017 73.0052C26.1827 70.3186 24.895 66.8014 25.007 63.1879C25.119 59.5742 26.6223 56.1434 29.2033 53.6117C31.736 51.0317 35.1677 49.5299 38.7814 49.4193Z" fill="var(--fill-0, white)" fill-opacity="0.3"/>
<path d="M63.2267 25.0492C66.8264 24.939 70.3344 26.1989 73.0411 28.5746L75.0421 30.5765C75.6043 29.8144 76.2781 29.1407 77.0402 28.5785C79.7478 26.2038 83.2559 24.9455 86.8556 25.057C90.4554 25.1686 93.8793 26.6422 96.4347 29.1801C99.0155 31.7117 100.519 35.1427 100.631 38.7562C100.743 42.3698 99.4545 45.887 97.0353 48.5736L75.046 70.5629L53.0451 48.5629C50.7143 45.835 49.4847 42.3357 49.5958 38.7494C49.707 35.163 51.1513 31.7466 53.6466 29.1683C56.203 26.6315 59.6269 25.1594 63.2267 25.0492Z" fill="var(--fill-0, white)" fill-opacity="0.3"/>
</g>
</g>
</svg>
