<svg preserveAspectRatio="none" width="100%" height="100%" overflow="visible" style="display: block;" viewBox="0 0 150 80" fill="none" xmlns="http://www.w3.org/2000/svg">
<g id="&#228;&#184;&#173;&#229;&#165;&#150;&#229;&#143;&#183;&#231;&#160;&#129;">
<rect width="150" height="80" rx="20" fill="var(--fill-0, #D2D2D1)"/>
<g id="Union">
<path d="M73.8177 52.7882C74.9843 52.7882 75.8846 53.1051 76.5179 53.7384C77.151 54.3717 77.4671 55.2721 77.4671 56.4386V56.5382C77.4671 57.7048 77.1512 58.6051 76.5179 59.2384C75.8846 59.8717 74.9843 60.1886 73.8177 60.1886H73.7171C72.5508 60.1885 71.6511 59.8714 71.0179 59.2384C70.3846 58.6051 70.0677 57.7048 70.0677 56.5382V56.4386C70.0677 55.2719 70.3845 54.3717 71.0179 53.7384C71.6511 53.1052 72.5507 52.7883 73.7171 52.7882H73.8177Z" fill="var(--fill-0, white)" fill-opacity="0.3"/>
<path d="M69.8675 20.8888C71.4341 20.0555 73.2511 19.7057 75.3177 19.839C77.2176 19.939 78.9173 20.4894 80.4173 21.4894C81.9173 22.456 83.084 23.6896 83.9173 25.1896C84.7505 26.6562 85.1673 28.1728 85.1673 29.7394C85.1673 31.4726 84.9008 32.9893 84.3675 34.2892C83.8342 35.5891 83.2004 36.6561 82.4671 37.4894C81.7671 38.3226 80.8842 39.2231 79.8177 40.1896C79.1178 40.8228 78.6012 41.3229 78.2679 41.6896C77.9679 42.0229 77.7343 42.3727 77.5677 42.7394C77.4344 43.106 77.3171 43.4559 77.2171 43.7892C77.1504 44.0891 77.101 44.4061 77.0677 44.7394V45.089C76.9677 46.7557 75.9338 47.589 73.9671 47.589H73.7679C72.7346 47.589 71.9341 47.3225 71.3675 46.7892C70.8342 46.2559 70.6006 45.5058 70.6673 44.5392V44.2394C70.7339 43.6396 70.8338 43.0394 70.9671 42.4396C71.1337 41.8064 71.3674 41.1394 71.6673 40.4396C72.1673 39.1397 72.7507 38.0892 73.4173 37.2892C74.0839 36.456 74.9175 35.5895 75.9173 34.6896C76.5837 34.0898 77.1005 33.5895 77.4671 33.1896C77.8337 32.7563 78.1342 32.2726 78.3675 31.7394C78.6341 31.1728 78.7678 30.5059 78.7679 29.7394C78.7679 29.006 78.6342 28.3723 78.3675 27.839C78.1008 27.3057 77.6676 26.889 77.0677 26.589C76.501 26.2557 75.784 26.0725 74.9173 26.0392C74.084 25.9726 73.3504 26.0888 72.7171 26.3888C72.1172 26.6888 71.5007 27.189 70.8675 27.8888C70.1676 28.6887 69.4678 29.1722 68.7679 29.339C68.068 29.4723 67.3177 29.2725 66.5179 28.7394L66.3675 28.6388C65.5011 28.0723 65.0009 27.4227 64.8675 26.6896C64.7342 25.9229 64.9842 25.139 65.6175 24.339C66.9175 22.839 68.3342 21.6888 69.8675 20.8888Z" fill="var(--fill-0, white)" fill-opacity="0.3"/>
</g>
</g>
</svg>
